<?xml version="1.0" encoding="UTF-8"?>
<svg version="1.1" xmlns="http://www.w3.org/2000/svg" width="250" height="120">
<path d="M0 0 C2.41350656 0.56474574 4.64583766 0.71152668 7.12258911 0.80738831 C8.5966069 0.86733727 8.5966069 0.86733727 10.10040283 0.92849731 C11.16072723 0.96708359 12.22105164 1.00566986 13.31350708 1.04542542 C14.4193515 1.08840256 15.52519592 1.1313797 16.66455078 1.17565918 C19.01311588 1.26589019 21.36176275 1.35401377 23.71047974 1.44020081 C27.24376405 1.57048557 30.77666528 1.70877348 34.30960083 1.84815979 C44.38703374 2.23553441 54.46218762 2.59392368 64.54788208 2.63136292 C65.26114655 2.63620193 65.97441101 2.64104095 66.70928955 2.64602661 C69.41187426 2.63904463 71.96279371 2.55389301 74.61721802 2.0224762 C78.33444537 1.27973877 82.05171647 1.27114495 85.82913208 1.19386292 C86.71812195 1.1730365 87.60711182 1.15221008 88.52304077 1.13075256 C91.53382876 1.06354605 94.54470034 1.00495478 97.55569458 0.94776917 C98.5997345 0.92659027 99.64377441 0.90541138 100.7194519 0.8835907 C135.86622878 0.18995183 171.02907128 0.42143428 206.18069458 0.51026917 C210.5183676 11.15306484 209.32751752 20.73906257 207.80569458 31.94776917 C206.11000462 45.41619206 205.37338463 58.88551878 204.71850586 72.43685913 C204.64688341 73.91639935 204.57408384 75.3958831 204.50006104 76.87530518 C204.31099864 80.67356075 204.14423985 84.47089424 204.00979614 88.27149963 C203.94465192 89.80813286 203.87923184 91.34475441 203.81350708 92.88136292 C203.7943222 93.58946609 203.77513733 94.29756927 203.75537109 95.02713013 C203.56212186 99.16015297 203.12607376 101.56281045 200.18069458 104.51026917 C197.67909241 105.0292511 197.67909241 105.0292511 194.65310669 105.0561676 C193.5159874 105.07588623 192.3788681 105.09560486 191.20729065 105.11592102 C189.97003738 105.11714966 188.73278412 105.1183783 187.45803833 105.11964417 C185.52596275 105.14444855 185.52596275 105.14444855 183.55485535 105.16975403 C180.1075363 105.2135759 176.66046952 105.23341409 173.21292114 105.24848938 C169.80943314 105.26762904 166.40625345 105.3099834 163.00296021 105.35011292 C155.06227508 105.43849925 147.12180329 105.47911157 139.18069458 105.51026917 C137.40301193 105.51898544 137.40301193 105.51898544 135.5894165 105.52787781 C122.75997588 105.58675187 109.95256709 105.48123302 97.12869263 105.10279846 C79.29808974 104.57708497 61.47663708 104.38946104 43.63964844 104.65141296 C41.50489949 104.68166216 39.37005767 104.70608187 37.23516846 104.72386169 C24.52344674 104.84170729 12.3189705 105.80043551 -0.19450378 108.12872314 C-8.90683589 109.71868986 -17.60868087 111.00039885 -26.00680542 107.51026917 C-27.38932495 106.95339417 -27.38932495 106.95339417 -28.79977417 106.38526917 C-29.46621948 106.09651917 -30.13266479 105.80776917 -30.81930542 105.51026917 C-30.8140686 104.71854309 -30.80883179 103.92681702 -30.80343628 103.11109924 C-30.78261605 99.51499733 -30.76962915 95.91890812 -30.75680542 92.32276917 C-30.74842651 91.07689026 -30.74004761 89.83101135 -30.73141479 88.54737854 C-30.72819214 87.34532776 -30.72496948 86.14327698 -30.72164917 84.90480042 C-30.71379395 83.24734802 -30.71379395 83.24734802 -30.70578003 81.55641174 C-30.81075655 78.73965461 -31.24874358 76.26044933 -31.81930542 73.51026917 C-31.90736202 71.8036325 -31.94988614 70.09417458 -31.95211792 68.38526917 C-31.95340698 67.43136292 -31.95469604 66.47745667 -31.95602417 65.49464417 C-31.95215698 64.50980042 -31.94828979 63.52495667 -31.94430542 62.51026917 C-31.94817261 61.52542542 -31.95203979 60.54058167 -31.95602417 59.52589417 C-31.95473511 58.57198792 -31.95344604 57.61808167 -31.95211792 56.63526917 C-31.95098999 55.77159729 -31.94986206 54.90792542 -31.94869995 54.01808167 C-31.81930542 51.51026917 -31.81930542 51.51026917 -31.32418823 49.30177307 C-30.56778998 45.11963691 -30.64257714 40.96310223 -30.60836792 36.72120667 C-30.58032043 34.79151038 -30.55165614 32.86182297 -30.52243042 30.93214417 C-30.48104613 27.8992671 -30.44414377 24.86655987 -30.41793823 21.83351135 C-30.39041486 18.89989911 -30.34457147 15.96703331 -30.29586792 13.03370667 C-30.29261505 12.12430328 -30.28936218 11.2148999 -30.28601074 10.27793884 C-30.26944427 9.43341156 -30.25287781 8.58888428 -30.23580933 7.71876526 C-30.22772247 6.97661774 -30.21963562 6.23447021 -30.21130371 5.46983337 C-29.70549935 2.94136285 -28.85767607 2.05414956 -26.81930542 0.51026917 C-23.59664917 -0.00144958 -23.59664917 -0.00144958 -19.75680542 -0.17723083 C-19.08866821 -0.2099408 -18.42053101 -0.24265076 -17.73214722 -0.27635193 C-3.44023716 -0.92606233 -3.44023716 -0.92606233 0 0 Z M-23.81930542 3.51026917 C-21.41061755 6.06252122 -19.31273233 8.01650055 -16.13180542 9.51026917 C-15.44473511 9.8389801 -14.75766479 10.16769104 -14.04977417 10.50636292 C-12.49815096 11.20472923 -10.93739386 11.88300691 -9.37008667 12.54542542 C-8.56957886 12.88444885 -7.76907104 13.22347229 -6.94430542 13.57276917 C-6.20438354 13.87312073 -5.46446167 14.17347229 -4.70211792 14.48292542 C-2.81930542 15.51026917 -2.81930542 15.51026917 -0.81930542 18.51026917 C-0.15930542 18.51026917 0.50069458 18.51026917 1.18069458 18.51026917 C1.18069458 19.17026917 1.18069458 19.83026917 1.18069458 20.51026917 C3.3742469 22.38027994 5.57553534 24.14458883 7.86819458 25.88526917 C9.12220327 26.85128204 10.37611123 27.81742568 11.62991333 28.78370667 C12.23899536 29.24897766 12.84807739 29.71424866 13.47561646 30.19361877 C14.94183416 31.32582268 16.38234813 32.49117451 17.81741333 33.66261292 C20.22624384 35.54588041 22.67891278 37.13535614 25.30569458 38.69776917 C26.15389771 39.20694885 27.00210083 39.71612854 27.87600708 40.24073792 C30.22630394 41.62588573 30.22630394 41.62588573 33.18069458 42.51026917 C33.18069458 43.50026917 33.18069458 44.49026917 33.18069458 45.51026917 C23.72359438 41.888401 16.03946434 35.77622294 8.18069458 29.51026917 C7.31831177 28.83480042 6.45592896 28.15933167 5.56741333 27.46339417 C-1.35865316 22.00462768 -1.35865316 22.00462768 -4.38180542 18.76026917 C-7.22368858 16.13699241 -9.92509979 15.0038299 -13.47164917 13.55323792 C-16.55556111 12.18318053 -19.28765673 10.4253361 -22.09274292 8.56105042 C-23.949951 7.3427908 -23.949951 7.3427908 -26.81930542 6.51026917 C-26.84436157 7.75638977 -26.86941772 9.00251038 -26.89523315 10.28639221 C-26.98953453 14.91767843 -27.08969952 19.54882261 -27.19161987 24.1799469 C-27.23488281 26.18284274 -27.27656389 28.18577342 -27.31661987 30.18873596 C-27.37453204 33.07075996 -27.43816589 35.95261005 -27.50289917 38.83448792 C-27.52796791 40.17382637 -27.52796791 40.17382637 -27.55354309 41.54022217 C-27.65141682 45.66463242 -27.90652195 49.47276469 -28.81930542 53.51026917 C-28.90482449 54.92504506 -28.94982128 56.3429128 -28.95211792 57.76026917 C-28.95340698 58.53370667 -28.95469604 59.30714417 -28.95602417 60.10401917 C-28.95215698 60.89808167 -28.94828979 61.69214417 -28.94430542 62.51026917 C-28.94817261 63.30433167 -28.95203979 64.09839417 -28.95602417 64.91651917 C-28.95473511 65.68995667 -28.95344604 66.46339417 -28.95211792 67.26026917 C-28.95098999 67.95636292 -28.94986206 68.65245667 -28.94869995 69.36964417 C-28.86811445 71.56729457 -28.86811445 71.56729457 -28.31710815 73.90357971 C-27.7608307 76.81646561 -27.70644584 79.50265201 -27.72164917 82.46730042 C-27.72487183 83.57911682 -27.72809448 84.69093323 -27.73141479 85.83644104 C-27.7397937 86.98692932 -27.74817261 88.1374176 -27.75680542 89.32276917 C-27.76131714 90.49259338 -27.76582886 91.6624176 -27.77047729 92.86769104 C-27.78223612 95.74860274 -27.79867116 98.6294096 -27.81930542 101.51026917 C-23.60249384 100.40220189 -19.96262625 99.19403106 -16.19430542 97.01026917 C-12.22516979 94.93549372 -8.88723189 94.08827618 -4.44430542 93.57276917 C1.56138748 92.8343643 5.86383562 90.88515361 11.14944458 88.03370667 C19.91421758 83.62873055 29.5343282 81.83121303 39.18069458 80.51026917 C38.85069458 81.17026917 38.52069458 81.83026917 38.18069458 82.51026917 C35.49347426 83.12086366 32.82733789 83.64372982 30.11819458 84.13526917 C23.51525844 85.43960946 17.99821519 87.308395 12.11819458 90.57276917 C5.85544619 94.03433824 0.28516284 95.47870402 -6.77828979 96.42189026 C-13.26986952 97.3646571 -18.35978047 99.86665532 -23.81930542 103.51026917 C-21.02315536 106.30641922 -18.60635933 106.66223772 -14.80612183 106.69459534 C-9.41093162 106.63284013 -4.30971123 105.5911872 0.96975708 104.56105042 C14.82607865 102.07372988 28.51017881 101.79559032 42.55569458 101.69776917 C45.15303384 101.66665337 47.75036464 101.6348242 50.34768677 101.60231018 C68.08647229 101.41099901 85.8039657 101.58542038 103.53334045 102.1803894 C124.87861391 102.88917007 146.22557123 102.42991337 167.57369995 102.04670715 C171.04097996 101.98491158 174.50829989 101.92544042 177.97561646 101.86573792 C184.71068184 101.74944444 191.44570196 101.63070199 198.18069458 101.51026917 C196.99357441 97.94890864 195.81363911 97.5300709 192.57376099 95.90968323 C191.94904907 95.61287659 191.32433716 95.31606995 190.68069458 95.01026917 C190.03922485 94.7005719 189.39775513 94.39087463 188.73684692 94.0717926 C180.55991598 90.18821371 172.91425652 88.05325171 163.93899536 86.86280823 C160.21298655 86.27550215 157.75537202 85.41992314 154.96585083 82.95948792 C152.24976677 80.57101007 151.29218203 79.87810472 147.80569458 79.69776917 C146.60944458 79.63589417 145.41319458 79.57401917 144.18069458 79.51026917 C144.18069458 78.52026917 144.18069458 77.53026917 144.18069458 76.51026917 C145.72581464 76.71486016 147.26684798 76.95037347 148.80569458 77.19776917 C149.66421021 77.32538635 150.52272583 77.45300354 151.40725708 77.58448792 C154.46982687 78.60678234 156.1000325 80.20916202 158.47952271 82.32252502 C161.6653743 84.54686028 165.34817089 84.85380649 169.11819458 85.44776917 C179.18175317 87.28319337 192.73321711 90.0627917 200.18069458 97.51026917 C200.21161697 96.91876572 200.24253937 96.32726227 200.2743988 95.71783447 C203.01561065 43.53186178 203.01561065 43.53186178 205.62991333 23.36964417 C206.39895697 17.10587458 207.10026718 11.34941437 204.18069458 5.51026917 C194.71669236 9.85957956 186.36543398 14.51268995 178.26663208 21.06886292 C175.28717929 23.42602494 172.24457207 25.51106559 169.05569458 27.57276917 C162.02704916 32.17164445 155.35215492 37.24674902 149.48928833 43.27980042 C147.18069458 45.51026917 147.18069458 45.51026917 145.18069458 45.51026917 C148.88758237 36.5855339 159.44079192 30.70240355 167.18069458 25.51026917 C168.87146771 24.34835111 170.55897842 23.18167144 172.24319458 22.01026917 C173.07463989 21.43276917 173.90608521 20.85526917 174.76272583 20.26026917 C177.06769052 18.59205562 179.23998789 16.82438487 181.43069458 15.01026917 C187.11609302 10.4926823 193.63858429 7.57193955 200.18069458 4.51026917 C200.18069458 4.18026917 200.18069458 3.85026917 200.18069458 3.51026917 C150.14700219 3.34651404 150.14700219 3.34651404 100.11819458 3.94776917 C99.07375183 3.9674173 98.02930908 3.98706543 96.95321655 4.00730896 C94.03799834 4.06376494 91.12303705 4.12710931 88.20803833 4.19386292 C87.37065628 4.21058044 86.53327423 4.22729797 85.67051697 4.24452209 C82.42670083 4.32808808 79.36224126 4.47951047 76.15750122 5.0224762 C72.27325009 5.65896711 68.44794417 5.65516286 64.52444458 5.63136292 C63.66451904 5.62849777 62.80459351 5.62563263 61.91860962 5.62268066 C51.02222022 5.54732818 40.13501694 5.13455192 29.24758911 4.71070862 C25.63043835 4.57082565 22.01303608 4.43966567 18.39553833 4.30909729 C16.08432086 4.22172224 13.7731221 4.13385064 11.46194458 4.04542542 C10.38602051 4.00683914 9.31009644 3.96825287 8.2015686 3.92849731 C7.20532471 3.88853134 6.20908081 3.84856537 5.18264771 3.80738831 C4.31031494 3.77407913 3.43798218 3.74076996 2.53921509 3.70645142 C0.30835201 3.52088774 -1.66006564 3.07489128 -3.81930542 2.51026917 C-10.5049211 2.22577488 -17.16099105 2.94956901 -23.81930542 3.51026917 Z " fill="#FFFFFF" transform="translate(39.819305419921875,8.489730834960938)"/>
<path d="M0 0 C1.96646484 -0.04930664 1.96646484 -0.04930664 3.97265625 -0.09960938 C11.98495514 -0.14380962 18.56966975 0.49595376 25.125 5.4375 C28.125 8.91343361 28.125 8.91343361 28.125 11.4375 C28.785 11.4375 29.445 11.4375 30.125 11.4375 C33.02751124 15.3766224 35.56100675 19.53087772 38.08447266 23.72070312 C38.89880021 25.06428627 39.74605366 26.38792512 40.60546875 27.703125 C44.79469678 35.1439199 44.18278005 45.19717149 43.125 53.4375 C41.36705552 59.54707753 38.58275539 64.04156332 33.125 67.4375 C32.48433594 67.91832031 31.84367187 68.39914063 31.18359375 68.89453125 C21.74121884 75.46105593 9.44407921 77.02095769 -1.875 76.4375 C-4.34765625 75.5859375 -4.34765625 75.5859375 -6.875 74.4375 C-8.20136314 74.03548819 -9.53423026 73.65464242 -10.87109375 73.2890625 C-11.59490234 73.08796875 -12.31871094 72.886875 -13.06445312 72.6796875 C-14.5575372 72.26977041 -16.05234265 71.86607016 -17.54882812 71.46875 C-24.33627061 69.56223282 -29.30277594 66.72000753 -33.625 61 C-34.19734375 60.25878906 -34.7696875 59.51757812 -35.359375 58.75390625 C-41.46927511 49.41583727 -41.41482336 34.26146735 -39.296875 23.5 C-36.51389786 15.60646485 -30.14719047 6.726556 -22.875 2.4375 C-15.41781352 -0.16812869 -7.83078813 0.03444628 0 0 Z M-24.875 8.4375 C-24.875 9.0975 -24.875 9.7575 -24.875 10.4375 C-25.865 10.7675 -26.855 11.0975 -27.875 11.4375 C-29.71955751 13.77425888 -29.71955751 13.77425888 -31.4375 16.625 C-32.03691406 17.56730469 -32.63632813 18.50960937 -33.25390625 19.48046875 C-38.3839809 28.83821937 -37.86264586 39.55881908 -35.6796875 49.80078125 C-33.63114983 56.51322266 -30.68242157 61.90981205 -24.375 65.3125 C-18.07864423 68.00008474 -11.48574533 69.71431994 -4.875 71.4375 C-4.11703125 71.70046875 -3.3590625 71.9634375 -2.578125 72.234375 C6.0961406 74.99131213 16.56655368 72.41166935 24.71484375 68.8828125 C31.17194391 65.29110042 36.40785908 61.76768146 39.203125 54.71875 C41.83213849 45.36124437 41.38848879 36.26781047 36.75 27.75 C35.29522246 25.24969377 33.73931748 22.83731838 32.125 20.4375 C31.52341064 19.52097656 31.52341064 19.52097656 30.90966797 18.5859375 C26.09573888 11.37750526 21.79423584 5.74408093 13.125 3.4375 C8.56693337 2.94474561 4.07952155 2.96750992 -0.5 3.0625 C-1.68851563 3.06378906 -2.87703125 3.06507812 -4.1015625 3.06640625 C-15.35246138 3.04992509 -15.35246138 3.04992509 -24.875 8.4375 Z " fill="#FFFFFF" transform="translate(129.875,29.5625)"/>
</svg>
