<?xml version="1.0" encoding="UTF-8"?>
<svg version="1.1" xmlns="http://www.w3.org/2000/svg" width="100" height="120">
<path d="M0 0 C5.83880945 2.23972827 11.74677054 1.84530569 17.91674805 1.75048828 C19.1809407 1.74387177 20.44513336 1.73725525 21.74763489 1.73043823 C25.0881201 1.71106742 28.4279697 1.67924578 31.76824951 1.64038086 C36.48107267 1.58800521 41.19404604 1.55609107 45.90705872 1.52633667 C48.4112504 1.50940153 50.9154097 1.48629415 53.41947937 1.45632935 C54.5544838 1.44657074 55.68948822 1.43681213 56.85888672 1.42675781 C57.85401779 1.41548859 58.84914886 1.40421936 59.87443542 1.39260864 C62.56602014 1.49057354 65.00418618 1.88557774 67.6237793 2.49267578 C68.87666575 7.8897251 68.33250619 12.57423437 67.6862793 17.99267578 C65.90324638 35.04996248 66.5411634 51.90577729 67.4987793 68.99267578 C67.56193832 70.12461365 67.56193832 70.12461365 67.62637329 71.27941895 C68.04866812 78.69182291 68.52838973 86.07569479 69.37768555 93.45361328 C69.49192871 94.46875 69.60617188 95.48388672 69.72387695 96.52978516 C69.94145476 98.35983178 70.18288659 100.1872756 70.45336914 102.01025391 C70.94854486 106.10768787 71.02674272 107.84759209 68.78393555 111.43798828 C60.98106501 116.51130089 51.49586023 115.77853282 42.4987793 115.68017578 C41.37084961 115.67953125 40.24291992 115.67888672 39.08081055 115.67822266 C33.9206014 115.65106366 28.97209485 115.45299022 23.85913086 114.70874023 C18.29131772 114.17056695 12.64823658 114.44018366 7.0612793 114.49267578 C-3.1306232 114.5555412 -13.22747838 114.4897452 -23.3762207 113.49267578 C-24.23089401 110.62441617 -24.42641287 108.44205324 -24.03637695 105.48095703 C-23.94291992 104.72234375 -23.84946289 103.96373047 -23.75317383 103.18212891 C-23.6494043 102.39773437 -23.54563477 101.61333984 -23.4387207 100.80517578 C-21.86290867 90.70893231 -21.86290867 90.70893231 -22.87597656 80.67919922 C-23.59175202 77.55060724 -23.50620467 74.54728407 -23.5090332 71.34033203 C-23.50998993 70.6443541 -23.51094666 69.94837616 -23.51193237 69.23130798 C-23.51261199 67.75617381 -23.51077291 66.28103661 -23.5065918 64.8059082 C-23.50131336 62.59400324 -23.50650592 60.38230821 -23.51293945 58.17041016 C-23.51507037 51.57796414 -23.40287431 45.07266446 -22.8137207 38.50048828 C-22.35952686 33.28619667 -22.51034218 28.47689272 -23.2512207 23.30517578 C-23.38850586 22.20206055 -23.38850586 22.20206055 -23.52856445 21.07666016 C-24.01218283 17.16119472 -24.01218283 17.16119472 -25.3762207 13.49267578 C-25.78787913 9.87008164 -25.45867851 7.69293045 -24.0637207 4.30517578 C-18.27363241 -1.75421894 -7.57876232 -3.38356198 0 0 Z M-13.8762207 2.68017578 C-15.31481445 3.01082031 -15.31481445 3.01082031 -16.7824707 3.34814453 C-19.46803246 4.33978554 -19.46803246 4.33978554 -21.30200195 6.47314453 C-22.9303083 11.05016564 -21.92481355 14.92009204 -21.0637207 19.61767578 C-18.37930929 36.02944682 -18.37930929 36.02944682 -19.88061523 44.25683594 C-20.36241817 47.40255814 -20.50549426 50.34078464 -20.5090332 53.52001953 C-20.51032227 54.64214844 -20.51161133 55.76427734 -20.51293945 56.92041016 C-20.50907227 58.07863281 -20.50520508 59.23685547 -20.5012207 60.43017578 C-20.50508789 61.58453125 -20.50895508 62.73888672 -20.51293945 63.92822266 C-20.51100586 65.61334961 -20.51100586 65.61334961 -20.5090332 67.33251953 C-20.50790527 68.34693115 -20.50677734 69.36134277 -20.50561523 70.40649414 C-20.42615474 73.56310011 -20.42615474 73.56310011 -19.87402344 76.93847656 C-19.3723956 80.51998613 -19.26250164 83.90588716 -19.27856445 87.52001953 C-19.28178711 88.80585937 -19.28500977 90.09169922 -19.28833008 91.41650391 C-19.29668269 92.75439523 -19.3051476 94.09228585 -19.3137207 95.43017578 C-19.31874411 96.79540852 -19.32330554 98.16064304 -19.32739258 99.52587891 C-19.33913219 102.84819035 -19.35555391 106.17040986 -19.3762207 109.49267578 C-9.46579433 111.20325567 -0.05950078 111.72264462 9.9987793 111.55517578 C17.66328028 111.45262795 25.03412312 111.42462182 32.6237793 112.49267578 C35.70808965 112.65455568 38.78561248 112.68331927 41.8737793 112.68017578 C43.11514648 112.67896729 43.11514648 112.67896729 44.3815918 112.67773438 C56.05672398 112.69259298 56.05672398 112.69259298 66.6237793 108.49267578 C66.96310173 106.49220429 66.96310173 106.49220429 66.7331543 104.20361328 C66.68288086 103.34380859 66.63260742 102.48400391 66.58081055 101.59814453 C66.51249023 100.69708984 66.44416992 99.79603516 66.3737793 98.86767578 C66.32092773 97.98982422 66.26807617 97.11197266 66.21362305 96.20751953 C65.96571017 92.32739468 65.62528118 88.50387161 65.1081543 84.64892578 C64.3602628 78.99992785 64.29789552 73.30733188 64.1237793 67.61767578 C63.89397683 60.44514107 63.64258185 53.2927401 63.09619141 46.13696289 C62.453657 37.52111604 63.08842265 29.38490771 64.14331055 20.82080078 C64.75763449 15.70479156 64.83194928 10.63910026 64.6237793 5.49267578 C57.81411424 4.43767175 51.19240048 4.41053939 44.3112793 4.50048828 C41.91284599 4.51799977 39.51440823 4.53490851 37.1159668 4.55126953 C33.36356106 4.58223646 29.61138129 4.61782855 25.85913086 4.6640625 C22.21815199 4.70651038 18.57743852 4.72986693 14.9362793 4.75048828 C13.82148193 4.76910919 12.70668457 4.7877301 11.55810547 4.80691528 C5.12123485 4.82799701 0.52188848 4.05329776 -5.3762207 1.49267578 C-8.44366874 1.49267578 -10.90079774 1.95631616 -13.8762207 2.68017578 Z " fill="#FFFFFF" transform="translate(27.376220703125,3.50732421875)"/>
<path d="M0 0 C-0.2265625 1.85546875 -0.2265625 1.85546875 -1 4 C-2.8984375 5.23828125 -2.8984375 5.23828125 -5.375 6.3125 C-20.32439952 13.34876959 -27.25072768 21.72967811 -35.2890625 35.74804688 C-38.0912778 40.5980349 -41.09483115 45.05083585 -44.72265625 49.3359375 C-46.21035567 51.08638838 -46.21035567 51.08638838 -47 54 C-41.77729079 59.55217919 -35.11485101 64.17192374 -27.8125 66.5 C-23.02981406 68.07442457 -19.35152683 71.3008414 -16 75 C-16 75.66 -16 76.32 -16 77 C-15.443125 77.226875 -14.88625 77.45375 -14.3125 77.6875 C-12 79 -12 79 -9.75 81.3125 C-5.98398834 84.99292049 -1.70181753 87.64909123 3 90 C3 90.99 3 91.98 3 93 C-5.8805572 92.15423265 -10.62091617 86.46187915 -16.55078125 80.38671875 C-23.27012966 73.8194348 -29.85961131 69.74949569 -38.33203125 65.765625 C-42.63020438 63.73754433 -46.83866161 61.63601383 -50 58 C-51.25 54.5 -51.25 54.5 -51 51 C-49.4375 48.0625 -49.4375 48.0625 -47 45 C-46.0569342 43.77509844 -45.11983535 42.5455887 -44.1875 41.3125 C-43.67960937 40.64089844 -43.17171875 39.96929687 -42.6484375 39.27734375 C-38.89030447 34.08542063 -35.24398344 28.70431182 -32.5625 22.875 C-27.10471866 12.83268234 -18.84502045 8.04814273 -9 3 C-7.93007812 2.43023438 -6.86015625 1.86046875 -5.7578125 1.2734375 C-3 0 -3 0 0 0 Z " fill="#FFFFFF" transform="translate(77,18)"/>
</svg>
