<?xml version="1.0" encoding="UTF-8"?>
<svg version="1.1" xmlns="http://www.w3.org/2000/svg" width="75" height="125">
<path d="M0 0 C0.71671875 -0.020625 1.4334375 -0.04125 2.171875 -0.0625 C6.72998229 -0.09601549 9.64166281 0.41291045 13.25 3.25 C14.75817078 6.26634155 14.39190222 9.37992819 14.3828125 12.6875 C14.38417709 13.43582596 14.38554169 14.18415192 14.38694763 14.95515442 C14.38897534 17.38681454 14.38266348 19.81835234 14.375 22.25 C14.37378143 23.07067963 14.37256287 23.89135925 14.37130737 24.73690796 C14.32319443 52.12864779 14.32319443 52.12864779 12.74609375 62.59375 C12.02920991 67.87724033 11.86481789 73.16273425 11.64453125 78.48632812 C11.60714844 79.29908203 11.56976563 80.11183594 11.53125 80.94921875 C11.48581055 82.04496216 11.48581055 82.04496216 11.43945312 83.1628418 C11.24738348 85.27882554 10.81955987 87.20609867 10.25 89.25 C11.136875 89.311875 12.02375 89.37375 12.9375 89.4375 C17.06611627 90.45017946 18.46579141 92.09944817 21.25 95.25 C22.013125 95.86875 22.77625 96.4875 23.5625 97.125 C25.25 99.25 25.25 99.25 25.75 102.625 C25.01503385 107.95350457 23.05379215 110.86246758 18.8125 114.125 C8.30226058 117.44402297 -2.63748472 114.81561565 -12.75 111.25 C-17.4983871 108.75322581 -17.4983871 108.75322581 -18.75 106.25 C-18.734375 103.9375 -18.734375 103.9375 -18.5 101.25 C-18.43296875 100.363125 -18.3659375 99.47625 -18.296875 98.5625 C-17.75 96.25 -17.75 96.25 -14.75 94.25 C-13.76 94.25 -12.77 94.25 -11.75 94.25 C-11.646875 93.63125 -11.54375 93.0125 -11.4375 92.375 C-10.75 90.25 -10.75 90.25 -7.75 88.25 C-6.76 88.25 -5.77 88.25 -4.75 88.25 C-5.00136719 86.68958984 -5.00136719 86.68958984 -5.2578125 85.09765625 C-6.0234875 78.9735995 -5.72527173 72.84531626 -5.625 66.6875 C-5.53769657 57.51719326 -5.83507245 48.68811917 -7.25 39.625 C-9.21748279 27.00616764 -9.67252956 14.00047669 -8.75 1.25 C-6.72363933 -0.77636067 -2.77022651 0.01950864 0 0 Z M-5.75 3.25 C-5.4055104 21.73646796 -5.4055104 21.73646796 -3.6875 40.125 C-2.40948559 49.53118605 -2.6156289 58.9742705 -2.73608398 68.44482422 C-2.82150447 76.11244971 -2.5484559 83.62187875 -1.75 91.25 C-4.72 91.745 -4.72 91.745 -7.75 92.25 C-8.44159401 94.09725052 -8.44159401 94.09725052 -8.75 96.25 C-7.14180771 99.26043161 -7.14180771 99.26043161 -5.1328125 99.9296875 C-1.63211377 100.40027323 1.85048544 100.3939151 5.375 100.375 C6.10332031 100.37886719 6.83164062 100.38273437 7.58203125 100.38671875 C11.54518486 100.45774722 11.54518486 100.45774722 15.25 99.25 C15.25 97.6 15.25 95.95 15.25 94.25 C11.44572508 92.0486134 11.44572508 92.0486134 7.25 91.25 C7.4046875 90.12722656 7.559375 89.00445312 7.71875 87.84765625 C8.40962014 82.32191145 8.61699282 76.78853777 8.85546875 71.22851562 C9.01802147 67.75605326 9.22948507 64.38665848 9.74609375 60.9453125 C10.48316296 55.54013827 10.62610138 50.13610448 10.8125 44.6875 C10.8535083 43.50470459 10.8945166 42.32190918 10.93676758 41.10327148 C11.18808167 33.34063188 11.37892649 25.57908413 11.4375 17.8125 C11.45047119 16.90234131 11.46344238 15.99218262 11.47680664 15.05444336 C11.47801514 14.21276611 11.47922363 13.37108887 11.48046875 12.50390625 C11.48663208 11.41057983 11.48663208 11.41057983 11.49291992 10.29516602 C11.20412352 7.86376152 10.58784103 6.29894321 9.25 4.25 C5.96480525 3.15493508 3.51336585 3.15039392 0.0625 3.1875 C-1.02417969 3.19652344 -2.11085938 3.20554687 -3.23046875 3.21484375 C-4.06191406 3.22644531 -4.89335937 3.23804688 -5.75 3.25 Z M-12.75 97.25 C-14.46815438 99.50167846 -14.46815438 99.50167846 -15.75 102.25 C-14.90286374 104.94120727 -14.14934392 106.00715572 -11.7265625 107.48046875 C-10.95054688 107.79628906 -10.17453125 108.11210938 -9.375 108.4375 C-8.21871094 108.92283203 -8.21871094 108.92283203 -7.0390625 109.41796875 C-2.14634409 111.19638005 2.50377264 111.52761144 7.6875 111.625 C8.43837891 111.66238281 9.18925781 111.69976562 9.96289062 111.73828125 C14.18872927 111.80518107 15.77627133 111.61769778 19.234375 108.93359375 C21.48237214 105.94062082 21.99199797 103.94802908 22.25 100.25 C20.41299211 99.47757731 20.41299211 99.47757731 18.25 99.25 C17.57880127 99.97159302 17.57880127 99.97159302 16.89404297 100.70776367 C14.7593184 102.71029635 13.64657778 102.62417669 10.7578125 102.61328125 C9.88769531 102.61263672 9.01757812 102.61199219 8.12109375 102.61132812 C7.21488281 102.59521484 6.30867188 102.57910156 5.375 102.5625 C4.47652344 102.56572266 3.57804687 102.56894531 2.65234375 102.57226562 C-2.79510935 102.5280101 -7.32475056 102.42436157 -11.5625 98.625 C-12.1503125 97.944375 -12.1503125 97.944375 -12.75 97.25 Z " fill="#FFFFFF" transform="translate(34.75,3.75)"/>
</svg>
