<?xml version="1.0" encoding="UTF-8"?>
<svg version="1.1" xmlns="http://www.w3.org/2000/svg" width="350" height="230">
<path d="M0 0 C0.17360099 7.6862862 0.01920378 14.55418605 -2 22 C-2.33 22 -2.66 22 -3 22 C-2.93941406 21.40574219 -2.87882812 20.81148437 -2.81640625 20.19921875 C-2.69072266 18.95591797 -2.69072266 18.95591797 -2.5625 17.6875 C-2.44068359 16.48673828 -2.44068359 16.48673828 -2.31640625 15.26171875 C-1.85545228 10.50990927 -1.43222804 5.75450847 -1 1 C-25.75 1 -50.5 1 -76 1 C-76 0.67 -76 0.34 -76 0 C-68.3057855 -0.15525931 -60.61146025 -0.30340541 -52.91694546 -0.4429636 C-49.34242291 -0.50800905 -45.76797579 -0.57532282 -42.19360352 -0.64819336 C-38.73124516 -0.71869057 -35.26881747 -0.78274297 -31.80626106 -0.84269524 C-29.87071234 -0.87778025 -27.93528168 -0.91920052 -25.99986267 -0.96083069 C-17.27026291 -1.10461216 -8.696352 -0.70250101 0 0 Z " fill="#FFFFFF" transform="translate(328,99)"/>
<path d="M0 0 C3.08089673 2.77280706 4.68775452 5.06326356 6 9 C4.35 7.35 2.7 5.7 1 4 C0.86722656 4.84304687 0.73445313 5.68609375 0.59765625 6.5546875 C0.42105469 7.65039062 0.24445313 8.74609375 0.0625 9.875 C-0.11152344 10.96554688 -0.28554687 12.05609375 -0.46484375 13.1796875 C-1 16 -1 16 -2 18 C1.96 18 5.92 18 10 18 C10.33 17.34 10.66 16.68 11 16 C11 16.66 11 17.32 11 18 C18.59 17.67 26.18 17.34 34 17 C34 17.66 34 18.32 34 19 C27.07 19 20.14 19 13 19 C12.67 19.99 12.34 20.98 12 22 C12 21.01 12 20.02 12 19 C7.05 19 2.1 19 -3 19 C-3.33 20.98 -3.66 22.96 -4 25 C-4.99 25.99 -5.98 26.98 -7 28 C-6.01 24.7 -5.02 21.4 -4 18 C-6.64 18 -9.28 18 -12 18 C-12 17.67 -12 17.34 -12 17 C-9.03 17 -6.06 17 -3 17 C-2.86722656 15.85660156 -2.73445313 14.71320313 -2.59765625 13.53515625 C-2.4194969 12.0442438 -2.24109918 10.55335982 -2.0625 9.0625 C-1.97548828 8.30775391 -1.88847656 7.55300781 -1.79882812 6.77539062 C-1.11328125 1.11328125 -1.11328125 1.11328125 0 0 Z " fill="#FFFFFF" transform="translate(95,66)"/>
<path d="M0 0 C0.99 0.33 1.98 0.66 3 1 C0.9375 1.6875 0.9375 1.6875 -2 2 C-2.99 1.505 -3.98 1.01 -5 0.5 C-8.33572178 -1.05777901 -10.59182062 -1.02175491 -14.23046875 -0.59765625 C-24.90116014 0.37430682 -35.60737255 0.10510507 -46.3125 0.0625 C-48.51757711 0.05747483 -50.72265533 0.05291372 -52.92773438 0.04882812 C-58.28518078 0.03790343 -63.6425851 0.02124601 -69 0 C-67 -2 -67 -2 -65.13618469 -2.23377991 C-64.38008408 -2.22632248 -63.62398346 -2.21886505 -62.8449707 -2.21118164 C-61.98680252 -2.20780289 -61.12863434 -2.20442413 -60.24446106 -2.20094299 C-59.31429672 -2.18748337 -58.38413239 -2.17402374 -57.42578125 -2.16015625 C-56.46858688 -2.15495468 -55.51139252 -2.14975311 -54.52519226 -2.14439392 C-51.45414274 -2.12653889 -48.38342245 -2.09539674 -45.3125 -2.0625 C-42.25946104 -2.03480858 -39.20647347 -2.01006198 -36.15336609 -1.99131775 C-34.25229048 -1.97914763 -32.35123934 -1.96163103 -30.45027161 -1.93800354 C-4.06799069 -1.74084746 -4.06799069 -1.74084746 0 0 Z " fill="#FFFFFF" transform="translate(146,153)"/>
<path d="M0 0 C1.25393555 0.08507813 1.25393555 0.08507813 2.53320312 0.171875 C4.58536928 0.31259496 6.63656118 0.4673993 8.6875 0.625 C8.6875 0.955 8.6875 1.285 8.6875 1.625 C7.51832031 1.60179687 6.34914062 1.57859375 5.14453125 1.5546875 C3.59636058 1.53592179 2.04818297 1.51772245 0.5 1.5 C-0.65338867 1.47486328 -0.65338867 1.47486328 -1.83007812 1.44921875 C-6.21367902 1.41159127 -9.25076953 1.83434463 -13.3125 3.625 C-15.64814933 3.30830179 -17.9818782 2.97679197 -20.3125 2.625 C-20.9725 3.285 -21.6325 3.945 -22.3125 4.625 C-24.74994897 4.79988254 -27.0718608 4.85677405 -29.5078125 4.8203125 C-30.21525604 4.8174826 -30.92269958 4.81465271 -31.65158081 4.81173706 C-33.9137251 4.80053137 -36.17547515 4.77542679 -38.4375 4.75 C-39.97004637 4.73997067 -41.50259894 4.73084474 -43.03515625 4.72265625 C-46.79442301 4.70059086 -50.55339464 4.66605896 -54.3125 4.625 C-54.3125 4.295 -54.3125 3.965 -54.3125 3.625 C-53.3838916 3.60518066 -52.4552832 3.58536133 -51.49853516 3.56494141 C-48.0579948 3.48691387 -44.61790109 3.40022538 -41.17773438 3.30761719 C-39.68791111 3.26930002 -38.19799446 3.23445192 -36.70800781 3.203125 C-34.56801952 3.15753271 -32.42867564 3.09953126 -30.2890625 3.0390625 C-29.00080566 3.0076416 -27.71254883 2.9762207 -26.38525391 2.94384766 C-23.20768495 2.94041732 -23.20768495 2.94041732 -21.3125 0.625 C-19.6728125 0.8725 -19.6728125 0.8725 -18 1.125 C-14.48472656 1.93802757 -14.48472656 1.93802757 -12.1640625 0.6328125 C-8.04040863 -0.82458846 -4.31125167 -0.34027243 0 0 Z " fill="#FFFFFF" transform="translate(245.3125,10.375)"/>
<path d="M0 0 C-4.38414617 4.38414617 -22.05457807 2.09017454 -27.96484375 2.09765625 C-32.28911321 2.09479971 -36.61326642 2.07946531 -40.9375 2.0625 C-43.18163962 2.05747302 -45.42578034 2.05291224 -47.66992188 2.04882812 C-53.11330554 2.03792191 -58.55664751 2.02127949 -64 2 C-64 1.67 -64 1.34 -64 1 C-63.44448959 0.98969254 -62.88897919 0.97938507 -62.31663513 0.96876526 C-56.45880459 0.85936351 -50.6010875 0.74490014 -44.7434082 0.62768555 C-42.56634936 0.58475853 -40.38926588 0.54306034 -38.2121582 0.50268555 C-26.98707269 0.29371475 -15.80631111 0.0691113 -4.61743164 -0.89868164 C-2 -1 -2 -1 0 0 Z " fill="#FFFFFF" transform="translate(343,32)"/>
<path d="M0 0 C20.79 0 41.58 0 63 0 C63 0.33 63 0.66 63 1 C42.21 1 21.42 1 0 1 C0 0.67 0 0.34 0 0 Z " fill="#FFFFFF" transform="translate(178,63)"/>
<path d="M0 0 C0.73863281 0.09023438 1.47726563 0.18046875 2.23828125 0.2734375 C5.06155625 0.67869229 7.87409543 1.15609924 10.6875 1.625 C9.6975 13.505 8.7075 25.385 7.6875 37.625 C7.3575 37.625 7.0275 37.625 6.6875 37.625 C6.25458615 26.22493525 7.55047059 14.95295794 8.6875 3.625 C-0.79947633 1.72061261 -0.79947633 1.72061261 -10.3125 2.625 C-6.55308259 0.11872173 -4.3795258 -0.55973214 0 0 Z " fill="#FFFFFF" transform="translate(150.3125,53.375)"/>
<path d="M0 0 C3.64437912 -0.14875017 6.59350171 -0.12925418 10.08813477 0.98193359 C14.84927278 2.40548458 19.59040062 2.35391886 24.52734375 2.4140625 C25.51626114 2.43342865 26.50517853 2.4527948 27.52406311 2.4727478 C30.66178951 2.53220622 33.79955328 2.57879356 36.9375 2.625 C39.07358311 2.66321084 41.20965133 2.70226436 43.34570312 2.7421875 C48.56366919 2.83787972 53.78172605 2.92302455 59 3 C59 3.33 59 3.66 59 4 C52.68701076 4.0768255 46.37414452 4.12892088 40.06079102 4.16479492 C37.91849259 4.17976927 35.77622421 4.20015595 33.6340332 4.22631836 C10.80396862 4.49791465 10.80396862 4.49791465 0 1 C0 0.67 0 0.34 0 0 Z " fill="#FFFFFF" transform="translate(53,32)"/>
<path d="M0 0 C20.13 0 40.26 0 61 0 C61 0.33 61 0.66 61 1 C40.87 1 20.74 1 0 1 C0 0.67 0 0.34 0 0 Z " fill="#FFFFFF" transform="translate(255,132)"/>
<path d="M0 0 C0.61875 0.268125 1.2375 0.53625 1.875 0.8125 C2.205 1.8025 2.535 2.7925 2.875 3.8125 C6.44840007 5.3337568 10.45107272 4.92529336 14.265625 4.91015625 C14.97023865 4.9087413 15.67485229 4.90732635 16.40081787 4.90586853 C18.64225584 4.90028933 20.88359243 4.88774073 23.125 4.875 C24.64843605 4.86998231 26.17187368 4.86541987 27.6953125 4.86132812 C31.42190772 4.85032674 35.14844396 4.83307646 38.875 4.8125 C38.875 5.4725 38.875 6.1325 38.875 6.8125 C34.24855096 6.86200925 29.62225682 6.89827116 24.99560547 6.92236328 C23.42233595 6.93240887 21.84908504 6.94604781 20.27587891 6.96337891 C18.01199748 6.98769096 15.74836334 6.99899747 13.484375 7.0078125 C12.78318542 7.01813507 12.08199585 7.02845764 11.35955811 7.03909302 C6.53613681 7.04019637 3.6573648 6.46755303 0.125 3.1875 C-0.2875 2.73375 -0.7 2.28 -1.125 1.8125 C-3.105 3.1325 -5.085 4.4525 -7.125 5.8125 C-5.63382637 2.37133008 -4.23599564 -0.37376432 0 0 Z " fill="#FFFFFF" transform="translate(19.125,9.1875)"/>
<path d="M0 0 C3.87387722 0.04195535 7.55665644 0.48860941 11.375 1.125 C11.375 1.455 11.375 1.785 11.375 2.125 C6.755 2.125 2.135 2.125 -2.625 2.125 C-2.68558594 4.37699219 -2.74617188 6.62898438 -2.80859375 8.94921875 C-2.87047541 11.14024912 -2.93382476 13.3312325 -2.99731445 15.5222168 C-3.04051548 17.04007755 -3.08220048 18.55798226 -3.12231445 20.07592773 C-3.18037812 22.26299259 -3.24396656 24.44983918 -3.30859375 26.63671875 C-3.34525146 27.95115967 -3.38190918 29.26560059 -3.41967773 30.61987305 C-3.59260636 33.57199698 -3.94660714 36.25450496 -4.625 39.125 C-4.955 39.125 -5.285 39.125 -5.625 39.125 C-5.50706288 33.73136763 -5.38283819 28.33793153 -5.25268555 22.94458008 C-5.2092718 21.10835753 -5.16760161 19.27209292 -5.12768555 17.43579102 C-5.07013831 14.80211689 -5.00640002 12.16865579 -4.94140625 9.53515625 C-4.92469376 8.70911392 -4.90798126 7.88307159 -4.89076233 7.03199768 C-4.71064852 0.16243616 -4.71064852 0.16243616 0 0 Z " fill="#FFFFFF" transform="translate(57.625,48.875)"/>
<path d="M0 0 C0.33 0 0.66 0 1 0 C1 11.88 1 23.76 1 36 C0.67 36 0.34 36 0 36 C0 31.05 0 26.1 0 21 C-1.216875 20.855625 -2.43375 20.71125 -3.6875 20.5625 C-6.82670377 20.17219047 -9.9075134 19.67648144 -13 19 C-13 18.67 -13 18.34 -13 18 C-11.3954444 18.14148989 -9.79136233 18.28835686 -8.1875 18.4375 C-7.29417969 18.51871094 -6.40085937 18.59992188 -5.48046875 18.68359375 C-3 19 -3 19 0 20 C0 13.4 0 6.8 0 0 Z " fill="#FFFFFF" transform="translate(21,172)"/>
<path d="M0 0 C0 0.33 0 0.66 0 1 C-6.03596181 1.88278996 -11.87375251 2.13350959 -17.96875 2.09765625 C-19.35012146 2.09553383 -19.35012146 2.09553383 -20.75939941 2.09336853 C-23.67296734 2.08781407 -26.58645568 2.07527025 -29.5 2.0625 C-31.48697805 2.05747911 -33.47395731 2.05291723 -35.4609375 2.04882812 C-40.30732188 2.0378596 -45.15364749 2.02062683 -50 2 C-50 1.67 -50 1.34 -50 1 C-44.32580022 0.85614597 -38.65156562 0.71378321 -32.97729492 0.57275391 C-31.05020151 0.52465324 -29.12311793 0.47615741 -27.19604492 0.42724609 C-24.41327411 0.35668683 -21.63047014 0.28758677 -18.84765625 0.21875 C-17.57209618 0.18593933 -17.57209618 0.18593933 -16.27076721 0.15246582 C-10.84540661 0.02003028 -5.42699965 -0.01910075 0 0 Z " fill="#FFFFFF" transform="translate(291,61)"/>
<path d="M0 0 C0 0.33 0 0.66 0 1 C-16.33759779 2.06508204 -32.63209915 2.11077817 -49 2 C-49 1.67 -49 1.34 -49 1 C-32.65870981 0.32944176 -16.35567221 -0.1593085 0 0 Z " fill="#FFFFFF" transform="translate(257,29)"/>
<path d="M0 0 C10 1 10 1 13 3 C11.3745692 2.85904936 9.74965949 2.71207913 8.125 2.5625 C7.22007812 2.48128906 6.31515625 2.40007812 5.3828125 2.31640625 C3 2 3 2 1 1 C1 7.93 1 14.86 1 22 C1.66 21.67 2.32 21.34 3 21 C4.54023996 20.93049459 6.08334988 20.91547643 7.625 20.9375 C8.85089844 20.95103516 8.85089844 20.95103516 10.1015625 20.96484375 C10.72804688 20.97644531 11.35453125 20.98804687 12 21 C12 21.33 12 21.66 12 22 C8.04 22.33 4.08 22.66 0 23 C0 15.41 0 7.82 0 0 Z " fill="#FFFFFF" transform="translate(263,104)"/>
<path d="M0 0 C0.20625 0.639375 0.4125 1.27875 0.625 1.9375 C1.85793995 4.27223812 1.85793995 4.27223812 4.6640625 4.74609375 C8.25087844 5.01909496 11.77786068 5.09643528 15.375 5.0625 C16.62023437 5.05347656 17.86546875 5.04445312 19.1484375 5.03515625 C20.08945312 5.02355469 21.03046875 5.01195312 22 5 C16.77118862 8.08585589 10.56017964 7.70958907 4.7265625 6.546875 C3.13259618 6.09145605 1.5619564 5.55536227 0 5 C-0.33 3.68 -0.66 2.36 -1 1 C-2.7015625 1.2475 -2.7015625 1.2475 -4.4375 1.5 C-8.97060294 2.07576084 -13.43747238 2.09505266 -18 2 C-18 1.67 -18 1.34 -18 1 C-11.95170514 0.10395632 -6.1105424 -0.11269443 0 0 Z " fill="#FFFFFF" transform="translate(308,154)"/>
<path d="M0 0 C0.33 0 0.66 0 1 0 C1.21277549 15.01249286 0.57172934 30.00122825 0 45 C-0.33 45 -0.66 45 -1 45 C-1.20638953 12.27932197 -1.20638953 12.27932197 0 0 Z " fill="#FFFFFF" transform="translate(32,61)"/>
<path d="M0 0 C0.33 0 0.66 0 1 0 C1 14.85 1 29.7 1 45 C0.67 45 0.34 45 0 45 C0 30.15 0 15.3 0 0 Z " fill="#FFFFFF" transform="translate(173,136)"/>
<path d="M0 0 C0.33 0 0.66 0 1 0 C1 13.53 1 27.06 1 41 C0.67 41 0.34 41 0 41 C0 27.47 0 13.94 0 0 Z " fill="#FFFFFF" transform="translate(174,181)"/>
<path d="M0 0 C1.58567839 0.1421701 3.17518632 0.24504041 4.765625 0.31640625 C5.65507813 0.35830078 6.54453125 0.40019531 7.4609375 0.44335938 C8.38132812 0.48267578 9.30171875 0.52199219 10.25 0.5625 C11.18585938 0.60568359 12.12171875 0.64886719 13.0859375 0.69335938 C15.39048641 0.7991805 17.69513839 0.90126557 20 1 C20 1.33 20 1.66 20 2 C16.54168414 2.02894547 13.08339928 2.04678 9.625 2.0625 C8.14773437 2.07506836 8.14773437 2.07506836 6.640625 2.08789062 C5.22910156 2.09272461 5.22910156 2.09272461 3.7890625 2.09765625 C2.48509521 2.10551147 2.48509521 2.10551147 1.15478516 2.11352539 C-1 2 -1 2 -3 1 C-3.99 1.495 -3.99 1.495 -5 2 C-7.04055005 2.07065617 -9.08334257 2.08421976 -11.125 2.0625 C-12.22070312 2.05347656 -13.31640625 2.04445313 -14.4453125 2.03515625 C-15.70988281 2.01775391 -15.70988281 2.01775391 -17 2 C-17 1.67 -17 1.34 -17 1 C-16.22914062 0.93941406 -15.45828125 0.87882812 -14.6640625 0.81640625 C-13.15972656 0.69072266 -13.15972656 0.69072266 -11.625 0.5625 C-10.62726563 0.48128906 -9.62953125 0.40007812 -8.6015625 0.31640625 C-1.87302701 -0.50192915 -1.87302701 -0.50192915 0 0 Z " fill="#FFFFFF" transform="translate(82,114)"/>
<path d="M0 0 C0 0.33 0 0.66 0 1 C-0.55985596 1.05534912 -1.11971191 1.11069824 -1.6965332 1.16772461 C-4.23555805 1.4207582 -6.774019 1.6790698 -9.3125 1.9375 C-10.19357422 2.02451172 -11.07464844 2.11152344 -11.98242188 2.20117188 C-13.25375977 2.33168945 -13.25375977 2.33168945 -14.55078125 2.46484375 C-15.72120972 2.58267212 -15.72120972 2.58267212 -16.9152832 2.70288086 C-19.18882001 2.96337997 -19.18882001 2.96337997 -22 4 C-24.57265818 4.07029121 -27.11641431 4.09370832 -29.6875 4.0625 C-30.38939453 4.05798828 -31.09128906 4.05347656 -31.81445312 4.04882812 C-33.54300538 4.03706927 -35.27151365 4.01913454 -37 4 C-37 3.67 -37 3.34 -37 3 C-36.14019531 2.95101562 -35.28039062 2.90203125 -34.39453125 2.8515625 C-28.28545862 2.46516532 -22.28930602 1.95244893 -16.25 0.9375 C-10.77794176 0.03108544 -5.53649714 -0.22495925 0 0 Z " fill="#FFFFFF" transform="translate(170,32)"/>
<path d="M0 0 C0.66 0.99 1.32 1.98 2 3 C3.88658971 3.5796925 3.88658971 3.5796925 6.0625 3.6953125 C7.25746094 3.80939453 7.25746094 3.80939453 8.4765625 3.92578125 C9.30929687 3.99152344 10.14203125 4.05726563 11 4.125 C12.64611808 4.27024571 14.29197082 4.41854039 15.9375 4.5703125 C16.66839844 4.62977051 17.39929688 4.68922852 18.15234375 4.75048828 C20 5 20 5 22 6 C22 6.66 22 7.32 22 8 C21.01 7.67 20.02 7.34 19 7 C17.61725345 6.81289114 16.22948722 6.66120696 14.83984375 6.53515625 C14.04642578 6.45716797 13.25300781 6.37917969 12.43554688 6.29882812 C10.76667159 6.14094391 9.09738839 5.98731491 7.42773438 5.83789062 C6.23954102 5.71897461 6.23954102 5.71897461 5.02734375 5.59765625 C3.94054321 5.49723022 3.94054321 5.49723022 2.83178711 5.39477539 C1 5 1 5 -1 3 C-3.65537372 2.43479997 -6.29144713 2.26211802 -9 2 C-9 1.67 -9 1.34 -9 1 C-2.25 0 -2.25 0 0 0 Z " fill="#FFFFFF" transform="translate(300,181)"/>
<path d="M0 0 C0.33 0 0.66 0 1 0 C1.10152799 6.7685324 1.03026944 13.30324864 0 20 C-0.33 20 -0.66 20 -1 20 C-1 17.36 -1 14.72 -1 12 C-5.95 11.67 -10.9 11.34 -16 11 C-16 10.67 -16 10.34 -16 10 C-13.70839681 9.97307516 -11.41670454 9.95363876 -9.125 9.9375 C-7.84882813 9.92589844 -6.57265625 9.91429688 -5.2578125 9.90234375 C-2 10 -2 10 0 11 C0 7.37 0 3.74 0 0 Z " fill="#FFFFFF" transform="translate(30,106)"/>
<path d="M0 0 C0.66 1.32 1.32 2.64 2 4 C11.24 4 20.48 4 30 4 C30 4.33 30 4.66 30 5 C6.93253075 6.42109822 6.93253075 6.42109822 1 6 C0 5 0 5 -0.0625 2.4375 C-0.041875 1.633125 -0.02125 0.82875 0 0 Z " fill="#FFFFFF" transform="translate(206,126)"/>
<path d="M0 0 C1.91595968 -0.08133791 3.83291932 -0.13934367 5.75 -0.1875 C7.35101563 -0.23970703 7.35101563 -0.23970703 8.984375 -0.29296875 C12.38245827 0.03715592 13.61247654 0.60709924 16 3 C16.46019531 4.05960937 16.46019531 4.05960937 16.9296875 5.140625 C17.28289062 5.75421875 17.63609375 6.3678125 18 7 C20.41679707 7.70176588 20.41679707 7.70176588 23.125 7.75 C24.03507812 7.80671875 24.94515625 7.8634375 25.8828125 7.921875 C26.58148438 7.94765625 27.28015625 7.9734375 28 8 C28 8.33 28 8.66 28 9 C24.27299061 9.34699743 20.71327301 9.54118409 17 9 C14.4375 6.0625 14.4375 6.0625 13 3 C10.43106162 1.71553081 8.23423663 1.67022856 5.375 1.4375 C4.37210938 1.35371094 3.36921875 1.26992187 2.3359375 1.18359375 C1.56507813 1.12300781 0.79421875 1.06242187 0 1 C0 0.67 0 0.34 0 0 Z " fill="#FFFFFF" transform="translate(242,72)"/>
<path d="M0 0 C0.33 0 0.66 0 1 0 C1 11.88 1 23.76 1 36 C0.67 36 0.34 36 0 36 C0 24.12 0 12.24 0 0 Z " fill="#FFFFFF" transform="translate(176,51)"/>
<path d="M0 0 C0.33 0 0.66 0 1 0 C1 10.89 1 21.78 1 33 C0.67 33 0.34 33 0 33 C0 22.11 0 11.22 0 0 Z " fill="#FFFFFF" transform="translate(175,87)"/>
<path d="M0 0 C2.83301732 0.33726397 5.61073107 0.37000136 8.4609375 0.29296875 C8.4609375 0.62296875 8.4609375 0.95296875 8.4609375 1.29296875 C6.73279589 1.4896924 5.00334553 1.67493674 3.2734375 1.85546875 C2.31050781 1.95988281 1.34757812 2.06429687 0.35546875 2.171875 C-2.5390625 2.29296875 -2.5390625 2.29296875 -5.0078125 1.79296875 C-8.08982177 1.18417679 -10.73086852 1.42182869 -13.8515625 1.73046875 C-14.92019531 1.83230469 -15.98882812 1.93414062 -17.08984375 2.0390625 C-17.89808594 2.12285156 -18.70632813 2.20664063 -19.5390625 2.29296875 C-19.5390625 1.96296875 -19.5390625 1.63296875 -19.5390625 1.29296875 C-12.77671295 -0.28970881 -6.90219968 -0.84052575 0 0 Z " fill="#FFFFFF" transform="translate(294.5390625,76.70703125)"/>
<path d="M0 0 C3.68743234 -0.05850924 7.3747437 -0.09376673 11.0625 -0.125 C12.10083984 -0.14175781 13.13917969 -0.15851563 14.20898438 -0.17578125 C19.88711284 -0.21183286 24.64391054 0.07028834 30 2 C30 2.33 30 2.66 30 3 C28.9171875 2.84660156 27.834375 2.69320312 26.71875 2.53515625 C21.32662577 1.86114072 15.92651344 1.65470297 10.5 1.4375 C8.98019531 1.37272461 8.98019531 1.37272461 7.4296875 1.30664062 C4.9532321 1.20150808 2.47669251 1.09936163 0 1 C0 0.67 0 0.34 0 0 Z " fill="#FFFFFF" transform="translate(48,169)"/>
<path d="M0 0 C1.20269531 0.00644531 2.40539062 0.01289063 3.64453125 0.01953125 C6.91192584 0.17443529 9.97342559 0.60813895 13.1875 1.1875 C14.85377298 1.22372333 16.52155374 1.23649842 18.1875 1.1875 C14.78409693 3.28190189 12.14312822 3.44547575 8.1875 3.1875 C7.5275 2.8575 6.8675 2.5275 6.1875 2.1875 C3.46989892 2.11568179 0.77890612 2.09450494 -1.9375 2.125 C-3.06865234 2.13176758 -3.06865234 2.13176758 -4.22265625 2.13867188 C-6.08597127 2.15046501 -7.94924555 2.16840058 -9.8125 2.1875 C-6.15590181 -0.25023213 -4.34531487 -0.05090358 0 0 Z " fill="#FFFFFF" transform="translate(231.8125,158.8125)"/>
<path d="M0 0 C9.53168636 -0.37379162 9.53168636 -0.37379162 14 2 C14.33 2.33 14.66 2.66 15 3 C17.18292774 3.23481693 19.37203174 3.41363323 21.5625 3.5625 C23.35880859 3.68818359 23.35880859 3.68818359 25.19140625 3.81640625 C26.11824219 3.87699219 27.04507813 3.93757812 28 4 C28 4.33 28 4.66 28 5 C25.70858714 5.05384521 23.41681812 5.09272087 21.125 5.125 C19.21074219 5.15980469 19.21074219 5.15980469 17.2578125 5.1953125 C14 5 14 5 12 3 C9.11282395 2.3162387 9.11282395 2.3162387 5.875 1.875 C4.77929688 1.70742187 3.68359375 1.53984375 2.5546875 1.3671875 C1.71164063 1.24601563 0.86859375 1.12484375 0 1 C0 0.67 0 0.34 0 0 Z " fill="#FFFFFF" transform="translate(41,152)"/>
<path d="M0 0 C10.23 0.33 20.46 0.66 31 1 C31 1.33 31 1.66 31 2 C27.14584948 2.02923559 23.29172785 2.04687777 19.4375 2.0625 C18.35146484 2.07087891 17.26542969 2.07925781 16.14648438 2.08789062 C10.65167389 2.10459218 5.41038065 1.98582259 0 1 C0 0.67 0 0.34 0 0 Z " fill="#FFFFFF" transform="translate(52,98)"/>
<path d="M0 0 C2.33294775 -0.04241723 4.66702567 -0.04092937 7 0 C7.33 0.33 7.66 0.66 8 1 C9.55948542 1.15686249 11.12542668 1.25076639 12.69140625 1.31640625 C14.10776367 1.37924805 14.10776367 1.37924805 15.55273438 1.44335938 C17.04256836 1.50233398 17.04256836 1.50233398 18.5625 1.5625 C20.05813477 1.62727539 20.05813477 1.62727539 21.58398438 1.69335938 C24.0558415 1.79980298 26.5278031 1.90181928 29 2 C29 2.33 29 2.66 29 3 C25.47923768 3.05855176 21.9586024 3.0937806 18.4375 3.125 C16.9515332 3.15013672 16.9515332 3.15013672 15.43554688 3.17578125 C9.87271509 3.21274359 5.25156925 2.87082551 0 1 C0 0.67 0 0.34 0 0 Z " fill="#FFFFFF" transform="translate(82,205)"/>
<path d="M0 0 C10.23 0 20.46 0 31 0 C31 0.33 31 0.66 31 1 C20.77 1 10.54 1 0 1 C0 0.67 0 0.34 0 0 Z " fill="#FFFFFF" transform="translate(312,60)"/>
<path d="M0 0 C13.01757077 0.56010319 13.01757077 0.56010319 19 4 C21.75146274 4.25284367 21.75146274 4.25284367 24 4 C24 4.66 24 5.32 24 6 C20.56952886 6.24503365 18.45715653 6.23946294 15.375 4.625 C10.46191357 2.25943987 5.36785448 1.73829714 0 1 C0 0.67 0 0.34 0 0 Z " fill="#FFFFFF" transform="translate(290,212)"/>
<path d="M0 0 C2.47436213 1.24068583 4.90888865 2.52426385 7.3203125 3.8828125 C5.51171875 4.5078125 5.51171875 4.5078125 3.3203125 4.8828125 C2.3096875 4.2228125 1.2990625 3.5628125 0.2578125 2.8828125 C-4.51541367 -0.16037973 -9.33641039 0.99387671 -14.6796875 1.8828125 C-10.58569428 -2.21118072 -5.17280985 -2.1565942 0 0 Z " fill="#FFFFFF" transform="translate(103.6796875,186.1171875)"/>
<path d="M0 0 C1.58323688 -0.027193 3.16661062 -0.04648306 4.75 -0.0625 C6.07257813 -0.07990234 6.07257813 -0.07990234 7.421875 -0.09765625 C9.81856388 -0.00687258 11.69059903 0.41403259 14 1 C16.24707241 1.2198223 18.49771238 1.40483987 20.75 1.5625 C21.92046875 1.64628906 23.0909375 1.73007813 24.296875 1.81640625 C25.18890625 1.87699219 26.0809375 1.93757812 27 2 C27 2.33 27 2.66 27 3 C17.76984056 3.24908976 9.08078495 2.68944836 0 1 C0 0.67 0 0.34 0 0 Z " fill="#FFFFFF" transform="translate(237,179)"/>
<path d="M0 0 C0.9796875 -0.01417969 1.959375 -0.02835938 2.96875 -0.04296875 C5.5 0.1875 5.5 0.1875 7.5 2.1875 C6.23542969 2.17009766 6.23542969 2.17009766 4.9453125 2.15234375 C3.84960938 2.14332031 2.75390625 2.13429687 1.625 2.125 C0.53445312 2.11339844 -0.55609375 2.10179687 -1.6796875 2.08984375 C-4.45177546 1.99005697 -4.45177546 1.99005697 -6.5 3.1875 C-8.37379605 3.25783769 -10.25001102 3.2718022 -12.125 3.25 C-13.12789063 3.24097656 -14.13078125 3.23195312 -15.1640625 3.22265625 C-15.93492188 3.21105469 -16.70578125 3.19945312 -17.5 3.1875 C-17.5 2.8575 -17.5 2.5275 -17.5 2.1875 C-16.45199219 2.09662109 -16.45199219 2.09662109 -15.3828125 2.00390625 C-14.47273438 1.92011719 -13.56265625 1.83632812 -12.625 1.75 C-11.72007813 1.66878906 -10.81515625 1.58757812 -9.8828125 1.50390625 C-6.34339379 1.03391786 -3.72368725 0.02449794 0 0 Z " fill="#FFFFFF" transform="translate(128.5,188.8125)"/>
<path d="M0 0 C2.15305957 3.85756507 3.39253254 6.55129785 3 11 C1.68 10.67 0.36 10.34 -1 10 C-0.01 10 0.98 10 2 10 C0.87773692 6.29007727 0.87773692 6.29007727 -1 3 C-4.58863524 1.9384058 -4.58863524 1.9384058 -8 2 C-4.77208445 -0.1519437 -3.71599191 -0.20086443 0 0 Z " fill="#FFFFFF" transform="translate(276,114)"/>
<path d="M0 0 C1.02802734 0.0515625 2.05605469 0.103125 3.11523438 0.15625 C4.18708984 0.22070312 5.25894531 0.28515625 6.36328125 0.3515625 C7.9884668 0.43664062 7.9884668 0.43664062 9.64648438 0.5234375 C12.32358132 0.66495804 14.99974701 0.81637401 17.67578125 0.9765625 C17.67578125 1.3065625 17.67578125 1.6365625 17.67578125 1.9765625 C9.09578125 1.9765625 0.51578125 1.9765625 -8.32421875 1.9765625 C-4.91183352 -0.29836099 -3.9637761 -0.21899315 0 0 Z " fill="#FFFFFF" transform="translate(311.32421875,75.0234375)"/>
<path d="M0 0 C0 0.33 0 0.66 0 1 C-0.72703125 0.9278125 -1.4540625 0.855625 -2.203125 0.78125 C-9.49220248 0.10841208 -16.68214066 -0.11677435 -24 0 C-24 -0.33 -24 -0.66 -24 -1 C-15.52261744 -2.01292255 -8.36270988 -1.82934279 0 0 Z " fill="#FFFFFF" transform="translate(144,171)"/>
<path d="M0 0 C7.75 -0.125 7.75 -0.125 10 1 C11.70363822 1.22622081 13.41328701 1.40888473 15.125 1.5625 C16.03507812 1.64628906 16.94515625 1.73007812 17.8828125 1.81640625 C18.58148438 1.87699219 19.28015625 1.93757813 20 2 C20 2.33 20 2.66 20 3 C18.22925083 3.02705729 16.45838289 3.04642195 14.6875 3.0625 C13.70136719 3.07410156 12.71523438 3.08570313 11.69921875 3.09765625 C9 3 9 3 6 2 C3.36195411 2.39397335 3.36195411 2.39397335 1 3 C0.67 2.01 0.34 1.02 0 0 Z " fill="#FFFFFF" transform="translate(248,53)"/>
<path d="M0 0 C2.3125 -0.1875 2.3125 -0.1875 5 0 C5.63421875 0.7115625 5.63421875 0.7115625 6.28125 1.4375 C8.73039005 3.66399095 10.94619083 3.73441377 14.1875 4.1875 C15.81751953 4.42533203 15.81751953 4.42533203 17.48046875 4.66796875 C18.31191406 4.77753906 19.14335938 4.88710937 20 5 C16.97031651 5.91787677 14.57728581 6.04344865 11.4375 5.6875 C10.67308594 5.60886719 9.90867187 5.53023438 9.12109375 5.44921875 C7 5 7 5 4 3 C4 2.34 4 1.68 4 1 C2.68 0.67 1.36 0.34 0 0 Z " fill="#FFFFFF" transform="translate(108,115)"/>
<path d="M0 0 C8.25 0 16.5 0 25 0 C25 0.33 25 0.66 25 1 C16.75 1 8.5 1 0 1 C0 0.67 0 0.34 0 0 Z " fill="#FFFFFF" transform="translate(115,56)"/>
<path d="M0 0 C0 1.32 0 2.64 0 4 C1.65 3.67 3.3 3.34 5 3 C4.34 3.66 3.68 4.32 3 5 C1.68 5 0.36 5 -1 5 C-1 4.01 -1 3.02 -1 2 C-1.99 2.33 -2.98 2.66 -4 3 C-5.39439664 3.06665376 -6.79169875 3.08538199 -8.1875 3.0625 C-10.0746875 3.0315625 -10.0746875 3.0315625 -12 3 C-12 2.67 -12 2.34 -12 2 C-10.37548581 1.66430703 -8.75037083 1.3315204 -7.125 1 C-6.22007812 0.814375 -5.31515625 0.62875 -4.3828125 0.4375 C-2 0 -2 0 0 0 Z " fill="#FFFFFF" transform="translate(201,53)"/>
<path d="M0 0 C7.59 0.33 15.18 0.66 23 1 C23 1.33 23 1.66 23 2 C7.25512528 2.18451025 7.25512528 2.18451025 0 1 C0 0.67 0 0.34 0 0 Z " fill="#FFFFFF" transform="translate(100,12)"/>
<path d="M0 0 C0.67844036 2.11070334 1.11681652 3.54107796 0.5625 5.71875 C-0.17783021 8.72120031 -0.3466927 11.66703855 -0.5625 14.75 C-0.64628906 15.92046875 -0.73007813 17.0909375 -0.81640625 18.296875 C-0.87699219 19.18890625 -0.93757812 20.0809375 -1 21 C-1.33 21 -1.66 21 -2 21 C-2.3690205 6.21867882 -2.3690205 6.21867882 0 0 Z " fill="#FFFFFF" transform="translate(209,105)"/>
<path d="M0 0 C0.53625 0.515625 1.0725 1.03125 1.625 1.5625 C4.00496499 3.32605545 4.00496499 3.32605545 7.25 2.6875 C8.1575 2.460625 9.065 2.23375 10 2 C8.875 3.5625 8.875 3.5625 7 5 C4.00224356 4.75528519 1.69322172 4.34661086 -1 3 C-2.66619446 2.9603287 -4.33391013 2.95615553 -6 3 C-4 2 -2 1 0 0 Z " fill="#FFFFFF" transform="translate(231,38)"/>
<path d="M0 0 C7.59 0 15.18 0 23 0 C23 0.33 23 0.66 23 1 C15.41 1 7.82 1 0 1 C0 0.67 0 0.34 0 0 Z " fill="#FFFFFF" transform="translate(2,36)"/>
<path d="M0 0 C3.1108633 4.66629496 3.12311555 8.79648451 3.0625 14.3125 C3.05347656 15.38113281 3.04445313 16.44976562 3.03515625 17.55078125 C3.02355469 18.35902344 3.01195312 19.16726562 3 20 C2.67 20 2.34 20 2 20 C1.34 13.4 0.68 6.8 0 0 Z " fill="#FFFFFF" transform="translate(22,208)"/>
<path d="M0 0 C1.03253906 0.00676758 1.03253906 0.00676758 2.0859375 0.01367188 C3.76566335 0.02533664 5.44534375 0.04326729 7.125 0.0625 C7.125 0.3925 7.125 0.7225 7.125 1.0625 C-3.27 1.5575 -3.27 1.5575 -13.875 2.0625 C-13.875 1.7325 -13.875 1.4025 -13.875 1.0625 C-9.21962644 0.14157719 -4.72814567 -0.05955997 0 0 Z " fill="#FFFFFF" transform="translate(304.875,58.9375)"/>
<path d="M0 0 C0.33 0 0.66 0 1 0 C1.21432579 6.64409958 0.51233701 12.53205867 -1 19 C-1.33 19 -1.66 19 -2 19 C-2.29530838 12.50321562 -1.17293889 6.3778552 0 0 Z " fill="#FFFFFF" transform="translate(27,141)"/>
<path d="M0 0 C1.77049689 -0.05410687 3.54146849 -0.09284119 5.3125 -0.125 C6.29863281 -0.14820313 7.28476562 -0.17140625 8.30078125 -0.1953125 C11 0 11 0 14 2 C9.37627754 3.30042194 5.66289322 2.85486376 1 2 C0.67 1.34 0.34 0.68 0 0 Z " fill="#FFFFFF" transform="translate(274,54)"/>
<path d="M0 0 C1.8871875 0.061875 1.8871875 0.061875 3.8125 0.125 C3.8125 0.785 3.8125 1.445 3.8125 2.125 C5.4625 1.465 7.1125 0.805 8.8125 0.125 C8.8125 0.785 8.8125 1.445 8.8125 2.125 C6.8325 2.455 4.8525 2.785 2.8125 3.125 C2.8125 2.465 2.8125 1.805 2.8125 1.125 C-0.4875 1.455 -3.7875 1.785 -7.1875 2.125 C-4.09861478 0.06574319 -3.47814073 -0.1140374 0 0 Z " fill="#FFFFFF" transform="translate(332.1875,52.875)"/>
<path d="M0 0 C6.93 0 13.86 0 21 0 C21 0.33 21 0.66 21 1 C14.07 1 7.14 1 0 1 C0 0.67 0 0.34 0 0 Z " fill="#FFFFFF" transform="translate(112,36)"/>
<path d="M0 0 C6.48292295 -0.3669579 6.48292295 -0.3669579 8.9375 1.375 C10 3 10 3 10 5 C11.32 5.33 12.64 5.66 14 6 C11.6875 6.25 11.6875 6.25 9 6 C8.525625 5.360625 8.05125 4.72125 7.5625 4.0625 C6.09023102 1.66375512 6.09023102 1.66375512 2.8125 1.25 C1.884375 1.1675 0.95625 1.085 0 1 C0 0.67 0 0.34 0 0 Z " fill="#FFFFFF" transform="translate(64,186)"/>
<path d="M0 0 C6.27 0 12.54 0 19 0 C19 0.33 19 0.66 19 1 C12.73 1 6.46 1 0 1 C0 0.67 0 0.34 0 0 Z " fill="#FFFFFF" transform="translate(236,131)"/>
<path d="M0 0 C1.21563174 3.94652276 0.53534125 6.16164688 -1 10 C-2 11 -2 11 -5.0625 11.0625 C-6.031875 11.041875 -7.00125 11.02125 -8 11 C-8 10.67 -8 10.34 -8 10 C-7.05125 9.835 -6.1025 9.67 -5.125 9.5 C-1.91873588 8.37777898 -1.91873588 8.37777898 -1.15625 6.0859375 C-0.67381375 4.07815136 -0.32880438 2.03858716 0 0 Z " fill="#FFFFFF" transform="translate(324,121)"/>
<path d="M0 0 C1.2380014 3.57644848 0.74926071 6.33694766 0 10 C-2.31 9.34 -4.62 8.68 -7 8 C-7 7.67 -7 7.34 -7 7 C-5.35 7 -3.7 7 -2 7 C-1.34 4.69 -0.68 2.38 0 0 Z " fill="#FFFFFF" transform="translate(154,106)"/>
<path d="M0 0 C3.63 0 7.26 0 11 0 C11 0.66 11 1.32 11 2 C12.32 1.67 13.64 1.34 15 1 C15 1.66 15 2.32 15 3 C10.05 2.67 5.1 2.34 0 2 C0 1.34 0 0.68 0 0 Z " fill="#FFFFFF" transform="translate(251,39)"/>
<path d="M0 0 C1.98 0 3.96 0 6 0 C6 0.66 6 1.32 6 2 C6.66 1.67 7.32 1.34 8 1 C9.99960012 0.960008 12.00047242 0.95653201 14 1 C14 1.33 14 1.66 14 2 C9.545 2.495 9.545 2.495 5 3 C5 2.34 5 1.68 5 1 C3.35 1.33 1.7 1.66 0 2 C0 1.34 0 0.68 0 0 Z " fill="#FFFFFF" transform="translate(192,40)"/>
<path d="M0 0 C4.29 0 8.58 0 13 0 C13.33 0.99 13.66 1.98 14 3 C13.34 3 12.68 3 12 3 C12 2.34 12 1.68 12 1 C5.565 1.495 5.565 1.495 -1 2 C-0.67 1.34 -0.34 0.68 0 0 Z " fill="#FFFFFF" transform="translate(51,112)"/>
<path d="M0 0 C5.61 0.33 11.22 0.66 17 1 C17 1.33 17 1.66 17 2 C14.54137599 2.05383848 12.0839245 2.09359038 9.625 2.125 C8.57699219 2.15013672 8.57699219 2.15013672 7.5078125 2.17578125 C5.67102514 2.19344267 3.83398037 2.10303261 2 2 C1.34 1.34 0.68 0.68 0 0 Z " fill="#FFFFFF" transform="translate(6,79)"/>
<path d="M0 0 C5.94 0 11.88 0 18 0 C18 0.33 18 0.66 18 1 C12.06 1 6.12 1 0 1 C0 0.67 0 0.34 0 0 Z " fill="#FFFFFF" transform="translate(97,55)"/>
<path d="M0 0 C3.3 0 6.6 0 10 0 C10 0.66 10 1.32 10 2 C11.65 1.67 13.3 1.34 15 1 C14.67 1.66 14.34 2.32 14 3 C12.35 3 10.7 3 9 3 C9 2.34 9 1.68 9 1 C6.03 1 3.06 1 0 1 C0 0.67 0 0.34 0 0 Z " fill="#FFFFFF" transform="translate(276,41)"/>
<path d="M0 0 C0 0.66 0 1.32 0 2 C1.98 1.67 3.96 1.34 6 1 C5.67 1.66 5.34 2.32 5 3 C-4 3 -4 3 -7 2 C-4.35261084 0.5393715 -3.10551666 0 0 0 Z " fill="#FFFFFF" transform="translate(313,40)"/>
<path d="M0 0 C4.875 0.875 4.875 0.875 6 2 C7.34747084 2.23075082 8.70377565 2.41153063 10.0625 2.5625 C11.361875 2.706875 12.66125 2.85125 14 3 C14 3.33 14 3.66 14 4 C5.96498906 4.63019694 5.96498906 4.63019694 1.9375 2 C1.298125 1.34 0.65875 0.68 0 0 Z " fill="#FFFFFF" transform="translate(57,200)"/>
<path d="M0 0 C0.98484375 0.01804688 1.9696875 0.03609375 2.984375 0.0546875 C4.10585937 0.08949219 4.10585937 0.08949219 5.25 0.125 C5.25 0.455 5.25 0.785 5.25 1.125 C0.3 1.455 -4.65 1.785 -9.75 2.125 C-5.76219998 0.13109999 -4.27852428 -0.10186963 0 0 Z " fill="#FFFFFF" transform="translate(114.75,168.875)"/>
<path d="M0 0 C4.95 0.33 9.9 0.66 15 1 C15 1.33 15 1.66 15 2 C9.87416389 2.10251672 5.05002222 2.03590199 0 1 C0 0.67 0 0.34 0 0 Z " fill="#FFFFFF" transform="translate(266,157)"/>
<path d="M0 0 C0.33 0 0.66 0 1 0 C1 5.28 1 10.56 1 16 C0.67 16 0.34 16 0 16 C0 10.72 0 5.44 0 0 Z " fill="#FFFFFF" transform="translate(174,120)"/>
<path d="M0 0 C4.62 0 9.24 0 14 0 C14.33 0.66 14.66 1.32 15 2 C10.05 1.67 5.1 1.34 0 1 C0 0.67 0 0.34 0 0 Z " fill="#FFFFFF" transform="translate(9,97)"/>
<path d="M0 0 C2.97 0 5.94 0 9 0 C9 0.33 9 0.66 9 1 C6.36 1 3.72 1 1 1 C0.67 2.98 0.34 4.96 0 7 C-0.93423645 3.98968256 -1.04449911 3.13349732 0 0 Z " fill="#FFFFFF" transform="translate(212,95)"/>
<path d="M0 0 C4.95 0.33 9.9 0.66 15 1 C15 1.33 15 1.66 15 2 C13.06280622 2.05406122 11.12518079 2.09282025 9.1875 2.125 C8.10855469 2.14820313 7.02960938 2.17140625 5.91796875 2.1953125 C3 2 3 2 0 0 Z " fill="#FFFFFF" transform="translate(299,54)"/>
<path d="M0 0 C4.29 0.66 8.58 1.32 13 2 C13 2.33 13 2.66 13 3 C8.48382401 3.07654536 4.40914783 3.10228696 0 2 C0 1.34 0 0.68 0 0 Z " fill="#FFFFFF" transform="translate(8,208)"/>
<path d="M0 0 C0.33 0 0.66 0 1 0 C1 4.95 1 9.9 1 15 C0.67 15 0.34 15 0 15 C0 10.05 0 5.1 0 0 Z " fill="#FFFFFF" transform="translate(28,126)"/>
<path d="M0 0 C0.33 0 0.66 0 1 0 C0.88610125 1.79240663 0.75852313 3.58394835 0.625 5.375 C0.52058594 6.87160156 0.52058594 6.87160156 0.4140625 8.3984375 C0 11 0 11 -2 13 C-1.34 8.71 -0.68 4.42 0 0 Z " fill="#FFFFFF" transform="translate(51,88)"/>
<path d="M0 0 C4.95 0 9.9 0 15 0 C15 0.33 15 0.66 15 1 C10.05 1 5.1 1 0 1 C0 0.67 0 0.34 0 0 Z " fill="#FFFFFF" transform="translate(184,32)"/>
<path d="M0 0 C4.29 0 8.58 0 13 0 C13 0.66 13 1.32 13 2 C8.71 1.67 4.42 1.34 0 1 C0 0.67 0 0.34 0 0 Z " fill="#FFFFFF" transform="translate(136,11)"/>
<path d="M0 0 C5.94 0.99 5.94 0.99 12 2 C12 2.33 12 2.66 12 3 C10.56344146 3.08131463 9.1255517 3.13933559 7.6875 3.1875 C6.48673828 3.23970703 6.48673828 3.23970703 5.26171875 3.29296875 C3 3 3 3 0 0 Z " fill="#FFFFFF" transform="translate(258,211)"/>
<path d="M0 0 C1.41623216 -0.05447047 2.83308191 -0.09300508 4.25 -0.125 C5.03890625 -0.14820313 5.8278125 -0.17140625 6.640625 -0.1953125 C9 0 9 0 13 2 C8.71 1.67 4.42 1.34 0 1 C0 0.67 0 0.34 0 0 Z " fill="#FFFFFF" transform="translate(277,210)"/>
<path d="M0 0 C4.51617599 -0.07654536 8.59085217 -0.10228696 13 1 C13 1.33 13 1.66 13 2 C8.71 1.67 4.42 1.34 0 1 C0 0.67 0 0.34 0 0 Z " fill="#FFFFFF" transform="translate(243,208)"/>
<path d="M0 0 C4.6875 0.78125 4.6875 0.78125 9.375 1.5625 C10.674375 1.7790625 10.674375 1.7790625 12 2 C12 2.33 12 2.66 12 3 C7.45194365 3.17835515 4.1205746 2.99785435 0 1 C0 0.67 0 0.34 0 0 Z " fill="#FFFFFF" transform="translate(111,206)"/>
<path d="M0 0 C0 0.33 0 0.66 0 1 C-8.03571429 3.27678571 -8.03571429 3.27678571 -12 2 C-7.82262526 0.40861915 -4.46839215 -0.21278058 0 0 Z " fill="#FFFFFF" transform="translate(105,171)"/>
<path d="M0 0 C0.66 0.66 1.32 1.32 2 2 C3.98821313 2.39764263 5.98944339 2.73775349 8 3 C8 3.33 8 3.66 8 4 C1.6 4.36923077 1.6 4.36923077 -1.4375 2.5 C-1.953125 2.005 -2.46875 1.51 -3 1 C-2.01 0.67 -1.02 0.34 0 0 Z " fill="#FFFFFF" transform="translate(231,52)"/>
<path d="M0 0 C0.33 0.66 0.66 1.32 1 2 C-3.29 2 -7.58 2 -12 2 C-12 1.67 -12 1.34 -12 1 C-6.06 0.505 -6.06 0.505 0 0 Z " fill="#FFFFFF" transform="translate(19,51)"/>
<path d="M0 0 C0.33 0 0.66 0 1 0 C1 4.62 1 9.24 1 14 C0.67 14 0.34 14 0 14 C0 9.38 0 4.76 0 0 Z " fill="#FFFFFF" transform="translate(178,25)"/>
<path d="M0 0 C3.96 0 7.92 0 12 0 C11.34 0.66 10.68 1.32 10 2 C7.6171875 1.9765625 7.6171875 1.9765625 4.875 1.625 C3.96492188 1.51414062 3.05484375 1.40328125 2.1171875 1.2890625 C1.41851562 1.19367187 0.71984375 1.09828125 0 1 C0 0.67 0 0.34 0 0 Z " fill="#FFFFFF" transform="translate(302,14)"/>
<path d="M0 0 C4.29 0 8.58 0 13 0 C13 0.33 13 0.66 13 1 C8.71 1 4.42 1 0 1 C0 0.67 0 0.34 0 0 Z " fill="#FFFFFF" transform="translate(270,184)"/>
<path d="M0 0 C3.63 0.33 7.26 0.66 11 1 C11 1.33 11 1.66 11 2 C7.37 2 3.74 2 0 2 C0 1.34 0 0.68 0 0 Z " fill="#FFFFFF" transform="translate(48,183)"/>
<path d="M0 0 C1.32 0.33 2.64 0.66 4 1 C4 2.65 4 4.3 4 6 C2.68 6.33 1.36 6.66 0 7 C0.66 6.34 1.32 5.68 2 5 C2 4.01 2 3.02 2 2 C1.34 1.34 0.68 0.68 0 0 Z " fill="#FFFFFF" transform="translate(276,107)"/>
<path d="M0 0 C0.33 0 0.66 0 1 0 C1 4.29 1 8.58 1 13 C0.67 13 0.34 13 0 13 C0 8.71 0 4.42 0 0 Z " fill="#FFFFFF" transform="translate(180,0)"/>
<path d="M0 0 C3.96 0 7.92 0 12 0 C12 0.33 12 0.66 12 1 C8.04 1 4.08 1 0 1 C0 0.67 0 0.34 0 0 Z " fill="#FFFFFF" transform="translate(221,96)"/>
<path d="M0 0 C3.3 0 6.6 0 10 0 C10 0.33 10 0.66 10 1 C6.37 1.33 2.74 1.66 -1 2 C-0.67 1.34 -0.34 0.68 0 0 Z " fill="#FFFFFF" transform="translate(7,64)"/>
<path d="M0 0 C0.33 0 0.66 0 1 0 C1 3.96 1 7.92 1 12 C0.67 12 0.34 12 0 12 C0 8.04 0 4.08 0 0 Z " fill="#FFFFFF" transform="translate(177,39)"/>
<path d="M0 0 C0.33 0 0.66 0 1 0 C1 3.96 1 7.92 1 12 C0.67 12 0.34 12 0 12 C0 8.04 0 4.08 0 0 Z " fill="#FFFFFF" transform="translate(179,13)"/>
<path d="M0 0 C0 0.33 0 0.66 0 1 C-4.455 1.495 -4.455 1.495 -9 2 C-9 1.34 -9 0.68 -9 0 C-5.67465243 -1.10844919 -3.37817425 -0.84454356 0 0 Z " fill="#FFFFFF" transform="translate(330,14)"/>
<path d="M0 0 C3.63 0 7.26 0 11 0 C11 0.33 11 0.66 11 1 C7.37 1 3.74 1 0 1 C0 0.67 0 0.34 0 0 Z " fill="#FFFFFF" transform="translate(123,209)"/>
<path d="M0 0 C3.63 0 7.26 0 11 0 C11 0.33 11 0.66 11 1 C7.37 1 3.74 1 0 1 C0 0.67 0 0.34 0 0 Z " fill="#FFFFFF" transform="translate(232,207)"/>
<path d="M0 0 C3.63 0 7.26 0 11 0 C11 0.33 11 0.66 11 1 C7.37 1 3.74 1 0 1 C0 0.67 0 0.34 0 0 Z " fill="#FFFFFF" transform="translate(71,204)"/>
<path d="M0 0 C6.625 -0.25 6.625 -0.25 10 2 C6.7 1.67 3.4 1.34 0 1 C0 0.67 0 0.34 0 0 Z " fill="#FFFFFF" transform="translate(7,171)"/>
<path d="M0 0 C0.33 0 0.66 0 1 0 C0.67 3.3 0.34 6.6 0 10 C-0.33 10 -0.66 10 -1 10 C-0.67 6.7 -0.34 3.4 0 0 Z " fill="#FFFFFF" transform="translate(23,162)"/>
<path d="M0 0 C0 0.33 0 0.66 0 1 C-3.3 1.33 -6.6 1.66 -10 2 C-6.3558226 -0.4294516 -4.28758728 -0.16179575 0 0 Z " fill="#FFFFFF" transform="translate(138,118)"/>
<path d="M0 0 C3.63 0 7.26 0 11 0 C11 0.33 11 0.66 11 1 C7.37 1 3.74 1 0 1 C0 0.67 0 0.34 0 0 Z " fill="#FFFFFF" transform="translate(241,98)"/>
<path d="M0 0 C3.3 0.33 6.6 0.66 10 1 C10 1.33 10 1.66 10 2 C7.03 2 4.06 2 1 2 C0.67 1.34 0.34 0.68 0 0 Z " fill="#FFFFFF" transform="translate(211,79)"/>
<path d="M0 0 C3.63 0 7.26 0 11 0 C11 0.33 11 0.66 11 1 C7.37 1 3.74 1 0 1 C0 0.67 0 0.34 0 0 Z " fill="#FFFFFF" transform="translate(32,34)"/>
<path d="M0 0 C2.97 0.33 5.94 0.66 9 1 C9 1.33 9 1.66 9 2 C5.625 2.125 5.625 2.125 2 2 C1.34 1.34 0.68 0.68 0 0 Z " fill="#FFFFFF" transform="translate(223,205)"/>
<path d="M0 0 C-4.455 0.495 -4.455 0.495 -9 1 C-9 0.67 -9 0.34 -9 0 C-5.32431536 -0.91892116 -3.83619425 -0.95904856 0 0 Z " fill="#FFFFFF" transform="translate(290,157)"/>
<path d="M0 0 C0.33 0 0.66 0 1 0 C0.67 2.97 0.34 5.94 0 9 C-0.33 9 -0.66 9 -1 9 C-0.67 6.03 -0.34 3.06 0 0 Z " fill="#FFFFFF" transform="translate(36,39)"/>
<path d="M0 0 C-3.05263664 0.98120464 -4.94736336 0.98120464 -8 0 C-4.71023192 -1.09658936 -3.28696233 -0.79953138 0 0 Z " fill="#FFFFFF" transform="translate(336,42)"/>
<path d="M0 0 C3.3 0 6.6 0 10 0 C10 0.33 10 0.66 10 1 C6.7 1 3.4 1 0 1 C0 0.67 0 0.34 0 0 Z " fill="#FFFFFF" transform="translate(43,33)"/>
<path d="M0 0 C2.64 0.33 5.28 0.66 8 1 C7.67 1.66 7.34 2.32 7 3 C4.69 2.34 2.38 1.68 0 1 C0 0.67 0 0.34 0 0 Z " fill="#FFFFFF" transform="translate(156,9)"/>
<path d="M0 0 C2.97 0 5.94 0 9 0 C9 0.33 9 0.66 9 1 C6.03 1 3.06 1 0 1 C0 0.67 0 0.34 0 0 Z " fill="#FFFFFF" transform="translate(228,180)"/>
<path d="M0 0 C2.97 0 5.94 0 9 0 C9 0.33 9 0.66 9 1 C6.03 1 3.06 1 0 1 C0 0.67 0 0.34 0 0 Z " fill="#FFFFFF" transform="translate(257,158)"/>
<path d="M0 0 C2.97 0 5.94 0 9 0 C9 0.33 9 0.66 9 1 C6.03 1 3.06 1 0 1 C0 0.67 0 0.34 0 0 Z " fill="#FFFFFF" transform="translate(91,101)"/>
<path d="M0 0 C2.97 0 5.94 0 9 0 C9 0.33 9 0.66 9 1 C6.03 1 3.06 1 0 1 C0 0.67 0 0.34 0 0 Z " fill="#FFFFFF" transform="translate(81,53)"/>
<path d="M0 0 C2.97 0 5.94 0 9 0 C9 0.33 9 0.66 9 1 C6.03 1 3.06 1 0 1 C0 0.67 0 0.34 0 0 Z " fill="#FFFFFF" transform="translate(270,32)"/>
<path d="M0 0 C2.97 0 5.94 0 9 0 C9 0.33 9 0.66 9 1 C6.03 1 3.06 1 0 1 C0 0.67 0 0.34 0 0 Z " fill="#FFFFFF" transform="translate(199,31)"/>
<path d="M0 0 C0.33 0 0.66 0 1 0 C1 2.64 1 5.28 1 8 C0.67 8 0.34 8 0 8 C0 5.36 0 2.72 0 0 Z " fill="#FFFFFF" transform="translate(173,222)"/>
<path d="M0 0 C2.64 0 5.28 0 8 0 C8 0.33 8 0.66 8 1 C5.36 1 2.72 1 0 1 C0 0.67 0 0.34 0 0 Z " fill="#FFFFFF" transform="translate(283,183)"/>
<path d="M0 0 C2.64 0 5.28 0 8 0 C8 0.33 8 0.66 8 1 C5.36 1 2.72 1 0 1 C0 0.67 0 0.34 0 0 Z " fill="#FFFFFF" transform="translate(85,174)"/>
<path d="M0 0 C2.64 0 5.28 0 8 0 C8 0.33 8 0.66 8 1 C5.36 1 2.72 1 0 1 C0 0.67 0 0.34 0 0 Z " fill="#FFFFFF" transform="translate(7,153)"/>
<path d="M0 0 C2.64 0 5.28 0 8 0 C8 0.33 8 0.66 8 1 C5.36 1 2.72 1 0 1 C0 0.67 0 0.34 0 0 Z " fill="#FFFFFF" transform="translate(83,100)"/>
<path d="M0 0 C2.64 0 5.28 0 8 0 C8 0.33 8 0.66 8 1 C5.36 1 2.72 1 0 1 C0 0.67 0 0.34 0 0 Z " fill="#FFFFFF" transform="translate(233,97)"/>
<path d="M0 0 C0.33 0 0.66 0 1 0 C1 2.64 1 5.28 1 8 C0.67 8 0.34 8 0 8 C0 5.36 0 2.72 0 0 Z " fill="#FFFFFF" transform="translate(156,91)"/>
<path d="M0 0 C1.65 0 3.3 0 5 0 C5.33 0.66 5.66 1.32 6 2 C3.03 1.505 3.03 1.505 0 1 C0 0.67 0 0.34 0 0 Z " fill="#FFFFFF" transform="translate(264,182)"/>
<path d="M0 0 C2.125 0.375 2.125 0.375 4 1 C2.02 1.33 0.04 1.66 -2 2 C-1.34 1.34 -0.68 0.68 0 0 Z " fill="#FFFFFF" transform="translate(218,161)"/>
<path d="M0 0 C2.31 0 4.62 0 7 0 C7 0.33 7 0.66 7 1 C4.69 1 2.38 1 0 1 C0 0.67 0 0.34 0 0 Z " fill="#FFFFFF" transform="translate(250,159)"/>
<path d="M0 0 C2.31 0 4.62 0 7 0 C7 0.33 7 0.66 7 1 C4.69 1 2.38 1 0 1 C0 0.67 0 0.34 0 0 Z " fill="#FFFFFF" transform="translate(13,133)"/>
<path d="M0 0 C2.31 0 4.62 0 7 0 C7 0.33 7 0.66 7 1 C4.69 1 2.38 1 0 1 C0 0.67 0 0.34 0 0 Z " fill="#FFFFFF" transform="translate(104,103)"/>
<path d="M0 0 C1.32 1.32 2.64 2.64 4 4 C2.68 3.34 1.36 2.68 0 2 C0 1.34 0 0.68 0 0 Z " fill="#FFFFFF" transform="translate(114,100)"/>
<path d="M0 0 C0.33 0 0.66 0 1 0 C1 2.31 1 4.62 1 7 C0.67 7 0.34 7 0 7 C0 4.69 0 2.38 0 0 Z " fill="#FFFFFF" transform="translate(155,99)"/>
<path d="M0 0 C0.99 0.33 1.98 0.66 3 1 C1.02 1.33 -0.96 1.66 -3 2 C-2.01 1.34 -1.02 0.68 0 0 Z " fill="#FFFFFF" transform="translate(239,73)"/>
<path d="M0 0 C2.31 0 4.62 0 7 0 C7 0.33 7 0.66 7 1 C4.69 1 2.38 1 0 1 C0 0.67 0 0.34 0 0 Z " fill="#FFFFFF" transform="translate(221,54)"/>
<path d="M0 0 C2.31 0 4.62 0 7 0 C7 0.33 7 0.66 7 1 C4.69 1 2.38 1 0 1 C0 0.67 0 0.34 0 0 Z " fill="#FFFFFF" transform="translate(90,54)"/>
<path d="M0 0 C0.33 0 0.66 0 1 0 C1 2.31 1 4.62 1 7 C0.67 7 0.34 7 0 7 C0 4.69 0 2.38 0 0 Z " fill="#FFFFFF" transform="translate(34,48)"/>
<path d="M0 0 C2.31 0 4.62 0 7 0 C7 0.33 7 0.66 7 1 C4.69 1 2.38 1 0 1 C0 0.67 0 0.34 0 0 Z " fill="#FFFFFF" transform="translate(25,35)"/>
<path d="M0 0 C2.31 0 4.62 0 7 0 C7 0.33 7 0.66 7 1 C4.69 1 2.38 1 0 1 C0 0.67 0 0.34 0 0 Z " fill="#FFFFFF" transform="translate(257,30)"/>
<path d="M0 0 C0.99 0.33 1.98 0.66 3 1 C1.35 1.33 -0.3 1.66 -2 2 C-1.34 1.34 -0.68 0.68 0 0 Z " fill="#FFFFFF" transform="translate(74,153)"/>
<path d="M0 0 C1.98 0 3.96 0 6 0 C6 0.33 6 0.66 6 1 C4.02 1 2.04 1 0 1 C0 0.67 0 0.34 0 0 Z " fill="#FFFFFF" transform="translate(102,114)"/>
<path d="M0 0 C1.98 0 3.96 0 6 0 C6 0.33 6 0.66 6 1 C4.02 1 2.04 1 0 1 C0 0.67 0 0.34 0 0 Z " fill="#FFFFFF" transform="translate(115,105)"/>
<path d="M0 0 C0.33 0 0.66 0 1 0 C1 1.98 1 3.96 1 6 C0.67 6 0.34 6 0 6 C0 4.02 0 2.04 0 0 Z " fill="#FFFFFF" transform="translate(33,55)"/>
<path d="M0 0 C1.98 0 3.96 0 6 0 C6 0.33 6 0.66 6 1 C4.02 1 2.04 1 0 1 C0 0.67 0 0.34 0 0 Z " fill="#FFFFFF" transform="translate(75,52)"/>
<path d="M0 0 C1.98 0 3.96 0 6 0 C6 0.33 6 0.66 6 1 C4.02 1 2.04 1 0 1 C0 0.67 0 0.34 0 0 Z " fill="#FFFFFF" transform="translate(69,51)"/>
<path d="M0 0 C1.98 0 3.96 0 6 0 C6 0.33 6 0.66 6 1 C4.02 1 2.04 1 0 1 C0 0.67 0 0.34 0 0 Z " fill="#FFFFFF" transform="translate(264,31)"/>
<path d="M0 0 C1.98 0 3.96 0 6 0 C6 0.33 6 0.66 6 1 C4.02 1 2.04 1 0 1 C0 0.67 0 0.34 0 0 Z " fill="#FFFFFF" transform="translate(335,14)"/>
<path d="M0 0 C1.65 0 3.3 0 5 0 C5 0.33 5 0.66 5 1 C3.35 1 1.7 1 0 1 C0 0.67 0 0.34 0 0 Z " fill="#FFFFFF" transform="translate(52,201)"/>
<path d="M0 0 C1.65 0 3.3 0 5 0 C5 0.33 5 0.66 5 1 C3.35 1 1.7 1 0 1 C0 0.67 0 0.34 0 0 Z " fill="#FFFFFF" transform="translate(78,190)"/>
<path d="M0 0 C1.65 0 3.3 0 5 0 C5 0.33 5 0.66 5 1 C3.35 1 1.7 1 0 1 C0 0.67 0 0.34 0 0 Z " fill="#FFFFFF" transform="translate(59,185)"/>
<path d="M0 0 C1.32 0 2.64 0 4 0 C3.67 0.66 3.34 1.32 3 2 C2.01 1.34 1.02 0.68 0 0 Z " fill="#FFFFFF" transform="translate(15,154)"/>
<path d="M0 0 C1.65 0 3.3 0 5 0 C5 0.33 5 0.66 5 1 C3.35 1 1.7 1 0 1 C0 0.67 0 0.34 0 0 Z " fill="#FFFFFF" transform="translate(8,134)"/>
<path d="M0 0 C1.65 0 3.3 0 5 0 C5 0.33 5 0.66 5 1 C3.35 1 1.7 1 0 1 C0 0.67 0 0.34 0 0 Z " fill="#FFFFFF" transform="translate(140,111)"/>
<path d="M0 0 C1.65 0 3.3 0 5 0 C5 0.33 5 0.66 5 1 C3.35 1 1.7 1 0 1 C0 0.67 0 0.34 0 0 Z " fill="#FFFFFF" transform="translate(132,109)"/>
<path d="M0 0 C1.65 0 3.3 0 5 0 C5 0.33 5 0.66 5 1 C3.35 1 1.7 1 0 1 C0 0.67 0 0.34 0 0 Z " fill="#FFFFFF" transform="translate(124,107)"/>
<path d="M0 0 C0.99 0.495 0.99 0.495 2 1 C1.67 1.99 1.34 2.98 1 4 C0.67 2.68 0.34 1.36 0 0 Z " fill="#FFFFFF" transform="translate(112,96)"/>
<path d="M0 0 C1.65 0 3.3 0 5 0 C5 0.33 5 0.66 5 1 C3.35 1 1.7 1 0 1 C0 0.67 0 0.34 0 0 Z " fill="#FFFFFF" transform="translate(270,79)"/>
<path d="M0 0 C4 1 4 1 4 1 Z " fill="#FFFFFF" transform="translate(273,211)"/>
<path d="M0 0 C4 1 4 1 4 1 Z " fill="#FFFFFF" transform="translate(78,172)"/>
<path d="M0 0 C4 1 4 1 4 1 Z " fill="#FFFFFF" transform="translate(10,115)"/>
<path d="M0 0 C4 1 4 1 4 1 Z " fill="#FFFFFF" transform="translate(111,104)"/>
<path d="M0 0 C4 1 4 1 4 1 Z " fill="#FFFFFF" transform="translate(100,102)"/>
<path d="M0 0 C0.99 0.495 0.99 0.495 2 1 C1.67 1.66 1.34 2.32 1 3 C0.67 2.01 0.34 1.02 0 0 Z " fill="#FFFFFF" transform="translate(109,90)"/>
<path d="M0 0 C4 1 4 1 4 1 Z " fill="#FFFFFF" transform="translate(221,79)"/>
<path d="M0 0 C4 1 4 1 4 1 Z " fill="#FFFFFF" transform="translate(227,77)"/>
<path d="M0 0 C3 1 3 1 3 1 Z " fill="#FFFFFF" transform="translate(270,212)"/>
<path d="M0 0 C3 1 3 1 3 1 Z " fill="#FFFFFF" transform="translate(83,189)"/>
<path d="M0 0 C3 1 3 1 3 1 Z " fill="#FFFFFF" transform="translate(86,188)"/>
<path d="M0 0 C3 1 3 1 3 1 Z " fill="#FFFFFF" transform="translate(82,173)"/>
<path d="M0 0 C3 1 3 1 3 1 Z " fill="#FFFFFF" transform="translate(69,155)"/>
<path d="M0 0 C3 1 3 1 3 1 Z " fill="#FFFFFF" transform="translate(137,110)"/>
<path d="M0 0 C3 1 3 1 3 1 Z " fill="#FFFFFF" transform="translate(129,108)"/>
<path d="M0 0 C3 1 3 1 3 1 Z " fill="#FFFFFF" transform="translate(121,106)"/>
<path d="" fill="#FFFFFF" transform="translate(0,0)"/>
<path d="" fill="#FFFFFF" transform="translate(0,0)"/>
<path d="" fill="#FFFFFF" transform="translate(0,0)"/>
<path d="M0 0 C3 1 3 1 3 1 Z " fill="#FFFFFF" transform="translate(231,76)"/>
<path d="M0 0 C0.66 0.66 1.32 1.32 2 2 C1.34 2 0.68 2 0 2 C0 1.34 0 0.68 0 0 Z " fill="#FFFFFF" transform="translate(101,75)"/>
<path d="M0 0 C3 1 3 1 3 1 Z " fill="#FFFFFF" transform="translate(179,72)"/>
<path d="M0 0 C2 1 2 1 2 1 Z " fill="#FFFFFF" transform="translate(256,210)"/>
<path d="" fill="#FFFFFF" transform="translate(0,0)"/>
<path d="M0 0 C2 1 2 1 2 1 Z " fill="#FFFFFF" transform="translate(145,112)"/>
<path d="" fill="#FFFFFF" transform="translate(0,0)"/>
<path d="M0 0 C2 1 2 1 2 1 Z " fill="#FFFFFF" transform="translate(225,78)"/>
<path d="" fill="#FFFFFF" transform="translate(0,0)"/>
<path d="M0 0 C2 1 2 1 2 1 Z " fill="#FFFFFF" transform="translate(234,75)"/>
<path d="" fill="#FFFFFF" transform="translate(0,0)"/>
<path d="" fill="#FFFFFF" transform="translate(0,0)"/>
<path d="" fill="#FFFFFF" transform="translate(0,0)"/>
</svg>
