<?xml version="1.0" encoding="UTF-8"?>
<svg version="1.1" xmlns="http://www.w3.org/2000/svg" width="350" height="230">
<path d="M0 0 C2.66737398 0.00542149 5.3345838 -0.00001533 8.00195312 -0.00634766 C9.72591182 -0.0056877 11.44987042 -0.00440826 13.17382812 -0.00244141 C13.95729614 -0.00446564 14.74076416 -0.00648987 15.54797363 -0.00857544 C20.49490307 0.01225528 25.2442634 0.43011514 30.14257812 1.13037109 C31.08008428 13.66951587 31.25357765 26.18723585 31.26757812 38.75537109 C31.27007568 39.55455963 31.27257324 40.35374817 31.27514648 41.17715454 C31.28101644 43.4662921 31.27955567 45.75529466 31.27539062 48.04443359 C31.27737457 48.74466141 31.27935852 49.44488922 31.28140259 50.16633606 C31.2578231 55.01512612 31.2578231 55.01512612 30.14257812 56.13037109 C28.51583035 56.22377543 26.88503761 56.2478228 25.25561523 56.24389648 C24.21461166 56.24382095 23.17360809 56.24374542 22.10105896 56.2436676 C20.96878372 56.23850632 19.83650848 56.23334503 18.66992188 56.22802734 C17.51714249 56.2266124 16.3643631 56.22519745 15.176651 56.22373962 C11.47776749 56.21812115 7.77894348 56.20556551 4.08007812 56.19287109 C1.57942795 56.18785847 -0.92122316 56.18329516 -3.421875 56.17919922 C-9.56707776 56.16814571 -15.71224557 56.15138961 -21.85742188 56.13037109 C-21.85742188 55.80037109 -21.85742188 55.47037109 -21.85742188 55.13037109 C-17.56742187 55.13037109 -13.27742188 55.13037109 -8.85742188 55.13037109 C-8.83235285 49.85083344 -8.81439084 44.57133184 -8.80249023 39.29174805 C-8.79751926 37.50267939 -8.79074015 35.71361467 -8.78198242 33.92456055 C-8.72964327 22.94257576 -8.93236436 12.07775414 -9.85742188 1.13037109 C-10.92162354 1.29335693 -11.9858252 1.45634277 -13.08227539 1.62426758 C-15.88600902 2.00014159 -18.44857321 2.24981953 -21.25976562 2.22802734 C-22.00419922 2.22480469 -22.74863281 2.22158203 -23.515625 2.21826172 C-24.26779297 2.20988281 -25.01996094 2.20150391 -25.79492188 2.19287109 C-26.57416016 2.18835938 -27.35339844 2.18384766 -28.15625 2.17919922 C-30.05667456 2.16754017 -31.95705893 2.14960986 -33.85742188 2.13037109 C-33.85742188 1.80037109 -33.85742188 1.47037109 -33.85742188 1.13037109 C-22.55826829 0.25891494 -11.32995656 -0.02741799 0 0 Z M-8.85742188 1.13037109 C-8.71602707 3.38065438 -8.56914184 5.63059316 -8.41992188 7.88037109 C-8.33871094 9.13333984 -8.2575 10.38630859 -8.17382812 11.67724609 C-7.93488762 15.25401247 -7.93488762 15.25401247 -6.85742188 19.13037109 C-3.22742188 19.13037109 0.40257812 19.13037109 4.14257812 19.13037109 C0.51257813 19.46037109 -3.11742187 19.79037109 -6.85742188 20.13037109 C-7.18742187 31.68037109 -7.51742188 43.23037109 -7.85742188 55.13037109 C4.35257812 55.13037109 16.56257813 55.13037109 29.14257812 55.13037109 C30.60567634 52.20417466 30.2724615 49.61467554 30.27539062 46.34912109 C30.2767099 45.667202 30.27802917 44.9852829 30.27938843 44.28269958 C30.28130614 42.06521063 30.27497379 39.8478472 30.26757812 37.63037109 C30.26669189 36.88304718 30.26580566 36.13572327 30.26489258 35.36575317 C30.24932789 24.26079436 30.01488605 13.2055663 29.14257812 2.13037109 C21.33453917 0.85250905 13.52895131 1.01878963 5.64257812 1.06787109 C4.23372555 1.07289576 2.82487124 1.07745696 1.41601562 1.08154297 C-2.00850826 1.09327079 -5.43294235 1.10968418 -8.85742188 1.13037109 Z " fill="#FFFFFF" transform="translate(303.857421875,134.86962890625)"/>
<path d="M0 0 C0 0.66 0 1.32 0 2 C0.556875 2.268125 1.11375 2.53625 1.6875 2.8125 C2.450625 3.204375 3.21375 3.59625 4 4 C4.9075 4.33 5.815 4.66 6.75 5 C9 7 9 7 9.421875 9.171875 C9.5921614 14.79132605 8.94403097 19.19141609 6 24 C1.68170108 27.34668166 -2.80905239 27.56010541 -8.10546875 27.4296875 C-13.72135364 26.59602038 -18.98169643 24.01830357 -23 20 C-24.3890524 15.13831659 -24.47152745 10.25285337 -23.4375 5.3125 C-18.20512016 -3.1048067 -8.42410389 -1.72802131 0 0 Z M-21 4 C-23.73076593 7.86858507 -23.17971591 12.16701966 -22.6015625 16.69140625 C-22.12222389 19.23652822 -22.12222389 19.23652822 -19.8125 21.5 C-16.92360634 23.04074328 -14.15132762 24.12055974 -11 25 C-10.91363281 24.18015625 -10.82726562 23.3603125 -10.73828125 22.515625 C-9.5701297 13.55622409 -9.5701297 13.55622409 -6.4375 10.5 C-5.633125 10.005 -4.82875 9.51 -4 9 C-3.13034494 6.87053397 -3.13034494 6.87053397 -3 5 C-2.34 5 -1.68 5 -1 5 C-1 3.68 -1 2.36 -1 1 C-11.75675619 -0.67431054 -11.75675619 -0.67431054 -21 4 Z M0 3 C0 3.99 0 4.98 0 6 C-0.66 6 -1.32 6 -2 6 C-2.268125 6.598125 -2.53625 7.19625 -2.8125 7.8125 C-3.98493467 9.97224808 -5.19369282 11.35790256 -7 13 C-5.71034824 14.37562854 -4.37310707 15.70766393 -3 17 C-2.34 17 -1.68 17 -1 17 C-0.7525 17.61875 -0.505 18.2375 -0.25 18.875 C1.20628639 21.35068687 2.37812506 21.95125002 5 23 C7.63276093 17.73447815 9.0462026 13.89677827 8 8 C5.57225867 5.81027252 2.95501892 4.37197307 0 3 Z M-9 14 C-9.19401633 15.81181405 -9.38004375 17.62448532 -9.5625 19.4375 C-9.66691406 20.44683594 -9.77132812 21.45617187 -9.87890625 22.49609375 C-9.91886719 23.32238281 -9.95882812 24.14867187 -10 25 C-8.11940967 26.88059033 -5.50109962 26.12361218 -3.0078125 26.1328125 C-0.79225982 26.07126531 -0.79225982 26.07126531 2 25 C-0.14218964 19.74189816 -3.92772112 16.35267403 -9 14 Z " fill="#FFFFFF" transform="translate(251,42)"/>
<path d="M0 0 C1.44137394 4.41950685 0.66143525 8.48641725 0.15625 13.02734375 C0.0023106 15.9560408 0.40779712 18.14705184 1 21 C1.06701506 23.43666765 1.08528021 25.87501742 1.0625 28.3125 C1.05347656 29.56675781 1.04445313 30.82101563 1.03515625 32.11328125 C1.02355469 33.06589844 1.01195313 34.01851562 1 35 C2.24716797 34.02546875 2.24716797 34.02546875 3.51953125 33.03125 C4.61689714 32.18712239 5.71456944 31.34339302 6.8125 30.5 C7.35970703 30.07074219 7.90691406 29.64148438 8.47070312 29.19921875 C12.66015625 26 12.66015625 26 16 26 C11.11430397 30.27498403 6.23726059 34.07205456 1 38 C14.86 38.33 28.72 38.66 43 39 C43 39.33 43 39.66 43 40 C36.91276345 40.02467081 30.82555583 40.04284604 24.73828125 40.05493164 C22.66633599 40.05996852 20.5943943 40.06679825 18.52246094 40.07543945 C15.54881918 40.08753321 12.57522431 40.09323467 9.6015625 40.09765625 C8.67131256 40.10281754 7.74106262 40.10797882 6.78262329 40.11329651 C5.92188202 40.11337204 5.06114075 40.11344757 4.17431641 40.11352539 C3.41486725 40.115746 2.65541809 40.11796661 1.87295532 40.12025452 C0 40 0 40 -2 39 C-1.91621094 37.88882813 -1.83242187 36.77765625 -1.74609375 35.6328125 C-0.98454144 26.15152366 -0.98454144 26.15152366 -1.5625 16.6875 C-2.35200879 10.97343014 -1.16367488 5.59717999 0 0 Z " fill="#FFFFFF" transform="translate(81,132)"/>
<path d="M0 0 C0.66 0 1.32 0 2 0 C2 0.66 2 1.32 2 2 C2.99 2.33 3.98 2.66 5 3 C7.2012966 7.75016635 7.1765235 11.88081854 7 17 C6.67 17 6.34 17 6 17 C5.80083984 16.09507812 5.80083984 16.09507812 5.59765625 15.171875 C5.42105469 14.37265625 5.24445313 13.5734375 5.0625 12.75 C4.88847656 11.96109375 4.71445313 11.1721875 4.53515625 10.359375 C4.35855469 9.58078125 4.18195313 8.8021875 4 8 C3.87496094 7.26265625 3.74992187 6.5253125 3.62109375 5.765625 C3.41613281 5.18296875 3.21117187 4.6003125 3 4 C2.01 3.67 1.02 3.34 0 3 C-1.65 5.97 -3.3 8.94 -5 12 C-5.66 12 -6.32 12 -7 12 C-9.475 7.545 -9.475 7.545 -12 3 C-13.12174498 4.12174498 -14.2431422 5.24383888 -15.36328125 6.3671875 C-16.5848075 7.58579841 -17.8123568 8.79837743 -19.04296875 10.0078125 C-19.75066406 10.70648438 -20.45835938 11.40515625 -21.1875 12.125 C-22.19876953 13.11886719 -22.19876953 13.11886719 -23.23046875 14.1328125 C-25.17553358 16.07943317 -25.17553358 16.07943317 -27 19 C-27.99 19 -28.98 19 -30 19 C-30.99 17.02 -31.98 15.04 -33 13 C-34.98 13.66 -36.96 14.32 -39 15 C-37.68 13.35 -36.36 11.7 -35 10 C-31.17053157 11.45255699 -29.87949705 13.42895561 -28 17 C-27.57589844 16.5153125 -27.15179688 16.030625 -26.71484375 15.53125 C-22.4765625 10.6875 -18.23828125 5.84375 -14 1 C-11.48896743 1.37454477 -10.32350649 1.58363516 -8.734375 3.62890625 C-7.3671875 6.31445312 -7.3671875 6.31445312 -6 9 C-5.59007812 8.3503125 -5.18015625 7.700625 -4.7578125 7.03125 C-4.21898437 6.1959375 -3.68015625 5.360625 -3.125 4.5 C-2.59132812 3.6646875 -2.05765625 2.829375 -1.5078125 1.96875 C-1.01023438 1.3190625 -0.51265625 0.669375 0 0 Z " fill="#FFFFFF" transform="translate(136,142)"/>
<path d="M0 0 C8.25 0 16.5 0 25 0 C25 5.28 25 10.56 25 16 C24.67 16 24.34 16 24 16 C24 11.05 24 6.1 24 1 C16.41 1 8.82 1 1 1 C1 8.26 1 15.52 1 23 C9.25 23 17.5 23 26 23 C26.33 22.34 26.66 21.68 27 21 C27 21.99 27 22.98 27 24 C18.42 24 9.84 24 1 24 C0.67 24.66 0.34 25.32 0 26 C0 25.34 0 24.68 0 24 C-0.99 23.67 -1.98 23.34 -3 23 C-2.01 23 -1.02 23 0 23 C-0.33 22.01 -0.66 21.02 -1 20 C-1.09563897 17.91844599 -1.12984592 15.83374432 -1.125 13.75 C-1.12757813 12.65171875 -1.13015625 11.5534375 -1.1328125 10.421875 C-0.99728637 6.93008404 -0.49418562 3.45929935 0 0 Z " fill="#FFFFFF" transform="translate(220,156)"/>
<path d="M0 0 C0 0.66 0 1.32 0 2 C10.5359588 2.85633337 20.9735687 3.08918462 31.54321289 2.96289062 C32.97395142 2.95032227 32.97395142 2.95032227 34.43359375 2.9375 C35.29009521 2.92589844 36.14659668 2.91429687 37.02905273 2.90234375 C39 3 39 3 40 4 C42.53049402 4.07313567 45.03304837 4.09247527 47.5625 4.0625 C48.27341797 4.05798828 48.98433594 4.05347656 49.71679688 4.04882812 C51.47790013 4.03700864 53.23896036 4.01907263 55 4 C54.67 4.66 54.34 5.32 54 6 C51.60408962 6.02712351 49.20849043 6.0468982 46.8125 6.0625 C46.13896484 6.07087891 45.46542969 6.07925781 44.77148438 6.08789062 C41.96864355 6.10156302 39.32460932 6.06743092 36.57421875 5.49609375 C32.71931786 4.75319176 28.91438195 4.94180223 25 5 C4.00728968 5.1410665 4.00728968 5.1410665 -2 2 C-3.67654729 2.27942455 -5.34259285 2.62331656 -7 3 C-9.67352183 3.09459388 -12.32357583 3.04536312 -15 3 C-14.67 2.34 -14.34 1.68 -14 1 C-11.6015625 0.5859375 -11.6015625 0.5859375 -8.625 0.375 C-7.15933594 0.26285156 -7.15933594 0.26285156 -5.6640625 0.1484375 C-3.77831835 0.04336671 -1.88866907 0 0 0 Z " fill="#FFFFFF" transform="translate(227,33)"/>
<path d="M0 0 C-0.96421875 0.32613281 -1.9284375 0.65226562 -2.921875 0.98828125 C-4.19804677 1.4293112 -5.47408129 1.87073846 -6.75 2.3125 C-7.38421875 2.52583984 -8.0184375 2.73917969 -8.671875 2.95898438 C-12.26731391 4.21364274 -15.07433176 5.57383609 -18 8 C-21.84660218 10.4181101 -25.73040291 12.42699055 -30 14 C-31.11181641 14.50660156 -31.11181641 14.50660156 -32.24609375 15.0234375 C-35.3985187 16.14131869 -38.10135635 16.34282009 -41.4375 16.5 C-45.99261078 16.71511739 -49.72114185 17.39946181 -54 19 C-49.51839213 14.31468268 -45.56926508 14.71693895 -39.26171875 14.37890625 C-36.10625833 14.01234378 -33.8623957 13.32966016 -31 12 C-30.37738281 11.71640625 -29.75476563 11.4328125 -29.11328125 11.140625 C-25.29552369 9.25244989 -21.67409891 7.19755335 -18.0625 4.9375 C-6.46644958 -2.10232105 -6.46644958 -2.10232105 0 0 Z " fill="#FFFFFF" transform="translate(122,73)"/>
<path d="M0 0 C0.03867188 1.2684375 0.03867188 1.2684375 0.078125 2.5625 C0.39450414 8.89008286 0.86009469 13.84045179 4.078125 19.34375 C5.27161565 21.48798744 5.69737513 23.57900102 6 26 C5.195625 26.28875 4.39125 26.5775 3.5625 26.875 C0.8673532 27.73262568 0.8673532 27.73262568 0 30 C-0.66 28.02 -1.32 26.04 -2 24 C-0.02 24.33 1.96 24.66 4 25 C3.35474023 23.5414128 2.7087728 22.08313863 2.0625 20.625 C1.70285156 19.81289063 1.34320313 19.00078125 0.97265625 18.1640625 C0.3430097 16.76316215 -0.31312642 15.37374716 -1 14 C-1.22950319 11.795636 -1.41075933 9.58607827 -1.5625 7.375 C-1.68818359 5.59222656 -1.68818359 5.59222656 -1.81640625 3.7734375 C-1.87699219 2.85820313 -1.93757813 1.94296875 -2 1 C-6.455 1.495 -6.455 1.495 -11 2 C-10.484375 2.94875 -9.96875 3.8975 -9.4375 4.875 C-8.963125 5.90625 -8.48875 6.9375 -8 8 C-8.33 8.66 -8.66 9.32 -9 10 C-13 3.25 -13 3.25 -13 1 C-8.07289099 -0.41967548 -5.04818932 -1.26425757 0 0 Z " fill="#FFFFFF" transform="translate(95,41)"/>
<path d="M0 0 C0.86928276 2.39127957 1.72051601 4.78661726 2.5625 7.1875 C2.80935547 7.86103516 3.05621094 8.53457031 3.31054688 9.22851562 C4.68624467 13.2006008 5.31172566 15.95485799 4 20 C2.35 20.33 0.7 20.66 -1 21 C-1.33 21.99 -1.66 22.98 -2 24 C-5.41386718 16.45299175 -8.58257847 9.22104485 -10 1 C-6.58505832 0.2194419 -3.49609808 -0.04700636 0 0 Z M-9 2 C-8.1028206 4.82013391 -7.18375745 7.62949382 -6.25 10.4375 C-5.99734375 11.23994141 -5.7446875 12.04238281 -5.484375 12.86914062 C-5.2265625 13.63291016 -4.96875 14.39667969 -4.703125 15.18359375 C-4.35749512 16.24404907 -4.35749512 16.24404907 -4.00488281 17.32592773 C-3.11625722 19.16716009 -3.11625722 19.16716009 -1.08105469 19.86352539 C1.31042691 20.23213077 1.31042691 20.23213077 4 18 C3.80664062 17.35933594 3.61328125 16.71867187 3.4140625 16.05859375 C1.9059252 11.04889015 0.42282214 6.03460143 -1 1 C-3.83967231 1 -6.23735711 1.40267181 -9 2 Z " fill="#FFFFFF" transform="translate(85,55)"/>
<path d="M0 0 C0.66 0.33 1.32 0.66 2 1 C1.67 1.99 1.34 2.98 1 4 C1 3.34 1 2.68 1 2 C0.01 2.33 -0.98 2.66 -2 3 C-3.85594728 3.08840088 -5.71495117 3.11762704 -7.57299805 3.11352539 C-8.71395432 3.11344986 -9.85491058 3.11337433 -11.03044128 3.11329651 C-12.26176285 3.10813522 -13.49308441 3.10297394 -14.76171875 3.09765625 C-16.02264847 3.0962413 -17.28357819 3.09482635 -18.5827179 3.09336853 C-21.93151709 3.08871575 -25.28024811 3.07973342 -28.62902832 3.06866455 C-32.04760143 3.05842687 -35.46618159 3.05386586 -38.88476562 3.04882812 C-45.58986261 3.03779099 -52.29492737 3.02104686 -59 3 C-59 2.67 -59 2.34 -59 2 C-58.30508957 1.98969254 -57.61017914 1.97938507 -56.89421082 1.96876526 C-50.34637933 1.87080081 -43.79863672 1.76828783 -37.25095654 1.66066074 C-33.88470387 1.60548878 -30.51844243 1.55207803 -27.15209961 1.50268555 C-23.28230386 1.44503363 -19.41264856 1.38132432 -15.54296875 1.31640625 C-14.33352097 1.29969376 -13.12407318 1.28298126 -11.87797546 1.26576233 C-10.19657219 1.2358445 -10.19657219 1.2358445 -8.48120117 1.20532227 C-7.49302902 1.18977798 -6.50485687 1.1742337 -5.48674011 1.15821838 C-2.86800044 1.09786217 -2.86800044 1.09786217 0 0 Z " fill="#FFFFFF" transform="translate(300,29)"/>
<path d="M0 0 C0.99 0.33 1.98 0.66 3 1 C2.67 1.33 2.34 1.66 2 2 C1.91710518 3.57528587 1.90361387 5.15429159 1.91821289 6.73168945 C1.9247438 7.73976151 1.93127472 8.74783356 1.93800354 9.78645325 C1.94943893 10.88430649 1.96087433 11.98215973 1.97265625 13.11328125 C1.98530539 15.41601411 1.99766614 17.71874856 2.00976562 20.02148438 C2.03458476 23.66891392 2.06253446 27.31626171 2.09594727 30.96362305 C2.12612299 34.47184784 2.14392024 37.97996817 2.16015625 41.48828125 C2.17361588 42.5800618 2.1870755 43.67184235 2.20094299 44.79670715 C2.20432175 45.81423569 2.2077005 46.83176422 2.21118164 47.88012695 C2.21863907 48.77423782 2.2260965 49.66834869 2.23377991 50.58955383 C2 53 2 53 0 57 C0 38.19 0 19.38 0 0 Z " fill="#FFFFFF" transform="translate(185,23)"/>
<path d="M0 0 C0 0.33 0 0.66 0 1 C-11.91957353 2.68367891 -23.53385636 3.25880588 -35.5625 3.125 C-37.17121825 3.11492825 -38.77994276 3.10580997 -40.38867188 3.09765625 C-44.25927469 3.07602495 -48.12956397 3.04173842 -52 3 C-52 2.67 -52 2.34 -52 2 C-51.02764404 1.97494385 -50.05528809 1.9498877 -49.0534668 1.92407227 C-45.39483755 1.82884677 -41.73634828 1.72892284 -38.07788086 1.62768555 C-36.50402128 1.58476649 -34.93012787 1.543068 -33.35620117 1.50268555 C-25.27453702 1.29454094 -17.2379496 1.06631499 -9.19335938 0.20507812 C-6.11436205 -0.08280675 -3.08984537 -0.06866323 0 0 Z " fill="#FFFFFF" transform="translate(293,148)"/>
<path d="M0 0 C16.5 0 33 0 50 0 C50 0.33 50 0.66 50 1 C45.09809938 1.79597096 40.43078153 2.12843035 35.44921875 2.1328125 C34.40094658 2.13424759 34.40094658 2.13424759 33.33149719 2.13571167 C31.86170359 2.13638789 30.3919069 2.1345728 28.92211914 2.13037109 C26.70386844 2.12503934 24.48582243 2.13032257 22.26757812 2.13671875 C14.78616132 2.13986577 7.43524172 1.92481782 0 1 C0 0.67 0 0.34 0 0 Z " fill="#FFFFFF" transform="translate(214,188)"/>
<path d="M0 0 C1.01707031 -0.00676758 1.01707031 -0.00676758 2.0546875 -0.01367188 C5.35214382 -0.00375968 8.26579486 0.24022174 11.4375 1.125 C12.05625 0.96 12.675 0.795 13.3125 0.625 C16.20210047 -0.05490599 18.56003502 0.53642762 21.4375 1.125 C21.4375 1.455 21.4375 1.785 21.4375 2.125 C19.31312788 2.31948477 17.18796809 2.50538289 15.0625 2.6875 C13.87914062 2.79191406 12.69578125 2.89632812 11.4765625 3.00390625 C8.4375 3.125 8.4375 3.125 6.4375 2.125 C4.33221067 2.03956105 2.22418843 2.01785275 0.1171875 2.02734375 C-1.76806641 2.03217773 -1.76806641 2.03217773 -3.69140625 2.03710938 C-5.01011719 2.04548828 -6.32882813 2.05386719 -7.6875 2.0625 C-9.02734211 2.06751511 -10.367186 2.07207799 -11.70703125 2.07617188 C-14.99223206 2.08798914 -18.27734397 2.10446383 -21.5625 2.125 C-21.5625 1.795 -21.5625 1.465 -21.5625 1.125 C-14.37278624 0.43557539 -7.22070847 0.01994671 0 0 Z " fill="#FFFFFF" transform="translate(124.5625,135.875)"/>
<path d="M0 0 C1 3 1 3 0.0625 5.1875 C-0.4634375 6.0846875 -0.4634375 6.0846875 -1 7 C5.18653511 10.58017078 9.90224388 11.63006864 17 11.75 C18.30517578 11.79447266 18.30517578 11.79447266 19.63671875 11.83984375 C21.75733216 11.90975408 23.87866563 11.95723116 26 12 C26 12.33 26 12.66 26 13 C22.85449187 13.11792821 19.70956459 13.18781383 16.5625 13.25 C15.24475586 13.30027344 15.24475586 13.30027344 13.90039062 13.3515625 C7.39474272 13.44758682 2.71141866 12.09706761 -3 9 C-3.33 9.66 -3.66 10.32 -4 11 C-3.39301257 6.87248551 -1.96189209 3.6678852 0 0 Z " fill="#FFFFFF" transform="translate(68,166)"/>
<path d="M0 0 C1.16337891 0.00322266 2.32675781 0.00644531 3.52539062 0.00976562 C4.74033203 0.01814453 5.95527344 0.02652344 7.20703125 0.03515625 C8.43357422 0.03966797 9.66011719 0.04417969 10.92382812 0.04882812 C13.95577793 0.0606256 16.98763031 0.07708704 20.01953125 0.09765625 C20.01953125 0.42765625 20.01953125 0.75765625 20.01953125 1.09765625 C19.27791748 1.1227124 18.53630371 1.14776855 17.7722168 1.17358398 C14.41697797 1.28951757 11.06202181 1.4122561 7.70703125 1.53515625 C6.53978516 1.57447266 5.37253906 1.61378906 4.16992188 1.65429688 C3.05166016 1.69619141 1.93339844 1.73808594 0.78125 1.78125 C-0.25040283 1.81790771 -1.28205566 1.85456543 -2.3449707 1.89233398 C-5.08795133 1.99926867 -5.08795133 1.99926867 -7.98046875 3.09765625 C-10.20865316 3.16702687 -12.43881399 3.18222709 -14.66796875 3.16015625 C-16.43720703 3.14662109 -16.43720703 3.14662109 -18.2421875 3.1328125 C-19.14582031 3.12121094 -20.04945313 3.10960938 -20.98046875 3.09765625 C-20.98046875 2.76765625 -20.98046875 2.43765625 -20.98046875 2.09765625 C-20.14902344 2.03707031 -19.31757813 1.97648437 -18.4609375 1.9140625 C-16.83091797 1.78837891 -16.83091797 1.78837891 -15.16796875 1.66015625 C-14.08902344 1.57894531 -13.01007813 1.49773437 -11.8984375 1.4140625 C-7.73306633 0.96239575 -4.26728238 -0.02081601 0 0 Z " fill="#FFFFFF" transform="translate(206.98046875,77.90234375)"/>
<path d="M0 0 C0.33 0 0.66 0 1 0 C1.28992647 3.92827235 1.57449608 7.85689574 1.85449219 11.78588867 C1.99663687 13.76565883 2.14280109 15.74513909 2.2890625 17.72460938 C2.81653558 25.16574746 3.1400727 32.54015605 3 40 C2.67 40 2.34 40 2 40 C-0.38776806 11.84846857 -0.38776806 11.84846857 0 0 Z " fill="#FFFFFF" transform="translate(200,150)"/>
<path d="M0 0 C1.98 0 3.96 0 6 0 C6.77321882 2.98241547 7.41196203 5.97580475 8 9 C10.97 9.495 10.97 9.495 14 10 C14 10.66 14 11.32 14 12 C13.34 12 12.68 12 12 12 C12 13.98 12 15.96 12 18 C10.57055055 15.64561267 9.91338739 14.51967567 10.375 11.75 C10.684375 10.88375 10.684375 10.88375 11 10 C9.68 10 8.36 10 7 10 C6.731875 9.195625 6.46375 8.39125 6.1875 7.5625 C5.795625 6.716875 5.40375 5.87125 5 5 C4.01 4.67 3.02 4.34 2 4 C2 3.34 2 2.68 2 2 C1.34 1.34 0.68 0.68 0 0 Z " fill="#FFFFFF" transform="translate(36,52)"/>
<path d="M0 0 C15 -0.14285714 15 -0.14285714 21 1 C21 1.33 21 1.66 21 2 C14.4 1.67 7.8 1.34 1 1 C1 4.3 1 7.6 1 11 C0.71637625 13.33989596 0.40385502 15.67783362 0 18 C-0.33 18 -0.66 18 -1 18 C-0.505 9.09 -0.505 9.09 0 0 Z " fill="#FFFFFF" transform="translate(202,132)"/>
<path d="M0 0 C0.5345256 1.24420647 1.05208611 2.49570936 1.5625 3.75 C1.85253906 4.44609375 2.14257812 5.1421875 2.44140625 5.859375 C3.09164134 8.351185 2.91781583 9.61267576 2 12 C1.34 12.66 0.68 13.32 0 14 C-0.99 13.67 -1.98 13.34 -3 13 C-1.68 11.68 -0.36 10.36 1 9 C0.01 6.69 -0.98 4.38 -2 2 C-3.65 2.33 -5.3 2.66 -7 3 C-7.33 3.99 -7.66 4.98 -8 6 C-8.66 4.35 -9.32 2.7 -10 1 C-3.375 0 -3.375 0 0 0 Z " fill="#FFFFFF" transform="translate(73,69)"/>
<path d="M0 0 C0 0.33 0 0.66 0 1 C-2.31 1 -4.62 1 -7 1 C-7 1.66 -7 2.32 -7 3 C-8.11375 3.12375 -9.2275 3.2475 -10.375 3.375 C-14.03103677 3.6465813 -14.03103677 3.6465813 -16 6 C-16.639375 5.814375 -17.27875 5.62875 -17.9375 5.4375 C-18.9584375 5.2209375 -18.9584375 5.2209375 -20 5 C-21.77190909 6.35444301 -21.77190909 6.35444301 -23 8 C-23.66 7.67 -24.32 7.34 -25 7 C-23.25 4.9375 -23.25 4.9375 -21 3 C-19.65938457 3.30271961 -18.32594105 3.63837971 -17 4 C-14.46326712 2.6446674 -14.46326712 2.6446674 -12 1 C-8.14173458 -0.46347999 -4.06793382 -0.0677989 0 0 Z " fill="#FFFFFF" transform="translate(103,26)"/>
<path d="M0 0 C-4.455 0.495 -4.455 0.495 -9 1 C-8.08947925 4.85938975 -8.08947925 4.85938975 -7 8 C-6.34 8.268125 -5.68 8.53625 -5 8.8125 C-4.34 9.204375 -3.68 9.59625 -3 10 C-2.25 13.125 -2.25 13.125 -2 16 C-2.66 15.34 -3.32 14.68 -4 14 C-4 13.01 -4 12.02 -4 11 C-5.175625 10.62875 -5.175625 10.62875 -6.375 10.25 C-9 9 -9 9 -10.3125 7.1875 C-11.09802451 4.68810383 -11.14472595 2.60506718 -11 0 C-4.5 -2.25 -4.5 -2.25 0 0 Z " fill="#FFFFFF" transform="translate(62,77)"/>
<path d="M0 0 C11.55 0 23.1 0 35 0 C35 0.33 35 0.66 35 1 C23.45 1 11.9 1 0 1 C0 0.67 0 0.34 0 0 Z " fill="#FFFFFF" transform="translate(108,131)"/>
<path d="M0 0 C0.70125 0.28875 1.4025 0.5775 2.125 0.875 C5.05452503 2.02133588 8.00921653 3.02625654 11 4 C6.77213125 5.62610337 5.96360209 4.65453403 1 3 C1 8.28 1 13.56 1 19 C0.67 19 0.34 19 0 19 C-0.19425873 16.20865148 -0.38069517 13.41716313 -0.5625 10.625 C-0.61857422 9.8309375 -0.67464844 9.036875 -0.73242188 8.21875 C-1.11328125 2.2265625 -1.11328125 2.2265625 0 0 Z " fill="#FFFFFF" transform="translate(72,121)"/>
<path d="M0 0 C11.22 0 22.44 0 34 0 C34 0.33 34 0.66 34 1 C22.78 1 11.56 1 0 1 C0 0.67 0 0.34 0 0 Z " fill="#FFFFFF" transform="translate(236,135)"/>
<path d="M0 0 C2.97922593 -0.02683987 5.95821295 -0.04676037 8.9375 -0.0625 C9.78763672 -0.07087891 10.63777344 -0.07925781 11.51367188 -0.08789062 C12.32255859 -0.09111328 13.13144531 -0.09433594 13.96484375 -0.09765625 C14.7137085 -0.10289307 15.46257324 -0.10812988 16.23413086 -0.11352539 C18 0 18 0 19 1 C19.07271741 3.35313555 19.08370868 5.70833668 19.0625 8.0625 C19.05347656 9.35285156 19.04445312 10.64320313 19.03515625 11.97265625 C19.02355469 12.97167969 19.01195312 13.97070312 19 15 C18.67 15 18.34 15 18 15 C17.505 8.565 17.505 8.565 17 2 C11.39 1.67 5.78 1.34 0 1 C0 0.67 0 0.34 0 0 Z " fill="#FFFFFF" transform="translate(154,129)"/>
<path d="M0 0 C0.33 0 0.66 0 1 0 C1.07329796 4.39787789 1.07396066 7.70415737 0 12 C-6.6 12 -13.2 12 -20 12 C-20 11.67 -20 11.34 -20 11 C-13.73 11 -7.46 11 -1 11 C-0.67 7.37 -0.34 3.74 0 0 Z " fill="#FFFFFF" transform="translate(166,173)"/>
<path d="M0 0 C0 0.33 0 0.66 0 1 C-8.91 1 -17.82 1 -27 1 C-27 0.67 -27 0.34 -27 0 C-18.14065276 -1.64825065 -8.85934724 -1.64825065 0 0 Z " fill="#FFFFFF" transform="translate(278,161)"/>
<path d="M0 0 C2.87976211 4.31964317 3.15856275 7.33875599 3.1875 12.4375 C3.20167969 13.57058594 3.21585938 14.70367187 3.23046875 15.87109375 C3.00939062 18.87251041 2.68579603 20.53885527 1 23 C-1.125 23.75 -1.125 23.75 -3 24 C-2.525625 23.566875 -2.05125 23.13375 -1.5625 22.6875 C2.3072778 18.50813997 1.19224396 12.31628497 1 7 C0.76433117 4.63112189 0.41702079 2.34574194 0 0 Z " fill="#FFFFFF" transform="translate(142,47)"/>
<path d="M0 0 C0.66 0.66 1.32 1.32 2 2 C2.33 1.34 2.66 0.68 3 0 C3.66 0 4.32 0 5 0 C5.33 2.64 5.66 5.28 6 8 C7.98 8 9.96 8 12 8 C12 8.33 12 8.66 12 9 C9.69 9 7.38 9 5 9 C4.34 7.35 3.68 5.7 3 4 C2.01 4.33 1.02 4.66 0 5 C0 3.35 0 1.7 0 0 Z " fill="#FFFFFF" transform="translate(143,159)"/>
<path d="M0 0 C0.33 2.64 0.66 5.28 1 8 C-0.65 8.33 -2.3 8.66 -4 9 C-5.25664978 6.09399739 -6 4.20395416 -6 1 C-3 0 -3 0 0 0 Z M-5 3 C-4.34 4.32 -3.68 5.64 -3 7 C-2.01 6.67 -1.02 6.34 0 6 C-0.33 4.35 -0.66 2.7 -1 1 C-2.46225016 0.90754997 -2.46225016 0.90754997 -5 3 Z " fill="#FFFFFF" transform="translate(108,56)"/>
<path d="M0 0 C0.66 -0.33 1.32 -0.66 2 -1 C4.3329866 -1.04022391 6.66706666 -1.04320247 9 -1 C9 -0.67 9 -0.34 9 0 C2.24112575 2.07965362 -3.95559921 2.21133202 -11 2 C-8.73343344 -2.53313311 -4.17500061 -0.60727282 0 0 Z " fill="#FFFFFF" transform="translate(311,160)"/>
<path d="M0 0 C5.07866777 -0.31741674 8.45080139 0.39182042 13.1328125 2.33203125 C15.48129457 3.1721786 17.5289414 3.23166174 20 3 C19.67 3.66 19.34 4.32 19 5 C14.86811552 5.24305203 11.89092674 4.32291509 8 3 C6.1128125 2.7525 6.1128125 2.7525 4.1875 2.5 C3.135625 2.335 2.08375 2.17 1 2 C0.67 1.34 0.34 0.68 0 0 Z " fill="#FFFFFF" transform="translate(209,137)"/>
<path d="M0 0 C8.58 0 17.16 0 26 0 C26 0.33 26 0.66 26 1 C17.42 1 8.84 1 0 1 C0 0.67 0 0.34 0 0 Z " fill="#FFFFFF" transform="translate(129,173)"/>
<path d="M0 0 C10.395 0.99 10.395 0.99 21 2 C21 2.33 21 2.66 21 3 C13.6094524 3.14715692 6.35575165 2.70776992 -1 2 C-0.67 1.34 -0.34 0.68 0 0 Z " fill="#FFFFFF" transform="translate(305,180)"/>
<path d="M0 0 C-6.61809577 2.46254726 -13.00439516 2.18935472 -20 2 C-19.67 1.34 -19.34 0.68 -19 0 C-17.87851562 0.01740234 -17.87851562 0.01740234 -16.734375 0.03515625 C-15.74953125 0.04417969 -14.7646875 0.05320313 -13.75 0.0625 C-12.77546875 0.07410156 -11.8009375 0.08570313 -10.796875 0.09765625 C-0.78387458 -0.25195969 -0.78387458 -0.25195969 0 0 Z " fill="#FFFFFF" transform="translate(325,170)"/>
<path d="M0 0 C0.33 0.99 0.66 1.98 1 3 C1.886875 2.505 2.77375 2.01 3.6875 1.5 C6.87586238 0.05621326 8.58187546 -0.30159922 12 0 C12.33 0.99 12.66 1.98 13 3 C12.34 3 11.68 3 11 3 C11 2.34 11 1.68 11 1 C9.989375 1.515625 8.97875 2.03125 7.9375 2.5625 C4.0413371 4.26408951 1.15707428 3.93322076 -3 3 C-2.01 2.01 -1.02 1.02 0 0 Z " fill="#FFFFFF" transform="translate(65,32)"/>
<path d="M0 0 C6.6 0 13.2 0 20 0 C20 0.66 20 1.32 20 2 C13.4 2 6.8 2 0 2 C0 1.34 0 0.68 0 0 Z " fill="#FFFFFF" transform="translate(303,175)"/>
<path d="M0 0 C-1.54950268 1.54950268 -3.09990594 1.21655193 -5.25390625 1.31640625 C-6.10791016 1.35830078 -6.96191406 1.40019531 -7.84179688 1.44335938 C-8.73962891 1.48267578 -9.63746094 1.52199219 -10.5625 1.5625 C-11.46419922 1.60568359 -12.36589844 1.64886719 -13.29492188 1.69335938 C-15.52978485 1.79978142 -17.76476308 1.90179988 -20 2 C-16.23380809 -0.04657521 -13.17103202 -0.41395308 -8.875 -0.6875 C-7.63492187 -0.77386719 -6.39484375 -0.86023438 -5.1171875 -0.94921875 C-2 -1 -2 -1 0 0 Z " fill="#FFFFFF" transform="translate(273,168)"/>
<path d="M0 0 C2.40672398 2.40672398 2.79132175 4.11378549 3.6875 7.375 C4.09548828 8.80972656 4.09548828 8.80972656 4.51171875 10.2734375 C4.9947433 12.97064661 4.9004538 14.44972144 4 17 C3.32844651 14.73050898 2.6626037 12.4596039 2 10.1875 C1.443125 8.29064453 1.443125 8.29064453 0.875 6.35546875 C0 3 0 3 0 0 Z " fill="#FFFFFF" transform="translate(302,33)"/>
<path d="M0 0 C-0.33 0.66 -0.66 1.32 -1 2 C-6.28 2 -11.56 2 -17 2 C-17 1.67 -17 1.34 -17 1 C-11.33357449 -0.22517308 -5.76291482 -0.09228867 0 0 Z " fill="#FFFFFF" transform="translate(319,164)"/>
<path d="M0 0 C0.33 0 0.66 0 1 0 C1 5.61 1 11.22 1 17 C-0.32 16.67 -1.64 16.34 -3 16 C-2.01 16 -1.02 16 0 16 C0 10.72 0 5.44 0 0 Z " fill="#FFFFFF" transform="translate(310,70)"/>
<path d="M0 0 C5.94 0 11.88 0 18 0 C18 0.33 18 0.66 18 1 C12.06 1 6.12 1 0 1 C0 0.67 0 0.34 0 0 Z " fill="#FFFFFF" transform="translate(264,189)"/>
<path d="M0 0 C5.94 0 11.88 0 18 0 C18 0.33 18 0.66 18 1 C12.06 1 6.12 1 0 1 C0 0.67 0 0.34 0 0 Z " fill="#FFFFFF" transform="translate(254,174)"/>
<path d="M0 0 C-0.33 0.99 -0.66 1.98 -1 3 C-2.65 3.33 -4.3 3.66 -6 4 C-6.33 3.01 -6.66 2.02 -7 1 C-4 0 -4 0 0 0 Z " fill="#FFFFFF" transform="translate(119,57)"/>
<path d="M0 0 C5.28 0 10.56 0 16 0 C16 0.33 16 0.66 16 1 C10.72 1 5.44 1 0 1 C0 0.67 0 0.34 0 0 Z " fill="#FFFFFF" transform="translate(94,177)"/>
<path d="M0 0 C5.28 0 10.56 0 16 0 C16 0.33 16 0.66 16 1 C10.72 1 5.44 1 0 1 C0 0.67 0 0.34 0 0 Z " fill="#FFFFFF" transform="translate(225,30)"/>
<path d="M0 0 C0.33 0 0.66 0 1 0 C1 4.95 1 9.9 1 15 C0.67 15 0.34 15 0 15 C0 10.05 0 5.1 0 0 Z " fill="#FFFFFF" transform="translate(71,140)"/>
<path d="M0 0 C4.29 0.33 8.58 0.66 13 1 C13 1.33 13 1.66 13 2 C11.58376784 2.05447047 10.16691809 2.09300508 8.75 2.125 C7.96109375 2.14820313 7.1721875 2.17140625 6.359375 2.1953125 C4 2 4 2 0 0 Z " fill="#FFFFFF" transform="translate(128,181)"/>
<path d="M0 0 C3.96 0 7.92 0 12 0 C11.67 0.66 11.34 1.32 11 2 C7.37 1.67 3.74 1.34 0 1 C0 0.67 0 0.34 0 0 Z " fill="#FFFFFF" transform="translate(311,148)"/>
<path d="M0 0 C4.29 0 8.58 0 13 0 C13 0.33 13 0.66 13 1 C8.71 1 4.42 1 0 1 C0 0.67 0 0.34 0 0 Z " fill="#FFFFFF" transform="translate(217,147)"/>
<path d="M0 0 C4.29 0 8.58 0 13 0 C13 0.33 13 0.66 13 1 C8.71 1 4.42 1 0 1 C0 0.67 0 0.34 0 0 Z " fill="#FFFFFF" transform="translate(223,134)"/>
<path d="M0 0 C4.29 0 8.58 0 13 0 C13 0.33 13 0.66 13 1 C8.71 1 4.42 1 0 1 C0 0.67 0 0.34 0 0 Z " fill="#FFFFFF" transform="translate(294,87)"/>
<path d="M0 0 C0.66 0.33 1.32 0.66 2 1 C-0.25 3.0625 -0.25 3.0625 -3 5 C-5.3125 4.75 -5.3125 4.75 -7 4 C-1.7265625 0.77734375 -1.7265625 0.77734375 0 0 Z " fill="#FFFFFF" transform="translate(129,67)"/>
<path d="M0 0 C4.16138263 -0.08159574 7.9472484 0.01751476 12 1 C12 1.33 12 1.66 12 2 C8.04 1.67 4.08 1.34 0 1 C0 0.67 0 0.34 0 0 Z " fill="#FFFFFF" transform="translate(197,26)"/>
<path d="M0 0 C3.63 0.33 7.26 0.66 11 1 C11 1.33 11 1.66 11 2 C6.39790775 2.17700355 4.21629134 2.10814567 0 0 Z " fill="#FFFFFF" transform="translate(117,179)"/>
<path d="M0 0 C3.63 0.33 7.26 0.66 11 1 C11 1.33 11 1.66 11 2 C7.37 1.67 3.74 1.34 0 1 C0 0.67 0 0.34 0 0 Z " fill="#FFFFFF" transform="translate(230,148)"/>
<path d="M0 0 C3.96 0 7.92 0 12 0 C12 0.33 12 0.66 12 1 C8.04 1 4.08 1 0 1 C0 0.67 0 0.34 0 0 Z " fill="#FFFFFF" transform="translate(205,146)"/>
<path d="M0 0 C0.66 0.33 1.32 0.66 2 1 C-0.3125 3.0625 -0.3125 3.0625 -3 5 C-3.99 4.67 -4.98 4.34 -6 4 C-4.02 2.68 -2.04 1.36 0 0 Z " fill="#FFFFFF" transform="translate(137,71)"/>
<path d="M0 0 C1.98953324 1.98953324 2.97746933 3.40434522 4 6 C3.67 6.99 3.34 7.98 3 9 C0 3.375 0 3.375 0 0 Z " fill="#FFFFFF" transform="translate(89,56)"/>
<path d="M0 0 C2.64 0.33 5.28 0.66 8 1 C8 1.66 8 2.32 8 3 C2.25 3.125 2.25 3.125 0 2 C0 1.34 0 0.68 0 0 Z " fill="#FFFFFF" transform="translate(275,142)"/>
<path d="M0 0 C2.64 0.33 5.28 0.66 8 1 C7.67 1.66 7.34 2.32 7 3 C4.69 2.67 2.38 2.34 0 2 C0 1.34 0 0.68 0 0 Z " fill="#FFFFFF" transform="translate(255,141)"/>
<path d="M0 0 C3.63 0 7.26 0 11 0 C11 0.33 11 0.66 11 1 C7.37 1 3.74 1 0 1 C0 0.67 0 0.34 0 0 Z " fill="#FFFFFF" transform="translate(143,130)"/>
<path d="M0 0 C3.63 0 7.26 0 11 0 C11 0.33 11 0.66 11 1 C7.37 1 3.74 1 0 1 C0 0.67 0 0.34 0 0 Z " fill="#FFFFFF" transform="translate(267,84)"/>
<path d="M0 0 C3.3 0 6.6 0 10 0 C10 0.33 10 0.66 10 1 C6.7 1 3.4 1 0 1 C0 0.67 0 0.34 0 0 Z " fill="#FFFFFF" transform="translate(204,187)"/>
<path d="M0 0 C0.95904856 3.83619425 0.91892116 5.32431536 0 9 C-0.33 9 -0.66 9 -1 9 C-0.67 6.03 -0.34 3.06 0 0 Z " fill="#FFFFFF" transform="translate(168,164)"/>
<path d="M0 0 C1.9451 2.91765 2.45276317 4.62537285 3 8 C2.34 7.67 1.68 7.34 1 7 C0.59270772 4.67843403 0.25561323 2.3431213 0 0 Z " fill="#FFFFFF" transform="translate(67,77)"/>
<path d="M0 0 C2.50037734 2.17424117 3.43628586 3.73045798 4 7 C1.49962266 4.82575883 0.56371414 3.26954202 0 0 Z " fill="#FFFFFF" transform="translate(124,13)"/>
<path d="M0 0 C0.33 0 0.66 0 1 0 C1 2.97 1 5.94 1 9 C0.67 9 0.34 9 0 9 C0 6.03 0 3.06 0 0 Z " fill="#FFFFFF" transform="translate(171,144)"/>
<path d="M0 0 C2.97 0 5.94 0 9 0 C9 0.33 9 0.66 9 1 C6.03 1 3.06 1 0 1 C0 0.67 0 0.34 0 0 Z " fill="#FFFFFF" transform="translate(297,141)"/>
<path d="M0 0 C2.97 0 5.94 0 9 0 C9 0.33 9 0.66 9 1 C6.03 1 3.06 1 0 1 C0 0.67 0 0.34 0 0 Z " fill="#FFFFFF" transform="translate(99,130)"/>
<path d="M0 0 C2.97 0 5.94 0 9 0 C9 0.33 9 0.66 9 1 C6.03 1 3.06 1 0 1 C0 0.67 0 0.34 0 0 Z " fill="#FFFFFF" transform="translate(250,82)"/>
<path d="M0 0 C0.33 0 0.66 0 1 0 C1 2.97 1 5.94 1 9 C0.67 9 0.34 9 0 9 C0 6.03 0 3.06 0 0 Z " fill="#FFFFFF" transform="translate(309,61)"/>
<path d="M0 0 C0.33 0.66 0.66 1.32 1 2 C0.01 2.66 -0.98 3.32 -2 4 C-2.99 3.67 -3.98 3.34 -5 3 C-3.35 2.01 -1.7 1.02 0 0 Z " fill="#FFFFFF" transform="translate(61,35)"/>
<path d="M0 0 C1.98 0.495 1.98 0.495 4 1 C3.01 1.33 2.02 1.66 1 2 C0.01 3.485 0.01 3.485 -1 5 C-0.67 3.35 -0.34 1.7 0 0 Z " fill="#FFFFFF" transform="translate(23,36)"/>
<path d="M0 0 C2.97 0 5.94 0 9 0 C9 0.33 9 0.66 9 1 C6.03 1 3.06 1 0 1 C0 0.67 0 0.34 0 0 Z " fill="#FFFFFF" transform="translate(216,29)"/>
<path d="M0 0 C1.5 1.375 1.5 1.375 3 3 C3 3.66 3 4.32 3 5 C2.34 5 1.68 5 1 5 C0.67 3.35 0.34 1.7 0 0 Z " fill="#FFFFFF" transform="translate(52,109)"/>
<path d="M0 0 C-1.8125 1.0625 -1.8125 1.0625 -4 2 C-4.99 1.67 -5.98 1.34 -7 1 C-4.53721199 -0.231394 -2.7204945 -0.07159196 0 0 Z " fill="#FFFFFF" transform="translate(59,105)"/>
<path d="M0 0 C2.64 0 5.28 0 8 0 C8 0.33 8 0.66 8 1 C5.36 1 2.72 1 0 1 C0 0.67 0 0.34 0 0 Z " fill="#FFFFFF" transform="translate(286,86)"/>
<path d="M0 0 C2.64 0 5.28 0 8 0 C8 0.33 8 0.66 8 1 C5.36 1 2.72 1 0 1 C0 0.67 0 0.34 0 0 Z " fill="#FFFFFF" transform="translate(278,85)"/>
<path d="M0 0 C2.64 0 5.28 0 8 0 C8 0.33 8 0.66 8 1 C5.36 1 2.72 1 0 1 C0 0.67 0 0.34 0 0 Z " fill="#FFFFFF" transform="translate(259,83)"/>
<path d="M0 0 C2.64 0 5.28 0 8 0 C8 0.33 8 0.66 8 1 C5.36 1 2.72 1 0 1 C0 0.67 0 0.34 0 0 Z " fill="#FFFFFF" transform="translate(242,81)"/>
<path d="M0 0 C2.64 0 5.28 0 8 0 C8 0.33 8 0.66 8 1 C5.36 1 2.72 1 0 1 C0 0.67 0 0.34 0 0 Z " fill="#FFFFFF" transform="translate(234,80)"/>
<path d="M0 0 C0.99 1.32 1.98 2.64 3 4 C2.67 4.66 2.34 5.32 2 6 C0 3 0 3 0 0 Z " fill="#FFFFFF" transform="translate(139,41)"/>
<path d="M0 0 C-0.33 0.99 -0.66 1.98 -1 3 C-2.32 2.34 -3.64 1.68 -5 1 C-3 0 -3 0 0 0 Z " fill="#FFFFFF" transform="translate(124,10)"/>
<path d="M0 0 C2.31 0 4.62 0 7 0 C7 0.33 7 0.66 7 1 C4.69 1 2.38 1 0 1 C0 0.67 0 0.34 0 0 Z " fill="#FFFFFF" transform="translate(110,178)"/>
<path d="M0 0 C2.31 0 4.62 0 7 0 C7 0.33 7 0.66 7 1 C4.69 1 2.38 1 0 1 C0 0.67 0 0.34 0 0 Z " fill="#FFFFFF" transform="translate(304,145)"/>
<path d="M0 0 C2.31 0 4.62 0 7 0 C7 0.33 7 0.66 7 1 C4.69 1 2.38 1 0 1 C0 0.67 0 0.34 0 0 Z " fill="#FFFFFF" transform="translate(227,79)"/>
<path d="M0 0 C2.475 0.99 2.475 0.99 5 2 C4.01 2.495 4.01 2.495 3 3 C2.01 2.01 1.02 1.02 0 0 Z " fill="#FFFFFF" transform="translate(48,70)"/>
<path d="M0 0 C2.31 0 4.62 0 7 0 C7 0.33 7 0.66 7 1 C4.69 1 2.38 1 0 1 C0 0.67 0 0.34 0 0 Z " fill="#FFFFFF" transform="translate(209,28)"/>
<path d="M0 0 C0.99 0.33 1.98 0.66 3 1 C1.02 1.33 -0.96 1.66 -3 2 C-2.01 1.34 -1.02 0.68 0 0 Z " fill="#FFFFFF" transform="translate(116,12)"/>
<path d="M0 0 C0.33 0 0.66 0 1 0 C1 1.98 1 3.96 1 6 C0.67 6 0.34 6 0 6 C0 4.02 0 2.04 0 0 Z " fill="#FFFFFF" transform="translate(169,158)"/>
<path d="M0 0 C0.33 0 0.66 0 1 0 C1 1.98 1 3.96 1 6 C0.67 6 0.34 6 0 6 C0 4.02 0 2.04 0 0 Z " fill="#FFFFFF" transform="translate(70,155)"/>
<path d="M0 0 C1.65 0 3.3 0 5 0 C3.02 0.99 3.02 0.99 1 2 C0.67 1.34 0.34 0.68 0 0 Z " fill="#FFFFFF" transform="translate(269,143)"/>
<path d="M0 0 C1.98 0 3.96 0 6 0 C6 0.33 6 0.66 6 1 C4.02 1 2.04 1 0 1 C0 0.67 0 0.34 0 0 Z " fill="#FFFFFF" transform="translate(88,128)"/>
<path d="M0 0 C2.475 0.495 2.475 0.495 5 1 C4.01 1.33 3.02 1.66 2 2 C1.34 1.34 0.68 0.68 0 0 Z " fill="#FFFFFF" transform="translate(53,73)"/>
<path d="M0 0 C0.33 0 0.66 0 1 0 C1 1.98 1 3.96 1 6 C0.67 6 0.34 6 0 6 C0 4.02 0 2.04 0 0 Z " fill="#FFFFFF" transform="translate(307,50)"/>
<path d="M0 0 C1.98 0 3.96 0 6 0 C6 0.33 6 0.66 6 1 C4.02 1 2.04 1 0 1 C0 0.67 0 0.34 0 0 Z " fill="#FFFFFF" transform="translate(37,32)"/>
<path d="M0 0 C1.98 0 3.96 0 6 0 C6 0.33 6 0.66 6 1 C4.02 1 2.04 1 0 1 C0 0.67 0 0.34 0 0 Z " fill="#FFFFFF" transform="translate(188,24)"/>
<path d="M0 0 C1.98 0 3.96 0 6 0 C6 0.33 6 0.66 6 1 C4.02 1 2.04 1 0 1 C0 0.67 0 0.34 0 0 Z " fill="#FFFFFF" transform="translate(92,19)"/>
<path d="M0 0 C1.65 0 3.3 0 5 0 C5 0.33 5 0.66 5 1 C3.35 1 1.7 1 0 1 C0 0.67 0 0.34 0 0 Z " fill="#FFFFFF" transform="translate(141,183)"/>
<path d="M0 0 C0.33 0 0.66 0 1 0 C1 1.65 1 3.3 1 5 C0.67 5 0.34 5 0 5 C0 3.35 0 1.7 0 0 Z " fill="#FFFFFF" transform="translate(245,172)"/>
<path d="M0 0 C1.65 0 3.3 0 5 0 C5 0.33 5 0.66 5 1 C3.35 1 1.7 1 0 1 C0 0.67 0 0.34 0 0 Z " fill="#FFFFFF" transform="translate(124,172)"/>
<path d="M0 0 C0.33 0 0.66 0 1 0 C1 1.65 1 3.3 1 5 C0.67 5 0.34 5 0 5 C0 3.35 0 1.7 0 0 Z " fill="#FFFFFF" transform="translate(69,161)"/>
<path d="M0 0 C0.33 0 0.66 0 1 0 C1 1.65 1 3.3 1 5 C0.67 5 0.34 5 0 5 C0 3.35 0 1.7 0 0 Z " fill="#FFFFFF" transform="translate(170,153)"/>
<path d="M0 0 C1.65 0 3.3 0 5 0 C5 0.33 5 0.66 5 1 C3.35 1 1.7 1 0 1 C0 0.67 0 0.34 0 0 Z " fill="#FFFFFF" transform="translate(324,150)"/>
<path d="M0 0 C1.65 0 3.3 0 5 0 C5 0.33 5 0.66 5 1 C3.35 1 1.7 1 0 1 C0 0.67 0 0.34 0 0 Z " fill="#FFFFFF" transform="translate(94,129)"/>
<path d="M0 0 C0.33 0 0.66 0 1 0 C1 1.65 1 3.3 1 5 C0.67 5 0.34 5 0 5 C0 3.35 0 1.7 0 0 Z " fill="#FFFFFF" transform="translate(308,56)"/>
<path d="M0 0 C1.65 0 3.3 0 5 0 C5 0.33 5 0.66 5 1 C3.35 1 1.7 1 0 1 C0 0.67 0 0.34 0 0 Z " fill="#FFFFFF" transform="translate(30,34)"/>
<path d="M0 0 C1.65 0 3.3 0 5 0 C5 0.33 5 0.66 5 1 C3.35 1 1.7 1 0 1 C0 0.67 0 0.34 0 0 Z " fill="#FFFFFF" transform="translate(47,30)"/>
<path d="M0 0 C1.65 0 3.3 0 5 0 C5 0.33 5 0.66 5 1 C3.35 1 1.7 1 0 1 C0 0.67 0 0.34 0 0 Z " fill="#FFFFFF" transform="translate(52,29)"/>
<path d="M0 0 C1.65 0 3.3 0 5 0 C5 0.33 5 0.66 5 1 C3.35 1 1.7 1 0 1 C0 0.67 0 0.34 0 0 Z " fill="#FFFFFF" transform="translate(57,28)"/>
<path d="M0 0 C1.65 0 3.3 0 5 0 C5 0.33 5 0.66 5 1 C3.35 1 1.7 1 0 1 C0 0.67 0 0.34 0 0 Z " fill="#FFFFFF" transform="translate(62,27)"/>
<path d="M0 0 C1.65 0 3.3 0 5 0 C5 0.33 5 0.66 5 1 C3.35 1 1.7 1 0 1 C0 0.67 0 0.34 0 0 Z " fill="#FFFFFF" transform="translate(106,15)"/>
<path d="M0 0 C1 4 1 4 1 4 Z " fill="#FFFFFF" transform="translate(46,93)"/>
<path d="M0 0 C1 4 1 4 1 4 Z " fill="#FFFFFF" transform="translate(42,82)"/>
<path d="M0 0 C4 1 4 1 4 1 Z " fill="#FFFFFF" transform="translate(117,80)"/>
<path d="M0 0 C0.99 0.495 0.99 0.495 2 1 C1.67 1.66 1.34 2.32 1 3 C0.67 2.01 0.34 1.02 0 0 Z " fill="#FFFFFF" transform="translate(137,38)"/>
<path d="M0 0 C4 1 4 1 4 1 Z " fill="#FFFFFF" transform="translate(43,31)"/>
<path d="M0 0 C4 1 4 1 4 1 Z " fill="#FFFFFF" transform="translate(67,26)"/>
<path d="M0 0 C4 1 4 1 4 1 Z " fill="#FFFFFF" transform="translate(71,25)"/>
<path d="M0 0 C4 1 4 1 4 1 Z " fill="#FFFFFF" transform="translate(75,24)"/>
<path d="M0 0 C4 1 4 1 4 1 Z " fill="#FFFFFF" transform="translate(88,20)"/>
<path d="M0 0 C4 1 4 1 4 1 Z " fill="#FFFFFF" transform="translate(99,17)"/>
<path d="M0 0 C3 1 3 1 3 1 Z " fill="#FFFFFF" transform="translate(85,127)"/>
<path d="" fill="#FFFFFF" transform="translate(0,0)"/>
<path d="M0 0 C3 1 3 1 3 1 Z " fill="#FFFFFF" transform="translate(59,104)"/>
<path d="M0 0 C3 1 3 1 3 1 Z " fill="#FFFFFF" transform="translate(62,103)"/>
<path d="M0 0 C3 1 3 1 3 1 Z " fill="#FFFFFF" transform="translate(67,101)"/>
<path d="M0 0 C3 1 3 1 3 1 Z " fill="#FFFFFF" transform="translate(70,100)"/>
<path d="" fill="#FFFFFF" transform="translate(0,0)"/>
<path d="M0 0 C3 1 3 1 3 1 Z " fill="#FFFFFF" transform="translate(75,98)"/>
<path d="M0 0 C3 1 3 1 3 1 Z " fill="#FFFFFF" transform="translate(80,96)"/>
<path d="M0 0 C3 1 3 1 3 1 Z " fill="#FFFFFF" transform="translate(87,93)"/>
<path d="M0 0 C3 1 3 1 3 1 Z " fill="#FFFFFF" transform="translate(91,91)"/>
<path d="" fill="#FFFFFF" transform="translate(0,0)"/>
<path d="M0 0 C3 1 3 1 3 1 Z " fill="#FFFFFF" transform="translate(94,90)"/>
<path d="M0 0 C3 1 3 1 3 1 Z " fill="#FFFFFF" transform="translate(98,88)"/>
<path d="M0 0 C3 1 3 1 3 1 Z " fill="#FFFFFF" transform="translate(102,86)"/>
<path d="M0 0 C3 1 3 1 3 1 Z " fill="#FFFFFF" transform="translate(109,83)"/>
<path d="M0 0 C3 1 3 1 3 1 Z " fill="#FFFFFF" transform="translate(112,82)"/>
<path d="M0 0 C3 1 3 1 3 1 Z " fill="#FFFFFF" transform="translate(123,78)"/>
<path d="" fill="#FFFFFF" transform="translate(0,0)"/>
<path d="M0 0 C3 1 3 1 3 1 Z " fill="#FFFFFF" transform="translate(128,76)"/>
<path d="" fill="#FFFFFF" transform="translate(0,0)"/>
<path d="" fill="#FFFFFF" transform="translate(0,0)"/>
<path d="" fill="#FFFFFF" transform="translate(0,0)"/>
<path d="" fill="#FFFFFF" transform="translate(0,0)"/>
<path d="M0 0 C3 1 3 1 3 1 Z " fill="#FFFFFF" transform="translate(27,35)"/>
<path d="" fill="#FFFFFF" transform="translate(0,0)"/>
<path d="M0 0 C3 1 3 1 3 1 Z " fill="#FFFFFF" transform="translate(194,25)"/>
<path d="M0 0 C3 1 3 1 3 1 Z " fill="#FFFFFF" transform="translate(79,23)"/>
<path d="M0 0 C3 1 3 1 3 1 Z " fill="#FFFFFF" transform="translate(82,22)"/>
<path d="" fill="#FFFFFF" transform="translate(0,0)"/>
<path d="M0 0 C3 1 3 1 3 1 Z " fill="#FFFFFF" transform="translate(85,21)"/>
<path d="M0 0 C3 1 3 1 3 1 Z " fill="#FFFFFF" transform="translate(103,16)"/>
<path d="M0 0 C2 1 2 1 2 1 Z " fill="#FFFFFF" transform="translate(83,126)"/>
<path d="" fill="#FFFFFF" transform="translate(0,0)"/>
<path d="" fill="#FFFFFF" transform="translate(0,0)"/>
<path d="M0 0 C2 1 2 1 2 1 Z " fill="#FFFFFF" transform="translate(65,102)"/>
<path d="M0 0 C2 1 2 1 2 1 Z " fill="#FFFFFF" transform="translate(73,99)"/>
<path d="" fill="#FFFFFF" transform="translate(0,0)"/>
<path d="M0 0 C2 1 2 1 2 1 Z " fill="#FFFFFF" transform="translate(78,97)"/>
<path d="M0 0 C2 1 2 1 2 1 Z " fill="#FFFFFF" transform="translate(83,95)"/>
<path d="M0 0 C2 1 2 1 2 1 Z " fill="#FFFFFF" transform="translate(85,94)"/>
<path d="" fill="#FFFFFF" transform="translate(0,0)"/>
<path d="" fill="#FFFFFF" transform="translate(0,0)"/>
<path d="M0 0 C2 1 2 1 2 1 Z " fill="#FFFFFF" transform="translate(105,85)"/>
<path d="M0 0 C2 1 2 1 2 1 Z " fill="#FFFFFF" transform="translate(107,84)"/>
<path d="M0 0 C2 1 2 1 2 1 Z " fill="#FFFFFF" transform="translate(115,81)"/>
<path d="" fill="#FFFFFF" transform="translate(0,0)"/>
<path d="M0 0 C2 1 2 1 2 1 Z " fill="#FFFFFF" transform="translate(121,79)"/>
<path d="M0 0 C2 1 2 1 2 1 Z " fill="#FFFFFF" transform="translate(126,77)"/>
<path d="" fill="#FFFFFF" transform="translate(0,0)"/>
<path d="" fill="#FFFFFF" transform="translate(0,0)"/>
<path d="" fill="#FFFFFF" transform="translate(0,0)"/>
<path d="" fill="#FFFFFF" transform="translate(0,0)"/>
<path d="" fill="#FFFFFF" transform="translate(0,0)"/>
<path d="" fill="#FFFFFF" transform="translate(0,0)"/>
<path d="" fill="#FFFFFF" transform="translate(0,0)"/>
<path d="" fill="#FFFFFF" transform="translate(0,0)"/>
<path d="" fill="#FFFFFF" transform="translate(0,0)"/>
<path d="" fill="#FFFFFF" transform="translate(0,0)"/>
<path d="" fill="#FFFFFF" transform="translate(0,0)"/>
<path d="" fill="#FFFFFF" transform="translate(0,0)"/>
<path d="" fill="#FFFFFF" transform="translate(0,0)"/>
<path d="" fill="#FFFFFF" transform="translate(0,0)"/>
<path d="" fill="#FFFFFF" transform="translate(0,0)"/>
<path d="M0 0 C2 1 2 1 2 1 Z " fill="#FFFFFF" transform="translate(54,39)"/>
<path d="" fill="#FFFFFF" transform="translate(0,0)"/>
<path d="" fill="#FFFFFF" transform="translate(0,0)"/>
<path d="M0 0 C2 1 2 1 2 1 Z " fill="#FFFFFF" transform="translate(35,33)"/>
<path d="" fill="#FFFFFF" transform="translate(0,0)"/>
<path d="" fill="#FFFFFF" transform="translate(0,0)"/>
<path d="" fill="#FFFFFF" transform="translate(0,0)"/>
<path d="M0 0 C2 1 2 1 2 1 Z " fill="#FFFFFF" transform="translate(111,14)"/>
<path d="" fill="#FFFFFF" transform="translate(0,0)"/>
<path d="" fill="#FFFFFF" transform="translate(0,0)"/>
<path d="" fill="#FFFFFF" transform="translate(0,0)"/>
<path d="" fill="#FFFFFF" transform="translate(0,0)"/>
<path d="" fill="#FFFFFF" transform="translate(0,0)"/>
<path d="" fill="#FFFFFF" transform="translate(0,0)"/>
<path d="" fill="#FFFFFF" transform="translate(0,0)"/>
</svg>
