<?xml version="1.0" encoding="UTF-8"?>
<svg version="1.1" xmlns="http://www.w3.org/2000/svg" width="350" height="230">
<path d="M0 0 C3.90195446 1.45220566 7.70932009 2.31613668 11.8125 3 C12.39 3.20625 12.9675 3.4125 13.5625 3.625 C14.0575 5.11 14.0575 5.11 14.5625 6.625 C16.42272072 7.85777127 16.42272072 7.85777127 18.625 8.8125 C19.72521484 9.32876953 19.72521484 9.32876953 20.84765625 9.85546875 C21.41355469 10.10941406 21.97945313 10.36335938 22.5625 10.625 C22.5625 11.285 22.5625 11.945 22.5625 12.625 C21.5725 12.625 20.5825 12.625 19.5625 12.625 C19.2325 13.285 18.9025 13.945 18.5625 14.625 C18.5625 13.965 18.5625 13.305 18.5625 12.625 C17.2425 12.955 15.9225 13.285 14.5625 13.625 C15.490625 14.0375 16.41875 14.45 17.375 14.875 C20.50543868 16.59367222 21.71439887 17.6680382 23.5625 20.625 C24.5525 22.11 24.5525 22.11 25.5625 23.625 C25.64155064 25.95699388 25.65048769 28.29332622 25.5625 30.625 C26.8825 30.625 28.2025 30.625 29.5625 30.625 C29.5625 31.285 29.5625 31.945 29.5625 32.625 C28.5725 33.12 28.5725 33.12 27.5625 33.625 C27.67612262 35.1050841 27.80372908 36.58410074 27.9375 38.0625 C28.00710938 38.88621094 28.07671875 39.70992187 28.1484375 40.55859375 C28.35339844 41.58146484 28.35339844 41.58146484 28.5625 42.625 C29.2225 42.955 29.8825 43.285 30.5625 43.625 C29.9025 43.625 29.2425 43.625 28.5625 43.625 C28.5625 46.925 28.5625 50.225 28.5625 53.625 C27.0775 52.635 27.0775 52.635 25.5625 51.625 C25.16160156 52.14449219 24.76070313 52.66398437 24.34765625 53.19921875 C20.19370895 58.29510421 15.86786908 62.38879352 9.5625 64.625 C8.5725 64.295 7.5825 63.965 6.5625 63.625 C7.28695312 63.27308594 8.01140625 62.92117187 8.7578125 62.55859375 C17.55349367 58.15627215 17.55349367 58.15627215 23.5625 50.625 C23.27816607 48.45292059 23.27816607 48.45292059 22.5625 46.625 C21.9025 48.935 21.2425 51.245 20.5625 53.625 C18.5825 53.295 16.6025 52.965 14.5625 52.625 C14.789375 51.59375 15.01625 50.5625 15.25 49.5 C15.66797066 44.31716376 14.09549564 41.57072523 10.9375 37.5625 C9.3148832 35.27608541 9.07767345 33.34805964 8.5625 30.625 C7.9025 30.295 7.2425 29.965 6.5625 29.625 C7.2225 29.625 7.8825 29.625 8.5625 29.625 C7.7861068 26.5504644 7.7861068 26.5504644 5.5625 24.625 C5.8925 23.965 6.2225 23.305 6.5625 22.625 C5.2425 21.965 3.9225 21.305 2.5625 20.625 C1.9025 21.285 1.2425 21.945 0.5625 22.625 C0.0675 21.14 0.0675 21.14 -0.4375 19.625 C-2.4175 19.625 -4.3975 19.625 -6.4375 19.625 C-6.4375 18.965 -6.4375 18.305 -6.4375 17.625 C-7.675 17.975625 -8.9125 18.32625 -10.1875 18.6875 C-14.58737327 19.93413076 -17.17631819 19.04539394 -21.4375 17.625 C-25.23816568 17.99280636 -26.94131325 19.86136467 -29.4375 22.625 C-29.4375 21.305 -29.4375 19.985 -29.4375 18.625 C-34.8825 20.11 -34.8825 20.11 -40.4375 21.625 C-40.4375 22.285 -40.4375 22.945 -40.4375 23.625 C-41.035625 23.769375 -41.63375 23.91375 -42.25 24.0625 C-43.99900404 24.5122439 -45.72427023 25.05392341 -47.4375 25.625 C-49.86607143 19.33928571 -49.86607143 19.33928571 -48.4375 15.625 C-47.7775 15.625 -47.1175 15.625 -46.4375 15.625 C-46.4375 14.635 -46.4375 13.645 -46.4375 12.625 C-47.0975 12.295 -47.7575 11.965 -48.4375 11.625 C-47.16784469 10.18645942 -45.89672782 8.74920873 -44.625 7.3125 C-43.91730469 6.51199219 -43.20960938 5.71148437 -42.48046875 4.88671875 C-41.46919922 3.76716797 -41.46919922 3.76716797 -40.4375 2.625 C-39.9528125 2.0371875 -39.468125 1.449375 -38.96875 0.84375 C-36.85012216 -0.84250481 -35.4173011 -0.67846961 -32.75 -0.5625 C-31.53763672 -0.52189453 -31.53763672 -0.52189453 -30.30078125 -0.48046875 C-29.68589844 -0.44566406 -29.07101563 -0.41085938 -28.4375 -0.375 C-28.4375 0.615 -28.4375 1.605 -28.4375 2.625 C-27.3753125 2.33625 -26.313125 2.0475 -25.21875 1.75 C-23.79180151 1.37448724 -22.36471038 0.9995162 -20.9375 0.625 C-20.24140625 0.43421875 -19.5453125 0.2434375 -18.828125 0.046875 C-12.48831448 -1.59677958 -6.27340011 -2.47022772 0 0 Z M-10.4375 -0.375 C-10.4375 -0.045 -10.4375 0.285 -10.4375 0.625 C-8.7875 0.625 -7.1375 0.625 -5.4375 0.625 C-5.4375 0.295 -5.4375 -0.035 -5.4375 -0.375 C-7.0875 -0.375 -8.7375 -0.375 -10.4375 -0.375 Z M-33.4375 0.625 C-33.4375 1.285 -33.4375 1.945 -33.4375 2.625 C-32.1175 2.625 -30.7975 2.625 -29.4375 2.625 C-29.4375 1.965 -29.4375 1.305 -29.4375 0.625 C-30.7575 0.625 -32.0775 0.625 -33.4375 0.625 Z M-36.4375 1.625 C-36.7675 2.285 -37.0975 2.945 -37.4375 3.625 C-36.4475 3.295 -35.4575 2.965 -34.4375 2.625 C-35.0975 2.295 -35.7575 1.965 -36.4375 1.625 Z M-12.4375 1.625 C-12.7675 2.285 -13.0975 2.945 -13.4375 3.625 C-12.4475 3.295 -11.4575 2.965 -10.4375 2.625 C-11.0975 2.295 -11.7575 1.965 -12.4375 1.625 Z M0.5625 2.625 C0.5625 3.285 0.5625 3.945 0.5625 4.625 C2.5425 4.625 4.5225 4.625 6.5625 4.625 C3.74740007 2.3476499 3.74740007 2.3476499 0.5625 2.625 Z M-34.4375 3.625 C-35.4275 5.11 -35.4275 5.11 -36.4375 6.625 C-33.46684491 6.28272428 -33.46684491 6.28272428 -30.4375 5.625 C-30.1075 4.965 -29.7775 4.305 -29.4375 3.625 C-31.85369823 3.37469023 -31.85369823 3.37469023 -34.4375 3.625 Z M-3.4375 3.625 C-4.0975 4.285 -4.7575 4.945 -5.4375 5.625 C-4.1175 5.295 -2.7975 4.965 -1.4375 4.625 C-2.0975 4.295 -2.7575 3.965 -3.4375 3.625 Z M4.5625 5.625 C6.5425 6.615 6.5425 6.615 8.5625 7.625 C9.2225 6.965 9.8825 6.305 10.5625 5.625 C8.5825 5.625 6.6025 5.625 4.5625 5.625 Z M-29.4375 6.625 C-30.73383621 7.69145115 -30.73383621 7.69145115 -30.5 10.1875 C-30.479375 10.991875 -30.45875 11.79625 -30.4375 12.625 C-29.1175 12.295 -27.7975 11.965 -26.4375 11.625 C-26.4375 9.975 -26.4375 8.325 -26.4375 6.625 C-27.4275 6.625 -28.4175 6.625 -29.4375 6.625 Z M-25.4375 6.625 C-25.1075 7.615 -24.7775 8.605 -24.4375 9.625 C-23.7775 8.305 -23.1175 6.985 -22.4375 5.625 C-23.6611068 5.5504644 -23.6611068 5.5504644 -25.4375 6.625 Z M-14.4375 6.625 C-15.4275 8.11 -15.4275 8.11 -16.4375 9.625 C-14.7875 9.625 -13.1375 9.625 -11.4375 9.625 C-12.0975 9.295 -12.7575 8.965 -13.4375 8.625 C-13.7675 7.965 -14.0975 7.305 -14.4375 6.625 Z M-12.4375 6.625 C-12.4375 6.955 -12.4375 7.285 -12.4375 7.625 C-9.7975 7.625 -7.1575 7.625 -4.4375 7.625 C-4.4375 7.295 -4.4375 6.965 -4.4375 6.625 C-7.0775 6.625 -9.7175 6.625 -12.4375 6.625 Z M-41.4375 7.625 C-41.4375 7.955 -41.4375 8.285 -41.4375 8.625 C-39.1275 8.625 -36.8175 8.625 -34.4375 8.625 C-34.4375 8.295 -34.4375 7.965 -34.4375 7.625 C-36.7475 7.625 -39.0575 7.625 -41.4375 7.625 Z M-1.4375 8.625 C-0.4475 10.11 -0.4475 10.11 0.5625 11.625 C0.8925 10.635 1.2225 9.645 1.5625 8.625 C0.5725 8.625 -0.4175 8.625 -1.4375 8.625 Z M5.5625 8.625 C5.8925 9.285 6.2225 9.945 6.5625 10.625 C7.2225 9.965 7.8825 9.305 8.5625 8.625 C7.5725 8.625 6.5825 8.625 5.5625 8.625 Z M6.5625 10.625 C6.5625 10.955 6.5625 11.285 6.5625 11.625 C10.1925 11.625 13.8225 11.625 17.5625 11.625 C17.2325 10.965 16.9025 10.305 16.5625 9.625 C12.57070257 8.29440086 10.29932109 8.80997261 6.5625 10.625 Z M-40.4375 9.625 C-41.0975 10.285 -41.7575 10.945 -42.4375 11.625 C-41.1175 11.295 -39.7975 10.965 -38.4375 10.625 C-39.0975 10.295 -39.7575 9.965 -40.4375 9.625 Z M-20.4375 10.625 C-20.7675 11.615 -21.0975 12.605 -21.4375 13.625 C-18.36507947 15.02596246 -18.36507947 15.02596246 -15.25 13.1875 C-14.321875 12.671875 -13.39375 12.15625 -12.4375 11.625 C-12.4375 11.295 -12.4375 10.965 -12.4375 10.625 C-15.0775 10.625 -17.7175 10.625 -20.4375 10.625 Z M-30.4375 13.625 C-26.4375 14.625 -26.4375 14.625 -26.4375 14.625 Z M-6.4375 13.625 C-6.7675 14.615 -7.0975 15.605 -7.4375 16.625 C-5.4575 16.295 -3.4775 15.965 -1.4375 15.625 C-2.0975 14.965 -2.7575 14.305 -3.4375 13.625 C-4.4275 13.625 -5.4175 13.625 -6.4375 13.625 Z M15.5625 16.625 C15.2325 17.285 14.9025 17.945 14.5625 18.625 C15.2225 18.625 15.8825 18.625 16.5625 18.625 C16.2325 17.965 15.9025 17.305 15.5625 16.625 Z M-40.4375 17.625 C-39.4375 20.625 -39.4375 20.625 -39.4375 20.625 Z M-28.4375 17.625 C-27.4375 19.625 -27.4375 19.625 -27.4375 19.625 Z M-45.4375 20.625 C-46.0975 21.285 -46.7575 21.945 -47.4375 22.625 C-46.4475 22.625 -45.4575 22.625 -44.4375 22.625 C-44.1075 21.965 -43.7775 21.305 -43.4375 20.625 C-44.0975 20.625 -44.7575 20.625 -45.4375 20.625 Z M19.5625 20.625 C19.5625 21.615 19.5625 22.605 19.5625 23.625 C18.5725 24.12 18.5725 24.12 17.5625 24.625 C19.2125 24.625 20.8625 24.625 22.5625 24.625 C21.5725 23.305 20.5825 21.985 19.5625 20.625 Z M9.5625 24.625 C11.0475 25.615 11.0475 25.615 12.5625 26.625 C13.5525 26.295 14.5425 25.965 15.5625 25.625 C12.5925 25.13 12.5925 25.13 9.5625 24.625 Z M17.5625 25.625 C17.5625 26.285 17.5625 26.945 17.5625 27.625 C18.5525 27.625 19.5425 27.625 20.5625 27.625 C20.5625 26.965 20.5625 26.305 20.5625 25.625 C19.5725 25.625 18.5825 25.625 17.5625 25.625 Z M22.5625 25.625 C23.5625 27.625 23.5625 27.625 23.5625 27.625 Z M9.5625 27.625 C9.5625 28.285 9.5625 28.945 9.5625 29.625 C10.2225 29.295 10.8825 28.965 11.5625 28.625 C10.9025 28.295 10.2425 27.965 9.5625 27.625 Z M21.5625 29.625 C21.5625 30.285 21.5625 30.945 21.5625 31.625 C19.9125 32.285 18.2625 32.945 16.5625 33.625 C18.5425 34.615 18.5425 34.615 20.5625 35.625 C20.8925 34.965 21.2225 34.305 21.5625 33.625 C22.5525 33.295 23.5425 32.965 24.5625 32.625 C24.2325 31.635 23.9025 30.645 23.5625 29.625 C22.9025 29.625 22.2425 29.625 21.5625 29.625 Z M9.5625 30.625 C9.8925 31.945 10.2225 33.265 10.5625 34.625 C11.8825 33.965 13.2025 33.305 14.5625 32.625 C13.9025 31.965 13.2425 31.305 12.5625 30.625 C11.5725 30.625 10.5825 30.625 9.5625 30.625 Z M14.5625 30.625 C14.5625 31.285 14.5625 31.945 14.5625 32.625 C15.2225 32.295 15.8825 31.965 16.5625 31.625 C15.9025 31.295 15.2425 30.965 14.5625 30.625 Z M23.5625 33.625 C23.5625 34.615 23.5625 35.605 23.5625 36.625 C24.2225 35.635 24.8825 34.645 25.5625 33.625 C24.9025 33.625 24.2425 33.625 23.5625 33.625 Z M13.5625 35.625 C14.8825 36.945 16.2025 38.265 17.5625 39.625 C17.2325 38.305 16.9025 36.985 16.5625 35.625 C15.5725 35.625 14.5825 35.625 13.5625 35.625 Z M20.5625 37.625 C20.5625 38.285 20.5625 38.945 20.5625 39.625 C21.2225 39.295 21.8825 38.965 22.5625 38.625 C21.9025 38.295 21.2425 37.965 20.5625 37.625 Z M23.5625 38.625 C24.5525 40.11 24.5525 40.11 25.5625 41.625 C25.5625 40.635 25.5625 39.645 25.5625 38.625 C24.9025 38.625 24.2425 38.625 23.5625 38.625 Z M22.5625 39.625 C23.5625 41.625 23.5625 41.625 23.5625 41.625 Z M26.5625 39.625 C27.5625 41.625 27.5625 41.625 27.5625 41.625 Z M26.5625 43.625 C27.5625 45.625 27.5625 45.625 27.5625 45.625 Z M24.5625 45.625 C25.5625 47.625 25.5625 47.625 25.5625 47.625 Z M15.5625 49.625 C16.5625 51.625 16.5625 51.625 16.5625 51.625 Z " fill="#FFFFFF" transform="translate(254.4375,43.375)"/>
<path d="M0 0 C6.37030431 -0.36751756 6.37030431 -0.36751756 9.1015625 1.2265625 C15.2638751 6.98312613 16.6470254 18.07074066 17.22265625 26.109375 C17.42471019 33.73471499 16.50491612 40.88911993 15.14453125 48.35693359 C13.95968251 54.89758075 13.34038439 61.35663566 13 68 C12.67 68 12.34 68 12 68 C11.65401346 60.02949516 12.06094319 52.69646377 13.5 44.875 C15.84309585 31.770106 16.53664978 15.8353315 9 4 C5.3558226 1.5705484 3.28758728 1.83820425 -1 2 C-0.67 1.34 -0.34 0.68 0 0 Z " fill="#FFFFFF" transform="translate(251,140)"/>
<path d="M0 0 C1.17333963 3.52001888 0.44070281 5.30744069 -0.50634766 8.79296875 C-1.30519821 12.36448657 -1.25055006 15.85637018 -1.1875 19.5 C-1.18685547 20.20769531 -1.18621094 20.91539063 -1.18554688 21.64453125 C-1.14504769 26.56743176 -0.62210634 31.02314932 0 36 C7.26 36 14.52 36 22 36 C22 36.33 22 36.66 22 37 C15.07 37 8.14 37 1 37 C1.99 38.65 2.98 40.3 4 42 C3.67 42.66 3.34 43.32 3 44 C-4.63981969 34.62385766 -3.81073522 21.48791784 -3 10 C-2.32004838 6.49350532 -1.41541255 3.27735406 0 0 Z " fill="#FFFFFF" transform="translate(200,64)"/>
<path d="M0 0 C3.3 0 6.6 0 10 0 C10.19676277 8.29683005 10.25943749 15.95075394 8 24 C6.85402344 23.95359375 5.70804688 23.9071875 4.52734375 23.859375 C2.99742209 23.82183091 1.46747199 23.78543359 -0.0625 23.75 C-0.81466797 23.71648437 -1.56683594 23.68296875 -2.34179688 23.6484375 C-8.06454718 23.54934226 -11.25548893 24.79918775 -16 28 C-15.05688132 25.6422033 -14.42221856 24.2716967 -12.2578125 22.87890625 C-9.56787294 21.83178445 -7.50606985 21.76811377 -4.625 21.8125 C-3.25214844 21.82216797 -3.25214844 21.82216797 -1.8515625 21.83203125 C1.11938351 22.00703218 4.0643973 22.51073288 7 23 C7.66 15.74 8.32 8.48 9 1 C6.03 1 3.06 1 0 1 C0 0.67 0 0.34 0 0 Z " fill="#FFFFFF" transform="translate(219,116)"/>
<path d="M0 0 C1 1 1 1 1.0625 4.0625 C1.041875 5.031875 1.02125 6.00125 1 7 C-3.14699941 8.93526639 -7.32295909 9.72425495 -11.79296875 10.53515625 C-14.02845409 10.90869659 -14.02845409 10.90869659 -16 12 C-17.61989062 8.45648927 -18.10414268 5.87280581 -18 2 C-15.75256955 1.46818825 -13.50192898 0.94992874 -11.25 0.4375 C-9.99703125 0.14746094 -8.7440625 -0.14257812 -7.453125 -0.44140625 C-4.40288426 -0.93482755 -2.80769883 -1.1380721 0 0 Z M-6.35546875 0.4609375 C-8.25232422 0.91339844 -8.25232422 0.91339844 -10.1875 1.375 C-12.09595703 1.81972656 -12.09595703 1.81972656 -14.04296875 2.2734375 C-15.01878906 2.51320313 -15.99460938 2.75296875 -17 3 C-16.67 4.65 -16.34 6.3 -16 8 C-12.20431539 8.97798721 -9.4994001 8.92653069 -5.6875 8.0625 C-4.80449219 7.86785156 -3.92148438 7.67320313 -3.01171875 7.47265625 C-2.34785156 7.31667969 -1.68398437 7.16070312 -1 7 C-0.67 5.35 -0.34 3.7 0 2 C-2.87435522 -0.39490693 -2.87435522 -0.39490693 -6.35546875 0.4609375 Z " fill="#FFFFFF" transform="translate(144,83)"/>
<path d="M0 0 C1.17673198 2.35346396 1.16623866 3.8806033 1.1875 6.5 C1.20167969 7.2940625 1.21585938 8.088125 1.23046875 8.90625 C1 11 1 11 -1 13 C-3.05859375 13.30078125 -3.05859375 13.30078125 -5.4375 13.3125 C-6.61119141 13.33763672 -6.61119141 13.33763672 -7.80859375 13.36328125 C-10.52105459 12.91362197 -11.36738553 12.18019945 -13 10 C-13.6875 6.8125 -13.6875 6.8125 -14 4 C-9.28840397 0.26321694 -5.98096662 -0.11284843 0 0 Z M-12 4 C-13.27260677 6.84908998 -13.27260677 6.84908998 -12.34375 9.1328125 C-11.15036683 11.17940408 -11.15036683 11.17940408 -8.90625 11.6796875 C-8.1121875 11.74414062 -7.318125 11.80859375 -6.5 11.875 C-5.30890625 11.99488281 -5.30890625 11.99488281 -4.09375 12.1171875 C-1.77646912 12.22079364 -1.77646912 12.22079364 0 10 C0.34216235 5.34805286 0.34216235 5.34805286 -1 1 C-5.43915044 0.60831025 -8.22022332 1.68059158 -12 4 Z " fill="#FFFFFF" transform="translate(225,69)"/>
<path d="M0 0 C1.62463842 -0.05395478 3.24978541 -0.09277195 4.875 -0.125 C5.77992188 -0.14820313 6.68484375 -0.17140625 7.6171875 -0.1953125 C10 0 10 0 12 2 C12.32431261 6.94576735 12.25491788 10.49016424 10 15 C9.34 15 8.68 15 8 15 C8.99 17.97 9.98 20.94 11 24 C9 23 9 23 7.875 20.6875 C7 18 7 18 7 14 C7.66 14 8.32 14 9 14 C9.19401633 12.18818595 9.38004375 10.37551468 9.5625 8.5625 C9.66691406 7.55316406 9.77132812 6.54382813 9.87890625 5.50390625 C9.91886719 4.67761719 9.95882812 3.85132813 10 3 C8.50256881 1.50256881 7.01175761 1.66797307 4.9375 1.4375 C3.638125 1.293125 2.33875 1.14875 1 1 C0.34 3.97 -0.32 6.94 -1 10 C-2.10191901 5.59232396 -1.58706842 4.1077065 0 0 Z " fill="#FFFFFF" transform="translate(189,13)"/>
<path d="M0 0 C-1.95649397 0.83764268 -3.91525556 1.66999059 -5.875 2.5 C-7.51082031 3.19609375 -7.51082031 3.19609375 -9.1796875 3.90625 C-12 5 -12 5 -14 5 C-14.33 8.96 -14.66 12.92 -15 17 C-15.33 17 -15.66 17 -16 17 C-16.14285714 9.57142857 -16.14285714 9.57142857 -15 6 C-15.99 6.33 -16.98 6.66 -18 7 C-20.39490986 7.06970052 -22.79167691 7.08448003 -25.1875 7.0625 C-26.45980469 7.05347656 -27.73210937 7.04445313 -29.04296875 7.03515625 C-30.50669922 7.01775391 -30.50669922 7.01775391 -32 7 C-32 6.67 -32 6.34 -32 6 C-30.85337891 5.99613281 -30.85337891 5.99613281 -29.68359375 5.9921875 C-21.98065485 5.71410306 -15.95188155 4.18321755 -9.02709961 0.99560547 C-3.47072253 -1.5059993 -3.47072253 -1.5059993 0 0 Z " fill="#FFFFFF" transform="translate(261,109)"/>
<path d="M0 0 C-2.38039204 1.19019602 -3.96425074 1.17051839 -6.62109375 1.24609375 C-7.55131348 1.27775635 -8.4815332 1.30941895 -9.43994141 1.34204102 C-10.92373291 1.38929321 -10.92373291 1.38929321 -12.4375 1.4375 C-19.28880209 1.69188275 -25.81589737 2.11659942 -32.52734375 3.58984375 C-37.31383641 4.38381173 -42.16465314 4.15189571 -47 4 C-47 3.67 -47 3.34 -47 3 C-45.12054688 2.80083984 -45.12054688 2.80083984 -43.203125 2.59765625 C-41.55206754 2.41941709 -39.90102673 2.2410236 -38.25 2.0625 C-37.0125 1.93198242 -37.0125 1.93198242 -35.75 1.79882812 C-34.95078125 1.71181641 -34.1515625 1.62480469 -33.328125 1.53515625 C-32.5949707 1.456604 -31.86181641 1.37805176 -31.10644531 1.29711914 C-29.00996559 1.04290038 -29.00996559 1.04290038 -27.0480957 0.48852539 C-22.77906703 -0.52975168 -18.30759908 -0.43389599 -13.9375 -0.625 C-12.93138672 -0.6765625 -11.92527344 -0.728125 -10.88867188 -0.78125 C-9.92380859 -0.82507813 -8.95894531 -0.86890625 -7.96484375 -0.9140625 C-7.0843335 -0.9548291 -6.20382324 -0.9955957 -5.29663086 -1.03759766 C-3 -1 -3 -1 0 0 Z " fill="#FFFFFF" transform="translate(135,126)"/>
<path d="M0 0 C0.99 0.33 1.98 0.66 3 1 C-3.2239915 5.78664516 -8.72113137 6.94133477 -16.4375 7.625 C-23.68235103 8.32626746 -30.19137921 9.35060701 -37 12 C-37 11.34 -37 10.68 -37 10 C-29.53833749 6.78560839 -22.34926043 6.03518164 -14.3125 5.27148438 C-8.29118439 4.60376631 -4.83779872 3.59401135 0 0 Z " fill="#FFFFFF" transform="translate(131,112)"/>
<path d="M0 0 C1.56967551 2.76561876 2.03950547 4.44692348 1.8125 7.625 C1 10 1 10 -0.5625 11.375 C-2.8713299 13.98498162 -2.18853244 16.66926021 -2 20 C-2.33 20 -2.66 20 -3 20 C-3.58052245 16.99011728 -4.05989746 14.07110598 -4 11 C-2.0625 8.9375 -2.0625 8.9375 0 8 C-0.66 5.69 -1.32 3.38 -2 1 C-3.65 1 -5.3 1 -7 1 C-8.32 3.31 -9.64 5.62 -11 8 C-11.33 7.01 -11.66 6.02 -12 5 C-9.04109589 -0.47945205 -9.04109589 -0.47945205 -6 -2 C-3.36681244 -2 -2.13107322 -1.56278703 0 0 Z " fill="#FFFFFF" transform="translate(229,10)"/>
<path d="M0 0 C1.14972597 3.82611143 0.50327263 5.31328217 -1 9 C-1.34747193 12.1883277 -1.34747193 12.1883277 -1.37890625 15.62109375 C-1.41306641 16.88630859 -1.44722656 18.15152344 -1.48242188 19.45507812 C-1.50884766 20.76927734 -1.53527344 22.08347656 -1.5625 23.4375 C-1.62267644 26.04045093 -1.68635344 28.64332381 -1.75390625 31.24609375 C-1.77783447 32.39779053 -1.8017627 33.5494873 -1.82641602 34.73608398 C-1.99435967 37.89394444 -2.41622063 40.89464665 -3 44 C-3.33 44 -3.66 44 -4 44 C-3.93073514 39.01905315 -3.84258449 34.03891495 -3.73754883 29.05859375 C-3.70446491 27.36727939 -3.67638241 25.67585901 -3.65356445 23.984375 C-3.61971164 21.54121061 -3.56738492 19.09900345 -3.51171875 16.65625 C-3.50532883 15.91008423 -3.4989389 15.16391846 -3.49235535 14.3951416 C-3.34498719 9.03365503 -2.09646237 4.93974369 0 0 Z " fill="#FFFFFF" transform="translate(248,162)"/>
<path d="M0 0 C-6.36539272 2.11293829 -12.31006781 3.46048934 -19 4 C-18.71125 4.88042969 -18.4225 5.76085938 -18.125 6.66796875 C-17.75375 7.82941406 -17.3825 8.99085937 -17 10.1875 C-16.62875 11.33605469 -16.2575 12.48460938 -15.875 13.66796875 C-15.09369447 16.64320812 -14.81636694 18.95283896 -15 22 C-16.85276347 18.60326697 -17.99049196 15.13095396 -19.125 11.4375 C-19.47820313 10.30183594 -19.83140625 9.16617188 -20.1953125 7.99609375 C-21 5 -21 5 -21 2 C-19.53626953 1.80083984 -19.53626953 1.80083984 -18.04296875 1.59765625 C-16.13451172 1.33275391 -16.13451172 1.33275391 -14.1875 1.0625 C-12.29064453 0.80146484 -12.29064453 0.80146484 -10.35546875 0.53515625 C-2.37619617 -0.73744019 -2.37619617 -0.73744019 0 0 Z " fill="#FFFFFF" transform="translate(47,52)"/>
<path d="M0 0 C1.134375 0.020625 2.26875 0.04125 3.4375 0.0625 C5.7672964 3.70280688 5.8237557 6.81368727 5.4375 11.0625 C4.70660156 11.71992188 4.70660156 11.71992188 3.9609375 12.390625 C1.72309718 14.84651129 1.92540118 16.98753809 1.75 20.25 C1.68425781 21.33667969 1.61851562 22.42335938 1.55078125 23.54296875 C1.51339844 24.37441406 1.47601563 25.20585938 1.4375 26.0625 C1.1075 26.0625 0.7775 26.0625 0.4375 26.0625 C0.4375 21.7725 0.4375 17.4825 0.4375 13.0625 C1.4275 12.7325 2.4175 12.4025 3.4375 12.0625 C3.55070856 6.97946314 3.55070856 6.97946314 2.4375 2.0625 C0.06375139 1.72824265 0.06375139 1.72824265 -2.5625 2.0625 C-4.40565671 3.9629467 -4.40565671 3.9629467 -5.5625 6.0625 C-4.48849278 0.07874549 -4.48849278 0.07874549 0 0 Z " fill="#FFFFFF" transform="translate(251.5625,6.9375)"/>
<path d="M0 0 C0.33 0 0.66 0 1 0 C0.62019356 5.41224183 -0.17481754 8.32066513 -3.00195312 13.04418945 C-4.7406441 16.4513943 -5.38126841 20.08414118 -6.125 23.8125 C-7.74840595 31.74840595 -7.74840595 31.74840595 -10 34 C-8.39082706 24.21244221 -6.74241073 14.50285337 -1.8671875 5.75390625 C-0.93165616 3.86177304 -0.44332733 2.05830546 0 0 Z " fill="#FFFFFF" transform="translate(197,159)"/>
<path d="M0 0 C0.33 0 0.66 0 1 0 C1.33 3.3 1.66 6.6 2 10 C3.08704224 9.76228882 3.08704224 9.76228882 4.19604492 9.51977539 C6.78951662 9.03901777 9.2319784 8.80242678 11.86328125 8.68359375 C13.19262695 8.62075195 13.19262695 8.62075195 14.54882812 8.55664062 C15.46083984 8.51732422 16.37285156 8.47800781 17.3125 8.4375 C18.70952148 8.37272461 18.70952148 8.37272461 20.13476562 8.30664062 C22.42304454 8.20102775 24.71142372 8.09892248 27 8 C23.18862173 10.07850835 20.16850256 10.35380263 15.8125 10.5625 C10.17674089 10.86300993 4.60226836 11.31200213 -1 12 C-0.67 8.04 -0.34 4.08 0 0 Z " fill="#FFFFFF" transform="translate(48,137)"/>
<path d="M0 0 C0.33 2.31 0.66 4.62 1 7 C-1 4 -1 4 -1 1 C-2.3303125 1.433125 -2.3303125 1.433125 -3.6875 1.875 C-11.24085511 4.03310146 -19.15190505 5.16522305 -27 5 C-27 4.67 -27 4.34 -27 4 C-18.31515801 1.51861657 -9.03750819 0 0 0 Z " fill="#FFFFFF" transform="translate(159,24)"/>
<path d="M0 0 C0 2.31 0 4.62 0 7 C-0.33 7 -0.66 7 -1 7 C-1.33 5.35 -1.66 3.7 -2 2 C-2.57073242 2.32597168 -3.14146484 2.65194336 -3.72949219 2.98779297 C-6.16607646 4.07403796 -7.68281107 4.2331027 -10.328125 4.1953125 C-11.52695313 4.18564453 -11.52695313 4.18564453 -12.75 4.17578125 C-13.575 4.15902344 -14.4 4.14226562 -15.25 4.125 C-16.09046875 4.11597656 -16.9309375 4.10695313 -17.796875 4.09765625 C-19.86470604 4.07415817 -21.93238995 4.03828908 -24 4 C-24 3.67 -24 3.34 -24 3 C-22.81921875 2.95101562 -21.6384375 2.90203125 -20.421875 2.8515625 C-18.86456063 2.77651121 -17.30727009 2.70096439 -15.75 2.625 C-14.97269531 2.5940625 -14.19539063 2.563125 -13.39453125 2.53125 C-8.59188033 2.28496021 -4.53061336 0 0 0 Z " fill="#FFFFFF" transform="translate(99,73)"/>
<path d="M0 0 C-5.73555733 2.32747254 -10.44816971 3.19463609 -16.625 2.97265625 C-20.03793009 3.01194985 -22.7901416 3.88352751 -26 5 C-25 3 -25 3 -23.0625 1.875 C-19.43237917 0.83782262 -16.32322134 0.97114012 -12.57421875 1.06640625 C-10.0368113 1.00094961 -7.93997632 0.6086046 -5.5 -0.0625 C-2 -1 -2 -1 0 0 Z " fill="#FFFFFF" transform="translate(146,66)"/>
<path d="M0 0 C0.33 0 0.66 0 1 0 C1.12117187 0.92941406 1.24234375 1.85882813 1.3671875 2.81640625 C2.31906947 10.5264913 2.31906947 10.5264913 4.125 18.0625 C4.96581737 20.88524403 5.17714175 23.07716118 5 26 C4.34 25.67 3.68 25.34 3 25 C2.40234375 22.890625 2.40234375 22.890625 1.9375 20.25 C1.78152344 19.38890625 1.62554687 18.5278125 1.46484375 17.640625 C1.31144531 16.76921875 1.15804687 15.8978125 1 15 C0.81695312 14.17628906 0.63390625 13.35257813 0.4453125 12.50390625 C-0.02781086 9.84362492 -0.09849068 7.38680083 -0.0625 4.6875 C-0.05347656 3.80449219 -0.04445312 2.92148438 -0.03515625 2.01171875 C-0.02355469 1.34785156 -0.01195312 0.68398437 0 0 Z " fill="#FFFFFF" transform="translate(175,96)"/>
<path d="M0 0 C1.82478467 3.36187806 2.98652315 6.79015751 4.125 10.4375 C4.47820312 11.54996094 4.83140625 12.66242188 5.1953125 13.80859375 C5.92664915 16.70908909 6.16644908 19.03165811 6 22 C4.17521533 18.63812194 3.01347685 15.20984249 1.875 11.5625 C1.52179688 10.45003906 1.16859375 9.33757812 0.8046875 8.19140625 C0.07335085 5.29091091 -0.16644908 2.96834189 0 0 Z " fill="#FFFFFF" transform="translate(169,74)"/>
<path d="M0 0 C-3.26827607 0.70005804 -6.53992176 1.38286244 -9.8125 2.0625 C-10.74126953 2.26166016 -11.67003906 2.46082031 -12.62695312 2.66601562 C-13.9659668 2.94155273 -13.9659668 2.94155273 -15.33203125 3.22265625 C-16.56530151 3.48187866 -16.56530151 3.48187866 -17.82348633 3.74633789 C-20 4 -20 4 -23 3 C-19.01363631 1.20727098 -15.2577858 0.42704333 -10.9375 -0.1875 C-9.12572266 -0.45626953 -9.12572266 -0.45626953 -7.27734375 -0.73046875 C-4.35639749 -0.9706896 -2.73542695 -0.78755594 0 0 Z " fill="#FFFFFF" transform="translate(146,50)"/>
<path d="M0 0 C0.33 0 0.66 0 1 0 C1.34855655 7.62951555 1.0017506 13.92444501 -2 21 C-3.12397008 17.62808976 -2.58579768 16.44777649 -1.546875 13.18359375 C-0.46838371 8.87733212 -0.30356066 4.41760645 0 0 Z " fill="#FFFFFF" transform="translate(213,175)"/>
<path d="M0 0 C0.33 0 0.66 0 1 0 C1.66 4.29 2.32 8.58 3 13 C0.03 13 -2.94 13 -6 13 C-6 12.67 -6 12.34 -6 12 C-2.535 11.505 -2.535 11.505 1 11 C0.67 7.37 0.34 3.74 0 0 Z " fill="#FFFFFF" transform="translate(103,101)"/>
<path d="M0 0 C-0.33 0.66 -0.66 1.32 -1 2 C-1.58007812 1.97679687 -2.16015625 1.95359375 -2.7578125 1.9296875 C-7.61411166 1.81749577 -11.42932395 2.12485085 -16 4 C-11.24475986 -1.50606753 -6.66728199 -1.13004779 0 0 Z " fill="#FFFFFF" transform="translate(71,55)"/>
<path d="M0 0 C1.25425781 0.01804687 2.50851563 0.03609375 3.80078125 0.0546875 C5.22970703 0.08949219 5.22970703 0.08949219 6.6875 0.125 C6.6875 0.455 6.6875 0.785 6.6875 1.125 C5.81867188 1.17398438 4.94984375 1.22296875 4.0546875 1.2734375 C2.90226562 1.34820312 1.74984375 1.42296875 0.5625 1.5 C-1.14292969 1.60441406 -1.14292969 1.60441406 -2.8828125 1.7109375 C-6.26643616 2.11943876 -9.12862441 2.93467569 -12.3125 4.125 C-12.3125 3.465 -12.3125 2.805 -12.3125 2.125 C-8.09353134 0.07601713 -4.65877854 -0.08707997 0 0 Z " fill="#FFFFFF" transform="translate(81.3125,110.875)"/>
<path d="M0 0 C1.45703125 1.05078125 1.45703125 1.05078125 3 3 C3.51171875 6.35546875 3.51171875 6.35546875 3.6875 10.1875 C3.75324219 11.45980469 3.81898438 12.73210937 3.88671875 14.04296875 C3.92410156 15.01878906 3.96148437 15.99460938 4 17 C3.34 17 2.68 17 2 17 C1.93941406 16.10796875 1.87882813 15.2159375 1.81640625 14.296875 C1.73261719 13.12640625 1.64882812 11.9559375 1.5625 10.75 C1.48128906 9.58984375 1.40007812 8.4296875 1.31640625 7.234375 C1.06752213 4.69022624 0.71885058 2.44046752 0 0 Z " fill="#FFFFFF" transform="translate(246,126)"/>
<path d="M0 0 C4.66666667 2.33333333 9.33333333 4.66666667 14 7 C7.50966018 6.66429277 4.61192971 5.61192971 0 1 C0 0.67 0 0.34 0 0 Z " fill="#FFFFFF" transform="translate(205,109)"/>
<path d="M0 0 C1.5067748 2.79738782 2.48224115 5.40322432 3.1875 8.5 C3.36667969 9.2528125 3.54585937 10.005625 3.73046875 10.78125 C4.01801942 13.14833379 3.72248395 14.74544015 3 17 C2.49255577 15.10614563 1.99435426 13.20981334 1.5 11.3125 C1.2215625 10.25675781 0.943125 9.20101562 0.65625 8.11328125 C0.0608285 5.28857328 -0.12786492 2.87163292 0 0 Z " fill="#FFFFFF" transform="translate(56,78)"/>
<path d="M0 0 C0 0.33 0 0.66 0 1 C-2.06172613 1.33808686 -4.1244203 1.67027361 -6.1875 2 C-7.91033203 2.2784375 -7.91033203 2.2784375 -9.66796875 2.5625 C-12.50415393 2.93489477 -15.14719564 3.08596021 -18 3 C-12.30979306 -0.2828117 -6.37621985 -0.10993482 0 0 Z " fill="#FFFFFF" transform="translate(113,33)"/>
<path d="M0 0 C0 0.66 0 1.32 0 2 C0.66 2.33 1.32 2.66 2 3 C1.01 3 0.02 3 -1 3 C-1 2.34 -1 1.68 -1 1 C-4.3 1.33 -7.6 1.66 -11 2 C-10.67 1.34 -10.34 0.68 -10 0 C-6.18015204 -0.77811718 -3.73159669 -1.24386556 0 0 Z " fill="#FFFFFF" transform="translate(53,57)"/>
<path d="M0 0 C5.94 0 11.88 0 18 0 C18 0.33 18 0.66 18 1 C12.06 1 6.12 1 0 1 C0 0.67 0 0.34 0 0 Z " fill="#FFFFFF" transform="translate(57,77)"/>
<path d="M0 0 C2.26954631 3.40431947 2.36549949 5.16524202 2.625 9.1875 C2.69976562 10.27417969 2.77453125 11.36085938 2.8515625 12.48046875 C2.92503906 13.72763672 2.92503906 13.72763672 3 15 C2.67 15 2.34 15 2 15 C1.66223316 13.2508503 1.32996329 11.50063855 1 9.75 C0.814375 8.77546875 0.62875 7.8009375 0.4375 6.796875 C0 4 0 4 0 0 Z " fill="#FFFFFF" transform="translate(160,31)"/>
<path d="M0 0 C1.98 0 3.96 0 6 0 C6 0.33 6 0.66 6 1 C4.35 1 2.7 1 1 1 C2.32 2.98 3.64 4.96 5 7 C3.0625 6.3125 3.0625 6.3125 1 5 C0.25 2.375 0.25 2.375 0 0 Z " fill="#FFFFFF" transform="translate(202,84)"/>
<path d="M0 0 C-1.6210103 0.69685498 -3.24696066 1.38222861 -4.875 2.0625 C-5.77992188 2.44535156 -6.68484375 2.82820313 -7.6171875 3.22265625 C-10 4 -10 4 -12 3 C-4.8 -1.6 -4.8 -1.6 0 0 Z " fill="#FFFFFF" transform="translate(147,74)"/>
<path d="M0 0 C0.66 0.33 1.32 0.66 2 1 C-1.79692186 3.82561627 -4.18569279 5.56638908 -9 5 C-8.67 4.34 -8.34 3.68 -8 3 C-6.33678518 2.64984951 -4.66965451 2.31802943 -3 2 C-2.01 1.34 -1.02 0.68 0 0 Z " fill="#FFFFFF" transform="translate(118,71)"/>
<path d="M0 0 C0 0.33 0 0.66 0 1 C-8.42857143 3.28571429 -8.42857143 3.28571429 -13 3 C-8.48166204 0.66292864 -5.11018582 -0.11355968 0 0 Z " fill="#FFFFFF" transform="translate(95,36)"/>
<path d="M0 0 C0 0.33 0 0.66 0 1 C-6.435 1.495 -6.435 1.495 -13 2 C-13 1.67 -13 1.34 -13 1 C-8.59085217 -0.10228696 -4.51617599 -0.07654536 0 0 Z " fill="#FFFFFF" transform="translate(110,137)"/>
<path d="M0 0 C-5.17578125 3.22265625 -5.17578125 3.22265625 -7 4 C-7.99 3.67 -8.98 3.34 -10 3 C-3.375 -1.125 -3.375 -1.125 0 0 Z " fill="#FFFFFF" transform="translate(53,72)"/>
<path d="M0 0 C1 2 1 2 0.44140625 3.9453125 C0.15136719 4.66460937 -0.13867188 5.38390625 -0.4375 6.125 C-0.72496094 6.84945312 -1.01242188 7.57390625 -1.30859375 8.3203125 C-1.53675781 8.87460938 -1.76492187 9.42890625 -2 10 C-3.08784335 6.68604014 -3.07262544 6.16419665 -1.5625 2.75 C-1.046875 1.8425 -0.53125 0.935 0 0 Z " fill="#FFFFFF" transform="translate(202,144)"/>
<path d="M0 0 C0.33 0 0.66 0 1 0 C0.25 6.75 0.25 6.75 -2 9 C-1.34 6.03 -0.68 3.06 0 0 Z " fill="#FFFFFF" transform="translate(186,193)"/>
<path d="M0 0 C3.63 0 7.26 0 11 0 C11 0.33 11 0.66 11 1 C7.37 1 3.74 1 0 1 C0 0.67 0 0.34 0 0 Z " fill="#FFFFFF" transform="translate(110,136)"/>
<path d="M0 0 C-4.43076923 2.09230769 -4.43076923 2.09230769 -7.3125 1.625 C-7.869375 1.41875 -8.42625 1.2125 -9 1 C-3.375 -1.125 -3.375 -1.125 0 0 Z " fill="#FFFFFF" transform="translate(176,124)"/>
<path d="M0 0 C0.66 0.33 1.32 0.66 2 1 C-0.3125 2.5625 -0.3125 2.5625 -3 4 C-3.99 3.67 -4.98 3.34 -6 3 C-4.03533587 1.93224776 -2.03144641 0.93446535 0 0 Z " fill="#FFFFFF" transform="translate(130,75)"/>
<path d="M0 0 C0.33 0 0.66 0 1 0 C1.33 2.97 1.66 5.94 2 9 C-0.29013653 5.5647952 -0.17842973 4.014669 0 0 Z " fill="#FFFFFF" transform="translate(46,128)"/>
<path d="M0 0 C-3.13498292 1.85776765 -5.37471432 2.20140476 -9 2 C-5.86501708 0.14223235 -3.62528568 -0.20140476 0 0 Z " fill="#FFFFFF" transform="translate(153,130)"/>
<path d="M0 0 C1.85776765 3.13498292 2.20140476 5.37471432 2 9 C0.14223235 5.86501708 -0.20140476 3.62528568 0 0 Z " fill="#FFFFFF" transform="translate(99,80)"/>
<path d="M0 0 C-3.13498292 1.85776765 -5.37471432 2.20140476 -9 2 C-5.86501708 0.14223235 -3.62528568 -0.20140476 0 0 Z " fill="#FFFFFF" transform="translate(114,56)"/>
<path d="M0 0 C-4.455 0.495 -4.455 0.495 -9 1 C-9 0.67 -9 0.34 -9 0 C-5.32431536 -0.91892116 -3.83619425 -0.95904856 0 0 Z " fill="#FFFFFF" transform="translate(123,55)"/>
<path d="M0 0 C1.98 0 3.96 0 6 0 C6 0.66 6 1.32 6 2 C3.69 2 1.38 2 -1 2 C-0.67 1.34 -0.34 0.68 0 0 Z " fill="#FFFFFF" transform="translate(125,39)"/>
<path d="M0 0 C0.33 0.66 0.66 1.32 1 2 C0.0625 4.625 0.0625 4.625 -1 7 C-2 4 -2 4 -1.0625 1.8125 C-0.5365625 0.9153125 -0.5365625 0.9153125 0 0 Z " fill="#FFFFFF" transform="translate(216,168)"/>
<path d="M0 0 C2.97 0 5.94 0 9 0 C9 0.33 9 0.66 9 1 C6.03 1 3.06 1 0 1 C0 0.67 0 0.34 0 0 Z " fill="#FFFFFF" transform="translate(88,112)"/>
<path d="M0 0 C1.42944945 2.35438733 2.08661261 3.48032433 1.625 6.25 C1.41875 6.8275 1.2125 7.405 1 8 C0.67 5.36 0.34 2.72 0 0 Z " fill="#FFFFFF" transform="translate(167,66)"/>
<path d="M0 0 C1.125 3.75 1.125 3.75 0 6 C-0.66 5.67 -1.32 5.34 -2 5 C-1.34 3.35 -0.68 1.7 0 0 Z " fill="#FFFFFF" transform="translate(209,196)"/>
<path d="M0 0 C0.598125 0.20625 1.19625 0.4125 1.8125 0.625 C-0.4975 0.955 -2.8075 1.285 -5.1875 1.625 C-2.1875 -0.375 -2.1875 -0.375 0 0 Z " fill="#FFFFFF" transform="translate(165.1875,126.375)"/>
<path d="M0 0 C0.33 0 0.66 0 1 0 C1 2.64 1 5.28 1 8 C0.67 8 0.34 8 0 8 C0 5.36 0 2.72 0 0 Z " fill="#FFFFFF" transform="translate(163,46)"/>
<path d="M0 0 C2.31 0 4.62 0 7 0 C7 0.33 7 0.66 7 1 C4.69 1 2.38 1 0 1 C0 0.67 0 0.34 0 0 Z " fill="#FFFFFF" transform="translate(121,135)"/>
<path d="M0 0 C0.33 0 0.66 0 1 0 C1 2.31 1 4.62 1 7 C0.67 7 0.34 7 0 7 C0 4.69 0 2.38 0 0 Z " fill="#FFFFFF" transform="translate(102,94)"/>
<path d="M0 0 C0.99 1.485 0.99 1.485 2 3 C1.67 3.99 1.34 4.98 1 6 C0.67 4.02 0.34 2.04 0 0 Z " fill="#FFFFFF" transform="translate(36,91)"/>
<path d="M0 0 C0.99 1.485 0.99 1.485 2 3 C1.67 3.99 1.34 4.98 1 6 C0.67 4.02 0.34 2.04 0 0 Z " fill="#FFFFFF" transform="translate(34,85)"/>
<path d="M0 0 C0.99 0.33 1.98 0.66 3 1 C1.35 1.66 -0.3 2.32 -2 3 C-1.34 2.01 -0.68 1.02 0 0 Z " fill="#FFFFFF" transform="translate(119,80)"/>
<path d="M0 0 C0.99 0.33 1.98 0.66 3 1 C1.35 1.66 -0.3 2.32 -2 3 C-2 2.34 -2 1.68 -2 1 C-1.34 0.67 -0.68 0.34 0 0 Z " fill="#FFFFFF" transform="translate(111,42)"/>
<path d="M0 0 C0.99 0 1.98 0 3 0 C2.67 0.99 2.34 1.98 2 3 C1.34 2.67 0.68 2.34 0 2 C0 1.34 0 0.68 0 0 Z " fill="#FFFFFF" transform="translate(225,34)"/>
<path d="M0 0 C2.31 0 4.62 0 7 0 C7 0.33 7 0.66 7 1 C4.69 1 2.38 1 0 1 C0 0.67 0 0.34 0 0 Z " fill="#FFFFFF" transform="translate(113,32)"/>
<path d="M0 0 C1.98 0 3.96 0 6 0 C6 0.33 6 0.66 6 1 C4.02 1 2.04 1 0 1 C0 0.67 0 0.34 0 0 Z " fill="#FFFFFF" transform="translate(128,134)"/>
<path d="M0 0 C1.98 0 3.96 0 6 0 C6 0.33 6 0.66 6 1 C4.02 1 2.04 1 0 1 C0 0.67 0 0.34 0 0 Z " fill="#FFFFFF" transform="translate(134,133)"/>
<path d="M0 0 C0.33 0 0.66 0 1 0 C1 1.98 1 3.96 1 6 C0.67 6 0.34 6 0 6 C0 4.02 0 2.04 0 0 Z " fill="#FFFFFF" transform="translate(44,117)"/>
<path d="M0 0 C0.33 0 0.66 0 1 0 C1 1.98 1 3.96 1 6 C0.67 6 0.34 6 0 6 C0 4.02 0 2.04 0 0 Z " fill="#FFFFFF" transform="translate(42,108)"/>
<path d="M0 0 C0.66 0.66 1.32 1.32 2 2 C1.67 2.99 1.34 3.98 1 5 C0.67 3.35 0.34 1.7 0 0 Z " fill="#FFFFFF" transform="translate(38,97)"/>
<path d="M0 0 C0.33 0 0.66 0 1 0 C1 1.98 1 3.96 1 6 C0.67 6 0.34 6 0 6 C0 4.02 0 2.04 0 0 Z " fill="#FFFFFF" transform="translate(32,74)"/>
<path d="M0 0 C0 0.99 0 1.98 0 3 C-0.99 3.495 -0.99 3.495 -2 4 C-1.34 2.68 -0.68 1.36 0 0 Z " fill="#FFFFFF" transform="translate(205,56)"/>
<path d="M0 0 C0.66 0 1.32 0 2 0 C2 0.99 2 1.98 2 3 C1.34 3 0.68 3 0 3 C0 2.01 0 1.02 0 0 Z " fill="#FFFFFF" transform="translate(251,36)"/>
<path d="M0 0 C0.33 0 0.66 0 1 0 C1 1.65 1 3.3 1 5 C0.67 5 0.34 5 0 5 C0 3.35 0 1.7 0 0 Z " fill="#FFFFFF" transform="translate(198,154)"/>
<path d="M0 0 C0.33 0 0.66 0 1 0 C1 1.65 1 3.3 1 5 C0.67 5 0.34 5 0 5 C0 3.35 0 1.7 0 0 Z " fill="#FFFFFF" transform="translate(45,123)"/>
<path d="M0 0 C0.33 0 0.66 0 1 0 C1 1.65 1 3.3 1 5 C0.67 5 0.34 5 0 5 C0 3.35 0 1.7 0 0 Z " fill="#FFFFFF" transform="translate(63,105)"/>
<path d="M0 0 C0.33 0 0.66 0 1 0 C1 1.65 1 3.3 1 5 C0.67 5 0.34 5 0 5 C0 3.35 0 1.7 0 0 Z " fill="#FFFFFF" transform="translate(101,89)"/>
<path d="M0 0 C0.33 0 0.66 0 1 0 C1 1.65 1 3.3 1 5 C0.67 5 0.34 5 0 5 C0 3.35 0 1.7 0 0 Z " fill="#FFFFFF" transform="translate(33,80)"/>
<path d="M0 0 C0.99 0 1.98 0 3 0 C2.67 0.99 2.34 1.98 2 3 C2 2.34 2 1.68 2 1 C1.34 0.67 0.68 0.34 0 0 Z " fill="#FFFFFF" transform="translate(132,74)"/>
<path d="M0 0 C1.65 0 3.3 0 5 0 C5 0.33 5 0.66 5 1 C3.35 1 1.7 1 0 1 C0 0.67 0 0.34 0 0 Z " fill="#FFFFFF" transform="translate(56,69)"/>
<path d="M0 0 C1.65 0 3.3 0 5 0 C5 0.33 5 0.66 5 1 C3.35 1 1.7 1 0 1 C0 0.67 0 0.34 0 0 Z " fill="#FFFFFF" transform="translate(61,68)"/>
<path d="M0 0 C1.65 0 3.3 0 5 0 C5 0.33 5 0.66 5 1 C3.35 1 1.7 1 0 1 C0 0.67 0 0.34 0 0 Z " fill="#FFFFFF" transform="translate(66,67)"/>
<path d="M0 0 C1.98 0.99 1.98 0.99 4 2 C2.68 1.67 1.36 1.34 0 1 C0 0.67 0 0.34 0 0 Z " fill="#FFFFFF" transform="translate(256,66)"/>
<path d="M0 0 C1.65 0 3.3 0 5 0 C5 0.33 5 0.66 5 1 C3.35 1 1.7 1 0 1 C0 0.67 0 0.34 0 0 Z " fill="#FFFFFF" transform="translate(75,65)"/>
<path d="M0 0 C0.33 0.66 0.66 1.32 1 2 C0.34 2.66 -0.32 3.32 -1 4 C-0.67 2.68 -0.34 1.36 0 0 Z " fill="#FFFFFF" transform="translate(202,60)"/>
<path d="M0 0 C0.33 0 0.66 0 1 0 C1 1.65 1 3.3 1 5 C0.67 5 0.34 5 0 5 C0 3.35 0 1.7 0 0 Z " fill="#FFFFFF" transform="translate(164,54)"/>
<path d="M0 0 C1.65 0 3.3 0 5 0 C5 0.33 5 0.66 5 1 C3.35 1 1.7 1 0 1 C0 0.67 0 0.34 0 0 Z " fill="#FFFFFF" transform="translate(50,49)"/>
<path d="M0 0 C0.66 0 1.32 0 2 0 C1.67 0.99 1.34 1.98 1 3 C0.67 2.01 0.34 1.02 0 0 Z " fill="#FFFFFF" transform="translate(200,41)"/>
<path d="M0 0 C1.65 0 3.3 0 5 0 C5 0.33 5 0.66 5 1 C3.35 1 1.7 1 0 1 C0 0.67 0 0.34 0 0 Z " fill="#FFFFFF" transform="translate(127,29)"/>
<path d="M0 0 C4 1 4 1 4 1 Z " fill="#FFFFFF" transform="translate(75,144)"/>
<path d="M0 0 C4 1 4 1 4 1 Z " fill="#FFFFFF" transform="translate(85,141)"/>
<path d="M0 0 C4 1 4 1 4 1 Z " fill="#FFFFFF" transform="translate(89,140)"/>
<path d="M0 0 C4 1 4 1 4 1 Z " fill="#FFFFFF" transform="translate(93,139)"/>
<path d="M0 0 C4 1 4 1 4 1 Z " fill="#FFFFFF" transform="translate(140,132)"/>
<path d="M0 0 C4 1 4 1 4 1 Z " fill="#FFFFFF" transform="translate(156,128)"/>
<path d="M0 0 C0.99 0.495 0.99 0.495 2 1 C1.67 1.66 1.34 2.32 1 3 C0.67 2.01 0.34 1.02 0 0 Z " fill="#FFFFFF" transform="translate(66,115)"/>
<path d="M0 0 C1 4 1 4 1 4 Z " fill="#FFFFFF" transform="translate(40,102)"/>
<path d="M0 0 C1 4 1 4 1 4 Z " fill="#FFFFFF" transform="translate(62,101)"/>
<path d="M0 0 C4 1 4 1 4 1 Z " fill="#FFFFFF" transform="translate(71,66)"/>
<path d="M0 0 C4 1 4 1 4 1 Z " fill="#FFFFFF" transform="translate(232,63)"/>
<path d="M0 0 C1 4 1 4 1 4 Z " fill="#FFFFFF" transform="translate(166,62)"/>
<path d="M0 0 C0.66 0.33 1.32 0.66 2 1 C1.01 1 0.02 1 -1 1 C-0.67 0.67 -0.34 0.34 0 0 Z " fill="#FFFFFF" transform="translate(147,63)"/>
<path d="M0 0 C4 1 4 1 4 1 Z " fill="#FFFFFF" transform="translate(83,63)"/>
<path d="M0 0 C4 1 4 1 4 1 Z " fill="#FFFFFF" transform="translate(89,61)"/>
<path d="M0 0 C4 1 4 1 4 1 Z " fill="#FFFFFF" transform="translate(93,60)"/>
<path d="M0 0 C4 1 4 1 4 1 Z " fill="#FFFFFF" transform="translate(97,59)"/>
<path d="M0 0 C4 1 4 1 4 1 Z " fill="#FFFFFF" transform="translate(101,58)"/>
<path d="M0 0 C4 1 4 1 4 1 Z " fill="#FFFFFF" transform="translate(61,46)"/>
<path d="M0 0 C4 1 4 1 4 1 Z " fill="#FFFFFF" transform="translate(77,40)"/>
<path d="M0 0 C4 1 4 1 4 1 Z " fill="#FFFFFF" transform="translate(123,30)"/>
<path d="M0 0 C3 1 3 1 3 1 Z " fill="#FFFFFF" transform="translate(79,143)"/>
<path d="M0 0 C3 1 3 1 3 1 Z " fill="#FFFFFF" transform="translate(82,142)"/>
<path d="M0 0 C3 1 3 1 3 1 Z " fill="#FFFFFF" transform="translate(153,129)"/>
<path d="" fill="#FFFFFF" transform="translate(0,0)"/>
<path d="" fill="#FFFFFF" transform="translate(0,0)"/>
<path d="" fill="#FFFFFF" transform="translate(0,0)"/>
<path d="" fill="#FFFFFF" transform="translate(0,0)"/>
<path d="M0 0 C0.66 0 1.32 0 2 0 C1.67 0.66 1.34 1.32 1 2 C0.67 1.34 0.34 0.68 0 0 Z " fill="#FFFFFF" transform="translate(217,75)"/>
<path d="M0 0 C3 1 3 1 3 1 Z " fill="#FFFFFF" transform="translate(53,70)"/>
<path d="M0 0 C3 1 3 1 3 1 Z " fill="#FFFFFF" transform="translate(229,64)"/>
<path d="M0 0 C3 1 3 1 3 1 Z " fill="#FFFFFF" transform="translate(80,64)"/>
<path d="" fill="#FFFFFF" transform="translate(0,0)"/>
<path d="M0 0 C3 1 3 1 3 1 Z " fill="#FFFFFF" transform="translate(47,50)"/>
<path d="M0 0 C3 1 3 1 3 1 Z " fill="#FFFFFF" transform="translate(55,48)"/>
<path d="M0 0 C3 1 3 1 3 1 Z " fill="#FFFFFF" transform="translate(58,47)"/>
<path d="M0 0 C3 1 3 1 3 1 Z " fill="#FFFFFF" transform="translate(65,45)"/>
<path d="M0 0 C3 1 3 1 3 1 Z " fill="#FFFFFF" transform="translate(68,44)"/>
<path d="M0 0 C3 1 3 1 3 1 Z " fill="#FFFFFF" transform="translate(140,35)"/>
<path d="M0 0 C3 1 3 1 3 1 Z " fill="#FFFFFF" transform="translate(120,31)"/>
<path d="M0 0 C2 1 2 1 2 1 Z " fill="#FFFFFF" transform="translate(176,122)"/>
<path d="" fill="#FFFFFF" transform="translate(0,0)"/>
<path d="" fill="#FFFFFF" transform="translate(0,0)"/>
<path d="M0 0 C2 1 2 1 2 1 Z " fill="#FFFFFF" transform="translate(122,79)"/>
<path d="M0 0 C2 1 2 1 2 1 Z " fill="#FFFFFF" transform="translate(87,62)"/>
<path d="" fill="#FFFFFF" transform="translate(0,0)"/>
<path d="M0 0 C2 1 2 1 2 1 Z " fill="#FFFFFF" transform="translate(71,43)"/>
<path d="M0 0 C2 1 2 1 2 1 Z " fill="#FFFFFF" transform="translate(73,42)"/>
<path d="M0 0 C2 1 2 1 2 1 Z " fill="#FFFFFF" transform="translate(75,41)"/>
<path d="" fill="#FFFFFF" transform="translate(0,0)"/>
<path d="" fill="#FFFFFF" transform="translate(0,0)"/>
<path d="" fill="#FFFFFF" transform="translate(0,0)"/>
</svg>
