<?xml version="1.0" encoding="UTF-8"?>
<svg version="1.1" xmlns="http://www.w3.org/2000/svg" width="350" height="230">
<path d="M0 0 C0.33 0 0.66 0 1 0 C1 2.64 1 5.28 1 8 C2.65 8 4.3 8 6 8 C6 6.35 6 4.7 6 3 C6.66 2.67 7.32 2.34 8 2 C8 3.65 8 5.3 8 7 C10.97 7.33 13.94 7.66 17 8 C17 8.33 17 8.66 17 9 C14.03 9 11.06 9 8 9 C8 10.32 8 11.64 8 13 C10.97 13 13.94 13 17 13 C17 13.33 17 13.66 17 14 C14.03 14 11.06 14 8 14 C8.33 16.64 8.66 19.28 9 22 C7 20 7 20 6.875 16.875 C6.91625 15.92625 6.9575 14.9775 7 14 C4.69 14.33 2.38 14.66 0 15 C0 17.31 0 19.62 0 22 C-0.33 22 -0.66 22 -1 22 C-1 19.69 -1 17.38 -1 15 C-1.99 14.67 -2.98 14.34 -4 14 C-3.01 14 -2.02 14 -1 14 C-1 12.68 -1 11.36 -1 10 C-2.65 10 -4.3 10 -6 10 C-6 9.67 -6 9.34 -6 9 C-4.35 9 -2.7 9 -1 9 C-0.67 6.03 -0.34 3.06 0 0 Z M0 10 C0.33 11.32 0.66 12.64 1 14 C2.98 13.67 4.96 13.34 7 13 C7 11.68 7 10.36 7 9 C4.37886292 9 2.49064888 9.31292445 0 10 Z " fill="#FFFFFF" transform="translate(10,171)"/>
<path d="M0 0 C0.495 1.98 0.495 1.98 1 4 C0.34 4 -0.32 4 -1 4 C-1 3.01 -1 2.02 -1 1 C-1.845625 1.33 -2.69125 1.66 -3.5625 2 C-7.20779889 3.06045059 -10.22702405 3.07397992 -14 3 C-14.33 3.33 -14.66 3.66 -15 4 C-18.66344611 4.13568319 -21.50615721 4.16461426 -25 3 C-26.96621469 3.7554078 -26.96621469 3.7554078 -28.9375 4.9375 C-32.14047933 6.75807592 -33.07836033 7 -37 7 C-37 6.34 -37 5.68 -37 5 C-37.66386719 5.20496094 -38.32773438 5.40992188 -39.01171875 5.62109375 C-39.89472656 5.89050781 -40.77773437 6.15992188 -41.6875 6.4375 C-42.55761719 6.70433594 -43.42773438 6.97117188 -44.32421875 7.24609375 C-46.88890314 7.96869826 -49.35885182 8.63819888 -52 9 C-53.8125 7.5625 -53.8125 7.5625 -55 6 C-54.360625 6.226875 -53.72125 6.45375 -53.0625 6.6875 C-49.22440887 7.07914195 -46.73155185 6.01482288 -43.16015625 4.703125 C-40.69290442 3.90004122 -38.57989387 3.75033285 -36 4 C-36 4.66 -36 5.32 -36 6 C-35.39414063 5.62746094 -34.78828125 5.25492188 -34.1640625 4.87109375 C-28.33933267 1.58236168 -24.55322213 0.50518913 -17.93359375 1.703125 C-16.97646484 1.85007813 -16.97646484 1.85007813 -16 2 C-15.67 1.67 -15.34 1.34 -15 1 C-12.66666667 1 -10.33333333 1 -8 1 C-4.98139292 0.31003267 -3.25677532 0 0 0 Z " fill="#FFFFFF" transform="translate(136,198)"/>
<path d="M0 0 C0.33 0.66 0.66 1.32 1 2 C1.62648438 1.98839844 2.25296875 1.97679687 2.8984375 1.96484375 C3.71570313 1.95582031 4.53296875 1.94679687 5.375 1.9375 C6.18710938 1.92589844 6.99921875 1.91429687 7.8359375 1.90234375 C10 2 10 2 12 3 C14.3494053 2.39239518 16.68529088 1.72870472 19 1 C19 1.66 19 2.32 19 3 C20.093125 2.814375 21.18625 2.62875 22.3125 2.4375 C26 2 26 2 29 3 C31.6569191 2.12085312 31.6569191 2.12085312 34 1 C34 1.66 34 2.32 34 3 C35.65 3 37.3 3 39 3 C39 3.33 39 3.66 39 4 C37.453125 3.9690625 37.453125 3.9690625 35.875 3.9375 C32.13029798 3.90198654 32.13029798 3.90198654 29 4.5 C24.4547925 5.25753458 20.3926683 5.46422277 16 4 C15.05125 4.165 14.1025 4.33 13.125 4.5 C9.95806542 5.00670953 8.07992851 4.71075273 5 4 C3.3337447 3.9629721 1.66598681 3.95240038 0 4 C-0.33 3.01 -0.66 2.02 -1 1 C-1.55429688 1.22816406 -2.10859375 1.45632812 -2.6796875 1.69140625 C-3.40414062 1.97886719 -4.12859375 2.26632813 -4.875 2.5625 C-5.95394531 2.99755859 -5.95394531 2.99755859 -7.0546875 3.44140625 C-9 4 -9 4 -11 3 C-4.5 0 -4.5 0 0 0 Z " fill="#FFFFFF" transform="translate(114,146)"/>
<path d="M0 0 C3.5625 0.25 3.5625 0.25 6.5625 2.25 C6.5625 2.91 6.5625 3.57 6.5625 4.25 C7.15417969 3.96125 7.74585938 3.6725 8.35546875 3.375 C16.20397627 -0.31239016 16.20397627 -0.31239016 20.5625 0.25 C20.5625 0.91 20.5625 1.57 20.5625 2.25 C21.71878906 2.12431641 21.71878906 2.12431641 22.8984375 1.99609375 C24.40277344 1.84333984 24.40277344 1.84333984 25.9375 1.6875 C27.43410156 1.53087891 27.43410156 1.53087891 28.9609375 1.37109375 C31.5625 1.25 31.5625 1.25 33.5625 2.25 C34.2225 1.92 34.8825 1.59 35.5625 1.25 C37.8954866 1.20977609 40.22956666 1.20679753 42.5625 1.25 C43.0575 2.24 43.0575 2.24 43.5625 3.25 C42.510625 3.229375 41.45875 3.20875 40.375 3.1875 C36.72696237 3.12731005 36.72696237 3.12731005 33.875 3.8125 C31.29298134 4.30099002 30.08003173 3.8973653 27.5625 3.25 C24.88947981 3.1572941 22.23837931 3.20540201 19.5625 3.25 C19.5625 2.59 19.5625 1.93 19.5625 1.25 C18.54929687 1.683125 18.54929687 1.683125 17.515625 2.125 C16.62359375 2.49625 15.7315625 2.8675 14.8125 3.25 C13.93078125 3.62125 13.0490625 3.9925 12.140625 4.375 C9.5625 5.25 9.5625 5.25 5.5625 5.25 C4.94375 4.5075 4.94375 4.5075 4.3125 3.75 C1.40467054 1.25757475 -1.71565331 2.06695836 -5.4375 2.25 C-3.4375 0.25 -3.4375 0.25 0 0 Z " fill="#FFFFFF" transform="translate(49.4375,179.75)"/>
<path d="M0 0 C0.66 1.32 1.32 2.64 2 4 C7.77759884 4.12036664 13.27959989 3.8320582 19 3 C19.495 3.99 19.495 3.99 20 5 C23.63 5 27.26 5 31 5 C31 5.66 31 6.32 31 7 C27.04 7 23.08 7 19 7 C18.505 5.515 18.505 5.515 18 4 C17.236875 4.33 16.47375 4.66 15.6875 5 C10.74825349 6.33945668 6.08536891 6.16287658 1 6 C0.34 4.68 -0.32 3.36 -1 2 C-2.22976562 2.45052734 -2.22976562 2.45052734 -3.484375 2.91015625 C-5.10085937 3.48056641 -5.10085937 3.48056641 -6.75 4.0625 C-7.81734375 4.44535156 -8.8846875 4.82820312 -9.984375 5.22265625 C-12.92280042 5.98010011 -14.22348948 6.07151741 -17 5 C-14.54285453 4.16301614 -12.08441143 3.33027576 -9.625 2.5 C-8.92632812 2.26152344 -8.22765625 2.02304688 -7.5078125 1.77734375 C-2.2265625 0 -2.2265625 0 0 0 Z " fill="#FFFFFF" transform="translate(48,8)"/>
<path d="M0 0 C0 0.66 0 1.32 0 2 C0.721875 1.649375 1.44375 1.29875 2.1875 0.9375 C5.34455624 -0.11485208 6.84289824 0.14672925 10 1 C10.66 1 11.32 1 12 1 C12.99 1 13.98 1 15 1 C13.6875 2.5 13.6875 2.5 12 4 C11.01 4 10.02 4 9 4 C8.505 3.01 8.505 3.01 8 2 C7.44570312 2.16757813 6.89140625 2.33515625 6.3203125 2.5078125 C5.59585938 2.71148437 4.87140625 2.91515625 4.125 3.125 C3.40570313 3.33382812 2.68640625 3.54265625 1.9453125 3.7578125 C1.30335937 3.83773437 0.66140625 3.91765625 0 4 C-0.66 3.34 -1.32 2.68 -2 2 C-2.7425 2.33 -3.485 2.66 -4.25 3 C-8.588963 4.1570568 -12.34489947 4.08770527 -16.80859375 4.00390625 C-21.5730012 3.99807466 -26.26835364 4.47840119 -31 5 C-30.67 4.34 -30.34 3.68 -30 3 C-28.84242187 2.93941406 -27.68484375 2.87882812 -26.4921875 2.81640625 C-24.95311543 2.73194498 -23.41405345 2.64729982 -21.875 2.5625 C-21.11445312 2.52318359 -20.35390625 2.48386719 -19.5703125 2.44335938 C-14.5571717 2.16245062 -9.69238313 1.69232709 -4.8125 0.4375 C-3 0 -3 0 0 0 Z " fill="#FFFFFF" transform="translate(69,75)"/>
<path d="M0 0 C0 0.33 0 0.66 0 1 C-0.75925781 0.97679687 -1.51851562 0.95359375 -2.30078125 0.9296875 C-3.79158203 0.90261719 -3.79158203 0.90261719 -5.3125 0.875 C-6.29863281 0.85179687 -7.28476563 0.82859375 -8.30078125 0.8046875 C-11.22406527 0.79317361 -11.22406527 0.79317361 -14 3 C-17.59504101 3.2294707 -20.53805657 2.86548586 -24 2 C-24.99 2.495 -24.99 2.495 -26 3 C-27.99960012 3.039992 -30.00047242 3.04346799 -32 3 C-32 2.34 -32 1.68 -32 1 C-36.83628305 1.99043705 -41.47618873 2.95698846 -46 5 C-43.15240273 1.95601671 -41.30153445 0.11001599 -36.95703125 -0.09765625 C-36.24933594 -0.08605469 -35.54164062 -0.07445312 -34.8125 -0.0625 C-32.9253125 -0.0315625 -32.9253125 -0.0315625 -31 0 C-31 0.66 -31 1.32 -31 2 C-30.113125 1.67 -29.22625 1.34 -28.3125 1 C-24.31795518 -0.20590032 -21.51983378 -0.41795429 -17.5 0.6875 C-14.89711625 1.29963954 -14.89711625 1.29963954 -12.8125 -0.5625 C-8.42787721 -2.80352943 -4.59596875 -1.24046535 0 0 Z " fill="#FFFFFF" transform="translate(87,132)"/>
<path d="M0 0 C0.928125 0.1546875 0.928125 0.1546875 1.875 0.3125 C2.535 -0.3475 3.195 -1.0075 3.875 -1.6875 C6.0390625 -1.6640625 6.0390625 -1.6640625 8.5 -1.3125 C9.72589844 -1.14621094 9.72589844 -1.14621094 10.9765625 -0.9765625 C11.60304688 -0.88117187 12.22953125 -0.78578125 12.875 -0.6875 C12.875 -0.0275 12.875 0.6325 12.875 1.3125 C10.85677083 0.98697917 8.83854167 0.66145833 6.8203125 0.3359375 C6.17835937 0.32820313 5.53640625 0.32046875 4.875 0.3125 C4.215 0.9725 3.555 1.6325 2.875 2.3125 C-0.85796326 2.69536803 -1.90126323 2.46165785 -5.125 0.3125 C-7.13394394 0.95170943 -9.13279443 1.62289038 -11.125 2.3125 C-13.45712027 2.38772969 -15.7935311 2.40575876 -18.125 2.3125 C-17.795 1.6525 -17.465 0.9925 -17.125 0.3125 C-15.13273831 0.02330072 -13.13777818 -0.26014551 -11.1328125 -0.44140625 C-4.048294 -1.30974218 -4.048294 -1.30974218 0 0 Z " fill="#FFFFFF" transform="translate(111.125,55.6875)"/>
<path d="M0 0 C0 0.66 0 1.32 0 2 C-2.97411124 3.23921302 -5.85262818 4.30058404 -9 5 C-9 4.34 -9 3.68 -9 3 C-13.59779161 3.45977916 -16.89977438 3.87919365 -21 6 C-23.75 6.125 -23.75 6.125 -26 6 C-26 5.01 -26 4.02 -26 3 C-25.38125 3.20625 -24.7625 3.4125 -24.125 3.625 C-23.073125 3.810625 -23.073125 3.810625 -22 4 C-21.34 3.34 -20.68 2.68 -20 2 C-17.25 1.8046875 -17.25 1.8046875 -14 1.875 C-12.39125 1.90207031 -12.39125 1.90207031 -10.75 1.9296875 C-9.38875 1.96449219 -9.38875 1.96449219 -8 2 C-5.9254644 2.1490712 -5.9254644 2.1490712 -4 1 C-2 0 -2 0 0 0 Z " fill="#FFFFFF" transform="translate(192,197)"/>
<path d="M0 0 C0 0.66 0 1.32 0 2 C3.63 2 7.26 2 11 2 C11.495 2.99 11.495 2.99 12 4 C10.87980469 3.91621094 9.75960937 3.83242187 8.60546875 3.74609375 C7.13283444 3.64291555 5.66017692 3.54006821 4.1875 3.4375 C3.44951172 3.38142578 2.71152344 3.32535156 1.95117188 3.26757812 C-1.36788516 3.04230276 -3.81232564 2.93744188 -7 4 C-9.39490986 4.06970052 -11.79167691 4.08448003 -14.1875 4.0625 C-15.45980469 4.05347656 -16.73210938 4.04445313 -18.04296875 4.03515625 C-19.50669922 4.01775391 -19.50669922 4.01775391 -21 4 C-19 2 -19 2 -16.609375 1.875 C-15.66578125 1.91625 -14.7221875 1.9575 -13.75 2 C-8.8382495 2.1029987 -4.6375119 0 0 0 Z " fill="#FFFFFF" transform="translate(54,113)"/>
<path d="M0 0 C5.875 0.875 5.875 0.875 7 2 C7.67963565 6.75744952 7.0411457 9.47840297 4.3125 13.3125 C1.86236556 16.32133493 -0.11695633 18.08634267 -4 19 C-2.35 17.35 -0.7 15.7 1 14 C0.67 13.01 0.34 12.02 0 11 C0.825 10.608125 1.65 10.21625 2.5 9.8125 C3.325 9.214375 4.15 8.61625 5 8 C5.41780879 5.37305578 5.41780879 5.37305578 5 3 C2.525 2.01 2.525 2.01 0 1 C0 0.67 0 0.34 0 0 Z " fill="#FFFFFF" transform="translate(14,82)"/>
<path d="M0 0 C0.33 0.66 0.66 1.32 1 2 C-0.60203467 2.36368892 -2.20674203 2.71561952 -3.8125 3.0625 C-4.70582031 3.25972656 -5.59914063 3.45695312 -6.51953125 3.66015625 C-9 4 -9 4 -12 3 C-12.99 3.495 -12.99 3.495 -14 4 C-17.57045761 4.15523729 -20.56567189 3.91582083 -24 3 C-25.32 3 -26.64 3 -28 3 C-27.67 2.34 -27.34 1.68 -27 1 C-23.88667334 0.92587317 -21.06798451 0.9872529 -18 1.5625 C-14.73569551 2.03854441 -12.22296967 1.58599449 -9 1 C-8.34 1.33 -7.68 1.66 -7 2 C-4.6505947 1.39239518 -2.31470912 0.72870472 0 0 Z " fill="#FFFFFF" transform="translate(122,75)"/>
<path d="M0 0 C0.680625 1.423125 0.680625 1.423125 1.375 2.875 C2.80238254 6.00313679 2.80238254 6.00313679 5 8 C3.125 7.875 3.125 7.875 1 7 C-0.25 3.9375 -0.25 3.9375 -1 1 C-7.32412926 3.52651318 -10.42637943 6.19286657 -14 12 C-14.66 11.67 -15.32 11.34 -16 11 C-14.92646259 9.5344405 -13.8407446 8.07779848 -12.75 6.625 C-12.14671875 5.81289062 -11.5434375 5.00078125 -10.921875 4.1640625 C-7.5988112 0.42223862 -4.91880427 -0.2732669 0 0 Z " fill="#FFFFFF" transform="translate(26,7)"/>
<path d="M0 0 C0.33 0.66 0.66 1.32 1 2 C7.93 2 14.86 2 22 2 C22.33 2.66 22.66 3.32 23 4 C19.25014675 4.0871747 15.50055445 4.14045003 11.75 4.1875 C10.15478516 4.22520508 10.15478516 4.22520508 8.52734375 4.26367188 C7.50253906 4.27333984 6.47773437 4.28300781 5.421875 4.29296875 C4.47924805 4.3086792 3.53662109 4.32438965 2.56542969 4.34057617 C-0.42310174 3.94383071 -1.77689217 2.98295729 -4 1 C-2 0 -2 0 0 0 Z " fill="#FFFFFF" transform="translate(69,143)"/>
<path d="M0 0 C0.66 0.33 1.32 0.66 2 1 C1.030625 1.598125 0.06125 2.19625 -0.9375 2.8125 C-4.23052042 4.71127509 -4.23052042 4.71127509 -5 8 C-4.67 8.99 -4.34 9.98 -4 11 C-4.66 11 -5.32 11 -6 11 C-5.34 12.98 -4.68 14.96 -4 17 C-7 15 -7 15 -7.43359375 12.9765625 C-7.44419043 6.59735955 -7.44419043 6.59735955 -5.1875 3.5625 C-3.4805646 2.34326043 -1.74535785 1.1635719 0 0 Z " fill="#FFFFFF" transform="translate(114,174)"/>
<path d="M0 0 C0 0.66 0 1.32 0 2 C4.455 1.505 4.455 1.505 9 1 C5.3558226 3.4294516 3.28758728 3.16179575 -1 3 C-1.33 2.34 -1.66 1.68 -2 1 C-2.61488281 1.22816406 -3.22976562 1.45632812 -3.86328125 1.69140625 C-4.67152344 1.97886719 -5.47976562 2.26632813 -6.3125 2.5625 C-7.51326172 2.99755859 -7.51326172 2.99755859 -8.73828125 3.44140625 C-11 4 -11 4 -14 3 C-4.58997722 -1.77676538 -4.58997722 -1.77676538 0 0 Z " fill="#FFFFFF" transform="translate(24,116)"/>
<path d="M0 0 C1.9453125 0.2421875 1.9453125 0.2421875 4.125 0.875 C4.84945313 1.07867187 5.57390625 1.28234375 6.3203125 1.4921875 C6.87460937 1.65976563 7.42890625 1.82734375 8 2 C7.67 2.66 7.34 3.32 7 4 C5.39125 3.7215625 5.39125 3.7215625 3.75 3.4375 C0.49973859 3.05830284 -1.03041967 2.97600678 -4 4 C-5.33333333 4.33333333 -6.66666667 4.66666667 -8 5 C-7.34 3.68 -6.68 2.36 -6 1 C-5.38125 1.20625 -4.7625 1.4125 -4.125 1.625 C-3.073125 1.810625 -3.073125 1.810625 -2 2 C-1.34 1.34 -0.68 0.68 0 0 Z " fill="#FFFFFF" transform="translate(257,197)"/>
<path d="M0 0 C1.5625 1.1875 1.5625 1.1875 3 3 C2.625 5.4375 2.625 5.4375 2 8 C2.226875 8.680625 2.45375 9.36125 2.6875 10.0625 C2.790625 10.701875 2.89375 11.34125 3 12 C1.0625 14.25 1.0625 14.25 -1 16 C-1.66 15.67 -2.32 15.34 -3 15 C-1.68 13.68 -0.36 12.36 1 11 C0.34 9.68 -0.32 8.36 -1 7 C-0.34 6.67 0.32 6.34 1 6 C0.67 4.02 0.34 2.04 0 0 Z " fill="#FFFFFF" transform="translate(12,150)"/>
<path d="M0 0 C0 0.66 0 1.32 0 2 C1.32 1.67 2.64 1.34 4 1 C3.67 1.66 3.34 2.32 3 3 C0.12890625 3.44921875 0.12890625 3.44921875 -3.4375 3.6875 C-5.19900391 3.81705078 -5.19900391 3.81705078 -6.99609375 3.94921875 C-10 4 -10 4 -12 3 C-12.33 3.99 -12.66 4.98 -13 6 C-13 4.68 -13 3.36 -13 2 C-11.39125 2.061875 -11.39125 2.061875 -9.75 2.125 C-5.99514419 1.99983814 -3.47124701 0 0 0 Z " fill="#FFFFFF" transform="translate(120,130)"/>
<path d="M0 0 C-7.209025 3.3161515 -14.12944269 3.67942955 -22 4 C-19.45495622 1.45495622 -18.28122968 1.69296337 -14.75 1.5 C-9.71632803 1.1442169 -4.67304345 -1.55768115 0 0 Z " fill="#FFFFFF" transform="translate(65,146)"/>
<path d="M0 0 C0.7425 0.309375 1.485 0.61875 2.25 0.9375 C6.9202708 2.89999849 6.9202708 2.89999849 11.75 2.0625 C12.4925 1.711875 13.235 1.36125 14 1 C14 1.66 14 2.32 14 3 C11.46045301 4.66047303 10.25094538 5.02788282 7.1875 4.6875 C5.6096875 4.3471875 5.6096875 4.3471875 4 4 C1.66742506 3.66140041 -0.66574212 3.3267961 -3 3 C-2.01 2.01 -1.02 1.02 0 0 Z " fill="#FFFFFF" transform="translate(64,52)"/>
<path d="M0 0 C0.66 0.33 1.32 0.66 2 1 C0.7625 1.5878125 0.7625 1.5878125 -0.5 2.1875 C-1.7375 3.0846875 -1.7375 3.0846875 -3 4 C-3.41780879 6.62694422 -3.41780879 6.62694422 -3 9 C-2.01 9.33 -1.02 9.66 0 10 C-1.32 10.99 -2.64 11.98 -4 13 C-4.33 9.7 -4.66 6.4 -5 3 C-2.625 1.4375 -2.625 1.4375 0 0 Z " fill="#FFFFFF" transform="translate(79,106)"/>
<path d="M0 0 C0.33 0.99 0.66 1.98 1 3 C3.00016466 4.20882096 3.00016466 4.20882096 5 5 C3.35 5 1.7 5 0 5 C-0.33 4.01 -0.66 3.02 -1 2 C-1.86625 2.33 -2.7325 2.66 -3.625 3 C-6.95718275 3.98731341 -9.55159538 4.16420974 -13 4 C-13 3.67 -13 3.34 -13 3 C-11.2092015 2.49689942 -9.41733089 1.99761372 -7.625 1.5 C-6.62726562 1.2215625 -5.62953125 0.943125 -4.6015625 0.65625 C-2 0 -2 0 0 0 Z " fill="#FFFFFF" transform="translate(54,31)"/>
<path d="M0 0 C0.33 0 0.66 0 1 0 C1.04254356 1.99954746 1.04080783 4.00041636 1 6 C0.67 6.33 0.34 6.66 0 7 C0.04125 7.969375 0.0825 8.93875 0.125 9.9375 C0.08375 10.948125 0.0425 11.95875 0 13 C-0.99 13.66 -1.98 14.32 -3 15 C-3.99 14.67 -4.98 14.34 -6 14 C-4.68 13.34 -3.36 12.68 -2 12 C-2.33 10.02 -2.66 8.04 -3 6 C-2.01 5.67 -1.02 5.34 0 5 C0 3.35 0 1.7 0 0 Z " fill="#FFFFFF" transform="translate(15,212)"/>
<path d="M0 0 C0.33 0.99 0.66 1.98 1 3 C0.34 3 -0.32 3 -1 3 C-1.33 2.34 -1.66 1.68 -2 1 C-2.59167969 1.13277344 -3.18335938 1.26554687 -3.79296875 1.40234375 C-7.85446525 2.31005178 -11.91374171 3.2091113 -16 4 C-11.33693423 -0.10349788 -6.03028831 -1.82736009 0 0 Z " fill="#FFFFFF" transform="translate(51,54)"/>
<path d="M0 0 C0 0.66 0 1.32 0 2 C5.445 1.505 5.445 1.505 11 1 C9 3 9 3 6.6171875 3.1953125 C5.71226563 3.17210937 4.80734375 3.14890625 3.875 3.125 C2.50988281 3.09792969 2.50988281 3.09792969 1.1171875 3.0703125 C0.41851562 3.04710937 -0.28015625 3.02390625 -1 3 C-1 2.34 -1 1.68 -1 1 C-2.65 1.66 -4.3 2.32 -6 3 C-6 2.34 -6 1.68 -6 1 C-4 0 -4 0 0 0 Z " fill="#FFFFFF" transform="translate(108,37)"/>
<path d="M0 0 C0.99 0.33 1.98 0.66 3 1 C3 1.99 3 2.98 3 4 C6.465 3.505 6.465 3.505 10 3 C9.67 3.66 9.34 4.32 9 5 C6.69 5 4.38 5 2 5 C2 4.01 2 3.02 2 2 C0.35 2.66 -1.3 3.32 -3 4 C-3 3.34 -3 2.68 -3 2 C-2.01 1.34 -1.02 0.68 0 0 Z " fill="#FFFFFF" transform="translate(215,197)"/>
<path d="M0 0 C0.33 0.99 0.66 1.98 1 3 C1.66 3.33 2.32 3.66 3 4 C1.02 4.99 1.02 4.99 -1 6 C-1 4.35 -1 2.7 -1 1 C-1.99 1.495 -1.99 1.495 -3 2 C-4.99960012 2.039992 -7.00047242 2.04346799 -9 2 C-9 1.67 -9 1.34 -9 1 C-5.846632 0.29925156 -3.27275026 0 0 0 Z " fill="#FFFFFF" transform="translate(68,33)"/>
<path d="M0 0 C0.66 0.66 1.32 1.32 2 2 C0.80375 1.938125 -0.3925 1.87625 -1.625 1.8125 C-5.73497595 1.79056063 -8.4478261 2.86869566 -12 5 C-11 2 -11 2 -9.375 0.8125 C-6.13855391 -0.29470524 -3.39386815 -0.25139764 0 0 Z " fill="#FFFFFF" transform="translate(76,201)"/>
<path d="M0 0 C0.99 0 1.98 0 3 0 C3 0.99 3 1.98 3 3 C5.31 3 7.62 3 10 3 C10 3.33 10 3.66 10 4 C7.36 4 4.72 4 2 4 C1.67 3.34 1.34 2.68 1 2 C-0.98 2.99 -0.98 2.99 -3 4 C-1.6875 2 -1.6875 2 0 0 Z " fill="#FFFFFF" transform="translate(228,196)"/>
<path d="M0 0 C0.66 0.33 1.32 0.66 2 1 C0.7934375 2.36125 0.7934375 2.36125 -0.4375 3.75 C-2.41142671 6.10309908 -3.63877467 7.86938046 -4 11 C-4.66 11 -5.32 11 -6 11 C-5.55530671 5.96014269 -3.28656638 3.62365012 0 0 Z " fill="#FFFFFF" transform="translate(94,5)"/>
<path d="M0 0 C1.6875 2.5 1.6875 2.5 3 5 C2.4225 4.67 1.845 4.34 1.25 4 C-1.19883862 2.72924102 -1.19883862 2.72924102 -5 3 C-5 2.34 -5 1.68 -5 1 C-3 0 -3 0 0 0 Z " fill="#FFFFFF" transform="translate(76,33)"/>
<path d="M0 0 C0.66 0 1.32 0 2 0 C1.979375 1.11375 1.95875 2.2275 1.9375 3.375 C1.73619282 6.83215921 1.73619282 6.83215921 3 9 C2.01 8.67 1.02 8.34 0 8 C0 5.36 0 2.72 0 0 Z " fill="#FFFFFF" transform="translate(90,16)"/>
<path d="M0 0 C0.66 0 1.32 0 2 0 C1.75 2.375 1.75 2.375 1 5 C-1.0625 6.3125 -1.0625 6.3125 -3 7 C-2.505 6.401875 -2.01 5.80375 -1.5 5.1875 C0.28276418 3.02970006 0.28276418 3.02970006 0 0 Z " fill="#FFFFFF" transform="translate(158,154)"/>
<path d="M0 0 C0.33 0 0.66 0 1 0 C1 1.65 1 3.3 1 5 C-0.65 5 -2.3 5 -4 5 C-2.69254251 3.31295807 -1.35827971 1.64639965 0 0 Z " fill="#FFFFFF" transform="translate(123,42)"/>
<path d="M0 0 C0.33 0 0.66 0 1 0 C1 1.98 1 3.96 1 6 C-0.65 6.33 -2.3 6.66 -4 7 C-3.01 6.34 -2.02 5.68 -1 5 C-0.27034634 2.43717258 -0.27034634 2.43717258 0 0 Z " fill="#FFFFFF" transform="translate(272,199)"/>
<path d="M0 0 C0.33 0.66 0.66 1.32 1 2 C2.98 1.34 4.96 0.68 7 0 C5.75 1.5 5.75 1.5 4 3 C2.68 3 1.36 3 0 3 C0 2.01 0 1.02 0 0 Z " fill="#FFFFFF" transform="translate(35,183)"/>
<path d="M0 0 C1.32 0 2.64 0 4 0 C4 0.66 4 1.32 4 2 C2.35 2.33 0.7 2.66 -1 3 C-0.67 2.01 -0.34 1.02 0 0 Z " fill="#FFFFFF" transform="translate(3,119)"/>
<path d="M0 0 C-4.43076923 2.09230769 -4.43076923 2.09230769 -7.3125 1.625 C-7.869375 1.41875 -8.42625 1.2125 -9 1 C-3.375 -1.125 -3.375 -1.125 0 0 Z " fill="#FFFFFF" transform="translate(61,56)"/>
<path d="M0 0 C0.66 0 1.32 0 2 0 C1.67 1.32 1.34 2.64 1 4 C-0.32 4.33 -1.64 4.66 -3 5 C-3 4.34 -3 3.68 -3 3 C-2.01 2.34 -1.02 1.68 0 1 C0 0.67 0 0.34 0 0 Z " fill="#FFFFFF" transform="translate(128,134)"/>
<path d="M0 0 C0.99 0 1.98 0 3 0 C3 0.66 3 1.32 3 2 C2.34 2 1.68 2 1 2 C0.67 2.66 0.34 3.32 0 4 C0 2.68 0 1.36 0 0 Z " fill="#FFFFFF" transform="translate(271,187)"/>
<path d="M0 0 C0.66 0.33 1.32 0.66 2 1 C1.01 1.99 0.02 2.98 -1 4 C-1.66 3.67 -2.32 3.34 -3 3 C-2.01 2.67 -1.02 2.34 0 2 C0 1.34 0 0.68 0 0 Z " fill="#FFFFFF" transform="translate(130,61)"/>
<path d="M0 0 C2.64 0 5.28 0 8 0 C8 0.33 8 0.66 8 1 C5.36 1 2.72 1 0 1 C0 0.67 0 0.34 0 0 Z " fill="#FFFFFF" transform="translate(33,35)"/>
<path d="M0 0 C2.475 0.99 2.475 0.99 5 2 C3.68 2.33 2.36 2.66 1 3 C0.67 2.01 0.34 1.02 0 0 Z " fill="#FFFFFF" transform="translate(76,119)"/>
<path d="M0 0 C0.99 0.33 1.98 0.66 3 1 C2.67 1.99 2.34 2.98 2 4 C1.34 2.68 0.68 1.36 0 0 Z " fill="#FFFFFF" transform="translate(12,208)"/>
<path d="M0 0 C0.33 0.99 0.66 1.98 1 3 C0.01 2.67 -0.98 2.34 -2 2 C-1.34 2 -0.68 2 0 2 C0 1.34 0 0.68 0 0 Z " fill="#FFFFFF" transform="translate(126,82)"/>
<path d="M0 0 C0.99 0.495 0.99 0.495 2 1 C2 1.66 2 2.32 2 3 C1.34 3 0.68 3 0 3 C0 2.01 0 1.02 0 0 Z " fill="#FFFFFF" transform="translate(85,80)"/>
<path d="M0 0 C0.66 0 1.32 0 2 0 C2 0.66 2 1.32 2 2 C1.34 2 0.68 2 0 2 C0 1.34 0 0.68 0 0 Z " fill="#FFFFFF" transform="translate(140,205)"/>
<path d="M0 0 C1 4 1 4 1 4 Z " fill="#FFFFFF" transform="translate(81,39)"/>
<path d="M0 0 C3 1 3 1 3 1 Z " fill="#FFFFFF" transform="translate(78,203)"/>
<path d="M0 0 C0.99 0.495 0.99 0.495 2 1 C1.01 1.495 1.01 1.495 0 2 C0 1.34 0 0.68 0 0 Z " fill="#FFFFFF" transform="translate(141,195)"/>
<path d="M0 0 C0.66 0.66 1.32 1.32 2 2 C1.34 2 0.68 2 0 2 C0 1.34 0 0.68 0 0 Z " fill="#FFFFFF" transform="translate(10,148)"/>
<path d="M0 0 C0.33 0.66 0.66 1.32 1 2 C0.34 1.67 -0.32 1.34 -1 1 C-0.67 0.67 -0.34 0.34 0 0 Z " fill="#FFFFFF" transform="translate(129,126)"/>
<path d="M0 0 C0.99 0.495 0.99 0.495 2 1 C1.01 1.495 1.01 1.495 0 2 C0 1.34 0 0.68 0 0 Z " fill="#FFFFFF" transform="translate(127,73)"/>
<path d="M0 0 C0.99 0.495 0.99 0.495 2 1 C1.01 1.495 1.01 1.495 0 2 C0 1.34 0 0.68 0 0 Z " fill="#FFFFFF" transform="translate(130,52)"/>
<path d="M0 0 C0.66 0.66 1.32 1.32 2 2 C1.34 2 0.68 2 0 2 C0 1.34 0 0.68 0 0 Z " fill="#FFFFFF" transform="translate(81,30)"/>
<path d="M0 0 C2 1 2 1 2 1 Z " fill="#FFFFFF" transform="translate(42,182)"/>
<path d="M0 0 C2 1 2 1 2 1 Z " fill="#FFFFFF" transform="translate(94,146)"/>
<path d="M0 0 C2 1 2 1 2 1 Z " fill="#FFFFFF" transform="translate(157,142)"/>
<path d="" fill="#FFFFFF" transform="translate(0,0)"/>
<path d="" fill="#FFFFFF" transform="translate(0,0)"/>
<path d="" fill="#FFFFFF" transform="translate(0,0)"/>
<path d="M0 0 C2 1 2 1 2 1 Z " fill="#FFFFFF" transform="translate(81,58)"/>
<path d="" fill="#FFFFFF" transform="translate(0,0)"/>
<path d="" fill="#FFFFFF" transform="translate(0,0)"/>
<path d="" fill="#FFFFFF" transform="translate(0,0)"/>
</svg>
