<?xml version="1.0" encoding="UTF-8"?>
<svg version="1.1" xmlns="http://www.w3.org/2000/svg" width="350" height="230">
<path d="M0 0 C0.66 0.99 1.32 1.98 2 3 C4.52733235 3.65555119 4.52733235 3.65555119 7 4 C7.33 4.33 7.66 4.66 8 5 C9.9935143 5.12369325 11.9913647 5.1779639 13.98852539 5.20532227 C15.26977798 5.22526749 16.55103058 5.24521271 17.87110901 5.26576233 C19.27995684 5.28274797 20.68880595 5.29962673 22.09765625 5.31640625 C23.53112905 5.33696915 24.96459569 5.35796544 26.39805603 5.37937927 C30.1775312 5.43466859 33.9570617 5.48404745 37.7366333 5.53222656 C41.59074855 5.58239165 45.44478309 5.63810371 49.29882812 5.69335938 C56.86581714 5.80102479 64.4328731 5.90245097 72 6 C72 6.33 72 6.66 72 7 C50.88 7.33 29.76 7.66 8 8 C7.67 8.66 7.34 9.32 7 10 C4.03 9.505 4.03 9.505 1 9 C0.01 11.64 -0.98 14.28 -2 17 C-7.94 17 -13.88 17 -20 17 C-20 16.67 -20 16.34 -20 16 C-14.39 16 -8.78 16 -3 16 C-2.01 10.72 -1.02 5.44 0 0 Z " fill="#FFFFFF" transform="translate(178,163)"/>
<path d="M0 0 C6.28260706 -0.23268915 11.88019467 0.59545452 18 2 C17.38511719 2.29003906 16.77023437 2.58007812 16.13671875 2.87890625 C12.40860515 4.83497317 10.32926754 7.01219737 9 11 C9.99 11.33 10.98 11.66 12 12 C11.01 12.495 11.01 12.495 10 13 C7.375 12.0625 7.375 12.0625 5 11 C6.25541557 13.51083114 7.50063488 13.87125446 10 15 C8.35 15 6.7 15 5 15 C1.98421843 21.26177547 -0.58495328 27.18204762 -2 34 C-6.29 34 -10.58 34 -15 34 C-15 33.67 -15 33.34 -15 33 C-11.04 33 -7.08 33 -3 33 C-2.731875 31.329375 -2.46375 29.65875 -2.1875 27.9375 C-1.3394576 23.21530704 -0.10141136 19.29834141 2 15 C1.34 14.34 0.68 13.68 0 13 C1.32 13 2.64 13 4 13 C4 12.34 4 11.68 4 11 C3.01 10.67 2.02 10.34 1 10 C2.32 10 3.64 10 5 10 C4.67 7.03 4.34 4.06 4 1 C2.68 0.67 1.36 0.34 0 0 Z M5 1 C5.33 1.99 5.66 2.98 6 4 C6.33 3.01 6.66 2.02 7 1 C6.34 1 5.68 1 5 1 Z M8 2 C7.67 4.31 7.34 6.62 7 9 C10.42578949 5.82460444 10.42578949 5.82460444 13 2 C11.35 2 9.7 2 8 2 Z " fill="#FFFFFF" transform="translate(265,137)"/>
<path d="M0 0 C18.58300372 -0.19201726 18.58300372 -0.19201726 26 1 C27.72587545 2.72587545 27.21108081 5.07082118 27.28125 7.42578125 C27.31863281 8.53244141 27.35601562 9.63910156 27.39453125 10.77929688 C27.44673828 12.52823242 27.44673828 12.52823242 27.5 14.3125 C27.56898138 16.60038246 27.64174342 18.88815485 27.71875 21.17578125 C27.74904297 22.19583252 27.77933594 23.21588379 27.81054688 24.2668457 C27.9758753 26.65196392 28.32612019 28.71474259 29 31 C29.33 30.34 29.66 29.68 30 29 C30.66 29.33 31.32 29.66 32 30 C30.35 32.97 28.7 35.94 27 39 C25.35 39 23.7 39 22 39 C22.99 38.34 23.98 37.68 25 37 C24.62746094 36.37351563 24.25492187 35.74703125 23.87109375 35.1015625 C23.39800781 34.28429687 22.92492187 33.46703125 22.4375 32.625 C21.96183594 31.81289062 21.48617188 31.00078125 20.99609375 30.1640625 C20.50302734 29.09285156 20.50302734 29.09285156 20 28 C20.33 27.34 20.66 26.68 21 26 C23.475 29.465 23.475 29.465 26 33 C25.67 23.1 25.34 13.2 25 3 C16.75 2.34 8.5 1.68 0 1 C0 0.67 0 0.34 0 0 Z " fill="#FFFFFF" transform="translate(259,42)"/>
<path d="M0 0 C3.96 0 7.92 0 12 0 C11.979375 1.423125 11.95875 2.84625 11.9375 4.3125 C11.33652792 14.40608444 11.33652792 14.40608444 15 23 C15 23.99 15 24.98 15 26 C20.28 26 25.56 26 31 26 C31 26.33 31 26.66 31 27 C8.19872014 27.20638953 8.19872014 27.20638953 -1 26 C-1 25.67 -1 25.34 -1 25 C2.3 25 5.6 25 9 25 C9.81814192 21.72743232 10.11871834 19.52006101 10.09765625 16.234375 C10.09443359 15.34492187 10.09121094 14.45546875 10.08789062 13.5390625 C10.07951172 12.61867188 10.07113281 11.69828125 10.0625 10.75 C10.05798828 9.81414062 10.05347656 8.87828125 10.04882812 7.9140625 C10.03706938 5.60934753 10.01913468 3.30466554 10 1 C6.7 1 3.4 1 0 1 C0 0.67 0 0.34 0 0 Z " fill="#FFFFFF" transform="translate(114,109)"/>
<path d="M0 0 C4.29 0 8.58 0 13 0 C11.68 0.33 10.36 0.66 9 1 C9 1.99 9 2.98 9 4 C10.98 4 12.96 4 15 4 C15 4.33 15 4.66 15 5 C12.69 5 10.38 5 8 5 C8 5.66 8 6.32 8 7 C9.32 7.33 10.64 7.66 12 8 C10.68 8 9.36 8 8 8 C8 12.62 8 17.24 8 22 C9.65 21.67 11.3 21.34 13 21 C14.70583768 20.88852429 16.41557371 20.82556901 18.125 20.8125 C18.97320312 20.79832031 19.82140625 20.78414062 20.6953125 20.76953125 C23 21 23 21 26 23 C19.73 23 13.46 23 7 23 C7 18.05 7 13.1 7 8 C5.02 8 3.04 8 1 8 C1 7.67 1 7.34 1 7 C2.98 7 4.96 7 7 7 C7 6.34 7 5.68 7 5 C5.35 5 3.7 5 2 5 C2 4.67 2 4.34 2 4 C3.98 4 5.96 4 8 4 C8 3.01 8 2.02 8 1 C5.36 1 2.72 1 0 1 C0 0.67 0 0.34 0 0 Z " fill="#FFFFFF" transform="translate(79,84)"/>
<path d="M0 0 C0.66 0 1.32 0 2 0 C2.7425 0.78375 3.485 1.5675 4.25 2.375 C9.78551095 7.65889681 15.95804397 7.28696391 23.1875 7.1875 C24.54004883 7.1865332 24.54004883 7.1865332 25.91992188 7.18554688 C31.04107786 7.16462003 31.04107786 7.16462003 36 6 C38.15625 5.796875 38.15625 5.796875 40.5 5.75 C41.2734375 5.72421875 42.046875 5.6984375 42.84375 5.671875 C45.52226174 6.07947461 46.17922021 7.07890176 48 9 C51.12549017 9.25048636 51.12549017 9.25048636 54 9 C53.67 9.66 53.34 10.32 53 11 C50.1875 11.1875 50.1875 11.1875 47 11 C46.525625 10.505 46.05125 10.01 45.5625 9.5 C43.93819545 7.62071363 43.93819545 7.62071363 40.5 7.75 C37.02910163 7.85261432 37.02910163 7.85261432 34 9 C30.44203747 9.25672409 26.87874967 9.23138943 23.3125 9.25 C21.8594043 9.2809375 21.8594043 9.2809375 20.37695312 9.3125 C14.1937047 9.34594556 9.6017936 8.67718788 4 6 C0 1.8 0 1.8 0 0 Z " fill="#FFFFFF" transform="translate(249,87)"/>
<path d="M0 0 C2.64 0 5.28 0 8 0 C8 2.31 8 4.62 8 7 C9.485 6.7834375 9.485 6.7834375 11 6.5625 C25.65432429 4.47591415 25.65432429 4.47591415 31 5 C31.99 6.485 31.99 6.485 33 8 C35.21932277 8.50776044 35.21932277 8.50776044 37.7890625 8.51171875 C38.73007813 8.54716797 39.67109375 8.58261719 40.640625 8.61914062 C41.62546875 8.64169922 42.6103125 8.66425781 43.625 8.6875 C45.11386719 8.73874023 45.11386719 8.73874023 46.6328125 8.79101562 C49.08842906 8.87365657 51.54368141 8.94275127 54 9 C54 9.33 54 9.66 54 10 C46.74 10 39.48 10 32 10 C31.34 8.68 30.68 7.36 30 6 C29.42894531 6.144375 28.85789062 6.28875 28.26953125 6.4375 C21.12431004 8.07328991 14.30823759 8.20618852 7 8 C7 5.69 7 3.38 7 1 C4.69 1 2.38 1 0 1 C0 0.67 0 0.34 0 0 Z " fill="#FFFFFF" transform="translate(50,60)"/>
<path d="M0 0 C0.86882812 0.00644531 1.73765625 0.01289062 2.6328125 0.01953125 C4.875 0.1875 4.875 0.1875 6.875 1.1875 C10.5707404 1.32121523 14.26078326 1.43537821 17.95898438 1.44140625 C23.26127477 1.60778696 26.26296303 2.57902965 30.28662109 6.08959961 C32.99885674 7.9643189 35.72666542 7.50875863 38.875 7.1875 C38.875 7.8475 38.875 8.5075 38.875 9.1875 C31.52734375 9.83203125 31.52734375 9.83203125 27.6796875 6.71484375 C23.46486252 3.52357868 19.71651023 3.44590099 14.5625 3.4375 C6.0216805 3.26084025 6.0216805 3.26084025 3.875 2.1875 C1.6677077 2.11657158 -0.54167452 2.10334975 -2.75 2.125 C-4.53277344 2.13853516 -4.53277344 2.13853516 -6.3515625 2.15234375 C-7.72441406 2.16974609 -7.72441406 2.16974609 -9.125 2.1875 C-5.96150409 0.32618729 -3.65263845 -0.05996869 0 0 Z " fill="#FFFFFF" transform="translate(263.125,123.8125)"/>
<path d="M0 0 C14.52 0 29.04 0 44 0 C43.67 4.29 43.34 8.58 43 13 C42.67 13 42.34 13 42 13 C41.91615922 8.72412002 42.15271797 5.23641013 43 1 C28.81 1 14.62 1 0 1 C0 0.67 0 0.34 0 0 Z " fill="#FFFFFF" transform="translate(111,24)"/>
<path d="M0 0 C1.65 0 3.3 0 5 0 C3.68 0.33 2.36 0.66 1 1 C1.0721875 2.21429687 1.144375 3.42859375 1.21875 4.6796875 C2.01987119 19.12700135 2.11179895 33.53321553 2 48 C1.67 48 1.34 48 1 48 C0.23845713 31.98937135 -0.14834983 16.02862903 0 0 Z " fill="#FFFFFF" transform="translate(31,18)"/>
<path d="M0 0 C0.83402344 0.20496094 1.66804687 0.40992187 2.52734375 0.62109375 C13.57721699 3.7025955 13.57721699 3.7025955 24.8125 3.3125 C25.8953125 3.1578125 25.8953125 3.1578125 27 3 C29.3125 4.9375 29.3125 4.9375 31 7 C31.66 6.67 32.32 6.34 33 6 C33 7.32 33 8.64 33 10 C30.5625 9.1875 30.5625 9.1875 28 8 C27.67 7.01 27.34 6.02 27 5 C26.484375 5.165 25.96875 5.33 25.4375 5.5 C19.49056668 6.71988376 13.88779159 5.7691018 8.0625 4.5 C7.03672852 4.28537109 7.03672852 4.28537109 5.99023438 4.06640625 C4.32550486 3.71716229 2.66255125 3.35947054 1 3 C0.67 2.01 0.34 1.02 0 0 Z " fill="#FFFFFF" transform="translate(205,26)"/>
<path d="M0 0 C0.33 0 0.66 0 1 0 C1 1.98 1 3.96 1 6 C1.99 6.33 2.98 6.66 4 7 C4 7.66 4 8.32 4 9 C6.64 9 9.28 9 12 9 C12 9.33 12 9.66 12 10 C10.046875 10.22786458 8.09375 10.45572917 6.140625 10.68359375 C3.67008077 11.01301137 3.67008077 11.01301137 0 12 C0 15.63 0 19.26 0 23 C-0.33 23 -0.66 23 -1 23 C-1.10920422 15.25863399 -0.97159933 7.68604474 0 0 Z " fill="#FFFFFF" transform="translate(247,32)"/>
<path d="M0 0 C0.804375 0.433125 0.804375 0.433125 1.625 0.875 C4.35280484 2.16711808 7.12612718 3.08558592 10 4 C5.98843085 5.48576635 5.51869696 4.80747878 1 3 C0.67 13.23 0.34 23.46 0 34 C-0.33 34 -0.66 34 -1 34 C-1.02468857 29.4793335 -1.04285449 24.9587061 -1.05493164 20.43798828 C-1.05996552 18.89956987 -1.06679308 17.36115625 -1.07543945 15.82275391 C-1.08754639 13.61359474 -1.09323769 11.40449874 -1.09765625 9.1953125 C-1.10281754 8.50567413 -1.10797882 7.81603577 -1.11329651 7.10549927 C-1.11387171 2.22774341 -1.11387171 2.22774341 0 0 Z " fill="#FFFFFF" transform="translate(90,127)"/>
<path d="M0 0 C1.98 0 3.96 0 6 0 C6 1.32 6 2.64 6 4 C7.16015625 3.76603516 7.16015625 3.76603516 8.34375 3.52734375 C14.68590856 2.34211362 19.66619473 1.89409749 26 3 C27.99856215 3.2022513 29.99872467 3.38914112 32 3.5625 C32.94875 3.64628906 33.8975 3.73007812 34.875 3.81640625 C35.57625 3.87699219 36.2775 3.93757813 37 4 C37 4.33 37 4.66 37 5 C30.85538873 5.08948463 25.06671194 5.03578009 19 4 C17.32995171 4.31595508 15.66362417 4.65179959 14 5 C10.99809348 5.09127418 8.00239631 5.05887052 5 5 C5 3.68 5 2.36 5 1 C3.35 1 1.7 1 0 1 C0 0.67 0 0.34 0 0 Z " fill="#FFFFFF" transform="translate(75,49)"/>
<path d="M0 0 C2.75 2.5 2.75 2.5 5 5 C9.1968806 5.44966578 12.91159867 4.9911276 17 4 C16.67 4.66 16.34 5.32 16 6 C11.96013124 7.34662292 8.21996909 7.70961913 4 7 C3.236875 6.175 2.47375 5.35 1.6875 4.5 C-1.63312935 1.41104246 -2.88735648 1.6616522 -7.3125 1.6875 C-9.20950296 1.7675906 -11.10617836 1.86407979 -13 2 C-13 2.66 -13 3.32 -13 4 C-13.66 4 -14.32 4 -15 4 C-14.67 3.01 -14.34 2.02 -14 1 C-9.38507983 -0.53830672 -4.81389963 -0.66741381 0 0 Z " fill="#FFFFFF" transform="translate(118,160)"/>
<path d="M0 0 C0.33 0 0.66 0 1 0 C1.02692484 2.29160319 1.04636124 4.58329546 1.0625 6.875 C1.07410156 8.15117187 1.08570312 9.42734375 1.09765625 10.7421875 C1 14 1 14 0 16 C6.93 16 13.86 16 21 16 C21 16.33 21 16.66 21 17 C20.40985107 17.02505615 19.81970215 17.0501123 19.21166992 17.07592773 C16.53673186 17.19200052 13.8621362 17.31467572 11.1875 17.4375 C10.25873047 17.47681641 9.32996094 17.51613281 8.37304688 17.55664062 C7.48037109 17.59853516 6.58769531 17.64042969 5.66796875 17.68359375 C4.84578857 17.72025146 4.0236084 17.75690918 3.17651367 17.79467773 C0.82094822 17.93427772 0.82094822 17.93427772 -2 19 C-1.34 12.73 -0.68 6.46 0 0 Z " fill="#FFFFFF" transform="translate(88,161)"/>
<path d="M0 0 C0.33 0 0.66 0 1 0 C0.43006147 7.26671628 -1.35490391 14.20260212 -4 21 C-7.07521683 22.53760842 -9.34675118 21.36599236 -12.625 20.5625 C-14.40777344 20.13130859 -14.40777344 20.13130859 -16.2265625 19.69140625 C-17.14179688 19.46324219 -18.05703125 19.23507813 -19 19 C-19 18.67 -19 18.34 -19 18 C-17.41632253 18.14204741 -15.83306682 18.28880153 -14.25 18.4375 C-13.36828125 18.51871094 -12.4865625 18.59992188 -11.578125 18.68359375 C-9.30649548 18.96238465 -7.20148177 19.38790577 -5 20 C-4.72285156 18.89140625 -4.44570313 17.7828125 -4.16015625 16.640625 C-2.7734375 11.09375 -1.38671875 5.546875 0 0 Z " fill="#FFFFFF" transform="translate(313,124)"/>
<path d="M0 0 C1.32 0.66 2.64 1.32 4 2 C4 2.66 4 3.32 4 4 C8.42065433 4.65157037 12.2465956 5.12769566 16.6875 4.375 C20.72033137 3.91845305 22.58907188 4.92016578 26 7 C22.20731707 8.26422764 20.70731707 7.23577236 17 6 C16.01 6.33 15.02 6.66 14 7 C6.48127341 7.41011236 6.48127341 7.41011236 3 5 C2.67 4.34 2.34 3.68 2 3 C0.35 3 -1.3 3 -3 3 C-2.01 2.01 -1.02 1.02 0 0 Z " fill="#FFFFFF" transform="translate(145,142)"/>
<path d="M0 0 C1.18372192 0.05426147 1.18372192 0.05426147 2.39135742 0.10961914 C3.21998291 0.16239014 4.0486084 0.21516113 4.90234375 0.26953125 C6.1713855 0.34192017 6.1713855 0.34192017 7.46606445 0.41577148 C13.84919013 0.85091525 19.79461778 1.92205163 25.83984375 4.08203125 C25.50984375 4.74203125 25.17984375 5.40203125 24.83984375 6.08203125 C24.30101562 5.87707031 23.7621875 5.67210938 23.20703125 5.4609375 C13.04889724 2.13327291 2.42841263 2.33564128 -8.16015625 2.08203125 C-5.2725009 0.43095849 -3.3173561 -0.15656132 0 0 Z " fill="#FFFFFF" transform="translate(287.16015625,109.91796875)"/>
<path d="M0 0 C0.99 0.33 1.98 0.66 3 1 C2.34 1 1.68 1 1 1 C1.33 12.88 1.66 24.76 2 37 C-0.10658382 32.78683237 -0.26221542 29.93519357 -0.1953125 25.390625 C-0.1924826 24.66381531 -0.18965271 23.93700562 -0.18673706 23.18817139 C-0.17557523 20.87527749 -0.15047851 18.56277612 -0.125 16.25 C-0.11496501 14.67839102 -0.10584006 13.10677596 -0.09765625 11.53515625 C-0.07564904 7.68995378 -0.04114715 3.84504336 0 0 Z " fill="#FFFFFF" transform="translate(232,77)"/>
<path d="M0 0 C0 1.32 0 2.64 0 4 C0.86951294 4.03758423 0.86951294 4.03758423 1.7565918 4.07592773 C4.40042107 4.19246234 7.04394409 4.31492682 9.6875 4.4375 C11.05551758 4.49647461 11.05551758 4.49647461 12.45117188 4.55664062 C13.33740234 4.59853516 14.22363281 4.64042969 15.13671875 4.68359375 C15.94842529 4.72025146 16.76013184 4.75690918 17.59643555 4.79467773 C20.12144485 5.01037431 22.52600697 5.45899452 25 6 C25 6.33 25 6.66 25 7 C21.04137069 6.86157705 17.08318673 6.71300994 13.125 6.5625 C11.43310547 6.50352539 11.43310547 6.50352539 9.70703125 6.44335938 C8.63066406 6.40146484 7.55429688 6.35957031 6.4453125 6.31640625 C5.45031738 6.27974854 4.45532227 6.24309082 3.43017578 6.20532227 C1 6 1 6 -1 5 C-1.33 4.01 -1.66 3.02 -2 2 C-3.65 2 -5.3 2 -7 2 C-4.35261084 0.5393715 -3.10551666 0 0 0 Z " fill="#FFFFFF" transform="translate(103,30)"/>
<path d="M0 0 C0.80050781 0.03480469 1.60101563 0.06960937 2.42578125 0.10546875 C3.63814453 0.14607422 3.63814453 0.14607422 4.875 0.1875 C5.48988281 0.22230469 6.10476562 0.25710937 6.73828125 0.29296875 C6.73828125 1.94296875 6.73828125 3.59296875 6.73828125 5.29296875 C7.64320313 5.11507812 7.64320313 5.11507812 8.56640625 4.93359375 C11.004138 4.54041121 13.26748913 4.24618955 15.73828125 4.29296875 C18.30078125 6.23046875 18.30078125 6.23046875 19.73828125 8.29296875 C18.74828125 7.96296875 17.75828125 7.63296875 16.73828125 7.29296875 C12.65233292 6.10645615 8.97485731 6.14431696 4.73828125 6.29296875 C5.06828125 4.64296875 5.39828125 2.99296875 5.73828125 1.29296875 C2.10828125 1.95296875 -1.52171875 2.61296875 -5.26171875 3.29296875 C-2.26171875 0.29296875 -2.26171875 0.29296875 0 0 Z " fill="#FFFFFF" transform="translate(209.26171875,37.70703125)"/>
<path d="M0 0 C0.33 0 0.66 0 1 0 C0.67 4.62 0.34 9.24 0 14 C4.95 14 9.9 14 15 14 C15 14.33 15 14.66 15 15 C13.41058594 15.05607422 13.41058594 15.05607422 11.7890625 15.11328125 C10.40100576 15.17893258 9.01298651 15.24538021 7.625 15.3125 C6.92632812 15.33505859 6.22765625 15.35761719 5.5078125 15.38085938 C3.22711059 15.46984296 3.22711059 15.46984296 0 16 C-0.66 16.99 -1.32 17.98 -2 19 C-1.85820962 16.77057252 -1.71140302 14.54146372 -1.5625 12.3125 C-1.48128906 11.07113281 -1.40007813 9.82976562 -1.31640625 8.55078125 C-1.05508683 5.61819663 -0.65201621 2.86558383 0 0 Z " fill="#FFFFFF" transform="translate(31,66)"/>
<path d="M0 0 C0.66 0 1.32 0 2 0 C2.07089844 0.61359375 2.14179688 1.2271875 2.21484375 1.859375 C2.81473051 4.16793553 2.81473051 4.16793553 5.00390625 5.265625 C10.62445831 7.42803587 14.9782609 8.44605475 21 8 C17.11134554 10.59243631 15.07602375 10.09690332 10.58203125 9.55078125 C6.73978086 8.73117867 4.21047714 7.2541648 1 5 C0.67 4.34 0.34 3.68 0 3 C-0.99 3.495 -0.99 3.495 -2 4 C-1.34 2.68 -0.68 1.36 0 0 Z " fill="#FFFFFF" transform="translate(146,153)"/>
<path d="M0 0 C1.35500919 1.31129922 2.68671343 2.64691687 4 4 C6.65196003 4.933572 9.23135213 5.44627043 12 6 C12 6.33 12 6.66 12 7 C3.62313139 6.64201416 3.62313139 6.64201416 0.9375 3.875 C-0.77672973 1.81709552 -0.77672973 1.81709552 -2.87109375 1.85546875 C-7.01798088 2.25874401 -9.90815964 3.03698633 -13 6 C-12.06896676 3.67241689 -11.34617872 2.25642868 -9.3125 0.75 C-6.02348006 -0.31670917 -3.43462094 -0.3679951 0 0 Z " fill="#FFFFFF" transform="translate(267,106)"/>
<path d="M0 0 C1.99954746 -0.04254356 4.00041636 -0.04080783 6 0 C6.33 0.33 6.66 0.66 7 1 C6.77300379 9.01471221 5.17487326 17.08386366 4 25 C3.67 25 3.34 25 3 25 C2.68267362 17.22550376 3.88144701 9.67007765 5 2 C3.35 1.67 1.7 1.34 0 1 C0 0.67 0 0.34 0 0 Z " fill="#FFFFFF" transform="translate(176,138)"/>
<path d="M0 0 C0.33 0 0.66 0 1 0 C-0.67005076 15.67005076 -0.67005076 15.67005076 -2 17 C-4.53049402 17.07313567 -7.03304837 17.09247527 -9.5625 17.0625 C-10.27341797 17.05798828 -10.98433594 17.05347656 -11.71679688 17.04882812 C-13.47790013 17.03700864 -15.23896036 17.01907263 -17 17 C-17 16.67 -17 16.34 -17 16 C-12.38 15.67 -7.76 15.34 -3 15 C-2.01 10.05 -1.02 5.1 0 0 Z " fill="#FFFFFF" transform="translate(144,74)"/>
<path d="M0 0 C0.33 0 0.66 0 1 0 C1.21006872 5.88192418 0.84033285 11.59732795 0.1875 17.4375 C0.11740723 18.14777344 0.04731445 18.85804687 -0.02490234 19.58984375 C-0.26953125 21.62109375 -0.26953125 21.62109375 -1 25 C-1.99 25.66 -2.98 26.32 -4 27 C-3.87882813 26.3915625 -3.75765625 25.783125 -3.6328125 25.15625 C-2.03768833 16.81252355 -0.99443409 8.43153162 0 0 Z " fill="#FFFFFF" transform="translate(197,26)"/>
<path d="M0 0 C0 0.33 0 0.66 0 1 C-9.24 1 -18.48 1 -28 1 C-28 0.67 -28 0.34 -28 0 C-6.32258065 -1.58064516 -6.32258065 -1.58064516 0 0 Z " fill="#FFFFFF" transform="translate(173,136)"/>
<path d="M0 0 C0.33 0 0.66 0 1 0 C0.67 5.94 0.34 11.88 0 18 C1.98 18 3.96 18 6 18 C6 18.33 6 18.66 6 19 C3.69 19 1.38 19 -1 19 C-2.44341036 16.11317927 -1.89078913 13.82165307 -1.625 10.625 C-1.53476563 9.48289062 -1.44453125 8.34078125 -1.3515625 7.1640625 C-1.07375456 4.66379106 -0.69949998 2.40675418 0 0 Z " fill="#FFFFFF" transform="translate(234,114)"/>
<path d="M0 0 C8.58 0 17.16 0 26 0 C26 0.33 26 0.66 26 1 C17.42 1 8.84 1 0 1 C0 0.67 0 0.34 0 0 Z " fill="#FFFFFF" transform="translate(109,176)"/>
<path d="M0 0 C0.33 1.32 0.66 2.64 1 4 C-5.6 3.34 -12.2 2.68 -19 2 C-19 1.67 -19 1.34 -19 1 C-12.73 1.33 -6.46 1.66 0 2 C0 1.34 0 0.68 0 0 Z " fill="#FFFFFF" transform="translate(245,55)"/>
<path d="M0 0 C2.7084017 -0.02714434 5.41652721 -0.04690846 8.125 -0.0625 C8.88554687 -0.07087891 9.64609375 -0.07925781 10.4296875 -0.08789062 C14.7389644 -0.10646509 18.75516474 0.13882735 23 1 C23 1.33 23 1.66 23 2 C11.615 1.505 11.615 1.505 0 1 C0 0.67 0 0.34 0 0 Z " fill="#FFFFFF" transform="translate(196,53)"/>
<path d="M0 0 C2.64 0 5.28 0 8 0 C8 4.62 8 9.24 8 14 C7.67 14 7.34 14 7 14 C7 9.71 7 5.42 7 1 C4.69 1 2.38 1 0 1 C0 0.67 0 0.34 0 0 Z " fill="#FFFFFF" transform="translate(314,85)"/>
<path d="M0 0 C0.66 0.99 1.32 1.98 2 3 C1.43152344 2.91621094 0.86304687 2.83242188 0.27734375 2.74609375 C-4.76635545 2.08089803 -9.00294069 2.0431163 -14 3 C-9.13986641 -0.24008906 -5.671445 -0.36009175 0 0 Z " fill="#FFFFFF" transform="translate(69,28)"/>
<path d="M0 0 C6.6 0 13.2 0 20 0 C20 0.33 20 0.66 20 1 C13.4 1 6.8 1 0 1 C0 0.67 0 0.34 0 0 Z " fill="#FFFFFF" transform="translate(60,21)"/>
<path d="M0 0 C6.1105424 -0.11269443 11.95170514 0.10395632 18 1 C18 1.33 18 1.66 18 2 C11.88514973 2.09706112 6.06696699 1.77040851 0 1 C0 0.67 0 0.34 0 0 Z " fill="#FFFFFF" transform="translate(227,23)"/>
<path d="M0 0 C1.485 0.99 1.485 0.99 3 2 C3 2.66 3 3.32 3 4 C6.3 4 9.6 4 13 4 C13 4.33 13 4.66 13 5 C9.37 5 5.74 5 2 5 C1.34 3.35 0.68 1.7 0 0 Z " fill="#FFFFFF" transform="translate(71,31)"/>
<path d="M0 0 C4.95 0.33 9.9 0.66 15 1 C15 1.33 15 1.66 15 2 C4.44191344 2.18451025 4.44191344 2.18451025 0 1 C0 0.67 0 0.34 0 0 Z " fill="#FFFFFF" transform="translate(250,135)"/>
<path d="M0 0 C5.28 0 10.56 0 16 0 C16 0.33 16 0.66 16 1 C10.72 1 5.44 1 0 1 C0 0.67 0 0.34 0 0 Z " fill="#FFFFFF" transform="translate(80,22)"/>
<path d="M0 0 C4.95 0 9.9 0 15 0 C15 0.33 15 0.66 15 1 C10.05 1 5.1 1 0 1 C0 0.67 0 0.34 0 0 Z " fill="#FFFFFF" transform="translate(102,144)"/>
<path d="M0 0 C4.95 0 9.9 0 15 0 C15 0.33 15 0.66 15 1 C10.05 1 5.1 1 0 1 C0 0.67 0 0.34 0 0 Z " fill="#FFFFFF" transform="translate(249,77)"/>
<path d="M0 0 C4.95 0 9.9 0 15 0 C15 0.33 15 0.66 15 1 C10.05 1 5.1 1 0 1 C0 0.67 0 0.34 0 0 Z " fill="#FFFFFF" transform="translate(96,23)"/>
<path d="M0 0 C4.62 0 9.24 0 14 0 C14 0.33 14 0.66 14 1 C9.38 1 4.76 1 0 1 C0 0.67 0 0.34 0 0 Z " fill="#FFFFFF" transform="translate(55,82)"/>
<path d="M0 0 C4.62 0 9.24 0 14 0 C14 0.33 14 0.66 14 1 C9.38 1 4.76 1 0 1 C0 0.67 0 0.34 0 0 Z " fill="#FFFFFF" transform="translate(235,76)"/>
<path d="M0 0 C4.62 0 9.24 0 14 0 C14 0.33 14 0.66 14 1 C9.38 1 4.76 1 0 1 C0 0.67 0 0.34 0 0 Z " fill="#FFFFFF" transform="translate(213,22)"/>
<path d="M0 0 C4.29 0 8.58 0 13 0 C13 0.33 13 0.66 13 1 C8.71 1 4.42 1 0 1 C0 0.67 0 0.34 0 0 Z " fill="#FFFFFF" transform="translate(135,177)"/>
<path d="M0 0 C4.29 0 8.58 0 13 0 C13 0.33 13 0.66 13 1 C8.71 1 4.42 1 0 1 C0 0.67 0 0.34 0 0 Z " fill="#FFFFFF" transform="translate(200,21)"/>
<path d="M0 0 C4.29 0 8.58 0 13 0 C13 0.33 13 0.66 13 1 C8.71 1 4.42 1 0 1 C0 0.67 0 0.34 0 0 Z " fill="#FFFFFF" transform="translate(47,20)"/>
<path d="M0 0 C3.24208567 0.35049575 4.61527704 0.56221181 6.8125 3.0625 C7.204375 3.701875 7.59625 4.34125 8 5 C6.0625 4.625 6.0625 4.625 4 4 C3.67 3.34 3.34 2.68 3 2 C2.01 1.34 1.02 0.68 0 0 Z " fill="#FFFFFF" transform="translate(117,145)"/>
<path d="M0 0 C3.96 0 7.92 0 12 0 C12 0.33 12 0.66 12 1 C8.04 1 4.08 1 0 1 C0 0.67 0 0.34 0 0 Z " fill="#FFFFFF" transform="translate(292,82)"/>
<path d="M0 0 C3.96 0 7.92 0 12 0 C12 0.33 12 0.66 12 1 C8.04 1 4.08 1 0 1 C0 0.67 0 0.34 0 0 Z " fill="#FFFFFF" transform="translate(56,52)"/>
<path d="M0 0 C3.3 0.33 6.6 0.66 10 1 C10 1.33 10 1.66 10 2 C6.7 1.67 3.4 1.34 0 1 C0 0.67 0 0.34 0 0 Z " fill="#FFFFFF" transform="translate(240,133)"/>
<path d="M0 0 C3.63 0 7.26 0 11 0 C11 0.33 11 0.66 11 1 C7.37 1 3.74 1 0 1 C0 0.67 0 0.34 0 0 Z " fill="#FFFFFF" transform="translate(98,86)"/>
<path d="M0 0 C2.31 0.33 4.62 0.66 7 1 C7 1.99 7 2.98 7 4 C4.69 3.01 2.38 2.02 0 1 C0 0.67 0 0.34 0 0 Z " fill="#FFFFFF" transform="translate(104,70)"/>
<path d="M0 0 C3.63 0 7.26 0 11 0 C11 0.33 11 0.66 11 1 C7.37 1 3.74 1 0 1 C0 0.67 0 0.34 0 0 Z " fill="#FFFFFF" transform="translate(36,19)"/>
<path d="M0 0 C3.3 0 6.6 0 10 0 C10 0.33 10 0.66 10 1 C6.7 1 3.4 1 0 1 C0 0.67 0 0.34 0 0 Z " fill="#FFFFFF" transform="translate(148,178)"/>
<path d="M0 0 C2.97 0.33 5.94 0.66 9 1 C9 1.33 9 1.66 9 2 C6.03 1.67 3.06 1.34 0 1 C0 0.67 0 0.34 0 0 Z " fill="#FFFFFF" transform="translate(105,107)"/>
<path d="M0 0 C3.39914975 1.13304992 4.05254451 2.12518475 6 5 C4.125 4.75 4.125 4.75 2 4 C0.75 1.9375 0.75 1.9375 0 0 Z " fill="#FFFFFF" transform="translate(303,95)"/>
<path d="M0 0 C3.3 0 6.6 0 10 0 C10 0.33 10 0.66 10 1 C6.7 1 3.4 1 0 1 C0 0.67 0 0.34 0 0 Z " fill="#FFFFFF" transform="translate(69,83)"/>
<path d="M0 0 C1.32 0 2.64 0 4 0 C4 2.31 4 4.62 4 7 C3.67 7 3.34 7 3 7 C3 5.02 3 3.04 3 1 C2.01 0.67 1.02 0.34 0 0 Z " fill="#FFFFFF" transform="translate(245,25)"/>
<path d="M0 0 C2.97 0 5.94 0 9 0 C9 0.33 9 0.66 9 1 C6.03 1 3.06 1 0 1 C0 0.67 0 0.34 0 0 Z " fill="#FFFFFF" transform="translate(46,81)"/>
<path d="M0 0 C2.97 0 5.94 0 9 0 C9 0.33 9 0.66 9 1 C6.03 1 3.06 1 0 1 C0 0.67 0 0.34 0 0 Z " fill="#FFFFFF" transform="translate(272,79)"/>
<path d="M0 0 C0.93065133 2.60582371 1.14917407 3.64198224 0.0625 6.25 C-0.4634375 7.11625 -0.4634375 7.11625 -1 8 C-0.67 5.36 -0.34 2.72 0 0 Z " fill="#FFFFFF" transform="translate(151,43)"/>
<path d="M0 0 C0.625 1.8125 0.625 1.8125 1 4 C0.34 4.99 -0.32 5.98 -1 7 C-0.67 4.69 -0.34 2.38 0 0 Z " fill="#FFFFFF" transform="translate(316,114)"/>
<path d="M0 0 C2.64 0 5.28 0 8 0 C8 0.33 8 0.66 8 1 C5.36 1 2.72 1 0 1 C0 0.67 0 0.34 0 0 Z " fill="#FFFFFF" transform="translate(113,88)"/>
<path d="M0 0 C2.64 0 5.28 0 8 0 C8 0.33 8 0.66 8 1 C5.36 1 2.72 1 0 1 C0 0.67 0 0.34 0 0 Z " fill="#FFFFFF" transform="translate(264,78)"/>
<path d="M0 0 C0.598125 0.20625 1.19625 0.4125 1.8125 0.625 C-0.4975 0.955 -2.8075 1.285 -5.1875 1.625 C-2.1875 -0.375 -2.1875 -0.375 0 0 Z " fill="#FFFFFF" transform="translate(73.1875,50.375)"/>
<path d="M0 0 C2.31 0 4.62 0 7 0 C7 0.33 7 0.66 7 1 C4.69 1 2.38 1 0 1 C0 0.67 0 0.34 0 0 Z " fill="#FFFFFF" transform="translate(100,132)"/>
<path d="M0 0 C2.31 0 4.62 0 7 0 C7 0.33 7 0.66 7 1 C4.69 1 2.38 1 0 1 C0 0.67 0 0.34 0 0 Z " fill="#FFFFFF" transform="translate(219,55)"/>
<path d="M0 0 C1.32 1.32 2.64 2.64 4 4 C2.68 3.34 1.36 2.68 0 2 C0 1.34 0 0.68 0 0 Z " fill="#FFFFFF" transform="translate(52,48)"/>
<path d="M0 0 C0.99 0.495 0.99 0.495 2 1 C1.67 2.65 1.34 4.3 1 6 C0.67 6 0.34 6 0 6 C0 4.02 0 2.04 0 0 Z " fill="#FFFFFF" transform="translate(198,20)"/>
<path d="M0 0 C0.99 0.33 1.98 0.66 3 1 C1.35 1.33 -0.3 1.66 -2 2 C-1.34 1.34 -0.68 0.68 0 0 Z " fill="#FFFFFF" transform="translate(135,147)"/>
<path d="M0 0 C1.98 0 3.96 0 6 0 C6 0.33 6 0.66 6 1 C4.02 1 2.04 1 0 1 C0 0.67 0 0.34 0 0 Z " fill="#FFFFFF" transform="translate(288,141)"/>
<path d="M0 0 C1.98 0 3.96 0 6 0 C6 0.33 6 0.66 6 1 C4.02 1 2.04 1 0 1 C0 0.67 0 0.34 0 0 Z " fill="#FFFFFF" transform="translate(107,133)"/>
<path d="M0 0 C1.98 0 3.96 0 6 0 C6 0.33 6 0.66 6 1 C4.02 1 2.04 1 0 1 C0 0.67 0 0.34 0 0 Z " fill="#FFFFFF" transform="translate(121,89)"/>
<path d="M0 0 C1.98 0 3.96 0 6 0 C6 0.33 6 0.66 6 1 C4.02 1 2.04 1 0 1 C0 0.67 0 0.34 0 0 Z " fill="#FFFFFF" transform="translate(92,85)"/>
<path d="M0 0 C1.98 0 3.96 0 6 0 C6 0.33 6 0.66 6 1 C4.02 1 2.04 1 0 1 C0 0.67 0 0.34 0 0 Z " fill="#FFFFFF" transform="translate(286,81)"/>
<path d="M0 0 C0.33 0 0.66 0 1 0 C1 1.98 1 3.96 1 6 C0.67 6 0.34 6 0 6 C0 4.02 0 2.04 0 0 Z " fill="#FFFFFF" transform="translate(152,37)"/>
<path d="M0 0 C1.65 0 3.3 0 5 0 C5 0.33 5 0.66 5 1 C3.35 1 1.7 1 0 1 C0 0.67 0 0.34 0 0 Z " fill="#FFFFFF" transform="translate(125,150)"/>
<path d="M0 0 C1.65 0 3.3 0 5 0 C5 0.33 5 0.66 5 1 C3.35 1 1.7 1 0 1 C0 0.67 0 0.34 0 0 Z " fill="#FFFFFF" transform="translate(283,140)"/>
<path d="M0 0 C1.65 0 3.3 0 5 0 C5 0.33 5 0.66 5 1 C3.35 1 1.7 1 0 1 C0 0.67 0 0.34 0 0 Z " fill="#FFFFFF" transform="translate(309,84)"/>
<path d="M0 0 C1.65 0 3.3 0 5 0 C5 0.33 5 0.66 5 1 C3.35 1 1.7 1 0 1 C0 0.67 0 0.34 0 0 Z " fill="#FFFFFF" transform="translate(304,83)"/>
<path d="M0 0 C0.33 0 0.66 0 1 0 C1 1.65 1 3.3 1 5 C0.67 5 0.34 5 0 5 C0 3.35 0 1.7 0 0 Z " fill="#FFFFFF" transform="translate(146,65)"/>
<path d="M0 0 C0.33 0 0.66 0 1 0 C1 1.65 1 3.3 1 5 C0.67 5 0.34 5 0 5 C0 3.35 0 1.7 0 0 Z " fill="#FFFFFF" transform="translate(147,60)"/>
<path d="M0 0 C0.33 0 0.66 0 1 0 C1 1.65 1 3.3 1 5 C0.67 5 0.34 5 0 5 C0 3.35 0 1.7 0 0 Z " fill="#FFFFFF" transform="translate(148,55)"/>
<path d="M0 0 C0.66 0.33 1.32 0.66 2 1 C0.68 1.33 -0.64 1.66 -2 2 C-1.34 1.34 -0.68 0.68 0 0 Z " fill="#FFFFFF" transform="translate(47,33)"/>
<path d="M0 0 C1.65 0 3.3 0 5 0 C5 0.33 5 0.66 5 1 C3.35 1 1.7 1 0 1 C0 0.67 0 0.34 0 0 Z " fill="#FFFFFF" transform="translate(91,32)"/>
<path d="M0 0 C0.66 0.33 1.32 0.66 2 1 C1.01 1 0.02 1 -1 1 C-0.67 0.67 -0.34 0.34 0 0 Z " fill="#FFFFFF" transform="translate(136,162)"/>
<path d="M0 0 C1 4 1 4 1 4 Z " fill="#FFFFFF" transform="translate(318,107)"/>
<path d="M0 0 C1 4 1 4 1 4 Z " fill="#FFFFFF" transform="translate(319,103)"/>
<path d="M0 0 C1 4 1 4 1 4 Z " fill="#FFFFFF" transform="translate(320,99)"/>
<path d="M0 0 C4 1 4 1 4 1 Z " fill="#FFFFFF" transform="translate(109,87)"/>
<path d="M0 0 C1 4 1 4 1 4 Z " fill="#FFFFFF" transform="translate(145,70)"/>
<path d="M0 0 C1 4 1 4 1 4 Z " fill="#FFFFFF" transform="translate(149,51)"/>
<path d="M0 0 C0.99 0 1.98 0 3 0 C2.67 0.66 2.34 1.32 2 2 C1.34 1.34 0.68 0.68 0 0 Z " fill="#FFFFFF" transform="translate(229,46)"/>
<path d="M0 0 C4 1 4 1 4 1 Z " fill="#FFFFFF" transform="translate(84,34)"/>
<path d="M0 0 C0.99 0.495 0.99 0.495 2 1 C1.01 1.495 1.01 1.495 0 2 C0 1.34 0 0.68 0 0 Z " fill="#FFFFFF" transform="translate(142,157)"/>
<path d="M0 0 C3 1 3 1 3 1 Z " fill="#FFFFFF" transform="translate(130,149)"/>
<path d="M0 0 C3 1 3 1 3 1 Z " fill="#FFFFFF" transform="translate(173,137)"/>
<path d="" fill="#FFFFFF" transform="translate(0,0)"/>
<path d="" fill="#FFFFFF" transform="translate(0,0)"/>
<path d="M0 0 C3 1 3 1 3 1 Z " fill="#FFFFFF" transform="translate(88,33)"/>
<path d="M0 0 C3 1 3 1 3 1 Z " fill="#FFFFFF" transform="translate(49,32)"/>
<path d="M0 0 C3 1 3 1 3 1 Z " fill="#FFFFFF" transform="translate(52,31)"/>
<path d="M0 0 C2 1 2 1 2 1 Z " fill="#FFFFFF" transform="translate(140,159)"/>
<path d="M0 0 C2 1 2 1 2 1 Z " fill="#FFFFFF" transform="translate(138,146)"/>
<path d="M0 0 C2 1 2 1 2 1 Z " fill="#FFFFFF" transform="translate(140,145)"/>
<path d="" fill="#FFFFFF" transform="translate(0,0)"/>
<path d="" fill="#FFFFFF" transform="translate(0,0)"/>
</svg>
