<?xml version="1.0" encoding="UTF-8"?>
<svg version="1.1" xmlns="http://www.w3.org/2000/svg" width="132" height="72">
<path d="M0 0 C0.6875 1.8125 0.6875 1.8125 1 4 C-0.27462557 6.20935099 -1.5840512 6.86817371 -3.984375 7.62890625 C-5.97792731 8.13436366 -7.98853829 8.57132783 -10 9 C-10 10.65 -10 12.3 -10 14 C-4.09536711 13.02232658 -0.69841561 11.80952617 4 8 C7.16405923 7.6704105 9.59705537 7.90629195 12.6875 8.625 C15.26830141 9.31277424 15.26830141 9.31277424 18 7 C18.2502157 3.91634129 18.2502157 3.91634129 18 1 C20 3 20 3 20.375 5.4375 C20 8 20 8 18.375 9.8125 C15.35338803 11.32330598 13.35026615 11.27349111 10 11 C9.195625 10.731875 8.39125 10.46375 7.5625 10.1875 C3.95724353 9.92370075 2.58727849 11.61108594 -0.15625 13.7890625 C-2.93583513 15.61463748 -5.74293074 15.73943446 -9 16 C-9.495 16.495 -9.495 16.495 -10 17 C-9.90691463 20.48618881 -9.90691463 20.48618881 -9 24 C-7.29698446 25.72704681 -7.29698446 25.72704681 -5 26 C-1.70487254 25.14964453 -0.76419826 23.68772202 1.3125 20.9375 C4 18 4 18 7.3125 17.0625 C10.23103298 17.01303334 12.37973162 17.22289107 15.1875 17.75 C19.02683565 18.44989426 19.02683565 18.44989426 21.3125 16 C23.15770274 12.71963957 24.62632291 9.50287658 26 6 C26.92133116 8.49596988 27.1970855 9.56674452 26.07421875 12.03515625 C25.61660156 12.70417969 25.15898438 13.37320312 24.6875 14.0625 C24.23761719 14.73410156 23.78773437 15.40570313 23.32421875 16.09765625 C22.88722656 16.72542969 22.45023437 17.35320313 22 18 C21.01 19.485 21.01 19.485 20 21 C28.8850907 24.25738186 36.54393261 25.55714963 46 25 C47.16388959 22.69313365 47.16388959 22.69313365 48 20 C46.12972272 15.2836486 45.01054094 13.59883907 40.625 11 C36.18139164 9.774177 33.12340437 9.93829781 29 12 C29.495 14.475 29.495 14.475 30 17 C32.31 17.33 34.62 17.66 37 18 C37 17.34 37 16.68 37 16 C36.01 15.01 36.01 15.01 35 14 C36.65 14.33 38.3 14.66 40 15 C40.33 14.34 40.66 13.68 41 13 C41 13.99 41 14.98 41 16 C41.66 16 42.32 16 43 16 C42.505 17.485 42.505 17.485 42 19 C42 18.34 42 17.68 42 17 C41.484375 17.495 40.96875 17.99 40.4375 18.5 C37.0761612 20.56851618 34.88040089 20.48505011 31 20 C28.12051498 18.00651037 27.18816207 16.85718274 26.4375 13.4375 C27 11 27 11 28.875 9.125 C33.43150317 7.48465886 37.32873521 7.87643384 42 9 C46.30069421 11.47061157 48.32502122 14.34728116 50 19 C49.78483954 22.72944805 49.66053508 24.33946492 47 27 C34.47986817 28.78859026 22.4947112 25.13719364 11.2890625 19.6796875 C8.24750985 18.77656436 6.75847082 19.58135787 4 21 C4.9178125 21.10957031 5.835625 21.21914063 6.78125 21.33203125 C13.60830429 22.21409814 19.68933694 23.22330825 26 26 C22.50892296 27.16369235 21.78634583 26.77195475 18.4375 25.5625 C13.25489831 23.92588894 8.41112053 23.09016558 3 24 C-0.08691577 25.79517723 -0.08691577 25.79517723 -2 28 C-0.68 28.66 0.64 29.32 2 30 C2 30.66 2 31.32 2 32 C-0.64 32.66 -3.28 33.32 -6 34 C-5.2575 34.556875 -4.515 35.11375 -3.75 35.6875 C-1.08292005 37.93027178 0.91556232 40.22074975 3 43 C-0.3 44.32 -3.6 45.64 -7 47 C-6.505 48.98 -6.505 48.98 -6 51 C-7.32 50.34 -8.64 49.68 -10 49 C-9.25675659 46.60510457 -8.52942646 45.29222384 -6.30859375 44.06640625 C-4.55926499 43.32780077 -2.78065851 42.65950315 -1 42 C-3.14230559 39.69900511 -5.02948149 37.98257912 -7.75 36.375 C-8.4925 35.92125 -9.235 35.4675 -10 35 C-10 34.34 -10 33.68 -10 33 C-7.36 32.34 -4.72 31.68 -2 31 C-3.45449401 29.9944239 -4.91372443 28.99569565 -6.375 28 C-7.18710938 27.443125 -7.99921875 26.88625 -8.8359375 26.3125 C-10.86318187 24.82714156 -10.86318187 24.82714156 -13 25 C-15.05599133 25.79733736 -17.09588748 26.63654786 -19.125 27.5 C-20.22070312 27.9640625 -21.31640625 28.428125 -22.4453125 28.90625 C-23.28835937 29.2671875 -24.13140625 29.628125 -25 30 C-22.68143083 31.54571278 -20.49361571 32.79618552 -18 34 C-19.4638611 38.39158329 -21.97831338 38.87947433 -26 41 C-25.505 41.45375 -25.01 41.9075 -24.5 42.375 C-23 44 -23 44 -23 46 C-22.21625 46.309375 -21.4325 46.61875 -20.625 46.9375 C-18 48 -18 48 -16 49 C-17.40273876 52.45176554 -18.83751737 53.81058146 -22.0625 55.625 C-25.1157672 57.2426718 -25.1157672 57.2426718 -27 60 C-26.07767578 60.18175781 -26.07767578 60.18175781 -25.13671875 60.3671875 C-24.32847656 60.53476562 -23.52023438 60.70234375 -22.6875 60.875 C-21.88699219 61.03742187 -21.08648437 61.19984375 -20.26171875 61.3671875 C-18 62 -18 62 -15 64 C-15 64.66 -15 65.32 -15 66 C-16.59915881 66.69906942 -18.20455045 67.38389468 -19.8125 68.0625 C-20.70582031 68.44535156 -21.59914063 68.82820313 -22.51953125 69.22265625 C-25 70 -25 70 -28 69 C-25.03 67.35 -22.06 65.7 -19 64 C-23.95 62.02 -23.95 62.02 -29 60 C-27.00981891 56.01963781 -26.46634005 55.33529422 -22.875 53.25 C-22.15054688 52.82203125 -21.42609375 52.3940625 -20.6796875 51.953125 C-20.12539063 51.63859375 -19.57109375 51.3240625 -19 51 C-20.11375 50.13375 -20.11375 50.13375 -21.25 49.25 C-26.23728814 45.16949153 -26.23728814 45.16949153 -28 43 C-28.125 41 -28.125 41 -27 39 C-23.9375 36.75 -23.9375 36.75 -21 35 C-23.31 34.01 -25.62 33.02 -28 32 C-27.25 30.0625 -27.25 30.0625 -26 28 C-23.875 27.25 -23.875 27.25 -22 27 C-22 26.34 -22 25.68 -22 25 C-28.14830711 26.20555041 -30.35248219 27.91558124 -34 33 C-34 28.64748813 -31.93834489 27.07190602 -29 24 C-26.6875 23.125 -26.6875 23.125 -25 23 C-26.08110162 21.71587808 -26.08110162 21.71587808 -28.6484375 21.65234375 C-32.90557565 22.093935 -35.36367496 23.99839749 -38.625 26.5625 C-44.37218578 31.05828243 -44.37218578 31.05828243 -47.3984375 30.77734375 C-48.19121094 30.39255859 -48.19121094 30.39255859 -49 30 C-47.02 29.01 -45.04 28.02 -43 27 C-44.3921875 26.13375 -44.3921875 26.13375 -45.8125 25.25 C-49.59891295 22.57723792 -51.66339497 20.83976491 -52.51171875 16.203125 C-52.56972656 15.22859375 -52.62773438 14.2540625 -52.6875 13.25 C-52.75324219 12.26515625 -52.81898437 11.2803125 -52.88671875 10.265625 C-52.92410156 9.51796875 -52.96148437 8.7703125 -53 8 C-51.54555241 10.68145069 -50.71968401 13.00573392 -50.1875 16 C-49.45460163 18.95935478 -48.8659083 20.17472555 -46.9375 22.6875 C-43.5057852 24.22081938 -42.76846749 23.934856 -39.3125 22.8125 C-37.14950064 21.95820614 -35.07951724 21.03975862 -33 20 C-27.7323295 19.66554473 -27.7323295 19.66554473 -25 20 C-23.4375 21.4375 -23.4375 21.4375 -22 23 C-18.38976901 23.73041853 -18.38976901 23.73041853 -15 24 C-12.8480563 20.77208445 -12.79913557 19.71599191 -13 16 C-13.74765625 16.04640625 -14.4953125 16.0928125 -15.265625 16.140625 C-18.22175528 16.24896485 -21.05501803 16.29277599 -24 16 C-25.33333333 14.66666667 -26.66666667 13.33333333 -28 12 C-30.82134923 11.82148871 -33.52576807 11.93944676 -36.34375 12.15234375 C-39.53137347 11.96952417 -40.76161402 11.23838598 -43 9 C-43.25 6.3125 -43.25 6.3125 -43 4 C-42.731875 4.61875 -42.46375 5.2375 -42.1875 5.875 C-41.04443152 8.2995233 -41.04443152 8.2995233 -38 10 C-35.38646593 10.09153099 -35.38646593 10.09153099 -32.5625 9.875 C-29.56640625 9.8046875 -29.56640625 9.8046875 -27 10 C-25.66666667 11.33333333 -24.33333333 12.66666667 -23 14 C-19.31290828 14.36655298 -15.69364251 14.22926057 -12 14 C-12.30834699 10.98283157 -12.30834699 10.98283157 -14 8 C-16.31597172 7.21195669 -18.47598167 6.87757339 -20.90625 6.6171875 C-23 6 -23 6 -24.28125 3.9453125 C-24.5184375 3.30335937 -24.755625 2.66140625 -25 2 C-24.01 2.66 -23.02 3.32 -22 4 C-20.845 4.33 -19.69 4.66 -18.5 5 C-15 6 -15 6 -12 8 C-9.74237845 7.58613488 -9.74237845 7.58613488 -7.4375 6.625 C-3.13478261 5 -3.13478261 5 -1 5 C-0.67 3.35 -0.34 1.7 0 0 Z " fill="#FFFFFF" transform="translate(81,1)"/>
<path d="M0 0 C4.42813003 1.17215207 7.00868088 3.45624861 9.828125 6.9296875 C11.83415921 10.47368127 11.93524099 14.07778779 11 18 C9.76171875 20.23046875 9.76171875 20.23046875 8 22 C4.60003418 22.91537541 1.43148648 22.72186758 -2 22 C-4.04962503 20.61490184 -5.65840355 19.09181299 -7.40234375 17.34375 C-9.08325511 15.69254303 -9.08325511 15.69254303 -12.3125 15.5 C-15.14129222 15.76406389 -15.14129222 15.76406389 -17 18 C-17.16681109 21.08347826 -17.16681109 21.08347826 -17 24 C-16.39671875 24.12375 -15.7934375 24.2475 -15.171875 24.375 C-8.64662016 26.05893673 -8.64662016 26.05893673 -6.6875 28.91015625 C-6.06728627 30.33406359 -5.46025247 31.76379159 -4.8671875 33.19921875 C-4.0966489 35.19910254 -4.0966489 35.19910254 -1.875 36.375 C-0.1235226 36.75575596 1.63504889 37.10739038 3.40234375 37.40625 C12.01024452 38.92306071 12.01024452 38.92306071 15 43 C12.03824877 42.38722388 10.61941217 41.74627478 8 40 C4.94718986 39.4275981 1.89363856 39.04907447 -1.1875 38.66015625 C-4.16801134 37.960564 -5.23370608 37.45384458 -7 35 C-7.20625 34.030625 -7.4125 33.06125 -7.625 32.0625 C-9.26048392 28.41983126 -9.92483865 28.36495777 -13.5 27 C-17.79861111 25.32638889 -17.79861111 25.32638889 -19.8125 22.0625 C-20 19 -20 19 -18.625 16.125 C-15.72137616 13.77444737 -13.81282836 13.22537519 -10.07421875 13.42578125 C-6.88564363 14.30849414 -5.12740153 16.3899061 -2.80078125 18.65234375 C-0.64557733 20.26524039 0.64298026 20.49035082 3.3125 20.5625 C4.529375 20.376875 5.74625 20.19125 7 20 C9.53604144 16.19593784 9.60198813 14.51491096 9 10 C7.28677922 7.36261281 5.2372947 5.19918992 3 3 C2.43925781 2.43796875 1.87851563 1.8759375 1.30078125 1.296875 C0.87152344 0.86890625 0.44226563 0.4409375 0 0 Z " fill="#FFFFFF" transform="translate(107,28)"/>
<path d="M0 0 C0.66 0.33 1.32 0.66 2 1 C-2.02439707 4.82750876 -5.70946477 5.85957975 -11.0625 6.625 C-17.28497117 7.50396985 -17.28497117 7.50396985 -23 10 C-23 11.32 -23 12.64 -23 14 C-16.64258717 16.11913761 -9.00849643 15.41644094 -2.4375 14.375 C0.95893261 14.00448008 2.25878535 14.05830629 5 16 C5.31519752 19.93996899 5.22733513 22.50579319 3.5625 26.125 C0.64416414 29.39923048 -2.19664693 31.05853339 -6.07421875 33.01953125 C-7.95536888 33.85226312 -7.95536888 33.85226312 -9 35 C-11.18292774 35.23481693 -13.37203174 35.41363323 -15.5625 35.5625 C-16.76003906 35.64628906 -17.95757812 35.73007813 -19.19140625 35.81640625 C-20.11824219 35.87699219 -21.04507812 35.93757813 -22 36 C-21.67 35.34 -21.34 34.68 -21 34 C-18.77734375 33.76171875 -18.77734375 33.76171875 -15.9375 33.6875 C-10.09990103 33.26294735 -6.53487815 31.6043725 -2 28 C-1.195625 27.38125 -0.39125 26.7625 0.4375 26.125 C2.58672904 23.20204851 2.7260017 20.56197787 3 17 C0.68348035 16.22782678 -0.75883771 15.94881807 -3.171875 16.4609375 C-6.67121826 17.12793939 -10.00123876 17.16981747 -13.5625 17.1875 C-14.86316406 17.20167969 -16.16382813 17.21585938 -17.50390625 17.23046875 C-20.68701826 17.02063232 -22.36406237 16.69692677 -25 15 C-25.3125 12.1875 -25.3125 12.1875 -25 9 C-20.50941993 5.42320076 -15.28655609 4.99457346 -9.79492188 4.18359375 C-5.77565847 3.52692536 -3.00877347 2.81339857 0 0 Z " fill="#FFFFFF" transform="translate(44,34)"/>
<path d="M0 0 C0 0.33 0 0.66 0 1 C-0.99 0.95875 -1.98 0.9175 -3 0.875 C-7.23835866 0.8576652 -10.93193985 1.85808838 -15 3 C-15.98757063 7.07372885 -16.38046243 10.81491327 -16 15 C-11.22189224 20.87739907 -4.37718375 21.64197033 2.83203125 22.40625 C6.2211291 22.65347902 9.60507047 22.85627306 13 23 C13 23.33 13 23.66 13 24 C-7.38579655 24.7428023 -7.38579655 24.7428023 -16.1875 18.875 C-19.2408255 14.03179404 -18.44783231 9.57503579 -17.5 4.125 C-13.33089182 -1.78123658 -6.37740832 -1.25270521 0 0 Z " fill="#FFFFFF" transform="translate(19,9)"/>
<path d="M0 0 C3.48763093 1.74381547 6.03368051 3.52806709 9 6 C8 9 8 9 5.93359375 10.16796875 C5.10988281 10.50441406 4.28617188 10.84085938 3.4375 11.1875 C2.61121094 11.53167969 1.78492187 11.87585937 0.93359375 12.23046875 C0.29550781 12.48441406 -0.34257813 12.73835938 -1 13 C-0.01 14.485 -0.01 14.485 1 16 C-1.97 15.505 -1.97 15.505 -5 15 C-4 12 -4 12 -1.71484375 10.61328125 C-0.79832031 10.18402344 0.11820312 9.75476562 1.0625 9.3125 C2.44115234 8.65701172 2.44115234 8.65701172 3.84765625 7.98828125 C4.91306641 7.49908203 4.91306641 7.49908203 6 7 C4.02 4.69 2.04 2.38 0 0 Z " fill="#FFFFFF" transform="translate(75,52)"/>
<path d="M0 0 C0.66 0 1.32 0 2 0 C2 2.64 2 5.28 2 8 C1.401875 8.268125 0.80375 8.53625 0.1875 8.8125 C-1.97224808 9.98493467 -3.35790256 11.19369282 -5 13 C-4.67 11.68 -4.34 10.36 -4 9 C-5.32 9.33 -6.64 9.66 -8 10 C-7.67 9.01 -7.34 8.02 -7 7 C-5.68 7 -4.36 7 -3 7 C-3 6.01 -3 5.02 -3 4 C-2.34 4.33 -1.68 4.66 -1 5 C-1.33 5.99 -1.66 6.98 -2 8 C-1.34 7.67 -0.68 7.34 0 7 C0 4.69 0 2.38 0 0 Z " fill="#FFFFFF" transform="translate(19,10)"/>
<path d="M0 0 C2.64 0.33 5.28 0.66 8 1 C8 1.66 8 2.32 8 3 C5.36 2.34 2.72 1.68 0 1 C0 0.67 0 0.34 0 0 Z " fill="#FFFFFF" transform="translate(76,68)"/>
</svg>
