<?xml version="1.0" encoding="UTF-8"?>
<svg version="1.1" xmlns="http://www.w3.org/2000/svg" width="350" height="230">
<path d="M0 0 C0 0.33 0 0.66 0 1 C-5.47122512 2.08491768 -10.89321092 2.32976414 -16.45092773 2.55419922 C-17.46448302 2.59630964 -18.47803831 2.63842007 -19.5223074 2.68180656 C-30.27714102 3.09687184 -41.02372546 3.14532567 -51.78515625 3.1328125 C-53.90327465 3.13349022 -56.02139297 3.13446408 -58.13951111 3.13571167 C-62.55045319 3.13717153 -66.96137479 3.13509326 -71.37231445 3.13037109 C-76.90136177 3.12472684 -82.43036034 3.1280168 -87.9594059 3.13382339 C-114.32246661 3.15711672 -140.65096006 2.88303707 -167 2 C-167 1.67 -167 1.34 -167 1 C-166.31513991 1.00092179 -165.63027983 1.00184359 -164.9246664 1.00279331 C-148.15109123 1.0250144 -131.37752081 1.0414916 -114.60393429 1.05181217 C-106.49189152 1.05693758 -98.37985866 1.06390739 -90.26782227 1.07543945 C-83.18573151 1.08550243 -76.10364794 1.09188062 -69.02155024 1.09408849 C-65.28223533 1.09537619 -61.54294096 1.09833553 -57.80363274 1.10573006 C-42.37770558 1.13508698 -26.99100036 1.02764168 -11.58229065 0.21531677 C-7.71437765 0.01413495 -3.8726568 -0.04151173 0 0 Z " fill="#FFFFFF" transform="translate(271,19)"/>
<path d="M0 0 C1.32 0 2.64 0 4 0 C4.3403125 0.8353125 4.3403125 0.8353125 4.6875 1.6875 C6.35896766 4.63246684 8.55276352 6.68156544 11 9 C10.01 9.495 10.01 9.495 9 10 C8.52381188 12.87182587 8.15832403 15.67120147 7.875 18.5625 C7.78863281 19.36880859 7.70226562 20.17511719 7.61328125 21.00585938 C7.40056372 23.00304064 7.19922145 25.00142737 7 27 C4.9375 27.03125 4.9375 27.03125 2.875 27.0625 C1.72644531 27.07990234 1.72644531 27.07990234 0.5546875 27.09765625 C-2.36019734 26.98623099 -5.13379165 26.52754849 -8 26 C-8.06058594 24.80761719 -8.12117188 23.61523438 -8.18359375 22.38671875 C-8.26801149 20.82030075 -8.35265887 19.25389512 -8.4375 17.6875 C-8.47681641 16.90181641 -8.51613281 16.11613281 -8.55664062 15.30664062 C-8.59853516 14.54931641 -8.64042969 13.79199219 -8.68359375 13.01171875 C-8.73858032 11.96697388 -8.73858032 11.96697388 -8.79467773 10.90112305 C-8.95581153 8.7783428 -8.95581153 8.7783428 -10 6 C-6.55930376 3.70620251 -5.27709699 3 -1 3 C-0.67 2.01 -0.34 1.02 0 0 Z M1 1 C0.67 1.66 0.34 2.32 0 3 C0.99 3 1.98 3 3 3 C3 2.34 3 1.68 3 1 C2.34 1 1.68 1 1 1 Z M-8 6 C-8 6.33 -8 6.66 -8 7 C-2.63904667 8.12862175 2.55306686 8.09688221 8 8 C5.18423064 4.8741608 3.19889246 4.43738463 -1 4 C-4.10551666 4 -5.35261084 4.5393715 -8 6 Z M-7 8 C-7 13.61 -7 19.22 -7 25 C-6.01 25 -5.02 25 -4 25 C-3.67 19.39 -3.34 13.78 -3 8 C-4.32 8 -5.64 8 -7 8 Z M-3 10 C-3.07313567 12.53049402 -3.09247527 15.03304837 -3.0625 17.5625 C-3.05798828 18.27341797 -3.05347656 18.98433594 -3.04882812 19.71679688 C-3.03700864 21.47790013 -3.01907263 23.23896036 -3 25 C-1.68 25.33 -0.36 25.66 1 26 C2.5056904 20.19233704 3.21824777 15.0018137 3 9 C-0.28930404 8.63314303 -0.28930404 8.63314303 -3 10 Z M4 9 C3.34 14.61 2.68 20.22 2 26 C3.32 26 4.64 26 6 26 C6.66 20.39 7.32 14.78 8 9 C6.68 9 5.36 9 4 9 Z " fill="#FFFFFF" transform="translate(331,24)"/>
<path d="M0 0 C1.9375 0.375 1.9375 0.375 4 1 C4.33 1.66 4.66 2.32 5 3 C7.3140622 3.73075648 9.64828869 4.40138258 12 5 C12 6.65 12 8.3 12 10 C11.67 8.68 11.34 7.36 11 6 C8.03 5.505 8.03 5.505 5 5 C4.67 5.66 4.34 6.32 4 7 C4 6.34 4 5.68 4 5 C1.03 5.66 -1.94 6.32 -5 7 C-1.45011229 7.88747193 1.14180778 8.10545467 4.75 8.0625 C6.4825 8.041875 8.215 8.02125 10 8 C9.34 13.61 8.68 19.22 8 25 C-2.5 25.125 -2.5 25.125 -7 24 C-7 19.38 -7 14.76 -7 10 C-7.66 9.67 -8.32 9.34 -9 9 C-8 6 -8 6 -6.1875 4.8125 C-4 4 -4 4 0 4 C0 2.68 0 1.36 0 0 Z M1 1 C1 1.99 1 2.98 1 4 C1.66 4 2.32 4 3 4 C3 3.01 3 2.02 3 1 C2.34 1 1.68 1 1 1 Z M-6 9 C-6 13.62 -6 18.24 -6 23 C-5.01 23 -4.02 23 -3 23 C-2.67 18.38 -2.34 13.76 -2 9 C-3.32 9 -4.64 9 -6 9 Z M-2 10 C-2 14.29 -2 18.58 -2 23 C-0.68 23.33 0.64 23.66 2 24 C2 20.7 2 17.4 2 14 C2.33 17.3 2.66 20.6 3 24 C4.32 24 5.64 24 7 24 C8.21379503 19.29654425 8.07202527 14.82569313 8 10 C4.7 10 1.4 10 -2 10 Z " fill="#FFFFFF" transform="translate(329,102)"/>
<path d="M0 0 C1.32 0.66 2.64 1.32 4 2 C4 7.28 4 12.56 4 18 C-2.1202748 19.20894317 -7.7658552 20.2770731 -14 20 C-14 16.37 -14 12.74 -14 9 C-14.33 9 -14.66 9 -15 9 C-15 7.35 -15 5.7 -15 4 C-11.71480525 2.90493508 -9.26336585 2.90039392 -5.8125 2.9375 C-4.18248047 2.95103516 -4.18248047 2.95103516 -2.51953125 2.96484375 C-1.68808594 2.97644531 -0.85664063 2.98804688 0 3 C0 3.66 0 4.32 0 5 C-0.99 5 -1.98 5 -3 5 C-2.855625 5.61488281 -2.71125 6.22976562 -2.5625 6.86328125 C-2.376875 7.67152344 -2.19125 8.47976562 -2 9.3125 C-1.814375 10.11300781 -1.62875 10.91351563 -1.4375 11.73828125 C-1 14 -1 14 -1 17 C0.32 17 1.64 17 3 17 C1.515 8.585 1.515 8.585 0 0 Z M-12 5 C-12.33 9.62 -12.66 14.24 -13 19 C-11.35 19 -9.7 19 -8 19 C-7.94562393 17.41705218 -7.90703729 15.83355744 -7.875 14.25 C-7.85179687 13.36828125 -7.82859375 12.4865625 -7.8046875 11.578125 C-8.00860498 8.8864142 -8.63448279 7.30095026 -10 5 C-10.66 5 -11.32 5 -12 5 Z M-8 5 C-7.67 9.29 -7.34 13.58 -7 18 C-5.35 18 -3.7 18 -2 18 C-2.66 13.71 -3.32 9.42 -4 5 C-5.32 5 -6.64 5 -8 5 Z " fill="#FFFFFF" transform="translate(333,174)"/>
<path d="M0 0 C20.79 0 41.58 0 63 0 C64.41971815 5.67887259 65.24992637 9.00323959 65.125 14.5 C65.10695313 15.5415625 65.08890625 16.583125 65.0703125 17.65625 C65.04710937 18.4296875 65.02390625 19.203125 65 20 C64.67 20 64.34 20 64 20 C63.34 13.73 62.68 7.46 62 1 C59.69 1.33 57.38 1.66 55 2 C52.252081 2.0805501 49.53523639 2.11835298 46.7890625 2.09375 C45.62523544 2.08837219 45.62523544 2.08837219 44.43789673 2.08288574 C35.41389723 2.02195928 26.39480711 1.7668688 17.375 1.5 C15.67448577 1.45159025 13.97396493 1.40341227 12.2734375 1.35546875 C8.18221097 1.23963371 4.09108511 1.12072265 0 1 C0 0.67 0 0.34 0 0 Z " fill="#FFFFFF" transform="translate(213,94)"/>
<path d="M0 0 C13.365 0.495 13.365 0.495 27 1 C27 1.33 27 1.66 27 2 C18.42 2 9.84 2 1 2 C0.99370988 11.46922435 0.99370988 11.46922435 2 20.625 C2.80524293 26.17663963 3.19652779 31.39895801 3 37 C7.29 37.33 11.58 37.66 16 38 C16 38.33 16 38.66 16 39 C11.48382401 39.07654536 7.40914783 39.10228696 3 38 C2.67 38.66 2.34 39.32 2 40 C1.91697632 39.08504761 1.91697632 39.08504761 1.83227539 38.15161133 C1.57844684 35.37164727 1.32051225 32.59207876 1.0625 29.8125 C0.93198242 28.37293945 0.93198242 28.37293945 0.79882812 26.90429688 C0.71181641 25.97294922 0.62480469 25.04160156 0.53515625 24.08203125 C0.41732788 22.80162964 0.41732788 22.80162964 0.29711914 21.49536133 C-0.00482169 18.95950497 -0.4891998 16.50095132 -1 14 C-1.08721477 12.50195805 -1.13028369 11.00056929 -1.125 9.5 C-1.12757812 8.7678125 -1.13015625 8.035625 -1.1328125 7.28125 C-1 5 -1 5 0 0 Z " fill="#FFFFFF" transform="translate(26,154)"/>
<path d="M0 0 C1.41100983 0.0001133 1.41100983 0.0001133 2.8505249 0.00022888 C3.85794739 0.00539017 4.86536987 0.01055145 5.90332031 0.01586914 C6.94087463 0.01728409 7.97842896 0.01869904 9.04742432 0.02015686 C12.35879407 0.02575092 15.67009602 0.03830236 18.98144531 0.05102539 C21.22753809 0.05604116 23.47363192 0.06060393 25.71972656 0.06469727 C31.22365592 0.0757184 36.72754577 0.09245065 42.23144531 0.11352539 C42.23144531 0.44352539 42.23144531 0.77352539 42.23144531 1.11352539 C25.73144531 1.44352539 9.23144531 1.77352539 -7.76855469 2.11352539 C-7.06163642 16.63711287 -7.06163642 16.63711287 -5.76855469 31.11352539 C-6.09855469 31.11352539 -6.42855469 31.11352539 -6.76855469 31.11352539 C-8.76915486 24.49736733 -9.01101476 18.49849273 -8.89355469 11.61352539 C-8.88453125 10.60032227 -8.87550781 9.58711914 -8.86621094 8.54321289 C-8.84284475 6.06639738 -8.81008637 3.5900916 -8.76855469 1.11352539 C-5.77227852 0.24577652 -3.11495586 -0.00837354 0 0 Z " fill="#FFFFFF" transform="translate(33.7685546875,21.886474609375)"/>
<path d="M0 0 C4.25017299 0.14103754 8.50009117 0.28873099 12.75 0.4375 C14.53083984 0.49647461 14.53083984 0.49647461 16.34765625 0.55664062 C21.83120156 0.75141136 27.28575887 0.99392924 32.75 1.5 C40.90092102 2.22674296 49.07286686 2.35794643 57.25 2.5625 C58.88151866 2.60581035 60.51302919 2.64942804 62.14453125 2.69335938 C66.09626957 2.79910976 70.04809396 2.90072352 74 3 C74 3.33 74 3.66 74 4 C55.82395217 4.20743448 37.70997745 4.20766051 19.5625 3.0625 C18.50628952 2.99715057 18.50628952 2.99715057 17.42874146 2.93048096 C5.21397319 2.1598071 5.21397319 2.1598071 0 1 C0 0.67 0 0.34 0 0 Z " fill="#FFFFFF" transform="translate(29,127)"/>
<path d="M0 0 C24.75 0 49.5 0 75 0 C75 0.33 75 0.66 75 1 C50.25 1 25.5 1 0 1 C0 0.67 0 0.34 0 0 Z " fill="#FFFFFF" transform="translate(104,159)"/>
<path d="M0 0 C16.38406545 -0.7485106 16.38406545 -0.7485106 22.74609375 4.41796875 C24 6 24 6 24 9 C22 8 22 8 20.875 6.0625 C16.36109669 1.09720636 7.33316556 1.49315633 1 1 C0.75076542 8.93396732 1.29005228 16.2441657 3 24 C3.99 24 4.98 24 6 24 C5.360625 24.268125 4.72125 24.53625 4.0625 24.8125 C1.66868314 25.88667752 1.66868314 25.88667752 1 29 C-2.63179916 5.26359833 -2.63179916 5.26359833 0 0 Z " fill="#FFFFFF" transform="translate(290,105)"/>
<path d="M0 0 C21.12 0 42.24 0 64 0 C64 0.33 64 0.66 64 1 C42.88 1 21.76 1 0 1 C0 0.67 0 0.34 0 0 Z " fill="#FFFFFF" transform="translate(130,198)"/>
<path d="M0 0 C17.16 0 34.32 0 52 0 C52 0.33 52 0.66 52 1 C34.84 1 17.68 1 0 1 C0 0.67 0 0.34 0 0 Z " fill="#FFFFFF" transform="translate(206,70)"/>
<path d="M0 0 C2.64 0 5.28 0 8 0 C8 0.33 8 0.66 8 1 C5.69 1.33 3.38 1.66 1 2 C-0.30351387 5.95113548 -0.12612281 9.93824743 -0.09765625 14.046875 C-0.0962413 14.81807678 -0.09482635 15.58927856 -0.09336853 16.3838501 C-0.08778534 18.83927338 -0.07523595 21.29460442 -0.0625 23.75 C-0.05748283 25.41796743 -0.0529203 27.08593629 -0.04882812 28.75390625 C-0.03782141 32.83597287 -0.02056836 36.91797081 0 41 C-0.33 41 -0.66 41 -1 41 C-1.61338904 31.73344416 -2.11040248 22.4758239 -2.1875 13.1875 C-2.20039063 12.44193848 -2.21328125 11.69637695 -2.2265625 10.92822266 C-2.23405125 6.83468623 -1.8295611 3.68081661 0 0 Z " fill="#FFFFFF" transform="translate(29,86)"/>
<path d="M0 0 C11.55 0 23.1 0 35 0 C35.495 0.99 35.495 0.99 36 2 C38.02463255 2.65213292 38.02463255 2.65213292 40 3 C38.35 3.33 36.7 3.66 35 4 C34.505 2.515 34.505 2.515 34 1 C33.27039063 1.0721875 32.54078125 1.144375 31.7890625 1.21875 C24.97827721 1.82415314 18.21099797 2.13231535 11.375 2.1875 C10.59334473 2.20039062 9.81168945 2.21328125 9.00634766 2.2265625 C5.13777157 2.23333018 3.29367494 2.19578329 0 0 Z " fill="#FFFFFF" transform="translate(72,36)"/>
<path d="M0 0 C14.85 0.33 29.7 0.66 45 1 C45 1.33 45 1.66 45 2 C39.87711941 2.02486464 34.75427458 2.04293752 29.63134766 2.05493164 C27.89143257 2.05993604 26.15152164 2.06674159 24.41162109 2.07543945 C21.89940358 2.08767662 19.38724206 2.09326739 16.875 2.09765625 C15.72294067 2.10539818 15.72294067 2.10539818 14.54760742 2.11329651 C9.61241308 2.11380013 4.88646786 1.70049068 0 1 C0 0.67 0 0.34 0 0 Z " fill="#FFFFFF" transform="translate(29,61)"/>
<path d="M0 0 C1.41623216 -0.05447047 2.83308191 -0.09300508 4.25 -0.125 C5.03890625 -0.14820313 5.8278125 -0.17140625 6.640625 -0.1953125 C9 0 9 0 10.8671875 1.03515625 C13.985349 2.44575312 16.50182086 1.91432621 19.875 1.5625 C24.5152474 1.0864487 28.4240821 1.04143616 33 2 C33 2.33 33 2.66 33 3 C32.32453125 2.98839844 31.6490625 2.97679687 30.953125 2.96484375 C30.06109375 2.95582031 29.1690625 2.94679687 28.25 2.9375 C27.36828125 2.92589844 26.4865625 2.91429687 25.578125 2.90234375 C23.20101725 2.99238571 21.28272909 3.38687029 19 4 C12.65112175 4.34011848 12.65112175 4.34011848 10.078125 2.99609375 C7.62377727 1.81966768 5.95351126 1.79548496 3.25 1.875 C2.05117187 1.90207031 2.05117187 1.90207031 0.828125 1.9296875 C-0.07679688 1.96449219 -0.07679688 1.96449219 -1 2 C-0.67 1.34 -0.34 0.68 0 0 Z " fill="#FFFFFF" transform="translate(161,168)"/>
<path d="M0 0 C1.3439618 0.04232568 2.68759656 0.09598461 4.03076172 0.15869141 C5.09192703 0.19623032 5.09192703 0.19623032 6.17453003 0.23452759 C8.43698641 0.31678681 10.69857728 0.4133508 12.96044922 0.51025391 C14.4929658 0.5684876 16.02551803 0.62579101 17.55810547 0.68212891 C21.31771902 0.82237386 25.07661821 0.97545148 28.83544922 1.13525391 C26.46988212 3.500821 25.09241401 3.71769432 21.83544922 4.13525391 C21.50544922 3.80525391 21.17544922 3.47525391 20.83544922 3.13525391 C19.16506289 2.97773037 17.48853272 2.88428058 15.81201172 2.81884766 C14.79107422 2.77695312 13.77013672 2.73505859 12.71826172 2.69189453 C11.64318359 2.65257812 10.56810547 2.61326172 9.46044922 2.57275391 C8.39310547 2.52957031 7.32576172 2.48638672 6.22607422 2.44189453 C0.53239125 2.21321474 0.53239125 2.21321474 -5.16455078 2.13525391 C-3.16455078 0.13525391 -3.16455078 0.13525391 0 0 Z " fill="#FFFFFF" transform="translate(235.16455078125,40.86474609375)"/>
<path d="M0 0 C1.81242052 -0.02687279 3.62495233 -0.04633715 5.4375 -0.0625 C6.44683594 -0.07410156 7.45617187 -0.08570312 8.49609375 -0.09765625 C11 0 11 0 12 1 C12.82715828 4.21789358 13.41845801 7.49110203 14.0625 10.75 C14.24876953 11.6575 14.43503906 12.565 14.62695312 13.5 C14.80291016 14.38171875 14.97886719 15.2634375 15.16015625 16.171875 C15.32136963 16.9772168 15.48258301 17.78255859 15.64868164 18.61230469 C16.01591306 21.10815133 16.06015057 23.48095003 16 26 C14.40875338 23.09728639 13.55385007 20.48002037 12.9296875 17.234375 C12.75566406 16.34492187 12.58164062 15.45546875 12.40234375 14.5390625 C12.22832031 13.61867188 12.05429687 12.69828125 11.875 11.75 C11.69324219 10.81414063 11.51148438 9.87828125 11.32421875 8.9140625 C10.87758682 6.610382 10.43809569 4.30531909 10 2 C6.7 1.67 3.4 1.34 0 1 C0 0.67 0 0.34 0 0 Z " fill="#FFFFFF" transform="translate(271,20)"/>
<path d="M0 0 C0 3 0 3 -1.57421875 4.71875 C-11.39912281 13 -11.39912281 13 -15 13 C-15.33 14.98 -15.66 16.96 -16 19 C-18 16 -18 16 -17.84375 13.921875 C-16.56050659 10.99893168 -14.12301532 10.52990543 -11.34375 9.28125 C-7.00677499 6.91037033 -3.55768704 3.3929793 0 0 Z " fill="#FFFFFF" transform="translate(306,181)"/>
<path d="M0 0 C0.495 1.485 0.495 1.485 1 3 C0.67 3.66 0.34 4.32 0 5 C-10.89 5 -21.78 5 -33 5 C-33 4.67 -33 4.34 -33 4 C-22.44 4 -11.88 4 -1 4 C-0.67 2.68 -0.34 1.36 0 0 Z " fill="#FFFFFF" transform="translate(261,196)"/>
<path d="M0 0 C0.33 0 0.66 0 1 0 C1.02909763 3.24998112 1.04683161 6.49992857 1.0625 9.75 C1.07087891 10.67039062 1.07925781 11.59078125 1.08789062 12.5390625 C1.09111328 13.42851563 1.09433594 14.31796875 1.09765625 15.234375 C1.10289307 16.05131836 1.10812988 16.86826172 1.11352539 17.70996094 C1.00017695 19.99643057 0.82597477 21.86092956 0 24 C-2.75078884 24.91692961 -4.35948913 25.10886083 -7.1875 25.0625 C-9.0746875 25.0315625 -9.0746875 25.0315625 -11 25 C-11 24.67 -11 24.34 -11 24 C-7.7 23.67 -4.4 23.34 -1 23 C-0.67 15.41 -0.34 7.82 0 0 Z " fill="#FFFFFF" transform="translate(276,114)"/>
<path d="M0 0 C5.75 0.75 5.75 0.75 8 3 C11.80157549 3.11903172 15.54882217 3.04190135 19.34765625 2.921875 C20.13785156 2.90640625 20.92804688 2.8909375 21.7421875 2.875 C22.4626123 2.85179688 23.18303711 2.82859375 23.92529297 2.8046875 C26.32975446 3.03104302 27.91821423 3.80873312 30 5 C26.25014675 5.0871747 22.50055445 5.14045003 18.75 5.1875 C17.15478516 5.22520508 17.15478516 5.22520508 15.52734375 5.26367188 C14.50253906 5.27333984 13.47773438 5.28300781 12.421875 5.29296875 C11.47924805 5.3086792 10.53662109 5.32438965 9.56542969 5.34057617 C6.52410947 4.93682268 5.28919228 3.98958986 3 2 C2.01 1.34 1.02 0.68 0 0 Z " fill="#FFFFFF" transform="translate(163,115)"/>
<path d="M0 0 C0.66 0 1.32 0 2 0 C2 0.66 2 1.32 2 2 C2.91523438 1.91621094 3.83046875 1.83242187 4.7734375 1.74609375 C6.55621094 1.59333984 6.55621094 1.59333984 8.375 1.4375 C9.55835938 1.33308594 10.74171875 1.22867188 11.9609375 1.12109375 C15 1 15 1 17 2 C19.204364 2.22950319 21.41392173 2.41075933 23.625 2.5625 C24.81351563 2.64628906 26.00203125 2.73007813 27.2265625 2.81640625 C28.59941406 2.90728516 28.59941406 2.90728516 30 3 C30 3.33 30 3.66 30 4 C22.89079394 4.08874182 16.03551531 4.12568245 9 3 C6.32652754 2.91898568 3.67559 2.95305982 1 3 C0.67 2.01 0.34 1.02 0 0 Z " fill="#FFFFFF" transform="translate(208,180)"/>
<path d="M0 0 C2 2 2 2 2 5 C2.66 5.33 3.32 5.66 4 6 C2.948125 6.12375 1.89625 6.2475 0.8125 6.375 C-2.45958771 6.91140782 -5.00536076 7.63880035 -8 9 C-7.67 8.01 -7.34 7.02 -7 6 C-6.96125079 4.33378384 -6.9549714 2.66605828 -7 1 C-4.48718205 -0.25640898 -2.78302919 -0.20872719 0 0 Z M-6 2 C-5.67 3.32 -5.34 4.64 -5 6 C-3.02 5.34 -1.04 4.68 1 4 C0.34 3.01 -0.32 2.02 -1 1 C-3.9254644 0.7763932 -3.9254644 0.7763932 -6 2 Z " fill="#FFFFFF" transform="translate(329,168)"/>
<path d="M0 0 C1.95825873 -0.02694851 3.91662226 -0.04637218 5.875 -0.0625 C6.96554688 -0.07410156 8.05609375 -0.08570312 9.1796875 -0.09765625 C12 0 12 0 14 1 C14.721875 0.814375 15.44375 0.62875 16.1875 0.4375 C19.86809416 -0.13503687 22.50604244 0.83534748 26 2 C26 2.33 26 2.66 26 3 C25.41992188 2.91621094 24.83984375 2.83242187 24.2421875 2.74609375 C19.57684697 2.13790579 15.64557883 1.92794335 11 3 C11 2.34 11 1.68 11 1 C5.06 1.495 5.06 1.495 -1 2 C-0.67 1.34 -0.34 0.68 0 0 Z " fill="#FFFFFF" transform="translate(165,105)"/>
<path d="M0 0 C11.22 0 22.44 0 34 0 C34 0.33 34 0.66 34 1 C22.78 1 11.56 1 0 1 C0 0.67 0 0.34 0 0 Z " fill="#FFFFFF" transform="translate(194,199)"/>
<path d="M0 0 C10.69220032 -0.19558903 21.32799208 0.40945411 32 1 C32 1.33 32 1.66 32 2 C9.19872014 2.20638953 9.19872014 2.20638953 0 1 C0 0.67 0 0.34 0 0 Z " fill="#FFFFFF" transform="translate(81,199)"/>
<path d="M0 0 C6.93 0 13.86 0 21 0 C21 8 21 8 19 12 C19.33 8.37 19.66 4.74 20 1 C13.4 1 6.8 1 0 1 C0 0.67 0 0.34 0 0 Z " fill="#FFFFFF" transform="translate(246,166)"/>
<path d="M0 0 C10.89 0 21.78 0 33 0 C33 0.33 33 0.66 33 1 C22.11 1 11.22 1 0 1 C0 0.67 0 0.34 0 0 Z " fill="#FFFFFF" transform="translate(51,113)"/>
<path d="M0 0 C2.97 0 5.94 0 9 0 C9 0.33 9 0.66 9 1 C6.36 1 3.72 1 1 1 C1.30035156 2.12019531 1.60070312 3.24039063 1.91015625 4.39453125 C2.29470564 5.86707402 2.67879638 7.33973662 3.0625 8.8125 C3.26166016 9.55048828 3.46082031 10.28847656 3.66601562 11.04882812 C5.11328125 16.66015625 5.11328125 16.66015625 4 20 C1.39099399 13.35441866 0.3856646 7.11484687 0 0 Z " fill="#FFFFFF" transform="translate(283,173)"/>
<path d="M0 0 C10.56 0 21.12 0 32 0 C32 0.33 32 0.66 32 1 C21.44 1 10.88 1 0 1 C0 0.67 0 0.34 0 0 Z " fill="#FFFFFF" transform="translate(74,91)"/>
<path d="M0 0 C3.63 0 7.26 0 11 0 C11 0.66 11 1.32 11 2 C11.94875 1.835 12.8975 1.67 13.875 1.5 C18.5763877 0.81458208 23.26003286 0.91416559 28 1 C28 1.33 28 1.66 28 2 C21.93303301 2.77040851 16.11485027 3.09706112 10 3 C10 2.34 10 1.68 10 1 C6.7 1 3.4 1 0 1 C0 0.67 0 0.34 0 0 Z " fill="#FFFFFF" transform="translate(159,182)"/>
<path d="M0 0 C9.57 0 19.14 0 29 0 C29 0.33 29 0.66 29 1 C19.43 1 9.86 1 0 1 C0 0.67 0 0.34 0 0 Z " fill="#FFFFFF" transform="translate(139,94)"/>
<path d="M0 0 C0.99 0.33 1.98 0.66 3 1 C4.44500201 1.12312997 5.89422748 1.20052768 7.34375 1.24609375 C8.17777344 1.27896484 9.01179687 1.31183594 9.87109375 1.34570312 C11.62356603 1.40689644 13.37617886 1.46418895 15.12890625 1.51757812 C15.96292969 1.55173828 16.79695313 1.58589844 17.65625 1.62109375 C18.79803711 1.65867798 18.79803711 1.65867798 19.96289062 1.69702148 C22 2 22 2 25 4 C21.20744328 3.91941151 17.41652908 3.80654683 13.625 3.6875 C12.54476562 3.66494141 11.46453125 3.64238281 10.3515625 3.61914062 C9.3203125 3.58369141 8.2890625 3.54824219 7.2265625 3.51171875 C5.79691162 3.47244263 5.79691162 3.47244263 4.33837891 3.43237305 C3.56671387 3.28968994 2.79504883 3.14700684 2 3 C1.34 2.01 0.68 1.02 0 0 Z " fill="#FFFFFF" transform="translate(217,106)"/>
<path d="M0 0 C9.24 0 18.48 0 28 0 C28 0.33 28 0.66 28 1 C18.76 1 9.52 1 0 1 C0 0.67 0 0.34 0 0 Z " fill="#FFFFFF" transform="translate(76,21)"/>
<path d="M0 0 C8.91 0 17.82 0 27 0 C27 0.33 27 0.66 27 1 C18.09 1 9.18 1 0 1 C0 0.67 0 0.34 0 0 Z " fill="#FFFFFF" transform="translate(178,92)"/>
<path d="M0 0 C2.18648367 4.37296734 2.23362071 7.5208216 2.125 12.25 C2.11597656 12.99507812 2.10695313 13.74015625 2.09765625 14.5078125 C2.07418358 16.33868059 2.03831525 18.16938238 2 20 C-0.31 19.67 -2.62 19.34 -5 19 C-5 18.67 -5 18.34 -5 18 C-3.02 18 -1.04 18 1 18 C0.67 12.06 0.34 6.12 0 0 Z " fill="#FFFFFF" transform="translate(289,56)"/>
<path d="M0 0 C3 1 3 1 4.1875 3.0625 C4.455625 3.701875 4.72375 4.34125 5 5 C5.86625 4.505 6.7325 4.01 7.625 3.5 C11.10749623 1.9522239 13.24759458 1.73197104 17 2 C17 2.33 17 2.66 17 3 C15.9275 3.28875 14.855 3.5775 13.75 3.875 C10.18205 4.82865883 10.18205 4.82865883 7.75 6.125 C6 7 6 7 3 7 C2.01 4.69 1.02 2.38 0 0 Z " fill="#FFFFFF" transform="translate(177,46)"/>
<path d="M0 0 C8.58 0 17.16 0 26 0 C26 0.33 26 0.66 26 1 C17.42 1 8.84 1 0 1 C0 0.67 0 0.34 0 0 Z " fill="#FFFFFF" transform="translate(103,129)"/>
<path d="M0 0 C0 0.33 0 0.66 0 1 C-7.5324526 2.69745411 -14.35451569 3.85345074 -22 2 C-22 1.67 -22 1.34 -22 1 C-20.87851563 1.01740234 -20.87851563 1.01740234 -19.734375 1.03515625 C-18.74953125 1.04417969 -17.7646875 1.05320313 -16.75 1.0625 C-15.77546875 1.07410156 -14.8009375 1.08570313 -13.796875 1.09765625 C-9.09203925 0.93338126 -4.80369843 -0.09237882 0 0 Z " fill="#FFFFFF" transform="translate(128,177)"/>
<path d="M0 0 C-0.33 1.65 -0.66 3.3 -1 5 C-1.33 4.34 -1.66 3.68 -2 3 C-1.67 2.34 -1.34 1.68 -1 1 C-1.76570313 1.24556641 -1.76570313 1.24556641 -2.546875 1.49609375 C-5.81291828 2.16698481 -8.9186747 2.0933456 -12.25 2.0625 C-13.51328125 2.05347656 -14.7765625 2.04445312 -16.078125 2.03515625 C-17.04234375 2.02355469 -18.0065625 2.01195312 -19 2 C-19 1.67 -19 1.34 -19 1 C-16.95857606 0.83038614 -14.91684689 0.66444404 -12.875 0.5 C-11.16957031 0.36078125 -11.16957031 0.36078125 -9.4296875 0.21875 C-6.27402851 0.0174779 -3.16078835 -0.03842904 0 0 Z " fill="#FFFFFF" transform="translate(311,173)"/>
<path d="M0 0 C7.75493514 -0.09928082 15.31068715 -0.06059488 23 1 C23 1.33 23 1.66 23 2 C15.28410183 2.1567564 7.68483539 1.67453101 0 1 C0 0.67 0 0.34 0 0 Z " fill="#FFFFFF" transform="translate(223,164)"/>
<path d="M0 0 C7.92 0 15.84 0 24 0 C24 0.33 24 0.66 24 1 C16.08 1 8.16 1 0 1 C0 0.67 0 0.34 0 0 Z " fill="#FFFFFF" transform="translate(129,130)"/>
<path d="M0 0 C7.92 0 15.84 0 24 0 C24 0.33 24 0.66 24 1 C16.08 1 8.16 1 0 1 C0 0.67 0 0.34 0 0 Z " fill="#FFFFFF" transform="translate(128,65)"/>
<path d="M0 0 C0 0.66 0 1.32 0 2 C3.3 2 6.6 2 10 2 C10 2.33 10 2.66 10 3 C6.37 3 2.74 3 -1 3 C-1 2.34 -1 1.68 -1 1 C-3.31 1 -5.62 1 -8 1 C-8 0.67 -8 0.34 -8 0 C-4.71303767 -0.79953138 -3.28976808 -1.09658936 0 0 Z " fill="#FFFFFF" transform="translate(95,111)"/>
<path d="M0 0 C0.66 0 1.32 0 2 0 C2 0.66 2 1.32 2 2 C6.64849515 4.3992233 10.91086074 4.19957409 16 4 C15.67 4.66 15.34 5.32 15 6 C5.23625255 6.57433809 5.23625255 6.57433809 1 3 C0.67 2.01 0.34 1.02 0 0 Z " fill="#FFFFFF" transform="translate(41,36)"/>
<path d="M0 0 C6.93 0 13.86 0 21 0 C21 0.33 21 0.66 21 1 C14.07 1 7.14 1 0 1 C0 0.67 0 0.34 0 0 Z " fill="#FFFFFF" transform="translate(53,156)"/>
<path d="M0 0 C6.93 0 13.86 0 21 0 C21 0.33 21 0.66 21 1 C14.07 1 7.14 1 0 1 C0 0.67 0 0.34 0 0 Z " fill="#FFFFFF" transform="translate(232,136)"/>
<path d="M0 0 C6.93 0 13.86 0 21 0 C21 0.33 21 0.66 21 1 C14.07 1 7.14 1 0 1 C0 0.67 0 0.34 0 0 Z " fill="#FFFFFF" transform="translate(168,132)"/>
<path d="M0 0 C6.93 0 13.86 0 21 0 C21 0.33 21 0.66 21 1 C14.07 1 7.14 1 0 1 C0 0.67 0 0.34 0 0 Z " fill="#FFFFFF" transform="translate(106,92)"/>
<path d="M0 0 C0.33 0 0.66 0 1 0 C1.06058594 0.83144531 1.12117188 1.66289063 1.18359375 2.51953125 C1.26738281 3.60621094 1.35117187 4.69289063 1.4375 5.8125 C1.51871094 6.89144531 1.59992188 7.97039063 1.68359375 9.08203125 C1.90212461 12.05989905 1.90212461 12.05989905 3 15 C2.67 15.66 2.34 16.32 2 17 C1.34 17 0.68 17 0 17 C0 11.39 0 5.78 0 0 Z " fill="#FFFFFF" transform="translate(298,37)"/>
<path d="M0 0 C0 0.99 0 1.98 0 3 C0.598125 2.649375 1.19625 2.29875 1.8125 1.9375 C4 1 4 1 7 2 C3.77208445 4.1519437 2.71599191 4.20086443 -1 4 C-1 3.34 -1 2.68 -1 2 C-2.65 2.66 -4.3 3.32 -6 4 C-2.25 0 -2.25 0 0 0 Z " fill="#FFFFFF" transform="translate(167,35)"/>
<path d="M0 0 C0.66 0.33 1.32 0.66 2 1 C-2.46726453 4.31442207 -6.62007164 4.66009167 -12 5 C-9.94766315 2.7522025 -8.99332739 1.9977758 -6 1 C-5.34 1.33 -4.68 1.66 -4 2 C-3.34 1.67 -2.68 1.34 -2 1 C-1.34 0.67 -0.68 0.34 0 0 Z " fill="#FFFFFF" transform="translate(194,33)"/>
<path d="M0 0 C3.16115776 1.36983503 3.9927092 1.9890638 6 5 C4.35 6.65 2.7 8.3 1 10 C0.34 9.67 -0.32 9.34 -1 9 C0.32 7.35 1.64 5.7 3 4 C2.01 2.68 1.02 1.36 0 0 Z " fill="#FFFFFF" transform="translate(308,37)"/>
<path d="M0 0 C6.27 0 12.54 0 19 0 C19 0.33 19 0.66 19 1 C12.73 1 6.46 1 0 1 C0 0.67 0 0.34 0 0 Z " fill="#FFFFFF" transform="translate(42,180)"/>
<path d="M0 0 C6.27 0 12.54 0 19 0 C19 0.33 19 0.66 19 1 C12.73 1 6.46 1 0 1 C0 0.67 0 0.34 0 0 Z " fill="#FFFFFF" transform="translate(109,66)"/>
<path d="M0 0 C-4.86051596 2.59227518 -9.65271133 2.18689553 -15 2 C-14.67 1.34 -14.34 0.68 -14 0 C-11.02148438 0.04882812 -11.02148438 0.04882812 -8.04296875 0.09765625 C-0.75250836 -0.25083612 -0.75250836 -0.25083612 0 0 Z " fill="#FFFFFF" transform="translate(72,38)"/>
<path d="M0 0 C5.94 0 11.88 0 18 0 C18 0.33 18 0.66 18 1 C12.06 1 6.12 1 0 1 C0 0.67 0 0.34 0 0 Z " fill="#FFFFFF" transform="translate(74,157)"/>
<path d="M0 0 C2.64 0 5.28 0 8 0 C8 0.99 8 1.98 8 3 C9.98 2.67 11.96 2.34 14 2 C14 2.66 14 3.32 14 4 C11.69 4 9.38 4 7 4 C7 3.01 7 2.02 7 1 C4.69 1 2.38 1 0 1 C0 0.67 0 0.34 0 0 Z " fill="#FFFFFF" transform="translate(125,107)"/>
<path d="M0 0 C5.61 0 11.22 0 17 0 C17 0.33 17 0.66 17 1 C11.39 1 5.78 1 0 1 C0 0.67 0 0.34 0 0 Z " fill="#FFFFFF" transform="translate(113,199)"/>
<path d="M0 0 C2.31 1.65 4.62 3.3 7 5 C6.01 5.33 5.02 5.66 4 6 C3.4121875 5.2575 3.4121875 5.2575 2.8125 4.5 C0.44908285 2.54406857 -1.01435003 2.75792027 -4 3 C-2.68 2.01 -1.36 1.02 0 0 Z " fill="#FFFFFF" transform="translate(73,175)"/>
<path d="M0 0 C0.66 0.474375 1.32 0.94875 2 1.4375 C5.7933028 3.41317854 8.75524068 3.64027463 13 4 C13 4.33 13 4.66 13 5 C4.87371744 5.46882399 4.87371744 5.46882399 1.4375 3.625 C0 2 0 2 0 0 Z " fill="#FFFFFF" transform="translate(211,42)"/>
<path d="M0 0 C5.28 0 10.56 0 16 0 C16 0.33 16 0.66 16 1 C10.72 1 5.44 1 0 1 C0 0.67 0 0.34 0 0 Z " fill="#FFFFFF" transform="translate(258,71)"/>
<path d="M0 0 C5.28 0 10.56 0 16 0 C16 0.33 16 0.66 16 1 C10.72 1 5.44 1 0 1 C0 0.67 0 0.34 0 0 Z " fill="#FFFFFF" transform="translate(74,63)"/>
<path d="M0 0 C4.95 0 9.9 0 15 0 C15 0.33 15 0.66 15 1 C10.05 1 5.1 1 0 1 C0 0.67 0 0.34 0 0 Z " fill="#FFFFFF" transform="translate(128,178)"/>
<path d="M0 0 C4.95 0 9.9 0 15 0 C15 0.33 15 0.66 15 1 C10.05 1 5.1 1 0 1 C0 0.67 0 0.34 0 0 Z " fill="#FFFFFF" transform="translate(217,135)"/>
<path d="M0 0 C4.95 0 9.9 0 15 0 C15 0.33 15 0.66 15 1 C10.05 1 5.1 1 0 1 C0 0.67 0 0.34 0 0 Z " fill="#FFFFFF" transform="translate(202,134)"/>
<path d="M0 0 C4.95 0 9.9 0 15 0 C15 0.33 15 0.66 15 1 C10.05 1 5.1 1 0 1 C0 0.67 0 0.34 0 0 Z " fill="#FFFFFF" transform="translate(153,131)"/>
<path d="M0 0 C4.95 0 9.9 0 15 0 C15 0.33 15 0.66 15 1 C10.05 1 5.1 1 0 1 C0 0.67 0 0.34 0 0 Z " fill="#FFFFFF" transform="translate(59,90)"/>
<path d="M0 0 C4.95 0 9.9 0 15 0 C15 0.33 15 0.66 15 1 C10.05 1 5.1 1 0 1 C0 0.67 0 0.34 0 0 Z " fill="#FFFFFF" transform="translate(191,69)"/>
<path d="M0 0 C4.51617599 -0.07654536 8.59085217 -0.10228696 13 1 C13 1.33 13 1.66 13 2 C8.71 1.67 4.42 1.34 0 1 C0 0.67 0 0.34 0 0 Z " fill="#FFFFFF" transform="translate(60,196)"/>
<path d="M0 0 C4.62 0 9.24 0 14 0 C14 0.33 14 0.66 14 1 C9.38 1 4.76 1 0 1 C0 0.67 0 0.34 0 0 Z " fill="#FFFFFF" transform="translate(209,163)"/>
<path d="M0 0 C4.62 0 9.24 0 14 0 C14 0.33 14 0.66 14 1 C9.38 1 4.76 1 0 1 C0 0.67 0 0.34 0 0 Z " fill="#FFFFFF" transform="translate(166,67)"/>
<path d="M0 0 C4.62 0 9.24 0 14 0 C14 0.33 14 0.66 14 1 C9.38 1 4.76 1 0 1 C0 0.67 0 0.34 0 0 Z " fill="#FFFFFF" transform="translate(152,66)"/>
<path d="M0 0 C1.98 0.99 1.98 0.99 4 2 C3.01 2.495 3.01 2.495 2 3 C1.34227572 6.02934491 1.34227572 6.02934491 1 9 C0.67 9 0.34 9 0 9 C0 6.03 0 3.06 0 0 Z " fill="#FFFFFF" transform="translate(297,28)"/>
<path d="M0 0 C4.29 0 8.58 0 13 0 C13 0.33 13 0.66 13 1 C8.71 1 4.42 1 0 1 C0 0.67 0 0.34 0 0 Z " fill="#FFFFFF" transform="translate(189,133)"/>
<path d="M0 0 C0.33 0 0.66 0 1 0 C1.25 7.625 1.25 7.625 -1 11 C-0.67 7.37 -0.34 3.74 0 0 Z " fill="#FFFFFF" transform="translate(263,185)"/>
<path d="M0 0 C3.96 0 7.92 0 12 0 C12 0.33 12 0.66 12 1 C8.04 1 4.08 1 0 1 C0 0.67 0 0.34 0 0 Z " fill="#FFFFFF" transform="translate(80,181)"/>
<path d="M0 0 C3.96 0 7.92 0 12 0 C12 0.33 12 0.66 12 1 C8.04 1 4.08 1 0 1 C0 0.67 0 0.34 0 0 Z " fill="#FFFFFF" transform="translate(92,158)"/>
<path d="M0 0 C3.96 0 7.92 0 12 0 C12 0.33 12 0.66 12 1 C8.04 1 4.08 1 0 1 C0 0.67 0 0.34 0 0 Z " fill="#FFFFFF" transform="translate(253,137)"/>
<path d="M0 0 C3.96 0 7.92 0 12 0 C12 0.33 12 0.66 12 1 C8.04 1 4.08 1 0 1 C0 0.67 0 0.34 0 0 Z " fill="#FFFFFF" transform="translate(127,93)"/>
<path d="M0 0 C3.63 0 7.26 0 11 0 C11 0.33 11 0.66 11 1 C7.37 1 3.74 1 0 1 C0 0.67 0 0.34 0 0 Z " fill="#FFFFFF" transform="translate(197,179)"/>
<path d="M0 0 C3.63 0 7.26 0 11 0 C11 0.33 11 0.66 11 1 C7.37 1 3.74 1 0 1 C0 0.67 0 0.34 0 0 Z " fill="#FFFFFF" transform="translate(189,161)"/>
<path d="M0 0 C0.66 0.33 1.32 0.66 2 1 C0.35 2.32 -1.3 3.64 -3 5 C-3.66 4.67 -4.32 4.34 -5 4 C-3.35 2.68 -1.7 1.36 0 0 Z " fill="#FFFFFF" transform="translate(304,121)"/>
<path d="M0 0 C3.63 0 7.26 0 11 0 C11 0.33 11 0.66 11 1 C7.37 1 3.74 1 0 1 C0 0.67 0 0.34 0 0 Z " fill="#FFFFFF" transform="translate(242,108)"/>
<path d="M0 0 C-3.47325181 1.1577506 -6.36067448 1.06866652 -10 1 C-10 0.67 -10 0.34 -10 0 C-6.33694766 -0.74926071 -3.57644848 -1.2380014 0 0 Z " fill="#FFFFFF" transform="translate(213,109)"/>
<path d="M0 0 C3.63 0 7.26 0 11 0 C11 0.33 11 0.66 11 1 C7.37 1 3.74 1 0 1 C0 0.67 0 0.34 0 0 Z " fill="#FFFFFF" transform="translate(180,68)"/>
<path d="M0 0 C3.63 0 7.26 0 11 0 C11 0.33 11 0.66 11 1 C7.37 1 3.74 1 0 1 C0 0.67 0 0.34 0 0 Z " fill="#FFFFFF" transform="translate(90,64)"/>
<path d="M0 0 C1.9955516 3.99110319 2.19546065 5.69986566 2 10 C1.67 10 1.34 10 1 10 C0.67 6.7 0.34 3.4 0 0 Z " fill="#FFFFFF" transform="translate(287,46)"/>
<path d="M0 0 C3.35595828 0.59927826 5.37801226 1.84622436 8 4 C4.31245243 3.50168276 2.39509338 2.89932357 0 0 Z " fill="#FFFFFF" transform="translate(174,35)"/>
<path d="M0 0 C3.3 0 6.6 0 10 0 C10 0.33 10 0.66 10 1 C6.7 1 3.4 1 0 1 C0 0.67 0 0.34 0 0 Z " fill="#FFFFFF" transform="translate(179,160)"/>
<path d="M0 0 C3.3 0 6.6 0 10 0 C10 0.33 10 0.66 10 1 C6.7 1 3.4 1 0 1 C0 0.67 0 0.34 0 0 Z " fill="#FFFFFF" transform="translate(168,93)"/>
<path d="M0 0 C2.97 0 5.94 0 9 0 C9 0.33 9 0.66 9 1 C6.03 1 3.06 1 0 1 C0 0.67 0 0.34 0 0 Z " fill="#FFFFFF" transform="translate(200,162)"/>
<path d="M0 0 C2.97 0 5.94 0 9 0 C9 0.33 9 0.66 9 1 C6.03 1 3.06 1 0 1 C0 0.67 0 0.34 0 0 Z " fill="#FFFFFF" transform="translate(42,112)"/>
<path d="M0 0 C0.66 0.33 1.32 0.66 2 1 C0.68 1.99 -0.64 2.98 -2 4 C-2.66 3.67 -3.32 3.34 -4 3 C-2.68 2.01 -1.36 1.02 0 0 Z " fill="#FFFFFF" transform="translate(305,47)"/>
<path d="M0 0 C2.64 0 5.28 0 8 0 C8 0.33 8 0.66 8 1 C5.36 1 2.72 1 0 1 C0 0.67 0 0.34 0 0 Z " fill="#FFFFFF" transform="translate(73,198)"/>
<path d="M0 0 C2.64 0 5.28 0 8 0 C8 0.33 8 0.66 8 1 C5.36 1 2.72 1 0 1 C0 0.67 0 0.34 0 0 Z " fill="#FFFFFF" transform="translate(92,180)"/>
<path d="M0 0 C1.65 1.32 3.3 2.64 5 4 C3.0625 3.6875 3.0625 3.6875 1 3 C0.67 2.01 0.34 1.02 0 0 Z " fill="#FFFFFF" transform="translate(37,176)"/>
<path d="M0 0 C0 0.99 0 1.98 0 3 C-0.99 3.66 -1.98 4.32 -3 5 C-1.125 1.125 -1.125 1.125 0 0 Z " fill="#FFFFFF" transform="translate(311,114)"/>
<path d="M0 0 C2.64 0 5.28 0 8 0 C8 0.33 8 0.66 8 1 C5.36 1 2.72 1 0 1 C0 0.67 0 0.34 0 0 Z " fill="#FFFFFF" transform="translate(205,93)"/>
<path d="M0 0 C2.64 0 5.28 0 8 0 C8 0.33 8 0.66 8 1 C5.36 1 2.72 1 0 1 C0 0.67 0 0.34 0 0 Z " fill="#FFFFFF" transform="translate(51,89)"/>
<path d="M0 0 C2.64 0 5.28 0 8 0 C8 0.33 8 0.66 8 1 C5.36 1 2.72 1 0 1 C0 0.67 0 0.34 0 0 Z " fill="#FFFFFF" transform="translate(43,88)"/>
<path d="M0 0 C2.64 0 5.28 0 8 0 C8 0.33 8 0.66 8 1 C5.36 1 2.72 1 0 1 C0 0.67 0 0.34 0 0 Z " fill="#FFFFFF" transform="translate(101,65)"/>
<path d="M0 0 C1.0625 1.8125 1.0625 1.8125 2 4 C1.67 4.99 1.34 5.98 1 7 C0.67 4.69 0.34 2.38 0 0 Z " fill="#FFFFFF" transform="translate(28,53)"/>
<path d="M0 0 C2.31 0 4.62 0 7 0 C7 0.33 7 0.66 7 1 C4.69 1 2.38 1 0 1 C0 0.67 0 0.34 0 0 Z " fill="#FFFFFF" transform="translate(47,194)"/>
<path d="M0 0 C0.33 0 0.66 0 1 0 C1 2.31 1 4.62 1 7 C0.67 7 0.34 7 0 7 C0 4.69 0 2.38 0 0 Z " fill="#FFFFFF" transform="translate(264,178)"/>
<path d="M0 0 C2.31 0 4.62 0 7 0 C7 0.33 7 0.66 7 1 C4.69 1 2.38 1 0 1 C0 0.67 0 0.34 0 0 Z " fill="#FFFFFF" transform="translate(253,109)"/>
<path d="M0 0 C2.125 0.375 2.125 0.375 4 1 C2.02 1.33 0.04 1.66 -2 2 C-1.34 1.34 -0.68 0.68 0 0 Z " fill="#FFFFFF" transform="translate(115,109)"/>
<path d="M0 0 C2.31 0 4.62 0 7 0 C7 0.33 7 0.66 7 1 C4.69 1 2.38 1 0 1 C0 0.67 0 0.34 0 0 Z " fill="#FFFFFF" transform="translate(163,49)"/>
<path d="M0 0 C0.99 0.33 1.98 0.66 3 1 C1.02 1.33 -0.96 1.66 -3 2 C-2.01 1.34 -1.02 0.68 0 0 Z " fill="#FFFFFF" transform="translate(115,36)"/>
<path d="M0 0 C1.98 0.99 1.98 0.99 4 2 C3.67 2.66 3.34 3.32 3 4 C2.01 2.68 1.02 1.36 0 0 Z " fill="#FFFFFF" transform="translate(302,32)"/>
<path d="M0 0 C1.98 0 3.96 0 6 0 C6 0.33 6 0.66 6 1 C4.02 1 2.04 1 0 1 C0 0.67 0 0.34 0 0 Z " fill="#FFFFFF" transform="translate(54,195)"/>
<path d="M0 0 C1.98 0 3.96 0 6 0 C6 0.33 6 0.66 6 1 C4.02 1 2.04 1 0 1 C0 0.67 0 0.34 0 0 Z " fill="#FFFFFF" transform="translate(100,179)"/>
<path d="M0 0 C1.98 0 3.96 0 6 0 C6 0.33 6 0.66 6 1 C4.02 1 2.04 1 0 1 C0 0.67 0 0.34 0 0 Z " fill="#FFFFFF" transform="translate(119,108)"/>
<path d="M0 0 C1.98 0 3.96 0 6 0 C6 0.33 6 0.66 6 1 C4.02 1 2.04 1 0 1 C0 0.67 0 0.34 0 0 Z " fill="#FFFFFF" transform="translate(37,87)"/>
<path d="M0 0 C1.65 0 3.3 0 5 0 C5 0.33 5 0.66 5 1 C3.35 1 1.7 1 0 1 C0 0.67 0 0.34 0 0 Z " fill="#FFFFFF" transform="translate(42,193)"/>
<path d="M0 0 C1.65 0 3.3 0 5 0 C5 0.33 5 0.66 5 1 C3.35 1 1.7 1 0 1 C0 0.67 0 0.34 0 0 Z " fill="#FFFFFF" transform="translate(279,73)"/>
<path d="M0 0 C1.65 0 3.3 0 5 0 C5 0.33 5 0.66 5 1 C3.35 1 1.7 1 0 1 C0 0.67 0 0.34 0 0 Z " fill="#FFFFFF" transform="translate(274,72)"/>
<path d="M0 0 C1.65 0 3.3 0 5 0 C5 0.33 5 0.66 5 1 C3.35 1 1.7 1 0 1 C0 0.67 0 0.34 0 0 Z " fill="#FFFFFF" transform="translate(118,37)"/>
<path d="M0 0 C4 1 4 1 4 1 Z " fill="#FFFFFF" transform="translate(61,179)"/>
<path d="M0 0 C0 3 0 3 0 3 Z " fill="#FFFFFF" transform="translate(308,178)"/>
<path d="M0 0 C4 1 4 1 4 1 Z " fill="#FFFFFF" transform="translate(65,178)"/>
<path d="M0 0 C4 1 4 1 4 1 Z " fill="#FFFFFF" transform="translate(105,112)"/>
<path d="M0 0 C4 1 4 1 4 1 Z " fill="#FFFFFF" transform="translate(109,111)"/>
<path d="M0 0 C4 1 4 1 4 1 Z " fill="#FFFFFF" transform="translate(213,107)"/>
<path d="M0 0 C4 1 4 1 4 1 Z " fill="#FFFFFF" transform="translate(173,47)"/>
<path d="M0 0 C3 1 3 1 3 1 Z " fill="#FFFFFF" transform="translate(84,112)"/>
<path d="M0 0 C3 1 3 1 3 1 Z " fill="#FFFFFF" transform="translate(260,110)"/>
<path d="M0 0 C3 1 3 1 3 1 Z " fill="#FFFFFF" transform="translate(170,48)"/>
<path d="M0 0 C3 1 3 1 3 1 Z " fill="#FFFFFF" transform="translate(224,45)"/>
<path d="M0 0 C3 1 3 1 3 1 Z " fill="#FFFFFF" transform="translate(227,44)"/>
<path d="M0 0 C2 1 2 1 2 1 Z " fill="#FFFFFF" transform="translate(297,126)"/>
<path d="M0 0 C2 1 2 1 2 1 Z " fill="#FFFFFF" transform="translate(306,36)"/>
<path d="" fill="#FFFFFF" transform="translate(0,0)"/>
<path d="" fill="#FFFFFF" transform="translate(0,0)"/>
<path d="" fill="#FFFFFF" transform="translate(0,0)"/>
<path d="" fill="#FFFFFF" transform="translate(0,0)"/>
</svg>
