<?xml version="1.0" encoding="UTF-8"?>
<svg version="1.1" xmlns="http://www.w3.org/2000/svg" width="350" height="230">
<path d="M0 0 C5.54250872 0.78259794 9.66921794 3.94945668 13.01953125 8.28515625 C13.50797091 11.82634381 13.77833105 14.0870513 11.83203125 17.16015625 C9.59695235 18.5474466 7.61047747 18.93502838 5.01953125 19.28515625 C4.52453125 21.76015625 4.52453125 21.76015625 4.01953125 24.28515625 C5.07140625 24.84203125 6.12328125 25.39890625 7.20703125 25.97265625 C13.0918768 29.42034354 15.99372274 32.42844399 17.83203125 39.09765625 C18.41984375 41.66546875 18.41984375 41.66546875 19.01953125 44.28515625 C23.30953125 43.29515625 27.59953125 42.30515625 32.01953125 41.28515625 C31.52453125 42.27515625 31.52453125 42.27515625 31.01953125 43.28515625 C27.68031479 44.18279508 24.31589625 44.82588325 20.92578125 45.50390625 C19.4871875 45.890625 19.4871875 45.890625 18.01953125 46.28515625 C17.52453125 47.27515625 17.52453125 47.27515625 17.01953125 48.28515625 C17.01953125 47.62515625 17.01953125 46.96515625 17.01953125 46.28515625 C16.00632813 46.64609375 14.993125 47.00703125 13.94921875 47.37890625 C12.59782428 47.84814044 11.24625221 48.31686341 9.89453125 48.78515625 C9.229375 49.02363281 8.56421875 49.26210937 7.87890625 49.5078125 C7.22148437 49.73339844 6.5640625 49.95898438 5.88671875 50.19140625 C5.28972168 50.40087891 4.69272461 50.61035156 4.07763672 50.82617188 C2.01953125 51.28515625 2.01953125 51.28515625 -3.98046875 51.28515625 C-4.31046875 69.43515625 -4.64046875 87.58515625 -4.98046875 106.28515625 C-5.31046875 106.28515625 -5.64046875 106.28515625 -5.98046875 106.28515625 C-6.0058097 99.09522249 -6.02333183 91.90530024 -6.03540039 84.71533203 C-6.04043124 82.26903859 -6.04725659 79.82274816 -6.0559082 77.37646484 C-6.06802827 73.86164609 -6.07370954 70.34686707 -6.078125 66.83203125 C-6.08328629 65.73711365 -6.08844757 64.64219604 -6.09376526 63.51409912 C-6.09384079 62.4933429 -6.09391632 61.47258667 -6.09399414 60.42089844 C-6.09621475 59.52377136 -6.09843536 58.62664429 -6.10072327 57.70233154 C-5.98726991 55.42186292 -5.62182834 53.46986493 -4.98046875 51.28515625 C-5.97046875 51.78015625 -5.97046875 51.78015625 -6.98046875 52.28515625 C-10.80872744 52.52624578 -14.64546137 52.47034878 -18.48046875 52.47265625 C-20.08728516 52.49102539 -20.08728516 52.49102539 -21.7265625 52.50976562 C-22.74878906 52.51169922 -23.77101562 52.51363281 -24.82421875 52.515625 C-26.23477539 52.52178833 -26.23477539 52.52178833 -27.67382812 52.52807617 C-29.98046875 52.28515625 -29.98046875 52.28515625 -31.98046875 50.28515625 C-30.00046875 50.28515625 -28.02046875 50.28515625 -25.98046875 50.28515625 C-25.8103125 49.56070313 -25.64015625 48.83625 -25.46484375 48.08984375 C-23.18532485 38.99601833 -19.79564081 32.71342847 -11.98046875 27.28515625 C-11.32046875 27.28515625 -10.66046875 27.28515625 -9.98046875 27.28515625 C-10.03674917 22.51800427 -10.03674917 22.51800427 -12.60546875 18.70703125 C-14.35834592 17.47719001 -16.11787331 16.3404649 -17.98046875 15.28515625 C-17.36508413 9.74669471 -17.36508413 9.74669471 -15.41796875 7.41015625 C-14.94359375 7.03890625 -14.46921875 6.66765625 -13.98046875 6.28515625 C-19.44599694 4.57048074 -23.47929616 3.45143205 -28.98046875 5.28515625 C-28.54012883 7.26536046 -28.54012883 7.26536046 -26.98046875 9.28515625 C-24.39407635 10.54668234 -21.72846046 11.4415867 -18.98046875 12.28515625 C-22.24411752 13.34708101 -22.80766716 13.35969811 -26.16796875 11.91015625 C-28.98046875 10.28515625 -28.98046875 10.28515625 -29.98046875 9.28515625 C-30.23046875 6.84765625 -30.23046875 6.84765625 -29.98046875 4.28515625 C-24.61064371 0.70527289 -18.4127948 2.40830542 -12.3125 3.359375 C-7.6404357 3.21068284 -5.35135702 -0.22835104 0 0 Z M-13.98046875 8.28515625 C-14.64046875 9.27515625 -15.30046875 10.26515625 -15.98046875 11.28515625 C-13.27067751 11.19764629 -10.56396127 11.09070732 -7.85546875 10.97265625 C-6.71464844 10.93881836 -6.71464844 10.93881836 -5.55078125 10.90429688 C-0.67096462 10.67292626 2.72843263 9.84199297 7.01953125 7.28515625 C7.01953125 6.29515625 7.01953125 5.30515625 7.01953125 4.28515625 C-2.15794803 -0.95911763 -6.67939071 1.46594936 -13.98046875 8.28515625 Z M9.01953125 6.28515625 C7.25490442 9.3732532 7.01953125 10.51827761 7.01953125 14.28515625 C5.36953125 14.28515625 3.71953125 14.28515625 2.01953125 14.28515625 C1.68953125 13.29515625 1.35953125 12.30515625 1.01953125 11.28515625 C-0.30046875 11.28515625 -1.62046875 11.28515625 -2.98046875 11.28515625 C-3.31046875 12.93515625 -3.64046875 14.58515625 -3.98046875 16.28515625 C-5.30046875 16.28515625 -6.62046875 16.28515625 -7.98046875 16.28515625 C-8.31046875 14.96515625 -8.64046875 13.64515625 -8.98046875 12.28515625 C-11.62046875 12.28515625 -14.26046875 12.28515625 -16.98046875 12.28515625 C-15.80226731 15.95067183 -13.5334539 17.86357129 -10.171875 19.66015625 C-5.70615639 20.93380149 -1.35286658 19.45369723 3.01953125 18.28515625 C3.74269531 18.11242187 4.46585938 17.9396875 5.2109375 17.76171875 C8.16343892 17.00972465 9.83137152 16.47331598 12.01953125 14.28515625 C12.43632422 11.82746472 12.43632422 11.82746472 12.01953125 9.28515625 C10.6236734 7.47039622 10.6236734 7.47039622 9.01953125 6.28515625 Z M5.01953125 9.28515625 C4.02953125 10.27515625 3.03953125 11.26515625 2.01953125 12.28515625 C2.34953125 12.94515625 2.67953125 13.60515625 3.01953125 14.28515625 C4.33953125 13.95515625 5.65953125 13.62515625 7.01953125 13.28515625 C6.35953125 11.96515625 5.69953125 10.64515625 5.01953125 9.28515625 Z M-6.98046875 12.28515625 C-6.98046875 13.60515625 -6.98046875 14.92515625 -6.98046875 16.28515625 C-5.99046875 15.95515625 -5.00046875 15.62515625 -3.98046875 15.28515625 C-3.98046875 14.29515625 -3.98046875 13.30515625 -3.98046875 12.28515625 C-4.97046875 12.28515625 -5.96046875 12.28515625 -6.98046875 12.28515625 Z M-3.54296875 20.78515625 C-4.55488281 20.87796875 -5.56679687 20.97078125 -6.609375 21.06640625 C-7.39183594 21.13859375 -8.17429688 21.21078125 -8.98046875 21.28515625 C-8.98046875 22.93515625 -8.98046875 24.58515625 -8.98046875 26.28515625 C-3.53546875 25.79015625 -3.53546875 25.79015625 2.01953125 25.28515625 C2.34953125 23.63515625 2.67953125 21.98515625 3.01953125 20.28515625 C0.83078888 20.28515625 -1.3661118 20.5849855 -3.54296875 20.78515625 Z M-20.98046875 38.28515625 C-22.68879411 41.23645669 -23.30641782 43.6459124 -23.60546875 47.03515625 C-23.68023437 47.834375 -23.755 48.63359375 -23.83203125 49.45703125 C-23.90550781 50.36195313 -23.90550781 50.36195313 -23.98046875 51.28515625 C-9.40707481 51.61805104 3.08434608 49.9152339 17.01953125 45.28515625 C16.4360061 38.51626455 15.469419 33.11556448 10.14453125 28.41015625 C-1.63632744 20.74760621 -13.91263893 28.43302983 -20.98046875 38.28515625 Z " fill="#FFFFFF" transform="translate(181.98046875,93.71484375)"/>
<path d="M0 0 C0.33 0 0.66 0 1 0 C1.07574549 3.78727462 1.06578788 7.422057 0.63671875 11.19140625 C-0.63861142 22.72090624 1.66435569 32.27026052 8 42 C5.40419721 41.00620939 4.21711992 40.37534784 2.8046875 37.93359375 C2.34449219 36.69802734 2.34449219 36.69802734 1.875 35.4375 C1.56304687 34.63183594 1.25109375 33.82617188 0.9296875 32.99609375 C-0.29019538 29.06479052 -1.10706671 25.01819978 -2 21 C-27.08 21 -52.16 21 -78 21 C-78 20.67 -78 20.34 -78 20 C-52.92 20 -27.84 20 -2 20 C-1.505 13.565 -1.505 13.565 -1 7 C-0.69514462 4.66277542 -0.37871603 2.32639845 0 0 Z " fill="#FFFFFF" transform="translate(135,97)"/>
<path d="M0 0 C0.56589844 0.51046875 1.13179687 1.0209375 1.71484375 1.546875 C5.09428321 3.69585189 8.25207833 2.99807475 12.0625 2.5625 C19.61633616 1.7442241 19.61633616 1.7442241 23 4 C25.14790929 4.31600189 25.14790929 4.31600189 27.4375 4.25 C28.19933594 4.25515625 28.96117187 4.2603125 29.74609375 4.265625 C32.22814828 3.97311251 33.79780765 3.13921967 36 2 C39.25 1.875 39.25 1.875 42 2 C42.495 3.485 42.495 3.485 43 5 C44.98 5 46.96 5 49 5 C48.34 5.66 47.68 6.32 47 7 C44.4375 6.75 44.4375 6.75 42 6 C41.505 5.01 41.505 5.01 41 4 C36.87026372 4.56739868 36.87026372 4.56739868 33 6 C31.19051505 6.12176503 29.37603729 6.17545792 27.5625 6.1875 C26.59441406 6.20167969 25.62632813 6.21585937 24.62890625 6.23046875 C22 6 22 6 19 4 C15.59439558 4.1201978 12.27478927 4.42392148 8.89257812 4.81054688 C3.47303769 5.3077985 3.47303769 5.3077985 0.71875 3.515625 C0.1515625 3.01546875 -0.415625 2.5153125 -1 2 C-5.20625886 2.22138205 -7.47567443 2.65044962 -11 5 C-14.0625 5.25 -14.0625 5.25 -17 5 C-17.66 4.34 -18.32 3.68 -19 3 C-23.77871948 2.71889885 -28.28580561 3.23033561 -33 4 C-29.87008255 0.87008255 -26.67276961 0.84843453 -22.375 0.8125 C-21.21097656 0.79123047 -21.21097656 0.79123047 -20.0234375 0.76953125 C-18 1 -18 1 -16 3 C-13.38028353 2.72424037 -11.42199654 2.23913137 -9.125 0.9375 C-5.96899544 -0.45485495 -3.40470262 -0.3039913 0 0 Z " fill="#FFFFFF" transform="translate(55,85)"/>
<path d="M0 0 C4.86638571 0.20245364 9.27462373 0.19308705 14 -1 C15.41534778 -1.06456879 16.83337689 -1.08611039 18.25 -1.0625 C20.10625 -1.0315625 20.10625 -1.0315625 22 -1 C22.495 0.485 22.495 0.485 23 2 C23.67804688 1.855625 24.35609375 1.71125 25.0546875 1.5625 C31.38057337 0.30082747 37.53941023 -0.57161597 44 0 C44.495 0.495 44.495 0.495 45 1 C47.01964199 1.07244053 49.04167124 1.08377188 51.0625 1.0625 C52.16722656 1.05347656 53.27195312 1.04445313 54.41015625 1.03515625 C55.26480469 1.02355469 56.11945313 1.01195313 57 1 C57 1.66 57 2.32 57 3 C58.65 3 60.3 3 62 3 C62 3.33 62 3.66 62 4 C60.02 4 58.04 4 56 4 C56 3.34 56 2.68 56 2 C55.505 2.165 55.01 2.33 54.5 2.5 C50.9370131 3.21259738 47.63465804 3.11916912 44 3 C43.505 2.505 43.505 2.505 43 2 C39.3703626 1.87901209 36.05960808 1.78807838 32.5 2.5 C28.96773549 3.2064529 25.59976304 3.06101293 22 3 C21.505 2.01 21.505 2.01 21 1 C20.12601563 1.10828125 20.12601563 1.10828125 19.234375 1.21875 C3.71467996 2.97569661 3.71467996 2.97569661 -3.5859375 1.46484375 C-6.04863086 0.9906358 -7.84778865 1.06152708 -10.3125 1.4375 C-12.1378125 1.7159375 -12.1378125 1.7159375 -14 2 C-8.86255896 -1.42496069 -6.04468423 -0.87745416 0 0 Z " fill="#FFFFFF" transform="translate(44,69)"/>
<path d="M0 0 C1.8125 1.375 1.8125 1.375 3.04003906 2.95141602 C5.66428424 5.05912588 7.66453723 4.65016717 10.984375 4.52734375 C12.20640625 4.49962891 13.4284375 4.47191406 14.6875 4.44335938 C17.25536172 4.35664227 19.82307969 4.26554984 22.390625 4.16992188 C29.61050272 4.01445182 33.88238351 4.20921569 39.8125 8.375 C44.81543624 8.28874248 47.6284696 6.90743945 51.8125 4.375 C54.625 4.1875 54.625 4.1875 56.8125 4.375 C56.4825 5.365 56.1525 6.355 55.8125 7.375 C55.8125 6.715 55.8125 6.055 55.8125 5.375 C55.08804688 5.7359375 54.36359375 6.096875 53.6171875 6.46875 C52.65039062 6.9328125 51.68359375 7.396875 50.6875 7.875 C49.73617187 8.3390625 48.78484375 8.803125 47.8046875 9.28125 C44.42583765 10.51633872 42.38174203 10.84726612 38.8125 10.375 C37.82636719 9.715 36.84023437 9.055 35.82421875 8.375 C30.36354749 4.96376956 23.80912675 6.12168196 17.625 6.375 C15.11136615 6.47702471 12.5969247 6.56116347 10.08203125 6.625 C8.97448486 6.67140625 7.86693848 6.7178125 6.72583008 6.765625 C3.1233833 6.28260188 2.17334992 5.02623939 -0.1875 2.375 C-2.63974694 2.48113836 -2.63974694 2.48113836 -5.1875 3.375 C-7.18647128 3.71444795 -9.18625639 4.04921616 -11.1875 4.375 C-3.2375 -0.925 -3.2375 -0.925 0 0 Z " fill="#FFFFFF" transform="translate(80.1875,134.625)"/>
<path d="M0 0 C3.94488228 0.53265923 7.75639153 0.59212273 11.72265625 0.51953125 C16.81381854 0.46820552 21.76129231 0.60506341 26.80859375 1.296875 C30.48644784 1.69847976 34.15227401 1.57818811 37.84765625 1.51953125 C37.84765625 2.50953125 37.84765625 3.49953125 37.84765625 4.51953125 C46.42765625 4.51953125 55.00765625 4.51953125 63.84765625 4.51953125 C63.51765625 5.17953125 63.18765625 5.83953125 62.84765625 6.51953125 C58.88933816 6.54845982 54.93104708 6.56630552 50.97265625 6.58203125 C49.28076172 6.59459961 49.28076172 6.59459961 47.5546875 6.60742188 C45.94013672 6.61225586 45.94013672 6.61225586 44.29296875 6.6171875 C43.29797363 6.62242432 42.30297852 6.62766113 41.27783203 6.63305664 C38.84765625 6.51953125 38.84765625 6.51953125 36.84765625 5.51953125 C36.84765625 4.52953125 36.84765625 3.53953125 36.84765625 2.51953125 C35.85765625 2.68453125 34.86765625 2.84953125 33.84765625 3.01953125 C29.0969695 3.69270549 24.26228399 4.05156787 19.54296875 3.01171875 C16.26126614 2.41245132 13.18149085 2.46205134 9.84765625 2.51953125 C5.63823521 2.59210747 1.9573915 2.36380623 -2.15234375 1.51953125 C-4.49399874 1.78824576 -6.83118664 2.10991529 -9.15234375 2.51953125 C-6.1177092 -0.5151033 -4.23271221 -0.64513458 0 0 Z " fill="#FFFFFF" transform="translate(33.15234375,96.48046875)"/>
<path d="M0 0 C0.66 0.99 1.32 1.98 2 3 C6.74161387 3.50803006 10.19709079 3.03831311 14.6875 1.5 C20.68520643 -0.46508704 26.74074459 -0.67596447 33 0 C33.99 0.66 34.98 1.32 36 2 C37.65549531 2.38499891 39.3222433 2.72793135 41 3 C41 3.33 41 3.66 41 4 C35.375 4.25 35.375 4.25 32 2 C25.38914048 1.153018 19.73246063 2.2025255 13.50390625 4.33203125 C9.35681397 5.43835384 5.25610839 5.24449984 1 5 C0.34 3.68 -0.32 2.36 -1 1 C-3.41690876 1.47797076 -5.83352763 1.9573322 -8.25 2.4375 C-9.27287109 2.63956055 -9.27287109 2.63956055 -10.31640625 2.84570312 C-13.56469458 3.49220711 -16.79815978 4.15002695 -20 5 C-17.7308725 1.87994969 -14.9376951 1.15397782 -11.265625 0.3515625 C-7.5581615 -0.22373356 -3.70667169 -0.71518769 0 0 Z " fill="#FFFFFF" transform="translate(226,165)"/>
<path d="M0 0 C0 0.99 0 1.98 0 3 C-0.90363281 3.06058594 -1.80726563 3.12117187 -2.73828125 3.18359375 C-3.91777344 3.26738281 -5.09726562 3.35117188 -6.3125 3.4375 C-8.07013672 3.55931641 -8.07013672 3.55931641 -9.86328125 3.68359375 C-13.02590958 3.8867371 -13.02590958 3.8867371 -16 5 C-18.06145107 5.068991 -20.12501401 5.08467727 -22.1875 5.0625 C-23.81751953 5.04896484 -23.81751953 5.04896484 -25.48046875 5.03515625 C-26.31191406 5.02355469 -27.14335937 5.01195312 -28 5 C-28 4.34 -28 3.68 -28 3 C-29.07378906 3.144375 -30.14757812 3.28875 -31.25390625 3.4375 C-32.69007356 3.62523429 -34.12627324 3.81272109 -35.5625 4 C-36.26697266 4.09539062 -36.97144531 4.19078125 -37.69726562 4.2890625 C-42.17367855 4.86666417 -46.48661238 5.09489383 -51 5 C-51.33 4.34 -51.66 3.68 -52 3 C-55.3 3 -58.6 3 -62 3 C-57.78370866 0.89185433 -55.60209225 0.82299645 -51 1 C-50.67 1.99 -50.34 2.98 -50 4 C-49.09378906 3.855625 -48.18757813 3.71125 -47.25390625 3.5625 C-40.41922295 2.52102445 -33.91204762 1.76165353 -27 2 C-27 2.66 -27 3.32 -27 4 C-26.21238281 3.86722656 -25.42476563 3.73445312 -24.61328125 3.59765625 C-17.56976617 2.4556899 -10.60830181 1.66364448 -3.484375 1.24609375 C-1.05966501 1.27098518 -1.05966501 1.27098518 0 0 Z " fill="#FFFFFF" transform="translate(319,188)"/>
<path d="M0 0 C0.33 0.66 0.66 1.32 1 2 C2.41655793 2.0272415 3.83327045 2.04650467 5.25 2.0625 C6.03890625 2.07410156 6.8278125 2.08570313 7.640625 2.09765625 C9.9221039 2.00322418 11.80035974 1.57400971 14 1 C16.76922665 0.72830229 19.18972102 0.81869168 22 1 C22.66 1.99 23.32 2.98 24 4 C26.80435411 4.05632424 29.35146678 3.95814702 32.125 3.6875 C32.87910156 3.62626953 33.63320312 3.56503906 34.41015625 3.50195312 C36.27463438 3.3485467 38.13752498 3.17606541 40 3 C34.72346191 6.51769206 29.13607598 6.10579441 23 6 C22.34 4.68 21.68 3.36 21 2 C20.40574219 2.144375 19.81148437 2.28875 19.19921875 2.4375 C12.71267548 3.89016288 6.63386814 4.2270145 0 4 C-0.33 3.01 -0.66 2.02 -1 1 C-1.54527344 1.144375 -2.09054688 1.28875 -2.65234375 1.4375 C-8.24959924 2.81528597 -13.23945745 3.18287437 -19 3 C-19 2.67 -19 2.34 -19 2 C-12.6221448 0.82706111 -6.49678438 -0.29530838 0 0 Z " fill="#FFFFFF" transform="translate(68,37)"/>
<path d="M0 0 C5.56451613 -0.37096774 5.56451613 -0.37096774 7.6875 1.4375 C8.120625 1.953125 8.55375 2.46875 9 3 C11.81378163 3.93792721 13.44262771 4.10671694 16.34375 4.0625 C17.17777344 4.05476563 18.01179688 4.04703125 18.87109375 4.0390625 C20.17240234 4.01972656 20.17240234 4.01972656 21.5 4 C23.21868654 3.97446231 24.93744765 3.95343943 26.65625 3.9375 C27.41744141 3.92589844 28.17863281 3.91429687 28.96289062 3.90234375 C31 4 31 4 34 5 C35.56924398 5.05863225 37.14096433 5.06123572 38.7109375 5.02734375 C39.62617188 5.01509766 40.54140625 5.00285156 41.484375 4.99023438 C43.40372394 4.95521923 45.32300404 4.91618928 47.2421875 4.87304688 C55.88946105 4.76981397 55.88946105 4.76981397 60 7 C57 8 57 8 54 7 C52.63051976 6.93031521 51.25779477 6.91553105 49.88671875 6.9375 C49.06107422 6.94612061 48.23542969 6.95474121 47.38476562 6.96362305 C46.04961914 6.98162964 46.04961914 6.98162964 44.6875 7 C36.78568366 7.04222239 28.89728858 6.96885874 21 6.6875 C19.61300903 6.65366211 19.61300903 6.65366211 18.19799805 6.61914062 C13.26912564 6.4182417 10.08790145 6.00648662 6 3 C4.01548229 2.28856912 2.01797888 1.61008664 0 1 C0 0.67 0 0.34 0 0 Z " fill="#FFFFFF" transform="translate(249,42)"/>
<path d="M0 0 C0 0.99 0 1.98 0 3 C0.81339844 2.83371094 1.62679688 2.66742188 2.46484375 2.49609375 C7.27249296 1.82142916 11.96785318 1.9881096 16.81054688 2.12695312 C21.01700867 2.19063064 24.22188689 1.90776009 28 0 C28 0.66 28 1.32 28 2 C24.62301212 4.04173535 22.05453777 4.23525039 18.140625 4.1953125 C17.02558594 4.18886719 15.91054688 4.18242187 14.76171875 4.17578125 C13.60285156 4.15902344 12.44398438 4.14226563 11.25 4.125 C10.07566406 4.11597656 8.90132813 4.10695313 7.69140625 4.09765625 C4.79406464 4.07410063 1.89713559 4.04120652 -1 4 C-1 3.01 -1 2.02 -1 1 C-1.99 1.495 -2.98 1.99 -4 2.5 C-10.64328597 5.06344187 -18.0049088 4.22920809 -25 4 C-25 3.01 -25 2.02 -25 1 C-24.67 1.33 -24.34 1.66 -24 2 C-21.75268875 2.1264848 -19.50083761 2.17582553 -17.25 2.1875 C-16.01765625 2.20167969 -14.7853125 2.21585937 -13.515625 2.23046875 C-8.63233746 1.91034212 -4.9580653 -0.28331802 0 0 Z " fill="#FFFFFF" transform="translate(308,5)"/>
<path d="M0 0 C5.18981461 2.83546084 10.5591067 2.2827036 16.3125 1.9375 C12.04332169 4.78361887 8.32688845 4.56987837 3.3125 3.9375 C1.11817433 3.09849313 -0.79352146 2.12496207 -2.80078125 0.91015625 C-6.15199544 -0.81748833 -8.68089772 -1.30132994 -12.37109375 -0.42578125 C-17.60210488 1.57016484 -22.21285373 3.5512812 -26.6875 6.9375 C-25.2313453 3.10077778 -23.47391047 1.97205804 -19.8125 0.25 C-18.94882812 -0.16636719 -18.08515625 -0.58273438 -17.1953125 -1.01171875 C-10.99251543 -3.61071005 -5.90626898 -3.46271903 0 0 Z " fill="#FFFFFF" transform="translate(59.6875,196.0625)"/>
<path d="M0 0 C4.17356003 4.71097735 4.14168257 9.92575358 5 16 C12.92 16.33 20.84 16.66 29 17 C29 17.33 29 17.66 29 18 C20.75 18 12.5 18 4 18 C3.67 20.64 3.34 23.28 3 26 C2.34 26.33 1.68 26.66 1 27 C1.24169922 25.71802734 1.24169922 25.71802734 1.48828125 24.41015625 C1.9944201 21.03718511 2.16737916 17.84596991 2.1875 14.4375 C2.20167969 13.34308594 2.21585938 12.24867187 2.23046875 11.12109375 C1.99851851 7.97993704 1.23877159 5.86435327 0 3 C0 2.01 0 1.02 0 0 Z " fill="#FFFFFF" transform="translate(225,97)"/>
<path d="M0 0 C0.33 0 0.66 0 1 0 C1.02698422 2.43757413 1.04683099 4.87484915 1.0625 7.3125 C1.07087891 8.00279297 1.07925781 8.69308594 1.08789062 9.40429688 C1.10307906 12.5483025 1.00193327 14.99420019 0 18 C0.55985596 17.98952637 1.11971191 17.97905273 1.6965332 17.96826172 C4.23514307 17.92666674 6.7736812 17.90066315 9.3125 17.875 C10.19357422 17.85824219 11.07464844 17.84148437 11.98242188 17.82421875 C12.82998047 17.81777344 13.67753906 17.81132813 14.55078125 17.8046875 C15.72120972 17.78897705 15.72120972 17.78897705 16.9152832 17.77294922 C19 18 19 18 22 20 C3.685 19.505 3.685 19.505 -15 19 C-15 18.67 -15 18.34 -15 18 C-10.38 18 -5.76 18 -1 18 C-0.505 9.09 -0.505 9.09 0 0 Z " fill="#FFFFFF" transform="translate(178,56)"/>
<path d="M0 0 C0.99 0.33 1.98 0.66 3 1 C4.1875 4.0625 4.1875 4.0625 5 7 C8.05748265 6.57337451 10.75524623 6.099067 13.625 4.9375 C16 4 16 4 20 4 C20.33 5.32 20.66 6.64 21 8 C24.3 8.33 27.6 8.66 31 9 C31 9.33 31 9.66 31 10 C29.56344146 10.08131463 28.1255517 10.13933559 26.6875 10.1875 C25.88699219 10.22230469 25.08648437 10.25710937 24.26171875 10.29296875 C22 10 22 10 20.20703125 8.61328125 C19 7 19 7 19 5 C18.41992188 5.28875 17.83984375 5.5775 17.2421875 5.875 C9.0971251 9.74592075 9.0971251 9.74592075 4 9 C2 7 2 7 1.875 4.375 C1.91625 3.59125 1.9575 2.8075 2 2 C0.02 2.66 -1.96 3.32 -4 4 C-2.68 2.68 -1.36 1.36 0 0 Z " fill="#FFFFFF" transform="translate(265,135)"/>
<path d="M0 0 C0.55913086 0.65516602 1.11826172 1.31033203 1.69433594 1.98535156 C4.91342738 4.79813668 7.16010649 4.54222391 11.390625 4.609375 C12.09523865 4.62591125 12.79985229 4.64244751 13.52581787 4.65948486 C15.76730102 4.70791139 18.00810613 4.72932187 20.25 4.75 C21.77347151 4.77816448 23.29691152 4.80809259 24.8203125 4.83984375 C28.54672756 4.91366593 32.2730138 4.96327469 36 5 C36 5.33 36 5.66 36 6 C31.37359847 6.09901748 26.74781613 6.17153649 22.12060547 6.21972656 C20.54725396 6.2398188 18.97397692 6.26709799 17.40087891 6.30175781 C15.13685728 6.35038494 12.87382427 6.37299135 10.609375 6.390625 C9.90818542 6.41127014 9.20699585 6.43191528 8.48455811 6.45318604 C4.99974797 6.45478033 3.35213772 6.30074147 0.65820312 4 C0.11099609 3.34 -0.43621094 2.68 -1 2 C-3.78142043 1.49244153 -6.1457229 1.80971486 -9 2 C-5.88229079 0.15246862 -3.61884589 -0.54282688 0 0 Z " fill="#FFFFFF" transform="translate(252,68)"/>
<path d="M0 0 C0.66 0.66 1.32 1.32 2 2 C8.55892664 3.41023575 15.45602924 3.04048105 22.1171875 2.83984375 C25.05161785 3.00286766 26.47032502 3.62384866 29 5 C25.10422976 5.05821935 21.20857198 5.0936703 17.3125 5.125 C16.20970703 5.14175781 15.10691406 5.15851562 13.97070312 5.17578125 C12.90400391 5.18222656 11.83730469 5.18867188 10.73828125 5.1953125 C9.26935425 5.21102295 9.26935425 5.21102295 7.77075195 5.22705078 C3.99310911 4.91748978 1.15451917 3.69970859 -2.0625 1.75 C-2.701875 1.5025 -3.34125 1.255 -4 1 C-6.06669397 1.90833725 -6.06669397 1.90833725 -8 3 C-8.99 2.67 -9.98 2.34 -11 2 C-6.93901493 -0.36103783 -4.54926865 -1.64279146 0 0 Z " fill="#FFFFFF" transform="translate(246,19)"/>
<path d="M0 0 C0 0.66 0 1.32 0 2 C2.475 2.495 2.475 2.495 5 3 C4.67 3.66 4.34 4.32 4 5 C1.525 4.01 1.525 4.01 -1 3 C-1 2.34 -1 1.68 -1 1 C-4.22914752 0.97082772 -7.45826083 0.95314337 -10.6875 0.9375 C-11.59951172 0.92912109 -12.51152344 0.92074219 -13.45117188 0.91210938 C-14.78051758 0.90727539 -14.78051758 0.90727539 -16.13671875 0.90234375 C-16.94842529 0.89710693 -17.76013184 0.89187012 -18.59643555 0.88647461 C-21.15051714 1.00710924 -23.50241024 1.46850958 -26 2 C-27.60303627 2.06371368 -29.20837672 2.08644214 -30.8125 2.0625 C-31.60269531 2.05347656 -32.39289063 2.04445313 -33.20703125 2.03515625 C-33.79871094 2.02355469 -34.39039063 2.01195313 -35 2 C-35 1.67 -35 1.34 -35 1 C-23.28898263 -1.67364736 -11.88703935 -0.80986157 0 0 Z " fill="#FFFFFF" transform="translate(323,73)"/>
<path d="M0 0 C2.05893621 0.22325814 4.12233653 0.40705759 6.1875 0.5625 C7.27417969 0.64628906 8.36085937 0.73007813 9.48046875 0.81640625 C10.72763672 0.90728516 10.72763672 0.90728516 12 1 C12 1.33 12 1.66 12 2 C9.95863605 2.05451714 7.91684144 2.09302485 5.875 2.125 C4.16957031 2.15980469 4.16957031 2.15980469 2.4296875 2.1953125 C-1 2 -1 2 -3.75 0.96875 C-8.50901684 -0.4498031 -12.96130747 0.042094 -17.875 0.375 C-19.33679688 0.46007812 -19.33679688 0.46007812 -20.828125 0.546875 C-23.2195783 0.68754872 -25.60985226 0.8388736 -28 1 C-28 0.67 -28 0.34 -28 0 C-23.84286154 -0.94335065 -19.74984641 -1.32751075 -15.5 -1.625 C-14.2109375 -1.72039062 -12.921875 -1.81578125 -11.59375 -1.9140625 C-7.29775858 -2.01679273 -4.04630788 -1.34876929 0 0 Z " fill="#FFFFFF" transform="translate(127,164)"/>
<path d="M0 0 C0 0.66 0 1.32 0 2 C-1.216875 1.938125 -2.43375 1.87625 -3.6875 1.8125 C-6.73755783 1.79647518 -7.81032008 1.88619205 -10.5 3.5 C-14.19724878 5.71834927 -16.71162487 5.34034723 -21 5 C-21.66 4.649375 -22.32 4.29875 -23 3.9375 C-26.33107195 2.37606002 -29.43447918 3.40574653 -33 4 C-29.09101684 1.39401123 -26.66919342 1.29645672 -22 1 C-21.34 1.66 -20.68 2.32 -20 3 C-16.53796413 3.38467065 -14.64640542 3.41929 -11.6875 1.5 C-7.83378386 -0.65091133 -4.31959191 -0.25409364 0 0 Z " fill="#FFFFFF" transform="translate(332,139)"/>
<path d="M0 0 C0.33 0.99 0.66 1.98 1 3 C1.87011719 2.98259766 1.87011719 2.98259766 2.7578125 2.96484375 C11.75435064 2.86092334 11.75435064 2.86092334 16 4 C16.99 5.485 16.99 5.485 18 7 C18.66 7.33 19.32 7.66 20 8 C18.68 8.33 17.36 8.66 16 9 C15.67 7.68 15.34 6.36 15 5 C13.94039062 5.03480469 12.88078125 5.06960937 11.7890625 5.10546875 C10.40105748 5.13360399 9.01303537 5.16090443 7.625 5.1875 C6.57699219 5.22520508 6.57699219 5.22520508 5.5078125 5.26367188 C3.4765625 5.29296875 3.4765625 5.29296875 0 5 C-0.66 4.01 -1.32 3.02 -2 2 C-3.98 2.66 -5.96 3.32 -8 4 C-6.27302455 0.54604909 -3.70696841 0 0 0 Z " fill="#FFFFFF" transform="translate(180,81)"/>
<path d="M0 0 C0.33 0.66 0.66 1.32 1 2 C3.52733235 2.65555119 3.52733235 2.65555119 6 3 C6 3.33 6 3.66 6 4 C0.46153846 4.36923077 0.46153846 4.36923077 -1.875 2.5 C-2.24625 2.005 -2.6175 1.51 -3 1 C-3.763125 1.28875 -4.52625 1.5775 -5.3125 1.875 C-12.02390996 3.9225488 -18.95421772 5.3808531 -26 5 C-26 4.67 -26 4.34 -26 4 C-25.16021606 3.82609741 -25.16021606 3.82609741 -24.3034668 3.64868164 C-21.76442215 3.12180947 -19.22595912 2.59218569 -16.6875 2.0625 C-15.80642578 1.88009766 -14.92535156 1.69769531 -14.01757812 1.50976562 C-13.17001953 1.33251953 -12.32246094 1.15527344 -11.44921875 0.97265625 C-10.27879028 0.72914429 -10.27879028 0.72914429 -9.0847168 0.48071289 C-2.70256668 -0.99094112 -2.70256668 -0.99094112 0 0 Z " fill="#FFFFFF" transform="translate(54,140)"/>
<path d="M0 0 C1.16380158 4.1195848 1.0285021 8.02255284 0.87890625 12.265625 C0.85529526 13.05902283 0.83168427 13.85242065 0.80735779 14.66986084 C0.73096071 17.19676683 0.64683387 19.72334767 0.5625 22.25 C0.5092553 23.96613008 0.45651507 25.68227588 0.40429688 27.3984375 C0.27537813 31.59916311 0.13952774 35.79961392 0 40 C-0.33 40 -0.66 40 -1 40 C-1.02470935 34.78556667 -1.04286444 29.57116739 -1.05493164 24.35668945 C-1.059962 22.58259487 -1.06678699 20.80850444 -1.07543945 19.03442383 C-1.08756174 16.48517839 -1.09324126 13.93598774 -1.09765625 11.38671875 C-1.10281754 10.59287277 -1.10797882 9.79902679 -1.11329651 8.98112488 C-1.11362877 5.72343714 -1.03772826 3.11318479 0 0 Z " fill="#FFFFFF" transform="translate(182,0)"/>
<path d="M0 0 C-5.09347915 2.58700423 -10.05850776 2.09277746 -15.5859375 1.83398438 C-19.43778697 1.73424899 -22.26908746 1.91530329 -25.7890625 3.56640625 C-29 5 -29 5 -31.4375 4.6875 C-31.953125 4.460625 -32.46875 4.23375 -33 4 C-25.22116092 -0.28122839 -18.27615359 -0.33353901 -9.66015625 -0.04296875 C-5.77373843 0.00265622 -3.67467492 -1.22489164 0 0 Z " fill="#FFFFFF" transform="translate(99,166)"/>
<path d="M0 0 C1.875 2 1.875 2 3 4 C2.43410156 3.66355469 1.86820313 3.32710937 1.28515625 2.98046875 C-1.34858129 1.85043777 -2.75169445 1.91775066 -5.5625 2.3125 C-6.70912109 2.46138672 -6.70912109 2.46138672 -7.87890625 2.61328125 C-10.17759623 2.9808987 -10.17759623 2.9808987 -13 4 C-14.33525717 4.07973476 -15.67412083 4.10771338 -17.01171875 4.09765625 C-18.14770508 4.09282227 -18.14770508 4.09282227 -19.30664062 4.08789062 C-20.09232422 4.07951172 -20.87800781 4.07113281 -21.6875 4.0625 C-22.48478516 4.05798828 -23.28207031 4.05347656 -24.10351562 4.04882812 C-26.06904257 4.0370585 -28.03453085 4.01912348 -30 4 C-30 3.67 -30 3.34 -30 3 C-28.9378125 2.95101562 -27.875625 2.90203125 -26.78125 2.8515625 C-18.28753836 2.41673427 -8.11941655 -1.13294184 0 0 Z " fill="#FFFFFF" transform="translate(40,222)"/>
<path d="M0 0 C11.88 0 23.76 0 36 0 C36 0.33 36 0.66 36 1 C24.12 1 12.24 1 0 1 C0 0.67 0 0.34 0 0 Z " fill="#FFFFFF" transform="translate(302,118)"/>
<path d="M0 0 C2.01822917 0.06510417 4.03645833 0.13020833 6.0546875 0.1953125 C6.3846875 1.1853125 6.7146875 2.1753125 7.0546875 3.1953125 C8.570625 2.7003125 8.570625 2.7003125 10.1171875 2.1953125 C13.80948661 1.12529929 17.20716957 1.03827095 21.0546875 1.1953125 C21.3846875 1.8553125 21.7146875 2.5153125 22.0546875 3.1953125 C20.9409375 3.1746875 19.8271875 3.1540625 18.6796875 3.1328125 C15.22252829 2.93150532 15.22252829 2.93150532 13.0546875 4.1953125 C10.7217009 4.23553641 8.38762084 4.23851497 6.0546875 4.1953125 C5.7246875 3.5353125 5.3946875 2.8753125 5.0546875 2.1953125 C2.0846875 2.1953125 -0.8853125 2.1953125 -3.9453125 2.1953125 C-1.9453125 0.1953125 -1.9453125 0.1953125 0 0 Z " fill="#FFFFFF" transform="translate(88.9453125,57.8046875)"/>
<path d="M0 0 C0.66 0.66 1.32 1.32 2 2 C4.68839385 2.26991906 7.29141936 2.08737357 10 2 C8 4 8 4 4.5 4.25 C1 4 1 4 -1 2 C-5.87419865 1.88508765 -10.61378504 2.87763792 -15 5 C-10.33670792 -0.16293052 -6.88034053 -0.38224114 0 0 Z " fill="#FFFFFF" transform="translate(225,20)"/>
<path d="M0 0 C1.8125 0.875 1.8125 0.875 3.8125 2.875 C7.34467579 2.55389311 10.44699506 1.99683498 13.8125 0.875 C13.8125 1.535 13.8125 2.195 13.8125 2.875 C10.16437527 5.20979983 7.07062212 5.25518947 2.8125 4.875 C0.375 3.375 0.375 3.375 -1.1875 1.875 C-2.5075 2.865 -3.8275 3.855 -5.1875 4.875 C-5.8475 4.545 -6.5075 4.215 -7.1875 3.875 C-2.786522 -0.15922983 -2.786522 -0.15922983 0 0 Z " fill="#FFFFFF" transform="translate(247.1875,138.125)"/>
<path d="M0 0 C2.02456848 1.29572383 4.02678947 2.6273318 6 4 C9.25177852 4.33594133 9.25177852 4.33594133 12 4 C11.34 4.66 10.68 5.32 10 6 C6.40124459 5.80006914 3.85358318 5.64665392 0.9375 3.4375 C-1.78827787 1.41514867 -3.67314905 1.72842033 -7 2 C-8.67453799 2.291224 -10.34550895 2.61070799 -12 3 C-8.50520092 -0.49479908 -4.70831641 -0.8668412 0 0 Z " fill="#FFFFFF" transform="translate(73,56)"/>
<path d="M0 0 C9.24 0 18.48 0 28 0 C26 2 26 2 23.38623047 2.13525391 C22.30744629 2.08288574 21.22866211 2.03051758 20.1171875 1.9765625 C18.95058594 1.925 17.78398438 1.8734375 16.58203125 1.8203125 C15.35871094 1.75585938 14.13539062 1.69140625 12.875 1.625 C11.64394531 1.56828125 10.41289063 1.5115625 9.14453125 1.453125 C6.09579194 1.31132317 3.04783612 1.15988027 0 1 C0 0.67 0 0.34 0 0 Z " fill="#FFFFFF" transform="translate(31,27)"/>
<path d="M0 0 C0.5775 0.474375 1.155 0.94875 1.75 1.4375 C5.19161985 3.82751378 8.89611165 3.74569923 13 4 C13 4.33 13 4.66 13 5 C11.41753293 5.08153933 9.83383727 5.13943557 8.25 5.1875 C7.36828125 5.22230469 6.4865625 5.25710937 5.578125 5.29296875 C3 5 3 5 1 3.46875 C-1.65554378 1.51858503 -3.04507284 1.84862896 -6.25 2.3125 C-7.14203125 2.43238281 -8.0340625 2.55226563 -8.953125 2.67578125 C-9.62859375 2.78277344 -10.3040625 2.88976562 -11 3 C-4.2 -0.4 -4.2 -0.4 0 0 Z " fill="#FFFFFF" transform="translate(88,25)"/>
<path d="M0 0 C0.66 0.99 1.32 1.98 2 3 C1.01 2.67 0.02 2.34 -1 2 C-5.33712656 1.77946814 -8.99192553 1.87959091 -13.1875 3 C-16.37858593 3.83700615 -18.74800211 4.20324987 -22 4 C-15.64518869 0.29302673 -7.27152795 -1.25697416 0 0 Z " fill="#FFFFFF" transform="translate(118,195)"/>
<path d="M0 0 C0.66 0.99 1.32 1.98 2 3 C5.56769552 3.73606499 5.56769552 3.73606499 9 4 C9 4.33 9 4.66 9 5 C6.36 5 3.72 5 1 5 C0.34 3.68 -0.32 2.36 -1 1 C-1.66 1.165 -2.32 1.33 -3 1.5 C-6.73099794 2.12183299 -10.21873378 2.06408926 -14 2 C-14 1.67 -14 1.34 -14 1 C-9.29100905 0.23118515 -4.7709748 -0.3741941 0 0 Z " fill="#FFFFFF" transform="translate(50,56)"/>
<path d="M0 0 C0.66 0.99 1.32 1.98 2 3 C5.56769552 3.73606499 5.56769552 3.73606499 9 4 C9 4.33 9 4.66 9 5 C7.72125 5.061875 6.4425 5.12375 5.125 5.1875 C4.40570313 5.22230469 3.68640625 5.25710937 2.9453125 5.29296875 C2.30335937 5.19628906 1.66140625 5.09960938 1 5 C0.34 4.01 -0.32 3.02 -1 2 C-4.3 2.33 -7.6 2.66 -11 3 C-6.94542592 0.29695061 -4.90570928 -0.40880911 0 0 Z " fill="#FFFFFF" transform="translate(87,195)"/>
<path d="M0 0 C5.59149444 1.06504656 7.75112358 3.67631858 10.99609375 8.02734375 C11.49302734 9.00380859 11.49302734 9.00380859 12 10 C11.67 10.99 11.34 11.98 11 13 C10.62488281 12.38511719 10.24976563 11.77023438 9.86328125 11.13671875 C5.98289973 4.99249815 5.98289973 4.99249815 0 1 C0 0.67 0 0.34 0 0 Z " fill="#FFFFFF" transform="translate(212,82)"/>
<path d="M0 0 C1.75570312 0.01353516 1.75570312 0.01353516 3.546875 0.02734375 C4.43890625 0.03894531 5.3309375 0.05054688 6.25 0.0625 C6.25 1.0525 6.25 2.0425 6.25 3.0625 C5.92 2.7325 5.59 2.4025 5.25 2.0625 C-0.82023451 1.70542738 -6.77017809 1.99942055 -12.75 3.0625 C-9.07453126 -0.61296874 -5.00479254 -0.05004793 0 0 Z " fill="#FFFFFF" transform="translate(214.75,42.9375)"/>
<path d="M0 0 C0.33 0.66 0.66 1.32 1 2 C1.66 1.34 2.32 0.68 3 0 C5.625 -0.125 5.625 -0.125 8 0 C7.38125 0.28875 6.7625 0.5775 6.125 0.875 C3.86674235 1.93720042 3.86674235 1.93720042 2 4 C1.01 4 0.02 4 -1 4 C-1 3.01 -1 2.02 -1 1 C-1.99 1.495 -1.99 1.495 -3 2 C-4.99960012 2.039992 -7.00047242 2.04346799 -9 2 C-9 1.67 -9 1.34 -9 1 C-5.846632 0.29925156 -3.27275026 0 0 0 Z " fill="#FFFFFF" transform="translate(110,27)"/>
<path d="M0 0 C-6.36508251 3.42735212 -10.93729159 4.43648307 -18 3 C-18.33 2.34 -18.66 1.68 -19 1 C-17.205625 1.309375 -17.205625 1.309375 -15.375 1.625 C-9.88321507 2.3320552 -5.49490447 -0.32322967 0 0 Z " fill="#FFFFFF" transform="translate(309,23)"/>
<path d="M0 0 C0 0.33 0 0.66 0 1 C-1.41750563 0.88490339 -2.83401169 0.75746342 -4.25 0.625 C-5.03890625 0.55539063 -5.8278125 0.48578125 -6.640625 0.4140625 C-9.09150473 -0.01605878 -10.79206206 -0.89603103 -13 -2 C-15.68993053 -1.69621948 -15.68993053 -1.69621948 -18 -1 C-14.88690687 -7.22618625 -4.89020442 -1.69399238 0 0 Z " fill="#FFFFFF" transform="translate(77,28)"/>
<path d="M0 0 C2.79224194 0.3079239 5.58371427 0.62112437 8.375 0.9375 C9.1690625 1.02451172 9.963125 1.11152344 10.78125 1.20117188 C16.7734375 1.88671875 16.7734375 1.88671875 19 3 C18.67 3.33 18.34 3.66 18 4 C11.82273953 3.84346124 5.93129014 2.6475806 0 1 C0 0.67 0 0.34 0 0 Z " fill="#FFFFFF" transform="translate(317,216)"/>
<path d="M0 0 C0.61488281 0.19464844 1.22976562 0.38929688 1.86328125 0.58984375 C-3.23341377 3.55519358 -7.07078447 5.30348308 -13.13671875 4.58984375 C-14.12671875 3.92984375 -15.11671875 3.26984375 -16.13671875 2.58984375 C-15.24919922 2.64205078 -15.24919922 2.64205078 -14.34375 2.6953125 C-9.26994152 2.86912976 -4.07107141 -0.78146709 0 0 Z " fill="#FFFFFF" transform="translate(136.13671875,195.41015625)"/>
<path d="M0 0 C0 0.33 0 0.66 0 1 C-2.58157368 1.53132389 -5.16461756 2.05034379 -7.75 2.5625 C-8.84441406 2.78969727 -8.84441406 2.78969727 -9.9609375 3.02148438 C-13.66557073 3.74557178 -16.39322322 4.09817231 -20 3 C-13.12418702 0.8408662 -7.21471629 -0.35482211 0 0 Z " fill="#FFFFFF" transform="translate(44,166)"/>
<path d="M0 0 C7.59 0 15.18 0 23 0 C23 0.33 23 0.66 23 1 C15.41 1 7.82 1 0 1 C0 0.67 0 0.34 0 0 Z " fill="#FFFFFF" transform="translate(34,118)"/>
<path d="M0 0 C0 0.66 0 1.32 0 2 C3.3 1.34 6.6 0.68 10 0 C10 0.66 10 1.32 10 2 C6.07703567 3.30765478 3.13997567 3.1971417 -1 3 C-1.66 2.34 -2.32 1.68 -3 1 C-5.06874034 0.3574765 -5.06874034 0.3574765 -7 0 C-3.86650268 -1.04449911 -3.01031744 -0.93423645 0 0 Z " fill="#FFFFFF" transform="translate(37,5)"/>
<path d="M0 0 C2.86417332 0.39780185 4.62347144 0.6862262 6.875 2.5625 C9.90643412 4.61317602 12.43151004 4.20587442 16 4 C12.63908267 6.24061155 11.89999673 6.60666616 8 6 C5.18362773 4.54469983 2.52879213 2.91385012 0 1 C0 0.67 0 0.34 0 0 Z " fill="#FFFFFF" transform="translate(231,189)"/>
<path d="M0 0 C0 3.9765245 -1.38011503 5.0890167 -4 8 C-6.0625 9.875 -6.0625 9.875 -8 11 C-8.99 10.67 -9.98 10.34 -11 10 C-10.18595703 9.41992188 -10.18595703 9.41992188 -9.35546875 8.828125 C-8.64003906 8.30734375 -7.92460937 7.7865625 -7.1875 7.25 C-6.47980469 6.73953125 -5.77210938 6.2290625 -5.04296875 5.703125 C-2.97022309 3.97517642 -1.52624146 2.21473524 0 0 Z " fill="#FFFFFF" transform="translate(225,124)"/>
<path d="M0 0 C4.875 0.875 4.875 0.875 6 2 C8.01594582 2.23427778 10.038474 2.41336124 12.0625 2.5625 C13.16722656 2.64628906 14.27195312 2.73007813 15.41015625 2.81640625 C16.26480469 2.87699219 17.11945313 2.93757812 18 3 C18 3.33 18 3.66 18 4 C15.93867858 4.10864945 13.87568679 4.18588321 11.8125 4.25 C10.08966797 4.31960937 10.08966797 4.31960937 8.33203125 4.390625 C4.39646601 3.92924572 2.82254213 2.70028512 0 0 Z " fill="#FFFFFF" transform="translate(48,168)"/>
<path d="M0 0 C0.99 0.33 1.98 0.66 3 1 C5.73289293 1.22797562 8.45042204 1.41668187 11.1875 1.5625 C11.93708984 1.60568359 12.68667969 1.64886719 13.45898438 1.69335938 C15.30578375 1.79922685 17.15286834 1.9000976 19 2 C19 2.33 19 2.66 19 3 C16.20826945 3.02690104 13.41679652 3.04679053 10.625 3.0625 C9.43390625 3.07506836 9.43390625 3.07506836 8.21875 3.08789062 C2.2265625 3.11328125 2.2265625 3.11328125 0 2 C0 1.34 0 0.68 0 0 Z " fill="#FFFFFF" transform="translate(277,164)"/>
<path d="M0 0 C0 0.99 0 1.98 0 3 C-0.61875 3.5775 -1.2375 4.155 -1.875 4.75 C-4.57324229 7.60696242 -5.12763082 10.21973355 -6 14 C-6.33 14 -6.66 14 -7 14 C-6.63091483 6.74132492 -6.63091483 6.74132492 -3.5 3.0625 C-2.675 2.381875 -1.85 1.70125 -1 1 C-0.67 0.67 -0.34 0.34 0 0 Z " fill="#FFFFFF" transform="translate(20,48)"/>
<path d="M0 0 C0.99 0.33 1.98 0.66 3 1 C2.32517578 1.59748047 2.32517578 1.59748047 1.63671875 2.20703125 C-0.22998284 4.25193824 -1.11749469 6.14162531 -2.1875 8.6875 C-2.53167969 9.49574219 -2.87585938 10.30398437 -3.23046875 11.13671875 C-3.48441406 11.75160156 -3.73835938 12.36648437 -4 13 C-5 10 -5 10 -4.00390625 7.51953125 C-3.52824219 6.62621094 -3.05257813 5.73289062 -2.5625 4.8125 C-2.08941406 3.91144531 -1.61632812 3.01039062 -1.12890625 2.08203125 C-0.75636719 1.39496094 -0.38382813 0.70789062 0 0 Z " fill="#FFFFFF" transform="translate(23,50)"/>
<path d="M0 0 C6.27 0.33 12.54 0.66 19 1 C19 1.33 19 1.66 19 2 C16.20807795 2.05380578 13.4171859 2.09357669 10.625 2.125 C9.8309375 2.14175781 9.036875 2.15851562 8.21875 2.17578125 C6.14507985 2.19335473 4.07116759 2.10335168 2 2 C1.34 1.34 0.68 0.68 0 0 Z " fill="#FFFFFF" transform="translate(315,24)"/>
<path d="M0 0 C5.61 0.66 11.22 1.32 17 2 C17 2.33 17 2.66 17 3 C15.10448978 3.05441656 13.2085208 3.09298035 11.3125 3.125 C10.25675781 3.14820313 9.20101563 3.17140625 8.11328125 3.1953125 C4.97748141 2.99858729 2.82354627 2.33057654 0 1 C0 0.67 0 0.34 0 0 Z " fill="#FFFFFF" transform="translate(280,215)"/>
<path d="M0 0 C0.66 0.33 1.32 0.66 2 1 C-0.97 3.64 -3.94 6.28 -7 9 C-7.66 8.67 -8.32 8.34 -9 8 C-6.03 5.36 -3.06 2.72 0 0 Z " fill="#FFFFFF" transform="translate(214,189)"/>
<path d="M0 0 C6.27 0 12.54 0 19 0 C19 0.33 19 0.66 19 1 C12.73 1 6.46 1 0 1 C0 0.67 0 0.34 0 0 Z " fill="#FFFFFF" transform="translate(296,165)"/>
<path d="M0 0 C0.66 0.33 1.32 0.66 2 1 C0.625 2.5 0.625 2.5 -1 4 C-1.66 4 -2.32 4 -3 4 C-3.33 5.98 -3.66 7.96 -4 10 C-4.33 10 -4.66 10 -5 10 C-5.3125 6.6875 -5.3125 6.6875 -5 3 C-2.625 1 -2.625 1 0 0 Z " fill="#FFFFFF" transform="translate(20,16)"/>
<path d="M0 0 C5.94 0 11.88 0 18 0 C18 0.33 18 0.66 18 1 C12.06 1 6.12 1 0 1 C0 0.67 0 0.34 0 0 Z " fill="#FFFFFF" transform="translate(284,117)"/>
<path d="M0 0 C2 1 2 1 3.125 3 C4.30338431 7.04017477 4.16384045 10.82206849 4 15 C3.67 15 3.34 15 3 15 C2 10 1 5 0 0 Z " fill="#FFFFFF" transform="translate(118,53)"/>
<path d="M0 0 C-5.39460953 2.27141454 -10.26157749 2.20413361 -16 2 C-16 1.67 -16 1.34 -16 1 C-14.0852312 0.63571223 -12.16807707 0.28394694 -10.25 -0.0625 C-9.18265625 -0.25972656 -8.1153125 -0.45695312 -7.015625 -0.66015625 C-4.25228095 -0.97156937 -2.59053383 -0.8991416 0 0 Z " fill="#FFFFFF" transform="translate(325,49)"/>
<path d="M0 0 C0.87785156 -0.01675781 1.75570313 -0.03351562 2.66015625 -0.05078125 C3.41167969 0.06910156 4.16320312 0.18898438 4.9375 0.3125 C5.5975 1.3025 6.2575 2.2925 6.9375 3.3125 C5.9475 2.9825 4.9575 2.6525 3.9375 2.3125 C1.87604893 2.243509 -0.18751401 2.22782273 -2.25 2.25 C-3.33667969 2.25902344 -4.42335938 2.26804687 -5.54296875 2.27734375 C-6.37441406 2.28894531 -7.20585937 2.30054687 -8.0625 2.3125 C-4.83214467 0.15892978 -3.75116542 0.01657363 0 0 Z " fill="#FFFFFF" transform="translate(283.0625,20.6875)"/>
<path d="M0 0 C2.05279359 4.10558718 2.2216942 5.80206685 2.125 10.25 C2.10695312 11.32765625 2.08890625 12.4053125 2.0703125 13.515625 C2.03550781 14.74539062 2.03550781 14.74539062 2 16 C1.67 16 1.34 16 1 16 C0.67 10.72 0.34 5.44 0 0 Z " fill="#FFFFFF" transform="translate(179,214)"/>
<path d="M0 0 C1.32 0.66 2.64 1.32 4 2 C-0.95 2 -5.9 2 -11 2 C-7.34716253 -0.43522498 -4.25031548 -0.55474367 0 0 Z " fill="#FFFFFF" transform="translate(168,84)"/>
<path d="M0 0 C0.66 0 1.32 0 2 0 C4.09440189 3.40340307 4.25797575 6.04437178 4 10 C3.67 10.66 3.34 11.32 3 12 C2.34 11.67 1.68 11.34 1 11 C1.20625 10.113125 1.4125 9.22625 1.625 8.3125 C2.02550239 4.7747289 1.56683516 3.13367033 0 0 Z " fill="#FFFFFF" transform="translate(117,33)"/>
<path d="M0 0 C0.66 0.33 1.32 0.66 2 1 C1.2884375 1.8353125 1.2884375 1.8353125 0.5625 2.6875 C-1.12395996 5.18346074 -1.58953107 7.0446237 -2 10 C-2.66 10 -3.32 10 -4 10 C-3.38461538 3.47692308 -3.38461538 3.47692308 -1.4375 1.0625 C-0.7259375 0.5365625 -0.7259375 0.5365625 0 0 Z " fill="#FFFFFF" transform="translate(25,17)"/>
<path d="M0 0 C1.1875 2.0625 1.1875 2.0625 2 4 C1.01 3.67 0.02 3.34 -1 3 C-1 2.34 -1 1.68 -1 1 C-3.31 1.33 -5.62 1.66 -8 2 C-5.14066998 -0.85933002 -3.8625627 -1.2875209 0 0 Z " fill="#FFFFFF" transform="translate(315,212)"/>
<path d="M0 0 C0.721875 0.268125 1.44375 0.53625 2.1875 0.8125 C1.61 0.895 1.0325 0.9775 0.4375 1.0625 C-2.4284304 2.01781013 -3.8115764 3.59719173 -5.8125 5.8125 C-6.4725 5.4825 -7.1325 5.1525 -7.8125 4.8125 C-3.50480769 -0.23365385 -3.50480769 -0.23365385 0 0 Z " fill="#FFFFFF" transform="translate(274.8125,162.1875)"/>
<path d="M0 0 C5.28 0 10.56 0 16 0 C16 0.33 16 0.66 16 1 C10.72 1 5.44 1 0 1 C0 0.67 0 0.34 0 0 Z " fill="#FFFFFF" transform="translate(254,115)"/>
<path d="M0 0 C3.67420866 0.30618405 4.78135513 0.75771784 7.3125 3.5625 C8.1478125 4.7690625 8.1478125 4.7690625 9 6 C8.67 6.66 8.34 7.32 8 8 C6.62437146 6.71034824 5.29233607 5.37310707 4 4 C4 3.34 4 2.68 4 2 C2.68 1.34 1.36 0.68 0 0 Z " fill="#FFFFFF" transform="translate(107,56)"/>
<path d="M0 0 C0.99 0.66 1.98 1.32 3 2 C2.07767578 1.98259766 2.07767578 1.98259766 1.13671875 1.96484375 C-0.07564453 1.95130859 -0.07564453 1.95130859 -1.3125 1.9375 C-2.11300781 1.92589844 -2.91351563 1.91429687 -3.73828125 1.90234375 C-6.16861334 1.90342145 -6.16861334 1.90342145 -9 3 C-9 2.34 -9 1.68 -9 1 C-5.98131566 -0.50934217 -3.32702771 -0.17510672 0 0 Z " fill="#FFFFFF" transform="translate(225,186)"/>
<path d="M0 0 C6.93 0.495 6.93 0.495 14 1 C14 1.33 14 1.66 14 2 C12.41705218 2.05437607 10.83355744 2.09296271 9.25 2.125 C8.36828125 2.14820313 7.4865625 2.17140625 6.578125 2.1953125 C4 2 4 2 0 0 Z " fill="#FFFFFF" transform="translate(221,145)"/>
<path d="M0 0 C0 4.24645065 -1.81750806 6.38524772 -4 10 C-4.8125 8.375 -4.8125 8.375 -5 6 C-3.53181864 3.75390165 -1.84147142 1.97621323 0 0 Z " fill="#FFFFFF" transform="translate(141,87)"/>
<path d="M0 0 C0.66 0.33 1.32 0.66 2 1 C0.35 3.64 -1.3 6.28 -3 9 C-3.66 8.67 -4.32 8.34 -5 8 C-3.35 5.36 -1.7 2.72 0 0 Z " fill="#FFFFFF" transform="translate(20,76)"/>
<path d="M0 0 C0 0.33 0 0.66 0 1 C-3.96 1.99 -7.92 2.98 -12 4 C-7.94410147 -0.05589853 -5.52514139 -0.12278092 0 0 Z " fill="#FFFFFF" transform="translate(163,75)"/>
<path d="M0 0 C4.95 0 9.9 0 15 0 C15 0.33 15 0.66 15 1 C10.05 1 5.1 1 0 1 C0 0.67 0 0.34 0 0 Z " fill="#FFFFFF" transform="translate(220,72)"/>
<path d="M0 0 C4.62 0 9.24 0 14 0 C14 0.33 14 0.66 14 1 C9.38 1 4.76 1 0 1 C0 0.67 0 0.34 0 0 Z " fill="#FFFFFF" transform="translate(270,116)"/>
<path d="M0 0 C0.33 0.66 0.66 1.32 1 2 C0.34 2 -0.32 2 -1 2 C-1.268125 2.61875 -1.53625 3.2375 -1.8125 3.875 C-3 6 -3 6 -6 8 C-4.55746343 4.63408134 -2.66735273 2.48952921 0 0 Z " fill="#FFFFFF" transform="translate(13,77)"/>
<path d="M0 0 C1.43655854 -0.08131463 2.8744483 -0.13933559 4.3125 -0.1875 C5.51326172 -0.23970703 5.51326172 -0.23970703 6.73828125 -0.29296875 C9 0 9 0 12 3 C6.06 2.01 6.06 2.01 0 1 C0 0.67 0 0.34 0 0 Z " fill="#FFFFFF" transform="translate(37,36)"/>
<path d="M0 0 C4.29 0 8.58 0 13 0 C13 0.33 13 0.66 13 1 C8.71 1 4.42 1 0 1 C0 0.67 0 0.34 0 0 Z " fill="#FFFFFF" transform="translate(21,119)"/>
<path d="M0 0 C0 0.33 0 0.66 0 1 C-5.94 1.495 -5.94 1.495 -12 2 C-12 1.67 -12 1.34 -12 1 C-7.9472484 0.01751476 -4.16138263 -0.08159574 0 0 Z " fill="#FFFFFF" transform="translate(350,116)"/>
<path d="M0 0 C3.96 0.33 7.92 0.66 12 1 C12 1.33 12 1.66 12 2 C8.37 2 4.74 2 1 2 C0.67 1.34 0.34 0.68 0 0 Z " fill="#FFFFFF" transform="translate(222,46)"/>
<path d="M0 0 C3 1 3 1 4 3 C4.039992 4.99960012 4.04346799 7.00047242 4 9 C3.67 9 3.34 9 3 9 C2.690625 7.88625 2.38125 6.7725 2.0625 5.625 C1.17673517 2.2054845 1.17673517 2.2054845 0 0 Z " fill="#FFFFFF" transform="translate(110,33)"/>
<path d="M0 0 C3.3 0 6.6 0 10 0 C8 2 8 2 6.0546875 2.1953125 C4.03645833 2.13020833 2.01822917 2.06510417 0 2 C0 1.34 0 0.68 0 0 Z " fill="#FFFFFF" transform="translate(9,7)"/>
<path d="M0 0 C0.99 0 1.98 0 3 0 C3 0.66 3 1.32 3 2 C4.98 1.67 6.96 1.34 9 1 C8.67 1.66 8.34 2.32 8 3 C6.02 3 4.04 3 2 3 C2 2.34 2 1.68 2 1 C1.34 0.67 0.68 0.34 0 0 Z " fill="#FFFFFF" transform="translate(19,6)"/>
<path d="M0 0 C-3.4019487 2.09350689 -6.05272412 2.17942163 -10 2 C-10 1.67 -10 1.34 -10 1 C-6.59437148 0.22157062 -3.49234244 -0.09978121 0 0 Z " fill="#FFFFFF" transform="translate(257,191)"/>
<path d="M0 0 C3.63 0 7.26 0 11 0 C11 0.33 11 0.66 11 1 C7.37 1 3.74 1 0 1 C0 0.67 0 0.34 0 0 Z " fill="#FFFFFF" transform="translate(10,120)"/>
<path d="M0 0 C2.89932357 2.39509338 3.50168276 4.31245243 4 8 C1.84622436 5.37801226 0.59927826 3.35595828 0 0 Z " fill="#FFFFFF" transform="translate(103,92)"/>
<path d="M0 0 C-3.4019487 2.09350689 -6.05272412 2.17942163 -10 2 C-10 1.67 -10 1.34 -10 1 C-6.59437148 0.22157062 -3.49234244 -0.09978121 0 0 Z " fill="#FFFFFF" transform="translate(36,58)"/>
<path d="M0 0 C3.125 0.375 3.125 0.375 6 1 C3.07175348 1.97608217 1.04386724 2.08226668 -2 2 C-1.34 1.34 -0.68 0.68 0 0 Z " fill="#FFFFFF" transform="translate(327,46)"/>
<path d="M0 0 C4.875 1.75 4.875 1.75 6 4 C1.125 2.25 1.125 2.25 0 0 Z " fill="#FFFFFF" transform="translate(144,140)"/>
<path d="M0 0 C0.66 0.33 1.32 0.66 2 1 C0.35 2.32 -1.3 3.64 -3 5 C-1.125 1.125 -1.125 1.125 0 0 Z " fill="#FFFFFF" transform="translate(146,81)"/>
<path d="M0 0 C0.33 0 0.66 0 1 0 C1 2.97 1 5.94 1 9 C0.67 9 0.34 9 0 9 C0 6.03 0 3.06 0 0 Z " fill="#FFFFFF" transform="translate(179,47)"/>
<path d="M0 0 C0.33 0 0.66 0 1 0 C1 2.64 1 5.28 1 8 C0.67 8 0.34 8 0 8 C0 5.36 0 2.72 0 0 Z " fill="#FFFFFF" transform="translate(177,200)"/>
<path d="M0 0 C0.99 0.495 0.99 0.495 2 1 C2 2.98 2 4.96 2 7 C1.67 7 1.34 7 1 7 C0.67 4.69 0.34 2.38 0 0 Z " fill="#FFFFFF" transform="translate(109,96)"/>
<path d="M0 0 C2.86724686 0.57344937 3.8614515 0.8614515 6 3 C3.13275314 2.42655063 2.1385485 2.1385485 0 0 Z " fill="#FFFFFF" transform="translate(203,77)"/>
<path d="M0 0 C1.98 0 3.96 0 6 0 C6 0.33 6 0.66 6 1 C3.69 1.33 1.38 1.66 -1 2 C-0.67 1.34 -0.34 0.68 0 0 Z " fill="#FFFFFF" transform="translate(31,37)"/>
<path d="M0 0 C2.31 0 4.62 0 7 0 C7 0.33 7 0.66 7 1 C4.69 1 2.38 1 0 1 C0 0.67 0 0.34 0 0 Z " fill="#FFFFFF" transform="translate(3,121)"/>
<path d="M0 0 C2.31 0 4.62 0 7 0 C7 0.33 7 0.66 7 1 C4.69 1 2.38 1 0 1 C0 0.67 0 0.34 0 0 Z " fill="#FFFFFF" transform="translate(213,71)"/>
<path d="M0 0 C0.33 0 0.66 0 1 0 C1 2.31 1 4.62 1 7 C0.67 7 0.34 7 0 7 C0 4.69 0 2.38 0 0 Z " fill="#FFFFFF" transform="translate(180,40)"/>
<path d="M0 0 C2.125 0.375 2.125 0.375 4 1 C2.02 1.33 0.04 1.66 -2 2 C-1.34 1.34 -0.68 0.68 0 0 Z " fill="#FFFFFF" transform="translate(27,28)"/>
<path d="M0 0 C1.98 0 3.96 0 6 0 C5.67 0.66 5.34 1.32 5 2 C3.35 1.67 1.7 1.34 0 1 C0 0.67 0 0.34 0 0 Z " fill="#FFFFFF" transform="translate(309,22)"/>
<path d="M0 0 C0.33 0 0.66 0 1 0 C1 1.98 1 3.96 1 6 C0.67 6 0.34 6 0 6 C0 4.02 0 2.04 0 0 Z " fill="#FFFFFF" transform="translate(178,208)"/>
<path d="M0 0 C0.99 0.33 1.98 0.66 3 1 C1.35 1.33 -0.3 1.66 -2 2 C-1.34 1.34 -0.68 0.68 0 0 Z " fill="#FFFFFF" transform="translate(65,140)"/>
<path d="M0 0 C1.65 0 3.3 0 5 0 C5 0.33 5 0.66 5 1 C3.35 1 1.7 1 0 1 C0 0.67 0 0.34 0 0 Z " fill="#FFFFFF" transform="translate(43,226)"/>
<path d="M0 0 C1.65 0 3.3 0 5 0 C5 0.33 5 0.66 5 1 C3.35 1 1.7 1 0 1 C0 0.67 0 0.34 0 0 Z " fill="#FFFFFF" transform="translate(297,216)"/>
<path d="M0 0 C1.65 0 3.3 0 5 0 C5 0.33 5 0.66 5 1 C3.35 1 1.7 1 0 1 C0 0.67 0 0.34 0 0 Z " fill="#FFFFFF" transform="translate(235,71)"/>
<path d="M0 0 C4 1 4 1 4 1 Z " fill="#FFFFFF" transform="translate(44,167)"/>
<path d="M0 0 C0.66 0.33 1.32 0.66 2 1 C1.01 1 0.02 1 -1 1 C-0.67 0.67 -0.34 0.34 0 0 Z " fill="#FFFFFF" transform="translate(238,143)"/>
<path d="M0 0 C0.99 0.33 1.98 0.66 3 1 C2.01 1 1.02 1 0 1 C0 0.67 0 0.34 0 0 Z " fill="#FFFFFF" transform="translate(209,80)"/>
<path d="M0 0 C0.66 0.33 1.32 0.66 2 1 C1.01 1 0.02 1 -1 1 C-0.67 0.67 -0.34 0.34 0 0 Z " fill="#FFFFFF" transform="translate(149,79)"/>
<path d="M0 0 C4 1 4 1 4 1 Z " fill="#FFFFFF" transform="translate(234,46)"/>
<path d="M0 0 C4 1 4 1 4 1 Z " fill="#FFFFFF" transform="translate(241,44)"/>
<path d="M0 0 C4 1 4 1 4 1 Z " fill="#FFFFFF" transform="translate(245,43)"/>
<path d="M0 0 C3 1 3 1 3 1 Z " fill="#FFFFFF" transform="translate(302,215)"/>
<path d="M0 0 C3 1 3 1 3 1 Z " fill="#FFFFFF" transform="translate(228,188)"/>
<path d="M0 0 C3 1 3 1 3 1 Z " fill="#FFFFFF" transform="translate(296,143)"/>
<path d="M0 0 C3 1 3 1 3 1 Z " fill="#FFFFFF" transform="translate(60,142)"/>
<path d="M0 0 C3 1 3 1 3 1 Z " fill="#FFFFFF" transform="translate(0,122)"/>
<path d="M0 0 C3 1 3 1 3 1 Z " fill="#FFFFFF" transform="translate(200,76)"/>
<path d="M0 0 C3 1 3 1 3 1 Z " fill="#FFFFFF" transform="translate(240,70)"/>
<path d="M0 0 C3 1 3 1 3 1 Z " fill="#FFFFFF" transform="translate(238,45)"/>
<path d="M0 0 C2 1 2 1 2 1 Z " fill="#FFFFFF" transform="translate(305,214)"/>
<path d="M0 0 C2 1 2 1 2 1 Z " fill="#FFFFFF" transform="translate(235,145)"/>
<path d="M0 0 C2 1 2 1 2 1 Z " fill="#FFFFFF" transform="translate(180,109)"/>
<path d="M0 0 C2 1 2 1 2 1 Z " fill="#FFFFFF" transform="translate(22,99)"/>
<path d="" fill="#FFFFFF" transform="translate(0,0)"/>
<path d="M0 0 C2 1 2 1 2 1 Z " fill="#FFFFFF" transform="translate(59,59)"/>
<path d="M0 0 C2 1 2 1 2 1 Z " fill="#FFFFFF" transform="translate(26,49)"/>
<path d="M0 0 C2 1 2 1 2 1 Z " fill="#FFFFFF" transform="translate(28,6)"/>
<path d="" fill="#FFFFFF" transform="translate(0,0)"/>
<path d="" fill="#FFFFFF" transform="translate(0,0)"/>
<path d="" fill="#FFFFFF" transform="translate(0,0)"/>
<path d="" fill="#FFFFFF" transform="translate(0,0)"/>
<path d="" fill="#FFFFFF" transform="translate(0,0)"/>
</svg>
