<?xml version="1.0" encoding="UTF-8"?>
<svg version="1.1" xmlns="http://www.w3.org/2000/svg" width="350" height="230">
<path d="M0 0 C1.13308594 -0.00773437 2.26617187 -0.01546875 3.43359375 -0.0234375 C6.81265984 0.40685556 8.18510882 0.98074789 10.5625 3.375 C11.63174537 6.58273612 11.72934956 9.00484818 11.75 12.375 C11.76417969 13.426875 11.77835938 14.47875 11.79296875 15.5625 C11.5625 18.375 11.5625 18.375 9.5625 21.375 C8.9025 21.375 8.2425 21.375 7.5625 21.375 C7.5625 22.035 7.5625 22.695 7.5625 23.375 C3.24534941 24.8140502 -0.92576214 24.94358235 -5.4375 24.375 C-8.0625 22.375 -8.0625 22.375 -9.4375 20.375 C-9.1075 19.715 -8.7775 19.055 -8.4375 18.375 C-8.004375 19.035 -7.57125 19.695 -7.125 20.375 C-2.91968589 23.50453609 1.48999266 22.68984528 6.5625 22.375 C6.5625 21.715 6.5625 21.055 6.5625 20.375 C7.2225 20.375 7.8825 20.375 8.5625 20.375 C9.5327889 17.46413331 9.72717847 15.47276315 9.75 12.4375 C9.76417969 11.58285156 9.77835938 10.72820312 9.79296875 9.84765625 C9.54607294 7.19875715 8.98663681 5.60864615 7.5625 3.375 C4.98129934 2.08439967 3.06830171 2.24227667 0.1875 2.25 C-0.76898438 2.24742188 -1.72546875 2.24484375 -2.7109375 2.2421875 C-5.11890854 2.35948122 -7.13740068 2.68824049 -9.4375 3.375 C-6.77567449 -0.20567631 -4.28372314 -0.02917405 0 0 Z " fill="#FFFFFF" transform="translate(39.4375,75.625)"/>
<path d="M0 0 C0.55429687 0.25136719 1.10859375 0.50273438 1.6796875 0.76171875 C0.2565625 1.59703125 0.2565625 1.59703125 -1.1953125 2.44921875 C-4.43876718 4.84937521 -5.45009707 5.89409461 -6.3203125 9.76171875 C-6.03291325 12.00412657 -6.03291325 12.00412657 -5.3203125 13.76171875 C-3.6703125 13.43171875 -2.0203125 13.10171875 -0.3203125 12.76171875 C0.3396875 9.13171875 0.9996875 5.50171875 1.6796875 1.76171875 C2.3396875 1.76171875 2.9996875 1.76171875 3.6796875 1.76171875 C3.39800453 3.72151302 3.10402033 5.67954253 2.8046875 7.63671875 C2.64226563 8.72726563 2.47984375 9.8178125 2.3125 10.94140625 C1.6796875 13.76171875 1.6796875 13.76171875 -0.3203125 15.76171875 C-3.3203125 16.01171875 -3.3203125 16.01171875 -6.3203125 15.76171875 C-8.3203125 13.76171875 -8.3203125 13.76171875 -8.4453125 10.63671875 C-8.4040625 9.68796875 -8.3628125 8.73921875 -8.3203125 7.76171875 C-11.2903125 10.23671875 -11.2903125 10.23671875 -14.3203125 12.76171875 C-12.77080545 8.97500209 -10.43741613 6.69715962 -7.4453125 3.94921875 C-6.58164062 3.13839844 -5.71796875 2.32757813 -4.828125 1.4921875 C-2.3203125 -0.23828125 -2.3203125 -0.23828125 0 0 Z " fill="#FFFFFF" transform="translate(44.3203125,80.23828125)"/>
<path d="M0 0 C0.99 0 1.98 0 3 0 C3 0.66 3 1.32 3 2 C8.05009595 2.93786082 8.05009595 2.93786082 13 2 C15.69404132 1.97987376 18.37031829 2.00403754 21.0625 2.0625 C27.03656729 2.14420639 32.49048929 1.84451882 38.3125 0.33984375 C39.1478125 0.17162109 39.1478125 0.17162109 40 0 C40.495 0.495 40.495 0.495 41 1 C43.35313555 1.07271741 45.70833668 1.08370868 48.0625 1.0625 C49.35285156 1.05347656 50.64320313 1.04445312 51.97265625 1.03515625 C52.97167969 1.02355469 53.97070312 1.01195312 55 1 C54.67 1.66 54.34 2.32 54 3 C51.70839681 3.02692484 49.41670454 3.04636124 47.125 3.0625 C45.84882813 3.07410156 44.57265625 3.08570313 43.2578125 3.09765625 C40 3 40 3 38 2 C36.33871553 2.50132196 34.67782282 3.00400182 33.01953125 3.51513672 C29.52833963 4.35332658 26.0685566 4.16783307 22.5 4.0625 C18.28300903 3.96065854 14.34157268 3.95075805 10.15234375 4.5546875 C6.6967215 5.04284232 5.06100001 4.57687879 2 3 C2 2.34 2 1.68 2 1 C1.34 0.67 0.68 0.34 0 0 Z " fill="#FFFFFF" transform="translate(171,32)"/>
<path d="M0 0 C0 0.33 0 0.66 0 1 C-7.75082185 1.81429799 -15.4400355 2.19343782 -23.23046875 2.31640625 C-24.34690262 2.33718735 -25.46333649 2.35796844 -26.61360168 2.37937927 C-30.13817912 2.44413983 -33.66282335 2.50341373 -37.1875 2.5625 C-39.59440762 2.60575532 -42.00130878 2.6493717 -44.40820312 2.69335938 C-50.27206726 2.79974449 -56.13599606 2.90163954 -62 3 C-58.87515631 0.91677087 -58.10048526 0.74112002 -54.53540039 0.68115234 C-53.63338394 0.66128265 -52.73136749 0.64141296 -51.80201721 0.62094116 C-50.82707809 0.60938995 -49.85213898 0.59783875 -48.84765625 0.5859375 C-47.83714706 0.56657135 -46.82663788 0.5472052 -45.7855072 0.5272522 C-42.54459132 0.4674464 -39.30363573 0.42118167 -36.0625 0.375 C-33.91339596 0.33679946 -31.7643069 0.29774653 -29.61523438 0.2578125 C-19.74234317 0.08239847 -9.87462344 -0.02314888 0 0 Z " fill="#FFFFFF" transform="translate(211,125)"/>
<path d="M0 0 C0.51046875 0.68578125 1.0209375 1.3715625 1.546875 2.078125 C5.6042763 5.25685341 10.24246063 4.6800978 15.25 4.75 C16.28125 4.77964844 17.3125 4.80929688 18.375 4.83984375 C20.91674495 4.91044778 23.45757783 4.96319009 26 5 C26 5.33 26 5.66 26 6 C22.27124612 6.14560195 18.54322566 6.23417043 14.8125 6.3125 C13.75740234 6.35439453 12.70230469 6.39628906 11.61523438 6.43945312 C3.70065115 6.56428882 3.70065115 6.56428882 -0.05078125 3.54296875 C-0.69402344 2.70378906 -1.33726563 1.86460938 -2 1 C-4.82411765 0.05862745 -6.52918032 -0.11725382 -9.44921875 -0.09765625 C-10.29677734 -0.09443359 -11.14433594 -0.09121094 -12.01757812 -0.08789062 C-13.33918945 -0.07532227 -13.33918945 -0.07532227 -14.6875 -0.0625 C-16.02651367 -0.05573242 -16.02651367 -0.05573242 -17.39257812 -0.04882812 C-19.59511987 -0.03704983 -21.79752599 -0.02060164 -24 0 C-24 -0.33 -24 -0.66 -24 -1 C-6.40382078 -4.27370776 -6.40382078 -4.27370776 0 0 Z " fill="#FFFFFF" transform="translate(112,125)"/>
<path d="M0 0 C2.0307477 0.15411106 4.06606421 0.24982453 6.1015625 0.31640625 C7.31328125 0.35830078 8.525 0.40019531 9.7734375 0.44335938 C11.04445312 0.48267578 12.31546875 0.52199219 13.625 0.5625 C14.90375 0.60568359 16.1825 0.64886719 17.5 0.69335938 C20.66655348 0.79969886 23.83318753 0.90172833 27 1 C27 1.33 27 1.66 27 2 C23.04900072 2.0246985 19.09803126 2.04285923 15.14697266 2.05493164 C13.14093449 2.06244036 11.13491798 2.0751447 9.12890625 2.08789062 C7.24365234 2.09272461 7.24365234 2.09272461 5.3203125 2.09765625 C3.57645264 2.10551147 3.57645264 2.10551147 1.79736328 2.11352539 C-1 2 -1 2 -3 1 C-5.55157655 0.9283265 -8.07472971 0.90691558 -10.625 0.9375 C-11.68460938 0.94426758 -11.68460938 0.94426758 -12.765625 0.95117188 C-14.51045275 0.96296125 -16.255237 0.98089676 -18 1 C-18 0.67 -18 0.34 -18 0 C-12.65450281 -1.12536783 -5.06932075 -2.53466037 0 0 Z " fill="#FFFFFF" transform="translate(200,182)"/>
<path d="M0 0 C2.14619668 -0.00219049 4.29188207 -0.02038631 6.43798828 -0.03930664 C7.81168445 -0.04224043 9.18538305 -0.04422532 10.55908203 -0.04516602 C11.79980469 -0.0492749 13.04052734 -0.05338379 14.31884766 -0.05761719 C17.54102548 0.17715631 19.75944452 0.79871615 22.65283203 2.18530273 C20.19406933 3.41468409 19.17519417 3.1168738 16.47314453 2.75170898 C9.49509562 1.96953474 2.54111211 2.07757821 -4.47216797 2.12280273 C-5.8237288 2.12783135 -7.17529145 2.13239183 -8.52685547 2.13647461 C-11.80034062 2.14816563 -15.07372983 2.16455244 -18.34716797 2.18530273 C-18.34716797 1.85530273 -18.34716797 1.52530273 -18.34716797 1.18530273 C-12.29743185 -0.25459766 -6.17870743 -0.00070743 0 0 Z " fill="#FFFFFF" transform="translate(282.34716796875,179.814697265625)"/>
<path d="M0 0 C6.50034055 -0.38237297 6.50034055 -0.38237297 9.046875 1.56640625 C13.69648221 3.82355684 18.04414504 2.7592416 23.0625 2.125 C25.03184952 1.89240973 27.00189412 1.66561318 28.97265625 1.4453125 C30.27601929 1.28313232 30.27601929 1.28313232 31.60571289 1.11767578 C33.98304216 1.00083345 35.74114325 1.2927374 38 2 C33.97829958 3.34056681 30.05579193 3.37753652 25.84033203 3.61425781 C22.14535244 3.8331273 18.53121142 4.18180498 14.875 4.75 C10.55096884 5.02896975 9.4369621 4.41516255 6 2 C2.80604974 1.28598768 2.80604974 1.28598768 0 1 C0 0.67 0 0.34 0 0 Z " fill="#FFFFFF" transform="translate(71,20)"/>
<path d="M0 0 C0 0.33 0 0.66 0 1 C-0.57443848 0.99476318 -1.14887695 0.98952637 -1.74072266 0.98413086 C-4.36880377 0.96321424 -6.99686729 0.95029341 -9.625 0.9375 C-10.52863281 0.92912109 -11.43226563 0.92074219 -12.36328125 0.91210938 C-17.05351131 0.89499175 -21.37327778 1.16822971 -26 2 C-28.29083289 2.06522873 -30.58335794 2.0858841 -32.875 2.0625 C-34.02742187 2.05347656 -35.17984375 2.04445312 -36.3671875 2.03515625 C-37.23601562 2.02355469 -38.10484375 2.01195312 -39 2 C-39 1.67 -39 1.34 -39 1 C-12.60181922 -2.38670819 -12.60181922 -2.38670819 0 0 Z " fill="#FFFFFF" transform="translate(261,126)"/>
<path d="M0 0 C1.58294782 -0.05437607 3.16644256 -0.09296271 4.75 -0.125 C5.63171875 -0.14820312 6.5134375 -0.17140625 7.421875 -0.1953125 C10.2225635 0.01686087 11.75206305 0.30898436 14 2 C14.33 3.65 14.66 5.3 15 7 C18.63 7 22.26 7 26 7 C22.83057116 9.11295256 22.00370047 9.25250929 18.375 9.1875 C17.57835938 9.18105469 16.78171875 9.17460938 15.9609375 9.16796875 C14 9 14 9 13 8 C13 6.35 13 4.7 13 3 C8.71 2.34 4.42 1.68 0 1 C0 0.67 0 0.34 0 0 Z " fill="#FFFFFF" transform="translate(69,82)"/>
<path d="M0 0 C-7.5 2.5 -7.5 2.5 -15 5 C-15.66 4.67 -16.32 4.34 -17 4 C-18.70363822 3.77377919 -20.41328701 3.59111527 -22.125 3.4375 C-23.03507813 3.35371094 -23.94515625 3.26992187 -24.8828125 3.18359375 C-25.58148438 3.12300781 -26.28015625 3.06242187 -27 3 C-27 2.67 -27 2.34 -27 2 C-26.09378906 2.03480469 -25.18757812 2.06960937 -24.25390625 2.10546875 C-17.60418716 2.25324029 -12.01439315 2.24949116 -5.8671875 -0.44140625 C-3.5725248 -1.12788484 -2.23957582 -0.75150211 0 0 Z " fill="#FFFFFF" transform="translate(168,88)"/>
<path d="M0 0 C0.57105469 0.2165625 1.14210937 0.433125 1.73046875 0.65625 C8.91499288 3.12343158 15.45024896 3.31950357 23 3 C18.15072064 6.23285291 12.44015255 5.54190014 6.79296875 4.65234375 C3.15804893 3.74170068 2.14059629 3.21089443 0 0 Z " fill="#FFFFFF" transform="translate(47,126)"/>
<path d="M0 0 C9.24 0 18.48 0 28 0 C28 0.33 28 0.66 28 1 C18.76 1 9.52 1 0 1 C0 0.67 0 0.34 0 0 Z " fill="#FFFFFF" transform="translate(261,127)"/>
<path d="M0 0 C2.64 0 5.28 0 8 0 C8.33 1.65 8.66 3.3 9 5 C9.9075 4.484375 10.815 3.96875 11.75 3.4375 C15 2 15 2 17.375 2.3125 C17.91125 2.539375 18.4475 2.76625 19 3 C12.5 6 12.5 6 8 6 C7.67 4.35 7.34 2.7 7 1 C4.69 1 2.38 1 0 1 C0 0.67 0 0.34 0 0 Z " fill="#FFFFFF" transform="translate(52,19)"/>
<path d="M0 0 C0.66 0.66 1.32 1.32 2 2 C4.12860662 2.36952049 4.12860662 2.36952049 6.5703125 2.4140625 C7.46621094 2.45273438 8.36210938 2.49140625 9.28515625 2.53125 C10.22230469 2.5621875 11.15945312 2.593125 12.125 2.625 C13.54232422 2.68300781 13.54232422 2.68300781 14.98828125 2.7421875 C17.32532375 2.83661346 19.66235501 2.92218394 22 3 C22 3.33 22 3.66 22 4 C15.07 4 8.14 4 1 4 C0.67 2.68 0.34 1.36 0 0 Z " fill="#FFFFFF" transform="translate(50,189)"/>
<path d="M0 0 C7.92 0.33 15.84 0.66 24 1 C24 1.33 24 1.66 24 2 C21.31243045 2.02720824 18.62514202 2.0469388 15.9375 2.0625 C15.18533203 2.07087891 14.43316406 2.07925781 13.65820312 2.08789062 C8.99366882 2.10808341 4.60076827 1.77595959 0 1 C0 0.67 0 0.34 0 0 Z " fill="#FFFFFF" transform="translate(240,181)"/>
<path d="M0 0 C1.65 0 3.3 0 5 0 C5.33 0.66 5.66 1.32 6 2 C8.71446979 2.31241455 11.33909361 2.51336592 14.0625 2.625 C15.20041992 2.68300781 15.20041992 2.68300781 16.36132812 2.7421875 C18.24047195 2.83673562 20.12020336 2.91946756 22 3 C22 3.33 22 3.66 22 4 C16.39 4 10.78 4 5 4 C4.67 3.01 4.34 2.02 4 1 C1.98491642 0.26676204 1.98491642 0.26676204 0 0 Z " fill="#FFFFFF" transform="translate(104,86)"/>
<path d="M0 0 C6.93 0 13.86 0 21 0 C21 0.33 21 0.66 21 1 C15.12919408 2.30462354 8.98401042 2.5094612 3 2 C2.01 1.34 1.02 0.68 0 0 Z " fill="#FFFFFF" transform="translate(145,185)"/>
<path d="M0 0 C0 3.61187162 -0.98421186 5.10476598 -2.8125 8.1875 C-3.33457031 9.08855469 -3.85664063 9.98960938 -4.39453125 10.91796875 C-4.92433594 11.60503906 -5.45414063 12.29210938 -6 13 C-6.99 13 -7.98 13 -9 13 C-8.06398754 11.58235006 -7.1261208 10.16592432 -6.1875 8.75 C-5.66542969 7.96109375 -5.14335937 7.1721875 -4.60546875 6.359375 C-3.12865878 4.18907519 -1.59310127 2.08586232 0 0 Z " fill="#FFFFFF" transform="translate(236,40)"/>
<path d="M0 0 C4.29 0 8.58 0 13 0 C13 0.66 13 1.32 13 2 C13.66 2.66 14.32 3.32 15 4 C13.35 4 11.7 4 10 4 C10 3.01 10 2.02 10 1 C6.7 1 3.4 1 0 1 C0 0.67 0 0.34 0 0 Z " fill="#FFFFFF" transform="translate(126,88)"/>
<path d="M0 0 C1 3 1 3 0.4375 6.4375 C0.00289926 9.97639175 0.0516899 11.13483808 2 14 C1.01 13.67 0.02 13.34 -1 13 C-2.24270671 10.51458657 -1.95365685 9.23584621 -1.625 6.5 C-1.53476562 5.7059375 -1.44453125 4.911875 -1.3515625 4.09375 C-1 2 -1 2 0 0 Z " fill="#FFFFFF" transform="translate(28,80)"/>
<path d="M0 0 C0 0.33 0 0.66 0 1 C-5.36095333 2.12862175 -10.55306686 2.09688221 -16 2 C-16 1.67 -16 1.34 -16 1 C-10.62915894 0.31798844 -5.41499441 -0.11521265 0 0 Z " fill="#FFFFFF" transform="translate(182,183)"/>
<path d="M0 0 C5.61 0 11.22 0 17 0 C17 0.33 17 0.66 17 1 C11.39 1 5.78 1 0 1 C0 0.67 0 0.34 0 0 Z " fill="#FFFFFF" transform="translate(22,22)"/>
<path d="M0 0 C2.97 0 5.94 0 9 0 C9.66 1.65 10.32 3.3 11 5 C10.01 4.67 9.02 4.34 8 4 C8 3.01 8 2.02 8 1 C5.36 1 2.72 1 0 1 C0 0.67 0 0.34 0 0 Z " fill="#FFFFFF" transform="translate(134,180)"/>
<path d="M0 0 C0.66 0.33 1.32 0.66 2 1 C0.02 3.31 -1.96 5.62 -4 8 C-4.66 7.67 -5.32 7.34 -6 7 C-4.02 4.69 -2.04 2.38 0 0 Z " fill="#FFFFFF" transform="translate(262,15)"/>
<path d="M0 0 C4.29 0 8.58 0 13 0 C13 0.33 13 0.66 13 1 C8.71 1 4.42 1 0 1 C0 0.67 0 0.34 0 0 Z " fill="#FFFFFF" transform="translate(227,182)"/>
<path d="M0 0 C3.63 0 7.26 0 11 0 C11 0.33 11 0.66 11 1 C7.37 1 3.74 1 0 1 C0 0.67 0 0.34 0 0 Z " fill="#FFFFFF" transform="translate(211,126)"/>
<path d="M0 0 C0.66 0.33 1.32 0.66 2 1 C0.02 3.97 0.02 3.97 -2 7 C-2.33 6.01 -2.66 5.02 -3 4 C-1.5625 1.8125 -1.5625 1.8125 0 0 Z " fill="#FFFFFF" transform="translate(61,86)"/>
<path d="M0 0 C0.66 0.33 1.32 0.66 2 1 C0.68 2.32 -0.64 3.64 -2 5 C-2.66 4.67 -3.32 4.34 -4 4 C-2.68 2.68 -1.36 1.36 0 0 Z " fill="#FFFFFF" transform="translate(115,45)"/>
<path d="M0 0 C-2.64 0.33 -5.28 0.66 -8 1 C-4.93251126 -0.86240388 -3.40254489 -1.2151946 0 0 Z " fill="#FFFFFF" transform="translate(78,128)"/>
<path d="M0 0 C0.66 0.33 1.32 0.66 2 1 C0.68 1.99 -0.64 2.98 -2 4 C-2.66 3.67 -3.32 3.34 -4 3 C-2.68 2.01 -1.36 1.02 0 0 Z " fill="#FFFFFF" transform="translate(165,35)"/>
<path d="M0 0 C0.33 0.66 0.66 1.32 1 2 C-1.475 3.485 -1.475 3.485 -4 5 C-2.25 1.125 -2.25 1.125 0 0 Z " fill="#FFFFFF" transform="translate(246,29)"/>
<path d="M0 0 C0.33 0.66 0.66 1.32 1 2 C-0.98 2.66 -2.96 3.32 -5 4 C-3.36587557 2.29159719 -2.13093906 1.06546953 0 0 Z " fill="#FFFFFF" transform="translate(255,23)"/>
<path d="M0 0 C2.64 0 5.28 0 8 0 C8 0.33 8 0.66 8 1 C5.36 1 2.72 1 0 1 C0 0.67 0 0.34 0 0 Z " fill="#FFFFFF" transform="translate(90,188)"/>
<path d="M0 0 C2.31 0 4.62 0 7 0 C7 0.33 7 0.66 7 1 C4.69 1 2.38 1 0 1 C0 0.67 0 0.34 0 0 Z " fill="#FFFFFF" transform="translate(72,191)"/>
<path d="M0 0 C2.31 0 4.62 0 7 0 C7 0.33 7 0.66 7 1 C4.69 1 2.38 1 0 1 C0 0.67 0 0.34 0 0 Z " fill="#FFFFFF" transform="translate(110,185)"/>
<path d="M0 0 C2.31 0 4.62 0 7 0 C7 0.33 7 0.66 7 1 C4.69 1 2.38 1 0 1 C0 0.67 0 0.34 0 0 Z " fill="#FFFFFF" transform="translate(142,128)"/>
<path d="M0 0 C2.31 0 4.62 0 7 0 C7 0.33 7 0.66 7 1 C4.69 1 2.38 1 0 1 C0 0.67 0 0.34 0 0 Z " fill="#FFFFFF" transform="translate(39,21)"/>
<path d="M0 0 C1.98 0 3.96 0 6 0 C6 0.33 6 0.66 6 1 C4.02 1 2.04 1 0 1 C0 0.67 0 0.34 0 0 Z " fill="#FFFFFF" transform="translate(79,190)"/>
<path d="M0 0 C1.98 0 3.96 0 6 0 C6 0.33 6 0.66 6 1 C4.02 1 2.04 1 0 1 C0 0.67 0 0.34 0 0 Z " fill="#FFFFFF" transform="translate(98,187)"/>
<path d="M0 0 C1.98 0 3.96 0 6 0 C6 0.33 6 0.66 6 1 C4.02 1 2.04 1 0 1 C0 0.67 0 0.34 0 0 Z " fill="#FFFFFF" transform="translate(104,186)"/>
<path d="M0 0 C1.98 0 3.96 0 6 0 C6 0.33 6 0.66 6 1 C4.02 1 2.04 1 0 1 C0 0.67 0 0.34 0 0 Z " fill="#FFFFFF" transform="translate(82,125)"/>
<path d="M0 0 C0.66 0.33 1.32 0.66 2 1 C0.02 1.99 0.02 1.99 -2 3 C-1.34 2.01 -0.68 1.02 0 0 Z " fill="#FFFFFF" transform="translate(119,42)"/>
<path d="M0 0 C0.66 0.33 1.32 0.66 2 1 C0.02 1.99 0.02 1.99 -2 3 C-1.34 2.01 -0.68 1.02 0 0 Z " fill="#FFFFFF" transform="translate(124,38)"/>
<path d="M0 0 C0.66 0.33 1.32 0.66 2 1 C1.01 1.99 0.02 2.98 -1 4 C-0.67 2.68 -0.34 1.36 0 0 Z " fill="#FFFFFF" transform="translate(238,36)"/>
<path d="M0 0 C1.98 0 3.96 0 6 0 C6 0.33 6 0.66 6 1 C4.02 1 2.04 1 0 1 C0 0.67 0 0.34 0 0 Z " fill="#FFFFFF" transform="translate(46,20)"/>
<path d="M0 0 C0 0.99 0 1.98 0 3 C-0.99 3.495 -0.99 3.495 -2 4 C-1.34 2.68 -0.68 1.36 0 0 Z " fill="#FFFFFF" transform="translate(145,17)"/>
<path d="M0 0 C1.65 0 3.3 0 5 0 C5 0.33 5 0.66 5 1 C3.35 1 1.7 1 0 1 C0 0.67 0 0.34 0 0 Z " fill="#FFFFFF" transform="translate(85,189)"/>
<path d="M0 0 C1.65 0 3.3 0 5 0 C5 0.33 5 0.66 5 1 C3.35 1 1.7 1 0 1 C0 0.67 0 0.34 0 0 Z " fill="#FFFFFF" transform="translate(129,181)"/>
<path d="M0 0 C1.65 0 3.3 0 5 0 C5 0.33 5 0.66 5 1 C3.35 1 1.7 1 0 1 C0 0.67 0 0.34 0 0 Z " fill="#FFFFFF" transform="translate(95,88)"/>
<path d="M0 0 C4 1 4 1 4 1 Z " fill="#FFFFFF" transform="translate(117,184)"/>
<path d="M0 0 C4 1 4 1 4 1 Z " fill="#FFFFFF" transform="translate(121,183)"/>
<path d="M0 0 C4 1 4 1 4 1 Z " fill="#FFFFFF" transform="translate(125,182)"/>
<path d="M0 0 C4 1 4 1 4 1 Z " fill="#FFFFFF" transform="translate(138,129)"/>
<path d="M0 0 C4 1 4 1 4 1 Z " fill="#FFFFFF" transform="translate(78,126)"/>
<path d="M0 0 C4 1 4 1 4 1 Z " fill="#FFFFFF" transform="translate(100,87)"/>
<path d="M0 0 C0.66 0.33 1.32 0.66 2 1 C1.01 1 0.02 1 -1 1 C-0.67 0.67 -0.34 0.34 0 0 Z " fill="#FFFFFF" transform="translate(133,31)"/>
<path d="M0 0 C0.66 0.33 1.32 0.66 2 1 C1.01 1 0.02 1 -1 1 C-0.67 0.67 -0.34 0.34 0 0 Z " fill="#FFFFFF" transform="translate(248,27)"/>
<path d="M0 0 C0 3 0 3 0 3 Z " fill="#FFFFFF" transform="translate(142,21)"/>
<path d="M0 0 C0.33 0.66 0.66 1.32 1 2 C0.34 1.67 -0.32 1.34 -1 1 C-0.67 0.67 -0.34 0.34 0 0 Z " fill="#FFFFFF" transform="translate(128,35)"/>
<path d="M0 0 C0.99 0.495 0.99 0.495 2 1 C1.01 1.495 1.01 1.495 0 2 C0 1.34 0 0.68 0 0 Z " fill="#FFFFFF" transform="translate(240,34)"/>
<path d="M0 0 C0.99 0.495 0.99 0.495 2 1 C1.01 1.495 1.01 1.495 0 2 C0 1.34 0 0.68 0 0 Z " fill="#FFFFFF" transform="translate(136,28)"/>
<path d="M0 0 C2 1 2 1 2 1 Z " fill="#FFFFFF" transform="translate(63,85)"/>
<path d="M0 0 C2 1 2 1 2 1 Z " fill="#FFFFFF" transform="translate(65,84)"/>
<path d="M0 0 C2 1 2 1 2 1 Z " fill="#FFFFFF" transform="translate(67,83)"/>
<path d="M0 0 C2 1 2 1 2 1 Z " fill="#FFFFFF" transform="translate(167,34)"/>
<path d="M0 0 C2 1 2 1 2 1 Z " fill="#FFFFFF" transform="translate(129,34)"/>
<path d="M0 0 C2 1 2 1 2 1 Z " fill="#FFFFFF" transform="translate(169,33)"/>
<path d="" fill="#FFFFFF" transform="translate(0,0)"/>
<path d="" fill="#FFFFFF" transform="translate(0,0)"/>
<path d="" fill="#FFFFFF" transform="translate(0,0)"/>
<path d="" fill="#FFFFFF" transform="translate(0,0)"/>
<path d="" fill="#FFFFFF" transform="translate(0,0)"/>
<path d="" fill="#FFFFFF" transform="translate(0,0)"/>
<path d="" fill="#FFFFFF" transform="translate(0,0)"/>
<path d="" fill="#FFFFFF" transform="translate(0,0)"/>
<path d="" fill="#FFFFFF" transform="translate(0,0)"/>
</svg>
