<?xml version="1.0" encoding="UTF-8"?>
<svg version="1.1" xmlns="http://www.w3.org/2000/svg" width="350" height="230">
<path d="M0 0 C1.11344032 -0.00021904 1.11344032 -0.00021904 2.24937439 -0.0004425 C4.67873153 0.00024865 7.10800994 0.00800336 9.53735352 0.01586914 C11.23128721 0.01773616 12.92522145 0.01915872 14.61915588 0.02015686 C19.05949415 0.02395971 23.49979927 0.03377077 27.94012451 0.04486084 C32.478389 0.05512312 37.01665888 0.05966477 41.55493164 0.06469727 C50.44622218 0.07539519 59.33748821 0.09244459 68.22875977 0.11352539 C68.22875977 0.44352539 68.22875977 0.77352539 68.22875977 1.11352539 C40.83875977 1.44352539 13.44875977 1.77352539 -14.77124023 2.11352539 C-14.77124023 1.78352539 -14.77124023 1.45352539 -14.77124023 1.11352539 C-9.81587623 0.30321319 -5.02472996 -0.02635387 0 0 Z " fill="#FFFFFF" transform="translate(31.771240234375,58.886474609375)"/>
<path d="M0 0 C1.134375 0.020625 2.26875 0.04125 3.4375 0.0625 C3.4375 0.3925 3.4375 0.7225 3.4375 1.0625 C2.344375 1.289375 1.25125 1.51625 0.125 1.75 C-3.65951578 2.72363662 -3.65951578 2.72363662 -5.5 5.5625 C-6.69288021 7.91654127 -6.69288021 7.91654127 -6.5625 10.0625 C-5.22445313 10.01029297 -5.22445313 10.01029297 -3.859375 9.95703125 C-2.68890625 9.92996094 -1.5184375 9.90289062 -0.3125 9.875 C0.84765625 9.84019531 2.0078125 9.80539063 3.203125 9.76953125 C6.66018407 10.08267066 7.95315563 10.71959108 10.4375 13.0625 C9.94914432 19.53321277 9.94914432 19.53321277 7.625 21.9375 C3.63448341 23.98976567 0.14577937 24.17807475 -4.3125 24.125 C-5.29734375 24.11597656 -6.2821875 24.10695312 -7.296875 24.09765625 C-8.04453125 24.08605469 -8.7921875 24.07445312 -9.5625 24.0625 C-9.5625 23.7325 -9.5625 23.4025 -9.5625 23.0625 C-8.59828125 22.96453125 -7.6340625 22.8665625 -6.640625 22.765625 C-4.74570312 22.54132813 -4.74570312 22.54132813 -2.8125 22.3125 C-1.55953125 22.17328125 -0.3065625 22.0340625 0.984375 21.890625 C4.75513604 20.98632484 6.16516754 20.16113517 8.4375 17.0625 C8.4375 16.0725 8.4375 15.0825 8.4375 14.0625 C4.80554504 11.64119669 3.05400652 11.85227215 -1.25 11.9375 C-2.42949219 11.95554688 -3.60898437 11.97359375 -4.82421875 11.9921875 C-6.17966797 12.02699219 -6.17966797 12.02699219 -7.5625 12.0625 C-8.1796875 9.765625 -8.1796875 9.765625 -8.5625 7.0625 C-4.53387014 0.07954158 -4.53387014 0.07954158 0 0 Z " fill="#FFFFFF" transform="translate(26.5625,188.9375)"/>
<path d="M0 0 C5.75 0.75 5.75 0.75 8 3 C3.25 2.125 3.25 2.125 1 1 C1.6372323 8.69272231 1.6372323 8.69272231 4 16 C4.99 16.33 5.98 16.66 7 17 C6.74337755 18.44010481 6.46909179 19.8770687 6.1875 21.3125 C5.96126953 22.51326172 5.96126953 22.51326172 5.73046875 23.73828125 C4.90008989 26.30934734 4.18770578 27.4242399 2 29 C0.68 29 -0.64 29 -2 29 C-1.75 26.125 -1.75 26.125 -1 23 C1.0625 21.625 1.0625 21.625 3 21 C1.68 23.31 0.36 25.62 -1 28 C1.58333229 25.75041666 1.58333229 25.75041666 4 23 C4 21.68 4 20.36 4 19 C2.68 18.67 1.36 18.34 0 18 C0.66 17.67 1.32 17.34 2 17 C1.7834375 16.41992188 1.566875 15.83984375 1.34375 15.2421875 C-0.27533635 10.69975079 -1.47739284 6.8932766 -1 2 C-0.67 1.34 -0.34 0.68 0 0 Z " fill="#FFFFFF" transform="translate(185,134)"/>
<path d="M0 0 C2.82858266 3.36736031 4.4998253 6.87451958 6 11 C5.67 11.99 5.34 12.98 5 14 C4.32880451 12.5437455 3.66318193 11.08492133 3 9.625 C2.62875 8.81289062 2.2575 8.00078125 1.875 7.1640625 C1 5 1 5 1 3 C0.34 3 -0.32 3 -1 3 C-1.04898438 3.79019531 -1.09796875 4.58039062 -1.1484375 5.39453125 C-1.63071119 12.67021196 -2.22852477 19.93056272 -2.9375 27.1875 C-3.01210449 28.01290283 -3.08670898 28.83830566 -3.16357422 29.6887207 C-3.24236816 30.46562256 -3.32116211 31.24252441 -3.40234375 32.04296875 C-3.46929443 32.73414795 -3.53624512 33.42532715 -3.60522461 34.13745117 C-4 36 -4 36 -6 39 C-3.11551433 3.11551433 -3.11551433 3.11551433 0 0 Z " fill="#FFFFFF" transform="translate(79,5)"/>
<path d="M0 0 C20.13 0 40.26 0 61 0 C61 0.33 61 0.66 61 1 C40.87 1 20.74 1 0 1 C0 0.67 0 0.34 0 0 Z " fill="#FFFFFF" transform="translate(192,51)"/>
<path d="M0 0 C1.21236328 0.02707031 1.21236328 0.02707031 2.44921875 0.0546875 C3.37154297 0.08949219 3.37154297 0.08949219 4.3125 0.125 C4.6425 2.435 4.9725 4.745 5.3125 7.125 C6.03050781 6.89683594 6.74851562 6.66867188 7.48828125 6.43359375 C17.64464935 3.61308306 26.90795331 4.21309147 37.3125 5.125 C37.3125 5.455 37.3125 5.785 37.3125 6.125 C36.09433594 6.10179687 34.87617188 6.07859375 33.62109375 6.0546875 C31.99740201 6.0359165 30.37370358 6.01771773 28.75 6 C27.95013672 5.98324219 27.15027344 5.96648437 26.32617188 5.94921875 C21.26817193 5.90792895 17.18052419 6.59777672 12.3125 8.125 C9.59687244 8.34294764 7.04489755 8.2208736 4.3125 8.125 C3.9825 5.815 3.6525 3.505 3.3125 1.125 C-0.3175 1.455 -3.9475 1.785 -7.6875 2.125 C-4.48369983 -0.01086678 -3.66810033 -0.10632175 0 0 Z " fill="#FFFFFF" transform="translate(261.6875,170.875)"/>
<path d="M0 0 C0.556875 0.66 1.11375 1.32 1.6875 2 C4.88880889 4.76869958 7.20475172 4.37198619 11.31640625 4.20703125 C15.22957774 3.90514175 19.10696306 3.50232735 23 3 C18.28938233 5.52354518 14.33975065 6.18568092 9 6.3125 C7.96875 6.34988281 6.9375 6.38726562 5.875 6.42578125 C2.29683182 5.89586232 1.4752809 4.51049831 -1 2 C-7.43237302 1.73745416 -13.52261112 4.95700618 -19 8 C-19 7.34 -19 6.68 -19 6 C-17.41925436 5.18247697 -15.83528777 4.37118003 -14.25 3.5625 C-13.36828125 3.11003906 -12.4865625 2.65757812 -11.578125 2.19140625 C-7.73779515 0.41670836 -4.24020846 -0.53002606 0 0 Z " fill="#FFFFFF" transform="translate(61,168)"/>
<path d="M0 0 C0.90492188 0.02320312 1.80984375 0.04640625 2.7421875 0.0703125 C4.10730469 0.09738281 4.10730469 0.09738281 5.5 0.125 C6.19867188 0.14820312 6.89734375 0.17140625 7.6171875 0.1953125 C7.6171875 1.5153125 7.6171875 2.8353125 7.6171875 4.1953125 C8.52984375 4.0303125 9.4425 3.8653125 10.3828125 3.6953125 C15.69375972 2.9358417 21.01524507 3.12799247 26.3671875 3.1953125 C28.42442671 3.22080493 30.48172733 3.24184353 32.5390625 3.2578125 C33.44237305 3.26941406 34.34568359 3.28101562 35.27636719 3.29296875 C37.77333759 3.29682324 37.77333759 3.29682324 40.6171875 2.1953125 C40.6171875 2.8553125 40.6171875 3.5153125 40.6171875 4.1953125 C37.65908274 5.67436488 34.662472 5.31722153 31.421875 5.29296875 C30.71443146 5.2915538 30.00698792 5.29013885 29.27810669 5.28868103 C27.01609081 5.2830785 24.75417352 5.27052568 22.4921875 5.2578125 C20.95963685 5.25279782 19.42708464 5.24823486 17.89453125 5.24414062 C14.13537862 5.23310827 10.37629978 5.21584202 6.6171875 5.1953125 C6.6171875 3.8753125 6.6171875 2.5553125 6.6171875 1.1953125 C2.9871875 1.5253125 -0.6428125 1.8553125 -4.3828125 2.1953125 C-2.3828125 0.1953125 -2.3828125 0.1953125 0 0 Z " fill="#FFFFFF" transform="translate(266.3828125,116.8046875)"/>
<path d="M0 0 C2.66359538 0.44231237 5.31209371 0.72194073 8 1 C8 1.33 8 1.66 8 2 C2.4465714 2.22213714 -1.70589788 1.80224753 -7 0 C-10.8595609 -0.31793318 -14.29211349 -0.23596217 -18 1 C-19.55421729 1.08106686 -21.11167027 1.10756898 -22.66796875 1.09765625 C-23.56064453 1.09443359 -24.45332031 1.09121094 -25.37304688 1.08789062 C-26.76620117 1.07532227 -26.76620117 1.07532227 -28.1875 1.0625 C-29.12787109 1.05798828 -30.06824219 1.05347656 -31.03710938 1.04882812 C-33.35813712 1.03704626 -35.67903644 1.02059558 -38 1 C-38 0.67 -38 0.34 -38 0 C-37.44014404 -0.02505615 -36.88028809 -0.0501123 -36.3034668 -0.07592773 C-33.76458695 -0.19203745 -31.22606447 -0.3146958 -28.6875 -0.4375 C-27.36588867 -0.49647461 -27.36588867 -0.49647461 -26.01757812 -0.55664062 C-24.74624023 -0.61948242 -24.74624023 -0.61948242 -23.44921875 -0.68359375 C-22.66893311 -0.72025146 -21.88864746 -0.75690918 -21.0847168 -0.79467773 C-6.13453432 -2.26711051 -6.13453432 -2.26711051 0 0 Z " fill="#FFFFFF" transform="translate(82,144)"/>
<path d="M0 0 C-0.66 1.65 -1.32 3.3 -2 5 C-1.05640625 4.9278125 -0.1128125 4.855625 0.859375 4.78125 C8.92536112 4.19816667 16.90713805 3.86436544 25 4 C25 4.33 25 4.66 25 5 C15.33456945 6.1922117 5.71824449 6.09622024 -4 6 C-3.67 4.68 -3.34 3.36 -3 2 C-5.97 2 -8.94 2 -12 2 C-12 1.67 -12 1.34 -12 1 C-7.93631321 0.22596442 -4.13574827 -0.0984702 0 0 Z " fill="#FFFFFF" transform="translate(248,202)"/>
<path d="M0 0 C0.75410156 0.76570313 0.75410156 0.76570313 1.5234375 1.546875 C4.99941575 3.58640798 7.82583418 2.89073761 11.625 2.25 C13.05720558 2.04107567 14.48949744 1.83274196 15.921875 1.625 C16.61732422 1.51800781 17.31277344 1.41101563 18.02929688 1.30078125 C20.6396302 0.90237557 23.25235575 0.55674202 25.875 0.25 C26.63554688 0.15203125 27.39609375 0.0540625 28.1796875 -0.046875 C30 0 30 0 32 2 C34.57061311 2.64767793 34.57061311 2.64767793 37 3 C37 3.33 37 3.66 37 4 C34.125 4.125 34.125 4.125 31 4 C30.34 3.34 29.68 2.68 29 2 C26.03436441 2.17068423 26.03436441 2.17068423 22.625 2.8125 C17.85867462 3.56352758 13.11509653 4.27501793 8.3125 4.75 C7.35988281 4.84796875 6.40726563 4.9459375 5.42578125 5.046875 C3 5 3 5 0 3 C0 2.01 0 1.02 0 0 Z " fill="#FFFFFF" transform="translate(53,84)"/>
<path d="M0 0 C-1.4562545 0.67119549 -2.91507867 1.33681807 -4.375 2 C-5.59316406 2.556875 -5.59316406 2.556875 -6.8359375 3.125 C-9 4 -9 4 -11 4 C-11.80253125 7.7208267 -12.2310401 10.27607436 -11.0625 13.9375 C-8.65553298 16.34446702 -8.07986379 16.3009136 -4.8125 16.3125 C-3.554375 16.209375 -2.29625 16.10625 -1 16 C-1.33 16.66 -1.66 17.32 -2 18 C-7.15254237 18.51525424 -7.15254237 18.51525424 -10 18 C-12.5625 15.4375 -12.5625 15.4375 -14 12 C-14 8.05550755 -13.6441878 5.88277587 -11.3125 2.6875 C-7.5347093 -0.06926619 -4.53264964 -1.51088321 0 0 Z " fill="#FFFFFF" transform="translate(144,14)"/>
<path d="M0 0 C0 0.33 0 0.66 0 1 C-12.73271943 2.59693682 -25.16998064 3.25861181 -38 3 C-38 2.67 -38 2.34 -38 2 C-34.16772795 1.09160959 -30.68194884 0.92402031 -26.75 1 C-22.16968185 1.0411714 -17.81033021 0.82198966 -13.27734375 0.22265625 C-8.8642959 -0.20880812 -4.42893462 -0.07450544 0 0 Z " fill="#FFFFFF" transform="translate(125,167)"/>
<path d="M0 0 C4.95 0.99 9.9 1.98 15 3 C13.04612336 6.90775329 11.61107271 8.47622339 8.375 11.25 C7.55773437 11.95640625 6.74046875 12.6628125 5.8984375 13.390625 C4.95871094 14.18726562 4.95871094 14.18726562 4 15 C3.01 14.67 2.02 14.34 1 14 C1.54269531 13.60167969 2.08539063 13.20335938 2.64453125 12.79296875 C3.35996094 12.26316406 4.07539063 11.73335937 4.8125 11.1875 C5.52019531 10.66542969 6.22789062 10.14335938 6.95703125 9.60546875 C9.24975954 7.86930184 9.24975954 7.86930184 12 5 C6.06 3.515 6.06 3.515 0 2 C0 1.34 0 0.68 0 0 Z " fill="#FFFFFF" transform="translate(188,112)"/>
<path d="M0 0 C13.53 0 27.06 0 41 0 C41 0.33 41 0.66 41 1 C27.47 1 13.94 1 0 1 C0 0.67 0 0.34 0 0 Z " fill="#FFFFFF" transform="translate(253,50)"/>
<path d="M0 0 C2.52742845 1.89557134 2.97169284 2.80589378 3.4375 6 C3 9 3 9 1.5 10.875 C-2.12260123 12.50517055 -5.04546658 12.19772667 -9 12 C-9.33 12.66 -9.66 13.32 -10 14 C-10.5345256 12.75579353 -11.05208611 11.50429064 -11.5625 10.25 C-11.85253906 9.55390625 -12.14257812 8.8578125 -12.44140625 8.140625 C-13.07831803 5.69987216 -12.80248831 4.3596345 -12 2 C-10.50178941 5.37097383 -10 7.20442119 -10 11 C-8.741875 10.87625 -7.48375 10.7525 -6.1875 10.625 C-5.47980469 10.55539063 -4.77210938 10.48578125 -4.04296875 10.4140625 C-1.70011858 10.07334609 -1.70011858 10.07334609 1 8 C0.67 5.36 0.34 2.72 0 0 Z " fill="#FFFFFF" transform="translate(201,198)"/>
<path d="M0 0 C0.66 0.33 1.32 0.66 2 1 C2.42387733 21.86418401 2.42387733 21.86418401 -1 27 C-1.12224626 17.9401941 -0.83930594 9.02253886 0 0 Z " fill="#FFFFFF" transform="translate(144,15)"/>
<path d="M0 0 C-0.66 1.32 -1.32 2.64 -2 4 C-2 3.34 -2 2.68 -2 2 C-2.74507813 2.32742187 -3.49015625 2.65484375 -4.2578125 2.9921875 C-9.4930836 4.40210394 -14.48120186 4.21135391 -19.875 4.125 C-20.94492187 4.11597656 -22.01484375 4.10695313 -23.1171875 4.09765625 C-25.74502439 4.07419342 -28.37239406 4.04136459 -31 4 C-31 3.67 -31 3.34 -31 3 C-30.3702124 2.98018066 -29.7404248 2.96036133 -29.09155273 2.93994141 C-26.2064864 2.84401103 -23.3220777 2.7346103 -20.4375 2.625 C-18.9515332 2.57859375 -18.9515332 2.57859375 -17.43554688 2.53125 C-11.56070199 2.29703692 -5.63937711 0 0 0 Z " fill="#FFFFFF" transform="translate(310,78)"/>
<path d="M0 0 C3.68006822 3.38168431 5.9785845 6.42521756 8 11 C8.99 8.69 9.98 6.38 11 4 C12.13643966 7.40931897 11.86747764 8.00335456 10.5625 11.1875 C10.27503906 11.90292969 9.98757812 12.61835937 9.69140625 13.35546875 C9.46324219 13.89816406 9.23507813 14.44085938 9 15 C6.36115438 12.59888822 4.63586471 9.99444972 2.8125 6.9375 C2.01779297 5.62072266 2.01779297 5.62072266 1.20703125 4.27734375 C0 2 0 2 0 0 Z " fill="#FFFFFF" transform="translate(48,27)"/>
<path d="M0 0 C4.95 0 9.9 0 15 0 C15.33 0.99 15.66 1.98 16 3 C16.79664063 2.65775391 16.79664063 2.65775391 17.609375 2.30859375 C18.66898438 1.87740234 18.66898438 1.87740234 19.75 1.4375 C20.44609375 1.14746094 21.1421875 0.85742188 21.859375 0.55859375 C24.30012784 -0.07831803 25.6403655 0.19751169 28 1 C26.58603098 1.50757862 25.16868271 2.00574925 23.75 2.5 C22.56664062 2.91765625 22.56664062 2.91765625 21.359375 3.34375 C19 4 19 4 15 4 C14.67 3.34 14.34 2.68 14 2 C10.72444392 1.52998967 10.72444392 1.52998967 6.9375 1.375 C5.00197266 1.26285156 5.00197266 1.26285156 3.02734375 1.1484375 C1.52880859 1.07496094 1.52880859 1.07496094 0 1 C0 0.67 0 0.34 0 0 Z " fill="#FFFFFF" transform="translate(223,174)"/>
<path d="M0 0 C11.05561292 -0.09920291 21.98906587 -0.12520495 33 1 C33 1.33 33 1.66 33 2 C21.96086055 2.16207546 11.01559238 1.65764731 0 1 C0 0.67 0 0.34 0 0 Z " fill="#FFFFFF" transform="translate(294,51)"/>
<path d="M0 0 C0.33 0.66 0.66 1.32 1 2 C0.0625 4.625 0.0625 4.625 -1 7 C0.65 7 2.3 7 4 7 C4 5.35 4 3.7 4 2 C4.66 2.33 5.32 2.66 6 3 C5.67 4.65 5.34 6.3 5 8 C5.99 8.33 6.98 8.66 8 9 C7.01 9 6.02 9 5 9 C4.67 10.32 4.34 11.64 4 13 C4 11.35 4 9.7 4 8 C1.69 8 -0.62 8 -3 8 C-1.125 1.125 -1.125 1.125 0 0 Z " fill="#FFFFFF" transform="translate(21,163)"/>
<path d="M0 0 C0.66 0 1.32 0 2 0 C4 3 4 3 3.9375 4.9375 C2.62230861 7.83092105 0.51048763 9.11713428 -2 11 C-2.33 11.66 -2.66 12.32 -3 13 C-0.03 13.495 -0.03 13.495 3 14 C0.39417629 14.93065133 -0.64198224 15.14917407 -3.25 14.0625 C-3.8275 13.711875 -4.405 13.36125 -5 13 C-3.44499019 9.18315774 -0.96404505 6.80804268 2 4 C1.34 2.68 0.68 1.36 0 0 Z " fill="#FFFFFF" transform="translate(35,106)"/>
<path d="M0 0 C0.66 0.99 1.32 1.98 2 3 C4.19454681 3.57993699 4.19454681 3.57993699 6.625 3.6875 C7.44226563 3.75324219 8.25953125 3.81898437 9.1015625 3.88671875 C9.72804688 3.92410156 10.35453125 3.96148437 11 4 C11 4.33 11 4.66 11 5 C9.39667209 5.08121924 7.79215974 5.13929134 6.1875 5.1875 C5.29417969 5.22230469 4.40085937 5.25710937 3.48046875 5.29296875 C0.58352485 4.95081002 -0.22555028 4.24606427 -2 2 C-2.79664063 2.34224609 -2.79664063 2.34224609 -3.609375 2.69140625 C-4.31578125 2.97886719 -5.0221875 3.26632813 -5.75 3.5625 C-6.44609375 3.85253906 -7.1421875 4.14257812 -7.859375 4.44140625 C-10.30012784 5.07831803 -11.6403655 4.80248831 -14 4 C-12.23141309 3.32739649 -10.46003984 2.66211605 -8.6875 2 C-7.70136719 1.62875 -6.71523438 1.2575 -5.69921875 0.875 C-3 0 -3 0 0 0 Z " fill="#FFFFFF" transform="translate(268,76)"/>
<path d="M0 0 C1.9375 0.375 1.9375 0.375 4 1 C5.47896861 3.95793723 5.4355582 5.70220224 5 9 C2.56555118 13.12761219 0.28880693 15.64199807 -4.375 16.9375 C-5.674375 16.9684375 -5.674375 16.9684375 -7 17 C-6.01 16.34 -5.02 15.68 -4 15 C0.6248699 11.77377286 0.6248699 11.77377286 2.875 6.8125 C2.94625001 5.20937485 3 3.6047077 3 2 C2.01 1.67 1.02 1.34 0 1 C0 0.67 0 0.34 0 0 Z " fill="#FFFFFF" transform="translate(189,170)"/>
<path d="M0 0 C3.3 0 6.6 0 10 0 C10.66 1.98 11.32 3.96 12 6 C10.375 7.625 10.375 7.625 8 9 C4.75 8.1875 4.75 8.1875 2 7 C2 6.67 2 6.34 2 6 C4.64 6 7.28 6 10 6 C9.67 4.35 9.34 2.7 9 1 C4.545 1.495 4.545 1.495 0 2 C0 1.34 0 0.68 0 0 Z " fill="#FFFFFF" transform="translate(23,138)"/>
<path d="M0 0 C0.66 1.65 1.32 3.3 2 5 C6.62 5 11.24 5 16 5 C16 5.33 16 5.66 16 6 C11.16212406 7.29010025 5.95467189 7.80857493 1 7 C-1.125 4.5 -1.125 4.5 -2 2 C-3.65 2.33 -5.3 2.66 -7 3 C-3.375 0 -3.375 0 0 0 Z " fill="#FFFFFF" transform="translate(118,74)"/>
<path d="M0 0 C3.40364888 1.39935885 4.90806188 2.87004732 6.8125 6 C7.25207031 6.70125 7.69164062 7.4025 8.14453125 8.125 C8.42683594 8.74375 8.70914063 9.3625 9 10 C8.67 10.66 8.34 11.32 8 12 C6.02 9.03 4.04 6.06 2 3 C0.0549 5.91765 -0.45276317 7.62537285 -1 11 C-1.33 11 -1.66 11 -2 11 C-2.19622241 6.78121808 -1.80230168 3.82989106 0 0 Z " fill="#FFFFFF" transform="translate(36,10)"/>
<path d="M0 0 C0 0.66 0 1.32 0 2 C5.28 2 10.56 2 16 2 C16 2.33 16 2.66 16 3 C10.39 3 4.78 3 -1 3 C-1 2.34 -1 1.68 -1 1 C-1.99 1.495 -1.99 1.495 -3 2 C-5.3329866 2.04022391 -7.66706666 2.04320247 -10 2 C-10 1.67 -10 1.34 -10 1 C-6.56484998 0.37542727 -3.50935186 0 0 0 Z " fill="#FFFFFF" transform="translate(287,149)"/>
<path d="M0 0 C0.66 0.66 1.32 1.32 2 2 C4.9093558 2.14517744 7.719946 2.18630796 10.625 2.125 C11.82769531 2.11146484 11.82769531 2.11146484 13.0546875 2.09765625 C15.03658523 2.07406223 17.01832981 2.03819065 19 2 C19.33 2.66 19.66 3.32 20 4 C16.91684615 4.08733513 13.83401173 4.14050127 10.75 4.1875 C9.44095703 4.22520508 9.44095703 4.22520508 8.10546875 4.26367188 C1.58401668 4.33834499 1.58401668 4.33834499 -1.609375 2.48828125 C-2.06828125 1.99714844 -2.5271875 1.50601563 -3 1 C-2.01 0.67 -1.02 0.34 0 0 Z " fill="#FFFFFF" transform="translate(110,112)"/>
<path d="M0 0 C0 0.99 0 1.98 0 3 C-0.33 2.67 -0.66 2.34 -1 2 C-2.56423432 1.98334926 -4.12935006 2.03691108 -5.69140625 2.12109375 C-6.63564453 2.16943359 -7.57988281 2.21777344 -8.55273438 2.26757812 C-9.54595703 2.32365234 -10.53917969 2.37972656 -11.5625 2.4375 C-12.55958984 2.48970703 -13.55667969 2.54191406 -14.58398438 2.59570312 C-17.05627522 2.7258237 -19.5282063 2.86080181 -22 3 C-19.29920339 0.29920339 -17.582966 0.60929823 -13.8125 0.375 C-12.64976563 0.30152344 -11.48703125 0.22804687 -10.2890625 0.15234375 C-6.8466051 -0.00710499 -3.4443197 -0.08010046 0 0 Z " fill="#FFFFFF" transform="translate(71,196)"/>
<path d="M0 0 C8.58 0 17.16 0 26 0 C26 0.33 26 0.66 26 1 C17.42 1 8.84 1 0 1 C0 0.67 0 0.34 0 0 Z " fill="#FFFFFF" transform="translate(156,53)"/>
<path d="M0 0 C2.1385485 2.1385485 2.42655063 3.13275314 3 6 C3.99 4.68 4.98 3.36 6 2 C5.4140625 8.15234375 5.4140625 8.15234375 5 10 C4.01 10.495 4.01 10.495 3 11 C2.49384702 9.73160474 1.99530901 8.46016898 1.5 7.1875 C1.2215625 6.47980469 0.943125 5.77210937 0.65625 5.04296875 C0 3 0 3 0 0 Z " fill="#FFFFFF" transform="translate(89,34)"/>
<path d="M0 0 C-0.33 0.66 -0.66 1.32 -1 2 C-1.99 1.67 -2.98 1.34 -4 1 C-6.04640898 2.01516134 -6.04640898 2.01516134 -8.0625 3.5 C-10.16015625 4.96875 -10.16015625 4.96875 -12 6 C-12.66 5.67 -13.32 5.34 -14 5 C-12.61765122 3.96097967 -11.21844209 2.94436554 -9.8125 1.9375 C-9.03519531 1.36902344 -8.25789063 0.80054687 -7.45703125 0.21484375 C-4.48016155 -1.25702664 -3.112514 -0.96747771 0 0 Z " fill="#FFFFFF" transform="translate(70,110)"/>
<path d="M0 0 C0.433125 0.45375 0.86625 0.9075 1.3125 1.375 C3.10798342 3.20024334 3.10798342 3.20024334 6 5 C3.23723823 4.47731534 0.6739124 3.89130413 -2 3 C-5.15020361 3.88319294 -5.15020361 3.88319294 -8 5 C-5.64722731 2.27573689 -3.37503669 1.1858237 0 0 Z " fill="#FFFFFF" transform="translate(102,138)"/>
<path d="M0 0 C1.27875 0.144375 2.5575 0.28875 3.875 0.4375 C4.535 1.4275 5.195 2.4175 5.875 3.4375 C5.26011719 3.35371094 4.64523438 3.26992187 4.01171875 3.18359375 C3.20347656 3.08175781 2.39523438 2.97992188 1.5625 2.875 C0.76199219 2.77058594 -0.03851563 2.66617188 -0.86328125 2.55859375 C-3.29317116 2.28994822 -3.29317116 2.28994822 -6.125 3.4375 C-6.455 4.4275 -6.785 5.4175 -7.125 6.4375 C-7.455 5.7775 -7.785 5.1175 -8.125 4.4375 C-5.69274436 1.19449248 -3.97504481 0.12286502 0 0 Z " fill="#FFFFFF" transform="translate(29.125,102.5625)"/>
<path d="M0 0 C1.93719378 -0.05406122 3.87481921 -0.09282025 5.8125 -0.125 C6.89144531 -0.14820312 7.97039062 -0.17140625 9.08203125 -0.1953125 C12 0 12 0 15 2 C15.1875 4.625 15.1875 4.625 15 7 C14.71125 6.360625 14.4225 5.72125 14.125 5.0625 C13.17176549 2.84793921 13.17176549 2.84793921 11 2 C9.12943209 1.7724985 7.25314042 1.59037189 5.375 1.4375 C4.37210938 1.35371094 3.36921875 1.26992187 2.3359375 1.18359375 C1.56507813 1.12300781 0.79421875 1.06242187 0 1 C0 0.67 0 0.34 0 0 Z " fill="#FFFFFF" transform="translate(187,89)"/>
<path d="M0 0 C0.33 1.32 0.66 2.64 1 4 C0.34 4 -0.32 4 -1 4 C-1.66 3.01 -2.32 2.02 -3 1 C-6.3 1.33 -9.6 1.66 -13 2 C-8.34136785 -0.32931608 -5.0485768 -1.68285893 0 0 Z " fill="#FFFFFF" transform="translate(241,117)"/>
<path d="M0 0 C-6.14778871 1.6277833 -11.64012196 2.20190089 -18 2 C-18 1.67 -18 1.34 -18 1 C-15.75152519 0.63627613 -13.50113812 0.28435904 -11.25 -0.0625 C-9.99703125 -0.25972656 -8.7440625 -0.45695312 -7.453125 -0.66015625 C-4.49983411 -0.95080818 -2.7397586 -0.98935727 0 0 Z " fill="#FFFFFF" transform="translate(231,84)"/>
<path d="M0 0 C5.28 0 10.56 0 16 0 C16 0.33 16 0.66 16 1 C10.61509359 1.91657981 5.45769811 2.11138159 0 2 C0 1.34 0 0.68 0 0 Z " fill="#FFFFFF" transform="translate(280,208)"/>
<path d="M0 0 C0.66 0 1.32 0 2 0 C3.5635348 3.12706959 3.39958487 6.57982443 3 10 C2.01 11.485 2.01 11.485 1 13 C0.34 12.67 -0.32 12.34 -1 12 C-0.34 11.01 0.32 10.02 1 9 C1.21314985 5.5896024 1.084894 3.25468201 0 0 Z " fill="#FFFFFF" transform="translate(193,137)"/>
<path d="M0 0 C0.33 0 0.66 0 1 0 C1.04898438 0.74765625 1.09796875 1.4953125 1.1484375 2.265625 C1.22320312 3.25046875 1.29796875 4.2353125 1.375 5.25 C1.44460937 6.22453125 1.51421875 7.1990625 1.5859375 8.203125 C1.98465249 10.89633189 2.63507063 12.66963279 4 15 C3.34 15 2.68 15 2 15 C-0.35119399 11.47320901 -0.21443452 9.97120515 -0.125 5.8125 C-0.10695312 4.72582031 -0.08890625 3.63914062 -0.0703125 2.51953125 C-0.04710937 1.68808594 -0.02390625 0.85664062 0 0 Z " fill="#FFFFFF" transform="translate(184,78)"/>
<path d="M0 0 C0.33 0 0.66 0 1 0 C0.44854729 5.23880078 -0.42922093 9.97350697 -2 15 C-3.31534494 11.34142468 -2.65468309 8.91973519 -1.5625 5.25 C-1.27503906 4.26515625 -0.98757812 3.2803125 -0.69140625 2.265625 C-0.46324219 1.51796875 -0.23507813 0.7703125 0 0 Z " fill="#FFFFFF" transform="translate(63,16)"/>
<path d="M0 0 C0.33 0.66 0.66 1.32 1 2 C0.00390625 4.6015625 0.00390625 4.6015625 -1.4375 7.625 C-1.91058594 8.62789062 -2.38367188 9.63078125 -2.87109375 10.6640625 C-3.24363281 11.43492188 -3.61617188 12.20578125 -4 13 C-5 10 -5 10 -4.00390625 7.51953125 C-3.52824219 6.62621094 -3.05257812 5.73289062 -2.5625 4.8125 C-2.08941406 3.91144531 -1.61632812 3.01039062 -1.12890625 2.08203125 C-0.75636719 1.39496094 -0.38382812 0.70789062 0 0 Z " fill="#FFFFFF" transform="translate(119,10)"/>
<path d="M0 0 C7.425 0.99 7.425 0.99 15 2 C15 2.33 15 2.66 15 3 C12.68690295 2.88658363 10.37449815 2.75896193 8.0625 2.625 C6.13083984 2.52058594 6.13083984 2.52058594 4.16015625 2.4140625 C2.59587891 2.20910156 2.59587891 2.20910156 1 2 C0.67 1.34 0.34 0.68 0 0 Z " fill="#FFFFFF" transform="translate(221,202)"/>
<path d="M0 0 C1.52634923 3.05269846 0.83794444 5.75845689 0.5625 9.125 C0.46066406 10.40632812 0.35882813 11.68765625 0.25390625 13.0078125 C0.17011719 13.99523437 0.08632812 14.98265625 0 16 C-0.33 16 -0.66 16 -1 16 C-1.02685095 13.52076199 -1.04676547 11.0418116 -1.0625 8.5625 C-1.07506836 7.50192383 -1.07506836 7.50192383 -1.08789062 6.41992188 C-1.09653588 4.61306441 -1.05220011 2.80612397 -1 1 C-0.67 0.67 -0.34 0.34 0 0 Z " fill="#FFFFFF" transform="translate(179,196)"/>
<path d="M0 0 C0.66 0 1.32 0 2 0 C2.33 1.32 2.66 2.64 3 4 C-1.455 5.485 -1.455 5.485 -6 7 C-5.67 6.34 -5.34 5.68 -5 5 C-1.9375 4.375 -1.9375 4.375 1 4 C0.67 2.68 0.34 1.36 0 0 Z " fill="#FFFFFF" transform="translate(31,147)"/>
<path d="M0 0 C2.49361571 1.20381448 4.68143083 2.45428722 7 4 C8.65549531 4.38499891 10.3222433 4.72793135 12 5 C12 5.33 12 5.66 12 6 C9.04876854 6.35133708 6.8502099 6.52850886 4.265625 4.921875 C2.77831883 3.6895356 1.38214043 2.34923232 0 1 C0 0.67 0 0.34 0 0 Z " fill="#FFFFFF" transform="translate(70,112)"/>
<path d="M0 0 C0.33 0 0.66 0 1 0 C1 5.28 1 10.56 1 16 C0.67 16 0.34 16 0 16 C0 10.72 0 5.44 0 0 Z " fill="#FFFFFF" transform="translate(30,73)"/>
<path d="M0 0 C0.33 1.32 0.66 2.64 1 4 C-1.68841859 6.25245881 -3.64641875 7.88213958 -7 9 C-7 8.34 -7 7.68 -7 7 C-6.030625 6.360625 -5.06125 5.72125 -4.0625 5.0625 C-0.75744775 3.28938993 -0.75744775 3.28938993 0 0 Z " fill="#FFFFFF" transform="translate(142,42)"/>
<path d="M0 0 C0.66 0.33 1.32 0.66 2 1 C1.814375 1.9075 1.62875 2.815 1.4375 3.75 C1.04265379 6.68314324 1.05308428 8.2644657 2 11 C0.5 9.875 0.5 9.875 -1 8 C-1.25265405 4.90498792 -1.39935013 2.79870027 0 0 Z " fill="#FFFFFF" transform="translate(187,169)"/>
<path d="M0 0 C4.29 0 8.58 0 13 0 C12.34 0.66 11.68 1.32 11 2 C8.3984375 1.9765625 8.3984375 1.9765625 5.375 1.625 C4.37210937 1.51414063 3.36921875 1.40328125 2.3359375 1.2890625 C1.17964844 1.14597656 1.17964844 1.14597656 0 1 C0 0.67 0 0.34 0 0 Z " fill="#FFFFFF" transform="translate(119,144)"/>
<path d="M0 0 C1.07310858 3.27185553 0.89263102 5.42947592 0.0625 8.75 C-0.13214844 9.54921875 -0.32679687 10.3484375 -0.52734375 11.171875 C-0.68332031 11.77515625 -0.83929687 12.3784375 -1 13 C-2.07310858 9.72814447 -1.89263102 7.57052408 -1.0625 4.25 C-0.86785156 3.45078125 -0.67320313 2.6515625 -0.47265625 1.828125 C-0.31667969 1.22484375 -0.16070313 0.6215625 0 0 Z " fill="#FFFFFF" transform="translate(31,32)"/>
<path d="M0 0 C4.29 0.33 8.58 0.66 13 1 C13 1.33 13 1.66 13 2 C11.58376784 2.05447047 10.16691809 2.09300508 8.75 2.125 C7.96109375 2.14820313 7.1721875 2.17140625 6.359375 2.1953125 C4 2 4 2 0 0 Z " fill="#FFFFFF" transform="translate(264,148)"/>
<path d="M0 0 C0 0.33 0 0.66 0 1 C-6.435 1.495 -6.435 1.495 -13 2 C-13 1.67 -13 1.34 -13 1 C-8.60563789 0.14256349 -4.47427924 -0.08948558 0 0 Z " fill="#FFFFFF" transform="translate(95,117)"/>
<path d="M0 0 C0.9075 0.185625 1.815 0.37125 2.75 0.5625 C5.68314324 0.95734621 7.2644657 0.94691572 10 0 C8.875 1.5625 8.875 1.5625 7 3 C3.875 2.8125 3.875 2.8125 1 2 C0.67 1.34 0.34 0.68 0 0 Z " fill="#FFFFFF" transform="translate(191,96)"/>
<path d="M0 0 C0.33 0.66 0.66 1.32 1 2 C0.22265625 3.7265625 0.22265625 3.7265625 -0.9375 5.625 C-1.618125 6.73875 -2.29875 7.8525 -3 9 C-3.66 8.67 -4.32 8.34 -5 8 C-3.35 5.36 -1.7 2.72 0 0 Z " fill="#FFFFFF" transform="translate(108,37)"/>
<path d="M0 0 C3.3 0.33 6.6 0.66 10 1 C10 1.66 10 2.32 10 3 C6.7 2.34 3.4 1.68 0 1 C0 0.67 0 0.34 0 0 Z " fill="#FFFFFF" transform="translate(108,199)"/>
<path d="M0 0 C3.96 0 7.92 0 12 0 C12 0.33 12 0.66 12 1 C8.04 1 4.08 1 0 1 C0 0.67 0 0.34 0 0 Z " fill="#FFFFFF" transform="translate(211,175)"/>
<path d="M0 0 C-3.63423209 2.32590854 -6.77088331 2.16265833 -11 2 C-11 1.67 -11 1.34 -11 1 C-7.27569643 0.30710631 -3.78916254 -0.11144596 0 0 Z " fill="#FFFFFF" transform="translate(255,152)"/>
<path d="M0 0 C-3.26545761 1.88391785 -6.28111761 2.49287967 -10 3 C-6.88378718 -0.11621282 -4.21175599 -0.11383124 0 0 Z " fill="#FFFFFF" transform="translate(233,144)"/>
<path d="M0 0 C3.12290635 0.48578543 5.99580359 0.9986012 9 2 C6.29120665 3.35439668 3.99066732 3.06501451 1 3 C0.67 2.01 0.34 1.02 0 0 Z " fill="#FFFFFF" transform="translate(245,80)"/>
<path d="M0 0 C3.96 0 7.92 0 12 0 C12 0.33 12 0.66 12 1 C8.04 1 4.08 1 0 1 C0 0.67 0 0.34 0 0 Z " fill="#FFFFFF" transform="translate(100,58)"/>
<path d="M0 0 C3.96 0 7.92 0 12 0 C12 0.33 12 0.66 12 1 C8.04 1 4.08 1 0 1 C0 0.67 0 0.34 0 0 Z " fill="#FFFFFF" transform="translate(112,57)"/>
<path d="M0 0 C0.33 0 0.66 0 1 0 C0.67 3.63 0.34 7.26 0 11 C-0.33 11 -0.66 11 -1 11 C-0.67 7.37 -0.34 3.74 0 0 Z " fill="#FFFFFF" transform="translate(33,21)"/>
<path d="M0 0 C3.63 0 7.26 0 11 0 C11 0.33 11 0.66 11 1 C7.37 1 3.74 1 0 1 C0 0.67 0 0.34 0 0 Z " fill="#FFFFFF" transform="translate(88,197)"/>
<path d="M0 0 C3.63 0 7.26 0 11 0 C11 0.33 11 0.66 11 1 C7.37 1 3.74 1 0 1 C0 0.67 0 0.34 0 0 Z " fill="#FFFFFF" transform="translate(108,143)"/>
<path d="M0 0 C3.63 0 7.26 0 11 0 C11 0.33 11 0.66 11 1 C7.37 1 3.74 1 0 1 C0 0.67 0 0.34 0 0 Z " fill="#FFFFFF" transform="translate(134,55)"/>
<path d="M0 0 C3.63 0 7.26 0 11 0 C11 0.33 11 0.66 11 1 C7.37 1 3.74 1 0 1 C0 0.67 0 0.34 0 0 Z " fill="#FFFFFF" transform="translate(145,54)"/>
<path d="M0 0 C1.0326802 2.78823655 1.04509293 3.8677274 0.0625 6.75 C-0.288125 7.4925 -0.63875 8.235 -1 9 C-2.0326802 6.21176345 -2.04509293 5.1322726 -1.0625 2.25 C-0.711875 1.5075 -0.36125 0.765 0 0 Z " fill="#FFFFFF" transform="translate(113,23)"/>
<path d="M0 0 C3.3 0 6.6 0 10 0 C10 0.33 10 0.66 10 1 C6.7 1 3.4 1 0 1 C0 0.67 0 0.34 0 0 Z " fill="#FFFFFF" transform="translate(124,56)"/>
<path d="M0 0 C3.3 0 6.6 0 10 0 C10 0.33 10 0.66 10 1 C6.7 1 3.4 1 0 1 C0 0.67 0 0.34 0 0 Z " fill="#FFFFFF" transform="translate(182,52)"/>
<path d="M0 0 C0.95904856 3.83619425 0.91892116 5.32431536 0 9 C-0.33 9 -0.66 9 -1 9 C-0.67 6.03 -0.34 3.06 0 0 Z " fill="#FFFFFF" transform="translate(104,4)"/>
<path d="M0 0 C0.33 0.66 0.66 1.32 1 2 C2.98 2 4.96 2 7 2 C7 2.33 7 2.66 7 3 C4.69 3 2.38 3 0 3 C0 2.01 0 1.02 0 0 Z " fill="#FFFFFF" transform="translate(72,199)"/>
<path d="M0 0 C2.97 0 5.94 0 9 0 C9 0.33 9 0.66 9 1 C6.03 1 3.06 1 0 1 C0 0.67 0 0.34 0 0 Z " fill="#FFFFFF" transform="translate(99,198)"/>
<path d="M0 0 C1.65 1.65 3.3 3.3 5 5 C3.68 4.67 2.36 4.34 1 4 C0.67 2.68 0.34 1.36 0 0 Z " fill="#FFFFFF" transform="translate(239,148)"/>
<path d="M0 0 C-2.64 0.33 -5.28 0.66 -8 1 C-4.93251126 -0.86240388 -3.40254489 -1.2151946 0 0 Z " fill="#FFFFFF" transform="translate(215,151)"/>
<path d="M0 0 C-2.64 0.33 -5.28 0.66 -8 1 C-4.93251126 -0.86240388 -3.40254489 -1.2151946 0 0 Z " fill="#FFFFFF" transform="translate(107,115)"/>
<path d="M0 0 C1.32 0.33 2.64 0.66 4 1 C2.02 1.66 0.04 2.32 -2 3 C-1.34 2.01 -0.68 1.02 0 0 Z " fill="#FFFFFF" transform="translate(191,197)"/>
<path d="M0 0 C-2.31 0.33 -4.62 0.66 -7 1 C-3.375 -1.125 -3.375 -1.125 0 0 Z " fill="#FFFFFF" transform="translate(258,121)"/>
<path d="M0 0 C1 3 1 3 0.0625 5.1875 C-0.4634375 6.0846875 -0.4634375 6.0846875 -1 7 C-0.67 4.69 -0.34 2.38 0 0 Z " fill="#FFFFFF" transform="translate(186,71)"/>
<path d="M0 0 C2.31 0 4.62 0 7 0 C7 0.33 7 0.66 7 1 C4.69 1 2.38 1 0 1 C0 0.67 0 0.34 0 0 Z " fill="#FFFFFF" transform="translate(273,207)"/>
<path d="M0 0 C0.99 0.33 1.98 0.66 3 1 C1.02 1.33 -0.96 1.66 -3 2 C-2.01 1.34 -1.02 0.68 0 0 Z " fill="#FFFFFF" transform="translate(85,198)"/>
<path d="M0 0 C1.65 0 3.3 0 5 0 C5.33 0.66 5.66 1.32 6 2 C3.03 1.505 3.03 1.505 0 1 C0 0.67 0 0.34 0 0 Z " fill="#FFFFFF" transform="translate(195,196)"/>
<path d="M0 0 C2.475 0.495 2.475 0.495 5 1 C4.67 1.66 4.34 2.32 4 3 C2.68 2.01 1.36 1.02 0 0 Z " fill="#FFFFFF" transform="translate(233,143)"/>
<path d="M0 0 C0.33 0.99 0.66 1.98 1 3 C-0.32 2.67 -1.64 2.34 -3 2 C-2.01 1.34 -1.02 0.68 0 0 Z " fill="#FFFFFF" transform="translate(133,115)"/>
<path d="M0 0 C-0.33 0.99 -0.66 1.98 -1 3 C-1.99 2.34 -2.98 1.68 -4 1 C-2 0 -2 0 0 0 Z " fill="#FFFFFF" transform="translate(245,77)"/>
<path d="M0 0 C0.99 0.33 1.98 0.66 3 1 C1.35 1.33 -0.3 1.66 -2 2 C-1.34 1.34 -0.68 0.68 0 0 Z " fill="#FFFFFF" transform="translate(261,149)"/>
<path d="M0 0 C0.99 0.33 1.98 0.66 3 1 C1.35 1.33 -0.3 1.66 -2 2 C-1.34 1.34 -0.68 0.68 0 0 Z " fill="#FFFFFF" transform="translate(92,85)"/>
<path d="M0 0 C0.66 0.33 1.32 0.66 2 1 C0.35 1.33 -1.3 1.66 -3 2 C-2.01 1.34 -1.02 0.68 0 0 Z " fill="#FFFFFF" transform="translate(239,79)"/>
<path d="M0 0 C0.33 0 0.66 0 1 0 C1 1.98 1 3.96 1 6 C0.67 6 0.34 6 0 6 C0 4.02 0 2.04 0 0 Z " fill="#FFFFFF" transform="translate(88,28)"/>
<path d="M0 0 C0.33 1.32 0.66 2.64 1 4 C0.01 4.495 0.01 4.495 -1 5 C-0.67 3.35 -0.34 1.7 0 0 Z " fill="#FFFFFF" transform="translate(100,20)"/>
<path d="M0 0 C0.33 0 0.66 0 1 0 C1 1.98 1 3.96 1 6 C0.67 6 0.34 6 0 6 C0 4.02 0 2.04 0 0 Z " fill="#FFFFFF" transform="translate(64,10)"/>
<path d="M0 0 C0.66 0.33 1.32 0.66 2 1 C0.68 1.33 -0.64 1.66 -2 2 C-1.34 1.34 -0.68 0.68 0 0 Z " fill="#FFFFFF" transform="translate(92,143)"/>
<path d="M0 0 C1.65 0 3.3 0 5 0 C5 0.33 5 0.66 5 1 C3.35 1 1.7 1 0 1 C0 0.67 0 0.34 0 0 Z " fill="#FFFFFF" transform="translate(246,122)"/>
<path d="M0 0 C0.99 0.33 1.98 0.66 3 1 C1.68 1.33 0.36 1.66 -1 2 C-0.67 1.34 -0.34 0.68 0 0 Z " fill="#FFFFFF" transform="translate(214,122)"/>
<path d="M0 0 C0.99 0.99 1.98 1.98 3 3 C2.01 2.67 1.02 2.34 0 2 C0 1.34 0 0.68 0 0 Z " fill="#FFFFFF" transform="translate(188,93)"/>
<path d="M0 0 C0.66 0.33 1.32 0.66 2 1 C0.68 1.33 -0.64 1.66 -2 2 C-1.34 1.34 -0.68 0.68 0 0 Z " fill="#FFFFFF" transform="translate(109,77)"/>
<path d="M0 0 C0.33 0 0.66 0 1 0 C1 1.65 1 3.3 1 5 C0.67 5 0.34 5 0 5 C0 3.35 0 1.7 0 0 Z " fill="#FFFFFF" transform="translate(102,13)"/>
<path d="M0 0 C4 1 4 1 4 1 Z " fill="#FFFFFF" transform="translate(255,151)"/>
<path d="M0 0 C4 1 4 1 4 1 Z " fill="#FFFFFF" transform="translate(242,121)"/>
<path d="M0 0 C4 1 4 1 4 1 Z " fill="#FFFFFF" transform="translate(217,121)"/>
<path d="M0 0 C4 1 4 1 4 1 Z " fill="#FFFFFF" transform="translate(38,121)"/>
<path d="M0 0 C4 1 4 1 4 1 Z " fill="#FFFFFF" transform="translate(258,119)"/>
<path d="M0 0 C4 1 4 1 4 1 Z " fill="#FFFFFF" transform="translate(224,119)"/>
<path d="M0 0 C4 1 4 1 4 1 Z " fill="#FFFFFF" transform="translate(95,116)"/>
<path d="M0 0 C1 4 1 4 1 4 Z " fill="#FFFFFF" transform="translate(86,22)"/>
<path d="M0 0 C0.99 0.495 0.99 0.495 2 1 C1.67 1.66 1.34 2.32 1 3 C0.67 2.01 0.34 1.02 0 0 Z " fill="#FFFFFF" transform="translate(45,22)"/>
<path d="M0 0 C3 1 3 1 3 1 Z " fill="#FFFFFF" transform="translate(79,200)"/>
<path d="M0 0 C3 1 3 1 3 1 Z " fill="#FFFFFF" transform="translate(251,173)"/>
<path d="M0 0 C3 1 3 1 3 1 Z " fill="#FFFFFF" transform="translate(84,170)"/>
<path d="M0 0 C3 1 3 1 3 1 Z " fill="#FFFFFF" transform="translate(217,148)"/>
<path d="M0 0 C3 1 3 1 3 1 Z " fill="#FFFFFF" transform="translate(220,147)"/>
<path d="M0 0 C3 1 3 1 3 1 Z " fill="#FFFFFF" transform="translate(221,120)"/>
<path d="M0 0 C3 1 3 1 3 1 Z " fill="#FFFFFF" transform="translate(96,83)"/>
<path d="M0 0 C3 1 3 1 3 1 Z " fill="#FFFFFF" transform="translate(231,82)"/>
<path d="M0 0 C3 1 3 1 3 1 Z " fill="#FFFFFF" transform="translate(102,80)"/>
<path d="" fill="#FFFFFF" transform="translate(0,0)"/>
<path d="" fill="#FFFFFF" transform="translate(0,0)"/>
<path d="" fill="#FFFFFF" transform="translate(0,0)"/>
<path d="" fill="#FFFFFF" transform="translate(0,0)"/>
<path d="" fill="#FFFFFF" transform="translate(0,0)"/>
<path d="M0 0 C0.33 0.66 0.66 1.32 1 2 C0.34 1.67 -0.32 1.34 -1 1 C-0.67 0.67 -0.34 0.34 0 0 Z " fill="#FFFFFF" transform="translate(123,4)"/>
<path d="M0 0 C2 1 2 1 2 1 Z " fill="#FFFFFF" transform="translate(215,149)"/>
<path d="" fill="#FFFFFF" transform="translate(0,0)"/>
<path d="M0 0 C2 1 2 1 2 1 Z " fill="#FFFFFF" transform="translate(99,82)"/>
<path d="M0 0 C2 1 2 1 2 1 Z " fill="#FFFFFF" transform="translate(234,81)"/>
<path d="M0 0 C2 1 2 1 2 1 Z " fill="#FFFFFF" transform="translate(105,79)"/>
<path d="" fill="#FFFFFF" transform="translate(0,0)"/>
<path d="" fill="#FFFFFF" transform="translate(0,0)"/>
<path d="" fill="#FFFFFF" transform="translate(0,0)"/>
<path d="" fill="#FFFFFF" transform="translate(0,0)"/>
<path d="" fill="#FFFFFF" transform="translate(0,0)"/>
<path d="" fill="#FFFFFF" transform="translate(0,0)"/>
<path d="" fill="#FFFFFF" transform="translate(0,0)"/>
<path d="" fill="#FFFFFF" transform="translate(0,0)"/>
<path d="" fill="#FFFFFF" transform="translate(0,0)"/>
</svg>
