<?xml version="1.0" encoding="UTF-8"?>
<svg version="1.1" xmlns="http://www.w3.org/2000/svg" width="350" height="230">
<path d="M0 0 C0 0.66 0 1.32 0 2 C2.97 2.495 2.97 2.495 6 3 C6.495 4.485 6.495 4.485 7 6 C7.66 6 8.32 6 9 6 C9 7.98 9 9.96 9 12 C9.99 12.33 10.98 12.66 12 13 C12 15.64 12 18.28 12 21 C11.34 21.33 10.68 21.66 10 22 C10.66 22.33 11.32 22.66 12 23 C12 23.66 12 24.32 12 25 C10.35 25 8.7 25 7 25 C6.505 26.485 6.505 26.485 6 28 C2.4375 29.1875 2.4375 29.1875 -1 30 C-0.505 32.97 -0.505 32.97 0 36 C1.19625 35.9175 2.3925 35.835 3.625 35.75 C8.23872911 35.79856557 10.45514815 36.89825463 14 40 C22.08576624 48.77425722 28.19456772 58.09977015 28.0625 70.25 C28.05347656 71.32765625 28.04445313 72.4053125 28.03515625 73.515625 C28.02355469 74.33546875 28.01195312 75.1553125 28 76 C27.67 76 27.34 76 27 76 C26.93683594 75.06800781 26.87367188 74.13601562 26.80859375 73.17578125 C25.57076921 60.28937625 20.93281063 48.82144721 11 40 C7.98713703 38.10848889 5.78209652 37.77111481 2.25 37.875 C1.45078125 37.89304688 0.6515625 37.91109375 -0.171875 37.9296875 C-0.77515625 37.95289063 -1.3784375 37.97609375 -2 38 C-2.268125 38.78375 -2.53625 39.5675 -2.8125 40.375 C-4 43 -4 43 -7 45 C-9.12109375 45.265625 -9.12109375 45.265625 -11.4375 45.25 C-12.19933594 45.25515625 -12.96117187 45.2603125 -13.74609375 45.265625 C-16.21443018 44.9747292 -17.857686 44.22975656 -20 43 C-19.505 42.01 -19.505 42.01 -19 41 C-18.484375 41.33 -17.96875 41.66 -17.4375 42 C-14.08597404 43.37498501 -11.59034613 43.38467994 -8 43 C-5.07286522 41.25954148 -4.21061954 39.76785867 -3.31640625 36.5078125 C-2.80358558 34.01090633 -2.36582603 31.52227424 -2 29 C-9.7212667 29.65782315 -9.7212667 29.65782315 -17 32 C-17.46523063 33.89533342 -17.46523063 33.89533342 -17.625 36.0625 C-17.74875 37.361875 -17.8725 38.66125 -18 40 C-19.23363281 40.32871094 -19.23363281 40.32871094 -20.4921875 40.6640625 C-27.29634559 42.59688339 -33.05477871 44.84491294 -38.9765625 48.73046875 C-41 50 -41 50 -44 51 C-42.63356852 54.98542514 -40.89890986 57.92539863 -38 61 C-37.01 61 -36.02 61 -35 61 C-35.78375 61.99 -36.5675 62.98 -37.375 64 C-41.53071021 69.52441668 -45.10013017 75.41730913 -48.73046875 81.29296875 C-49.12371338 81.92871826 -49.51695801 82.56446777 -49.92211914 83.21948242 C-50.86141627 84.77107789 -51.75161451 86.35218688 -52.6328125 87.9375 C-54 90 -54 90 -56.6875 90.8125 C-57.450625 90.874375 -58.21375 90.93625 -59 91 C-61.61992772 86.50869534 -63.21183287 81.38311982 -62.75 76.1875 C-62 74 -62 74 -60 71 C-59.34 71 -58.68 71 -58 71 C-57.938125 70.34 -57.87625 69.68 -57.8125 69 C-56.67626512 64.80467122 -54.40570091 61.58232098 -52 58 C-51.34 57.01 -50.68 56.02 -50 55 C-49.34 55 -48.68 55 -48 55 C-47.938125 54.21625 -47.87625 53.4325 -47.8125 52.625 C-47.544375 51.75875 -47.27625 50.8925 -47 50 C-45.35394496 49.28395179 -43.68281914 48.62477353 -42 48 C-40.39969443 47.048825 -38.81647217 46.06842085 -37.25 45.0625 C-31.38554492 41.48255653 -25.92972869 39 -19 39 C-19 37.35 -19 35.7 -19 34 C-20.134375 33.608125 -21.26875 33.21625 -22.4375 32.8125 C-26 31 -26 31 -26.9375 28.3125 C-26.958125 27.549375 -26.97875 26.78625 -27 26 C-26.01 25.67 -25.02 25.34 -24 25 C-24.18046875 24.443125 -24.3609375 23.88625 -24.546875 23.3125 C-25.07758891 20.60402902 -24.79316581 18.6993695 -24.25 16 C-24.09015625 15.154375 -23.9303125 14.30875 -23.765625 13.4375 C-22.92335965 10.75600216 -21.85110589 9.10011252 -20 7 C-18.66666667 6.33333333 -17.33333333 5.66666667 -16 5 C-15.195625 4.154375 -14.39125 3.30875 -13.5625 2.4375 C-9.17428638 -1.73665442 -5.70129485 -1.19329427 0 0 Z M-8 1 C-7.67 2.65 -7.34 4.3 -7 6 C-6.67 6 -6.34 6 -6 6 C-6 4.35 -6 2.7 -6 1 C-6.66 1 -7.32 1 -8 1 Z M-4 2 C-4 4.31 -4 6.62 -4 9 C-3.01 9.495 -3.01 9.495 -2 10 C-2.33 7.36 -2.66 4.72 -3 2 C-3.33 2 -3.66 2 -4 2 Z M1 6 C2 8 2 8 2 8 Z M-7 7 C-6.67 7.99 -6.34 8.98 -6 10 C-5.67 9.01 -5.34 8.02 -5 7 C-5.66 7 -6.32 7 -7 7 Z M4 7 C5 9 5 9 5 9 Z M-12 8 C-12.0825 8.61875 -12.165 9.2375 -12.25 9.875 C-13 12 -13 12 -14.875 13.0625 C-15.57625 13.371875 -16.2775 13.68125 -17 14 C-19.94865611 16.60842656 -21.74322484 19.22967453 -23 23 C-20.77149723 23.33774332 -18.54216533 23.6700187 -16.3125 24 C-15.07113281 24.185625 -13.82976562 24.37125 -12.55078125 24.5625 C-7.23305839 25.22586647 -7.23305839 25.22586647 -2 24.4375 C0 24 0 24 2.5 24.6875 C5.08811976 25.25630862 5.08811976 25.25630862 7.4375 23.6875 C9.63782278 19.90294482 8.93082474 17.36583825 7.90625 13.21875 C7.14774139 10.76957316 7.14774139 10.76957316 4.5625 9.375 C1.93690175 8.92760041 1.93690175 8.92760041 -1 9 C-1 9.66 -1 10.32 -1 11 C-2.32 10.67 -3.64 10.34 -5 10 C-5 10.66 -5 11.32 -5 12 C-5.8971875 11.2884375 -5.8971875 11.2884375 -6.8125 10.5625 C-9.00382924 8.83534256 -9.00382924 8.83534256 -12 8 Z M-22 24 C-22 24.33 -22 24.66 -22 25 C-19.36 25 -16.72 25 -14 25 C-14 24.67 -14 24.34 -14 24 C-16.64 24 -19.28 24 -22 24 Z M-12 25 C-12 28 -12 28 -12 28 Z M-2 25 C-2.33 25.99 -2.66 26.98 -3 28 C-2.34 28 -1.68 28 -1 28 C-1.33 27.01 -1.66 26.02 -2 25 Z M0 25 C1 27 1 27 1 27 Z M-25 26 C-25.33 26.66 -25.66 27.32 -26 28 C-25.01 29.485 -25.01 29.485 -24 31 C-23.34 30.67 -22.68 30.34 -22 30 C-22.99 28.68 -23.98 27.36 -25 26 Z M-22 26 C-21.34 27.65 -20.68 29.3 -20 31 C-19.67 31 -19.34 31 -19 31 C-19 29.35 -19 27.7 -19 26 C-19.99 26 -20.98 26 -22 26 Z M-18 26 C-17 29 -17 29 -17 29 Z M-7 27 C-6 29 -6 29 -6 29 Z M-46 53 C-46.33 53.99 -46.66 54.98 -47 56 C-47.66 56 -48.32 56 -49 56 C-50.52429097 57.88002979 -50.52429097 57.88002979 -52 60.25 C-52.515625 61.03890625 -53.03125 61.8278125 -53.5625 62.640625 C-56.29621751 67.0082683 -56.29621751 67.0082683 -57 72 C-57.66 72 -58.32 72 -59 72 C-60.8924098 73.57715762 -60.8924098 73.57715762 -62 76 C-61.32920026 79.09575344 -61.32920026 79.09575344 -60 82 C-59.67 82.99 -59.34 83.98 -59 85 C-58.34 84.67 -57.68 84.34 -57 84 C-57 84.66 -57 85.32 -57 86 C-57.66 86 -58.32 86 -59 86 C-58.67 87.32 -58.34 88.64 -58 90 C-53.61221265 88.52765358 -52.16149214 85.30496208 -50.125 81.4375 C-47.76869928 77.09287947 -45.36714553 72.99497118 -42.4375 69 C-40.44053666 66.08052642 -40.00539976 65.2915873 -39.9375 61.625 C-41.0067243 58.98338703 -41.85194346 57.80436749 -44 56 C-44.66 55.01 -45.32 54.02 -46 53 Z " fill="#FFFFFF" transform="translate(104,50)"/>
<path d="M0 0 C0 3.46762216 -0.87792233 5.94683259 -1.9375 9.25 C-5.87732204 22.78182694 -6.31127702 38.13233789 -4 52 C0.29 51.01 4.58 50.02 9 49 C8.505 46.4940625 8.505 46.4940625 8 43.9375 C6.16516829 32.82366222 6.44659113 21.96597915 9 11 C9.7425 11.165 10.485 11.33 11.25 11.5 C14.19006578 12.11925696 14.19006578 12.11925696 18 12 C19.8325126 10.31997705 19.8325126 10.31997705 21.4375 8.125 C24.03868466 4.95200319 25.87786576 2.99930527 30 2 C26 6.66666667 22 11.33333333 18 16 C18.515625 16.763125 19.03125 17.52625 19.5625 18.3125 C20.036875 19.199375 20.51125 20.08625 21 21 C20.505 22.485 20.505 22.485 20 24 C19.15364583 22.33984375 18.30729167 20.6796875 17.4609375 19.01953125 C15.55618236 16.21127362 15.55618236 16.21127362 10 12 C9.34 19.92 8.68 27.84 8 36 C10.31 36.33 12.62 36.66 15 37 C18.85501049 39.01352614 22.08224325 41.62336487 24.5 45.25 C25.53731049 50.95520768 26.18245631 56.02923949 23.125 61.125 C21 63 21 63 19 63 C18.67 63.99 18.34 64.98 18 66 C15.64426727 67.22907795 13.49486476 68.13416143 11 69 C9.87271484 69.40605469 9.87271484 69.40605469 8.72265625 69.8203125 C-2.98697835 73.53708404 -18.19999918 74.86354865 -30 71 C-32.58343447 69.55600716 -33.92950915 68.22577766 -36 66 C-37.1446875 64.8553125 -37.1446875 64.8553125 -38.3125 63.6875 C-40.55945334 60.10901875 -41.52549088 57.16889428 -41 53 C-38.99557227 47.67186666 -36.66733512 43.24163254 -32.0625 39.8125 C-28.60380579 38.89488725 -25.56429358 38.9452942 -22 39 C-22.04640625 38.11699219 -22.0928125 37.23398438 -22.140625 36.32421875 C-22.4271896 26.79594567 -21.35633316 19.03449973 -16 11 C-16.78375 11.515625 -17.5675 12.03125 -18.375 12.5625 C-19.674375 13.2740625 -19.674375 13.2740625 -21 14 C-21.66 13.67 -22.32 13.34 -23 13 C-20.64031256 10.90250005 -19.45383006 10.03094296 -16.25 9.8125 C-15.5075 9.874375 -14.765 9.93625 -14 10 C-14.94118475 12.41655543 -15.88572623 14.77729127 -17.0703125 17.0859375 C-21.65862061 27.04426547 -20.35082911 38.29566399 -20 49 C-16.51544167 50.86209206 -13.5814874 52.3464235 -9.625 52.6875 C-8.42875 52.790625 -7.2325 52.89375 -6 53 C-6.16242188 52.16339844 -6.32484375 51.32679688 -6.4921875 50.46484375 C-8.78548186 34.81751991 -7.60650601 16.7884819 -2 2 C-1.34 1.34 -0.68 0.68 0 0 Z M9 37 C9.495 43.435 9.495 43.435 10 50 C-0.60503413 53.06651589 -10.09462306 54.01830857 -21 52 C-21.33 48.04 -21.66 44.08 -22 40 C-27.66507191 40 -29.46833461 40.07959341 -34 43 C-36.39380091 46.19512368 -36.39380091 46.19512368 -37 50 C-36.01 50 -35.02 50 -34 50 C-35.2065625 50.3403125 -35.2065625 50.3403125 -36.4375 50.6875 C-39.1999221 51.73376403 -39.1999221 51.73376403 -39.82421875 54.296875 C-40.19201064 59.95269694 -35.41018755 64.38243193 -31.875 68.4375 C-19.2005312 75.32579826 -2.32290554 71.7339249 10.890625 68.1328125 C13.79724112 67.07386944 15.7610524 66.11702471 18 64 C18 63.34 18 62.68 18 62 C18.61875 61.731875 19.2375 61.46375 19.875 61.1875 C22.2995233 60.04443152 22.2995233 60.04443152 24 57 C24.45470078 51.45265054 24.34381365 47.66107357 21 43 C15.59271826 38.49179513 15.59271826 38.49179513 9 37 Z " fill="#FFFFFF" transform="translate(92,96)"/>
<path d="M0 0 C1.13248924 -0.00143509 1.13248924 -0.00143509 2.28785706 -0.00289917 C3.88388146 -0.00357727 5.47990868 -0.00174889 7.07592773 0.00244141 C9.46539875 0.00772731 11.85467592 0.00251904 14.24414062 -0.00390625 C41.85780008 -0.02037599 41.85780008 -0.02037599 47.06640625 3.1328125 C46.78159385 6.45562381 46.10903206 8.07686612 44.06640625 10.7578125 C36.46169889 16.77820582 26.7121658 17.28749289 17.34375 17.30078125 C16.10909752 17.30577385 16.10909752 17.30577385 14.84950256 17.31086731 C13.11736608 17.31590877 11.38521998 17.3182765 9.65307617 17.31811523 C7.00878969 17.32030845 4.36491632 17.33851183 1.72070312 17.35742188 C0.0325535 17.36035507 -1.65559809 17.36234036 -3.34375 17.36328125 C-4.52361229 17.37405952 -4.52361229 17.37405952 -5.72731018 17.38505554 C-9.90600332 17.36770667 -13.17727882 17.01867786 -16.93359375 15.1328125 C-17.18577398 10.84574865 -17.33147881 7.19383934 -15.80859375 3.1328125 C-11.92738145 -1.00714729 -5.35497959 -0.01527942 0 0 Z M-13.93359375 3.1328125 C-16.67592077 6.35206596 -16.08968194 10.07451949 -15.93359375 14.1328125 C-11.64506091 16.2306233 -7.71286971 16.43951775 -3.02734375 16.43359375 C-2.26619263 16.43787888 -1.5050415 16.442164 -0.7208252 16.44657898 C0.88955699 16.4523086 2.49996505 16.45283263 4.11035156 16.44848633 C6.53107095 16.44535816 8.95052809 16.4686896 11.37109375 16.49414062 C28.9167902 16.73733736 28.9167902 16.73733736 44.06640625 9.1328125 C45.47831189 6.52844017 45.47831189 6.52844017 46.06640625 4.1328125 C37.31101358 -1.18276884 21.85472231 0.94639871 11.79296875 0.94750977 C9.54018211 0.94528662 7.28785934 0.92692702 5.03515625 0.90820312 C3.57682455 0.90527407 2.11849059 0.90328601 0.66015625 0.90234375 C-1.27827148 0.89618042 -1.27827148 0.89618042 -3.25585938 0.88989258 C-7.09286887 1.14333286 -10.30920019 1.86342262 -13.93359375 3.1328125 Z " fill="#FFFFFF" transform="translate(224.93359375,151.8671875)"/>
<path d="M0 0 C13.56249001 -0.03042077 27.12498062 -0.05091121 40.6875 -0.0625 C42.17969999 -0.06378403 42.17969999 -0.06378403 43.70204544 -0.06509399 C73.14696234 -0.08750116 102.56829584 0.01763686 132 1 C132 1.33 132 1.66 132 2 C101.37110608 2.1700733 70.75123366 1.8703979 40.125 1.5 C38.64150684 1.48206327 38.64150684 1.48206327 37.12804413 1.46376419 C24.7519717 1.3137063 12.37596092 1.1589791 0 1 C0 0.67 0 0.34 0 0 Z " fill="#FFFFFF" transform="translate(163,31)"/>
<path d="M0 0 C-1.60171213 3.57305013 -3.25539306 6.07574942 -6.77514648 7.94042969 C-15.12094941 10.76861944 -23.65914458 10.38315955 -32.36206055 10.28125 C-35.08721414 10.249714 -37.81179023 10.24023328 -40.53710938 10.234375 C-42.26563214 10.22521853 -43.99414899 10.21484713 -45.72265625 10.203125 C-46.94747459 10.19675018 -46.94747459 10.19675018 -48.19703674 10.19024658 C-53.88273775 10.11726225 -53.88273775 10.11726225 -55 9 C-55.14115161 6.32941149 -55.04247107 3.67567762 -55 1 C-49.32015051 -1.30683307 -43.67239367 -1.66574016 -37.625 -2.125 C-36.02893921 -2.2502002 -36.02893921 -2.2502002 -34.40063477 -2.37792969 C-8.57822368 -4.28911184 -8.57822368 -4.28911184 0 0 Z M-36.5 -1.125 C-37.53882324 -1.04660889 -38.57764648 -0.96821777 -39.64794922 -0.88745117 C-44.70944212 -0.45901933 -49.24703116 0.06300243 -54 2 C-54.04254356 3.99954746 -54.04080783 6.00041636 -54 8 C-51.98662489 10.01337511 -47.92170927 9.18793828 -45.16015625 9.203125 C-44.36403427 9.20882507 -43.56791229 9.21452515 -42.74766541 9.22039795 C-41.05371434 9.22986997 -39.35974467 9.23639062 -37.66577148 9.24023438 C-35.10431227 9.24984315 -32.54368916 9.28080299 -29.98242188 9.3125 C-17.64839304 9.58905742 -17.64839304 9.58905742 -6 6 C-3.3816829 3.52990369 -3.3816829 3.52990369 -2 1 C-5.6312777 -2.6312777 -10.95766836 -2.15621926 -15.875 -2.1875 C-22.7736374 -2.13579715 -29.62379779 -1.66682109 -36.5 -1.125 Z " fill="#FFFFFF" transform="translate(205,210)"/>
<path d="M0 0 C3.1611985 0.30106652 3.47174393 1.09674393 5.625 3.25 C8.25070704 3.50069913 8.25070704 3.50069913 10.625 3.25 C10.955 2.59 11.285 1.93 11.625 1.25 C13.275 1.25 14.925 1.25 16.625 1.25 C16.625 2.57 16.625 3.89 16.625 5.25 C15.305 5.58 13.985 5.91 12.625 6.25 C12.686875 7.3225 12.74875 8.395 12.8125 9.5 C12.61956691 13.35866187 12.22834924 14.53817788 9.625 17.25 C4.875 16.375 4.875 16.375 2.625 15.25 C2.50125 13.950625 2.3775 12.65125 2.25 11.3125 C2.0885671 9.15606247 2.0885671 9.15606247 1.625 7.25 C-0.30883287 5.94934079 -0.30883287 5.94934079 -2.375 5.25 C-3.1875 3.1875 -3.1875 3.1875 -3.375 1.25 C-2.375 0.25 -2.375 0.25 0 0 Z M-1.375 1.25 C-1.045 2.57 -0.715 3.89 -0.375 5.25 C0.615 5.25 1.605 5.25 2.625 5.25 C2.625 4.26 2.625 3.27 2.625 2.25 C1.305 1.92 -0.015 1.59 -1.375 1.25 Z M12.625 2.25 C12.295 3.24 11.965 4.23 11.625 5.25 C12.945 4.92 14.265 4.59 15.625 4.25 C15.625 3.59 15.625 2.93 15.625 2.25 C14.635 2.25 13.645 2.25 12.625 2.25 Z M3.625 5.25 C2.32866379 6.31645115 2.32866379 6.31645115 2.5625 8.8125 C2.583125 9.616875 2.60375 10.42125 2.625 11.25 C4.605 12.24 4.605 12.24 6.625 13.25 C7.92133621 12.18354885 7.92133621 12.18354885 7.6875 9.6875 C7.666875 8.883125 7.64625 8.07875 7.625 7.25 C8.615 7.25 9.605 7.25 10.625 7.25 C9.965 8.57 9.305 9.89 8.625 11.25 C9.285 11.91 9.945 12.57 10.625 13.25 C11.98118499 12.12465895 11.98118499 12.12465895 11.6875 9.1875 C11.666875 8.218125 11.64625 7.24875 11.625 6.25 C7.63467159 5.64735687 7.63467159 5.64735687 3.625 5.25 Z M7.625 13.25 C6.965 13.91 6.305 14.57 5.625 15.25 C6.615 15.58 7.605 15.91 8.625 16.25 C8.955 15.26 9.285 14.27 9.625 13.25 C8.965 13.25 8.305 13.25 7.625 13.25 Z " fill="#FFFFFF" transform="translate(13.375,3.75)"/>
<path d="M0 0 C25.08 0 50.16 0 76 0 C76 0.33 76 0.66 76 1 C50.92 1 25.84 1 0 1 C0 0.67 0 0.34 0 0 Z " fill="#FFFFFF" transform="translate(60,28)"/>
<path d="M0 0 C0.66 0 1.32 0 2 0 C1 3 1 3 -0.4375 4.875 C-2.11506017 7.15648183 -3.04182509 9.34659256 -4 12 C-4.66 12 -5.32 12 -6 12 C-6.33 9.69 -6.66 7.38 -7 5 C-9.90802461 7.21928194 -11.95312762 8.92969143 -14 12 C-14.66 12 -15.32 12 -16 12 C-16.474375 11.175 -16.94875 10.35 -17.4375 9.5 C-17.953125 8.675 -18.46875 7.85 -19 7 C-19.99 7 -20.98 7 -22 7 C-22.33 10.96 -22.66 14.92 -23 19 C-23.33 19 -23.66 19 -24 19 C-24.08114106 17.22992286 -24.13925505 15.45877902 -24.1875 13.6875 C-24.22230469 12.70136719 -24.25710937 11.71523437 -24.29296875 10.69921875 C-24 8 -24 8 -22.6171875 6.13671875 C-21 5 -21 5 -18.9375 5.125 C-17 6 -17 6 -15 9 C-13.88625 7.7625 -13.88625 7.7625 -12.75 6.5 C-10 4 -10 4 -6 4 C-5.67 5.32 -5.34 6.64 -5 8 C-4.66226563 7.4225 -4.32453125 6.845 -3.9765625 6.25 C-3.53054687 5.5075 -3.08453125 4.765 -2.625 4 C-2.18414062 3.2575 -1.74328125 2.515 -1.2890625 1.75 C-0.86367187 1.1725 -0.43828125 0.595 0 0 Z " fill="#FFFFFF" transform="translate(187,110)"/>
<path d="M0 0 C0.7425 0.0825 1.485 0.165 2.25 0.25 C5.25 5.875 5.25 5.875 5.25 9.25 C6.013125 8.46625 6.77625 7.6825 7.5625 6.875 C12.29761905 2.25 12.29761905 2.25 16.25 2.25 C17.9375 4.25 17.9375 4.25 19.25 6.25 C22.2219385 5.12548273 24.58440687 4.02706209 27.25 2.25 C28.57 2.25 29.89 2.25 31.25 2.25 C29.85147088 5.04705825 28.11348142 5.15914993 25.25 6.25 C24.26 6.91 23.27 7.57 22.25 8.25 C19.26896641 8.02642248 17.71564453 7.6514177 15.4375 5.6875 C15.045625 5.213125 14.65375 4.73875 14.25 4.25 C13.5075 5.03375 12.765 5.8175 12 6.625 C9.25 9.25 9.25 9.25 5.25 11.25 C3.93 8.28 2.61 5.31 1.25 2.25 C-1.22266765 2.59444881 -1.22266765 2.59444881 -3.75 3.25 C-4.08 3.91 -4.41 4.57 -4.75 5.25 C-5.41 4.92 -6.07 4.59 -6.75 4.25 C-3.42692308 0.31153846 -3.42692308 0.31153846 0 0 Z " fill="#FFFFFF" transform="translate(115.75,8.75)"/>
<path d="M0 0 C0.26554687 0.63808594 0.53109375 1.27617187 0.8046875 1.93359375 C1.15789062 2.75988281 1.51109375 3.58617187 1.875 4.4375 C2.22304687 5.26121094 2.57109375 6.08492187 2.9296875 6.93359375 C3.8244937 9.15746715 3.8244937 9.15746715 6 10 C6.33 9.01 6.66 8.02 7 7 C7.66 7.33 8.32 7.66 9 8 C8.34 8.99 7.68 9.98 7 11 C4.6875 10.9375 4.6875 10.9375 2 10 C-1 4.31034483 -1 4.31034483 -1 1 C-2.27445454 1.42683632 -3.54445882 1.86697202 -4.8125 2.3125 C-5.87404297 2.67794922 -5.87404297 2.67794922 -6.95703125 3.05078125 C-9.07592524 3.88151846 -9.07592524 3.88151846 -10.51171875 5.60546875 C-12 7 -12 7 -16 7 C-16 6.01 -16 5.02 -16 4 C-19.60992379 4.65585189 -19.60992379 4.65585189 -23 6 C-24.99960012 6.039992 -27.00047242 6.04346799 -29 6 C-29.33 5.01 -29.66 4.02 -30 3 C-29.34 3 -28.68 3 -28 3 C-28 3.66 -28 4.32 -28 5 C-26.96875 4.484375 -25.9375 3.96875 -24.875 3.4375 C-21.26947626 1.86604974 -18.84321557 1.96889338 -15 3 C-15 3.99 -15 4.98 -15 6 C-14.41992188 5.566875 -13.83984375 5.13375 -13.2421875 4.6875 C-5.48330404 -0.84358524 -5.48330404 -0.84358524 0 0 Z " fill="#FFFFFF" transform="translate(83,8)"/>
<path d="M0 0 C4.875 0.875 4.875 0.875 6 2 C11.22498445 2.17883014 11.22498445 2.17883014 16.375 1.5 C21.98174734 0.43204813 27.75869934 0.74318831 33.375 1.625 C36.81513079 2.30954223 36.81513079 2.30954223 38.9296875 1.03125 C41.38577322 -0.19215874 43.0262402 -0.20511058 45.75 -0.125 C46.54921875 -0.10695312 47.3484375 -0.08890625 48.171875 -0.0703125 C48.77515625 -0.04710937 49.3784375 -0.02390625 50 0 C50 0.66 50 1.32 50 2 C48.7625 1.95875 47.525 1.9175 46.25 1.875 C42.84278918 1.86306581 41.02218197 2.44016414 38 4 C34.28183899 4.19569268 31.53970718 4.17990239 28 3 C22.77329794 2.82224465 22.77329794 2.82224465 17.625 3.5 C11.98686586 4.57393031 6.81497691 5.16158522 1.875 2 C1.25625 1.34 0.6375 0.68 0 0 Z " fill="#FFFFFF" transform="translate(171,189)"/>
<path d="M0 0 C3.89322175 1.15968307 6.1328976 0.1201426 9.9375 -1.125 C12.625 -1.5 12.625 -1.5 14.9375 -1.125 C17.25 0.875 17.25 0.875 18.9375 2.875 C18.009375 2.318125 18.009375 2.318125 17.0625 1.75 C13.06478387 0.63063948 10.3933663 1.43260989 6.4375 2.46484375 C3.60864007 2.92895358 1.70528461 2.55927005 -1.0625 1.875 C-6.79143158 0.88862743 -10.52014079 0.87031688 -16.0625 2.875 C-20.76348579 3.3693497 -24.78892557 3.01178721 -29.0625 0.875 C-25.96640175 -0.15703275 -24.86008674 -0.07279057 -21.75 0.4375 C-13.93794116 1.44550759 -7.9319193 -2.91376627 0 0 Z " fill="#FFFFFF" transform="translate(207.0625,176.125)"/>
<path d="M0 0 C1.32 0.66 2.64 1.32 4 2 C3.67 2.66 3.34 3.32 3 4 C2.34 3.67 1.68 3.34 1 3 C0.01 4.98 -0.98 6.96 -2 9 C-3.65 9 -5.3 9 -7 9 C-7 8.34 -7 7.68 -7 7 C-7.86625 7.7734375 -7.86625 7.7734375 -8.75 8.5625 C-11 10 -11 10 -13.25 9.6875 C-13.8275 9.460625 -14.405 9.23375 -15 9 C-15 7.68 -15 6.36 -15 5 C-15.845625 5.66 -16.69125 6.32 -17.5625 7 C-21.43436947 9.25272405 -23.60278797 9.35177696 -28 9 C-28 8.67 -28 8.34 -28 8 C-26.906875 7.71125 -25.81375 7.4225 -24.6875 7.125 C-20.95986155 6.18106796 -20.95986155 6.18106796 -18 4 C-16.68 4 -15.36 4 -14 4 C-13.34 5.32 -12.68 6.64 -12 8 C-11.01 7.01 -10.02 6.02 -9 5 C-8.01 5.33 -7.02 5.66 -6 6 C-6 6.66 -6 7.32 -6 8 C-5.01 8 -4.02 8 -3 8 C-2.690625 6.865625 -2.38125 5.73125 -2.0625 4.5625 C-1 1 -1 1 0 0 Z " fill="#FFFFFF" transform="translate(233,136)"/>
<path d="M0 0 C2.33800329 0.06637408 2.33800329 0.06637408 4.6875 -0.3125 C5.47511719 -0.41175781 6.26273438 -0.51101562 7.07421875 -0.61328125 C8.99960267 -0.814919 8.99960267 -0.814919 10 -2 C11.66617115 -2.04063832 13.33388095 -2.042721 15 -2 C15.495 -1.01 15.495 -1.01 16 0 C15.319375 -0.04125 14.63875 -0.0825 13.9375 -0.125 C10.86504482 -0.10882795 10.86504482 -0.10882795 7.5 1 C3.75667333 2.06952191 0.89849012 2.50626403 -2.875 1.5 C-7.0455388 0.51869675 -10.95678505 0.65226168 -15 2 C-16.39439664 2.06665376 -17.79169875 2.08538199 -19.1875 2.0625 C-21.0746875 2.0315625 -21.0746875 2.0315625 -23 2 C-23 1.67 -23 1.34 -23 1 C-22.13117188 0.86722656 -21.26234375 0.73445312 -20.3671875 0.59765625 C-19.21476563 0.42105469 -18.06234375 0.24445313 -16.875 0.0625 C-15.73804688 -0.11152344 -14.60109375 -0.28554687 -13.4296875 -0.46484375 C-11.21573608 -0.81030086 -9.00988764 -1.2152947 -6.8203125 -1.69140625 C-3.64297498 -2.03906506 -2.72307667 -1.48077693 0 0 Z " fill="#FFFFFF" transform="translate(179,213)"/>
<path d="M0 0 C21.78 0.495 21.78 0.495 44 1 C44 1.33 44 1.66 44 2 C39.18026089 2.02491316 34.36056015 2.04295998 29.54077148 2.05493164 C27.90469712 2.05992803 26.26862715 2.06672739 24.63256836 2.07543945 C7.89783459 2.16225376 7.89783459 2.16225376 0 1 C0 0.67 0 0.34 0 0 Z " fill="#FFFFFF" transform="translate(16,26)"/>
<path d="M0 0 C0.33 0 0.66 0 1 0 C1 2.31 1 4.62 1 7 C3.51083114 5.74458443 3.87125446 4.49936512 5 2 C6.32 2 7.64 2 9 2 C9.33 3.98 9.66 5.96 10 8 C11.65 6.68 13.3 5.36 15 4 C15.66 4.33 16.32 4.66 17 5 C15.25 7 15.25 7 13 9 C11.68 9 10.36 9 9 9 C8.67 7.02 8.34 5.04 8 3 C5.24616077 4.37691962 4.48516899 6.36720042 3 9 C2.01 8.67 1.02 8.34 0 8 C0 5.36 0 2.72 0 0 Z " fill="#FFFFFF" transform="translate(233,114)"/>
<path d="M0 0 C0.5775 0.350625 1.155 0.70125 1.75 1.0625 C4.35801776 2.14917407 5.39417629 1.93065133 8 1 C8.66 2.32 9.32 3.64 10 5 C11.32 4.01 12.64 3.02 14 2 C13.25 3.9375 13.25 3.9375 12 6 C9.875 6.75 9.875 6.75 8 7 C7.67 5.68 7.34 4.36 7 3 C5.02 3.99 5.02 3.99 3 5 C2.67 4.01 2.34 3.02 2 2 C0.29159719 3.63412443 -0.93453047 4.86906094 -2 7 C-2.99 6.67 -3.98 6.34 -5 6 C-4.34 6 -3.68 6 -3 6 C-2.690625 5.195625 -2.38125 4.39125 -2.0625 3.5625 C-1 1 -1 1 0 0 Z " fill="#FFFFFF" transform="translate(282,10)"/>
<path d="M0 0 C0.59425781 0.49628906 1.18851563 0.99257812 1.80078125 1.50390625 C4.62576578 3.42569857 6.3706943 3.30818949 9.75 3.1875 C10.73484375 3.16042969 11.7196875 3.13335937 12.734375 3.10546875 C13.48203125 3.07066406 14.2296875 3.03585938 15 3 C10.95718855 5.26505731 7.56792865 5.66339213 3 5 C1.65724831 4.01268258 0.32267727 3.01405257 -1 2 C-4.01733125 2.2413865 -6.29283042 2.64641521 -9 4 C-11.3329866 4.04022391 -13.66706666 4.04320247 -16 4 C-16 3.67 -16 3.34 -16 3 C-14.01432292 2.51171875 -12.02864583 2.0234375 -10.04296875 1.53515625 C-3.04747697 -0.29731483 -3.04747697 -0.29731483 0 0 Z " fill="#FFFFFF" transform="translate(123,174)"/>
<path d="M0 0 C0.33 0.33 0.66 0.66 1 1 C3.32817964 1.36760731 5.6618385 1.70241581 8 2 C8 2.33 8 2.66 8 3 C1.84765625 3.09765625 1.84765625 3.09765625 0 3 C-0.33 2.67 -0.66 2.34 -1 2 C-5.84874692 1.59357482 -10.5466101 1.7172573 -15.25 3 C-18.71103443 3.92294251 -21.44723598 4.1776382 -25 4 C-25 3.67 -25 3.34 -25 3 C-16.62812311 0.73149142 -8.70425132 -0.78038115 0 0 Z " fill="#FFFFFF" transform="translate(173,196)"/>
<path d="M0 0 C0.66 0.99 1.32 1.98 2 3 C2.92232422 2.87431641 2.92232422 2.87431641 3.86328125 2.74609375 C4.67152344 2.64425781 5.47976562 2.54242188 6.3125 2.4375 C7.11300781 2.33308594 7.91351563 2.22867188 8.73828125 2.12109375 C11 2 11 2 14 3 C4.58997722 5.48063781 4.58997722 5.48063781 0 4 C-0.33 3.01 -0.66 2.02 -1 1 C-1.495 1.350625 -1.99 1.70125 -2.5 2.0625 C-6.22697603 3.46011601 -9.09802848 2.65032859 -13 2 C-13 1.67 -13 1.34 -13 1 C-11.88625 1.020625 -10.7725 1.04125 -9.625 1.0625 C-5.88377953 0.9979962 -3.79326366 0 0 0 Z " fill="#FFFFFF" transform="translate(246,158)"/>
<path d="M0 0 C0.66 0.33 1.32 0.66 2 1 C2 1.99 2 2.98 2 4 C3.1446875 3.505 3.1446875 3.505 4.3125 3 C8.58464091 1.41036617 10.95586595 2.25118528 15 4 C12.3260876 4.89130413 9.76276177 5.47731534 7 6 C7 5.34 7 4.68 7 4 C5.02 4.33 3.04 4.66 1 5 C0.67 4.34 0.34 3.68 0 3 C-1.32 3.99 -2.64 4.98 -4 6 C-2.84826645 3.53199953 -1.95216435 1.95216435 0 0 Z " fill="#FFFFFF" transform="translate(312,9)"/>
<path d="M0 0 C2 2 2 2 2.9375 5.5 C3.6673234 9.23685745 3.6673234 9.23685745 7 11 C11.07853495 10.85168964 13.287424 10.60294892 16.4375 7.9375 C16.953125 7.298125 17.46875 6.65875 18 6 C16.75023244 9.65316671 16.32901247 10.78065836 13 13 C6.9816092 13.54712644 6.9816092 13.54712644 3.85546875 11.8046875 C1.51851484 9.53169233 1.24713369 8.00244119 0.75 4.8125 C0.60046875 3.91144531 0.4509375 3.01039062 0.296875 2.08203125 C0.19890625 1.39496094 0.1009375 0.70789063 0 0 Z " fill="#FFFFFF" transform="translate(113,120)"/>
<path d="M0 0 C0 0.33 0 0.66 0 1 C-3.89914526 1.89734629 -7.61734298 2.1886822 -11.61328125 2.31640625 C-12.86044922 2.35830078 -14.10761719 2.40019531 -15.39257812 2.44335938 C-17.33293945 2.50233398 -17.33293945 2.50233398 -19.3125 2.5625 C-21.28186523 2.62727539 -21.28186523 2.62727539 -23.29101562 2.69335938 C-26.52724288 2.79927227 -29.76354458 2.90134885 -33 3 C-29.84516116 1.16450759 -27.42035366 0.71209139 -23.7890625 0.5859375 C-22.29246094 0.52792969 -22.29246094 0.52792969 -20.765625 0.46875 C-19.21101563 0.42234375 -19.21101563 0.42234375 -17.625 0.375 C-16.59632813 0.33632813 -15.56765625 0.29765625 -14.5078125 0.2578125 C-9.67041852 0.08326736 -4.84119939 -0.04990927 0 0 Z " fill="#FFFFFF" transform="translate(350,26)"/>
<path d="M0 0 C1.484375 1.75 1.484375 1.75 2.75 4 C3.17796875 4.7425 3.6059375 5.485 4.046875 6.25 C4.36140625 6.8275 4.6759375 7.405 5 8 C5.99 7.34 6.98 6.68 8 6 C7.34 7.32 6.68 8.64 6 10 C5.01 10 4.02 10 3 10 C-1 3.25 -1 3.25 -1 1 C-3.64 2.98 -6.28 4.96 -9 7 C-5.5 0 -5.5 0 0 0 Z " fill="#FFFFFF" transform="translate(101,8)"/>
<path d="M0 0 C0.61875 0.9590625 0.61875 0.9590625 1.25 1.9375 C3.4333999 4.51079274 4.409423 4.40736169 7.6875 4.75 C9.12388098 4.85079867 10.5613506 4.93967927 12 5 C12 5.33 12 5.66 12 6 C10.39667209 6.08121924 8.79215974 6.13929134 7.1875 6.1875 C6.29417969 6.22230469 5.40085938 6.25710937 4.48046875 6.29296875 C2 6 2 6 0.17578125 4.61328125 C-1 3 -1 3 -1 1 C-1.61488281 1.2165625 -2.22976562 1.433125 -2.86328125 1.65625 C-3.67152344 1.9346875 -4.47976562 2.213125 -5.3125 2.5 C-6.51326172 2.91765625 -6.51326172 2.91765625 -7.73828125 3.34375 C-10 4 -10 4 -13 4 C-8.92512614 0.65278218 -5.31689704 -0.68165347 0 0 Z " fill="#FFFFFF" transform="translate(127,184)"/>
<path d="M0 0 C0.33 0.99 0.66 1.98 1 3 C2.98 2.34 4.96 1.68 7 1 C7.28875 1.639375 7.5775 2.27875 7.875 2.9375 C8.82823451 5.15206079 8.82823451 5.15206079 11 6 C11.33 5.01 11.66 4.02 12 3 C12.66 3.33 13.32 3.66 14 4 C13.01 5.485 13.01 5.485 12 7 C10.35 6.67 8.7 6.34 7 6 C7 5.01 7 4.02 7 3 C4.69 3.66 2.38 4.32 0 5 C0 4.01 0 3.02 0 2 C-0.66 1.67 -1.32 1.34 -2 1 C-1.34 0.67 -0.68 0.34 0 0 Z " fill="#FFFFFF" transform="translate(258,9)"/>
<path d="M0 0 C2.25773139 0.39976851 2.25773139 0.39976851 5.12109375 0.32421875 C3.12109375 2.32421875 3.12109375 2.32421875 0.18359375 2.51171875 C-2.87890625 2.32421875 -2.87890625 2.32421875 -5.87890625 1.32421875 C-6.86890625 1.98421875 -7.85890625 2.64421875 -8.87890625 3.32421875 C-9.86890625 3.98421875 -10.85890625 4.64421875 -11.87890625 5.32421875 C-12.86890625 4.99421875 -13.85890625 4.66421875 -14.87890625 4.32421875 C-14.30140625 4.05609375 -13.72390625 3.78796875 -13.12890625 3.51171875 C-10.82697433 2.4383966 -10.82697433 2.4383966 -9.19140625 0.63671875 C-5.95993475 -1.19735967 -3.58533248 -0.56228654 0 0 Z " fill="#FFFFFF" transform="translate(287.87890625,136.67578125)"/>
<path d="M0 0 C0.69710731 1.28650706 1.38242876 2.57940665 2.0625 3.875 C2.44535156 4.59429687 2.82820312 5.31359375 3.22265625 6.0546875 C3.47917969 6.69664062 3.73570312 7.33859375 4 8 C3.67 8.66 3.34 9.32 3 10 C-1 3.25 -1 3.25 -1 1 C-1.62648437 1.37253906 -2.25296875 1.74507812 -2.8984375 2.12890625 C-3.71570313 2.60199219 -4.53296875 3.07507813 -5.375 3.5625 C-6.59316406 4.27599609 -6.59316406 4.27599609 -7.8359375 5.00390625 C-8.55007812 5.33261719 -9.26421875 5.66132813 -10 6 C-10.66 5.67 -11.32 5.34 -12 5 C-10.75747321 4.15556432 -9.5056114 3.3248542 -8.25 2.5 C-7.55390625 2.0359375 -6.8578125 1.571875 -6.140625 1.09375 C-4 0 -4 0 0 0 Z " fill="#FFFFFF" transform="translate(181,135)"/>
<path d="M0 0 C0.99 3.3 1.98 6.6 3 10 C2.01 10.495 2.01 10.495 1 11 C0.01 8.03 -0.98 5.06 -2 2 C-3.11375 2.680625 -4.2275 3.36125 -5.375 4.0625 C-7.2734375 5.22265625 -7.2734375 5.22265625 -9 6 C-9.66 5.67 -10.32 5.34 -11 5 C-9.73461631 4.15841464 -8.46246221 3.32700252 -7.1875 2.5 C-6.47980469 2.0359375 -5.77210938 1.571875 -5.04296875 1.09375 C-3 0 -3 0 0 0 Z " fill="#FFFFFF" transform="translate(220,112)"/>
<path d="M0 0 C0 0.99 0 1.98 0 3 C2.64 2.34 5.28 1.68 8 1 C7.67 1.99 7.34 2.98 7 4 C4.69 4.33 2.38 4.66 0 5 C-0.33 4.01 -0.66 3.02 -1 2 C-2.65 3.32 -4.3 4.64 -6 6 C-3.84615385 0 -3.84615385 0 0 0 Z " fill="#FFFFFF" transform="translate(336,10)"/>
<path d="M0 0 C0.33 0.99 0.66 1.98 1 3 C0.34 3 -0.32 3 -1 3 C-1 2.34 -1 1.68 -1 1 C-5.41522109 2.26974972 -5.41522109 2.26974972 -9 5 C-11.125 4.625 -11.125 4.625 -13 4 C-13 3.34 -13 2.68 -13 2 C-14.65 2 -16.3 2 -18 2 C-18 1.67 -18 1.34 -18 1 C-15.125 0.875 -15.125 0.875 -12 1 C-11.34 1.66 -10.68 2.32 -10 3 C-9.649375 2.505 -9.29875 2.01 -8.9375 1.5 C-6.05625711 -0.73063966 -3.52990974 -0.19980621 0 0 Z " fill="#FFFFFF" transform="translate(311,134)"/>
<path d="M0 0 C0.33 0.66 0.66 1.32 1 2 C3.12576782 2.46651207 3.12576782 2.46651207 5.5625 2.625 C6.38878906 2.69976562 7.21507812 2.77453125 8.06640625 2.8515625 C8.70449219 2.90054688 9.34257812 2.94953125 10 3 C10 3.33 10 3.66 10 4 C6.7 4 3.4 4 0 4 C-0.33 3.01 -0.66 2.02 -1 1 C-1.9075 1.350625 -2.815 1.70125 -3.75 2.0625 C-6.87758436 2.96468779 -8.05208081 3.13381507 -11 2 C-7.17679443 0.57741188 -4.08718695 -0.24042276 0 0 Z " fill="#FFFFFF" transform="translate(150,186)"/>
<path d="M0 0 C1.32 0 2.64 0 4 0 C4.66 2.97 5.32 5.94 6 9 C3.4345406 6.4345406 3.45953913 4.52313332 3 1 C0.2027092 3.06756277 -0.02692273 4.14440371 -0.6875 7.6875 C-0.790625 8.780625 -0.89375 9.87375 -1 11 C-1.33 11 -1.66 11 -2 11 C-2.25 3.375 -2.25 3.375 0 0 Z " fill="#FFFFFF" transform="translate(255,132)"/>
<path d="M0 0 C2.3125 0.875 2.3125 0.875 4.3125 1.875 C6.41071215 1.47561233 6.41071215 1.47561233 8.3125 0.875 C7.0625 2.4375 7.0625 2.4375 5.3125 3.875 C3.375 3.5625 3.375 3.5625 1.3125 2.875 C-2.48307881 2.875 -4.31652617 3.37678941 -7.6875 4.875 C-3.39126432 -0.15773322 -3.39126432 -0.15773322 0 0 Z " fill="#FFFFFF" transform="translate(242.6875,13.125)"/>
<path d="M0 0 C1.134375 0.020625 2.26875 0.04125 3.4375 0.0625 C3.480221 1.72861905 3.47813832 3.39632885 3.4375 5.0625 C2.4375 6.0625 2.4375 6.0625 -0.625 6.125 C-1.594375 6.104375 -2.56375 6.08375 -3.5625 6.0625 C-3.94468767 4.40635343 -4.27645102 2.73792976 -4.5625 1.0625 C-3.5625 0.0625 -3.5625 0.0625 0 0 Z M-2.5625 1.0625 C-2.5625 2.3825 -2.5625 3.7025 -2.5625 5.0625 C-0.9125 4.7325 0.7375 4.4025 2.4375 4.0625 C2.4375 3.0725 2.4375 2.0825 2.4375 1.0625 C0.7875 1.0625 -0.8625 1.0625 -2.5625 1.0625 Z " fill="#FFFFFF" transform="translate(102.5625,62.9375)"/>
<path d="M0 0 C0.66 0.99 1.32 1.98 2 3 C4.05003955 4.19232613 4.05003955 4.19232613 6 5 C3.625 5.1875 3.625 5.1875 1 5 C0.34 4.01 -0.32 3.02 -1 2 C-3.43693311 1.63583953 -3.43693311 1.63583953 -6.125 1.8125 C-7.03507813 1.83957031 -7.94515625 1.86664063 -8.8828125 1.89453125 C-9.58148438 1.92933594 -10.28015625 1.96414062 -11 2 C-11 1.67 -11 1.34 -11 1 C-7.26888555 0.12209072 -3.83204782 -0.34062647 0 0 Z " fill="#FFFFFF" transform="translate(153,174)"/>
<path d="M0 0 C0.66 0.33 1.32 0.66 2 1 C-3.75929978 7.86214442 -3.75929978 7.86214442 -8.9375 8.4375 C-9.948125 8.293125 -10.95875 8.14875 -12 8 C-11.67 7.34 -11.34 6.68 -11 6 C-10.29875 6.12375 -9.5975 6.2475 -8.875 6.375 C-4.60815815 5.81845541 -2.72939054 3.15146124 0 0 Z " fill="#FFFFFF" transform="translate(197,139)"/>
<path d="M0 0 C0 1.65 0 3.3 0 5 C-1.65 5.33 -3.3 5.66 -5 6 C-5.33 4.68 -5.66 3.36 -6 2 C-3 0 -3 0 0 0 Z M-2 1 C-1 4 -1 4 -1 4 Z M-5 3 C-5 3.66 -5 4.32 -5 5 C-4.01 4.67 -3.02 4.34 -2 4 C-2.99 3.67 -3.98 3.34 -5 3 Z " fill="#FFFFFF" transform="translate(95,64)"/>
<path d="M0 0 C0 0.33 0 0.66 0 1 C-2.8125 1.46875 -2.8125 1.46875 -5.625 1.9375 C-7.19121094 2.19853516 -7.19121094 2.19853516 -8.7890625 2.46484375 C-11.859375 2.9765625 -14.9296875 3.48828125 -18 4 C-13.08124136 -0.91875864 -6.47794906 -0.23044088 0 0 Z " fill="#FFFFFF" transform="translate(144,193)"/>
<path d="M0 0 C1.010625 0.144375 2.02125 0.28875 3.0625 0.4375 C3.0625 0.7675 3.0625 1.0975 3.0625 1.4375 C2.010625 1.664375 0.95875 1.89125 -0.125 2.125 C-4.0972906 3.23110531 -6.23349637 5.32379885 -8.9375 8.4375 C-9.5975 8.1075 -10.2575 7.7775 -10.9375 7.4375 C-5.17820022 0.57535558 -5.17820022 0.57535558 0 0 Z " fill="#FFFFFF" transform="translate(49.9375,9.5625)"/>
<path d="M0 0 C2.1875 0.3125 2.1875 0.3125 4 1 C3.67 1.66 3.34 2.32 3 3 C2.01 3 1.02 3 0 3 C-0.45375 3.495 -0.9075 3.99 -1.375 4.5 C-3 6 -3 6 -5.6875 6.1875 C-6.8321875 6.0946875 -6.8321875 6.0946875 -8 6 C-7.67 5.34 -7.34 4.68 -7 4 C-6.38125 3.855625 -5.7625 3.71125 -5.125 3.5625 C-2.89219036 3.17488934 -2.89219036 3.17488934 -1.5 1.375 C-1.005 0.92125 -0.51 0.4675 0 0 Z " fill="#FFFFFF" transform="translate(269,137)"/>
<path d="M0 0 C0 0.66 0 1.32 0 2 C-1.0828125 2.37125 -1.0828125 2.37125 -2.1875 2.75 C-5.24713266 4.10983674 -7.4673738 5.82917754 -10 8 C-8.70989008 5.12206249 -7.42638194 3.03816083 -5 1 C-2 0 -2 0 0 0 Z " fill="#FFFFFF" transform="translate(233,112)"/>
<path d="M0 0 C0.33 0.66 0.66 1.32 1 2 C-3.95 2.33 -8.9 2.66 -14 3 C-14 2.67 -14 2.34 -14 2 C-7.07 1.01 -7.07 1.01 0 0 Z " fill="#FFFFFF" transform="translate(221,198)"/>
<path d="M0 0 C0 0.33 0 0.66 0 1 C-9.41002278 3.11161731 -9.41002278 3.11161731 -14 4 C-9.28840397 0.26321694 -5.98096662 -0.11284843 0 0 Z " fill="#FFFFFF" transform="translate(175,173)"/>
<path d="M0 0 C-0.33 0.99 -0.66 1.98 -1 3 C-2.66666667 3 -4.33333333 3 -6 3 C-6.66 4.32 -7.32 5.64 -8 7 C-8 4 -8 4 -6.625 2.375 C-4.20270367 0.32536465 -3.24910844 0 0 0 Z " fill="#FFFFFF" transform="translate(202,113)"/>
<path d="M0 0 C5.28 0.33 10.56 0.66 16 1 C16 1.33 16 1.66 16 2 C10.55306686 2.09688221 5.36095333 2.12862175 0 1 C0 0.67 0 0.34 0 0 Z " fill="#FFFFFF" transform="translate(0,24)"/>
<path d="M0 0 C0.66 0.33 1.32 0.66 2 1 C1.34 4.96 0.68 8.92 0 13 C-0.89377528 9.42489889 -1.0258444 7.75082437 -0.5625 4.25 C-0.46066406 3.45078125 -0.35882813 2.6515625 -0.25390625 1.828125 C-0.17011719 1.22484375 -0.08632812 0.6215625 0 0 Z " fill="#FFFFFF" transform="translate(243,133)"/>
<path d="M0 0 C4.62 0 9.24 0 14 0 C14 0.33 14 0.66 14 1 C9.38 1 4.76 1 0 1 C0 0.67 0 0.34 0 0 Z " fill="#FFFFFF" transform="translate(149,30)"/>
<path d="M0 0 C1.485 0.99 1.485 0.99 3 2 C3.66 2.33 4.32 2.66 5 3 C4.01 4.485 4.01 4.485 3 6 C2.34 6 1.68 6 1 6 C0.34 4.35 -0.32 2.7 -1 1 C-0.67 0.67 -0.34 0.34 0 0 Z " fill="#FFFFFF" transform="translate(297,10)"/>
<path d="M0 0 C0.66 0 1.32 0 2 0 C2.33 1.65 2.66 3.3 3 5 C3.99 5.33 4.98 5.66 6 6 C5.01 6.495 5.01 6.495 4 7 C1.49962266 4.82575883 0.56371414 3.26954202 0 0 Z " fill="#FFFFFF" transform="translate(199,137)"/>
<path d="M0 0 C0.33 0 0.66 0 1 0 C1 2.64 1 5.28 1 8 C1.99 7.67 2.98 7.34 4 7 C4 7.66 4 8.32 4 9 C2.68 9 1.36 9 0 9 C0 6.03 0 3.06 0 0 Z " fill="#FFFFFF" transform="translate(189,113)"/>
<path d="M0 0 C4.29 0 8.58 0 13 0 C13 0.33 13 0.66 13 1 C8.71 1 4.42 1 0 1 C0 0.67 0 0.34 0 0 Z " fill="#FFFFFF" transform="translate(136,29)"/>
<path d="M0 0 C3.3 0 6.6 0 10 0 C9.67 0.99 9.34 1.98 9 3 C9 2.34 9 1.68 9 1 C6.03 1 3.06 1 0 1 C0 0.67 0 0.34 0 0 Z " fill="#FFFFFF" transform="translate(197,197)"/>
<path d="M0 0 C0.66 0 1.32 0 2 0 C2 0.66 2 1.32 2 2 C3.32 2.66 4.64 3.32 6 4 C3.69 3.67 1.38 3.34 -1 3 C-0.67 2.01 -0.34 1.02 0 0 Z " fill="#FFFFFF" transform="translate(227,157)"/>
<path d="M0 0 C3.96 0 7.92 0 12 0 C12 0.33 12 0.66 12 1 C8.04 1 4.08 1 0 1 C0 0.67 0 0.34 0 0 Z " fill="#FFFFFF" transform="translate(295,31)"/>
<path d="M0 0 C3.63 0 7.26 0 11 0 C11 0.33 11 0.66 11 1 C7.37 1 3.74 1 0 1 C0 0.67 0 0.34 0 0 Z " fill="#FFFFFF" transform="translate(160,188)"/>
<path d="M0 0 C0.33 0 0.66 0 1 0 C1 1.65 1 3.3 1 5 C2.32 4.67 3.64 4.34 5 4 C4.67 4.66 4.34 5.32 4 6 C2.68 6 1.36 6 0 6 C0 4.02 0 2.04 0 0 Z " fill="#FFFFFF" transform="translate(202,116)"/>
<path d="M0 0 C-3.47325181 1.1577506 -6.36067448 1.06866652 -10 1 C-10 0.67 -10 0.34 -10 0 C-6.33694766 -0.74926071 -3.57644848 -1.2380014 0 0 Z " fill="#FFFFFF" transform="translate(317,30)"/>
<path d="M0 0 C0.66 0.33 1.32 0.66 2 1 C0.515 3.475 0.515 3.475 -1 6 C-1.66 5.67 -2.32 5.34 -3 5 C-2.01 3.35 -1.02 1.7 0 0 Z " fill="#FFFFFF" transform="translate(60,153)"/>
<path d="M0 0 C0.33 0.66 0.66 1.32 1 2 C2.98 1.67 4.96 1.34 7 1 C6.67 1.66 6.34 2.32 6 3 C4.02 3 2.04 3 0 3 C0 2.01 0 1.02 0 0 Z " fill="#FFFFFF" transform="translate(147,13)"/>
<path d="M0 0 C0.33 0.66 0.66 1.32 1 2 C0.0625 4.125 0.0625 4.125 -1 6 C-1.66 5.67 -2.32 5.34 -3 5 C-2.01 3.35 -1.02 1.7 0 0 Z " fill="#FFFFFF" transform="translate(66,159)"/>
<path d="M0 0 C0.99 0.33 1.98 0.66 3 1 C3.6875 3.0625 3.6875 3.0625 4 5 C2.64567325 3.68799596 1.31266518 2.35368596 0 1 C0 0.67 0 0.34 0 0 Z " fill="#FFFFFF" transform="translate(144,194)"/>
<path d="M0 0 C2.31 0 4.62 0 7 0 C7 0.33 7 0.66 7 1 C4.69 1 2.38 1 0 1 C0 0.67 0 0.34 0 0 Z " fill="#FFFFFF" transform="translate(119,197)"/>
<path d="M0 0 C1.98 0.99 1.98 0.99 4 2 C3.67 2.66 3.34 3.32 3 4 C2.01 3.34 1.02 2.68 0 2 C0 1.34 0 0.68 0 0 Z " fill="#FFFFFF" transform="translate(98,156)"/>
<path d="M0 0 C1.98 0 3.96 0 6 0 C6 0.33 6 0.66 6 1 C4.02 1 2.04 1 0 1 C0 0.67 0 0.34 0 0 Z " fill="#FFFFFF" transform="translate(191,198)"/>
<path d="M0 0 C1.65 0 3.3 0 5 0 C4.67 0.66 4.34 1.32 4 2 C2.68 1.34 1.36 0.68 0 0 Z " fill="#FFFFFF" transform="translate(186,196)"/>
<path d="M0 0 C0.33 0 0.66 0 1 0 C1 1.98 1 3.96 1 6 C0.67 6 0.34 6 0 6 C0 4.02 0 2.04 0 0 Z " fill="#FFFFFF" transform="translate(74,160)"/>
<path d="M0 0 C0.66 0.33 1.32 0.66 2 1 C0.35 1.33 -1.3 1.66 -3 2 C-2.01 1.34 -1.02 0.68 0 0 Z " fill="#FFFFFF" transform="translate(224,160)"/>
<path d="M0 0 C2.475 0.495 2.475 0.495 5 1 C5 1.33 5 1.66 5 2 C3.35 2 1.7 2 0 2 C0 1.34 0 0.68 0 0 Z " fill="#FFFFFF" transform="translate(164,140)"/>
<path d="M0 0 C1.65 0 3.3 0 5 0 C5 0.33 5 0.66 5 1 C3.35 1 1.7 1 0 1 C0 0.67 0 0.34 0 0 Z " fill="#FFFFFF" transform="translate(181,197)"/>
<path d="M0 0 C0.66 0 1.32 0 2 0 C1.67 1.32 1.34 2.64 1 4 C0.67 2.68 0.34 1.36 0 0 Z " fill="#FFFFFF" transform="translate(84,161)"/>
<path d="M0 0 C1.65 0 3.3 0 5 0 C5 0.33 5 0.66 5 1 C3.35 1 1.7 1 0 1 C0 0.67 0 0.34 0 0 Z " fill="#FFFFFF" transform="translate(107,149)"/>
<path d="M0 0 C0.99 0.33 1.98 0.66 3 1 C2.67 1.66 2.34 2.32 2 3 C1.34 2.67 0.68 2.34 0 2 C0 1.34 0 0.68 0 0 Z " fill="#FFFFFF" transform="translate(88,144)"/>
<path d="M0 0 C0.99 0.33 1.98 0.66 3 1 C2.01 1.33 1.02 1.66 0 2 C0 1.34 0 0.68 0 0 Z " fill="#FFFFFF" transform="translate(100,65)"/>
<path d="M0 0 C0.99 0.33 1.98 0.66 3 1 C2.01 1.33 1.02 1.66 0 2 C0 1.34 0 0.68 0 0 Z " fill="#FFFFFF" transform="translate(17,12)"/>
<path d="M0 0 C4 1 4 1 4 1 Z " fill="#FFFFFF" transform="translate(138,176)"/>
<path d="M0 0 C0.99 0 1.98 0 3 0 C2.67 0.66 2.34 1.32 2 2 C1.34 1.34 0.68 0.68 0 0 Z " fill="#FFFFFF" transform="translate(175,174)"/>
<path d="M0 0 C4 1 4 1 4 1 Z " fill="#FFFFFF" transform="translate(106,139)"/>
<path d="M0 0 C1 4 1 4 1 4 Z " fill="#FFFFFF" transform="translate(89,136)"/>
<path d="M0 0 C1 4 1 4 1 4 Z " fill="#FFFFFF" transform="translate(93,106)"/>
<path d="M0 0 C0.66 0.33 1.32 0.66 2 1 C1.01 1 0.02 1 -1 1 C-0.67 0.67 -0.34 0.34 0 0 Z " fill="#FFFFFF" transform="translate(252,12)"/>
<path d="M0 0 C0.99 0.495 0.99 0.495 2 1 C1.01 1.495 1.01 1.495 0 2 C0 1.34 0 0.68 0 0 Z " fill="#FFFFFF" transform="translate(89,127)"/>
<path d="M0 0 C0.33 0.66 0.66 1.32 1 2 C0.34 1.67 -0.32 1.34 -1 1 C-0.67 0.67 -0.34 0.34 0 0 Z " fill="#FFFFFF" transform="translate(91,117)"/>
<path d="" fill="#FFFFFF" transform="translate(0,0)"/>
<path d="M0 0 C0.33 0.66 0.66 1.32 1 2 C0.34 1.67 -0.32 1.34 -1 1 C-0.67 0.67 -0.34 0.34 0 0 Z " fill="#FFFFFF" transform="translate(307,15)"/>
<path d="M0 0 C2 1 2 1 2 1 Z " fill="#FFFFFF" transform="translate(159,177)"/>
<path d="M0 0 C2 1 2 1 2 1 Z " fill="#FFFFFF" transform="translate(254,11)"/>
<path d="" fill="#FFFFFF" transform="translate(0,0)"/>
<path d="" fill="#FFFFFF" transform="translate(0,0)"/>
</svg>
