<?xml version="1.0" encoding="UTF-8"?>
<svg version="1.1" xmlns="http://www.w3.org/2000/svg" width="350" height="230">
<path d="M0 0 C0 1.32 0 2.64 0 4 C0.70125 3.835 1.4025 3.67 2.125 3.5 C5.14181573 2.97533639 7.94396368 2.93054463 11 3 C11.33 3 11.66 3 12 3 C12 2.34 12 1.68 12 1 C15.77545388 2.09068668 18.47043472 2.9083091 21 6 C23.31 5.34 25.62 4.68 28 4 C26.68 5.65 25.36 7.3 24 9 C24.66 10.32 25.32 11.64 26 13 C25.236875 12.505 24.47375 12.01 23.6875 11.5 C21.07636249 9.75631692 21.07636249 9.75631692 18 10 C18 8.68 18 7.36 18 6 C14.90281114 5.00447501 13.09728725 5.10078757 10 6 C6.25838897 6 2.71046443 5.48661829 -1 5 C-1 4.01 -1 3.02 -1 2 C-2.0828125 2.7734375 -2.0828125 2.7734375 -3.1875 3.5625 C-6.4195366 5.21442982 -7.61608307 5.06351675 -11 4 C-10.443125 3.896875 -9.88625 3.79375 -9.3125 3.6875 C-5.96876029 2.69341522 -3.48393198 0 0 0 Z " fill="#FFFFFF" transform="translate(168,182)"/>
<path d="M0 0 C0.85078125 0.00322266 1.7015625 0.00644531 2.578125 0.00976562 C3.46757813 0.01814453 4.35703125 0.02652344 5.2734375 0.03515625 C6.170625 0.03966797 7.0678125 0.04417969 7.9921875 0.04882812 C10.21100398 0.06063034 12.42968768 0.0770947 14.6484375 0.09765625 C14.6484375 0.75765625 14.6484375 1.41765625 14.6484375 2.09765625 C15.2671875 1.93265625 15.8859375 1.76765625 16.5234375 1.59765625 C19.30201616 1.15308366 21.72282748 1.06350247 24.5234375 1.09765625 C27.46068197 1.13216132 30.04363003 1.03800455 32.9609375 0.59765625 C47.4512544 -1.36713248 47.4512544 -1.36713248 52.6484375 2.09765625 C51.3284375 2.42765625 50.0084375 2.75765625 48.6484375 3.09765625 C48.6484375 2.43765625 48.6484375 1.77765625 48.6484375 1.09765625 C47.9884375 1.42765625 47.3284375 1.75765625 46.6484375 2.09765625 C44.77287477 2.25152887 42.89240183 2.34740278 41.01171875 2.4140625 C39.30918945 2.4769043 39.30918945 2.4769043 37.57226562 2.54101562 C36.38052734 2.58033203 35.18878906 2.61964844 33.9609375 2.66015625 C32.78853516 2.70333984 31.61613281 2.74652344 30.40820312 2.79101562 C24.81882457 2.98984727 19.24135842 3.15497755 13.6484375 3.09765625 C13.6484375 2.43765625 13.6484375 1.77765625 13.6484375 1.09765625 C5.95945819 1.61171319 -1.70012044 2.17420635 -9.3515625 3.09765625 C-5.77073159 0.71043565 -4.2090522 -0.02806035 0 0 Z " fill="#FFFFFF" transform="translate(87.3515625,54.90234375)"/>
<path d="M0 0 C0 0.66 0 1.32 0 2 C9.06335876 2.10234659 17.98175113 2.06996173 27 1 C24.31156316 3.73133743 22.94029214 4.00387866 19.03125 4.2578125 C17.52046499 4.22870806 16.00991457 4.18396101 14.5 4.125 C9.13403601 3.82176895 9.13403601 3.82176895 3.87304688 4.59716797 C3.25494141 4.73010254 2.63683594 4.86303711 2 5 C1.360625 4.484375 0.72125 3.96875 0.0625 3.4375 C-0.9584375 2.7259375 -0.9584375 2.7259375 -2 2 C-2.68578125 2.29777344 -3.3715625 2.59554687 -4.078125 2.90234375 C-8.04911587 4.39411973 -11.61270137 4.21652956 -15.8125 4.125 C-16.99489258 4.11146484 -16.99489258 4.11146484 -18.20117188 4.09765625 C-20.13424666 4.07422504 -22.0671638 4.03835838 -24 4 C-21.64046906 1.64046906 -20.22104383 1.50858587 -17 1 C-17 1.66 -17 2.32 -17 3 C-15.041036 2.69147815 -13.08284287 2.3780582 -11.125 2.0625 C-10.03445312 1.88847656 -8.94390625 1.71445312 -7.8203125 1.53515625 C-4.8100856 0.96396361 -3.09556571 0 0 0 Z " fill="#FFFFFF" transform="translate(114,34)"/>
<path d="M0 0 C0.63808594 0.08378906 1.27617188 0.16757813 1.93359375 0.25390625 C3.17302734 0.40666016 3.17302734 0.40666016 4.4375 0.5625 C5.26121094 0.66691406 6.08492187 0.77132812 6.93359375 0.87890625 C7.61550781 0.91886719 8.29742187 0.95882812 9 1 C9.33 0.67 9.66 0.34 10 0 C11.99958364 -0.04080783 14.00045254 -0.04254356 16 0 C16 0.99 16 1.98 16 3 C16.86625 2.690625 17.7325 2.38125 18.625 2.0625 C22.78640842 0.75242698 26.63632872 0 31 0 C31 0.66 31 1.32 31 2 C31.99 1.67 32.98 1.34 34 1 C34 1.66 34 2.32 34 3 C34.66 3 35.32 3 36 3 C36.33 2.01 36.66 1.02 37 0 C37.495 0.99 37.495 0.99 38 2 C37.67 2.66 37.34 3.32 37 4 C36.30132812 3.9278125 35.60265625 3.855625 34.8828125 3.78125 C33.97273438 3.6884375 33.06265625 3.595625 32.125 3.5 C31.22007813 3.4071875 30.31515625 3.314375 29.3828125 3.21875 C26.12516831 2.91968758 23.12566208 3.16659876 19.875 3.5 C18.96492188 3.5928125 18.05484375 3.685625 17.1171875 3.78125 C16.06917969 3.88953125 16.06917969 3.88953125 15 4 C15 3.01 15 2.02 15 1 C14.32453125 1.22816406 13.6490625 1.45632812 12.953125 1.69140625 C11.61507812 2.12259766 11.61507812 2.12259766 10.25 2.5625 C9.36828125 2.85253906 8.4865625 3.14257812 7.578125 3.44140625 C4.86900362 4.02838255 3.61067445 3.67517443 1 3 C-1.27144074 4.85432087 -1.27144074 4.85432087 -3 7 C-1.125 2.25 -1.125 2.25 0 0 Z " fill="#FFFFFF" transform="translate(92,76)"/>
<path d="M0 0 C0 0.66 0 1.32 0 2 C1.953125 1.47916667 3.90625 0.95833333 5.859375 0.4375 C8 0 8 0 12 0 C12 0.66 12 1.32 12 2 C12.86512207 1.83250244 13.73024414 1.66500488 14.62158203 1.49243164 C17.88030622 1.01744633 20.77171086 0.96879071 24.0546875 1.12109375 C25.16328125 1.16943359 26.271875 1.21777344 27.4140625 1.26757812 C29.12722656 1.35168945 29.12722656 1.35168945 30.875 1.4375 C32.62296875 1.51581055 32.62296875 1.51581055 34.40625 1.59570312 C37.27113925 1.72485797 40.13563347 1.85980182 43 2 C43 2.33 43 2.66 43 3 C32.44 3 21.88 3 11 3 C11 2.34 11 1.68 11 1 C10.319375 1.33 9.63875 1.66 8.9375 2 C5.49159762 3.17307315 2.61602578 3.14180493 -1 3 C-1 2.34 -1 1.68 -1 1 C-2.65 2.32 -4.3 3.64 -6 5 C-6.66 4.67 -7.32 4.34 -8 4 C-4.5 0 -4.5 0 0 0 Z " fill="#FFFFFF" transform="translate(54,161)"/>
<path d="M0 0 C0.33 0.66 0.66 1.32 1 2 C1.99 1.34 2.98 0.68 4 0 C5.32 0 6.64 0 8 0 C8 0.99 8 1.98 8 3 C10.31 2.01 12.62 1.02 15 0 C15 0.66 15 1.32 15 2 C18.465 1.505 18.465 1.505 22 1 C16.79846223 3.78653809 12.87230773 4 7 4 C7 3.01 7 2.02 7 1 C6.236875 1.495 5.47375 1.99 4.6875 2.5 C2 4 2 4 -1 4 C-1 3.01 -1 2.02 -1 1 C-2.60875 1.7425 -2.60875 1.7425 -4.25 2.5 C-7.25416808 3.88653911 -8.45934895 4 -12 4 C-12 3.34 -12 2.68 -12 2 C-13.98 2.33 -15.96 2.66 -18 3 C-16 1 -16 1 -13.375 0.875 C-12.59125 0.91625 -11.8075 0.9575 -11 1 C-11 1.66 -11 2.32 -11 3 C-9.9275 2.505 -8.855 2.01 -7.75 1.5 C-4.74583192 0.11346089 -3.54065105 0 0 0 Z " fill="#FFFFFF" transform="translate(47,220)"/>
<path d="M0 0 C0 1.32 0 2.64 0 4 C0.66644531 3.68804687 1.33289063 3.37609375 2.01953125 3.0546875 C8.51687619 0.31035439 12.75044985 -0.30363561 19.58984375 1.51953125 C22.13245089 2.02640431 23.57309364 1.82773836 26 1 C24.78515625 2.515625 24.78515625 2.515625 23 4 C20.80859375 4.109375 20.80859375 4.109375 18.4375 3.75 C17.65246094 3.64171875 16.86742188 3.5334375 16.05859375 3.421875 C14 3 14 3 12 2 C10.29120025 2.75581528 8.58343956 3.51432033 6.88671875 4.296875 C4.2239659 5.28920526 1.80514151 5.20525426 -1 5 C-1 3.68 -1 2.36 -1 1 C-3.97 2.32 -6.94 3.64 -10 5 C-10 4.34 -10 3.68 -10 3 C-6.58168085 0.4606772 -4.24223102 -0.3636198 0 0 Z " fill="#FFFFFF" transform="translate(40,11)"/>
<path d="M0 0 C0.33 0.99 0.66 1.98 1 3 C1.7425 2.649375 2.485 2.29875 3.25 1.9375 C6.1322726 0.95490707 7.21176345 0.9673198 10 2 C6.49223216 3.60355101 3.85645121 4.22036864 0 4 C0 3.34 0 2.68 0 2 C-0.825 2.495 -1.65 2.99 -2.5 3.5 C-6.83557988 5.35810566 -9.32224514 5.38342253 -14 5 C-14.99 4.34 -15.98 3.68 -17 3 C-20.1628485 3.80404463 -20.1628485 3.80404463 -23 5 C-21.23043542 2.85789551 -20.12424348 2.03939427 -17.4375 1.1875 C-16.633125 1.125625 -15.82875 1.06375 -15 1 C-14.34 1.66 -13.68 2.32 -13 3 C-10.91630404 3.09827516 -10.91630404 3.09827516 -8.625 2.75 C-7.46871094 2.61851563 -7.46871094 2.61851563 -6.2890625 2.484375 C-3.9213207 1.98335114 -2.10648302 1.17347456 0 0 Z " fill="#FFFFFF" transform="translate(55,108)"/>
<path d="M0 0 C0.99 0 1.98 0 3 0 C3 0.99 3 1.98 3 3 C3.99 2.67 4.98 2.34 6 2 C8.51573117 1.9706008 11.01346052 2.06536427 13.52734375 2.16015625 C16.20408411 1.98678128 17.6621775 1.24456104 20 0 C20.99 0 21.98 0 23 0 C23 0.66 23 1.32 23 2 C24.98 1.67 26.96 1.34 29 1 C29 1.66 29 2.32 29 3 C25.66666667 3 22.33333333 3 19 3 C18.175 3.165 17.35 3.33 16.5 3.5 C11.66009453 4.19141507 6.88035336 4.07815512 2 4 C1.67 3.34 1.34 2.68 1 2 C-0.98 2.99 -0.98 2.99 -3 4 C-1.6875 2 -1.6875 2 0 0 Z " fill="#FFFFFF" transform="translate(215,178)"/>
<path d="M0 0 C-1.6029053 0.81498562 -3.20737278 1.62689927 -4.8125 2.4375 C-5.70582031 2.88996094 -6.59914063 3.34242188 -7.51953125 3.80859375 C-10 5 -10 5 -13 6 C-12.48308594 6.77085937 -11.96617188 7.54171875 -11.43359375 8.3359375 C-10.77488281 9.33882812 -10.11617187 10.34171875 -9.4375 11.375 C-8.44556641 12.87160156 -8.44556641 12.87160156 -7.43359375 14.3984375 C-6.96050781 15.25695312 -6.48742188 16.11546875 -6 17 C-6.33 17.66 -6.66 18.32 -7 19 C-8.34171264 17.06829319 -9.67312883 15.12943124 -11 13.1875 C-11.7425 12.10855469 -12.485 11.02960938 -13.25 9.91796875 C-15 7 -15 7 -15 4 C-12.87875034 3.13656176 -10.75286928 2.28449352 -8.625 1.4375 C-6.84996094 0.72400391 -6.84996094 0.72400391 -5.0390625 -0.00390625 C-2 -1 -2 -1 0 0 Z " fill="#FFFFFF" transform="translate(47,197)"/>
<path d="M0 0 C0.33 0 0.66 0 1 0 C1.33 1.98 1.66 3.96 2 6 C8.93 6 15.86 6 23 6 C19.84685215 8.10209857 19.13896919 8.2434761 15.55078125 8.1953125 C14.27944336 8.18564453 14.27944336 8.18564453 12.98242188 8.17578125 C12.10134766 8.15902344 11.22027344 8.14226563 10.3125 8.125 C9.41982422 8.11597656 8.52714844 8.10695313 7.60742188 8.09765625 C5.40467686 8.07409748 3.20247412 8.04120329 1 8 C0.34 6.68 -0.32 5.36 -1 4 C-2.98 4.99 -2.98 4.99 -5 6 C-3.35830472 3.97945196 -1.69088222 1.97956942 0 0 Z " fill="#FFFFFF" transform="translate(67,32)"/>
<path d="M0 0 C5.66292497 1.15569897 10.64551949 0.7581023 16.328125 0.05859375 C19 0 19 0 22 2 C20.68 2.33 19.36 2.66 18 3 C18 2.34 18 1.68 18 1 C16.865625 1.33 15.73125 1.66 14.5625 2 C8.16489066 3.58805906 2.02061594 4.01030797 -4 1 C-4.99 0.67 -5.98 0.34 -7 0 C-4.27570107 -1.36214947 -2.96127872 -0.65806194 0 0 Z " fill="#FFFFFF" transform="translate(72,108)"/>
<path d="M0 0 C0.79857422 1.01513672 0.79857422 1.01513672 1.61328125 2.05078125 C3.8634336 4.32217962 3.8634336 4.32217962 6.91796875 3.91796875 C7.99691406 3.67691406 9.07585937 3.43585937 10.1875 3.1875 C15.88698494 2.08748654 20.29788397 2.03353966 26 3 C26 3.33 26 3.66 26 4 C24.77023438 4.06058594 23.54046875 4.12117187 22.2734375 4.18359375 C20.64061573 4.26805005 19.00780373 4.35269547 17.375 4.4375 C16.56675781 4.47681641 15.75851563 4.51613281 14.92578125 4.55664062 C10.54849135 4.78796082 6.31452719 5.16920917 2 6 C1.566875 5.0409375 1.566875 5.0409375 1.125 4.0625 C0.17176549 1.84793921 0.17176549 1.84793921 -2 1 C-1.34 0.67 -0.68 0.34 0 0 Z " fill="#FFFFFF" transform="translate(78,10)"/>
<path d="M0 0 C2.375 0.3125 2.375 0.3125 5 1 C5.66 1.99 6.32 2.98 7 4 C3.04 8.62 -0.92 13.24 -5 18 C-5.66 17.67 -6.32 17.34 -7 17 C-6.28972656 16.24074219 -5.57945313 15.48148438 -4.84765625 14.69921875 C-3.91902166 13.69554298 -2.99064991 12.69162399 -2.0625 11.6875 C-1.59392578 11.18798828 -1.12535156 10.68847656 -0.64257812 10.17382812 C1.55697103 7.78438984 2.96026813 6.11919562 4 3 C2.68 2.01 1.36 1.02 0 0 Z " fill="#FFFFFF" transform="translate(102,157)"/>
<path d="M0 0 C2.46800047 1.15173355 4.04783565 2.04783565 6 4 C5.9921875 5.85546875 5.9921875 5.85546875 5 8 C2.3828125 10.17578125 2.3828125 10.17578125 -0.875 12.3125 C-2.47988281 13.38951172 -2.47988281 13.38951172 -4.1171875 14.48828125 C-5.54417969 15.23658203 -5.54417969 15.23658203 -7 16 C-7.99 15.67 -8.98 15.34 -10 15 C-9.24074219 14.52949219 -8.48148437 14.05898438 -7.69921875 13.57421875 C-6.20841797 12.64029297 -6.20841797 12.64029297 -4.6875 11.6875 C-3.70136719 11.07261719 -2.71523437 10.45773438 -1.69921875 9.82421875 C0.50172035 8.33675339 2.23328988 6.9596614 4 5 C2.68 3.35 1.36 1.7 0 0 Z " fill="#FFFFFF" transform="translate(118,9)"/>
<path d="M0 0 C0.8353125 0.2784375 0.8353125 0.2784375 1.6875 0.5625 C4.44113971 1.08345886 6.26289575 0.57288229 9 0 C15.496 -0.336 15.496 -0.336 19 2 C16.6569392 2.78102027 15.24734447 3.05653588 12.8125 2.5 C9.39990232 1.89331597 6.5000606 2.28582801 3.0859375 2.74609375 C1 3 1 3 -2 3 C-1.34 2.01 -0.68 1.02 0 0 Z " fill="#FFFFFF" transform="translate(59,79)"/>
<path d="M0 0 C6.43681228 0.51085812 11.95942424 1.72942897 18 4 C15.28672425 6.84364336 12.30410823 8.87068581 9 11 C10.36983503 7.83884224 10.9890638 7.0072908 14 5 C9.38 3.68 4.76 2.36 0 1 C0 0.67 0 0.34 0 0 Z " fill="#FFFFFF" transform="translate(171,72)"/>
<path d="M0 0 C0.66 0.33 1.32 0.66 2 1 C1.67 1.99 1.34 2.98 1 4 C1.38932856 6.14255793 1.38932856 6.14255793 2 8 C0.23358317 8.6987693 -1.53832664 9.38366583 -3.3125 10.0625 C-4.29863281 10.44535156 -5.28476563 10.82820312 -6.30078125 11.22265625 C-9 12 -9 12 -12 11 C-8.04 9.35 -4.08 7.7 0 6 C-1.32 4.35 -2.64 2.7 -4 1 C-2.68 1.33 -1.36 1.66 0 2 C0 1.34 0 0.68 0 0 Z " fill="#FFFFFF" transform="translate(78,217)"/>
<path d="M0 0 C0 0.66 0 1.32 0 2 C1.65 2 3.3 2 5 2 C5 2.33 5 2.66 5 3 C3.865625 2.938125 2.73125 2.87625 1.5625 2.8125 C-2.6569289 2.79009595 -5.95759804 3.89236301 -9.88671875 5.32421875 C-12.69258333 6.22147304 -15.08405951 6.3556025 -18 6 C-18.66 5.34 -19.32 4.68 -20 4 C-19.071875 4.0825 -18.14375 4.165 -17.1875 4.25 C-12.54389843 4.28806231 -8.61824764 2.56835217 -4.35546875 0.875 C-2 0 -2 0 0 0 Z " fill="#FFFFFF" transform="translate(152,182)"/>
<path d="M0 0 C0.33 0.66 0.66 1.32 1 2 C0.45730469 2.45890625 -0.08539063 2.9178125 -0.64453125 3.390625 C-1.35996094 4.00421875 -2.07539063 4.6178125 -2.8125 5.25 C-3.52019531 5.85328125 -4.22789063 6.4565625 -4.95703125 7.078125 C-6.91889671 8.92370398 -8.45669625 10.79945332 -10 13 C-9.01 13.66 -8.02 14.32 -7 15 C-7.33 15.66 -7.66 16.32 -8 17 C-9.32 16.34 -10.64 15.68 -12 15 C-11.58682778 10.17965738 -9.61980085 8.09007389 -6 5 C-5.34 5 -4.68 5 -4 5 C-3.71125 4.360625 -3.4225 3.72125 -3.125 3.0625 C-2 1 -2 1 0 0 Z " fill="#FFFFFF" transform="translate(23,101)"/>
<path d="M0 0 C0.928125 0.20625 1.85625 0.4125 2.8125 0.625 C2.4825 1.285 2.1525 1.945 1.8125 2.625 C1.235 2.398125 0.6575 2.17125 0.0625 1.9375 C-2.29191765 1.35087784 -2.29191765 1.35087784 -4.25 3.0625 C-4.889375 3.578125 -5.52875 4.09375 -6.1875 4.625 C-7.1775 4.625 -8.1675 4.625 -9.1875 4.625 C-9.1875 3.965 -9.1875 3.305 -9.1875 2.625 C-12.1575 2.625 -15.1275 2.625 -18.1875 2.625 C-18.1875 1.965 -18.1875 1.305 -18.1875 0.625 C-17.48882812 0.6971875 -16.79015625 0.769375 -16.0703125 0.84375 C-15.16023438 0.9365625 -14.25015625 1.029375 -13.3125 1.125 C-12.40757813 1.2178125 -11.50265625 1.310625 -10.5703125 1.40625 C-6.1879757 1.80856289 -4.22502169 -0.49706138 0 0 Z " fill="#FFFFFF" transform="translate(89.1875,186.375)"/>
<path d="M0 0 C3.73487777 0.4979837 5.81237635 0.87491756 9 3 C7.00365016 7.32542465 4.89756057 11.84037965 0.75 14.375 C0.1725 14.58125 -0.405 14.7875 -1 15 C-0.67 14.01 -0.34 13.02 0 12 C0.66 12 1.32 12 2 12 C2.268125 11.2575 2.53625 10.515 2.8125 9.75 C3.94229421 7.13363446 5.20893202 5.19812889 7 3 C4.69 2.34 2.38 1.68 0 1 C0 0.67 0 0.34 0 0 Z " fill="#FFFFFF" transform="translate(78,74)"/>
<path d="M0 0 C-2.475 1.485 -2.475 1.485 -5 3 C0.94 5.475 0.94 5.475 7 8 C5 9 5 9 1.7421875 8.00390625 C0.4502948 7.53110016 -0.83868638 7.05028031 -2.125 6.5625 C-2.78371094 6.31951172 -3.44242188 6.07652344 -4.12109375 5.82617188 C-5.74991338 5.22421679 -7.37529575 4.61297588 -9 4 C-6.3515138 0.02727069 -4.69305063 -1.56435021 0 0 Z " fill="#FFFFFF" transform="translate(39,37)"/>
<path d="M0 0 C3.14737182 0.69941596 6.02588876 1.76078698 9 3 C8.36610765 6.49844386 6.94822306 8.84086876 4.9375 11.75 C4.38964844 12.54921875 3.84179688 13.3484375 3.27734375 14.171875 C2.85582031 14.77515625 2.43429688 15.3784375 2 16 C1.67 15.34 1.34 14.68 1 14 C2.98 11.03 4.96 8.06 7 5 C3.535 3.02 3.535 3.02 0 1 C0 0.67 0 0.34 0 0 Z " fill="#FFFFFF" transform="translate(79,201)"/>
<path d="M0 0 C0.66 0.33 1.32 0.66 2 1 C-1.96 3.97 -5.92 6.94 -10 10 C-9.67 10.99 -9.34 11.98 -9 13 C-10.32 12.67 -11.64 12.34 -13 12 C-11.47236536 7.91403748 -8.88915809 6.20173821 -5.375 3.75 C-4.37210938 3.04359375 -3.36921875 2.3371875 -2.3359375 1.609375 C-1.56507812 1.07828125 -0.79421875 0.5471875 0 0 Z " fill="#FFFFFF" transform="translate(44,156)"/>
<path d="M0 0 C0.33 0.66 0.66 1.32 1 2 C0.01 2.99 -0.98 3.98 -2 5 C0.64 6.98 3.28 8.96 6 11 C5.01 11.495 5.01 11.495 4 12 C3.52949219 11.65066406 3.05898437 11.30132812 2.57421875 10.94140625 C1.95160156 10.48636719 1.32898438 10.03132813 0.6875 9.5625 C0.07261719 9.11003906 -0.54226562 8.65757813 -1.17578125 8.19140625 C-3.09677101 6.82663692 -3.09677101 6.82663692 -6 6 C-4.75453595 2.26360784 -3.36595047 1.81243487 0 0 Z " fill="#FFFFFF" transform="translate(138,75)"/>
<path d="M0 0 C15.74487472 0.96355353 15.74487472 0.96355353 23 2 C23 2.66 23 3.32 23 4 C19.91535226 3.72128836 16.83266721 3.4247659 13.75 3.125 C12.44095703 3.00705078 12.44095703 3.00705078 11.10546875 2.88671875 C10.26113281 2.80292969 9.41679688 2.71914062 8.546875 2.6328125 C7.77182617 2.55949707 6.99677734 2.48618164 6.19824219 2.41064453 C3.84158115 1.97040643 2.08343123 1.16622346 0 0 Z " fill="#FFFFFF" transform="translate(50,205)"/>
<path d="M0 0 C-2.32853762 1.01240766 -4.66242414 2.00880176 -7 3 C-8.28003906 3.556875 -8.28003906 3.556875 -9.5859375 4.125 C-10.46507812 4.49625 -11.34421875 4.8675 -12.25 5.25 C-13.08015625 5.60578125 -13.9103125 5.9615625 -14.765625 6.328125 C-17 7 -17 7 -20 6 C-18.12616097 5.20558928 -16.25087114 4.41460026 -14.375 3.625 C-12.80878906 2.96371094 -12.80878906 2.96371094 -11.2109375 2.2890625 C-2.4534413 -1.22672065 -2.4534413 -1.22672065 0 0 Z " fill="#FFFFFF" transform="translate(71,179)"/>
<path d="M0 0 C2.33333333 2.33333333 4.66666667 4.66666667 7 7 C7 7.99 7 8.98 7 10 C4.625 11.75 4.625 11.75 2 13 C1.34 12.67 0.68 12.34 0 12 C1.65 10.68 3.3 9.36 5 8 C4.175 7.05125 3.35 6.1025 2.5 5.125 C0 2.25 0 2.25 0 0 Z " fill="#FFFFFF" transform="translate(100,180)"/>
<path d="M0 0 C0.66 0.33 1.32 0.66 2 1 C0.02 1.99 0.02 1.99 -2 3 C-1.69964844 3.54269531 -1.39929688 4.08539063 -1.08984375 4.64453125 C-0.70957031 5.35996094 -0.32929688 6.07539063 0.0625 6.8125 C0.63677734 7.87404297 0.63677734 7.87404297 1.22265625 8.95703125 C2 11 2 11 1 14 C0.13353333 12.56988027 -0.71781829 11.13059381 -1.5625 9.6875 C-2.03816406 8.88699219 -2.51382812 8.08648437 -3.00390625 7.26171875 C-4 5 -4 5 -3 2 C-2.01 1.34 -1.02 0.68 0 0 Z " fill="#FFFFFF" transform="translate(11,215)"/>
<path d="M0 0 C-0.61488281 0.15855469 -1.22976562 0.31710938 -1.86328125 0.48046875 C-7.18349762 1.93946287 -7.18349762 1.93946287 -11.0625 5.6875 C-11.5265625 6.8321875 -11.5265625 6.8321875 -12 8 C-12.66 7.67 -13.32 7.34 -14 7 C-10.07184241 0.34298957 -10.07184241 0.34298957 -5.875 -1 C-3 -1 -3 -1 0 0 Z " fill="#FFFFFF" transform="translate(67,60)"/>
<path d="M0 0 C0.33 0.66 0.66 1.32 1 2 C-0.65 2.33 -2.3 2.66 -4 3 C-3.34 4.32 -2.68 5.64 -2 7 C-4.64 6.34 -7.28 5.68 -10 5 C-9.01 4.67 -8.02 4.34 -7 4 C-6.67 3.34 -6.34 2.68 -6 2 C-4.02111039 1.27306096 -2.02045442 0.60183749 0 0 Z " fill="#FFFFFF" transform="translate(199,172)"/>
<path d="M0 0 C0.66 0.33 1.32 0.66 2 1 C0.54550599 2.0055761 -0.91372443 3.00430435 -2.375 4 C-3.59316406 4.8353125 -3.59316406 4.8353125 -4.8359375 5.6875 C-7 7 -7 7 -9 7 C-9 7.66 -9 8.32 -9 9 C-9.66 9 -10.32 9 -11 9 C-9.73948004 5.21844011 -8.43553394 4.74381633 -5.0625 2.75 C-4.16660156 2.20859375 -3.27070313 1.6671875 -2.34765625 1.109375 C-1.57292969 0.74328125 -0.79820313 0.3771875 0 0 Z " fill="#FFFFFF" transform="translate(17,134)"/>
<path d="M0 0 C0 0.99 0 1.98 0 3 C-1.98689731 4.35278115 -3.98745218 5.68568305 -6 7 C-6.33 7.99 -6.66 8.98 -7 10 C-7.99 10 -8.98 10 -10 10 C-8.07285135 5.09453071 -4.25585809 2.83723873 0 0 Z " fill="#FFFFFF" transform="translate(47,53)"/>
<path d="M0 0 C0 0.66 0 1.32 0 2 C0.99 2.33 1.98 2.66 3 3 C-1.62 3.33 -6.24 3.66 -11 4 C-11.33 3.34 -11.66 2.68 -12 2 C-10.72125 1.855625 -9.4425 1.71125 -8.125 1.5625 C-5.27266955 1.24046269 -2.76715099 0 0 0 Z " fill="#FFFFFF" transform="translate(40,138)"/>
<path d="M0 0 C0.66 0.33 1.32 0.66 2 1 C1.34 2.32 0.68 3.64 0 5 C0.515625 5.598125 1.03125 6.19625 1.5625 6.8125 C2.036875 7.534375 2.51125 8.25625 3 9 C2.67 9.99 2.34 10.98 2 12 C-2 6.5 -2 6.5 -2 2 C-1.34 1.34 -0.68 0.68 0 0 Z " fill="#FFFFFF" transform="translate(49,77)"/>
<path d="M0 0 C0 0.99 0 1.98 0 3 C2.64 2.67 5.28 2.34 8 2 C4.54970958 4.30019361 3.05445642 4.43132515 -1 4 C-1.66 3.01 -2.32 2.02 -3 1 C-3.99 0.67 -4.98 0.34 -6 0 C-3.50907189 -1.24546405 -2.58919267 -0.7767578 0 0 Z " fill="#FFFFFF" transform="translate(120,186)"/>
<path d="M0 0 C4.00609065 0.57229866 6.56149315 1.93689589 10 4 C12.69254991 4.70670728 12.69254991 4.70670728 15 5 C15 5.33 15 5.66 15 6 C8.89357521 6.78287497 4.99540421 4.10825151 0 1 C0 0.67 0 0.34 0 0 Z " fill="#FFFFFF" transform="translate(8,143)"/>
<path d="M0 0 C0 3.67034745 -1.0752892 5.0999431 -3 8.1875 C-3.556875 9.08855469 -4.11375 9.98960938 -4.6875 10.91796875 C-5.120625 11.60503906 -5.55375 12.29210937 -6 13 C-6.33 12.01 -6.66 11.02 -7 10 C-5.8203125 7.7734375 -5.8203125 7.7734375 -4.125 5.375 C-3.57070313 4.57835938 -3.01640625 3.78171875 -2.4453125 2.9609375 C-1 1 -1 1 0 0 Z " fill="#FFFFFF" transform="translate(30,105)"/>
<path d="M0 0 C3.3 0.99 6.6 1.98 10 3 C8 7 8 7 6 8 C6 6.68 6 5.36 6 4 C4.02 3.34 2.04 2.68 0 2 C0 1.34 0 0.68 0 0 Z " fill="#FFFFFF" transform="translate(144,50)"/>
<path d="M0 0 C1.6256807 0.30893932 3.25052748 0.6222695 4.875 0.9375 C5.77992188 1.11152344 6.68484375 1.28554688 7.6171875 1.46484375 C10 2 10 2 12 3 C12 3.99 12 4.98 12 6 C11.01 6.33 10.02 6.66 9 7 C9 6.01 9 5.02 9 4 C6.03 3.01 3.06 2.02 0 1 C0 0.67 0 0.34 0 0 Z " fill="#FFFFFF" transform="translate(148,27)"/>
<path d="M0 0 C-0.33 0.99 -0.66 1.98 -1 3 C-4.33333333 3 -7.66666667 3 -11 3 C-10.67 2.34 -10.34 1.68 -10 1 C-6.6322481 0.06451336 -3.4815554 -0.09947301 0 0 Z " fill="#FFFFFF" transform="translate(174,78)"/>
<path d="M0 0 C0 3.60573896 -0.81707462 4.41336566 -3 7.1875 C-3.556875 7.90292969 -4.11375 8.61835937 -4.6875 9.35546875 C-5.120625 9.89816406 -5.55375 10.44085938 -6 11 C-6.66 10.67 -7.32 10.34 -8 10 C-5.33333333 6.66666667 -2.66666667 3.33333333 0 0 Z " fill="#FFFFFF" transform="translate(154,75)"/>
<path d="M0 0 C1.65 0 3.3 0 5 0 C5.33 0.99 5.66 1.98 6 3 C7.49985609 4.66710346 7.49985609 4.66710346 9 6 C5.9168649 4.80100302 2.93720508 3.52299523 0 2 C0 1.34 0 0.68 0 0 Z " fill="#FFFFFF" transform="translate(46,186)"/>
<path d="M0 0 C-1.32 0.99 -2.64 1.98 -4 3 C-3.34 3.66 -2.68 4.32 -2 5 C-4.97 4.505 -4.97 4.505 -8 4 C-7 1 -7 1 -5.125 -0.25 C-3 -1 -3 -1 0 0 Z " fill="#FFFFFF" transform="translate(20,14)"/>
<path d="M0 0 C2.475 0.495 2.475 0.495 5 1 C5.6875 2.8125 5.6875 2.8125 6 5 C4.5625 6.75 4.5625 6.75 3 8 C2.34 7.67 1.68 7.34 1 7 C1.99 5.68 2.98 4.36 4 3 C2.68 2.01 1.36 1.02 0 0 Z " fill="#FFFFFF" transform="translate(108,106)"/>
<path d="M0 0 C0.66 0.33 1.32 0.66 2 1 C-0.31 3.64 -2.62 6.28 -5 9 C-5 4.61031544 -2.87194899 3.23094261 0 0 Z " fill="#FFFFFF" transform="translate(46,202)"/>
<path d="M0 0 C0.66 0.33 1.32 0.66 2 1 C-0.31 3.31 -2.62 5.62 -5 8 C-5 5 -5 5 -2.5 2.3125 C-1.675 1.549375 -0.85 0.78625 0 0 Z " fill="#FFFFFF" transform="translate(107,114)"/>
<path d="M0 0 C0.66 0.33 1.32 0.66 2 1 C-2.455 3.97 -2.455 3.97 -7 7 C-4.92675939 2.85351878 -4.03205902 1.91522803 0 0 Z " fill="#FFFFFF" transform="translate(152,37)"/>
<path d="M0 0 C0.66 0.33 1.32 0.66 2 1 C-0.75 3.0625 -0.75 3.0625 -4 5 C-6.203125 4.62109375 -6.203125 4.62109375 -8 4 C-6.71349294 3.30289269 -5.42059335 2.61757124 -4.125 1.9375 C-3.40570313 1.55464844 -2.68640625 1.17179688 -1.9453125 0.77734375 C-1.30335937 0.52082031 -0.66140625 0.26429688 0 0 Z " fill="#FFFFFF" transform="translate(98,193)"/>
<path d="M0 0 C1.98 0.66 3.96 1.32 6 2 C5.34 3.65 4.68 5.3 4 7 C3.71125 6.401875 3.4225 5.80375 3.125 5.1875 C1.95257974 2.80672208 1.95257974 2.80672208 0 0 Z " fill="#FFFFFF" transform="translate(197,179)"/>
<path d="M0 0 C1.32 0.66 2.64 1.32 4 2 C3.34 3.32 2.68 4.64 2 6 C1.01 6 0.02 6 -1 6 C-0.649375 5.38125 -0.29875 4.7625 0.0625 4.125 C0.371875 3.42375 0.68125 2.7225 1 2 C0.67 1.34 0.34 0.68 0 0 Z " fill="#FFFFFF" transform="translate(257,176)"/>
<path d="M0 0 C0.66 0 1.32 0 2 0 C2 0.66 2 1.32 2 2 C2.5775 1.649375 3.155 1.29875 3.75 0.9375 C6.35801776 -0.14917407 7.39417629 0.06934867 10 1 C6.62902617 2.49821059 4.79557881 3 1 3 C0.67 2.01 0.34 1.02 0 0 Z " fill="#FFFFFF" transform="translate(47,137)"/>
<path d="M0 0 C0 0.99 0 1.98 0 3 C-2.5 5.1875 -2.5 5.1875 -5 7 C-5.66 6.67 -6.32 6.34 -7 6 C-4.69 4.02 -2.38 2.04 0 0 Z " fill="#FFFFFF" transform="translate(149,58)"/>
<path d="M0 0 C1.31554985 0.4495045 2.62738358 0.90989716 3.9375 1.375 C5.03384766 1.75785156 5.03384766 1.75785156 6.15234375 2.1484375 C8 3 8 3 9 5 C6.03 4.01 3.06 3.02 0 2 C0 1.34 0 0.68 0 0 Z " fill="#FFFFFF" transform="translate(59,131)"/>
<path d="M0 0 C0.66 0 1.32 0 2 0 C2.33 1.32 2.66 2.64 3 4 C1.68 4 0.36 4 -1 4 C-1.99 4.495 -1.99 4.495 -3 5 C-1.125 1.125 -1.125 1.125 0 0 Z " fill="#FFFFFF" transform="translate(160,78)"/>
<path d="M0 0 C0.66 0.33 1.32 0.66 2 1 C-0.97 3.475 -0.97 3.475 -4 6 C-4.66 5.67 -5.32 5.34 -6 5 C-4.02 3.35 -2.04 1.7 0 0 Z " fill="#FFFFFF" transform="translate(26,7)"/>
<path d="M0 0 C1.31554985 0.4495045 2.62738358 0.90989716 3.9375 1.375 C5.03384766 1.75785156 5.03384766 1.75785156 6.15234375 2.1484375 C8 3 8 3 9 5 C6.03 4.01 3.06 3.02 0 2 C0 1.34 0 0.68 0 0 Z " fill="#FFFFFF" transform="translate(109,4)"/>
<path d="M0 0 C0.66 0.33 1.32 0.66 2 1 C0.68 2.65 -0.64 4.3 -2 6 C-2.99 5.67 -3.98 5.34 -5 5 C-3.35 3.35 -1.7 1.7 0 0 Z " fill="#FFFFFF" transform="translate(60,144)"/>
<path d="M0 0 C4.46840411 0.49648935 5.68987756 0.68987756 9 4 C6.03 3.01 3.06 2.02 0 1 C0 0.67 0 0.34 0 0 Z " fill="#FFFFFF" transform="translate(43,64)"/>
<path d="M0 0 C0 0.66 0 1.32 0 2 C1.32 2.33 2.64 2.66 4 3 C0.37471432 3.20140476 -1.86501708 2.85776765 -5 1 C-3 0 -3 0 0 0 Z " fill="#FFFFFF" transform="translate(72,57)"/>
<path d="M0 0 C0.66 0.33 1.32 0.66 2 1 C-0.97 3.475 -0.97 3.475 -4 6 C-2.84826645 3.53199953 -1.95216435 1.95216435 0 0 Z " fill="#FFFFFF" transform="translate(20,221)"/>
<path d="M0 0 C0.66 0.33 1.32 0.66 2 1 C0.35 2.32 -1.3 3.64 -3 5 C-3.66 4.67 -4.32 4.34 -5 4 C-3.35 2.68 -1.7 1.36 0 0 Z " fill="#FFFFFF" transform="translate(19,209)"/>
<path d="M0 0 C0.33 0.66 0.66 1.32 1 2 C-1.375 3.5625 -1.375 3.5625 -4 5 C-4.66 4.67 -5.32 4.34 -6 4 C-4.02 2.68 -2.04 1.36 0 0 Z " fill="#FFFFFF" transform="translate(179,83)"/>
<path d="M0 0 C0.99 0.33 1.98 0.66 3 1 C1.03533587 2.06775224 -0.96855359 3.06553465 -3 4 C-3.66 3.67 -4.32 3.34 -5 3 C-2.6875 1.4375 -2.6875 1.4375 0 0 Z " fill="#FFFFFF" transform="translate(144,71)"/>
<path d="M0 0 C0.66 0 1.32 0 2 0 C2 0.99 2 1.98 2 3 C3.65 2.67 5.3 2.34 7 2 C6.67 2.66 6.34 3.32 6 4 C4.35 4 2.7 4 1 4 C0.67 2.68 0.34 1.36 0 0 Z " fill="#FFFFFF" transform="translate(52,39)"/>
<path d="M0 0 C5.75 0.875 5.75 0.875 8 2 C7.67 2.66 7.34 3.32 7 4 C4.69 3.01 2.38 2.02 0 1 C0 0.67 0 0.34 0 0 Z " fill="#FFFFFF" transform="translate(18,19)"/>
<path d="M0 0 C5.75 0.75 5.75 0.75 8 3 C2.25 2.25 2.25 2.25 0 0 Z " fill="#FFFFFF" transform="translate(94,154)"/>
<path d="M0 0 C5.75 0.75 5.75 0.75 8 3 C2.25 2.25 2.25 2.25 0 0 Z " fill="#FFFFFF" transform="translate(100,103)"/>
<path d="M0 0 C0 0.99 0 1.98 0 3 C-1.98 3.99 -1.98 3.99 -4 5 C-2.68 3.35 -1.36 1.7 0 0 Z " fill="#FFFFFF" transform="translate(26,216)"/>
<path d="M0 0 C1.65 0.99 3.3 1.98 5 3 C4.67 3.66 4.34 4.32 4 5 C2 3.625 2 3.625 0 2 C0 1.34 0 0.68 0 0 Z " fill="#FFFFFF" transform="translate(17,119)"/>
<path d="M0 0 C2.31 0.33 4.62 0.66 7 1 C4 2 4 2 1.8125 1.0625 C1.214375 0.711875 0.61625 0.36125 0 0 Z " fill="#FFFFFF" transform="translate(72,199)"/>
<path d="M0 0 C0.66 0.33 1.32 0.66 2 1 C0.68 2.32 -0.64 3.64 -2 5 C-1.125 1.125 -1.125 1.125 0 0 Z " fill="#FFFFFF" transform="translate(244,194)"/>
<path d="M0 0 C1.98 0.66 3.96 1.32 6 2 C5.01 2.33 4.02 2.66 3 3 C2.01 2.01 1.02 1.02 0 0 Z " fill="#FFFFFF" transform="translate(55,192)"/>
<path d="M0 0 C0.66 0.33 1.32 0.66 2 1 C0.68 2.32 -0.64 3.64 -2 5 C-1.34 3.35 -0.68 1.7 0 0 Z " fill="#FFFFFF" transform="translate(112,187)"/>
<path d="M0 0 C0.66 0.33 1.32 0.66 2 1 C1.01 1.99 0.02 2.98 -1 4 C-1.66 3.67 -2.32 3.34 -3 3 C-2.01 2.01 -1.02 1.02 0 0 Z " fill="#FFFFFF" transform="translate(65,140)"/>
<path d="M0 0 C0 0.99 0 1.98 0 3 C-0.66 3.66 -1.32 4.32 -2 5 C-1.125 1.125 -1.125 1.125 0 0 Z " fill="#FFFFFF" transform="translate(198,187)"/>
<path d="M0 0 C2.475 0.495 2.475 0.495 5 1 C4.67 1.66 4.34 2.32 4 3 C2.68 2.01 1.36 1.02 0 0 Z " fill="#FFFFFF" transform="translate(37,170)"/>
<path d="M0 0 C2.475 0.99 2.475 0.99 5 2 C4.01 2.495 4.01 2.495 3 3 C2.01 2.01 1.02 1.02 0 0 Z " fill="#FFFFFF" transform="translate(235,163)"/>
<path d="M0 0 C0.66 0 1.32 0 2 0 C2 0.99 2 1.98 2 3 C1.01 3.33 0.02 3.66 -1 4 C-0.67 2.68 -0.34 1.36 0 0 Z " fill="#FFFFFF" transform="translate(68,136)"/>
<path d="M0 0 C0.99 0.33 1.98 0.66 3 1 C1.35 1.66 -0.3 2.32 -2 3 C-1.34 2.01 -0.68 1.02 0 0 Z " fill="#FFFFFF" transform="translate(53,74)"/>
<path d="M0 0 C2.125 0.375 2.125 0.375 4 1 C2.02 1.33 0.04 1.66 -2 2 C-1.34 1.34 -0.68 0.68 0 0 Z " fill="#FFFFFF" transform="translate(41,34)"/>
<path d="M0 0 C0 0.99 0 1.98 0 3 C-0.99 3.495 -0.99 3.495 -2 4 C-1.34 2.68 -0.68 1.36 0 0 Z " fill="#FFFFFF" transform="translate(255,183)"/>
<path d="M0 0 C0.66 0.33 1.32 0.66 2 1 C0.02 1.99 0.02 1.99 -2 3 C-1.34 2.01 -0.68 1.02 0 0 Z " fill="#FFFFFF" transform="translate(198,183)"/>
<path d="M0 0 C0.33 0.66 0.66 1.32 1 2 C-0.32 2.33 -1.64 2.66 -3 3 C-2.01 2.01 -1.02 1.02 0 0 Z " fill="#FFFFFF" transform="translate(22,131)"/>
<path d="M0 0 C0.66 0.33 1.32 0.66 2 1 C0.02 1.99 0.02 1.99 -2 3 C-1.34 2.01 -0.68 1.02 0 0 Z " fill="#FFFFFF" transform="translate(74,12)"/>
<path d="M0 0 C0.99 0.33 1.98 0.66 3 1 C1.68 1.33 0.36 1.66 -1 2 C-0.67 1.34 -0.34 0.68 0 0 Z " fill="#FFFFFF" transform="translate(47,206)"/>
<path d="M0 0 C0.66 0.33 1.32 0.66 2 1 C0.68 1.33 -0.64 1.66 -2 2 C-1.34 1.34 -0.68 0.68 0 0 Z " fill="#FFFFFF" transform="translate(184,193)"/>
<path d="M0 0 C0.66 0.33 1.32 0.66 2 1 C0.68 1.33 -0.64 1.66 -2 2 C-1.34 1.34 -0.68 0.68 0 0 Z " fill="#FFFFFF" transform="translate(209,183)"/>
<path d="M0 0 C0.66 0.33 1.32 0.66 2 1 C1.01 1.66 0.02 2.32 -1 3 C-0.67 2.01 -0.34 1.02 0 0 Z " fill="#FFFFFF" transform="translate(155,34)"/>
<path d="M0 0 C4 1 4 1 4 1 Z " fill="#FFFFFF" transform="translate(128,187)"/>
<path d="M0 0 C0 3 0 3 0 3 Z " fill="#FFFFFF" transform="translate(204,178)"/>
<path d="M0 0 C0.66 0.33 1.32 0.66 2 1 C1.01 1 0.02 1 -1 1 C-0.67 0.67 -0.34 0.34 0 0 Z " fill="#FFFFFF" transform="translate(187,177)"/>
<path d="M0 0 C0.99 0.33 1.98 0.66 3 1 C2.01 1 1.02 1 0 1 C0 0.67 0 0.34 0 0 Z " fill="#FFFFFF" transform="translate(254,174)"/>
<path d="M0 0 C0.99 0.33 1.98 0.66 3 1 C2.01 1 1.02 1 0 1 C0 0.67 0 0.34 0 0 Z " fill="#FFFFFF" transform="translate(251,172)"/>
<path d="M0 0 C0.66 0.66 1.32 1.32 2 2 C1.34 2 0.68 2 0 2 C0 1.34 0 0.68 0 0 Z " fill="#FFFFFF" transform="translate(61,195)"/>
<path d="M0 0 C0.33 0.66 0.66 1.32 1 2 C0.34 1.67 -0.32 1.34 -1 1 C-0.67 0.67 -0.34 0.34 0 0 Z " fill="#FFFFFF" transform="translate(250,189)"/>
<path d="M0 0 C0.33 0.66 0.66 1.32 1 2 C0.34 1.67 -0.32 1.34 -1 1 C-0.67 0.67 -0.34 0.34 0 0 Z " fill="#FFFFFF" transform="translate(185,179)"/>
<path d="M0 0 C3 1 3 1 3 1 Z " fill="#FFFFFF" transform="translate(40,63)"/>
<path d="M0 0 C0.99 0.495 0.99 0.495 2 1 C1.01 1.495 1.01 1.495 0 2 C0 1.34 0 0.68 0 0 Z " fill="#FFFFFF" transform="translate(59,39)"/>
<path d="M0 0 C2 1 2 1 2 1 Z " fill="#FFFFFF" transform="translate(249,171)"/>
<path d="M0 0 C2 1 2 1 2 1 Z " fill="#FFFFFF" transform="translate(247,170)"/>
<path d="M0 0 C2 1 2 1 2 1 Z " fill="#FFFFFF" transform="translate(35,169)"/>
<path d="M0 0 C2 1 2 1 2 1 Z " fill="#FFFFFF" transform="translate(244,168)"/>
<path d="M0 0 C2 1 2 1 2 1 Z " fill="#FFFFFF" transform="translate(242,167)"/>
<path d="M0 0 C2 1 2 1 2 1 Z " fill="#FFFFFF" transform="translate(240,166)"/>
<path d="M0 0 C2 1 2 1 2 1 Z " fill="#FFFFFF" transform="translate(43,139)"/>
<path d="M0 0 C2 1 2 1 2 1 Z " fill="#FFFFFF" transform="translate(45,138)"/>
<path d="M0 0 C2 1 2 1 2 1 Z " fill="#FFFFFF" transform="translate(94,108)"/>
<path d="M0 0 C2 1 2 1 2 1 Z " fill="#FFFFFF" transform="translate(98,102)"/>
<path d="M0 0 C2 1 2 1 2 1 Z " fill="#FFFFFF" transform="translate(96,101)"/>
<path d="M0 0 C2 1 2 1 2 1 Z " fill="#FFFFFF" transform="translate(76,58)"/>
<path d="" fill="#FFFFFF" transform="translate(0,0)"/>
<path d="" fill="#FFFFFF" transform="translate(0,0)"/>
<path d="" fill="#FFFFFF" transform="translate(0,0)"/>
<path d="" fill="#FFFFFF" transform="translate(0,0)"/>
<path d="" fill="#FFFFFF" transform="translate(0,0)"/>
<path d="" fill="#FFFFFF" transform="translate(0,0)"/>
<path d="" fill="#FFFFFF" transform="translate(0,0)"/>
<path d="" fill="#FFFFFF" transform="translate(0,0)"/>
<path d="" fill="#FFFFFF" transform="translate(0,0)"/>
<path d="" fill="#FFFFFF" transform="translate(0,0)"/>
<path d="" fill="#FFFFFF" transform="translate(0,0)"/>
<path d="" fill="#FFFFFF" transform="translate(0,0)"/>
<path d="" fill="#FFFFFF" transform="translate(0,0)"/>
<path d="" fill="#FFFFFF" transform="translate(0,0)"/>
</svg>
