<?xml version="1.0" encoding="UTF-8"?>
<svg version="1.1" xmlns="http://www.w3.org/2000/svg" width="350" height="230">
<path d="M0 0 C14.14552538 -0.55352056 29.16753574 -0.98489065 41 8 C42.38226016 10.76452033 42.09525387 13.0461363 42.0625 16.125 C42.05347656 17.22070312 42.04445313 18.31640625 42.03515625 19.4453125 C42.02355469 20.28835937 42.01195312 21.13140625 42 22 C38.28673276 24.39776301 35.20814514 24.10819966 30.875 23.9375 C24.55189635 23.79736356 18.5470222 24.31542573 12.3125 25.375 C11.18207275 25.56437134 11.18207275 25.56437134 10.02880859 25.75756836 C7.00348401 26.30362751 4.18631459 26.92536521 1.328125 28.0703125 C-2.17727402 29.47011949 -5.64222916 29.44894475 -9.37890625 29.65625 C-12.06955732 30.00912227 -13.72887154 30.53571981 -16 32 C-17.34331654 33.99330842 -18.67594012 35.99384866 -20 38 C-22.33653055 40.10287749 -24.26728544 41.70691418 -27.1875 42.875 C-29.27835486 43.94695558 -29.27835486 43.94695558 -30.3125 46.75 C-31.05959875 50.28173954 -30.83382642 52.5130895 -30 56 C-29.814375 56.78375 -29.62875 57.5675 -29.4375 58.375 C-29.293125 58.91125 -29.14875 59.4475 -29 60 C-28.54625 59.175 -28.0925 58.35 -27.625 57.5 C-27.08875 56.675 -26.5525 55.85 -26 55 C-25.34 55 -24.68 55 -24 55 C-23.7525 54.443125 -23.505 53.88625 -23.25 53.3125 C-21.77897833 50.5911099 -19.96697719 48.38421478 -18 46 C-17.505 45.236875 -17.01 44.47375 -16.5 43.6875 C-16.005 43.130625 -15.51 42.57375 -15 42 C-13.68 42 -12.36 42 -11 42 C-9.515 41.505 -9.515 41.505 -8 41 C-8 40.34 -8 39.68 -8 39 C-6.3203125 37.4921875 -6.3203125 37.4921875 -4.125 35.875 C-3.40570313 35.33617187 -2.68640625 34.79734375 -1.9453125 34.2421875 C0 33 0 33 2 33 C2.495 35.475 2.495 35.475 3 38 C3.62261719 37.94199219 4.24523437 37.88398437 4.88671875 37.82421875 C15.65269398 37.298683 25.66880486 40.27056677 36 43 C36 43.66 36 44.32 36 45 C36.680625 45.20625 37.36125 45.4125 38.0625 45.625 C41.97009851 47.45408866 44.83857939 50.10279034 48 53 C44.09161134 53 42.88405893 51.49432124 40 49 C39.67 50.32 39.34 51.64 39 53 C39.99 53 40.98 53 42 53 C42.495 55.475 42.495 55.475 43 58 C44.65 57.67 46.3 57.34 48 57 C48 58.32 48 59.64 48 61 C48.66 61 49.32 61 50 61 C50.70365602 62.5552912 51.38729378 64.11964827 52.0625 65.6875 C52.44535156 66.55761719 52.82820313 67.42773438 53.22265625 68.32421875 C54.0935848 71.32213864 53.85006226 73.03280153 53 76 C52.34 75.67 51.68 75.34 51 75 C51 72.69 51 70.38 51 68 C50.34 68 49.68 68 49 68 C49.061875 69.258125 49.12375 70.51625 49.1875 71.8125 C49.29296875 73.95703125 49.29296875 73.95703125 49 76 C48.01 76.99 47.02 77.98 46 79 C46 74.05 46 69.1 46 64 C45.01 64 44.02 64 43 64 C43.04125 65.2375 43.0825 66.475 43.125 67.75 C43.24851563 71.455469 42.80568106 72.38863788 41 76 C41 73.03 41 70.06 41 67 C40.01 67.66 39.02 68.32 38 69 C36.68 69 35.36 69 34 69 C34 66.69 34 64.38 34 62 C33.34 61.67 32.68 61.34 32 61 C32.165 60.4225 32.33 59.845 32.5 59.25 C33.14462031 56.73335631 33.14462031 56.73335631 33 53 C32.0409375 52.814375 32.0409375 52.814375 31.0625 52.625 C30.381875 52.41875 29.70125 52.2125 29 52 C28.67 51.34 28.34 50.68 28 50 C24.97065509 49.34227572 24.97065509 49.34227572 22 49 C22.83333333 51.16666667 22.83333333 51.16666667 25 52 C23.02 54.475 23.02 54.475 21 57 C16.125 54.25 16.125 54.25 15 52 C14.01 52.495 14.01 52.495 13 53 C12.67 51.35 12.34 49.7 12 48 C11.48050781 48.34933594 10.96101563 48.69867188 10.42578125 49.05859375 C6.63522135 51.53191657 3.58402595 53.49066378 -1 54 C-2.33542939 54.32483418 -3.66961551 54.6550855 -5 55 C-5 54.01 -5 53.02 -5 52 C-5.78375 52.495 -6.5675 52.99 -7.375 53.5 C-10 55 -10 55 -12 55 C-13.625 53.5 -13.625 53.5 -15 52 C-15.33 53.65 -15.66 55.3 -16 57 C-16.99 57 -17.98 57 -19 57 C-19.66 55.68 -20.32 54.36 -21 53 C-21.268125 53.804375 -21.53625 54.60875 -21.8125 55.4375 C-22.204375 56.283125 -22.59625 57.12875 -23 58 C-24.485 58.495 -24.485 58.495 -26 59 C-28.07422976 67.03764031 -28.2144997 74.72984476 -28 83 C-29.39646821 80.35499453 -30.47081227 77.82606024 -31.25 74.9375 C-31.53617188 73.93009766 -31.53617188 73.93009766 -31.828125 72.90234375 C-32 71 -32 71 -30 68 C-30.30159115 64.68249737 -31.05331618 61.84301348 -32.125 58.6875 C-33.44267022 53.1344612 -32.98986057 48.39650453 -30.8125 43.125 C-28.54181691 40.46281983 -26.12475826 39.53049384 -23 38 C-20.84550034 35.59855425 -20.84550034 35.59855425 -19 33 C-15.23831745 29.017042 -13.37596031 27.94625926 -7.9375 27.625 C-4.27545108 27.32615404 -1.12714444 26.84913391 2.3125 25.5625 C11.7774798 22.13899667 21.79294358 21.75412214 31.75805664 21.9855957 C34.82389031 22.05153176 37.05928883 21.98023706 40 21 C40 17.04 40 13.08 40 9 C26.96235755 2.48117878 14.32640803 1.59303214 0 1 C0 0.67 0 0.34 0 0 Z M-4.125 39 C-4.74375 39.66 -5.3625 40.32 -6 41 C-4.35 40.67 -2.7 40.34 -1 40 C-0.67 39.01 -0.34 38.02 0 37 C-2.24362573 36.7715451 -2.24362573 36.7715451 -4.125 39 Z M3 40 C3.33 40.66 3.66 41.32 4 42 C4.33 41.34 4.66 40.68 5 40 C4.34 40 3.68 40 3 40 Z M7 40 C6.67 40.66 6.34 41.32 6 42 C6.99 42 7.98 42 9 42 C9 41.34 9 40.68 9 40 C8.34 40 7.68 40 7 40 Z M13 40 C12.01 41.485 12.01 41.485 11 43 C11.66 44.32 12.32 45.64 13 47 C13.33 44.69 13.66 42.38 14 40 C13.67 40 13.34 40 13 40 Z M16 40 C16 40.66 16 41.32 16 42 C16.99 41.67 17.98 41.34 19 41 C18.01 40.67 17.02 40.34 16 40 Z M20 40 C20.33 40.99 20.66 41.98 21 43 C22.32 43 23.64 43 25 43 C24.67 44.32 24.34 45.64 24 47 C26.31 47.33 28.62 47.66 31 48 C31.66 47.01 32.32 46.02 33 45 C28.78316189 42.1009238 24.93133998 41.08656644 20 40 Z M15 42 C16 44 16 44 16 44 Z M3 43 C1.23537317 46.08809695 1 47.23312136 1 51 C1.99 50.67 2.98 50.34 4 50 C4 47.69 4 45.38 4 43 C3.67 43 3.34 43 3 43 Z M5 43 C5.33 44.32 5.66 45.64 6 47 C6.66 45.68 7.32 44.36 8 43 C7.01 43 6.02 43 5 43 Z M-15 44 C-15.33 44.66 -15.66 45.32 -16 46 C-15.34 46 -14.68 46 -14 46 C-14.33 45.34 -14.66 44.68 -15 44 Z M10 44 C9.34 45.32 8.68 46.64 8 48 C8.99 47.67 9.98 47.34 11 47 C10.67 46.01 10.34 45.02 10 44 Z M15.875 46 C15.25625 46.66 14.6375 47.32 14 48 C15.30406884 50.01920337 16.63823419 52.01924973 18 54 C18.33 54 18.66 54 19 54 C19.33 50.7 19.66 47.4 20 44 C17.75637427 43.7715451 17.75637427 43.7715451 15.875 46 Z M21 44 C21.99 45.485 21.99 45.485 23 47 C23.33 46.01 23.66 45.02 24 44 C23.01 44 22.02 44 21 44 Z M-12 45 C-14.2773501 47.81509993 -14.2773501 47.81509993 -14 51 C-13.01 51 -12.02 51 -11 51 C-10.67 49.02 -10.34 47.04 -10 45 C-10.66 45 -11.32 45 -12 45 Z M-9 45 C-9 46.32 -9 47.64 -9 49 C-8.34 49 -7.68 49 -7 49 C-7.66 47.68 -8.32 46.36 -9 45 Z M-5 46 C-4 48 -4 48 -4 48 Z M35 46 C35 46.66 35 47.32 35 48 C35.99 47.67 36.98 47.34 38 47 C37.01 46.67 36.02 46.34 35 46 Z M-17 48 C-16 50 -16 50 -16 50 Z M-2 49 C-2.33 49.66 -2.66 50.32 -3 51 C-2.34 51 -1.68 51 -1 51 C-1.33 50.34 -1.66 49.68 -2 49 Z M35 49 C35 50.32 35 51.64 35 53 C35.66 53 36.32 53 37 53 C37.33 51.68 37.66 50.36 38 49 C37.01 49 36.02 49 35 49 Z M-20 50 C-19 52 -19 52 -19 52 Z M-10 50 C-10.33 50.66 -10.66 51.32 -11 52 C-10.01 52 -9.02 52 -8 52 C-8 51.34 -8 50.68 -8 50 C-8.66 50 -9.32 50 -10 50 Z M40 54 C39.01 54.99 38.02 55.98 37 57 C38.32 56.67 39.64 56.34 41 56 C40.67 55.34 40.34 54.68 40 54 Z M36 59 C35.3006486 61.18541552 35.3006486 61.18541552 35.25 63.625 C35.19328125 64.44226563 35.1365625 65.25953125 35.078125 66.1015625 C35.05234375 66.72804688 35.0265625 67.35453125 35 68 C38.91841827 66.69386058 41.32640809 65.16870152 44 62 C44 61.34 44 60.68 44 60 C43.34 59.67 42.68 59.34 42 59 C42 58.34 42 57.68 42 57 C39.41756355 57 38.14283586 57.56273205 36 59 Z M47 63 C48 67 48 67 48 67 Z " fill="#FFFFFF" transform="translate(244,16)"/>
<path d="M0 0 C0.99 1.485 0.99 1.485 2 3 C2.99 2.34 3.98 1.68 5 1 C5.495 3.475 5.495 3.475 6 6 C6.99 5.67 7.98 5.34 9 5 C9 5.66 9 6.32 9 7 C8.21625 7.763125 7.4325 8.52625 6.625 9.3125 C4.09947479 11.89815676 3.06592614 13.60841682 2 17 C1.505 15.02 1.505 15.02 1 13 C0.154375 13.61875 -0.69125 14.2375 -1.5625 14.875 C-7.42962752 18.74977743 -13.16356372 19.23987496 -20 19 C-20.33 23.95 -20.66 28.9 -21 34 C-17.535 33.505 -17.535 33.505 -14 33 C-13.18697675 34.45804169 -12.37459869 35.91644315 -11.5625 37.375 C-11.11003906 38.18710938 -10.65757812 38.99921875 -10.19140625 39.8359375 C-2.12765262 54.48288671 -4.31988045 76.80627292 -4 93 C-6.40545638 94.20272819 -7.94996953 94.10071472 -10.625 94.0625 C-11.44226563 94.05347656 -12.25953125 94.04445313 -13.1015625 94.03515625 C-13.72804688 94.02355469 -14.35453125 94.01195312 -15 94 C-16.21645057 91.56709887 -16.33797291 89.60855509 -16.61328125 86.8984375 C-16.72502686 85.85743896 -16.83677246 84.81644043 -16.9519043 83.74389648 C-17.07090088 82.63216064 -17.18989746 81.5204248 -17.3125 80.375 C-18.44798016 70.25290182 -20.24115737 60.79864795 -23 51 C-23.66 55.95 -24.32 60.9 -25 66 C-25.33 66 -25.66 66 -26 66 C-25.85913398 63.39547729 -25.71251536 60.79149803 -25.5625 58.1875 C-25.52318359 57.44951172 -25.48386719 56.71152344 -25.44335938 55.95117188 C-25.25618965 52.76928658 -25.01279207 50.03837622 -24 47 C-23.01 47.33 -22.02 47.66 -21 48 C-20.14049777 50.49634838 -19.53135465 52.80233007 -19 55.375 C-18.75008301 56.53201416 -18.75008301 56.53201416 -18.49511719 57.71240234 C-16.14061114 69.33862006 -15.13979747 81.20545983 -14 93 C-9.65815798 92.81535634 -9.65815798 92.81535634 -6 91 C-5.42689502 73.84721007 -4.94830954 49.73983068 -15 35 C-18.465 35.495 -18.465 35.495 -22 36 C-22.02721176 34.10424749 -22.04649136 32.20838021 -22.0625 30.3125 C-22.07410156 29.25675781 -22.08570313 28.20101562 -22.09765625 27.11328125 C-22.00865425 24.27589738 -21.64939838 21.7561081 -21 19 C-23.41706304 19.30964862 -25.83361887 19.62261115 -28.25 19.9375 C-28.93191406 20.02451172 -29.61382812 20.11152344 -30.31640625 20.20117188 C-33.62513345 20.63484 -36.75574059 21.18893515 -40 22 C-40.66 26.29 -41.32 30.58 -42 35 C-42.99 35.01417969 -43.98 35.02835938 -45 35.04296875 C-46.33337711 35.08991865 -47.66670898 35.1381657 -49 35.1875 C-50.299375 35.22230469 -51.59875 35.25710937 -52.9375 35.29296875 C-57.7613988 35.86306588 -61.45625909 37.67617209 -65 41 C-66.99133867 44.02622706 -68.3072903 47.19714664 -69.625 50.5625 C-70.37436031 52.3510752 -71.12566081 54.13883877 -71.87890625 55.92578125 C-72.41475342 57.22443115 -72.41475342 57.22443115 -72.96142578 58.54931641 C-75.05501269 63.48947283 -77.53194675 68.23810903 -80 73 C-81.30656422 69.08030735 -80.37413941 68.09896391 -78.578125 64.44921875 C-78.04703125 63.35802734 -77.5159375 62.26683594 -76.96875 61.14257812 C-76.4015625 60.00240234 -75.834375 58.86222656 -75.25 57.6875 C-74.69828125 56.55892578 -74.1465625 55.43035156 -73.578125 54.26757812 C-72.06269431 51.17296666 -70.53573214 48.0845792 -69 45 C-68.47607666 43.92121582 -67.95215332 42.84243164 -67.41235352 41.73095703 C-65.20625663 37.46520081 -62.46618653 35.6496725 -58 34 C-54.27347754 33.52306979 -50.63434223 33.31394751 -46.87890625 33.23828125 C-45.92886719 33.15964844 -44.97882813 33.08101562 -44 33 C-42.73762269 30.47524538 -42.90143596 28.68799534 -42.9375 25.875 C-42.94652344 24.96492188 -42.95554688 24.05484375 -42.96484375 23.1171875 C-42.97644531 22.41851562 -42.98804688 21.71984375 -43 21 C-44.2375 20.7525 -45.475 20.505 -46.75 20.25 C-50.51439673 19.3289242 -52.53077893 18.08652634 -55 15 C-54.3709375 15.20496094 -53.741875 15.40992187 -53.09375 15.62109375 C-43.18016967 18.78019319 -43.18016967 18.78019319 -33 18 C-31.54246179 17.90227009 -30.08174059 17.84611821 -28.62109375 17.82421875 C-14.73787415 17.82912544 -14.73787415 17.82912544 -2 13 C0.26935245 9.97969976 0.26935245 9.97969976 1 7 C0.34 7 -0.32 7 -1 7 C-0.67 4.69 -0.34 2.38 0 0 Z " fill="#FFFFFF" transform="translate(284,101)"/>
<path d="M0 0 C2.12999997 3.79039366 2.16702456 6.65736138 2 11 C2.66 11 3.32 11 4 11 C5.5078125 12.75 5.5078125 12.75 7.125 15 C7.66382813 15.7425 8.20265625 16.485 8.7578125 17.25 C9.16773438 17.8275 9.57765625 18.405 10 19 C7.11562221 17.70700306 5.12780579 16.34058637 3 14 C2.608125 15.216875 2.21625 16.43375 1.8125 17.6875 C-0.16269322 22.97652451 -3.33918155 25.8927877 -8 29 C-10.6875 29.125 -10.6875 29.125 -13 29 C-13.33 29.99 -13.66 30.98 -14 32 C-16.26052191 33.78355757 -18.50556993 35.43795064 -20.875 37.0625 C-21.51308594 37.50916016 -22.15117187 37.95582031 -22.80859375 38.41601562 C-25.51927494 40.30896522 -28.248934 42.165956 -31 44 C-31.05632424 46.80435411 -30.95814702 49.35146678 -30.6875 52.125 C-30.62626953 52.87910156 -30.56503906 53.63320312 -30.50195312 54.41015625 C-30.3485467 56.27463438 -30.17606541 58.13752498 -30 60 C-30.33 60 -30.66 60 -31 60 C-31.10957031 59.01 -31.21914062 58.02 -31.33203125 57 C-32.24589661 48.45309856 -32.24589661 48.45309856 -34.6875 40.25 C-36 37 -36 37 -35 34 C-34.34 35.32 -33.68 36.64 -33 38 C-29.75956186 31.3830748 -27.30960645 25.26236302 -26 18 C-26.61746094 17.91363281 -27.23492187 17.82726562 -27.87109375 17.73828125 C-34.41939973 16.65188041 -39.40426226 14.54126398 -45 11 C-42 10 -42 10 -39.87109375 10.92578125 C-38.66646484 11.61220703 -38.66646484 11.61220703 -37.4375 12.3125 C-33.82857445 14.23550413 -30.79028076 15.38264999 -26.75 16 C-21.75855442 16.83843748 -19.49352525 18.33605888 -16 22 C-14.125 24.8125 -14.125 24.8125 -13 27 C-9.08557587 26.72690064 -7.2973899 26.25007787 -4.25 23.6875 C0.10367733 18.4872743 0.2671601 14.84404161 0.125 8.25 C0.11597656 7.45722656 0.10695312 6.66445313 0.09765625 5.84765625 C0.07417012 3.89830719 0.03830137 1.94911425 0 0 Z M-24 18 C-24.33773437 19.02480469 -24.67546875 20.04960938 -25.0234375 21.10546875 C-25.4738774 22.46617263 -25.92440276 23.82684822 -26.375 25.1875 C-26.59671875 25.86103516 -26.8184375 26.53457031 -27.046875 27.22851562 C-28.00787131 30.12563685 -28.99226464 32.98138842 -30.1640625 35.80078125 C-31.1776524 38.07525301 -31.1776524 38.07525301 -31 41 C-26.6426774 39.52869627 -23.28065866 37.16919385 -19.6875 34.375 C-19.13771484 33.95476562 -18.58792969 33.53453125 -18.02148438 33.1015625 C-16.67707832 32.07279961 -15.33798587 31.0370991 -14 30 C-16.03432086 24.40327394 -19.046553 21.302298 -24 18 Z " fill="#FFFFFF" transform="translate(180,46)"/>
<path d="M0 0 C0.495 1.485 0.495 1.485 1 3 C-6.64960734 11.40404109 -19.29979536 12.22782056 -30 14 C-30.33 18.62 -30.66 23.24 -31 28 C-30.01 27.67 -29.02 27.34 -28 27 C-25.84375 26.76171875 -25.84375 26.76171875 -23.5 26.6875 C-22.7265625 26.65011719 -21.953125 26.61273438 -21.15625 26.57421875 C-19 27 -19 27 -17.29296875 28.50390625 C-15.50115053 31.96303568 -15.18025902 35.43070446 -14.8125 39.25 C-14.6897168 40.36761719 -14.6897168 40.36761719 -14.56445312 41.5078125 C-14.36508006 43.33735356 -14.18101526 45.16855151 -14 47 C-16.69857709 44.30142291 -16.53144369 42.31513403 -17 38.5625 C-17.61569058 33.47162439 -17.61569058 33.47162439 -20 29 C-25.14848397 28.50495346 -27.93103641 29.31034547 -33 31 C-32.67 25.39 -32.34 19.78 -32 14 C-32.99 14.33 -33.98 14.66 -35 15 C-36.48123547 15.0806622 -37.96582204 15.10761193 -39.44921875 15.09765625 C-40.29677734 15.09443359 -41.14433594 15.09121094 -42.01757812 15.08789062 C-42.89865234 15.07951172 -43.77972656 15.07113281 -44.6875 15.0625 C-45.58017578 15.05798828 -46.47285156 15.05347656 -47.39257812 15.04882812 C-49.59511987 15.03704983 -51.79752599 15.02060164 -54 15 C-53.97679688 15.88042969 -53.95359375 16.76085937 -53.9296875 17.66796875 C-53.90261719 19.41013672 -53.90261719 19.41013672 -53.875 21.1875 C-53.85179688 22.33605469 -53.82859375 23.48460937 -53.8046875 24.66796875 C-54.05633924 28.96114743 -54.76457294 31.84427791 -57.9375 34.8125 C-60 36 -60 36 -63 36 C-63.25007813 36.54527344 -63.50015625 37.09054688 -63.7578125 37.65234375 C-65.24995374 40.47239686 -67.00898132 42.97471937 -68.875 45.5625 C-69.55304688 46.51253906 -70.23109375 47.46257812 -70.9296875 48.44140625 C-72.81128179 50.76677277 -74.52545704 52.35215413 -77 54 C-75.2782754 50.00559892 -72.61051014 46.76257721 -69.9375 43.375 C-66.67807651 39.37877222 -66.67807651 39.37877222 -64 35 C-62.85402344 34.46890625 -61.70804688 33.9378125 -60.52734375 33.390625 C-58.30874773 32.16821431 -57.22488496 31.5383391 -56.23876953 29.17773438 C-55.86380284 27.02256627 -55.67249776 24.934517 -55.5625 22.75 C-55.46678711 21.63238281 -55.46678711 21.63238281 -55.36914062 20.4921875 C-55.21676383 18.66366593 -55.10437505 16.83188855 -55 15 C-57.31 15 -59.62 15 -62 15 C-62 14.67 -62 14.34 -62 14 C-61.33806641 13.99589111 -60.67613281 13.99178223 -59.99414062 13.98754883 C-47.44617035 13.85261281 -35.24489196 13.27325816 -22.9375 10.6875 C-21.48730469 10.38646362 -21.48730469 10.38646362 -20.0078125 10.0793457 C-9.51688024 7.75540028 -9.51688024 7.75540028 -0.9375 1.75 C-0.4734375 0.88375 -0.4734375 0.88375 0 0 Z " fill="#FFFFFF" transform="translate(146,111)"/>
<path d="M0 0 C-3.50021628 1.21817272 -5.57563059 0.74449563 -9.0625 -0.375 C-21.99335426 -4.11095921 -44.56584639 -6.54250212 -57 -0.3125 C-60.36972745 2.28499824 -61.70644434 3.95763855 -63 8 C-62.76716851 11.14921909 -62.76716851 11.14921909 -62 14 C-62 14.99 -62 15.98 -62 17 C-64.03455241 15.12821178 -64.95011196 13.68564078 -65.15234375 10.90625 C-64.8792709 6.70512924 -64.39291762 4.50206141 -61.75 1.125 C-60.8425 0.42375 -59.935 -0.2775 -59 -1 C-58.29875 -1.5775 -57.5975 -2.155 -56.875 -2.75 C-40.82756207 -9.72714693 -15.90129906 -4.99091868 0 0 Z " fill="#FFFFFF" transform="translate(148,25)"/>
<path d="M0 0 C0 0.33 0 0.66 0 1 C-1.216875 1.020625 -2.43375 1.04125 -3.6875 1.0625 C-4.71423828 1.07990234 -4.71423828 1.07990234 -5.76171875 1.09765625 C-8 1 -8 1 -10.30053711 0.50878906 C-24.17192947 -2.10566166 -39.82366923 -0.85946903 -53 4 C-54.09699219 4.36222656 -55.19398438 4.72445313 -56.32421875 5.09765625 C-63.38349905 7.65914172 -67.67021696 10.85597688 -72 17 C-72.33 16.34 -72.66 15.68 -73 15 C-67.8384356 7.67566742 -62.39544758 4.77870527 -54 2 C-52.95714844 1.60683594 -51.91429687 1.21367187 -50.83984375 0.80859375 C-34.83331687 -4.46565793 -16.32741038 -3.21188899 0 0 Z " fill="#FFFFFF" transform="translate(244,15)"/>
<path d="M0 0 C5.56939954 -0.1429645 10.55830175 0.29495593 16 1.4375 C21.32411984 2.52416118 26.59935789 3.37916726 32 4 C31.08518596 6.28703509 30.40751579 7.71434898 28.3671875 9.14453125 C20.56584653 11.96382774 8.39665203 9.29679348 1 6 C-1.26953125 4.5234375 -1.26953125 4.5234375 -3 3 C-3 2.34 -3 1.68 -3 1 C-2.484375 1.268125 -1.96875 1.53625 -1.4375 1.8125 C-0.633125 2.204375 0.17125 2.59625 1 3 C1.99 3.495 2.98 3.99 4 4.5 C11.63121991 7.71660022 19.91734104 8.67753299 28 7 C28.33 6.67 28.66 6.34 29 6 C27.74896484 5.81824219 27.74896484 5.81824219 26.47265625 5.6328125 C20.59544494 4.75762639 14.79645449 3.79937564 9.01171875 2.44140625 C6.02563588 1.78620749 3.03150894 1.38700114 0 1 C0 0.67 0 0.34 0 0 Z " fill="#FFFFFF" transform="translate(229,98)"/>
<path d="M0 0 C1.10021484 0.00064453 2.20042969 0.00128906 3.33398438 0.00195312 C11.42191382 0.04691382 11.42191382 0.04691382 12.5625 1.1875 C14.74889453 1.26008946 16.93750389 1.27123783 19.125 1.25 C20.32253906 1.24097656 21.52007812 1.23195313 22.75390625 1.22265625 C24.14416016 1.20525391 24.14416016 1.20525391 25.5625 1.1875 C25.5625 1.8475 25.5625 2.5075 25.5625 3.1875 C23.25006208 3.21435412 20.9375373 3.23382841 18.625 3.25 C17.33722656 3.26160156 16.04945313 3.27320313 14.72265625 3.28515625 C11.5625 3.1875 11.5625 3.1875 10.5625 2.1875 C7.04914232 1.93309476 3.52146113 2.00225879 0 2 C-0.97775391 1.98775391 -1.95550781 1.97550781 -2.96289062 1.96289062 C-7.39185005 1.95399118 -11.47567192 2.03965246 -15.765625 3.203125 C-20.22711079 4.39918289 -24.03829487 4.21026201 -28.60546875 3.96484375 C-31.94152583 4.22712686 -33.62896155 5.4551746 -36.4375 7.1875 C-37.4275 6.8575 -38.4175 6.5275 -39.4375 6.1875 C-34.02098039 2.24821301 -30.24061989 1.83091384 -23.59765625 2.2421875 C-20.32376084 2.31510539 -20.32376084 2.31510539 -16.8359375 1.20703125 C-11.28326801 -0.30101955 -5.71394606 -0.06520419 0 0 Z " fill="#FFFFFF" transform="translate(229.4375,23.8125)"/>
<path d="M0 0 C0.45581989 6.49543339 -0.5800385 11.79823848 -2.36181641 18.0534668 C-4.00571815 23.85330802 -5.20028017 29.6678494 -6.33984375 35.58984375 C-7.14467979 39.74736955 -8.05843575 43.8716029 -9 48 C-9.33 48 -9.66 48 -10 48 C-10.35797117 42.63043241 -9.36923428 38.38425541 -7.859375 33.2421875 C-6.67111368 28.75920161 -5.8718242 24.22773109 -5.09057617 19.65844727 C-4.38003666 15.61728529 -3.33188978 11.87508673 -2 8 C-1.62468554 5.67305036 -1.28082798 3.34023315 -1 1 C-2.96756452 1.03122943 -2.96756452 1.03122943 -5 2 C-6.3045656 4.99615946 -6.3045656 4.99615946 -7 8 C-7.75 6.25 -7.75 6.25 -8 4 C-5.32518618 0.43358158 -4.60293628 0 0 0 Z " fill="#FFFFFF" transform="translate(236,145)"/>
<path d="M0 0 C0.33 0 0.66 0 1 0 C1.08114106 1.77007714 1.13925505 3.54122098 1.1875 5.3125 C1.22230469 6.29863281 1.25710938 7.28476563 1.29296875 8.30078125 C1 11 1 11 -0.26171875 12.85546875 C-2 14 -2 14 -6 14 C-5.67 12.02 -5.34 10.04 -5 8 C-7.97 10.475 -7.97 10.475 -11 13 C-10.34 10.69 -9.68 8.38 -9 6 C-8.21625 5.855625 -7.4325 5.71125 -6.625 5.5625 C-4.03578982 5.12201075 -4.03578982 5.12201075 -2 4 C-0.86649466 1.98330173 -0.86649466 1.98330173 0 0 Z M-3 7 C-2 9 -2 9 -2 9 Z " fill="#FFFFFF" transform="translate(298,106)"/>
<path d="M0 0 C1.32 0 2.64 0 4 0 C5.0625 1.8125 5.0625 1.8125 6 4 C5.67 4.99 5.34 5.98 5 7 C4.34 5.02 3.68 3.04 3 1 C0.49146238 3.18133706 -0.61952612 4.67085353 -1 8 C-0.84668213 8.87865723 -0.69336426 9.75731445 -0.53540039 10.66259766 C0.05319985 14.33161967 0.2124074 17.87169293 0.31640625 21.5859375 C0.33718735 22.28772125 0.35796844 22.989505 0.37937927 23.71255493 C0.44426324 25.93327958 0.5034723 28.15411276 0.5625 30.375 C0.60574354 31.88933371 0.6493596 33.40365683 0.69335938 34.91796875 C0.79988086 38.61186655 0.90131677 42.30588354 1 46 C0.01 45.67 -0.98 45.34 -2 45 C-1.34 45 -0.68 45 0 45 C-0.1546875 44.25363281 -0.309375 43.50726563 -0.46875 42.73828125 C-1.20405966 37.56408015 -1.32761507 32.40693251 -1.5 27.1875 C-1.7783707 18.55296048 -1.7783707 18.55296048 -2.62109375 9.9609375 C-3.04223216 5.55852151 -2.3537796 3.67189617 0 0 Z " fill="#FFFFFF" transform="translate(116,159)"/>
<path d="M0 0 C1.95972131 2.93958197 2.35345638 4.13057518 2.81640625 7.4921875 C2.94080078 8.36230469 3.06519531 9.23242188 3.19335938 10.12890625 C3.31517578 11.03511719 3.43699219 11.94132813 3.5625 12.875 C3.81278338 14.6642053 4.06405562 16.4532726 4.31640625 18.2421875 C4.42412354 19.0347998 4.53184082 19.82741211 4.64282227 20.64404297 C5.01656193 23.10924306 5.51100996 25.55504979 6 28 C9.96 27.67 13.92 27.34 18 27 C17.505 20.565 17.505 20.565 17 14 C17.33 14 17.66 14 18 14 C20.39306591 23.80729692 20.39306591 23.80729692 20 28 C19 29 19 29 15.83984375 29.09765625 C14.55207031 29.08605469 13.26429688 29.07445312 11.9375 29.0625 C10.64714844 29.05347656 9.35679687 29.04445312 8.02734375 29.03515625 C7.02832031 29.02355469 6.02929688 29.01195312 5 29 C2.4963292 22.49164956 1.36695826 16.37077159 0.8125 9.4375 C0.73064453 8.52419922 0.64878906 7.61089844 0.56445312 6.66992188 C0.36662519 4.44726687 0.17864676 2.22426445 0 0 Z " fill="#FFFFFF" transform="translate(122,166)"/>
<path d="M0 0 C0.33 0.66 0.66 1.32 1 2 C0.03125 3.85546875 0.03125 3.85546875 -1.5 6.1875 C-5.65213596 12.82506946 -8.7894118 19.87591377 -12 27 C-18.625 26.25 -18.625 26.25 -22 24 C-21.25 16.25 -21.25 16.25 -19 14 C-19.33 16.97 -19.66 19.94 -20 23 C-17.69 23.99 -15.38 24.98 -13 26 C-12.4740625 24.1746875 -12.4740625 24.1746875 -11.9375 22.3125 C-9.30539481 14.37840303 -5.20466372 6.55343329 0 0 Z " fill="#FFFFFF" transform="translate(221,162)"/>
<path d="M0 0 C0 4.7566958 -3.28138119 7.48280478 -6.15234375 11.11328125 C-8.1540607 14.24069949 -8.84201166 16.30511136 -9 20 C-8.34 20.99 -7.68 21.98 -7 23 C-2.18966896 20.45335415 1.32442148 18.00972202 5 14 C5 14.99 5 15.98 5 17 C4.01 17.33 3.02 17.66 2 18 C1.731875 18.61875 1.46375 19.2375 1.1875 19.875 C-0.56122157 23.00429123 -2.71337395 23.7510821 -6 25 C-8.375 24.6875 -8.375 24.6875 -10 24 C-11.23977949 18.47734591 -10.92931067 14.79699196 -8 10 C-2.91954023 2.91954023 -2.91954023 2.91954023 0 0 Z " fill="#FFFFFF" transform="translate(68,165)"/>
<path d="M0 0 C2.31 0 4.62 0 7 0 C6.63692621 2.68674602 6.33095772 4.55872304 4.6875 6.75 C1.07810165 9.42362841 -2.84270848 9.08467316 -7.1875 9 C-9.12463749 8.96252213 -11.06306736 8.95311509 -13 9 C-13.33 9.33 -13.66 9.66 -14 10 C-15.52519276 9.91062197 -17.04681929 9.75462854 -18.5625 9.5625 C-19.38878906 9.46066406 -20.21507813 9.35882813 -21.06640625 9.25390625 C-21.70449219 9.17011719 -22.34257813 9.08632812 -23 9 C-23.33 7.35 -23.66 5.7 -24 4 C-23.01 4 -22.02 4 -21 4 C-21.33 5.32 -21.66 6.64 -22 8 C-21.50371094 7.83371094 -21.00742188 7.66742188 -20.49609375 7.49609375 C-16.35254725 6.67257199 -12.13749498 6.99973663 -7.93164062 7.12695312 C-3.81754194 7.19250109 -0.6541309 6.95563672 3 5 C4.80348078 2.98682781 4.80348078 2.98682781 6 1 C4.02 1 2.04 1 0 1 C0 0.67 0 0.34 0 0 Z " fill="#FFFFFF" transform="translate(126,101)"/>
<path d="M0 0 C1.42892578 -0.02513672 1.42892578 -0.02513672 2.88671875 -0.05078125 C4.08748047 0.12904297 4.08748047 0.12904297 5.3125 0.3125 C7.3125 3.3125 7.3125 3.3125 7.1875 5.8125 C6.10911515 8.89359958 5.18437163 9.79678997 2.3125 11.3125 C-0.4375 11.5 -0.4375 11.5 -2.6875 11.3125 C-2.6875 11.9725 -2.6875 12.6325 -2.6875 13.3125 C-6.15577222 13.02347731 -7.49403554 12.49578212 -10.0625 10.0625 C-11.6875 7.3125 -11.6875 7.3125 -11.75 4.625 C-10.6875 2.3125 -10.6875 2.3125 -8.4765625 1.1875 C-5.5147928 0.25831735 -3.09785266 0.0126788 0 0 Z M-9.6875 3.3125 C-10.0175 4.3025 -10.3475 5.2925 -10.6875 6.3125 C-9.44387346 9.24440172 -9.44387346 9.24440172 -6.6875 11.3125 C-3.50533533 11.66801657 -0.73641589 11.26353798 2.3125 10.3125 C4.86156626 8.43817495 4.86156626 8.43817495 6.3125 6.3125 C5.6525 4.6625 4.9925 3.0125 4.3125 1.3125 C-2.95968407 0.90627376 -2.95968407 0.90627376 -9.6875 3.3125 Z " fill="#FFFFFF" transform="translate(99.6875,80.6875)"/>
<path d="M0 0 C1.19753906 0.433125 2.39507812 0.86625 3.62890625 1.3125 C9.94538578 3.41758139 16.42189966 4.67268407 22.9375 6 C41.90037203 9.87532882 41.90037203 9.87532882 47 12 C47.495 12.99 47.495 12.99 48 14 C47.15824219 13.78085937 46.31648438 13.56171875 45.44921875 13.3359375 C38.68808985 11.60879554 31.9255336 9.9677852 25.1015625 8.50390625 C23.90055908 8.24496582 22.69955566 7.98602539 21.4621582 7.71923828 C19.0534937 7.20331456 16.64318265 6.69501153 14.23120117 6.19482422 C13.1094751 5.95393066 11.98774902 5.71303711 10.83203125 5.46484375 C9.82889893 5.254646 8.8257666 5.04444824 7.79223633 4.82788086 C4.81615372 3.94549071 2.55092062 2.75709349 0 1 C0 0.67 0 0.34 0 0 Z " fill="#FFFFFF" transform="translate(87,42)"/>
<path d="M0 0 C1.98 0 3.96 0 6 0 C5.1379421 12.78544006 3.83904132 24.74805954 0 37 C-0.67758116 39.33034548 -1.33874567 41.66494564 -2 44 C-2.33 44 -2.66 44 -3 44 C-3.1750341 39.83539543 -2.78062978 36.9556716 -1.1875 33.125 C2.36522473 23.18748528 2.90134684 12.43467352 4 2 C2.35 2 0.7 2 -1 2 C-0.67 1.34 -0.34 0.68 0 0 Z " fill="#FFFFFF" transform="translate(88,159)"/>
<path d="M0 0 C0.66 0.33 1.32 0.66 2 1 C1.54109375 1.4125 1.0821875 1.825 0.609375 2.25 C-5.72408888 8.21090718 -9.36831901 13.96944499 -10.05078125 22.765625 C-9.96871741 26.37643413 -8.98329282 29.52955474 -8 33 C-7.875 36 -7.875 36 -8 38 C-11.42137231 32.13479032 -13.00500574 24.72972195 -12 18 C-9.83284312 10.61609424 -5.35777463 5.35777463 0 0 Z " fill="#FFFFFF" transform="translate(68,65)"/>
<path d="M0 0 C0.33 0.33 0.66 0.66 1 1 C3.58022142 1.28221172 6.16030185 1.44820197 8.75 1.62109375 C9.86375 1.80865234 9.86375 1.80865234 11 2 C11.33 2.66 11.66 3.32 12 4 C13.21236328 3.91298828 13.21236328 3.91298828 14.44921875 3.82421875 C23.2782389 3.45146157 23.2782389 3.45146157 27.125 6.375 C28.053125 7.674375 28.053125 7.674375 29 9 C29.66 9.66 30.32 10.32 31 11 C28.21788056 10.62403791 26.4120716 10.32681541 24.1875 8.5625 C23 7 23 7 23 5 C17.06 5.495 17.06 5.495 11 6 C10.67 5.01 10.34 4.02 10 3 C9.32453125 3.01160156 8.6490625 3.02320313 7.953125 3.03515625 C6.61507812 3.04869141 6.61507812 3.04869141 5.25 3.0625 C3.92742187 3.07990234 3.92742187 3.07990234 2.578125 3.09765625 C0.20302708 3.00769042 -1.73040906 2.66522493 -4 2 C-4.7425 1.814375 -5.485 1.62875 -6.25 1.4375 C-6.8275 1.293125 -7.405 1.14875 -8 1 C-5.05549278 0.01849759 -3.06481021 -0.1613058 0 0 Z " fill="#FFFFFF" transform="translate(122,27)"/>
<path d="M0 0 C2.97 0 5.94 0 9 0 C9.33 0.99 9.66 1.98 10 3 C13.25374924 4.03740882 13.25374924 4.03740882 17.0625 4.6875 C18.35285156 4.93886719 19.64320313 5.19023438 20.97265625 5.44921875 C21.97167969 5.63097656 22.97070312 5.81273437 24 6 C24 6.66 24 7.32 24 8 C26.64 8.66 29.28 9.32 32 10 C32.495 11.98 32.495 11.98 33 14 C33.66 14.33 34.32 14.66 35 15 C34.01 15 33.02 15 32 15 C31.67 14.01 31.34 13.02 31 12 C29.1346755 10.98245132 29.1346755 10.98245132 26.9375 10.3125 C26.20402344 10.06113281 25.47054687 9.80976562 24.71484375 9.55078125 C24.14894531 9.36902344 23.58304688 9.18726563 23 9 C23 8.34 23 7.68 23 7 C22.00419922 6.92652344 22.00419922 6.92652344 20.98828125 6.8515625 C12.21792619 6.10896309 12.21792619 6.10896309 8 4 C8 3.01 8 2.02 8 1 C5.36 1 2.72 1 0 1 C0 0.67 0 0.34 0 0 Z " fill="#FFFFFF" transform="translate(129,36)"/>
<path d="M0 0 C4.44355888 0.02987266 7.96999406 0.17957355 12.01171875 2.265625 C12.19921875 5.140625 12.19921875 5.140625 12.01171875 8.265625 C8.7934181 10.41115877 7.74385368 10.56146368 4.01171875 10.578125 C2.71234375 10.60326172 2.71234375 10.60326172 1.38671875 10.62890625 C-1.43742915 10.1969231 -2.31275925 9.54303354 -3.98828125 7.265625 C-4.30078125 4.703125 -4.30078125 4.703125 -3.98828125 2.265625 C-1.98828125 0.265625 -1.98828125 0.265625 0 0 Z M-2.98828125 3.265625 C-2.62146467 6.20015761 -2.12390879 7.12999746 0.01171875 9.265625 C5.89508778 9.77528913 5.89508778 9.77528913 11.01171875 7.265625 C11.01171875 5.945625 11.01171875 4.625625 11.01171875 3.265625 C6.42617724 1.04233215 0.93901647 -0.66167272 -2.98828125 3.265625 Z " fill="#FFFFFF" transform="translate(121.98828125,79.734375)"/>
<path d="M0 0 C4.01838288 0.05768014 6.70446193 0.40094826 9.75 3.25 C10.0625 5.9375 10.0625 5.9375 9.75 8.25 C0.43421053 10.77631579 0.43421053 10.77631579 -3.25 10.25 C-5.125 9.125 -5.125 9.125 -6.25 7.25 C-5.80396599 1.6745749 -5.57121729 0.11068644 0 0 Z M-3.25 1.25 C-3.91 2.9 -4.57 4.55 -5.25 6.25 C-4.0420725 7.86056809 -4.0420725 7.86056809 -2.25 9.25 C-0.0209548 9.43409918 -0.0209548 9.43409918 2.3125 9 C3.09753906 8.89171875 3.88257813 8.7834375 4.69140625 8.671875 C6.80183551 8.33180814 6.80183551 8.33180814 8.75 7.25 C8.75 6.26 8.75 5.27 8.75 4.25 C4.84251769 1.05296902 1.67991345 0.96000509 -3.25 1.25 Z " fill="#FFFFFF" transform="translate(255.25,78.75)"/>
<path d="M0 0 C2.5625 1.5 2.5625 1.5 4 3 C3.34 4.65 2.68 6.3 2 8 C-6.03501094 9.61050328 -6.03501094 9.61050328 -10.0625 7.0625 C-10.701875 6.381875 -11.34125 5.70125 -12 5 C-11.625 3.0625 -11.625 3.0625 -11 1 C-7.56928684 -0.71535658 -3.75941181 -0.4006478 0 0 Z M-9.9375 2.5 C-10.288125 2.995 -10.63875 3.49 -11 4 C-9.14255768 6.37339853 -8.02152312 6.9940468 -5.0625 7.8125 C-1.89975932 8.00613718 -0.60614131 7.70401547 2 6 C1.65213292 4.02463255 1.65213292 4.02463255 1 2 C-2.58958084 0.20520958 -6.7157475 0.00574 -9.9375 2.5 Z " fill="#FFFFFF" transform="translate(236,79)"/>
<path d="M0 0 C0.33 0.99 0.66 1.98 1 3 C1.99 3 2.98 3 4 3 C4 7.29 4 11.58 4 16 C0.59156258 13.11593757 -0.86591384 11.6291735 -1.8125 7.1875 C-1.874375 6.135625 -1.93625 5.08375 -2 4 C-1.67 4.99 -1.34 5.98 -1 7 C-0.34 7 0.32 7 1 7 C0.67 4.69 0.34 2.38 0 0 Z M2 7 C3 10 3 10 3 10 Z " fill="#FFFFFF" transform="translate(300,85)"/>
<path d="M0 0 C1.97909398 -0.02686553 3.95828971 -0.04633375 5.9375 -0.0625 C7.03964844 -0.07410156 8.14179687 -0.08570313 9.27734375 -0.09765625 C12 0 12 0 13 1 C15.1183133 1.37347673 17.24516595 1.69909629 19.375 2 C22.73946018 2.47744002 25.77494297 2.92498099 29 4 C29.33 4.66 29.66 5.32 30 6 C31.88764903 6.68472665 31.88764903 6.68472665 34.0625 7.125 C34.79597656 7.29257812 35.52945313 7.46015625 36.28515625 7.6328125 C36.85105469 7.75398438 37.41695312 7.87515625 38 8 C34.06329512 9.31223496 31.87511856 8.24296256 28 7 C28 6.34 28 5.68 28 5 C26.85660156 4.86722656 25.71320313 4.73445313 24.53515625 4.59765625 C23.0442438 4.4194969 21.55335982 4.24109918 20.0625 4.0625 C19.30775391 3.97548828 18.55300781 3.88847656 17.77539062 3.79882812 C12.11328125 3.11328125 12.11328125 3.11328125 11 2 C9.15108054 1.76636119 7.29511969 1.58696365 5.4375 1.4375 C4.42558594 1.35371094 3.41367188 1.26992188 2.37109375 1.18359375 C1.19740234 1.09271484 1.19740234 1.09271484 0 1 C0 0.67 0 0.34 0 0 Z " fill="#FFFFFF" transform="translate(104,40)"/>
<path d="M0 0 C1.16378932 1.74568399 2.29405805 3.51654185 3.33203125 5.33984375 C7.7578444 13.10545258 12.30961173 16.72756207 20 21 C20.99 21.66 21.98 22.32 23 23 C16.03601305 22.85183006 11.91293108 19.78810161 7 15 C3.1718506 10.3886384 0.31517547 6.14592171 0 0 Z " fill="#FFFFFF" transform="translate(60,103)"/>
<path d="M0 0 C3.83171162 1.76980402 6.8963861 4.15601771 10.1953125 6.7578125 C11.90943097 8.18899425 11.90943097 8.18899425 14 8 C14.5775 9.051875 15.155 10.10375 15.75 11.1875 C17.5661006 14.3786482 19.61991121 17.19489535 22 20 C21.67 20.66 21.34 21.32 21 22 C19.66081194 20.37982158 18.3288031 18.75370657 17 17.125 C16.2575 16.22007813 15.515 15.31515625 14.75 14.3828125 C13 12 13 12 13 10 C12.43796875 9.9175 11.8759375 9.835 11.296875 9.75 C8.28128707 8.76531823 6.58230532 7.13413559 4.25 5 C3.45078125 4.278125 2.6515625 3.55625 1.828125 2.8125 C1.22484375 2.214375 0.6215625 1.61625 0 1 C0 0.67 0 0.34 0 0 Z " fill="#FFFFFF" transform="translate(190,65)"/>
<path d="M0 0 C0.99 0.33 1.98 0.66 3 1 C4.35048825 1.14516368 5.70603773 1.24639827 7.0625 1.31640625 C7.85487061 1.35838135 8.64724121 1.40035645 9.46362305 1.44360352 C10.30062744 1.48283936 11.13763184 1.5220752 12 1.5625 C13.27580933 1.62618774 13.27580933 1.62618774 14.57739258 1.69116211 C20.72085686 1.98153793 26.84948709 2.1243924 33 2 C33 2.33 33 2.66 33 3 C20.61304305 4.39541109 8.4116568 3.70735857 -4 3 C-2.1875 1.4375 -2.1875 1.4375 0 0 Z " fill="#FFFFFF" transform="translate(216,33)"/>
<path d="M0 0 C3.63 0 7.26 0 11 0 C11.33 0.66 11.66 1.32 12 2 C13.155 1.67 14.31 1.34 15.5 1 C19.81792243 -0.07372849 23.55625656 -0.30127074 28 0 C28.99 0.66 29.98 1.32 31 2 C30.14277344 2.06058594 29.28554687 2.12117188 28.40234375 2.18359375 C22.56395127 2.61143536 16.77942728 3.059163 11 4 C10.67 3.01 10.34 2.02 10 1 C6.7 1 3.4 1 0 1 C0 0.67 0 0.34 0 0 Z " fill="#FFFFFF" transform="translate(186,44)"/>
<path d="M0 0 C0.33 0 0.66 0 1 0 C0.48594831 4.96916636 -0.23384882 9.29026351 -2 14 C-2.66 13.67 -3.32 13.34 -4 13 C-4.99 13.99 -5.98 14.98 -7 16 C-7 13 -7 13 -5 11 C-4.60235737 9.01178687 -4.26224651 7.01055661 -4 5 C-3.34 5 -2.68 5 -2 5 C-1.34 3.35 -0.68 1.7 0 0 Z " fill="#FFFFFF" transform="translate(288,87)"/>
<path d="M0 0 C5.25926517 0.52660165 9.51787556 1.86931202 14.3125 4.125 C16.52853996 5.16268781 18.71753053 6.10595878 21 7 C21.66 6.67 22.32 6.34 23 6 C23 7.32 23 8.64 23 10 C21.99839844 9.5978125 21.99839844 9.5978125 20.9765625 9.1875 C18.7657951 8.30551406 16.5517217 7.43180553 14.3359375 6.5625 C13.01560021 6.04172951 11.69528819 5.52089495 10.375 5 C9.70726562 4.73960938 9.03953125 4.47921875 8.3515625 4.2109375 C5.32229134 3.01134612 2.72281824 1.81521216 0 0 Z " fill="#FFFFFF" transform="translate(148,26)"/>
<path d="M0 0 C1.32 0.33 2.64 0.66 4 1 C4 2.98 4 4.96 4 7 C4.66 7.33 5.32 7.66 6 8 C4.68 8.99 3.36 9.98 2 11 C1.34 7.37 0.68 3.74 0 0 Z M2 2 C3 4 3 4 3 4 Z " fill="#FFFFFF" transform="translate(270,71)"/>
<path d="M0 0 C2.59470382 3.10769684 3.91485498 6.04243682 5.1875 9.875 C5.70376953 11.38707031 5.70376953 11.38707031 6.23046875 12.9296875 C7.01935313 16.07721603 7.13983087 18.76942479 7 22 C6.67 22 6.34 22 6 22 C5.73445312 21.04738281 5.46890625 20.09476563 5.1953125 19.11328125 C4.84210938 17.85902344 4.48890625 16.60476562 4.125 15.3125 C3.77695313 14.07113281 3.42890625 12.82976562 3.0703125 11.55078125 C2.0900715 8.09460361 2.0900715 8.09460361 0.8671875 5.23046875 C0 3 0 3 0 0 Z " fill="#FFFFFF" transform="translate(132,158)"/>
<path d="M0 0 C5.61 0.33 11.22 0.66 17 1 C17.33 2.32 17.66 3.64 18 5 C19.65 5 21.3 5 23 5 C23 5.33 23 5.66 23 6 C21.02 6 19.04 6 17 6 C16.67 5.01 16.34 4.02 16 3 C10.72 2.34 5.44 1.68 0 1 C0 0.67 0 0.34 0 0 Z " fill="#FFFFFF" transform="translate(106,32)"/>
<path d="M0 0 C0 3.40836455 -0.79015757 4.98225926 -2.3125 8 C-2.74175781 8.86625 -3.17101562 9.7325 -3.61328125 10.625 C-4.89037874 12.81225429 -6.12111644 14.32498358 -8 16 C-8.66 15.67 -9.32 15.34 -10 15 C-9.60167969 14.49210938 -9.20335938 13.98421875 -8.79296875 13.4609375 C-5.70834536 9.45317864 -3.13715125 5.61174743 -1 1 C-0.67 0.67 -0.34 0.34 0 0 Z " fill="#FFFFFF" transform="translate(86,161)"/>
<path d="M0 0 C0.125 7.625 0.125 7.625 -1 11 C-1.66 11 -2.32 11 -3 11 C-4.35064935 3.51003542 -4.35064935 3.51003542 -2.625 1 C-1 0 -1 0 0 0 Z " fill="#FFFFFF" transform="translate(305,101)"/>
<path d="M0 0 C0.99 0.33 1.98 0.66 3 1 C2.625 3.4375 2.625 3.4375 2 6 C1.01 6.495 1.01 6.495 0 7 C-0.33 6.01 -0.66 5.02 -1 4 C-1.99 5.32 -2.98 6.64 -4 8 C-4.66 7.67 -5.32 7.34 -6 7 C-4.02 4.69 -2.04 2.38 0 0 Z " fill="#FFFFFF" transform="translate(299,98)"/>
<path d="M0 0 C1.40668945 0.00966797 1.40668945 0.00966797 2.84179688 0.01953125 C4.30649414 0.04466797 4.30649414 0.04466797 5.80078125 0.0703125 C6.78884766 0.07933594 7.77691406 0.08835938 8.79492188 0.09765625 C11.2346189 0.1212282 13.67382822 0.15413228 16.11328125 0.1953125 C16.11328125 0.5253125 16.11328125 0.8553125 16.11328125 1.1953125 C8.19328125 1.5253125 0.27328125 1.8553125 -7.88671875 2.1953125 C-4.63281887 0.02604591 -3.75275918 -0.04548799 0 0 Z " fill="#FFFFFF" transform="translate(87.88671875,58.8046875)"/>
<path d="M0 0 C0.33 0 0.66 0 1 0 C0.67 7.26 0.34 14.52 0 22 C-0.66 21.67 -1.32 21.34 -2 21 C-1.85845864 18.43719792 -1.71191438 15.87484515 -1.5625 13.3125 C-1.52318359 12.59126953 -1.48386719 11.87003906 -1.44335938 11.12695312 C-1.21814322 7.33292718 -0.87160695 3.71348508 0 0 Z " fill="#FFFFFF" transform="translate(256,175)"/>
<path d="M0 0 C2.14481827 2.81266588 4.16531633 5.68055066 6.125 8.625 C6.64320313 9.40101562 7.16140625 10.17703125 7.6953125 10.9765625 C9 13 9 13 10 15 C6.17090709 13.52663164 4.78616322 11.56408372 2.75 8.0625 C2.22921875 7.18722656 1.7084375 6.31195313 1.171875 5.41015625 C0 3 0 3 0 0 Z " fill="#FFFFFF" transform="translate(216,99)"/>
<path d="M0 0 C0 0.33 0 0.66 0 1 C-7.01805857 2.10087193 -13.90565767 2.09733092 -21 2 C-21 1.67 -21 1.34 -21 1 C-13.97252688 0.33411422 -7.05985273 -0.11766421 0 0 Z " fill="#FFFFFF" transform="translate(126,102)"/>
<path d="M0 0 C3 1 3 1 4.421875 3.14453125 C4.86015625 4.02496094 5.2984375 4.90539062 5.75 5.8125 C6.19859375 6.68519531 6.6471875 7.55789062 7.109375 8.45703125 C8.06982104 11.19935744 8.02018585 12.3313431 7 15 C6.35309078 13.3962669 5.70751236 11.79199694 5.0625 10.1875 C4.52302734 8.84751953 4.52302734 8.84751953 3.97265625 7.48046875 C3.26386514 5.6729091 2.6139753 3.84192591 2 2 C1.34 2 0.68 2 0 2 C0 1.34 0 0.68 0 0 Z " fill="#FFFFFF" transform="translate(292,70)"/>
<path d="M0 0 C5.875 0.875 5.875 0.875 7 2 C8.51165654 2.39148761 10.03469632 2.73972457 11.5625 3.0625 C12.38878906 3.23910156 13.21507812 3.41570313 14.06640625 3.59765625 C14.70449219 3.73042969 15.34257812 3.86320312 16 4 C11.09894045 5.63368652 7.18995354 4.54088797 2.5625 2.4375 C1.716875 1.963125 0.87125 1.48875 0 1 C0 0.67 0 0.34 0 0 Z " fill="#FFFFFF" transform="translate(142,49)"/>
<path d="M0 0 C0.33 1.32 0.66 2.64 1 4 C0.34 3.34 -0.32 2.68 -1 2 C-4.12814514 1.75639927 -4.12814514 1.75639927 -7.625 1.875 C-9.40777344 1.90207031 -9.40777344 1.90207031 -11.2265625 1.9296875 C-12.59941406 1.96449219 -12.59941406 1.96449219 -14 2 C-14 1.67 -14 1.34 -14 1 C-9.32798795 -0.20568053 -4.78503708 -0.09382426 0 0 Z " fill="#FFFFFF" transform="translate(167,37)"/>
<path d="M0 0 C0.53625 0.495 1.0725 0.99 1.625 1.5 C1.04492188 1.4278125 0.46484375 1.355625 -0.1328125 1.28125 C-4.57587574 0.7533613 -8.89131578 0.38503374 -13.375 0.5 C-13.375 0.17 -13.375 -0.16 -13.375 -0.5 C-4.20714286 -2.65714286 -4.20714286 -2.65714286 0 0 Z " fill="#FFFFFF" transform="translate(210.375,35.5)"/>
<path d="M0 0 C1.5625 1.75 1.5625 1.75 3 4 C2.6875 6.25 2.6875 6.25 2 8 C1.34 8 0.68 8 0 8 C-0.79953138 4.71303767 -1.09658936 3.28976808 0 0 Z M0 4 C1 6 1 6 1 6 Z " fill="#FFFFFF" transform="translate(267,70)"/>
<path d="M0 0 C1.32 0.66 2.64 1.32 4 2 C4 2.66 4 3.32 4 4 C1.69 4.33 -0.62 4.66 -3 5 C-1.68 4.01 -0.36 3.02 1 2 C0.67 1.34 0.34 0.68 0 0 Z " fill="#FFFFFF" transform="translate(114,91)"/>
<path d="M0 0 C0.99 0 1.98 0 3 0 C3 1.32 3 2.64 3 4 C1.68 3.67 0.36 3.34 -1 3 C-0.67 2.01 -0.34 1.02 0 0 Z " fill="#FFFFFF" transform="translate(254,82)"/>
<path d="M0 0 C3.63 0.33 7.26 0.66 11 1 C11 1.33 11 1.66 11 2 C7.37 1.67 3.74 1.34 0 1 C0 0.67 0 0.34 0 0 Z " fill="#FFFFFF" transform="translate(104,60)"/>
<path d="M0 0 C0.66 0.33 1.32 0.66 2 1 C2 1.99 2 2.98 2 4 C1.01 4.495 1.01 4.495 0 5 C-0.66 4.67 -1.32 4.34 -2 4 C-2 3.01 -2 2.02 -2 1 C-1.34 0.67 -0.68 0.34 0 0 Z " fill="#FFFFFF" transform="translate(240,89)"/>
<path d="M0 0 C2.62187494 1.04874998 3.79371361 1.64931313 5.25 4.125 C5.4975 4.74375 5.745 5.3625 6 6 C3.97945196 4.35830472 1.97956942 2.69088222 0 1 C0 0.67 0 0.34 0 0 Z " fill="#FFFFFF" transform="translate(171,36)"/>
<path d="M0 0 C2 1 4 2 6 3 C5.67 3.66 5.34 4.32 5 5 C3.35 3.35 1.7 1.7 0 0 Z " fill="#FFFFFF" transform="translate(135,71)"/>
<path d="M0 0 C0.66 0.33 1.32 0.66 2 1 C0.515 3.475 0.515 3.475 -1 6 C-1.33 5.34 -1.66 4.68 -2 4 C-1.0625 1.875 -1.0625 1.875 0 0 Z " fill="#FFFFFF" transform="translate(226,153)"/>
<path d="M0 0 C0.99 0 1.98 0 3 0 C3 0.99 3 1.98 3 3 C2.01 3 1.02 3 0 3 C0 2.01 0 1.02 0 0 Z " fill="#FFFFFF" transform="translate(230,82)"/>
<path d="M0 0 C0.33 0 0.66 0 1 0 C1 2.64 1 5.28 1 8 C0.67 8 0.34 8 0 8 C0 5.36 0 2.72 0 0 Z " fill="#FFFFFF" transform="translate(257,167)"/>
<path d="M0 0 C2.4375 0.375 2.4375 0.375 5 1 C5.33 1.66 5.66 2.32 6 3 C4.02 2.34 2.04 1.68 0 1 C0 0.67 0 0.34 0 0 Z " fill="#FFFFFF" transform="translate(126,66)"/>
<path d="M0 0 C0.66 0.33 1.32 0.66 2 1 C0.02 1.66 -1.96 2.32 -4 3 C-3 1 -3 1 0 0 Z " fill="#FFFFFF" transform="translate(74,62)"/>
<path d="M0 0 C0.33 0 0.66 0 1 0 C1 1.65 1 3.3 1 5 C0.01 5.495 0.01 5.495 -1 6 C-0.67 4.02 -0.34 2.04 0 0 Z " fill="#FFFFFF" transform="translate(300,108)"/>
<path d="M0 0 C0.33 1.32 0.66 2.64 1 4 C0.01 4.495 0.01 4.495 -1 5 C-0.67 3.35 -0.34 1.7 0 0 Z " fill="#FFFFFF" transform="translate(148,106)"/>
<path d="M0 0 C0.33 0.66 0.66 1.32 1 2 C-0.65 2 -2.3 2 -4 2 C-2.68 1.34 -1.36 0.68 0 0 Z " fill="#FFFFFF" transform="translate(246,93)"/>
<path d="M0 0 C0.66 0 1.32 0 2 0 C2.33 1.32 2.66 2.64 3 4 C1.97895449 3.02149805 0.9793879 2.02019573 0 1 C0 0.67 0 0.34 0 0 Z " fill="#FFFFFF" transform="translate(141,76)"/>
<path d="M0 0 C2.475 0.495 2.475 0.495 5 1 C4.01 1.33 3.02 1.66 2 2 C1.34 1.34 0.68 0.68 0 0 Z " fill="#FFFFFF" transform="translate(121,64)"/>
<path d="M0 0 C1.485 0.99 1.485 0.99 3 2 C2.67 2.66 2.34 3.32 2 4 C1.34 2.68 0.68 1.36 0 0 Z " fill="#FFFFFF" transform="translate(177,42)"/>
<path d="M0 0 C0 3 0 3 0 3 Z " fill="#FFFFFF" transform="translate(223,159)"/>
<path d="M0 0 C0.99 0.33 1.98 0.66 3 1 C2.01 1 1.02 1 0 1 C0 0.67 0 0.34 0 0 Z " fill="#FFFFFF" transform="translate(226,114)"/>
<path d="M0 0 C4 1 4 1 4 1 Z " fill="#FFFFFF" transform="translate(117,63)"/>
<path d="M0 0 C4 1 4 1 4 1 Z " fill="#FFFFFF" transform="translate(76,61)"/>
<path d="M0 0 C4 1 4 1 4 1 Z " fill="#FFFFFF" transform="translate(217,44)"/>
<path d="M0 0 C4 1 4 1 4 1 Z " fill="#FFFFFF" transform="translate(110,27)"/>
<path d="M0 0 C0.33 0.66 0.66 1.32 1 2 C0.34 1.67 -0.32 1.34 -1 1 C-0.67 0.67 -0.34 0.34 0 0 Z " fill="#FFFFFF" transform="translate(75,177)"/>
<path d="" fill="#FFFFFF" transform="translate(0,0)"/>
<path d="M0 0 C0.99 0.495 0.99 0.495 2 1 C1.01 1.495 1.01 1.495 0 2 C0 1.34 0 0.68 0 0 Z " fill="#FFFFFF" transform="translate(124,84)"/>
<path d="" fill="#FFFFFF" transform="translate(0,0)"/>
<path d="M0 0 C2 1 2 1 2 1 Z " fill="#FFFFFF" transform="translate(132,69)"/>
<path d="M0 0 C2 1 2 1 2 1 Z " fill="#FFFFFF" transform="translate(115,62)"/>
<path d="M0 0 C2 1 2 1 2 1 Z " fill="#FFFFFF" transform="translate(274,61)"/>
<path d="" fill="#FFFFFF" transform="translate(0,0)"/>
<path d="" fill="#FFFFFF" transform="translate(0,0)"/>
<path d="" fill="#FFFFFF" transform="translate(0,0)"/>
<path d="" fill="#FFFFFF" transform="translate(0,0)"/>
<path d="" fill="#FFFFFF" transform="translate(0,0)"/>
<path d="" fill="#FFFFFF" transform="translate(0,0)"/>
<path d="" fill="#FFFFFF" transform="translate(0,0)"/>
</svg>
