<?xml version="1.0" encoding="UTF-8"?>
<svg version="1.1" xmlns="http://www.w3.org/2000/svg" width="350" height="230">
<path d="M0 0 C0 0.66 0 1.32 0 2 C0.94101563 1.91621094 1.88203125 1.83242187 2.8515625 1.74609375 C4.09679687 1.64425781 5.34203125 1.54242188 6.625 1.4375 C7.85476562 1.33308594 9.08453125 1.22867188 10.3515625 1.12109375 C13.76732343 1.00772267 16.65366186 1.39973878 20 2 C22.33491639 1.67794257 24.66842508 1.34541851 27 1 C28.0209375 1.2784375 28.0209375 1.2784375 29.0625 1.5625 C32.03058964 2.23271379 34.22945164 1.07043914 37 0 C37 0.66 37 1.32 37 2 C37.99 2.33 38.98 2.66 40 3 C38.7315625 2.9690625 38.7315625 2.9690625 37.4375 2.9375 C33.93478406 2.9264881 33.93478406 2.9264881 30.25 3.5625 C27 4 27 4 25 3 C23.41202306 3.11424295 21.8281152 3.28958464 20.25 3.5 C16.21507322 3.95537031 13.00198731 3.75037262 9 3 C5.66491445 2.90931792 2.33550535 2.94067283 -1 3 C-1 2.34 -1 1.68 -1 1 C-2.18078125 1.22816406 -3.3615625 1.45632812 -4.578125 1.69140625 C-6.13533463 1.98221046 -7.69263094 2.2725508 -9.25 2.5625 C-10.02730469 2.71396484 -10.80460938 2.86542969 -11.60546875 3.02148438 C-12.35957031 3.16005859 -13.11367187 3.29863281 -13.890625 3.44140625 C-14.58188477 3.57232666 -15.27314453 3.70324707 -15.98535156 3.83813477 C-18.21287942 4.01710362 -19.87506962 3.65206197 -22 3 C-19.45953542 2.49311395 -16.91791124 1.99433126 -14.375 1.5 C-13.66214844 1.35691406 -12.94929687 1.21382813 -12.21484375 1.06640625 C-8.07855065 0.26950574 -4.23566321 -0.16034056 0 0 Z " fill="#FFFFFF" transform="translate(157,119)"/>
<path d="M0 0 C0.99 0.99 1.98 1.98 3 3 C3.99 3.66 4.98 4.32 6 5 C3.525 4.505 3.525 4.505 1 4 C1 3.34 1 2.68 1 2 C0.39671875 2.3609375 -0.2065625 2.721875 -0.828125 3.09375 C-2.02695313 3.78984375 -2.02695313 3.78984375 -3.25 4.5 C-4.03890625 4.9640625 -4.8278125 5.428125 -5.640625 5.90625 C-8 7 -8 7 -12 7 C-12.66 6.34 -13.32 5.68 -14 5 C-14.99 5.33 -15.98 5.66 -17 6 C-19.35417411 6.01997481 -21.70888531 5.99256932 -24.0625 5.9375 C-30.265906 5.84734514 -35.9952446 6.41757034 -42 8 C-41 6 -41 6 -37.875 4.875 C-32.49093661 3.6167678 -27.08147031 3.8970373 -21.5859375 4.02734375 C-18.26102719 4.0019904 -15.25467848 3.6459285 -12 3 C-11.67 3.99 -11.34 4.98 -11 6 C-5.555 3.03 -5.555 3.03 0 0 Z " fill="#FFFFFF" transform="translate(153,174)"/>
<path d="M0 0 C0 0.66 0 1.32 0 2 C0.90492188 1.96519531 0.90492188 1.96519531 1.828125 1.9296875 C3.02695313 1.90261719 3.02695313 1.90261719 4.25 1.875 C5.03890625 1.85179687 5.8278125 1.82859375 6.640625 1.8046875 C9.20731941 2.0171622 10.7916067 2.71345895 13 4 C11.0625 4.5625 11.0625 4.5625 9 5 C8.505 4.505 8.505 4.505 8 4 C6.48530552 3.76807135 4.96245438 3.58784762 3.4375 3.4375 C2.19806641 3.31181641 2.19806641 3.31181641 0.93359375 3.18359375 C0.29550781 3.12300781 -0.34257812 3.06242187 -1 3 C-1 2.34 -1 1.68 -1 1 C-1.63421875 1.28875 -2.2684375 1.5775 -2.921875 1.875 C-12.88713385 5.83908087 -22.42758224 5.37609391 -33 5 C-29.29365953 2.52910635 -26.630982 2.89063977 -22.375 3.0625 C-16.67941782 3.19535646 -12.11474329 2.84746709 -6.7734375 0.66796875 C-4.47247763 -0.19869234 -2.43172379 -0.23532811 0 0 Z " fill="#FFFFFF" transform="translate(196,60)"/>
<path d="M0 0 C2.92761527 0.32529059 5.32615294 0.59569177 7.875 2.125 C9.70099685 5.16832808 9.42460581 7.54249555 9 11 C7 13.4375 7 13.4375 5 15 C5.66 15.33 6.32 15.66 7 16 C7.3125 18.25 7.3125 18.25 7 21 C4.75 23.375 4.75 23.375 2 25 C-0.3125 24.75 -0.3125 24.75 -2 24 C-1.05125 23.5875 -0.1025 23.175 0.875 22.75 C4.00716624 20.9959869 4.86500606 20.29148243 6 17 C3.525 16.01 3.525 16.01 1 15 C1.804375 14.360625 2.60875 13.72125 3.4375 13.0625 C6.51366146 10.89693577 6.51366146 10.89693577 7.375 7.625 C7.25125 6.75875 7.1275 5.8925 7 5 C4.66057656 3.2463436 4.66057656 3.2463436 2 2 C1.34 1.34 0.68 0.68 0 0 Z " fill="#FFFFFF" transform="translate(69,83)"/>
<path d="M0 0 C0 0.33 0 0.66 0 1 C-2.31 1.66 -4.62 2.32 -7 3 C-6.566875 3.86625 -6.566875 3.86625 -6.125 4.75 C-5.08333333 6.83333333 -4.04166667 8.91666667 -3 11 C-4.65 11.33 -6.3 11.66 -8 12 C-5.14723863 14.93200474 -2.34920216 17.64315404 1 20 C-3.39366678 19.49786665 -5.87182342 18.12817658 -9 15 C-9.8125 12.25 -9.8125 12.25 -10 10 C-8.68 10 -7.36 10 -6 10 C-6.515625 9.443125 -7.03125 8.88625 -7.5625 8.3125 C-9 6 -9 6 -8.8125 3.3125 C-7.2832577 -1.03995885 -4.08210327 -0.08874138 0 0 Z " fill="#FFFFFF" transform="translate(179,7)"/>
<path d="M0 0 C3.18491808 2.10069065 3.73880978 2.15689889 7.3125 1.6875 C9.106875 1.31625 9.106875 1.31625 10.9375 0.9375 C8.06045319 3.81454681 5.95329688 3.8036401 1.9375 3.9375 C1.07125 3.2775 0.205 2.6175 -0.6875 1.9375 C-5.94752048 -1.17954917 -11.18691288 -0.10672199 -17.0625 0.9375 C-18.37541016 1.49050781 -18.37541016 1.49050781 -19.71484375 2.0546875 C-22.34956051 3.04544622 -23.46761286 2.89856931 -26.0625 1.9375 C-18.13379109 -1.20664319 -7.70934208 -5.19200589 0 0 Z " fill="#FFFFFF" transform="translate(124.0625,122.0625)"/>
<path d="M0 0 C0 0.99 0 1.98 0 3 C2.97 2.01 5.94 1.02 9 0 C9 0.66 9 1.32 9 2 C9.66386719 1.91621094 10.32773438 1.83242187 11.01171875 1.74609375 C19.78207381 0.73462214 19.78207381 0.73462214 24 2 C24 2.33 24 2.66 24 3 C22.69804688 2.98839844 21.39609375 2.97679688 20.0546875 2.96484375 C18.32812644 2.95546027 16.60156382 2.94636066 14.875 2.9375 C14.0190625 2.92912109 13.163125 2.92074219 12.28125 2.91210938 C7.73321589 2.89461694 3.47616836 3.06807642 -1 4 C-1 3.01 -1 2.02 -1 1 C-2.423125 1.9590625 -2.423125 1.9590625 -3.875 2.9375 C-7 5 -7 5 -9 6 C-6.97377245 1.32409027 -5.29661848 0 0 0 Z " fill="#FFFFFF" transform="translate(93,93)"/>
<path d="M0 0 C1.44335311 0.01005821 2.88671306 0.019179 4.33007812 0.02734375 C7.82436394 0.04911309 11.31838637 0.08348325 14.8125 0.125 C14.4825 0.785 14.1525 1.445 13.8125 2.125 C12.96018799 2.11976318 12.10787598 2.11452637 11.22973633 2.10913086 C8.05216727 2.09203668 4.87462175 2.07952438 1.69702148 2.07006836 C0.32461778 2.06505546 -1.04778062 2.05824342 -2.42016602 2.04956055 C-4.39857651 2.03736143 -6.3770268 2.03227752 -8.35546875 2.02734375 C-9.54422607 2.02210693 -10.7329834 2.01687012 -11.95776367 2.01147461 C-14.84620689 2.11300353 -17.3741231 2.51905561 -20.1875 3.125 C-22.52051986 3.16324623 -24.85461508 3.17074284 -27.1875 3.125 C-27.1875 2.795 -27.1875 2.465 -27.1875 2.125 C-18.10485674 -0.01621052 -9.26039003 -0.11341437 0 0 Z " fill="#FFFFFF" transform="translate(283.1875,61.875)"/>
<path d="M0 0 C0 0.66 0 1.32 0 2 C3.465 1.505 3.465 1.505 7 1 C7 0.34 7 -0.32 7 -1 C7.99 -0.67 8.98 -0.34 10 0 C9.34 0 8.68 0 8 0 C8 0.66 8 1.32 8 2 C3.545 2.495 3.545 2.495 -1 3 C-1 2.34 -1 1.68 -1 1 C-13.87 1.99 -13.87 1.99 -27 3 C-27 2.34 -27 1.68 -27 1 C-22.87576495 0.63651564 -18.75054384 0.28578938 -14.625 -0.0625 C-13.449375 -0.16626953 -12.27375 -0.27003906 -11.0625 -0.37695312 C-9.94101563 -0.47041016 -8.81953125 -0.56386719 -7.6640625 -0.66015625 C-6.62717285 -0.74918213 -5.5902832 -0.83820801 -4.52197266 -0.92993164 C-2 -1 -2 -1 0 0 Z " fill="#FFFFFF" transform="translate(129,40)"/>
<path d="M0 0 C0.99 0.33 1.98 0.66 3 1 C0.06542335 2.65780184 -2.21044423 3.2791067 -5.5625 3.5 C-9.28162713 3.80037003 -12.84345252 4.32081732 -16.5 5.0625 C-21.71361451 6.06654844 -26.70579685 6.20671509 -32 6 C-31.67 5.34 -31.34 4.68 -31 4 C-29.865625 4.04125 -28.73125 4.0825 -27.5625 4.125 C-23.66770064 4.13182101 -20.27529729 3.44049688 -16.51171875 2.5078125 C-12.54132405 1.70508884 -8.54125009 1.49875001 -4.50390625 1.24609375 C-2.00416782 1.15107676 -2.00416782 1.15107676 0 0 Z " fill="#FFFFFF" transform="translate(242,174)"/>
<path d="M0 0 C2.66666667 0 5.33333333 0 8 0 C8 0.99 8 1.98 8 3 C9.65 2.67 11.3 2.34 13 2 C13 2.66 13 3.32 13 4 C14.32 3.67 15.64 3.34 17 3 C17.33 3.66 17.66 4.32 18 5 C19.32 4.34 20.64 3.68 22 3 C22 3.66 22 4.32 22 5 C19 7 19 7 16 7 C16 6.34 16 5.68 16 5 C15.443125 4.95101562 14.88625 4.90203125 14.3125 4.8515625 C9.03432735 4.33444423 4.11637635 3.39537537 -1 2 C-0.67 1.34 -0.34 0.68 0 0 Z " fill="#FFFFFF" transform="translate(263,118)"/>
<path d="M0 0 C0.33 0 0.66 0 1 0 C1 2.31 1 4.62 1 7 C3.64 7 6.28 7 9 7 C9 7.33 9 7.66 9 8 C6.03 8 3.06 8 0 8 C0 12.29 0 16.58 0 21 C-0.33 21 -0.66 21 -1 21 C-1 16.71 -1 12.42 -1 8 C-3.97 8 -6.94 8 -10 8 C-10 7.67 -10 7.34 -10 7 C-6.7 7 -3.4 7 0 7 C0 4.69 0 2.38 0 0 Z " fill="#FFFFFF" transform="translate(191,168)"/>
<path d="M0 0 C0.66 0.33 1.32 0.66 2 1 C0.35 1.66 -1.3 2.32 -3 3 C-3 3.66 -3 4.32 -3 5 C-0.03 5.495 -0.03 5.495 3 6 C2.505 6.763125 2.01 7.52625 1.5 8.3125 C-0.24368308 10.92363751 -0.24368308 10.92363751 0 14 C1.43750191 15.68798827 1.43750191 15.68798827 3 17 C0.525 16.01 0.525 16.01 -2 15 C-1.67 12.36 -1.34 9.72 -1 7 C-2.32 6.67 -3.64 6.34 -5 6 C-4.75 4.125 -4.75 4.125 -4 2 C-2.0625 0.6875 -2.0625 0.6875 0 0 Z " fill="#FFFFFF" transform="translate(142,88)"/>
<path d="M0 0 C0.99 0.33 1.98 0.66 3 1 C0.36 2.65 -2.28 4.3 -5 6 C-3.44298069 10.67105792 -0.91552627 14.08705685 2 18 C-2.45941942 16.51352686 -4.91674861 13.04395858 -7 9 C-7.1875 6.3125 -7.1875 6.3125 -6 4 C-3.125 1.625 -3.125 1.625 0 0 Z " fill="#FFFFFF" transform="translate(220,55)"/>
<path d="M0 0 C0.33 0.99 0.66 1.98 1 3 C3.97 3.495 3.97 3.495 7 4 C7 4.33 7 4.66 7 5 C3.625 5.1875 3.625 5.1875 0 5 C-0.66 4.01 -1.32 3.02 -2 2 C-2.763125 2.495 -3.52625 2.99 -4.3125 3.5 C-9.28101775 5.52109197 -13.70651036 5.25431356 -19 5 C-19 4.67 -19 4.34 -19 4 C-18.34773438 3.96261719 -17.69546875 3.92523438 -17.0234375 3.88671875 C-10.9904471 3.43290974 -5.62387198 0 0 0 Z " fill="#FFFFFF" transform="translate(81,177)"/>
<path d="M0 0 C1.12737713 3.38213139 1.06292002 4.64771379 0 8 C-2.40452847 11.32934711 -3.66140123 11.93228025 -7.75 12.75 C-9.35875 12.87375 -9.35875 12.87375 -11 13 C-8 11 -8 11 -5.4375 9.5625 C-2.76176498 8.0772081 -2.76176498 8.0772081 -1 5 C-2.32 4.34 -3.64 3.68 -5 3 C-3.35 2.01 -1.7 1.02 0 0 Z " fill="#FFFFFF" transform="translate(33,210)"/>
<path d="M0 0 C0.99 0.33 1.98 0.66 3 1 C1 3 -1 5 -3 7 C-3.38606152 12.01879978 -2.97663853 14.90712202 0 19 C-0.66 19 -1.32 19 -2 19 C-5 15.53846154 -5 15.53846154 -5 13 C-5.99 12.67 -6.98 12.34 -8 12 C-7.01 12 -6.02 12 -5 12 C-5.103125 11.13375 -5.20625 10.2675 -5.3125 9.375 C-4.88541057 4.76243413 -3.14957658 3.30705541 0 0 Z " fill="#FFFFFF" transform="translate(205,110)"/>
<path d="M0 0 C0.66 0 1.32 0 2 0 C2.66 1.32 3.32 2.64 4 4 C6.39591038 4.02712351 8.79150957 4.0468982 11.1875 4.0625 C11.86103516 4.07087891 12.53457031 4.07925781 13.22851562 4.08789062 C16.95434131 4.10606538 20.3788042 3.89299392 24 3 C23.67 3.66 23.34 4.32 23 5 C19.18300655 6.27233115 15.54297058 6.30147326 11.5625 6.375 C10.79873047 6.41238281 10.03496094 6.44976562 9.24804688 6.48828125 C7.05244174 6.52267715 5.14208917 6.48965225 3 6 C0.46484375 3.4765625 0.46484375 3.4765625 -1 1 C-0.67 0.67 -0.34 0.34 0 0 Z " fill="#FFFFFF" transform="translate(117,61)"/>
<path d="M0 0 C0.66 0 1.32 0 2 0 C2.33 0.66 2.66 1.32 3 2 C4.32 1.34 5.64 0.68 7 0 C7.66 0.99 8.32 1.98 9 3 C10.32 2.01 11.64 1.02 13 0 C13.66 1.32 14.32 2.64 15 4 C11.625 4.625 11.625 4.625 8 5 C7.34 4.34 6.68 3.68 6 3 C3.39719432 3.32041397 3.39719432 3.32041397 1 4 C0.67 2.68 0.34 1.36 0 0 Z " fill="#FFFFFF" transform="translate(234,117)"/>
<path d="M0 0 C-2 2 -2 2 -5 2.0625 C-5.99 2.041875 -6.98 2.02125 -8 2 C-8.99 2.495 -8.99 2.495 -10 3 C-11.83037287 3.12145993 -13.66564133 3.17543185 -15.5 3.1875 C-16.4796875 3.20167969 -17.459375 3.21585937 -18.46875 3.23046875 C-21 3 -21 3 -23 1 C-21.75283203 1.03480469 -21.75283203 1.03480469 -20.48046875 1.0703125 C-19.39378906 1.08835937 -18.30710938 1.10640625 -17.1875 1.125 C-16.10855469 1.14820312 -15.02960938 1.17140625 -13.91796875 1.1953125 C-8.10265372 0.80606785 -6.30698459 -1.0339319 0 0 Z " fill="#FFFFFF" transform="translate(234,118)"/>
<path d="M0 0 C0.5534764 2.07553648 1 3.84365964 1 6 C1.99 6 2.98 6 4 6 C4 6.66 4 7.32 4 8 C1.03 7.505 1.03 7.505 -2 7 C-1.01 10.3 -0.02 13.6 1 17 C-2.97959184 13.02040816 -2.97959184 13.02040816 -3.0625 8.875 C-3.041875 7.92625 -3.02125 6.9775 -3 6 C-2.34 5.67 -1.68 5.34 -1 5 C-0.34444881 2.47266765 -0.34444881 2.47266765 0 0 Z " fill="#FFFFFF" transform="translate(223,34)"/>
<path d="M0 0 C2.204364 0.22950319 4.41392173 0.41075933 6.625 0.5625 C7.81351563 0.64628906 9.00203125 0.73007812 10.2265625 0.81640625 C11.59941406 0.90728516 11.59941406 0.90728516 13 1 C13 1.33 13 1.66 13 2 C10.79173622 2.02722517 8.58337362 2.04649729 6.375 2.0625 C5.14523438 2.07410156 3.91546875 2.08570313 2.6484375 2.09765625 C-0.68357165 2.00846971 -3.72861822 1.59479669 -7 1 C-8.99965715 0.96296931 -11.00056665 0.95239444 -13 1 C-13 0.67 -13 0.34 -13 0 C-8.70336653 -1.01097258 -4.08261196 -2.04130598 0 0 Z " fill="#FFFFFF" transform="translate(48,16)"/>
<path d="M0 0 C0 3 0 3 -1 5 C-1.0825 5.94875 -1.165 6.8975 -1.25 7.875 C-2 11 -2 11 -4.375 13.4375 C-5.24125 13.953125 -6.1075 14.46875 -7 15 C-7.99 14.67 -8.98 14.34 -10 14 C-9.030625 13.4225 -8.06125 12.845 -7.0625 12.25 C-3.94643984 10.36197911 -3.94643984 10.36197911 -3.125 7.9375 C-3.01900355 6.29455501 -3 4.64636068 -3 3 C-1.5 1.3125 -1.5 1.3125 0 0 Z " fill="#FFFFFF" transform="translate(81,139)"/>
<path d="M0 0 C0 0.99 0 1.98 0 3 C4.29 2.34 8.58 1.68 13 1 C10.65454672 3.34545328 9.04014162 3.95508888 5.73828125 4.09765625 C4.93777344 4.08605469 4.13726562 4.07445313 3.3125 4.0625 C2.10013672 4.04896484 2.10013672 4.04896484 0.86328125 4.03515625 C-0.05904297 4.01775391 -0.05904297 4.01775391 -1 4 C-1 3.01 -1 2.02 -1 1 C-2.98 1.99 -4.96 2.98 -7 4 C-6.67 3.01 -6.34 2.02 -6 1 C-4 0 -4 0 0 0 Z " fill="#FFFFFF" transform="translate(243,62)"/>
<path d="M0 0 C1.32 0 2.64 0 4 0 C4 0.66 4 1.32 4 2 C4.928125 1.814375 5.85625 1.62875 6.8125 1.4375 C10 1 10 1 13 2 C14.33106622 2.34227417 15.66400079 2.67751743 17 3 C13.98509443 4.00496852 11.95818308 4.10335303 8.8125 4.0625 C7.91144531 4.05347656 7.01039063 4.04445313 6.08203125 4.03515625 C5.39496094 4.02355469 4.70789063 4.01195312 4 4 C3.67 3.01 3.34 2.02 3 1 C1.35 1.33 -0.3 1.66 -2 2 C-1.34 1.34 -0.68 0.68 0 0 Z " fill="#FFFFFF" transform="translate(196,39)"/>
<path d="M0 0 C0.33 0.99 0.66 1.98 1 3 C3.97 3 6.94 3 10 3 C8 5 8 5 6.0546875 5.1953125 C4.03645833 5.13020833 2.01822917 5.06510417 0 5 C-0.33 3.68 -0.66 2.36 -1 1 C-5.455 2.485 -5.455 2.485 -10 4 C-6.2751896 0.2751896 -5.07777425 -0.13362564 0 0 Z " fill="#FFFFFF" transform="translate(88,11)"/>
<path d="M0 0 C-3.71279469 1.23759823 -7.31306346 1.35608897 -11.1875 1.5625 C-12.31188477 1.62727539 -12.31188477 1.62727539 -13.45898438 1.69335938 C-15.30578375 1.79922685 -17.15286834 1.9000976 -19 2 C-19.33 1.34 -19.66 0.68 -20 0 C-18.783125 0.04125 -17.56625 0.0825 -16.3125 0.125 C-13.49754602 0.14475406 -12.06215651 0.02728823 -9.4375 -1.125 C-5.87680219 -2.40319921 -3.47128282 -1.22515864 0 0 Z " fill="#FFFFFF" transform="translate(62,180)"/>
<path d="M0 0 C2.37270313 0.31219778 4.57116574 0.87619429 6.8671875 1.5390625 C9.22394522 2.04839842 11.34164442 2.09791699 13.75 2.0625 C14.94882813 2.04896484 14.94882813 2.04896484 16.171875 2.03515625 C17.07679687 2.01775391 17.07679687 2.01775391 18 2 C17.67 2.66 17.34 3.32 17 4 C11.18609246 4.23730235 6.53615049 3.77156816 1 2 C0.01 2 -0.98 2 -2 2 C-1.34 1.34 -0.68 0.68 0 0 Z " fill="#FFFFFF" transform="translate(62,39)"/>
<path d="M0 0 C0.66 0.33 1.32 0.66 2 1 C1.319375 1.515625 0.63875 2.03125 -0.0625 2.5625 C-2.38788255 4.94645155 -2.38788255 4.94645155 -1.875 8.5625 C-1.17969518 12.09045845 -1.17969518 12.09045845 1 15 C-2.875 13.25 -2.875 13.25 -4 11 C-4.5824233 4.70982839 -4.5824233 4.70982839 -2 1.5625 C-1.34 1.046875 -0.68 0.53125 0 0 Z " fill="#FFFFFF" transform="translate(257,113)"/>
<path d="M0 0 C0.66 0.33 1.32 0.66 2 1 C-3.75 5 -3.75 5 -6 5 C-5.34 7.97 -4.68 10.94 -4 14 C-4.99 13.34 -5.98 12.68 -7 12 C-7.40843923 9.28796348 -7.13336867 6.7562858 -7 4 C-1.7265625 0.77734375 -1.7265625 0.77734375 0 0 Z " fill="#FFFFFF" transform="translate(109,7)"/>
<path d="M0 0 C2.0625 1.4375 2.0625 1.4375 4 4 C4.29889436 8.28677432 3.67518802 11.89269165 1.4375 15.5625 C0.963125 16.036875 0.48875 16.51125 0 17 C0.144375 16.319375 0.28875 15.63875 0.4375 14.9375 C0.623125 13.968125 0.80875 12.99875 1 12 C1.226875 10.845 1.45375 9.69 1.6875 8.5 C2.00875437 4.901951 1.63009481 3.1643017 0 0 Z " fill="#FFFFFF" transform="translate(293,114)"/>
<path d="M0 0 C0.66 0 1.32 0 2 0 C3.4298186 5.89800173 3.90969398 11.50391137 1 17 C0.34 17.33 -0.32 17.66 -1 18 C-0.649375 17.071875 -0.29875 16.14375 0.0625 15.1875 C1.55325804 10.12100765 0.68956871 5.15312837 0 0 Z " fill="#FFFFFF" transform="translate(301,113)"/>
<path d="M0 0 C3.43600559 5.15400839 4.24403837 8.77702167 4 15 C3.01 15 2.02 15 1 15 C1.33 14.67 1.66 14.34 2 14 C1.52171823 9.29689596 0.81497964 4.65702651 0 0 Z " fill="#FFFFFF" transform="translate(313,57)"/>
<path d="M0 0 C1.32 0 2.64 0 4 0 C4.66 0.99 5.32 1.98 6 3 C8.05003955 4.19232613 8.05003955 4.19232613 10 5 C8.35 5 6.7 5 5 5 C4.34 3.68 3.68 2.36 3 1 C1.68 2.32 0.36 3.64 -1 5 C-1.66 4.67 -2.32 4.34 -3 4 C-1.75 2 -1.75 2 0 0 Z " fill="#FFFFFF" transform="translate(117,13)"/>
<path d="M0 0 C0.33 0.66 0.66 1.32 1 2 C3.02463255 2.65213292 3.02463255 2.65213292 5 3 C3.35 3.33 1.7 3.66 0 4 C-0.33 3.01 -0.66 2.02 -1 1 C-2.98 1.66 -4.96 2.32 -7 3 C-7 2.34 -7 1.68 -7 1 C-3.375 -1.125 -3.375 -1.125 0 0 Z " fill="#FFFFFF" transform="translate(166,175)"/>
<path d="M0 0 C1.81358154 0.47505678 3.62584179 0.95516042 5.4375 1.4375 C6.44683594 1.70433594 7.45617187 1.97117188 8.49609375 2.24609375 C11 3 11 3 12 4 C12.04063832 5.66617115 12.042721 7.33388095 12 9 C11.77570313 8.38640625 11.55140625 7.7728125 11.3203125 7.140625 C9.57487194 4.31073913 7.9690077 3.86066943 4.875 2.75 C3.96492188 2.41484375 3.05484375 2.0796875 2.1171875 1.734375 C1.41851562 1.49203125 0.71984375 1.2496875 0 1 C0 0.67 0 0.34 0 0 Z " fill="#FFFFFF" transform="translate(71,130)"/>
<path d="M0 0 C0 0.66 0 1.32 0 2 C0.66 2.33 1.32 2.66 2 3 C1.01 3.33 0.02 3.66 -1 4 C-1.33 3.34 -1.66 2.68 -2 2 C-4.97 2.66 -7.94 3.32 -11 4 C-7.2841395 0.2841395 -5.11071741 0 0 0 Z " fill="#FFFFFF" transform="translate(192,39)"/>
<path d="M0 0 C0.99 0.185625 1.98 0.37125 3 0.5625 C7.17087678 1.17661683 10.85034269 0.65520905 15 0 C12.08252948 1.94498034 10.84893153 2.39388356 7.5 2.8125 C6.33984375 2.97685547 6.33984375 2.97685547 5.15625 3.14453125 C3 3 3 3 1.21875 1.51171875 C0.8165625 1.01285156 0.414375 0.51398437 0 0 Z " fill="#FFFFFF" transform="translate(131,15)"/>
<path d="M0 0 C2 3 2 3 2 6 C1.34 6 0.68 6 0 6 C-0.2475 5.360625 -0.495 4.72125 -0.75 4.0625 C-1.81562433 1.81258459 -1.81562433 1.81258459 -4.125 1.25 C-5.053125 1.12625 -5.053125 1.12625 -6 1 C-3 0 -3 0 0 0 Z " fill="#FFFFFF" transform="translate(94,179)"/>
<path d="M0 0 C0.33 0.66 0.66 1.32 1 2 C1.66 2 2.32 2 3 2 C5 5 5 5 5 8 C3 7 3 7 2 5 C1.34 5.66 0.68 6.32 0 7 C0 4.69 0 2.38 0 0 Z " fill="#FFFFFF" transform="translate(286,117)"/>
<path d="M0 0 C2.97 0 5.94 0 9 0 C5.71536341 2.18975773 2.79303725 2.99806563 -1 4 C-0.67 2.68 -0.34 1.36 0 0 Z " fill="#FFFFFF" transform="translate(260,113)"/>
<path d="M0 0 C0.99 0 1.98 0 3 0 C3.33 0.66 3.66 1.32 4 2 C5.65 2 7.3 2 9 2 C9 1.34 9 0.68 9 0 C9.66 0.33 10.32 0.66 11 1 C9.8125 2.5 9.8125 2.5 8 4 C5.3125 4.1875 5.3125 4.1875 3 4 C2.67 3.01 2.34 2.02 2 1 C1.34 0.67 0.68 0.34 0 0 Z " fill="#FFFFFF" transform="translate(141,63)"/>
<path d="M0 0 C2.64 0 5.28 0 8 0 C8 0.66 8 1.32 8 2 C8.66 2.33 9.32 2.66 10 3 C9.01 3 8.02 3 7 3 C7 2.34 7 1.68 7 1 C4.36 1.33 1.72 1.66 -1 2 C-0.67 1.34 -0.34 0.68 0 0 Z " fill="#FFFFFF" transform="translate(50,40)"/>
<path d="M0 0 C4.95 0 9.9 0 15 0 C15 0.33 15 0.66 15 1 C10.05 1 5.1 1 0 1 C0 0.67 0 0.34 0 0 Z " fill="#FFFFFF" transform="translate(148,35)"/>
<path d="M0 0 C0.33 0 0.66 0 1 0 C1.2954439 5.02254631 0.98514628 7.89542386 -2 12 C-2.33 11.34 -2.66 10.68 -3 10 C-2.33333333 8.66666667 -1.66666667 7.33333333 -1 6 C-0.61709538 4.00889599 -0.27395385 2.00899487 0 0 Z " fill="#FFFFFF" transform="translate(165,13)"/>
<path d="M0 0 C0.99 0 1.98 0 3 0 C3.33 0.99 3.66 1.98 4 3 C4.99 2.34 5.98 1.68 7 1 C6.34 2.32 5.68 3.64 5 5 C4.01 5 3.02 5 2 5 C2 3.68 2 2.36 2 1 C1.34 0.67 0.68 0.34 0 0 Z " fill="#FFFFFF" transform="translate(245,173)"/>
<path d="M0 0 C-0.33 0.66 -0.66 1.32 -1 2 C-3.97 1.67 -6.94 1.34 -10 1 C-10 0.67 -10 0.34 -10 0 C-6.30458414 -0.95024979 -3.69541586 -0.95024979 0 0 Z " fill="#FFFFFF" transform="translate(78,15)"/>
<path d="M0 0 C4.455 1.98 4.455 1.98 9 4 C8.67 4.66 8.34 5.32 8 6 C5.36 4.68 2.72 3.36 0 2 C0 1.34 0 0.68 0 0 Z " fill="#FFFFFF" transform="translate(156,7)"/>
<path d="M0 0 C0.33 0 0.66 0 1 0 C1.08096803 1.45742463 1.13917774 2.91612807 1.1875 4.375 C1.22230469 5.18710938 1.25710937 5.99921875 1.29296875 6.8359375 C1.19628906 7.55007812 1.09960938 8.26421875 1 9 C0.01 9.66 -0.98 10.32 -2 11 C-1.34 7.37 -0.68 3.74 0 0 Z " fill="#FFFFFF" transform="translate(36,199)"/>
<path d="M0 0 C0.66 0 1.32 0 2 0 C2 2.31 2 4.62 2 7 C0.35 7.33 -1.3 7.66 -3 8 C-2.01 7.34 -1.02 6.68 0 6 C0.2502157 2.91634129 0.2502157 2.91634129 0 0 Z " fill="#FFFFFF" transform="translate(261,181)"/>
<path d="M0 0 C-3.4019487 2.09350689 -6.05272412 2.17942163 -10 2 C-9.67 1.34 -9.34 0.68 -9 0 C-5.44307323 -0.85056945 -3.50729422 -1.16909807 0 0 Z " fill="#FFFFFF" transform="translate(112,67)"/>
<path d="M0 0 C2.5625 2.25 2.5625 2.25 5 5 C4.8125 7.3125 4.8125 7.3125 4 9 C0 2.25 0 2.25 0 0 Z " fill="#FFFFFF" transform="translate(301,55)"/>
<path d="M0 0 C0.90492188 0.02320313 1.80984375 0.04640625 2.7421875 0.0703125 C4.10730469 0.09738281 4.10730469 0.09738281 5.5 0.125 C6.19867188 0.14820313 6.89734375 0.17140625 7.6171875 0.1953125 C7.6171875 0.5253125 7.6171875 0.8553125 7.6171875 1.1953125 C1.6771875 1.6903125 1.6771875 1.6903125 -4.3828125 2.1953125 C-2.3828125 0.1953125 -2.3828125 0.1953125 0 0 Z " fill="#FFFFFF" transform="translate(155.3828125,43.8046875)"/>
<path d="M0 0 C3.93846154 3.32307692 3.93846154 3.32307692 4.25 6.75 C4.1675 7.4925 4.085 8.235 4 9 C2.47700477 6.06279492 1.19899698 3.0831351 0 0 Z " fill="#FFFFFF" transform="translate(307,54)"/>
<path d="M0 0 C1.6396875 0.0928125 1.6396875 0.0928125 3.3125 0.1875 C3.3125 0.5175 3.3125 0.8475 3.3125 1.1875 C0.0125 1.8475 -3.2875 2.5075 -6.6875 3.1875 C-3.6875 0.1875 -3.6875 0.1875 0 0 Z " fill="#FFFFFF" transform="translate(31.6875,16.8125)"/>
<path d="M0 0 C2.97 0.495 2.97 0.495 6 1 C5.67 1.66 5.34 2.32 5 3 C3.0625 2.625 3.0625 2.625 1 2 C0.67 1.34 0.34 0.68 0 0 Z " fill="#FFFFFF" transform="translate(117,94)"/>
<path d="M0 0 C0.33 0 0.66 0 1 0 C1 1.65 1 3.3 1 5 C-0.65 5 -2.3 5 -4 5 C-2.68 4.67 -1.36 4.34 0 4 C0 2.68 0 1.36 0 0 Z " fill="#FFFFFF" transform="translate(321,72)"/>
<path d="M0 0 C1.98 0.99 3.96 1.98 6 3 C4.68 3.33 3.36 3.66 2 4 C1.34 2.68 0.68 1.36 0 0 Z " fill="#FFFFFF" transform="translate(105,21)"/>
<path d="M0 0 C1.32 0.99 2.64 1.98 4 3 C3.67 3.66 3.34 4.32 3 5 C1.5 3.625 1.5 3.625 0 2 C0 1.34 0 0.68 0 0 Z " fill="#FFFFFF" transform="translate(32,194)"/>
<path d="M0 0 C0.33 0 0.66 0 1 0 C1 1.98 1 3.96 1 6 C0.01 5.67 -0.98 5.34 -2 5 C-1.34 5 -0.68 5 0 5 C0 3.35 0 1.7 0 0 Z " fill="#FFFFFF" transform="translate(309,124)"/>
<path d="M0 0 C0.99 0.33 1.98 0.66 3 1 C2.01 1.495 2.01 1.495 1 2 C0.01 3.485 0.01 3.485 -1 5 C-0.67 3.35 -0.34 1.7 0 0 Z " fill="#FFFFFF" transform="translate(229,57)"/>
<path d="M0 0 C0.33 0.66 0.66 1.32 1 2 C-1.31 2 -3.62 2 -6 2 C-6 1.67 -6 1.34 -6 1 C-4.02 0.67 -2.04 0.34 0 0 Z " fill="#FFFFFF" transform="translate(161,25)"/>
<path d="M0 0 C0.66 0.33 1.32 0.66 2 1 C1.01 2.32 0.02 3.64 -1 5 C-0.67 3.35 -0.34 1.7 0 0 Z " fill="#FFFFFF" transform="translate(234,57)"/>
<path d="M0 0 C0.99 0.33 1.98 0.66 3 1 C1.35 1.66 -0.3 2.32 -2 3 C-1.34 2.01 -0.68 1.02 0 0 Z " fill="#FFFFFF" transform="translate(226,31)"/>
<path d="M0 0 C2.31 0 4.62 0 7 0 C7 0.33 7 0.66 7 1 C4.69 1 2.38 1 0 1 C0 0.67 0 0.34 0 0 Z " fill="#FFFFFF" transform="translate(61,16)"/>
<path d="M0 0 C2.125 0.375 2.125 0.375 4 1 C2.02 1.33 0.04 1.66 -2 2 C-1.34 1.34 -0.68 0.68 0 0 Z " fill="#FFFFFF" transform="translate(148,13)"/>
<path d="M0 0 C0.66 0.33 1.32 0.66 2 1 C0.02 1.99 0.02 1.99 -2 3 C-1.34 2.01 -0.68 1.02 0 0 Z " fill="#FFFFFF" transform="translate(114,63)"/>
<path d="M0 0 C0.33 0.99 0.66 1.98 1 3 C0.34 3 -0.32 3 -1 3 C-0.67 2.01 -0.34 1.02 0 0 Z " fill="#FFFFFF" transform="translate(262,169)"/>
<path d="M0 0 C1.32 0.33 2.64 0.66 4 1 C2.68 1.33 1.36 1.66 0 2 C0 1.34 0 0.68 0 0 Z " fill="#FFFFFF" transform="translate(259,111)"/>
<path d="M0 0 C4 1 4 1 4 1 Z " fill="#FFFFFF" transform="translate(127,16)"/>
<path d="M0 0 C0.66 0 1.32 0 2 0 C1.67 0.66 1.34 1.32 1 2 C0.67 1.34 0.34 0.68 0 0 Z " fill="#FFFFFF" transform="translate(171,176)"/>
<path d="" fill="#FFFFFF" transform="translate(0,0)"/>
<path d="" fill="#FFFFFF" transform="translate(0,0)"/>
<path d="" fill="#FFFFFF" transform="translate(0,0)"/>
<path d="" fill="#FFFFFF" transform="translate(0,0)"/>
<path d="" fill="#FFFFFF" transform="translate(0,0)"/>
</svg>
