<?xml version="1.0" encoding="UTF-8"?>
<svg version="1.1" xmlns="http://www.w3.org/2000/svg" width="350" height="230">
<path d="M0 0 C0 3 0 3 -0.9375 6.375 C-2.46099674 12.1448387 -2.65619718 18.06487761 -3 24 C-2.00097656 24.12117188 -1.00195312 24.24234375 0.02734375 24.3671875 C1.31769531 24.53476563 2.60804688 24.70234375 3.9375 24.875 C5.86916016 25.11863281 5.86916016 25.11863281 7.83984375 25.3671875 C9.40412109 25.68042969 9.40412109 25.68042969 11 26 C11.33 26.66 11.66 27.32 12 28 C7.38 27.34 2.76 26.68 -2 26 C-2.33 31.94 -2.66 37.88 -3 44 C-3.33 44 -3.66 44 -4 44 C-4.75769142 33.61757971 -5.36998641 23.37564113 -4.25 13 C-4.17604004 12.26604004 -4.10208008 11.53208008 -4.02587891 10.77587891 C-3.49630775 6.52639325 -2.48352841 3.49331469 0 0 Z " fill="#FFFFFF" transform="translate(309,50)"/>
<path d="M0 0 C1.441854 1.174844 2.82215371 2.42455468 4.1875 3.6875 C3.8575 4.3475 3.5275 5.0075 3.1875 5.6875 C2.67960937 5.27757812 2.17171875 4.86765625 1.6484375 4.4453125 C-9.68917919 -4.42945113 -21.06112574 -2.67788468 -34.8125 -1.3125 C-34.8125 -1.6425 -34.8125 -1.9725 -34.8125 -2.3125 C-23.53082375 -4.89116886 -9.98579232 -7.23109099 0 0 Z " fill="#FFFFFF" transform="translate(188.8125,177.3125)"/>
<path d="M0 0 C2.58656673 0.22288501 5.15952778 0.41314385 7.75 0.5625 C8.44738281 0.60568359 9.14476562 0.64886719 9.86328125 0.69335938 C11.57531922 0.79889596 13.28763561 0.8998991 15 1 C15 1.33 15 1.66 15 2 C12.37493198 2.02690844 9.75013827 2.04679404 7.125 2.0625 C6.37863281 2.07087891 5.63226563 2.07925781 4.86328125 2.08789062 C-0.7734375 2.11328125 -0.7734375 2.11328125 -3 1 C-4.8863912 0.915085 -6.77578515 0.892807 -8.6640625 0.90234375 C-10.34628906 0.90717773 -10.34628906 0.90717773 -12.0625 0.91210938 C-13.8259375 0.92467773 -13.8259375 0.92467773 -15.625 0.9375 C-16.80835938 0.94201172 -17.99171875 0.94652344 -19.2109375 0.95117188 C-22.14067507 0.96298533 -25.07031272 0.97945742 -28 1 C-28 0.67 -28 0.34 -28 0 C-24.08375299 -0.19706355 -20.16699634 -0.38099159 -16.25 -0.5625 C-15.13882813 -0.61857422 -14.02765625 -0.67464844 -12.8828125 -0.73242188 C-11.81289062 -0.78076172 -10.74296875 -0.82910156 -9.640625 -0.87890625 C-8.65610352 -0.9260376 -7.67158203 -0.97316895 -6.65722656 -1.02172852 C-4.20244029 -1.00165538 -2.34355033 -0.65843766 0 0 Z " fill="#FFFFFF" transform="translate(185,148)"/>
<path d="M0 0 C0.99 0.66 1.98 1.32 3 2 C5.33247761 2.33926947 7.66585471 2.67240066 10 3 C10.64420898 3.33177246 11.28841797 3.66354492 11.95214844 4.00537109 C14.22205314 5.10784985 15.81968274 5.30655783 18.328125 5.4140625 C19.12734375 5.45273438 19.9265625 5.49140625 20.75 5.53125 C21.9875 5.57765625 21.9875 5.57765625 23.25 5.625 C24.09046875 5.66367188 24.9309375 5.70234375 25.796875 5.7421875 C27.86423382 5.83615836 29.93208627 5.91915564 32 6 C32 6.33 32 6.66 32 7 C28.91674642 7.0582253 25.83363495 7.09367134 22.75 7.125 C21.44095703 7.15013672 21.44095703 7.15013672 20.10546875 7.17578125 C19.26113281 7.18222656 18.41679687 7.18867187 17.546875 7.1953125 C16.77182617 7.20578613 15.99677734 7.21625977 15.19824219 7.22705078 C12.72117362 6.97120074 11.18668346 6.15392994 9 5 C6.67182036 4.63239269 4.3381615 4.29758419 2 4 C1.01 3.67 0.02 3.34 -1 3 C-2.33106622 2.65772583 -3.66400079 2.32248257 -5 2 C-2.6875 0.875 -2.6875 0.875 0 0 Z " fill="#FFFFFF" transform="translate(188,60)"/>
<path d="M0 0 C4.29 0 8.58 0 13 0 C13 0.99 13 1.98 13 3 C14.89575251 3.02721176 16.79161979 3.04649136 18.6875 3.0625 C20.27111328 3.07990234 20.27111328 3.07990234 21.88671875 3.09765625 C24.72410262 3.00865425 27.2438919 2.64939838 30 2 C28.1875 4.0625 28.1875 4.0625 25 6 C20.62675581 6.12603009 15.95963841 5.9798192 12 4 C12 3.01 12 2.02 12 1 C11.01 1.495 11.01 1.495 10 2 C8.45976004 2.06950541 6.91665012 2.08452357 5.375 2.0625 C4.14910156 2.04896484 4.14910156 2.04896484 2.8984375 2.03515625 C1.95871094 2.01775391 1.95871094 2.01775391 1 2 C0.67 1.34 0.34 0.68 0 0 Z " fill="#FFFFFF" transform="translate(249,67)"/>
<path d="M0 0 C1.24007812 -0.01224609 2.48015625 -0.02449219 3.7578125 -0.03710938 C5.53671875 -0.04000977 5.53671875 -0.04000977 7.3515625 -0.04296875 C8.43518066 -0.04707764 9.51879883 -0.05118652 10.63525391 -0.05541992 C13.375 0.1875 13.375 0.1875 16.375 2.1875 C15.12795288 2.17964478 15.12795288 2.17964478 13.85571289 2.17163086 C10.73022728 2.15444711 7.60476599 2.14198144 4.47924805 2.13256836 C2.47768542 2.12514896 0.47614467 2.11243341 -1.52539062 2.09960938 C-8.31625925 2.08250391 -14.89665501 2.24951996 -21.625 3.1875 C-15.20796104 -1.09052597 -7.44608352 0.0038944 0 0 Z " fill="#FFFFFF" transform="translate(187.625,33.8125)"/>
<path d="M0 0 C0.98291016 0.00322266 1.96582031 0.00644531 2.97851562 0.00976562 C4.51475586 0.02233398 4.51475586 0.02233398 6.08203125 0.03515625 C7.63567383 0.04192383 7.63567383 0.04192383 9.22070312 0.04882812 C11.77870391 0.06061615 14.33658858 0.0770711 16.89453125 0.09765625 C16.89453125 0.42765625 16.89453125 0.75765625 16.89453125 1.09765625 C16.2897998 1.11223877 15.68506836 1.12682129 15.06201172 1.1418457 C12.2972386 1.21674813 9.53361768 1.31326698 6.76953125 1.41015625 C5.34253906 1.44399414 5.34253906 1.44399414 3.88671875 1.47851562 C-2.78318649 1.73326895 -7.41437679 2.61901891 -12.48046875 7.28515625 C-13.28484375 8.18234375 -13.28484375 8.18234375 -14.10546875 9.09765625 C-12.83637412 5.18461446 -11.64289899 3.24155337 -8.10546875 1.09765625 C-5.10530963 0.09760321 -3.13123119 -0.0180996 0 0 Z " fill="#FFFFFF" transform="translate(71.10546875,27.90234375)"/>
<path d="M0 0 C9.9 0 19.8 0 30 0 C30 0.66 30 1.32 30 2 C31.98 2 33.96 2 36 2 C36 2.33 36 2.66 36 3 C33.69 3 31.38 3 29 3 C29 2.34 29 1.68 29 1 C19.43 1 9.86 1 0 1 C0 0.67 0 0.34 0 0 Z " fill="#FFFFFF" transform="translate(108,176)"/>
<path d="M0 0 C2.79224073 -0.08071788 5.58216566 -0.14035408 8.375 -0.1875 C9.1690625 -0.21263672 9.963125 -0.23777344 10.78125 -0.26367188 C12.85586148 -0.29004405 14.93100865 -0.15486462 17 0 C17.66 0.99 18.32 1.98 19 3 C21.64691668 3.80092254 21.64691668 3.80092254 24.625 4.1875 C26.12933594 4.42533203 26.12933594 4.42533203 27.6640625 4.66796875 C28.43492188 4.77753906 29.20578125 4.88710937 30 5 C30 5.33 30 5.66 30 6 C21.21276596 6.29787234 21.21276596 6.29787234 17 4 C16.67 3.34 16.34 2.68 16 2 C13.28553021 1.68758545 10.66090639 1.48663408 7.9375 1.375 C6.79958008 1.31699219 6.79958008 1.31699219 5.63867188 1.2578125 C3.75952805 1.16326438 1.87979664 1.08053244 0 1 C0 0.67 0 0.34 0 0 Z " fill="#FFFFFF" transform="translate(88,201)"/>
<path d="M0 0 C2.31 0 4.62 0 7 0 C7.66 1.32 8.32 2.64 9 4 C13.455 3.505 13.455 3.505 18 3 C18.99 4.485 18.99 4.485 20 6 C18.989375 5.79375 17.97875 5.5875 16.9375 5.375 C12.50493131 4.9528506 10.13891038 5.5640515 6 7 C6 5.35 6 3.7 6 2 C3.69 2 1.38 2 -1 2 C-0.67 1.34 -0.34 0.68 0 0 Z " fill="#FFFFFF" transform="translate(89,59)"/>
<path d="M0 0 C9.24 0 18.48 0 28 0 C28 0.33 28 0.66 28 1 C18.62087413 1.79822348 9.41213252 2.12873737 0 2 C0 1.34 0 0.68 0 0 Z " fill="#FFFFFF" transform="translate(63,169)"/>
<path d="M0 0 C1.28385458 2.56770917 0.79950312 3.42942903 0.125 6.1875 C-1.37111327 13.0716428 -1.64427579 19.97912742 -2 27 C-2.33 27 -2.66 27 -3 27 C-3.40757013 8.74991551 -3.40757013 8.74991551 -1 1 C-0.67 0.67 -0.34 0.34 0 0 Z " fill="#FFFFFF" transform="translate(243,48)"/>
<path d="M0 0 C0.33 0 0.66 0 1 0 C1 2.97 1 5.94 1 9 C7.435 8.505 7.435 8.505 14 8 C14 8.33 14 8.66 14 9 C12.2508503 9.33776684 10.50063855 9.67003671 8.75 10 C7.28820312 10.2784375 7.28820312 10.2784375 5.796875 10.5625 C3 11 3 11 -1 11 C-0.67 7.37 -0.34 3.74 0 0 Z " fill="#FFFFFF" transform="translate(195,199)"/>
<path d="M0 0 C0.64324219 0.20496094 1.28648438 0.40992187 1.94921875 0.62109375 C9.29976664 2.81262657 16.35057967 3.64732402 24 4 C24 4.33 24 4.66 24 5 C7.70295793 5.62591769 7.70295793 5.62591769 1 2 C0.67 1.34 0.34 0.68 0 0 Z " fill="#FFFFFF" transform="translate(82,94)"/>
<path d="M0 0 C0.66 0.33 1.32 0.66 2 1 C0.58994275 2.15395711 -0.82833458 3.29787466 -2.25 4.4375 C-3.43335938 5.39462891 -3.43335938 5.39462891 -4.640625 6.37109375 C-6.86247492 7.90505305 -8.36743482 8.57130246 -11 9 C-7.5112751 5.5112751 -4.12454305 2.74969537 0 0 Z " fill="#FFFFFF" transform="translate(241,175)"/>
<path d="M0 0 C3.45201639 1.47721422 5.64961936 3.43794001 8.25 6.125 C8.95640625 6.84945312 9.6628125 7.57390625 10.390625 8.3203125 C11.18726563 9.15175781 11.18726563 9.15175781 12 10 C11.67 10.66 11.34 11.32 11 12 C9.16364422 10.19047409 7.33083792 8.37759362 5.5 6.5625 C4.97535156 6.04623047 4.45070313 5.52996094 3.91015625 4.99804688 C2.58775448 3.68423213 1.29164432 2.34406495 0 1 C0 0.67 0 0.34 0 0 Z " fill="#FFFFFF" transform="translate(317,49)"/>
<path d="M0 0 C2.39652528 -0.08139142 4.79025436 -0.14067009 7.1875 -0.1875 C7.86103516 -0.21263672 8.53457031 -0.23777344 9.22851562 -0.26367188 C13.70864748 -0.32923478 16.39440999 0.33256351 20 3 C19.01 3.495 19.01 3.495 18 4 C17.17242187 3.55527344 17.17242187 3.55527344 16.328125 3.1015625 C13.13743831 1.59187518 10.2608757 1.57004865 6.75 1.375 C4.85507812 1.26285156 4.85507812 1.26285156 2.921875 1.1484375 C1.47554687 1.07496094 1.47554687 1.07496094 0 1 C0 0.67 0 0.34 0 0 Z " fill="#FFFFFF" transform="translate(253,40)"/>
<path d="M0 0 C1.45945288 0.08708669 2.91765868 0.19526907 4.375 0.3125 C5.59316406 0.39951172 5.59316406 0.39951172 6.8359375 0.48828125 C9 1 9 1 11 4 C14.06556598 4.73343428 14.06556598 4.73343428 17 5 C17 5.33 17 5.66 17 6 C14.69 6 12.38 6 10 6 C9.835 5.360625 9.67 4.72125 9.5 4.0625 C8.218214 1.83880759 8.218214 1.83880759 6.0859375 1.51171875 C4.06424845 1.2724022 2.03158061 1.13106972 0 1 C0 0.67 0 0.34 0 0 Z " fill="#FFFFFF" transform="translate(91,170)"/>
<path d="M0 0 C0.33 0 0.66 0 1 0 C1.06058594 0.85722656 1.12117187 1.71445312 1.18359375 2.59765625 C1.61143536 8.43604873 2.059163 14.22057272 3 20 C-0.05675241 15.41487138 -0.11219208 12.22893676 -0.0625 6.8125 C-0.05347656 5.54019531 -0.04445312 4.26789062 -0.03515625 2.95703125 C-0.02355469 1.98121094 -0.01195312 1.00539062 0 0 Z " fill="#FFFFFF" transform="translate(159,45)"/>
<path d="M0 0 C0.66 0.495 1.32 0.99 2 1.5 C5.96633241 3.48316621 8.60303262 3.22357461 13 3 C11.3125 4.5625 11.3125 4.5625 9 6 C5.18880373 5.80944019 2.7857122 4.57936315 0 2 C0 1.34 0 0.68 0 0 Z " fill="#FFFFFF" transform="translate(306,94)"/>
<path d="M0 0 C1.75 2 1.75 2 3 4 C1.68 3.67 0.36 3.34 -1 3 C-1 2.34 -1 1.68 -1 1 C-1.886875 1.33 -2.77375 1.66 -3.6875 2 C-6.70923347 2.91222143 -8.88373706 3.18330958 -12 3 C-7.80491562 0.75263337 -4.79167039 0 0 0 Z " fill="#FFFFFF" transform="translate(154,144)"/>
<path d="M0 0 C1.0209375 0.2165625 1.0209375 0.2165625 2.0625 0.4375 C4.21874528 0.85039803 6.38838666 1.19486128 8.5625 1.5 C11.13034192 1.87350428 13.50255371 2.34421542 16 3 C9.62740199 4.19937786 5.76173683 4.06475363 0 1 C0 0.67 0 0.34 0 0 Z " fill="#FFFFFF" transform="translate(191,94)"/>
<path d="M0 0 C0.99 0.33 1.98 0.66 3 1 C5.56634861 1.22718496 8.11678107 1.41608184 10.6875 1.5625 C11.7403418 1.62727539 11.7403418 1.62727539 12.81445312 1.69335938 C14.54275206 1.7991736 16.2713511 1.90006581 18 2 C18 2.33 18 2.66 18 3 C15.37493198 3.02690844 12.75013827 3.04679404 10.125 3.0625 C9.37863281 3.07087891 8.63226563 3.07925781 7.86328125 3.08789062 C2.2265625 3.11328125 2.2265625 3.11328125 0 2 C0 1.34 0 0.68 0 0 Z " fill="#FFFFFF" transform="translate(165,61)"/>
<path d="M0 0 C0.66 0 1.32 0 2 0 C2.33 1.65 2.66 3.3 3 5 C6.3 5.33 9.6 5.66 13 6 C13 6.33 13 6.66 13 7 C9.37 7 5.74 7 2 7 C1.34 4.69 0.68 2.38 0 0 Z " fill="#FFFFFF" transform="translate(75,194)"/>
<path d="M0 0 C5.94 0.33 11.88 0.66 18 1 C18 1.33 18 1.66 18 2 C12.39 2 6.78 2 1 2 C0.67 1.34 0.34 0.68 0 0 Z " fill="#FFFFFF" transform="translate(117,147)"/>
<path d="M0 0 C0.33 0 0.66 0 1 0 C1 4.62 1 9.24 1 14 C-0.65 14.33 -2.3 14.66 -4 15 C-2.68 14.34 -1.36 13.68 0 13 C0 8.71 0 4.42 0 0 Z " fill="#FFFFFF" transform="translate(134,82)"/>
<path d="M0 0 C1.92512159 3.56646031 2.41784425 5.90512634 2 10 C0.5 12.875 0.5 12.875 -1 15 C-1.33 14.34 -1.66 13.68 -2 13 C-1.69320313 12.39671875 -1.38640625 11.7934375 -1.0703125 11.171875 C0.16980821 8.65542567 0.20684986 7.03289513 0.125 4.25 C0.10695313 3.45078125 0.08890625 2.6515625 0.0703125 1.828125 C0.04710937 1.22484375 0.02390625 0.6215625 0 0 Z " fill="#FFFFFF" transform="translate(333,77)"/>
<path d="M0 0 C0.66 0 1.32 0 2 0 C3.86783046 5.48675196 4.2358396 10.22192976 4 16 C3.67 16 3.34 16 3 16 C2.86722656 15.09636719 2.73445313 14.19273438 2.59765625 13.26171875 C2.42105469 12.08222656 2.24445313 10.90273437 2.0625 9.6875 C1.88847656 8.51574219 1.71445312 7.34398438 1.53515625 6.13671875 C1.07906969 2.98358597 1.07906969 2.98358597 0 0 Z " fill="#FFFFFF" transform="translate(329,61)"/>
<path d="M0 0 C1.32 0 2.64 0 4 0 C4.33 0.66 4.66 1.32 5 2 C7.97 2 10.94 2 14 2 C10.00889681 3.9955516 8.30013434 4.19546065 4 4 C3.67 3.01 3.34 2.02 3 1 C2.01 0.67 1.02 0.34 0 0 Z " fill="#FFFFFF" transform="translate(211,146)"/>
<path d="M0 0 C5.61 0.33 11.22 0.66 17 1 C17 1.33 17 1.66 17 2 C14.91695462 2.05418326 12.83350232 2.09287551 10.75 2.125 C9.00976562 2.15980469 9.00976562 2.15980469 7.234375 2.1953125 C4 2 4 2 0 0 Z " fill="#FFFFFF" transform="translate(263,96)"/>
<path d="M0 0 C4.47238653 1.41807378 8.71146306 3.11304374 13 5 C10.34501768 6.0169313 9.30844625 6.13022151 6.640625 5.00390625 C5.85171875 4.52824219 5.0628125 4.05257812 4.25 3.5625 C3.45078125 3.08941406 2.6515625 2.61632812 1.828125 2.12890625 C1.22484375 1.75636719 0.6215625 1.38382812 0 1 C0 0.67 0 0.34 0 0 Z " fill="#FFFFFF" transform="translate(75,93)"/>
<path d="M0 0 C0.66 0 1.32 0 2 0 C2 0.99 2 1.98 2 3 C5.63 3 9.26 3 13 3 C13 3.33 13 3.66 13 4 C8.71 4 4.42 4 0 4 C0 2.68 0 1.36 0 0 Z " fill="#FFFFFF" transform="translate(139,204)"/>
<path d="M0 0 C0.33 0 0.66 0 1 0 C1.49230769 7.38461538 1.49230769 7.38461538 -1 10.5 C-1.66 10.995 -2.32 11.49 -3 12 C-3.66 11.67 -4.32 11.34 -5 11 C-4.03320312 10.64808594 -4.03320312 10.64808594 -3.046875 10.2890625 C-0.7922092 9.18838927 -0.7922092 9.18838927 -0.390625 6.8359375 C-0.34421875 6.02382812 -0.2978125 5.21171875 -0.25 4.375 C-0.19328125 3.55773437 -0.1365625 2.74046875 -0.078125 1.8984375 C-0.05234375 1.27195312 -0.0265625 0.64546875 0 0 Z " fill="#FFFFFF" transform="translate(293,83)"/>
<path d="M0 0 C2.64 0 5.28 0 8 0 C8.66 2.31 9.32 4.62 10 7 C8.5 5.6875 8.5 5.6875 7 4 C7 3.01 7 2.02 7 1 C4.69 1 2.38 1 0 1 C0 0.67 0 0.34 0 0 Z " fill="#FFFFFF" transform="translate(53,142)"/>
<path d="M0 0 C0.33 0 0.66 0 1 0 C1.12375 0.969375 1.2475 1.93875 1.375 2.9375 C1.58125 3.948125 1.7875 4.95875 2 6 C2.66 6.33 3.32 6.66 4 7 C2.02 7.99 2.02 7.99 0 9 C0 6.03 0 3.06 0 0 Z " fill="#FFFFFF" transform="translate(247,147)"/>
<path d="M0 0 C4.62 0 9.24 0 14 0 C14 0.33 14 0.66 14 1 C9.38 1 4.76 1 0 1 C0 0.67 0 0.34 0 0 Z " fill="#FFFFFF" transform="translate(66,151)"/>
<path d="M0 0 C3.63 0 7.26 0 11 0 C11 0.99 11 1.98 11 3 C10.67 2.67 10.34 2.34 10 2 C8.31816052 1.76712992 6.6287584 1.58735834 4.9375 1.4375 C4.01839844 1.35371094 3.09929687 1.26992187 2.15234375 1.18359375 C1.08693359 1.09271484 1.08693359 1.09271484 0 1 C0 0.67 0 0.34 0 0 Z " fill="#FFFFFF" transform="translate(104,142)"/>
<path d="M0 0 C0.33 0 0.66 0 1 0 C2.10228696 4.40914783 2.07654536 8.48382401 2 13 C1.67 13 1.34 13 1 13 C0.67 8.71 0.34 4.42 0 0 Z " fill="#FFFFFF" transform="translate(222,60)"/>
<path d="M0 0 C-3.90028225 2.60018816 -7.47434569 2.15085514 -12 2 C-12 1.67 -12 1.34 -12 1 C-7.95858806 0.36605303 -4.0934693 -0.12404452 0 0 Z " fill="#FFFFFF" transform="translate(130,97)"/>
<path d="M0 0 C0.33 0 0.66 0 1 0 C1 4.29 1 8.58 1 13 C0.67 13 0.34 13 0 13 C0 8.71 0 4.42 0 0 Z " fill="#FFFFFF" transform="translate(54,43)"/>
<path d="M0 0 C0.66 0.33 1.32 0.66 2 1 C0.07423885 3.43929746 -1.80090595 5.80090595 -4 8 C-3.50168276 4.31245243 -2.89932357 2.39509338 0 0 Z " fill="#FFFFFF" transform="translate(164,37)"/>
<path d="M0 0 C6.625 0.75 6.625 0.75 10 3 C3.375 2.25 3.375 2.25 0 0 Z " fill="#FFFFFF" transform="translate(163,210)"/>
<path d="M0 0 C-3.63423209 2.32590854 -6.77088331 2.16265833 -11 2 C-11 1.67 -11 1.34 -11 1 C-7.27569643 0.30710631 -3.78916254 -0.11144596 0 0 Z " fill="#FFFFFF" transform="translate(129,204)"/>
<path d="M0 0 C4.95 0.99 4.95 0.99 10 2 C10 2.33 10 2.66 10 3 C8.5199159 2.88637738 7.04089926 2.75877092 5.5625 2.625 C4.73878906 2.55539063 3.91507813 2.48578125 3.06640625 2.4140625 C2.38449219 2.27742187 1.70257813 2.14078125 1 2 C0.67 1.34 0.34 0.68 0 0 Z " fill="#FFFFFF" transform="translate(193,183)"/>
<path d="M0 0 C3.36720387 1.39332574 4.9859524 2.9789286 7 6 C3.63279613 4.60667426 2.0140476 3.0210714 0 0 Z " fill="#FFFFFF" transform="translate(238,180)"/>
<path d="M0 0 C0 0.33 0 0.66 0 1 C-3.63 1.33 -7.26 1.66 -11 2 C-11 1.67 -11 1.34 -11 1 C-7.26562152 0.12132271 -3.83225427 -0.08912219 0 0 Z " fill="#FFFFFF" transform="translate(211,147)"/>
<path d="M0 0 C3.96 0 7.92 0 12 0 C12 0.33 12 0.66 12 1 C8.04 1 4.08 1 0 1 C0 0.67 0 0.34 0 0 Z " fill="#FFFFFF" transform="translate(106,99)"/>
<path d="M0 0 C7.75 0.75 7.75 0.75 10 3 C6.7 2.34 3.4 1.68 0 1 C0 0.67 0 0.34 0 0 Z " fill="#FFFFFF" transform="translate(97,31)"/>
<path d="M0 0 C2.8125 -0.1875 2.8125 -0.1875 6 0 C6.99 0.99 7.98 1.98 9 3 C4.545 2.01 4.545 2.01 0 1 C0 0.67 0 0.34 0 0 Z " fill="#FFFFFF" transform="translate(225,147)"/>
<path d="M0 0 C0.99 0.33 1.98 0.66 3 1 C1.03533587 2.06775224 -0.96855359 3.06553465 -3 4 C-3.66 3.67 -4.32 3.34 -5 3 C-2.6875 1.4375 -2.6875 1.4375 0 0 Z " fill="#FFFFFF" transform="translate(260,146)"/>
<path d="M0 0 C0.66 0.33 1.32 0.66 2 1 C0.35 2.32 -1.3 3.64 -3 5 C-3.66 4.67 -4.32 4.34 -5 4 C-3.35 2.68 -1.7 1.36 0 0 Z " fill="#FFFFFF" transform="translate(212,91)"/>
<path d="M0 0 C2.88437779 1.29299694 4.87219421 2.65941363 7 5 C3.34683329 3.75023244 2.21934164 3.32901247 0 0 Z " fill="#FFFFFF" transform="translate(177,87)"/>
<path d="M0 0 C0.33 0.66 0.66 1.32 1 2 C-0.65 3.65 -2.3 5.3 -4 7 C-2.79618552 4.50638429 -1.54571278 2.31856917 0 0 Z " fill="#FFFFFF" transform="translate(219,83)"/>
<path d="M0 0 C3.875 4.75 3.875 4.75 5 7 C3.0625 6.3125 3.0625 6.3125 1 5 C0.25 2.375 0.25 2.375 0 0 Z " fill="#FFFFFF" transform="translate(60,80)"/>
<path d="M0 0 C-3.13498292 1.85776765 -5.37471432 2.20140476 -9 2 C-5.86501708 0.14223235 -3.62528568 -0.20140476 0 0 Z " fill="#FFFFFF" transform="translate(218,205)"/>
<path d="M0 0 C3.3 0 6.6 0 10 0 C10 0.33 10 0.66 10 1 C6.7 1 3.4 1 0 1 C0 0.67 0 0.34 0 0 Z " fill="#FFFFFF" transform="translate(129,203)"/>
<path d="M0 0 C1.9451 2.91765 2.45276317 4.62537285 3 8 C0.37613513 4.93882432 0 4.26826873 0 0 Z " fill="#FFFFFF" transform="translate(125,52)"/>
<path d="M0 0 C3.16115776 1.36983503 3.9927092 1.9890638 6 5 C2.83884224 3.63016497 2.0072908 3.0109362 0 0 Z " fill="#FFFFFF" transform="translate(273,44)"/>
<path d="M0 0 C-2.64 0.33 -5.28 0.66 -8 1 C-4.93251126 -0.86240388 -3.40254489 -1.2151946 0 0 Z " fill="#FFFFFF" transform="translate(288,96)"/>
<path d="M0 0 C2.31 0 4.62 0 7 0 C7 0.66 7 1.32 7 2 C5.02 2 3.04 2 1 2 C0.67 1.34 0.34 0.68 0 0 Z " fill="#FFFFFF" transform="translate(184,92)"/>
<path d="M0 0 C2.1519437 3.22791555 2.20086443 4.28400809 2 8 C0.23537317 4.91190305 0 3.76687864 0 0 Z " fill="#FFFFFF" transform="translate(131,70)"/>
<path d="M0 0 C1.98 0 3.96 0 6 0 C4 2 4 2 1.375 2.125 C0.59125 2.08375 -0.1925 2.0425 -1 2 C-0.67 1.34 -0.34 0.68 0 0 Z " fill="#FFFFFF" transform="translate(82,61)"/>
<path d="M0 0 C2.475 0.99 2.475 0.99 5 2 C4.67 2.66 4.34 3.32 4 4 C2.68 2.68 1.36 1.36 0 0 Z " fill="#FFFFFF" transform="translate(230,174)"/>
<path d="M0 0 C1.65 1.32 3.3 2.64 5 4 C3.35 3.67 1.7 3.34 0 3 C0 2.01 0 1.02 0 0 Z " fill="#FFFFFF" transform="translate(254,91)"/>
<path d="M0 0 C0.33 0 0.66 0 1 0 C1 2.64 1 5.28 1 8 C0.67 8 0.34 8 0 8 C0 5.36 0 2.72 0 0 Z " fill="#FFFFFF" transform="translate(292,75)"/>
<path d="M0 0 C0.99 0.99 1.98 1.98 3 3 C2.67 3.99 2.34 4.98 2 6 C1.34 4.02 0.68 2.04 0 0 Z " fill="#FFFFFF" transform="translate(284,56)"/>
<path d="M0 0 C-1.8125 1.0625 -1.8125 1.0625 -4 2 C-4.99 1.67 -5.98 1.34 -7 1 C-4.53721199 -0.231394 -2.7204945 -0.07159196 0 0 Z " fill="#FFFFFF" transform="translate(317,48)"/>
<path d="M0 0 C0.66 0.33 1.32 0.66 2 1 C-0.475 2.485 -0.475 2.485 -3 4 C-3 3.34 -3 2.68 -3 2 C-2.01 1.34 -1.02 0.68 0 0 Z " fill="#FFFFFF" transform="translate(249,42)"/>
<path d="M0 0 C2.31 0 4.62 0 7 0 C7 0.33 7 0.66 7 1 C4.69 1 2.38 1 0 1 C0 0.67 0 0.34 0 0 Z " fill="#FFFFFF" transform="translate(152,208)"/>
<path d="M0 0 C0.99 0.33 1.98 0.66 3 1 C1.02 1.33 -0.96 1.66 -3 2 C-2.01 1.34 -1.02 0.68 0 0 Z " fill="#FFFFFF" transform="translate(226,202)"/>
<path d="M0 0 C2.31 0 4.62 0 7 0 C7 0.33 7 0.66 7 1 C4.69 1 2.38 1 0 1 C0 0.67 0 0.34 0 0 Z " fill="#FFFFFF" transform="translate(135,147)"/>
<path d="M0 0 C0.99 0.33 1.98 0.66 3 1 C1.02 1.33 -0.96 1.66 -3 2 C-2.01 1.34 -1.02 0.68 0 0 Z " fill="#FFFFFF" transform="translate(325,94)"/>
<path d="M0 0 C0.99 0.99 1.98 1.98 3 3 C2.67 3.66 2.34 4.32 2 5 C1.34 3.35 0.68 1.7 0 0 Z " fill="#FFFFFF" transform="translate(245,83)"/>
<path d="M0 0 C0.33 0 0.66 0 1 0 C1 2.31 1 4.62 1 7 C0.67 7 0.34 7 0 7 C0 4.69 0 2.38 0 0 Z " fill="#FFFFFF" transform="translate(57,62)"/>
<path d="M0 0 C0.99 0.99 1.98 1.98 3 3 C2.67 3.66 2.34 4.32 2 5 C1.34 3.35 0.68 1.7 0 0 Z " fill="#FFFFFF" transform="translate(216,45)"/>
<path d="M0 0 C0.66 0.33 1.32 0.66 2 1 C0.02 1.99 0.02 1.99 -2 3 C-1.34 2.01 -0.68 1.02 0 0 Z " fill="#FFFFFF" transform="translate(253,150)"/>
<path d="M0 0 C0.99 0.33 1.98 0.66 3 1 C1.35 1.33 -0.3 1.66 -2 2 C-1.34 1.34 -0.68 0.68 0 0 Z " fill="#FFFFFF" transform="translate(94,145)"/>
<path d="M0 0 C1.98 0.99 1.98 0.99 4 2 C3.01 2 2.02 2 1 2 C0.67 1.34 0.34 0.68 0 0 Z " fill="#FFFFFF" transform="translate(65,87)"/>
<path d="M0 0 C1.485 0.99 1.485 0.99 3 2 C2.67 2.66 2.34 3.32 2 4 C1.34 2.68 0.68 1.36 0 0 Z " fill="#FFFFFF" transform="translate(169,77)"/>
<path d="M0 0 C0.66 0.66 1.32 1.32 2 2 C1.67 2.99 1.34 3.98 1 5 C0.67 3.35 0.34 1.7 0 0 Z " fill="#FFFFFF" transform="translate(241,75)"/>
<path d="M0 0 C0.33 0 0.66 0 1 0 C1 1.98 1 3.96 1 6 C0.67 6 0.34 6 0 6 C0 4.02 0 2.04 0 0 Z " fill="#FFFFFF" transform="translate(59,74)"/>
<path d="M0 0 C0.66 0.66 1.32 1.32 2 2 C1.67 2.99 1.34 3.98 1 5 C0.67 3.35 0.34 1.7 0 0 Z " fill="#FFFFFF" transform="translate(288,63)"/>
<path d="M0 0 C0.66 0.66 1.32 1.32 2 2 C1.67 2.99 1.34 3.98 1 5 C0.67 3.35 0.34 1.7 0 0 Z " fill="#FFFFFF" transform="translate(219,50)"/>
<path d="M0 0 C1.485 0.99 1.485 0.99 3 2 C2.67 2.66 2.34 3.32 2 4 C1.34 2.68 0.68 1.36 0 0 Z " fill="#FFFFFF" transform="translate(279,49)"/>
<path d="M0 0 C1.485 0.99 1.485 0.99 3 2 C2.67 2.66 2.34 3.32 2 4 C1.34 2.68 0.68 1.36 0 0 Z " fill="#FFFFFF" transform="translate(213,41)"/>
<path d="M0 0 C1.98 0.99 1.98 0.99 4 2 C3.01 2 2.02 2 1 2 C0.67 1.34 0.34 0.68 0 0 Z " fill="#FFFFFF" transform="translate(209,38)"/>
<path d="M0 0 C1.32 0.33 2.64 0.66 4 1 C3.67 1.66 3.34 2.32 3 3 C2.01 2.01 1.02 1.02 0 0 Z " fill="#FFFFFF" transform="translate(114,37)"/>
<path d="M0 0 C1.65 0 3.3 0 5 0 C5 0.33 5 0.66 5 1 C3.35 1 1.7 1 0 1 C0 0.67 0 0.34 0 0 Z " fill="#FFFFFF" transform="translate(218,204)"/>
<path d="M0 0 C0.66 0.33 1.32 0.66 2 1 C1.01 1.66 0.02 2.32 -1 3 C-0.67 2.01 -0.34 1.02 0 0 Z " fill="#FFFFFF" transform="translate(226,185)"/>
<path d="M0 0 C1.65 0 3.3 0 5 0 C5 0.33 5 0.66 5 1 C3.35 1 1.7 1 0 1 C0 0.67 0 0.34 0 0 Z " fill="#FFFFFF" transform="translate(203,184)"/>
<path d="M0 0 C1.65 0 3.3 0 5 0 C5 0.33 5 0.66 5 1 C3.35 1 1.7 1 0 1 C0 0.67 0 0.34 0 0 Z " fill="#FFFFFF" transform="translate(144,177)"/>
<path d="M0 0 C1.65 0 3.3 0 5 0 C5 0.33 5 0.66 5 1 C3.35 1 1.7 1 0 1 C0 0.67 0 0.34 0 0 Z " fill="#FFFFFF" transform="translate(149,176)"/>
<path d="M0 0 C1.98 0.99 1.98 0.99 4 2 C2.68 1.67 1.36 1.34 0 1 C0 0.67 0 0.34 0 0 Z " fill="#FFFFFF" transform="translate(71,91)"/>
<path d="M0 0 C0.66 0 1.32 0 2 0 C1.67 0.99 1.34 1.98 1 3 C0.67 2.01 0.34 1.02 0 0 Z " fill="#FFFFFF" transform="translate(248,88)"/>
<path d="M0 0 C0.33 0 0.66 0 1 0 C1 1.65 1 3.3 1 5 C0.67 5 0.34 5 0 5 C0 3.35 0 1.7 0 0 Z " fill="#FFFFFF" transform="translate(222,73)"/>
<path d="M0 0 C0.33 0 0.66 0 1 0 C1 1.65 1 3.3 1 5 C0.67 5 0.34 5 0 5 C0 3.35 0 1.7 0 0 Z " fill="#FFFFFF" transform="translate(58,69)"/>
<path d="M0 0 C0.99 0.495 0.99 0.495 2 1 C1.67 1.99 1.34 2.98 1 4 C0.67 2.68 0.34 1.36 0 0 Z " fill="#FFFFFF" transform="translate(162,65)"/>
<path d="M0 0 C0.33 0 0.66 0 1 0 C1 1.65 1 3.3 1 5 C0.67 5 0.34 5 0 5 C0 3.35 0 1.7 0 0 Z " fill="#FFFFFF" transform="translate(221,55)"/>
<path d="M0 0 C1.65 0 3.3 0 5 0 C5 0.33 5 0.66 5 1 C3.35 1 1.7 1 0 1 C0 0.67 0 0.34 0 0 Z " fill="#FFFFFF" transform="translate(88,29)"/>
<path d="M0 0 C4 1 4 1 4 1 Z " fill="#FFFFFF" transform="translate(159,209)"/>
<path d="M0 0 C4 1 4 1 4 1 Z " fill="#FFFFFF" transform="translate(97,144)"/>
<path d="M0 0 C4 1 4 1 4 1 Z " fill="#FFFFFF" transform="translate(259,95)"/>
<path d="M0 0 C0.66 0.33 1.32 0.66 2 1 C1.01 1 0.02 1 -1 1 C-0.67 0.67 -0.34 0.34 0 0 Z " fill="#FFFFFF" transform="translate(329,92)"/>
<path d="M0 0 C1 4 1 4 1 4 Z " fill="#FFFFFF" transform="translate(133,78)"/>
<path d="M0 0 C0.99 0.495 0.99 0.495 2 1 C1.67 1.66 1.34 2.32 1 3 C0.67 2.01 0.34 1.02 0 0 Z " fill="#FFFFFF" transform="translate(167,74)"/>
<path d="M0 0 C0.99 0.495 0.99 0.495 2 1 C1.67 1.66 1.34 2.32 1 3 C0.67 2.01 0.34 1.02 0 0 Z " fill="#FFFFFF" transform="translate(165,71)"/>
<path d="M0 0 C1 4 1 4 1 4 Z " fill="#FFFFFF" transform="translate(290,68)"/>
<path d="M0 0 C1 4 1 4 1 4 Z " fill="#FFFFFF" transform="translate(130,66)"/>
<path d="M0 0 C1 4 1 4 1 4 Z " fill="#FFFFFF" transform="translate(128,60)"/>
<path d="M0 0 C0.99 0.495 0.99 0.495 2 1 C1.67 1.66 1.34 2.32 1 3 C0.67 2.01 0.34 1.02 0 0 Z " fill="#FFFFFF" transform="translate(120,42)"/>
<path d="M0 0 C4 1 4 1 4 1 Z " fill="#FFFFFF" transform="translate(93,30)"/>
<path d="M0 0 C3 1 3 1 3 1 Z " fill="#FFFFFF" transform="translate(208,183)"/>
<path d="M0 0 C3 1 3 1 3 1 Z " fill="#FFFFFF" transform="translate(211,182)"/>
<path d="M0 0 C3 1 3 1 3 1 Z " fill="#FFFFFF" transform="translate(80,150)"/>
<path d="M0 0 C3 1 3 1 3 1 Z " fill="#FFFFFF" transform="translate(83,149)"/>
<path d="M0 0 C3 1 3 1 3 1 Z " fill="#FFFFFF" transform="translate(86,148)"/>
<path d="M0 0 C3 1 3 1 3 1 Z " fill="#FFFFFF" transform="translate(89,147)"/>
<path d="M0 0 C3 1 3 1 3 1 Z " fill="#FFFFFF" transform="translate(264,144)"/>
<path d="M0 0 C3 1 3 1 3 1 Z " fill="#FFFFFF" transform="translate(101,143)"/>
<path d="M0 0 C3 1 3 1 3 1 Z " fill="#FFFFFF" transform="translate(319,96)"/>
<path d="" fill="#FFFFFF" transform="translate(0,0)"/>
<path d="" fill="#FFFFFF" transform="translate(0,0)"/>
<path d="" fill="#FFFFFF" transform="translate(0,0)"/>
<path d="" fill="#FFFFFF" transform="translate(0,0)"/>
<path d="" fill="#FFFFFF" transform="translate(0,0)"/>
<path d="M0 0 C0.99 0.495 0.99 0.495 2 1 C1.01 1.495 1.01 1.495 0 2 C0 1.34 0 0.68 0 0 Z " fill="#FFFFFF" transform="translate(244,46)"/>
<path d="" fill="#FFFFFF" transform="translate(0,0)"/>
<path d="M0 0 C0.66 0 1.32 0 2 0 C1.67 0.66 1.34 1.32 1 2 C0.67 1.34 0.34 0.68 0 0 Z " fill="#FFFFFF" transform="translate(118,40)"/>
<path d="" fill="#FFFFFF" transform="translate(0,0)"/>
<path d="M0 0 C3 1 3 1 3 1 Z " fill="#FFFFFF" transform="translate(204,36)"/>
<path d="M0 0 C3 1 3 1 3 1 Z " fill="#FFFFFF" transform="translate(107,34)"/>
<path d="M0 0 C2 1 2 1 2 1 Z " fill="#FFFFFF" transform="translate(228,184)"/>
<path d="M0 0 C2 1 2 1 2 1 Z " fill="#FFFFFF" transform="translate(214,181)"/>
<path d="M0 0 C2 1 2 1 2 1 Z " fill="#FFFFFF" transform="translate(64,150)"/>
<path d="" fill="#FFFFFF" transform="translate(0,0)"/>
<path d="M0 0 C2 1 2 1 2 1 Z " fill="#FFFFFF" transform="translate(267,143)"/>
<path d="M0 0 C2 1 2 1 2 1 Z " fill="#FFFFFF" transform="translate(69,90)"/>
<path d="" fill="#FFFFFF" transform="translate(0,0)"/>
<path d="" fill="#FFFFFF" transform="translate(0,0)"/>
<path d="" fill="#FFFFFF" transform="translate(0,0)"/>
<path d="" fill="#FFFFFF" transform="translate(0,0)"/>
<path d="" fill="#FFFFFF" transform="translate(0,0)"/>
<path d="" fill="#FFFFFF" transform="translate(0,0)"/>
<path d="" fill="#FFFFFF" transform="translate(0,0)"/>
<path d="" fill="#FFFFFF" transform="translate(0,0)"/>
<path d="M0 0 C2 1 2 1 2 1 Z " fill="#FFFFFF" transform="translate(251,41)"/>
<path d="M0 0 C2 1 2 1 2 1 Z " fill="#FFFFFF" transform="translate(207,37)"/>
<path d="M0 0 C2 1 2 1 2 1 Z " fill="#FFFFFF" transform="translate(112,36)"/>
<path d="M0 0 C2 1 2 1 2 1 Z " fill="#FFFFFF" transform="translate(110,35)"/>
<path d="" fill="#FFFFFF" transform="translate(0,0)"/>
<path d="" fill="#FFFFFF" transform="translate(0,0)"/>
<path d="" fill="#FFFFFF" transform="translate(0,0)"/>
<path d="" fill="#FFFFFF" transform="translate(0,0)"/>
<path d="" fill="#FFFFFF" transform="translate(0,0)"/>
<path d="" fill="#FFFFFF" transform="translate(0,0)"/>
<path d="" fill="#FFFFFF" transform="translate(0,0)"/>
<path d="" fill="#FFFFFF" transform="translate(0,0)"/>
<path d="" fill="#FFFFFF" transform="translate(0,0)"/>
<path d="" fill="#FFFFFF" transform="translate(0,0)"/>
<path d="" fill="#FFFFFF" transform="translate(0,0)"/>
</svg>
