<?xml version="1.0" encoding="UTF-8"?>
<svg version="1.1" xmlns="http://www.w3.org/2000/svg" width="350" height="230">
<path d="M0 0 C3.02391552 1.73907588 5.41748661 3.83497322 7 7 C7.4375 10.3125 7.4375 10.3125 7 14 C5.19000447 16.23882525 3.45424256 17.38019991 1 19 C0.34 19 -0.32 19 -1 19 C-0.67 19.66 -0.34 20.32 0 21 C0.039992 22.99960012 0.04346799 25.00047242 0 27 C1.299375 26.87625 1.299375 26.87625 2.625 26.75 C7.04067031 27.07708669 8.75428742 27.97066826 12 31 C16.6305158 39.25515176 15.26833701 49.87654159 15 59 C19.95 59.33 24.9 59.66 30 60 C31.32 54.06 32.64 48.12 34 42 C35.13921297 46.55685187 34.33028261 49.40626278 33.0625 53.75 C32.381875 56.1425 31.70125 58.535 31 61 C25.06 61 19.12 61 13 61 C13 60.34 13 59.68 13 59 C11.35 59 9.7 59 8 59 C8 58.67 8 58.34 8 58 C9.98 58 11.96 58 14 58 C13.84089135 44.6226307 13.84089135 44.6226307 10 32 C6.66650194 29.02688011 3.37881149 28.50916413 -1 28 C-1.99 30.475 -1.99 30.475 -3 33 C-5.8125 33.25 -5.8125 33.25 -9 33 C-10.875 31.375 -10.875 31.375 -12 29 C-11.9071875 27.5459375 -11.9071875 27.5459375 -11.8125 26.0625 C-11.874375 25.051875 -11.93625 24.04125 -12 23 C-13.54927172 21.87032271 -15.09882139 20.74101219 -16.65234375 19.6171875 C-19.0993527 16.68077676 -18.58008495 13.28274971 -18.50390625 9.62109375 C-17.93954091 6.68551901 -16.95854442 5.21968368 -15 3 C-17.64 3 -20.28 3 -23 3 C-23 4.32 -23 5.64 -23 7 C-21.07977297 8.77409808 -21.07977297 8.77409808 -19 10 C-23.75 9.25 -23.75 9.25 -26 7 C-25.44444444 2.44444444 -25.44444444 2.44444444 -24 1 C-20.69687103 0.92720377 -17.4047915 1.00390614 -14.1015625 1.0625 C-9.23292978 0.96439153 -4.97809694 -0.86412249 0 0 Z M-15 5 C-16.24498345 7.05013609 -16.24498345 7.05013609 -17 9 C-15.45763775 10.54236225 -14.01543321 10.16936074 -11.875 10.1875 C-7.61074746 10.11948959 -3.96664353 9.69999009 0 8 C1.51792644 5.50358872 1.51792644 5.50358872 2 3 C-3.82905285 -0.88603523 -9.63447332 1.08461567 -15 5 Z M-1 9 C-1 9.99 -1 10.98 -1 12 C-0.01 11.67 0.98 11.34 2 11 C2 10.34 2 9.68 2 9 C1.01 9 0.02 9 -1 9 Z M2 5 C2 7.31 2 9.62 2 12 C-2.75 11.125 -2.75 11.125 -5 10 C-5.33 10.99 -5.66 11.98 -6 13 C-5.01 13.33 -4.02 13.66 -3 14 C-2.67 14.66 -2.34 15.32 -2 16 C-2.66 16 -3.32 16 -4 16 C-4 15.34 -4 14.68 -4 14 C-6.97 14 -9.94 14 -13 14 C-13 13.01 -13 12.02 -13 11 C-14.32 11 -15.64 11 -17 11 C-17.33074549 14.63820044 -17.48805542 16.3773086 -15.1875 19.3125 C-13.01952395 21.17631174 -13.01952395 21.17631174 -10 22 C-10.33 23.65 -10.66 25.3 -11 27 C-7.7 26.67 -4.4 26.34 -1 26 C-1.33 24.02 -1.66 22.04 -2 20 C-4.97 19.67 -7.94 19.34 -11 19 C-9.68 19 -8.36 19 -7 19 C-2.90442894 18.77246827 0.15570593 18.24711556 3.5 15.875 C6.43797909 13.15490201 6.43797909 13.15490201 5.875 9.1875 C5.58625 8.135625 5.2975 7.08375 5 6 C4.01 5.67 3.02 5.34 2 5 Z M-12 11 C-12 11.66 -12 12.32 -12 13 C-10.35 13 -8.7 13 -7 13 C-7 12.34 -7 11.68 -7 11 C-8.65 11 -10.3 11 -12 11 Z M-10 28 C-9.34 29.32 -8.68 30.64 -8 32 C-6.35 31.67 -4.7 31.34 -3 31 C-2.67 29.68 -2.34 28.36 -2 27 C-4.83967231 27 -7.23735711 27.40267181 -10 28 Z " fill="#FFFFFF" transform="translate(74,31)"/>
<path d="M0 0 C0.99 0.66 1.98 1.32 3 2 C6.03381939 2.28485918 6.03381939 2.28485918 9.53515625 2.21118164 C10.19401825 2.2098674 10.85288025 2.20855316 11.53170776 2.2071991 C13.70878478 2.20071 15.88551005 2.1802784 18.0625 2.16015625 C19.57559834 2.15388531 21.08870128 2.14864539 22.60180664 2.14439392 C26.58572914 2.13108824 30.56949848 2.1066549 34.55334473 2.07904053 C40.93011843 2.03593057 47.30693331 2.00620691 53.68380737 1.9829998 C55.91239096 1.97277149 58.14084974 1.95572113 60.36938477 1.93800354 C61.73453662 1.9311755 63.0996896 1.92456676 64.46484375 1.91821289 C65.657146 1.90995987 66.84944824 1.90170685 68.07788086 1.89320374 C71 2 71 2 74 3 C75.9920303 3.08291953 77.98673713 3.10738177 79.98046875 3.09765625 C81.72553711 3.09282227 81.72553711 3.09282227 83.50585938 3.08789062 C85.32827148 3.07532227 85.32827148 3.07532227 87.1875 3.0625 C89.02731445 3.05573242 89.02731445 3.05573242 90.90429688 3.04882812 C93.93624668 3.03703065 96.96809906 3.02056921 100 3 C100 3.33 100 3.66 100 4 C94.42589711 5.17644383 88.979505 5.14836909 83.3125 5.125 C82.36310547 5.12886719 81.41371094 5.13273438 80.43554688 5.13671875 C79.52482422 5.13542969 78.61410156 5.13414062 77.67578125 5.1328125 C76.4369519 5.13112061 76.4369519 5.13112061 75.1730957 5.12939453 C73 5 73 5 70 4 C67.82289751 3.92043226 65.64334756 3.90313346 63.46484375 3.91821289 C62.80598175 3.92127945 62.14711975 3.92434601 61.46829224 3.92750549 C60.0392434 3.93465313 58.61020441 3.94403927 57.18118286 3.95540047 C54.92017974 3.97278946 52.65924726 3.98308918 50.39819336 3.99131775 C43.97014685 4.01577544 37.54219573 4.05139147 31.11425781 4.09594727 C27.1815758 4.12271109 23.24894865 4.13976584 19.31619263 4.15081596 C17.81704681 4.15702908 16.31791179 4.16703856 14.81881714 4.18089485 C12.72419241 4.20008565 10.62985697 4.20700332 8.53515625 4.21118164 C7.342854 4.21863907 6.15055176 4.2260965 4.92211914 4.23377991 C2 4 2 4 -1 2 C-3.93443402 2.26656572 -3.93443402 2.26656572 -7 3 C-8.423125 3.2784375 -8.423125 3.2784375 -9.875 3.5625 C-10.926875 3.7790625 -10.926875 3.7790625 -12 4 C-8.05259428 0.86929891 -5.08638685 -0.38147901 0 0 Z " fill="#FFFFFF" transform="translate(196,183)"/>
<path d="M0 0 C0.5971582 0.49089111 1.19431641 0.98178223 1.80957031 1.48754883 C4.51298632 3.35420756 6.16036054 3.42112113 9.421875 3.51171875 C10.44667969 3.54716797 11.47148437 3.58261719 12.52734375 3.61914062 C13.59082031 3.64169922 14.65429688 3.66425781 15.75 3.6875 C16.82894531 3.72166016 17.90789062 3.75582031 19.01953125 3.79101562 C21.67958377 3.87340663 24.33931035 3.94258645 27 4 C27 4.33 27 4.66 27 5 C23.08347368 5.08714316 19.16719689 5.14043985 15.25 5.1875 C14.13882813 5.21263672 13.02765625 5.23777344 11.8828125 5.26367188 C10.81289063 5.27333984 9.74296875 5.28300781 8.640625 5.29296875 C7.16384277 5.31653442 7.16384277 5.31653442 5.65722656 5.34057617 C2.58233667 4.94646818 1.35381742 3.93644213 -1 2 C-3.41383512 1.99393665 -3.41383512 1.99393665 -5.875 2.6875 C-7.10863281 2.97173828 -7.10863281 2.97173828 -8.3671875 3.26171875 C-11.06006288 3.97548656 -11.06006288 3.97548656 -13.8359375 5.0703125 C-17.59490884 6.17480037 -20.83784065 6.23002347 -24.75 6.1875 C-26.72226563 6.17783203 -26.72226563 6.17783203 -28.734375 6.16796875 C-32 6 -32 6 -34 5 C-36.10641222 5.03735792 -38.21179517 5.15310337 -40.3125 5.3125 C-41.44300781 5.39113281 -42.57351562 5.46976563 -43.73828125 5.55078125 C-46.93302139 5.84748262 -46.93302139 5.84748262 -49.44921875 7.03125 C-52.87785424 8.3333964 -55.84403354 8.22771563 -59.5 8.1875 C-60.7890625 8.18105469 -62.078125 8.17460937 -63.40625 8.16796875 C-66.40829511 8.02765577 -69.08759732 7.7000968 -72 7 C-71.67 6.34 -71.34 5.68 -71 5 C-70.3090625 5.16113281 -69.618125 5.32226562 -68.90625 5.48828125 C-65.72350786 6.04868343 -62.73095298 6.16862761 -59.5 6.1875 C-57.84484375 6.20876953 -57.84484375 6.20876953 -56.15625 6.23046875 C-52.98729961 5.99907262 -50.87632242 5.28433412 -48 4 C-35.65753425 1.67123288 -35.65753425 1.67123288 -31 4 C-22.67695039 4.76808779 -15.71250204 3.69650073 -7.875 0.875 C-4.97880382 -0.00645101 -2.9956459 -0.39416393 0 0 Z " fill="#FFFFFF" transform="translate(248,165)"/>
<path d="M0 0 C6.2522996 -0.06578483 12.39772162 0.16270882 18.62890625 0.65625 C19.50401352 0.72283813 20.37912079 0.78942627 21.28074646 0.85803223 C24.04158649 1.06883593 26.80203591 1.28433497 29.5625 1.5 C31.44854375 1.64484349 33.33461129 1.78937763 35.22070312 1.93359375 C39.81408457 2.28548973 44.40712215 2.64159348 49 3 C49 3.33 49 3.66 49 4 C37.88333904 4.20198509 27.06167465 3.63608916 16 2.5 C11.05 2.005 6.1 1.51 1 1 C0.67 16.84 0.34 32.68 0 49 C-0.33 49 -0.66 49 -1 49 C-1.02535418 42.66455947 -1.04286866 36.32913203 -1.05493164 29.99365234 C-1.05996052 27.83837393 -1.06678442 25.68309893 -1.07543945 23.52783203 C-1.08756821 20.43000446 -1.09324278 17.33222199 -1.09765625 14.234375 C-1.10281754 13.27070007 -1.10797882 12.30702515 -1.11329651 11.31414795 C-1.11337204 10.41351624 -1.11344757 9.51288452 -1.11352539 8.58496094 C-1.115746 7.79442322 -1.11796661 7.0038855 -1.12025452 6.18939209 C-1.00026577 4.00483874 -0.60355197 2.09807318 0 0 Z " fill="#FFFFFF" transform="translate(25,13)"/>
<path d="M0 0 C5.52856909 -0.37694789 5.52856909 -0.37694789 7.87109375 1.49609375 C10.57953184 3.40939405 12.01688648 3.33919116 15.3125 3.25 C16.44429688 3.22679688 17.57609375 3.20359375 18.7421875 3.1796875 C22.08267178 3.05304186 25.41978622 2.8746594 28.7578125 2.6953125 C30.28281372 2.61748535 30.28281372 2.61748535 31.83862305 2.53808594 C33.87720472 2.43080062 35.91521755 2.31197764 37.95239258 2.18066406 C43.22350457 1.89364317 47.00923685 2.09674287 52 4 C55.68603051 4.35067101 59.35190543 4.50164704 63.05078125 4.65625 C64.02402344 4.7696875 64.99726563 4.883125 66 5 C66.495 5.99 66.495 5.99 67 7 C64.45749979 6.88525534 61.91652662 6.7585303 59.375 6.625 C58.30572266 6.57859375 58.30572266 6.57859375 57.21484375 6.53125 C53.89294082 6.34839296 51.24772306 6.09068731 48.09765625 4.9375 C43.67019185 3.597536 39.63684301 4.04610676 35.0625 4.375 C33.19023873 4.48410499 31.31783908 4.59085974 29.4453125 4.6953125 C28.06520996 4.77507324 28.06520996 4.77507324 26.65722656 4.85644531 C22.91517603 5.05860681 19.18483441 5.18399998 15.4375 5.25 C13.70306641 5.28867188 13.70306641 5.28867188 11.93359375 5.328125 C8.64491949 4.96028394 7.45865531 4.12215061 5 2 C2.35065178 1.28566879 2.35065178 1.28566879 0 1 C0 0.67 0 0.34 0 0 Z " fill="#FFFFFF" transform="translate(246,84)"/>
<path d="M0 0 C0.33 0 0.66 0 1 0 C1 6.27 1 12.54 1 19 C2.7325 18.979375 4.465 18.95875 6.25 18.9375 C9.69915231 18.89643866 12.68929162 18.99890485 16 20 C15.97679687 19.37351562 15.95359375 18.74703125 15.9296875 18.1015625 C15.91164063 17.28429687 15.89359375 16.46703125 15.875 15.625 C15.85179687 14.81289062 15.82859375 14.00078125 15.8046875 13.1640625 C16 11 16 11 18 9 C17.67 12.63 17.34 16.26 17 20 C20.3 19.67 23.6 19.34 27 19 C27 15.37 27 11.74 27 8 C27.33 8 27.66 8 28 8 C28.06058594 8.68707031 28.12117188 9.37414062 28.18359375 10.08203125 C28.30927734 11.43361328 28.30927734 11.43361328 28.4375 12.8125 C28.51871094 13.70582031 28.59992187 14.59914063 28.68359375 15.51953125 C28.93489767 18.12743559 28.93489767 18.12743559 30 21 C10.03189066 21.18451025 10.03189066 21.18451025 1 20 C0.67 20.66 0.34 21.32 0 22 C0 14.74 0 7.48 0 0 Z " fill="#FFFFFF" transform="translate(26,65)"/>
<path d="M0 0 C4.91638186 0.86619122 9.28148959 0.9906376 14.25 0.5625 C25.25024705 -0.25873652 35.1150446 0.06182034 46 2 C46 2.33 46 2.66 46 3 C45.41847168 2.96447021 44.83694336 2.92894043 44.23779297 2.89233398 C32.122951 2.18241515 20.21121914 1.86749406 8.09716797 2.76928711 C3.38938862 3.0803447 0.36950295 2.97667991 -4 1 C-6.03121073 1.33071399 -6.03121073 1.33071399 -8 2 C-9.58211573 2.06548492 -11.16670081 2.08578381 -12.75 2.0625 C-13.54921875 2.05347656 -14.3484375 2.04445312 -15.171875 2.03515625 C-15.77515625 2.02355469 -16.3784375 2.01195312 -17 2 C-17.33 1.34 -17.66 0.68 -18 0 C-17.39671875 0.01160156 -16.7934375 0.02320312 -16.171875 0.03515625 C-15.37265625 0.04417969 -14.5734375 0.05320312 -13.75 0.0625 C-12.96109375 0.07410156 -12.1721875 0.08570312 -11.359375 0.09765625 C-1.35980323 -0.31623331 -1.35980323 -0.31623331 0 0 Z " fill="#FFFFFF" transform="translate(51,126)"/>
<path d="M0 0 C4.0573667 0.31637613 8.12139426 0.46012511 12.1875 0.625 C13.8262207 0.70234375 13.8262207 0.70234375 15.49804688 0.78125 C16.54412109 0.82507813 17.59019531 0.86890625 18.66796875 0.9140625 C20.09532349 0.9752124 20.09532349 0.9752124 21.55151367 1.03759766 C24.13979883 1.12096968 24.13979883 1.12096968 27 0 C29.16022092 -0.3006493 31.32865107 -0.54460213 33.5 -0.75 C34.6446875 -0.86859375 35.789375 -0.9871875 36.96875 -1.109375 C40 -1 40 -1 41.70703125 0.44140625 C42.34705078 1.21291016 42.34705078 1.21291016 43 2 C46.10839021 2.7269226 46.10839021 2.7269226 49 3 C49 3.33 49 3.66 49 4 C45.625 4.125 45.625 4.125 42 4 C41.34 3.34 40.68 2.68 40 2 C37.3057165 1.71750179 37.3057165 1.71750179 34.25 1.8125 C33.22390625 1.81894531 32.1978125 1.82539063 31.140625 1.83203125 C28.06168512 1.92095069 28.06168512 1.92095069 25.3359375 2.53515625 C20.32733145 3.23307677 15.4139056 2.87757672 10.375 2.625 C8.82039063 2.55925781 8.82039063 2.55925781 7.234375 2.4921875 C-1.09238919 2.10489614 -1.09238919 2.10489614 -5 1 C-5.7425 0.814375 -6.485 0.62875 -7.25 0.4375 C-7.8275 0.293125 -8.405 0.14875 -9 0 C-5.45431832 -1.18189389 -3.63948761 -0.67089654 0 0 Z " fill="#FFFFFF" transform="translate(76,185)"/>
<path d="M0 0 C3.20955551 1.80557665 5.18707795 1.84974069 8.84692383 1.7956543 C10.00385742 1.78598633 11.16079102 1.77631836 12.3527832 1.76635742 C14.15005859 1.72865234 14.15005859 1.72865234 15.98364258 1.69018555 C17.20116211 1.67665039 18.41868164 1.66311523 19.6730957 1.64916992 C22.67289603 1.61387815 25.67179233 1.56457035 28.67114258 1.50268555 C28.67114258 2.16268555 28.67114258 2.82268555 28.67114258 3.50268555 C29.57864258 2.98706055 30.48614258 2.47143555 31.42114258 1.94018555 C34.67114258 0.50268555 34.67114258 0.50268555 37.04614258 0.81518555 C37.58239258 1.04206055 38.11864258 1.26893555 38.67114258 1.50268555 C32.17114258 4.50268555 32.17114258 4.50268555 27.67114258 4.50268555 C27.67114258 3.84268555 27.67114258 3.18268555 27.67114258 2.50268555 C27.01114258 2.83268555 26.35114258 3.16268555 25.67114258 3.50268555 C21.73934758 3.77218235 17.79863042 3.73430659 13.85864258 3.75268555 C12.21798828 3.78362305 12.21798828 3.78362305 10.54418945 3.81518555 C8.95767578 3.82291992 8.95767578 3.82291992 7.33911133 3.83081055 C6.37255615 3.84015625 5.40600098 3.84950195 4.41015625 3.85913086 C1.19884734 3.44122276 -0.60668857 2.19922691 -3.32885742 0.50268555 C-6.05453027 0.44901945 -8.45966523 0.52520352 -11.14135742 0.81518555 C-12.18066406 0.90703125 -12.18066406 0.90703125 -13.2409668 1.00073242 C-14.93835564 1.15291211 -16.63387291 1.3257249 -18.32885742 1.50268555 C-13.32738122 -1.83163192 -5.29227176 -3.40261062 0 0 Z " fill="#FFFFFF" transform="translate(204.328857421875,85.497314453125)"/>
<path d="M0 0 C0 0.66 0 1.32 0 2 C8.46523601 2.12891222 16.77038331 2.18599193 25 0 C22.22243746 3.22751037 19.91230244 3.54170276 15.68359375 3.875 C1.78367347 4.52244898 1.78367347 4.52244898 -2 2 C-3.67725385 2.27515159 -5.343263 2.62037992 -7 3 C-15.3739705 3.32538857 -23.69020545 3.09493764 -32 2 C-32 1.67 -32 1.34 -32 1 C-30.94872925 1.00785522 -30.94872925 1.00785522 -29.8762207 1.01586914 C-26.68832299 1.03670852 -23.50043964 1.04968232 -20.3125 1.0625 C-18.65831055 1.07506836 -18.65831055 1.07506836 -16.97070312 1.08789062 C-15.90400391 1.09111328 -14.83730469 1.09433594 -13.73828125 1.09765625 C-12.75899658 1.10289307 -11.77971191 1.10812988 -10.77075195 1.11352539 C-7.09582675 0.96295351 -3.67916402 0 0 0 Z " fill="#FFFFFF" transform="translate(307,167)"/>
<path d="M0 0 C2.35546875 0.93359375 2.35546875 0.93359375 3.89453125 3 C4.37664062 3.63808594 4.85875 4.27617187 5.35546875 4.93359375 C7.43434399 5.3133997 7.43434399 5.3133997 9.73046875 4.87109375 C10.60703125 4.74863281 11.48359375 4.62617188 12.38671875 4.5 C16.79289597 3.65934777 21.1347989 2.5963721 25.47265625 1.45703125 C28.25314113 0.95217356 29.73671099 0.98476848 32.35546875 1.93359375 C30.52473958 2.39127604 28.69401042 2.84895833 26.86328125 3.30664062 C26.11820313 3.49291016 25.373125 3.67917969 24.60546875 3.87109375 C22.49641927 4.39835612 20.38736979 4.92561849 18.27832031 5.45288086 C16.93019718 5.78991164 15.58328404 6.13180207 14.23730469 6.47729492 C10.92747636 7.27984671 7.71515485 7.5807464 4.35546875 6.93359375 C1.85546875 4.43359375 1.85546875 4.43359375 0.35546875 1.93359375 C-2.76266603 2.85486084 -5.24087021 3.62219809 -7.83203125 5.62109375 C-8.43015625 6.05421875 -9.02828125 6.48734375 -9.64453125 6.93359375 C-10.63453125 6.60359375 -11.62453125 6.27359375 -12.64453125 5.93359375 C-11.09389965 4.89482112 -9.52843444 3.8781682 -7.95703125 2.87109375 C-7.08691406 2.30261719 -6.21679688 1.73414063 -5.3203125 1.1484375 C-2.64453125 -0.06640625 -2.64453125 -0.06640625 0 0 Z " fill="#FFFFFF" transform="translate(183.64453125,142.06640625)"/>
<path d="M0 0 C15.18 0 30.36 0 46 0 C45.34 4.62 44.68 9.24 44 14 C43.67 14 43.34 14 43 14 C42.9727585 12.58344207 42.95349533 11.16672955 42.9375 9.75 C42.92589844 8.96109375 42.91429687 8.1721875 42.90234375 7.359375 C43 5 43 5 44 1 C29.48 1 14.96 1 0 1 C0 0.67 0 0.34 0 0 Z " fill="#FFFFFF" transform="translate(74,17)"/>
<path d="M0 0 C0.68666748 0.15919922 1.37333496 0.31839844 2.08081055 0.48242188 C5.32345373 1.05734899 8.41469042 1.19605833 11.70703125 1.28125 C13.00954834 1.31806885 14.31206543 1.3548877 15.65405273 1.39282227 C16.3345871 1.41031525 17.01512146 1.42780823 17.71627808 1.4458313 C21.2147849 1.5362366 24.71286303 1.64041182 28.2109375 1.74609375 C29.23232063 1.776782 29.23232063 1.776782 30.27433777 1.80809021 C37.52951697 2.03419886 44.76261891 2.4486922 52 3 C52 3.33 52 3.66 52 4 C41.59582289 4.13913461 31.19857247 3.9688239 20.79837036 3.68161011 C19.39356739 3.64393558 17.98867315 3.60952052 16.58370972 3.57839966 C14.5803123 3.53296665 12.57724231 3.47374498 10.57421875 3.4140625 C9.40463623 3.3826416 8.23505371 3.3512207 7.0300293 3.31884766 C4.1548846 3.01629839 2.43889952 2.49503904 0 1 C0 0.67 0 0.34 0 0 Z " fill="#FFFFFF" transform="translate(195,40)"/>
<path d="M0 0 C0.66 1.98 1.32 3.96 2 6 C2.69150146 6.02505615 3.38300293 6.0501123 4.09545898 6.07592773 C7.20967866 6.19152161 10.32356789 6.31441242 13.4375 6.4375 C14.52611328 6.47681641 15.61472656 6.51613281 16.73632812 6.55664062 C18.28803711 6.61948242 18.28803711 6.61948242 19.87109375 6.68359375 C20.82943115 6.72025146 21.78776855 6.75690918 22.77514648 6.79467773 C25 7 25 7 26 8 C28.32817964 8.36760731 30.6618385 8.70241581 33 9 C33 9.33 33 9.66 33 10 C26.84765625 10.09765625 26.84765625 10.09765625 25 10 C24.505 9.505 24.505 9.505 24 9 C22.31707115 8.86679702 20.62905811 8.79661159 18.94140625 8.75390625 C17.91595703 8.72103516 16.89050781 8.68816406 15.83398438 8.65429688 C13.65700419 8.59321146 11.47991458 8.53590563 9.30273438 8.48242188 C8.27599609 8.44826172 7.24925781 8.41410156 6.19140625 8.37890625 C5.24467041 8.3538501 4.29793457 8.32879395 3.32250977 8.30297852 C1 8 1 8 -1 6 C-1.125 3.375 -1.125 3.375 -1 1 C-1.99 1.33 -2.98 1.66 -4 2 C-6.33299825 2.03954234 -8.66708189 2.04401732 -11 2 C-11 1.67 -11 1.34 -11 1 C-7.27569643 0.30710631 -3.78916254 -0.11144596 0 0 Z " fill="#FFFFFF" transform="translate(215,101)"/>
<path d="M0 0 C0.79341797 -0.00773438 1.58683594 -0.01546875 2.40429688 -0.0234375 C9.50058231 0.00039553 9.50058231 0.00039553 12.8125 2.25 C11.1625 2.58 9.5125 2.91 7.8125 3.25 C7.8125 2.59 7.8125 1.93 7.8125 1.25 C5.2908624 1.36503269 2.7706881 1.49174777 0.25 1.625 C-0.45447266 1.6559375 -1.15894531 1.686875 -1.88476562 1.71875 C-6.57622415 1.97818549 -10.67162718 2.85877458 -15.1875 4.25 C-17.9375 4.375 -17.9375 4.375 -20.1875 4.25 C-22.80863708 4.25 -24.69685112 4.56292445 -27.1875 5.25 C-25.625 3.1875 -25.625 3.1875 -23.1875 1.25 C-20.84543749 1.51513915 -18.51137947 1.85612212 -16.1875 2.25 C-15.1459375 1.93804687 -14.104375 1.62609375 -13.03125 1.3046875 C-8.55442386 0.07629008 -4.6099784 -0.04560572 0 0 Z " fill="#FFFFFF" transform="translate(58.1875,166.75)"/>
<path d="M0 0 C4.15043961 0.44468996 8.095536 0.96567679 12.125 2.0625 C16.71972906 3.174128 20.30943938 3.32372437 24.9375 2.4375 C29.77235246 1.74680679 34.33066389 2.69258589 39 4 C34.20309397 5.59896868 29.82979587 5.2521693 25 4 C24.01 4.495 24.01 4.495 23 5 C17.97163122 5.26008804 13.86099715 4.86289801 9.03125 3.51171875 C5.72147901 2.67791106 2.3904208 2.36325937 -1 2 C-0.67 1.34 -0.34 0.68 0 0 Z " fill="#FFFFFF" transform="translate(33,101)"/>
<path d="M0 0 C4.11193736 0.11798252 8.22363288 0.24221059 12.33520508 0.37231445 C13.73489199 0.41571434 15.13463359 0.45738564 16.53442383 0.49731445 C18.54261495 0.55489445 20.55061149 0.61914 22.55859375 0.68359375 C23.76829834 0.72025146 24.97800293 0.75690918 26.22436523 0.79467773 C29 1 29 1 30 2 C32.01594582 2.23427778 34.038474 2.41336124 36.0625 2.5625 C37.16722656 2.64628906 38.27195313 2.73007813 39.41015625 2.81640625 C40.26480469 2.87699219 41.11945313 2.93757813 42 3 C42 3.33 42 3.66 42 4 C39.87506859 4.02693575 37.75004088 4.04636628 35.625 4.0625 C34.44164062 4.07410156 33.25828125 4.08570312 32.0390625 4.09765625 C29 4 29 4 27 3 C25.39272633 2.85949709 23.78041547 2.77429558 22.16796875 2.71875 C21.20439453 2.68136719 20.24082031 2.64398438 19.24804688 2.60546875 C18.23806641 2.57066406 17.22808594 2.53585938 16.1875 2.5 C14.20169088 2.43077231 12.21600241 2.35797282 10.23046875 2.28125 C9.34770264 2.25095703 8.46493652 2.22066406 7.55541992 2.18945312 C4.96797782 1.99762595 2.53065909 1.56180006 0 1 C0 0.67 0 0.34 0 0 Z " fill="#FFFFFF" transform="translate(29,112)"/>
<path d="M0 0 C0 0.66 0 1.32 0 2 C1.11375 1.835 2.2275 1.67 3.375 1.5 C17.04596949 -0.17548294 17.04596949 -0.17548294 23 3 C19.25 4.125 19.25 4.125 17 3 C15.29252136 2.90340872 13.58130103 2.86924463 11.87109375 2.8671875 C10.83533203 2.86589844 9.79957031 2.86460938 8.73242188 2.86328125 C7.64509766 2.86714844 6.55777344 2.87101562 5.4375 2.875 C3.84711914 2.86919922 3.84711914 2.86919922 2.22460938 2.86328125 C-3.93383613 2.87087958 -9.89423899 3.19273254 -16 4 C-12.88475523 1.92317015 -11.06898061 1.48427637 -7.4375 0.875 C-6.46683594 0.70742187 -5.49617188 0.53984375 -4.49609375 0.3671875 C-2 0 -2 0 0 0 Z " fill="#FFFFFF" transform="translate(268,105)"/>
<path d="M0 0 C0.62003906 0.49886719 1.24007812 0.99773437 1.87890625 1.51171875 C4.60783413 3.42649135 6.20670606 3.27880768 9.5 3.125 C12.94702611 2.98295222 15.67985257 3.11597701 19 4 C20.41534778 4.06456879 21.83337689 4.08611039 23.25 4.0625 C24.4875 4.041875 25.725 4.02125 27 4 C27 4.33 27 4.66 27 5 C25.10507254 5.19644384 23.20899097 5.38177288 21.3125 5.5625 C19.72888672 5.71912109 19.72888672 5.71912109 18.11328125 5.87890625 C15.16562587 5.99355784 12.85858786 5.63790635 10 5 C8.2365625 5.061875 8.2365625 5.061875 6.4375 5.125 C3 5 3 5 1.125 3.5 C-2.27324167 1.10124118 -5.96637297 1.76729075 -10 2 C-6.28986601 -0.47342266 -4.38939738 -0.38503486 0 0 Z " fill="#FFFFFF" transform="translate(97,204)"/>
<path d="M0 0 C0.75732422 0.04833984 1.51464844 0.09667969 2.29492188 0.14648438 C3.08060547 0.20255859 3.86628906 0.25863281 4.67578125 0.31640625 C5.47306641 0.36861328 6.27035156 0.42082031 7.09179688 0.47460938 C9.05764647 0.60409647 11.0230179 0.74080666 12.98828125 0.87890625 C12.98828125 1.53890625 12.98828125 2.19890625 12.98828125 2.87890625 C13.85839844 2.84410156 13.85839844 2.84410156 14.74609375 2.80859375 C19.60239291 2.69640202 23.4176052 3.0037571 27.98828125 4.87890625 C27.98828125 5.53890625 27.98828125 6.19890625 27.98828125 6.87890625 C23.23828125 6.00390625 23.23828125 6.00390625 20.98828125 4.87890625 C19.4515926 4.65422794 17.90860071 4.4709382 16.36328125 4.31640625 C15.54601562 4.23261719 14.72875 4.14882812 13.88671875 4.0625 C13.26023438 4.00191406 12.63375 3.94132813 11.98828125 3.87890625 C11.98828125 3.21890625 11.98828125 2.55890625 11.98828125 1.87890625 C9.6132027 1.85171069 7.23844161 1.83197378 4.86328125 1.81640625 C4.198125 1.80802734 3.53296875 1.79964844 2.84765625 1.79101562 C-1.21853229 1.77108333 -5.02372795 2.09000464 -9.01171875 2.87890625 C-6.14258565 0.00977315 -3.87146666 -0.26197895 0 0 Z " fill="#FFFFFF" transform="translate(126.01171875,160.12109375)"/>
<path d="M0 0 C1.07314453 0.00322266 2.14628906 0.00644531 3.25195312 0.00976562 C4.37150391 0.01814453 5.49105469 0.02652344 6.64453125 0.03515625 C8.34125977 0.04192383 8.34125977 0.04192383 10.07226562 0.04882812 C12.86724052 0.06062127 15.66210945 0.07707975 18.45703125 0.09765625 C18.45703125 0.42765625 18.45703125 0.75765625 18.45703125 1.09765625 C13.30565803 1.96071354 8.42240653 2.19495803 3.20703125 2.09765625 C-2.2396796 1.95561592 -2.2396796 1.95561592 -7.54296875 3.09765625 C-10.28162162 3.16816739 -12.99324463 3.1912339 -15.73046875 3.16015625 C-16.48005859 3.15564453 -17.22964844 3.15113281 -18.00195312 3.14648438 C-19.84899258 3.13471979 -21.69599088 3.1167849 -23.54296875 3.09765625 C-23.54296875 2.76765625 -23.54296875 2.43765625 -23.54296875 2.09765625 C-22.49496094 2.03707031 -21.44695312 1.97648437 -20.3671875 1.9140625 C-18.98826827 1.82963887 -17.6093627 1.74499178 -16.23046875 1.66015625 C-15.54017578 1.62083984 -14.84988281 1.58152344 -14.13867188 1.54101562 C-9.25828035 1.23451761 -4.89939598 -0.02592273 0 0 Z " fill="#FFFFFF" transform="translate(166.54296875,22.90234375)"/>
<path d="M0 0 C14.52 0 29.04 0 44 0 C44 0.33 44 0.66 44 1 C29.36167682 2.64333507 14.67440896 1.651769 0 1 C0 0.67 0 0.34 0 0 Z " fill="#FFFFFF" transform="translate(231,21)"/>
<path d="M0 0 C1.1446875 0.2475 1.1446875 0.2475 2.3125 0.5 C10.84131657 1.77687201 10.84131657 1.77687201 19 0 C25.54670857 -0.44517618 31.66219391 0.39189995 38 2 C36.54263913 2.19491452 35.08405407 2.38069358 33.625 2.5625 C32.81289062 2.66691406 32.00078125 2.77132812 31.1640625 2.87890625 C29 3 29 3 27 2 C22.34724024 1.6947378 22.34724024 1.6947378 18 3 C15.89851818 3.12327929 13.79256093 3.17558006 11.6875 3.1875 C10.55699219 3.20167969 9.42648438 3.21585937 8.26171875 3.23046875 C5.06795157 3.00480137 2.8723571 2.36342654 0 1 C0 0.67 0 0.34 0 0 Z " fill="#FFFFFF" transform="translate(166,64)"/>
<path d="M0 0 C0.66 0.66 1.32 1.32 2 2 C4.21072977 2.24253813 4.21072977 2.24253813 6.625 2.125 C7.44226563 2.10695313 8.25953125 2.08890625 9.1015625 2.0703125 C9.72804688 2.04710938 10.35453125 2.02390625 11 2 C7.32653229 4.44897847 5.33643601 4.31537716 1 4 C0.34 3.34 -0.32 2.68 -1 2 C-5.51853938 1.80674272 -9.49897343 2.78404027 -13.625 4.5625 C-17.3466714 6.14765634 -19.99801992 6.24501919 -24 6 C-23.67 5.34 -23.34 4.68 -23 4 C-21.39133799 3.76041204 -19.78052078 3.53116898 -18.1640625 3.3515625 C-15.65530986 2.94400341 -13.3551286 2.21902949 -10.9375 1.4375 C-7.17123296 0.26806549 -3.97898934 -0.49737367 0 0 Z " fill="#FFFFFF" transform="translate(259,62)"/>
<path d="M0 0 C0 0.33 0 0.66 0 1 C-8.91934605 3.0827853 -17.56627473 3.24069342 -26.6875 3.125 C-28.0826758 3.11494059 -29.4778587 3.10582002 -30.87304688 3.09765625 C-34.2488837 3.07429406 -37.62434618 3.04153668 -41 3 C-41 2.67 -41 2.34 -41 2 C-35.15351327 0.71638027 -29.38554091 0.92513479 -23.4375 1 C-21.39458563 1.02561648 -19.35160694 1.04661137 -17.30859375 1.0625 C-16.40939209 1.07410156 -15.51019043 1.08570313 -14.58374023 1.09765625 C-9.63281673 0.91052884 -5.02720101 -0.09857257 0 0 Z " fill="#FFFFFF" transform="translate(195,41)"/>
<path d="M0 0 C0.33 1.32 0.66 2.64 1 4 C1.99 3.34 2.98 2.68 4 2 C3.34 3.32 2.68 4.64 2 6 C0.68 6 -0.64 6 -2 6 C-1.67 4.35 -1.34 2.7 -1 1 C-2.0725 1.639375 -3.145 2.27875 -4.25 2.9375 C-6.80822182 4.40601273 -9.05340886 5.52854542 -12 6 C-12 5.01 -12 4.02 -12 3 C-14.64 3.33 -17.28 3.66 -20 4 C-19.67 3.34 -19.34 2.68 -19 2 C-16.36 2 -13.72 2 -11 2 C-10.67 2.66 -10.34 3.32 -10 4 C-9.278125 3.34 -8.55625 2.68 -7.8125 2 C-4.78402067 -0.1535853 -3.60296594 -0.41176754 0 0 Z " fill="#FFFFFF" transform="translate(247,142)"/>
<path d="M0 0 C3.27075883 -0.0580476 6.54138524 -0.09361165 9.8125 -0.125 C10.74126953 -0.14175781 11.67003906 -0.15851562 12.62695312 -0.17578125 C13.51962891 -0.18222656 14.41230469 -0.18867188 15.33203125 -0.1953125 C16.15421143 -0.20578613 16.9763916 -0.21625977 17.82348633 -0.22705078 C20 0 20 0 23 2 C24.93137682 2.27356843 24.93137682 2.27356843 27.01171875 2.1953125 C27.76904297 2.18886719 28.52636719 2.18242187 29.30664062 2.17578125 C30.09232422 2.15902344 30.87800781 2.14226563 31.6875 2.125 C32.88342773 2.11146484 32.88342773 2.11146484 34.10351562 2.09765625 C36.069139 2.07411585 38.03460775 2.03824547 40 2 C40 2.33 40 2.66 40 3 C37.06294869 3.22155127 34.12619637 3.42774197 31.1875 3.625 C30.35412109 3.68945312 29.52074219 3.75390625 28.66210938 3.8203125 C27.45844727 3.89765625 27.45844727 3.89765625 26.23046875 3.9765625 C25.12288208 4.05511475 25.12288208 4.05511475 23.99291992 4.13525391 C22 4 22 4 19 2 C16.87662229 1.63566627 16.87662229 1.63566627 14.55078125 1.5859375 C13.70322266 1.54726563 12.85566406 1.50859375 11.98242188 1.46875 C11.10134766 1.4378125 10.22027344 1.406875 9.3125 1.375 C8.41982422 1.33632813 7.52714844 1.29765625 6.60742188 1.2578125 C4.4051538 1.16359782 2.20289278 1.07798412 0 1 C0 0.67 0 0.34 0 0 Z " fill="#FFFFFF" transform="translate(275,20)"/>
<path d="M0 0 C0.66 0.66 1.32 1.32 2 2 C4.09845252 1.79783777 4.09845252 1.79783777 6.375 1.125 C9.51421863 0.29557434 11.66718457 0 15 0 C15 0.66 15 1.32 15 2 C15.66 2 16.32 2 17 2 C17 2.66 17 3.32 17 4 C16.01 3.67 15.02 3.34 14 3 C14 2.34 14 1.68 14 1 C12.845 1.495 11.69 1.99 10.5 2.5 C7.4639835 3.65529831 5.05745176 4.16757463 1.8125 4.0625 C-1.90466683 4.00156284 -3.68939706 4.52862091 -7 6 C-8.32 6 -9.64 6 -11 6 C-10 4 -10 4 -7.96875 3.18359375 C-7.1540625 2.93738281 -6.339375 2.69117188 -5.5 2.4375 C-2.48668507 1.67451663 -2.48668507 1.67451663 0 0 Z " fill="#FFFFFF" transform="translate(36,150)"/>
<path d="M0 0 C4.29 0 8.58 0 13 0 C13 0.99 13 1.98 13 3 C25.375 2.505 25.375 2.505 38 2 C38 2.33 38 2.66 38 3 C29.3387414 4.25981943 20.72998757 4.09020653 12 4 C12 3.01 12 2.02 12 1 C8.04 1 4.08 1 0 1 C0 0.67 0 0.34 0 0 Z " fill="#FFFFFF" transform="translate(193,204)"/>
<path d="M0 0 C0 0.33 0 0.66 0 1 C-11.90267998 2.56546117 -23.03270718 3.2214892 -35 2 C-35 1.67 -35 1.34 -35 1 C-33.58460938 1.01740234 -33.58460938 1.01740234 -32.140625 1.03515625 C-24.92477957 1.08587002 -17.8665037 0.9135105 -10.67578125 0.22265625 C-7.10079863 -0.07482406 -3.5850343 -0.06894297 0 0 Z " fill="#FFFFFF" transform="translate(282,41)"/>
<path d="M0 0 C2.5 0.25 2.5 0.25 4.5 2.25 C6.8245339 2.62051993 6.8245339 2.62051993 9.5078125 2.6640625 C10.49394531 2.70273438 11.48007813 2.74140625 12.49609375 2.78125 C13.52863281 2.8121875 14.56117187 2.843125 15.625 2.875 C16.66527344 2.91367188 17.70554687 2.95234375 18.77734375 2.9921875 C21.35138311 3.08664766 23.92541155 3.17221214 26.5 3.25 C26.17 3.91 25.84 4.57 25.5 5.25 C21.87435813 5.14045592 18.24978569 5.0097504 14.625 4.875 C13.59246094 4.8440625 12.55992188 4.813125 11.49609375 4.78125 C10.50996094 4.74257812 9.52382812 4.70390625 8.5078125 4.6640625 C7.59660645 4.6326416 6.68540039 4.6012207 5.74658203 4.56884766 C3.5 4.25 3.5 4.25 1.5 2.25 C-1.58347826 2.08318891 -1.58347826 2.08318891 -4.5 2.25 C-2.5 0.25 -2.5 0.25 0 0 Z " fill="#FFFFFF" transform="translate(83.5,162.75)"/>
<path d="M0 0 C0.99 0.66 1.98 1.32 3 2 C5.9824577 2.02415584 5.9824577 2.02415584 9.1875 1.625 C10.27417969 1.51414062 11.36085938 1.40328125 12.48046875 1.2890625 C13.72763672 1.14597656 13.72763672 1.14597656 15 1 C14.67 1.66 14.34 2.32 14 3 C7.17060676 4.41261167 2.11769138 4.51767255 -4 1 C-6.18398635 1.79996657 -6.18398635 1.79996657 -8 3 C-8.99 2.67 -9.98 2.34 -11 2 C-6.91401181 -0.37557453 -4.57160397 -1.60623923 0 0 Z " fill="#FFFFFF" transform="translate(82,112)"/>
<path d="M0 0 C0.99 0 1.98 0 3 0 C3 0.66 3 1.32 3 2 C3.99 1.835 4.98 1.67 6 1.5 C10.02732942 0.91525483 13.93474623 0.92867976 18 1 C18.33 1.66 18.66 2.32 19 3 C21.64 3 24.28 3 27 3 C27 3.66 27 4.32 27 5 C24.03 5 21.06 5 18 5 C17.67 4.01 17.34 3.02 17 2 C16.195625 2.165 15.39125 2.33 14.5625 2.5 C10.34112648 3.09247348 6.25335455 3.08506709 2 3 C2 2.34 2 1.68 2 1 C1.34 0.67 0.68 0.34 0 0 Z " fill="#FFFFFF" transform="translate(72,103)"/>
<path d="M0 0 C3.57025335 -0.42002981 4.77761092 -0.16173751 7.75 2 C13.91750845 5.79538982 21.10241164 4.00328558 28 3 C22.48612735 6.6759151 16.48816741 6.70625915 10 6 C6.5625 4.125 6.5625 4.125 4 2 C2.6808418 1.30570621 1.35350594 0.62469505 0 0 Z " fill="#FFFFFF" transform="translate(278,60)"/>
<path d="M0 0 C10.56 0 21.12 0 32 0 C32 0.33 32 0.66 32 1 C21.64297197 2.02472362 11.39671302 2.1050173 1 2 C0.67 1.34 0.34 0.68 0 0 Z " fill="#FFFFFF" transform="translate(240,206)"/>
<path d="M0 0 C-0.74443359 0.4021875 -0.74443359 0.4021875 -1.50390625 0.8125 C-7.1545766 4.07208973 -10.9009059 7.98137939 -15 13 C-15.66 13.66 -16.32 14.32 -17 15 C-16.52346791 10.43659946 -14.95331842 8.46072758 -11.6875 5.3125 C-10.90761719 4.54550781 -10.12773438 3.77851562 -9.32421875 2.98828125 C-4.19604147 -1.39868049 -4.19604147 -1.39868049 0 0 Z " fill="#FFFFFF" transform="translate(61,59)"/>
<path d="M0 0 C0 0.33 0 0.66 0 1 C-9.24 1.33 -18.48 1.66 -28 2 C-28 1.67 -28 1.34 -28 1 C-18.24018707 -0.79473764 -9.86103846 -1.10899217 0 0 Z " fill="#FFFFFF" transform="translate(213,21)"/>
<path d="M0 0 C0.33 0.66 0.66 1.32 1 2 C-7.7419859 3.3213258 -16.137418 4.33165588 -25 4 C-25 3.67 -25 3.34 -25 3 C-24.38479492 2.94465088 -23.76958984 2.88930176 -23.13574219 2.83227539 C-20.34019004 2.57892518 -17.54510238 2.32076306 -14.75 2.0625 C-13.78191406 1.97548828 -12.81382812 1.88847656 -11.81640625 1.79882812 C-10.88183594 1.71181641 -9.94726562 1.62480469 -8.984375 1.53515625 C-7.69611816 1.41732788 -7.69611816 1.41732788 -6.38183594 1.29711914 C-4.18358411 1.02290097 -2.13281455 0.58933034 0 0 Z " fill="#FFFFFF" transform="translate(321,184)"/>
<path d="M0 0 C2.0625 1 2.0625 1 3.875 3.4375 C6.64315331 6.68019388 8.96479145 7.13317704 13.0625 8 C13.0625 8.33 13.0625 8.66 13.0625 9 C10.15890666 9.34566587 7.94168956 9.55104134 5.3984375 7.95703125 C3.17146062 6.08659008 1.11788964 4.05538964 -0.9375 2 C-3.04570797 2.3185177 -3.04570797 2.3185177 -4.9375 3 C-2.5375 0 -2.5375 0 0 0 Z " fill="#FFFFFF" transform="translate(164.9375,81)"/>
<path d="M0 0 C0.33 1.65 0.66 3.3 1 5 C3.31 4.34 5.62 3.68 8 3 C6.8125 4.5 6.8125 4.5 5 6 C2.3125 6.1875 2.3125 6.1875 0 6 C-0.33 5.01 -0.66 4.02 -1 3 C-2.98 3.33 -4.96 3.66 -7 4 C-3.17391304 0 -3.17391304 0 0 0 Z " fill="#FFFFFF" transform="translate(68,148)"/>
<path d="M0 0 C0 0.33 0 0.66 0 1 C-1.01320313 1.13277344 -2.02640625 1.26554688 -3.0703125 1.40234375 C-4.42188204 1.58067584 -5.77344414 1.75906425 -7.125 1.9375 C-7.79015625 2.02451172 -8.4553125 2.11152344 -9.140625 2.20117188 C-13.10830188 2.72630558 -17.05626998 3.31814014 -21 4 C-15.8808999 -1.1191001 -6.75947439 -0.25400948 0 0 Z " fill="#FFFFFF" transform="translate(326,204)"/>
<path d="M0 0 C2.62527189 -0.05382106 5.24944713 -0.09358313 7.875 -0.125 C8.62136719 -0.14175781 9.36773437 -0.15851562 10.13671875 -0.17578125 C12.09194461 -0.1933959 14.04742021 -0.10320189 16 0 C16.66 0.66 17.32 1.32 18 2 C17.67 2.99 17.34 3.98 17 5 C16.34 4.01 15.68 3.02 15 2 C12.390379 1.61588725 9.9941926 1.39706803 7.375 1.3125 C6.66859375 1.27833984 5.9621875 1.24417969 5.234375 1.20898438 C3.49014312 1.12648692 1.74509605 1.06156665 0 1 C0 0.67 0 0.34 0 0 Z " fill="#FFFFFF" transform="translate(217,61)"/>
<path d="M0 0 C2.79224073 -0.08071788 5.58216566 -0.14035408 8.375 -0.1875 C9.1690625 -0.21263672 9.963125 -0.23777344 10.78125 -0.26367188 C12.85586148 -0.29004405 14.93100865 -0.15486462 17 0 C17.66 0.99 18.32 1.98 19 3 C18.01 2.67 17.02 2.34 16 2 C13.26710707 1.77202438 10.54957796 1.58331813 7.8125 1.4375 C7.06291016 1.39431641 6.31332031 1.35113281 5.54101562 1.30664062 C3.69421625 1.20077315 1.84713166 1.0999024 0 1 C0 0.67 0 0.34 0 0 Z " fill="#FFFFFF" transform="translate(272,205)"/>
<path d="M0 0 C6.27 0 12.54 0 19 0 C19 0.33 19 0.66 19 1 C12.4 1.33 5.8 1.66 -1 2 C-0.67 1.34 -0.34 0.68 0 0 Z " fill="#FFFFFF" transform="translate(22,189)"/>
<path d="M0 0 C1.98 0 3.96 0 6 0 C6 0.99 6 1.98 6 3 C9.3 2.67 12.6 2.34 16 2 C12.91111478 4.05925681 12.29064073 4.2390374 8.8125 4.125 C6.9253125 4.063125 6.9253125 4.063125 5 4 C5 3.01 5 2.02 5 1 C3.35 1 1.7 1 0 1 C0 0.67 0 0.34 0 0 Z " fill="#FFFFFF" transform="translate(41,188)"/>
<path d="M0 0 C0.33 0 0.66 0 1 0 C1 4.29 1 8.58 1 13 C1.66 13.33 2.32 13.66 3 14 C0.69 14 -1.62 14 -4 14 C-2.68 13.67 -1.36 13.34 0 13 C0 8.71 0 4.42 0 0 Z " fill="#FFFFFF" transform="translate(79,75)"/>
<path d="M0 0 C5.61 0 11.22 0 17 0 C17 0.66 17 1.32 17 2 C11.39 1.67 5.78 1.34 0 1 C0 0.67 0 0.34 0 0 Z " fill="#FFFFFF" transform="translate(308,38)"/>
<path d="M0 0 C1.16144531 0.00902344 2.32289063 0.01804687 3.51953125 0.02734375 C4.39996094 0.03894531 5.28039062 0.05054687 6.1875 0.0625 C5.8575 0.7225 5.5275 1.3825 5.1875 2.0625 C-0.4225 2.0625 -6.0325 2.0625 -11.8125 2.0625 C-11.8125 1.7325 -11.8125 1.4025 -11.8125 1.0625 C-7.81454108 0.10630267 -4.10446078 -0.0414592 0 0 Z " fill="#FFFFFF" transform="translate(224.8125,18.9375)"/>
<path d="M0 0 C0.804375 0.7425 0.804375 0.7425 1.625 1.5 C4.59358445 3.37489544 6.55312427 3.23501425 10 3 C8 5 8 5 5.5 5.25 C3 5 3 5 1 3 C-1.57061311 2.35232207 -1.57061311 2.35232207 -4 2 C-2.68 1.34 -1.36 0.68 0 0 Z " fill="#FFFFFF" transform="translate(310,61)"/>
<path d="M0 0 C1.65 0 3.3 0 5 0 C5 1.32 5 2.64 5 4 C3.02 4.33 1.04 4.66 -1 5 C-0.67 3.35 -0.34 1.7 0 0 Z M1 1 C2.485 1.99 2.485 1.99 4 3 C4 2.34 4 1.68 4 1 C3.01 1 2.02 1 1 1 Z " fill="#FFFFFF" transform="translate(257,147)"/>
<path d="M0 0 C2.01822917 0.06510417 4.03645833 0.13020833 6.0546875 0.1953125 C6.3846875 0.8553125 6.7146875 1.5153125 7.0546875 2.1953125 C8.0446875 2.8553125 9.0346875 3.5153125 10.0546875 4.1953125 C8.4046875 3.8653125 6.7546875 3.5353125 5.0546875 3.1953125 C5.0546875 2.5353125 5.0546875 1.8753125 5.0546875 1.1953125 C0.5996875 1.6903125 0.5996875 1.6903125 -3.9453125 2.1953125 C-1.9453125 0.1953125 -1.9453125 0.1953125 0 0 Z " fill="#FFFFFF" transform="translate(165.9453125,109.8046875)"/>
<path d="M0 0 C0.5775 0.680625 1.155 1.36125 1.75 2.0625 C0.698125 1.8975 -0.35375 1.7325 -1.4375 1.5625 C-4.45468796 1.16680322 -7.22093972 0.97071029 -10.25 1.0625 C-3.17045455 -2.73011364 -3.17045455 -2.73011364 0 0 Z " fill="#FFFFFF" transform="translate(135.25,186.9375)"/>
<path d="M0 0 C4.62 0 9.24 0 14 0 C10.68629 2.20914 9.6553979 2.22481553 5.8125 2.125 C4.91144531 2.10695313 4.01039063 2.08890625 3.08203125 2.0703125 C2.39496094 2.04710938 1.70789063 2.02390625 1 2 C0.67 1.34 0.34 0.68 0 0 Z " fill="#FFFFFF" transform="translate(142,114)"/>
<path d="M0 0 C0 0.33 0 0.66 0 1 C-3.96 1.99 -7.92 2.98 -12 4 C-12 3.34 -12 2.68 -12 2 C-7.82262526 0.40861915 -4.46839215 -0.21278058 0 0 Z " fill="#FFFFFF" transform="translate(187,206)"/>
<path d="M0 0 C2.31 0 4.62 0 7 0 C7.33 0.99 7.66 1.98 8 3 C10.01508358 3.73323796 10.01508358 3.73323796 12 4 C10.35 4 8.7 4 7 4 C6.67 3.34 6.34 2.68 6 2 C2.97065509 1.34227572 2.97065509 1.34227572 0 1 C0 0.67 0 0.34 0 0 Z " fill="#FFFFFF" transform="translate(69,205)"/>
<path d="M0 0 C0 0.99 0 1.98 0 3 C-0.721875 2.814375 -1.44375 2.62875 -2.1875 2.4375 C-5.12826973 1.98004693 -7.14103058 2.26483643 -10 3 C-6.68152292 -0.06320961 -4.44849969 -0.3033068 0 0 Z " fill="#FFFFFF" transform="translate(161,57)"/>
<path d="M0 0 C4.62 0 9.24 0 14 0 C14 0.33 14 0.66 14 1 C9.38 1 4.76 1 0 1 C0 0.67 0 0.34 0 0 Z " fill="#FFFFFF" transform="translate(291,208)"/>
<path d="M0 0 C4.62 0 9.24 0 14 0 C14 0.33 14 0.66 14 1 C9.38 1 4.76 1 0 1 C0 0.67 0 0.34 0 0 Z " fill="#FFFFFF" transform="translate(50,207)"/>
<path d="M0 0 C-2.64458379 1.32229189 -4.67761301 1.09677194 -7.625 1.0625 C-8.62789063 1.05347656 -9.63078125 1.04445313 -10.6640625 1.03515625 C-11.43492187 1.02355469 -12.20578125 1.01195313 -13 1 C-13 0.67 -13 0.34 -13 0 C-11.39679026 -0.19551338 -9.79237014 -0.38111983 -8.1875 -0.5625 C-7.29417969 -0.66691406 -6.40085937 -0.77132812 -5.48046875 -0.87890625 C-3 -1 -3 -1 0 0 Z " fill="#FFFFFF" transform="translate(304,109)"/>
<path d="M0 0 C4.62 0 9.24 0 14 0 C14 0.33 14 0.66 14 1 C9.38 1 4.76 1 0 1 C0 0.67 0 0.34 0 0 Z " fill="#FFFFFF" transform="translate(294,39)"/>
<path d="M0 0 C3.96 0.33 7.92 0.66 12 1 C12 1.33 12 1.66 12 2 C7.83861737 2.08159574 4.0527516 1.98248524 0 1 C0 0.67 0 0.34 0 0 Z " fill="#FFFFFF" transform="translate(15,209)"/>
<path d="M0 0 C0 0.99 0 1.98 0 3 C0.66 3.33 1.32 3.66 2 4 C1.01 4 0.02 4 -1 4 C-1 3.01 -1 2.02 -1 1 C-2.65 1.66 -4.3 2.32 -6 3 C-6 2.34 -6 1.68 -6 1 C-4 0 -4 0 0 0 Z " fill="#FFFFFF" transform="translate(59,149)"/>
<path d="M0 0 C0.99 0.33 1.98 0.66 3 1 C1.35 2.32 -0.3 3.64 -2 5 C-2.66 4.67 -3.32 4.34 -4 4 C-2.68 2.68 -1.36 1.36 0 0 Z " fill="#FFFFFF" transform="translate(40,201)"/>
<path d="M0 0 C3.63 0.33 7.26 0.66 11 1 C11 1.33 11 1.66 11 2 C7.7 2 4.4 2 1 2 C0.67 1.34 0.34 0.68 0 0 Z " fill="#FFFFFF" transform="translate(139,88)"/>
<path d="M0 0 C3.96 0 7.92 0 12 0 C12 0.33 12 0.66 12 1 C8.04 1 4.08 1 0 1 C0 0.67 0 0.34 0 0 Z " fill="#FFFFFF" transform="translate(56,86)"/>
<path d="M0 0 C3.96 0 7.92 0 12 0 C12 0.33 12 0.66 12 1 C8.04 1 4.08 1 0 1 C0 0.67 0 0.34 0 0 Z " fill="#FFFFFF" transform="translate(282,40)"/>
<path d="M0 0 C-2.97 0.66 -5.94 1.32 -9 2 C-5.96271914 -1.03728086 -4.06215635 -1.35405212 0 0 Z " fill="#FFFFFF" transform="translate(225,141)"/>
<path d="M0 0 C0.99 0 1.98 0 3 0 C3 0.99 3 1.98 3 3 C1.68 3 0.36 3 -1 3 C-0.67 2.01 -0.34 1.02 0 0 Z " fill="#FFFFFF" transform="translate(255,135)"/>
<path d="M0 0 C0 0.33 0 0.66 0 1 C-3.3 1.33 -6.6 1.66 -10 2 C-6.3558226 -0.4294516 -4.28758728 -0.16179575 0 0 Z " fill="#FFFFFF" transform="translate(217,62)"/>
<path d="M0 0 C2.64 0.66 5.28 1.32 8 2 C8 2.33 8 2.66 8 3 C5.125 3.1875 5.125 3.1875 2 3 C1.34 2.01 0.68 1.02 0 0 Z " fill="#FFFFFF" transform="translate(20,171)"/>
<path d="M0 0 C-4.625 2.125 -4.625 2.125 -8 1 C-3.375 -1.125 -3.375 -1.125 0 0 Z " fill="#FFFFFF" transform="translate(79,166)"/>
<path d="M0 0 C2.97 0 5.94 0 9 0 C9 0.33 9 0.66 9 1 C6.03 1 3.06 1 0 1 C0 0.67 0 0.34 0 0 Z " fill="#FFFFFF" transform="translate(231,205)"/>
<path d="M0 0 C-1.8125 1.0625 -1.8125 1.0625 -4 2 C-4.99 1.67 -5.98 1.34 -7 1 C-3.375 -1.125 -3.375 -1.125 0 0 Z " fill="#FFFFFF" transform="translate(117,164)"/>
<path d="M0 0 C1.32 0.33 2.64 0.66 4 1 C3.67 1.66 3.34 2.32 3 3 C2.01 2.67 1.02 2.34 0 2 C0 1.34 0 0.68 0 0 Z " fill="#FFFFFF" transform="translate(80,154)"/>
<path d="M0 0 C0.66 0.33 1.32 0.66 2 1 C0.68 1.99 -0.64 2.98 -2 4 C-2.66 3.67 -3.32 3.34 -4 3 C-2.68 2.01 -1.36 1.02 0 0 Z " fill="#FFFFFF" transform="translate(149,60)"/>
<path d="M0 0 C0.33 0 0.66 0 1 0 C1 2.97 1 5.94 1 9 C0.67 9 0.34 9 0 9 C0 6.03 0 3.06 0 0 Z " fill="#FFFFFF" transform="translate(116,31)"/>
<path d="M0 0 C2.64 0 5.28 0 8 0 C8 0.33 8 0.66 8 1 C5.36 1 2.72 1 0 1 C0 0.67 0 0.34 0 0 Z " fill="#FFFFFF" transform="translate(315,21)"/>
<path d="M0 0 C0.99 0.33 1.98 0.66 3 1 C1.02 1.33 -0.96 1.66 -3 2 C-2.01 1.34 -1.02 0.68 0 0 Z " fill="#FFFFFF" transform="translate(179,111)"/>
<path d="M0 0 C0.99 0.33 1.98 0.66 3 1 C1.02 1.33 -0.96 1.66 -3 2 C-2.01 1.34 -1.02 0.68 0 0 Z " fill="#FFFFFF" transform="translate(197,104)"/>
<path d="M0 0 C2.31 0 4.62 0 7 0 C7 0.33 7 0.66 7 1 C4.69 1 2.38 1 0 1 C0 0.67 0 0.34 0 0 Z " fill="#FFFFFF" transform="translate(68,87)"/>
<path d="M0 0 C1.32 1.32 2.64 2.64 4 4 C2.68 3.34 1.36 2.68 0 2 C0 1.34 0 0.68 0 0 Z " fill="#FFFFFF" transform="translate(162,60)"/>
<path d="M0 0 C0.33 0 0.66 0 1 0 C1 2.31 1 4.62 1 7 C0.67 7 0.34 7 0 7 C0 4.69 0 2.38 0 0 Z " fill="#FFFFFF" transform="translate(113,51)"/>
<path d="M0 0 C2.31 0 4.62 0 7 0 C7 0.33 7 0.66 7 1 C4.69 1 2.38 1 0 1 C0 0.67 0 0.34 0 0 Z " fill="#FFFFFF" transform="translate(147,42)"/>
<path d="M0 0 C0.99 0.33 1.98 0.66 3 1 C1.35 1.33 -0.3 1.66 -2 2 C-1.34 1.34 -0.68 0.68 0 0 Z " fill="#FFFFFF" transform="translate(32,207)"/>
<path d="M0 0 C1.98 0 3.96 0 6 0 C6 0.33 6 0.66 6 1 C4.02 1 2.04 1 0 1 C0 0.67 0 0.34 0 0 Z " fill="#FFFFFF" transform="translate(187,205)"/>
<path d="M0 0 C1.98 0.99 1.98 0.99 4 2 C3.01 2.495 3.01 2.495 2 3 C1.34 2.67 0.68 2.34 0 2 C0 1.34 0 0.68 0 0 Z " fill="#FFFFFF" transform="translate(43,203)"/>
<path d="M0 0 C1.98 0 3.96 0 6 0 C6 0.33 6 0.66 6 1 C4.02 1 2.04 1 0 1 C0 0.67 0 0.34 0 0 Z " fill="#FFFFFF" transform="translate(175,188)"/>
<path d="M0 0 C0.99 0.33 1.98 0.66 3 1 C1.35 1.33 -0.3 1.66 -2 2 C-1.34 1.34 -0.68 0.68 0 0 Z " fill="#FFFFFF" transform="translate(64,186)"/>
<path d="M0 0 C0.99 0.495 0.99 0.495 2 1 C1.67 1.99 1.34 2.98 1 4 C0.67 2.68 0.34 1.36 0 0 Z " fill="#FFFFFF" transform="translate(80,142)"/>
<path d="M0 0 C0.66 0 1.32 0 2 0 C2 1.65 2 3.3 2 5 C0 1.125 0 1.125 0 0 Z " fill="#FFFFFF" transform="translate(225,139)"/>
<path d="M0 0 C0.66 0.33 1.32 0.66 2 1 C0.35 1.33 -1.3 1.66 -3 2 C-2.01 1.34 -1.02 0.68 0 0 Z " fill="#FFFFFF" transform="translate(143,64)"/>
<path d="M0 0 C0.99 0.33 1.98 0.66 3 1 C1.35 1.33 -0.3 1.66 -2 2 C-1.34 1.34 -0.68 0.68 0 0 Z " fill="#FFFFFF" transform="translate(272,62)"/>
<path d="M0 0 C0.33 0 0.66 0 1 0 C1 1.98 1 3.96 1 6 C0.67 6 0.34 6 0 6 C0 4.02 0 2.04 0 0 Z " fill="#FFFFFF" transform="translate(115,40)"/>
<path d="M0 0 C1.65 0 3.3 0 5 0 C5 0.33 5 0.66 5 1 C3.35 1 1.7 1 0 1 C0 0.67 0 0.34 0 0 Z " fill="#FFFFFF" transform="translate(64,206)"/>
<path d="M0 0 C0.66 0.33 1.32 0.66 2 1 C0.68 1.33 -0.64 1.66 -2 2 C-1.34 1.34 -0.68 0.68 0 0 Z " fill="#FFFFFF" transform="translate(184,109)"/>
<path d="M0 0 C0.33 0 0.66 0 1 0 C1 1.65 1 3.3 1 5 C0.67 5 0.34 5 0 5 C0 3.35 0 1.7 0 0 Z " fill="#FFFFFF" transform="translate(111,61)"/>
<path d="M0 0 C0.33 0 0.66 0 1 0 C1 1.65 1 3.3 1 5 C0.67 5 0.34 5 0 5 C0 3.35 0 1.7 0 0 Z " fill="#FFFFFF" transform="translate(114,46)"/>
<path d="M0 0 C4 1 4 1 4 1 Z " fill="#FFFFFF" transform="translate(248,109)"/>
<path d="M0 0 C4 1 4 1 4 1 Z " fill="#FFFFFF" transform="translate(186,108)"/>
<path d="M0 0 C4 1 4 1 4 1 Z " fill="#FFFFFF" transform="translate(200,103)"/>
<path d="M0 0 C4 1 4 1 4 1 Z " fill="#FFFFFF" transform="translate(178,88)"/>
<path d="M0 0 C4 1 4 1 4 1 Z " fill="#FFFFFF" transform="translate(182,87)"/>
<path d="M0 0 C0.66 0.33 1.32 0.66 2 1 C1.01 1 0.02 1 -1 1 C-0.67 0.67 -0.34 0.34 0 0 Z " fill="#FFFFFF" transform="translate(156,85)"/>
<path d="M0 0 C1 4 1 4 1 4 Z " fill="#FFFFFF" transform="translate(109,69)"/>
<path d="M0 0 C4 1 4 1 4 1 Z " fill="#FFFFFF" transform="translate(320,63)"/>
<path d="M0 0 C3 1 3 1 3 1 Z " fill="#FFFFFF" transform="translate(27,209)"/>
<path d="M0 0 C3 1 3 1 3 1 Z " fill="#FFFFFF" transform="translate(81,207)"/>
<path d="M0 0 C3 1 3 1 3 1 Z " fill="#FFFFFF" transform="translate(84,206)"/>
<path d="M0 0 C3 1 3 1 3 1 Z " fill="#FFFFFF" transform="translate(47,206)"/>
<path d="M0 0 C3 1 3 1 3 1 Z " fill="#FFFFFF" transform="translate(59,188)"/>
<path d="M0 0 C3 1 3 1 3 1 Z " fill="#FFFFFF" transform="translate(181,187)"/>
<path d="M0 0 C3 1 3 1 3 1 Z " fill="#FFFFFF" transform="translate(28,172)"/>
<path d="M0 0 C3 1 3 1 3 1 Z " fill="#FFFFFF" transform="translate(156,113)"/>
<path d="M0 0 C3 1 3 1 3 1 Z " fill="#FFFFFF" transform="translate(159,112)"/>
<path d="M0 0 C3 1 3 1 3 1 Z " fill="#FFFFFF" transform="translate(191,106)"/>
<path d="M0 0 C3 1 3 1 3 1 Z " fill="#FFFFFF" transform="translate(150,88)"/>
<path d="M0 0 C3 1 3 1 3 1 Z " fill="#FFFFFF" transform="translate(243,85)"/>
<path d="" fill="#FFFFFF" transform="translate(0,0)"/>
<path d="M0 0 C3 1 3 1 3 1 Z " fill="#FFFFFF" transform="translate(204,64)"/>
<path d="" fill="#FFFFFF" transform="translate(0,0)"/>
<path d="M0 0 C3 1 3 1 3 1 Z " fill="#FFFFFF" transform="translate(275,61)"/>
<path d="" fill="#FFFFFF" transform="translate(0,0)"/>
<path d="M0 0 C2 1 2 1 2 1 Z " fill="#FFFFFF" transform="translate(57,189)"/>
<path d="M0 0 C2 1 2 1 2 1 Z " fill="#FFFFFF" transform="translate(153,87)"/>
<path d="M0 0 C2 1 2 1 2 1 Z " fill="#FFFFFF" transform="translate(158,84)"/>
<path d="" fill="#FFFFFF" transform="translate(0,0)"/>
<path d="" fill="#FFFFFF" transform="translate(0,0)"/>
<path d="" fill="#FFFFFF" transform="translate(0,0)"/>
</svg>
