<?xml version="1.0" encoding="UTF-8"?>
<svg version="1.1" xmlns="http://www.w3.org/2000/svg" width="350" height="230">
<path d="M0 0 C0.89569646 9.86865569 1.13267911 19.73441064 1.17724609 29.63986206 C1.1872666 31.64089123 1.20680118 33.64186558 1.2265625 35.64282227 C1.23494631 43.94645956 0.52575919 51.83697224 -1 60 C-17.7663924 60.31620934 -34.29774553 59.45086004 -51 58 C-51 57.67 -51 57.34 -51 57 C-48.36 57 -45.72 57 -43 57 C-42.79620496 49.24446659 -42.97402956 42.01044255 -44.55078125 34.40625 C-45.26312923 30.59054257 -45.47590501 26.85827325 -44.50805664 23.07910156 C-43.97687791 20.90537831 -43.79524803 18.9049606 -43.68359375 16.671875 C-43.64169922 15.87265625 -43.59980469 15.0734375 -43.55664062 14.25 C-43.51732422 13.425 -43.47800781 12.6 -43.4375 11.75 C-43.37272461 10.48929688 -43.37272461 10.48929688 -43.30664062 9.203125 C-43.20091457 7.13559329 -43.09998705 5.06781719 -43 3 C-42.67 3 -42.34 3 -42 3 C-41.97272322 5.97923003 -41.95302872 8.95820379 -41.9375 11.9375 C-41.92912109 12.76830078 -41.92074219 13.59910156 -41.91210938 14.45507812 C-41.8958899 18.62348438 -42.02881319 22.65614218 -42.5625 26.79296875 C-42.98706069 30.22147528 -42.88034093 32.98603824 -42.0625 36.375 C-40.61108648 43.34766899 -40.26625568 50.06502273 -42 57 C-28.8 57.66 -15.6 58.32 -2 59 C-1.37415239 50.86398106 -0.85667167 43.00320435 -0.90234375 34.88671875 C-0.9037587 33.90629105 -0.90517365 32.92586334 -0.90663147 31.91572571 C-0.91214831 28.839617 -0.92468398 25.76358603 -0.9375 22.6875 C-0.94252579 20.57877711 -0.94708678 18.47005305 -0.95117188 16.36132812 C-0.96209027 11.24085629 -0.97929526 6.12044124 -1 1 C-6.94 1.33 -12.88 1.66 -19 2 C-19 1.67 -19 1.34 -19 1 C-12.65758005 -0.15316726 -6.43311296 -0.09507063 0 0 Z " fill="#FFFFFF" transform="translate(326,47)"/>
<path d="M0 0 C0 0.66 0 1.32 0 2 C13.95710616 5.2566581 29.36188876 4.10308573 43.625 4.125 C44.41859924 4.1275882 45.21219849 4.13017639 46.02984619 4.13284302 C48.30379757 4.13869145 50.57761007 4.13711802 52.8515625 4.1328125 C53.88935852 4.13578087 53.88935852 4.13578087 54.94812012 4.1388092 C58.59708645 4.16488175 58.59708645 4.16488175 62 3 C63.969414 2.9019916 65.94221235 2.86922123 67.9140625 2.8671875 C69.1397998 2.86525391 70.36553711 2.86332031 71.62841797 2.86132812 C73.60672607 2.8680957 73.60672607 2.8680957 75.625 2.875 C76.29162659 2.87588623 76.95825317 2.87677246 77.64508057 2.87768555 C90.44598161 2.89764916 103.21676294 3.32054041 116 4 C114 6 114 6 112.10595703 6.13525391 C110.94362549 6.05670166 110.94362549 6.05670166 109.7578125 5.9765625 C108.42496216 5.89897705 108.42496216 5.89897705 107.06518555 5.81982422 C106.09492432 5.75553223 105.12466309 5.69124023 104.125 5.625 C94.64078125 5.10111128 85.18626525 4.87867837 75.6875 4.875 C74.4598291 4.87064941 73.2321582 4.86629883 71.96728516 4.86181641 C70.82694824 4.86358887 69.68661133 4.86536133 68.51171875 4.8671875 C67.49553467 4.86831543 66.47935059 4.86944336 65.43237305 4.87060547 C62.99095767 4.83824257 62.99095767 4.83824257 61 6 C58.46203717 6.09932952 55.95221452 6.13962307 53.4140625 6.1328125 C52.64887299 6.13422241 51.88368347 6.13563232 51.0953064 6.13708496 C48.60515756 6.13922418 46.11513597 6.13292771 43.625 6.125 C42.78453125 6.1234491 41.9440625 6.12189819 41.078125 6.12030029 C31.38246599 6.0991561 21.68740093 6.06318085 12 5.625 C11.23252441 5.59422363 10.46504883 5.56344727 9.67431641 5.53173828 C5.74751665 5.31292701 2.55405246 4.70761114 -1 3 C-1 2.34 -1 1.68 -1 1 C-4.3 1.33 -7.6 1.66 -11 2 C-11 1.67 -11 1.34 -11 1 C-7.26562152 0.12132271 -3.83225427 -0.08912219 0 0 Z " fill="#FFFFFF" transform="translate(203,10)"/>
<path d="M0 0 C0.33 0 0.66 0 1 0 C0.70036501 8.32778626 0.31399129 15.95169769 -2.34765625 23.91015625 C-3.65631161 28.10255516 -3.77572749 31.36504657 -1.875 35.37109375 C-0.95829353 37.08210555 -0.0390204 38.79174468 0.8828125 40.5 C2.94959447 45.12496666 2.59640631 49.21078107 1 54 C3.97 54 6.94 54 10 54 C10 54.33 10 54.66 10 55 C-12.11 55 -34.22 55 -57 55 C-57 54.67 -57 54.34 -57 54 C-38.19 54 -19.38 54 0 54 C0.48939905 45.36121296 0.48939905 45.36121296 -2.5 38.9375 C-5.57775801 33.33283272 -6.07225618 28.92255741 -4.3828125 22.7421875 C-3.86570576 21.1268953 -3.33788133 19.51500473 -2.80078125 17.90625 C-1.19241098 12.06904279 -0.68048215 6.00425424 0 0 Z " fill="#FFFFFF" transform="translate(141,50)"/>
<path d="M0 0 C3.63 0 7.26 0 11 0 C11 0.33 11 0.66 11 1 C7.7 1 4.4 1 1 1 C1.14188985 3.54194161 1.28839155 6.08347993 1.4375 8.625 C1.47681641 9.33785156 1.51613281 10.05070312 1.55664062 10.78515625 C1.59853516 11.48769531 1.64042969 12.19023438 1.68359375 12.9140625 C1.72025146 13.5529541 1.75690918 14.1918457 1.79467773 14.85009766 C1.98108696 17.11457136 1.98108696 17.11457136 2.5 19.78125 C3.06290485 23.40494998 3.21376754 26.92026934 3.31640625 30.5859375 C3.33718735 31.28772125 3.35796844 31.989505 3.37937927 32.71255493 C3.44426324 34.93327958 3.5034723 37.15411276 3.5625 39.375 C3.60574354 40.88933371 3.6493596 42.40365683 3.69335938 43.91796875 C3.79988086 47.61186655 3.90131677 51.30588354 4 55 C4.54821915 55.01030746 5.09643829 55.02061493 5.66127014 55.03123474 C11.38814117 55.13975729 17.1148693 55.25431538 22.84155273 55.37231445 C24.97628782 55.41551723 27.11105421 55.45720211 29.24584961 55.49731445 C32.32154759 55.55537354 35.39709016 55.61896384 38.47265625 55.68359375 C39.42084732 55.70030624 40.36903839 55.71701874 41.34596252 55.73423767 C46.31843499 55.84438483 51.09436172 56.17108577 56 57 C56.33 56.01 56.66 55.02 57 54 C57 54.99 57 55.98 57 57 C58.32 57.33 59.64 57.66 61 58 C57.20019658 59.06869471 54.17276942 58.77798508 50.30169678 58.25585938 C46.17243126 57.79684527 42.03384005 57.7818536 37.8828125 57.71875 C35.95833324 57.68099446 34.03385407 57.6432339 32.109375 57.60546875 C29.10060655 57.55163491 26.09181406 57.49943003 23.08300781 57.44775391 C20.16202145 57.39615139 17.24118463 57.33890605 14.3203125 57.28125 C13.415159 57.26767456 12.51000549 57.25409912 11.5774231 57.2401123 C10.32504349 57.21503601 10.32504349 57.21503601 9.04736328 57.18945312 C8.31204376 57.17692505 7.57672424 57.16439697 6.81912231 57.15148926 C5 57 5 57 3 56 C0.41802663 49.60354332 0.80668653 43.24376464 0.9375 36.4375 C0.97212467 34.22793292 1.00221855 32.01828927 1.02734375 29.80859375 C1.04531006 28.83720459 1.06327637 27.86581543 1.08178711 26.86499023 C0.99508118 23.82769459 0.51673318 20.99109974 0 18 C-0.07328601 16.4936178 -0.10858469 14.98468675 -0.09765625 13.4765625 C-0.09443359 12.68378906 -0.09121094 11.89101563 -0.08789062 11.07421875 C-0.07532227 9.86185547 -0.07532227 9.86185547 -0.0625 8.625 C-0.05798828 7.79355469 -0.05347656 6.96210937 -0.04882812 6.10546875 C-0.03713164 4.07028103 -0.01919935 2.03513077 0 0 Z " fill="#FFFFFF" transform="translate(23,46)"/>
<path d="M0 0 C1.29683212 0.00141495 2.59366425 0.0028299 3.92979431 0.00428772 C7.34754426 0.00807308 10.7652505 0.01786848 14.1829834 0.0289917 C17.6825298 0.03929228 21.18208338 0.04380371 24.68164062 0.04882812 C31.52605942 0.05949506 38.37044948 0.07652255 45.21484375 0.09765625 C45.21484375 0.42765625 45.21484375 0.75765625 45.21484375 1.09765625 C23.10484375 1.42765625 0.99484375 1.75765625 -21.78515625 2.09765625 C-20.60322914 15.64557687 -20.60322914 15.64557687 -17.78515625 22.09765625 C-15.92890625 22.12859375 -15.92890625 22.12859375 -14.03515625 22.16015625 C-12.99101563 22.17755859 -12.99101563 22.17755859 -11.92578125 22.1953125 C-9.81495967 22.17780479 -9.81495967 22.17780479 -7.96289062 21.59765625 C-5.50742262 21.0338896 -3.31916379 20.98464401 -0.80078125 21 C0.13378906 21.00322266 1.06835938 21.00644531 2.03125 21.00976562 C3.48337891 21.02233398 3.48337891 21.02233398 4.96484375 21.03515625 C5.94839844 21.03966797 6.93195312 21.04417969 7.9453125 21.04882812 C10.36855166 21.06059142 12.79166648 21.07702941 15.21484375 21.09765625 C15.21484375 21.42765625 15.21484375 21.75765625 15.21484375 22.09765625 C13.94511719 22.14664063 12.67539063 22.195625 11.3671875 22.24609375 C0.87442245 22.68891707 -9.40470719 23.47767708 -19.78515625 25.09765625 C-22.19400943 16.93105644 -22.92943658 9.54644415 -22.78515625 1.09765625 C-15.16424953 0.06316022 -7.68404121 -0.03187805 0 0 Z " fill="#FFFFFF" transform="translate(52.78515625,178.90234375)"/>
<path d="M0 0 C42.24 0 84.48 0 128 0 C128 0.33 128 0.66 128 1 C85.76 1 43.52 1 0 1 C0 0.67 0 0.34 0 0 Z " fill="#FFFFFF" transform="translate(114,47)"/>
<path d="M0 0 C6.84610177 -0.02563256 13.69219088 -0.04298375 20.53833008 -0.05493164 C22.86092593 -0.05991955 25.18351871 -0.06671226 27.50610352 -0.07543945 C40.04382172 -0.12132561 52.50532239 -0.1419659 65 1 C65 1.33 65 1.66 65 2 C52.15904196 2.08332273 39.33635617 1.81967526 26.5 1.5 C24.50130633 1.45164713 22.50260842 1.40346895 20.50390625 1.35546875 C15.66921979 1.23898755 10.83459632 1.12016183 6 1 C5.83366467 2.56616653 5.67016322 4.13263416 5.5078125 5.69921875 C5.4164502 6.57151123 5.32508789 7.44380371 5.23095703 8.3425293 C4.82367805 13.02882075 4.53700407 17.74798777 5.48828125 22.375 C7.21884514 31.25239642 6.62331316 40.10324614 2 48 C1.01 48.495 1.01 48.495 0 49 C2 43 2 43 3.125 40.3125 C4.8283467 33.86411607 4.30071531 27.47309103 3 21 C2.54421494 14.00422932 3.22505418 7.76698093 5 1 C3.35 1 1.7 1 0 1 C0 0.67 0 0.34 0 0 Z " fill="#FFFFFF" transform="translate(242,48)"/>
<path d="M0 0 C0.33 0 0.66 0 1 0 C1.042721 1.66611905 1.04063832 3.33382885 1 5 C0 6 0 6 -1.90342808 6.12304783 C-2.74318149 6.12212604 -3.58293489 6.12120424 -4.44813538 6.12025452 C-5.88901772 6.12231651 -5.88901772 6.12231651 -7.35900879 6.12442017 C-8.42139771 6.12082489 -9.48378662 6.11722961 -10.57836914 6.11352539 C-12.24644875 6.11374443 -12.24644875 6.11374443 -13.94822693 6.1139679 C-17.64388951 6.11326821 -21.33950241 6.1054732 -25.03515625 6.09765625 C-27.58963493 6.09579227 -30.14411397 6.09436827 -32.69859314 6.09336853 C-38.7476171 6.08993344 -44.79661955 6.08204264 -50.84563488 6.07201904 C-57.73065154 6.06085683 -64.61566904 6.05534718 -71.50069249 6.05032361 C-85.6671383 6.03986 -99.83356817 6.02226123 -114 6 C-114 5.67 -114 5.34 -114 5 C-76.71 4.67 -39.42 4.34 -1 4 C-0.67 2.68 -0.34 1.36 0 0 Z " fill="#FFFFFF" transform="translate(255,195)"/>
<path d="M0 0 C0.33 0 0.66 0 1 0 C0.98428955 0.64437012 0.9685791 1.28874023 0.95239258 1.95263672 C0.88929099 4.92666529 0.85077414 7.90055229 0.8125 10.875 C0.78736328 11.88820313 0.76222656 12.90140625 0.73632812 13.9453125 C0.66384794 21.48325158 1.54425743 28.31613374 5.08520508 35.06982422 C7.50544077 40.17641171 5.69343985 44.91968045 4 50 C23.8 50.495 23.8 50.495 44 51 C44 51.33 44 51.66 44 52 C23.21 52.495 23.21 52.495 2 53 C1.67 52.34 1.34 51.68 1 51 C1.495 49.80375 1.99 48.6075 2.5 47.375 C5.38448025 40.04471532 2.84090207 33.98388426 0 27 C-2.7709821 18.68705371 -0.69101601 8.5636627 0 0 Z " fill="#FFFFFF" transform="translate(185,49)"/>
<path d="M0 0 C0 0.33 0 0.66 0 1 C-19.62165258 5.68204716 -42.28553956 2.9506729 -62.35064697 2.60510254 C-66.60868844 2.5332412 -70.8668469 2.46914002 -75.125 2.40429688 C-83.41679652 2.2769301 -91.70842859 2.14126181 -100 2 C-100 1.67 -100 1.34 -100 1 C-98.72024796 1.00333092 -98.72024796 1.00333092 -97.41464233 1.00672913 C-89.2687535 1.02698917 -81.12287345 1.04210267 -72.97696495 1.05181217 C-68.79176104 1.05697211 -64.60657839 1.06393997 -60.42138672 1.07543945 C-42.90577328 1.12234298 -25.44854694 1.10999724 -7.9553833 0.09274292 C-5.30232055 -0.03309061 -2.65533743 -0.03381069 0 0 Z " fill="#FFFFFF" transform="translate(246,178)"/>
<path d="M0 0 C4.875 4.75 4.875 4.75 6 7 C6.33 4.69 6.66 2.38 7 0 C7.33 0 7.66 0 8 0 C8.33 2.64 8.66 5.28 9 8 C10.65 5.36 12.3 2.72 14 0 C14.33 0.66 14.66 1.32 15 2 C14.06553465 4.03144641 13.06775224 6.03533587 12 8 C13.98 8.66 15.96 9.32 18 10 C15.10765685 10.82638376 13.11257569 11 10 11 C10.639375 11.763125 11.27875 12.52625 11.9375 13.3125 C14 16 14 16 15 19 C14.34 19 13.68 19 13 19 C11.61061923 17.03852126 10.2739589 15.03833424 9 13 C9 15.97 9 18.94 9 22 C8.67 22 8.34 22 8 22 C7.690625 21.05125 7.38125 20.1025 7.0625 19.125 C6.12605258 16.13919592 6.12605258 16.13919592 5 14 C5.9375 11.875 5.9375 11.875 7 10 C6.01 10.495 6.01 10.495 5 11 C3.00039988 11.039992 0.99952758 11.04346799 -1 11 C-1 10.67 -1 10.34 -1 10 C0.65 9.67 2.3 9.34 4 9 C3.525625 8.2575 3.05125 7.515 2.5625 6.75 C1.22130673 4.38949985 0.487688 2.63351523 0 0 Z " fill="#FFFFFF" transform="translate(266,181)"/>
<path d="M0 0 C19.47 0 38.94 0 59 0 C59 0.33 59 0.66 59 1 C48.11 1 37.22 1 26 1 C25.16819952 8.71687646 25.16819952 8.71687646 24.90234375 16.3515625 C24.90717773 17.65673828 24.90717773 17.65673828 24.91210938 18.98828125 C24.92048828 19.85839844 24.92886719 20.72851562 24.9375 21.625 C24.94201172 22.53378906 24.94652344 23.44257812 24.95117188 24.37890625 C24.96278822 26.58601089 24.97911832 28.79296697 25 31 C24.67 31 24.34 31 24 31 C22.96960113 26.74651347 22.81662281 22.60368567 22.8125 18.25 C22.80025391 17.58484375 22.78800781 16.9196875 22.77539062 16.234375 C22.75936176 10.67770346 23.73487193 6.69307631 25 1 C16.75 1 8.5 1 0 1 C0 0.67 0 0.34 0 0 Z " fill="#FFFFFF" transform="translate(55,46)"/>
<path d="M0 0 C1 1 1 1 1.25 4.375 C1 8 1 8 -0.0625 9.9375 C-3.07884711 11.59162584 -5.63666608 11.30575763 -9 11 C-11 9 -11 9 -11.4375 5.5625 C-11 2 -11 2 -8.875 0 C-5.44861601 -1.19178573 -3.4693686 -0.94619144 0 0 Z M-8 1 C-8.33 1.66 -8.66 2.32 -9 3 C-7.68 2.67 -6.36 2.34 -5 2 C-5.99 1.67 -6.98 1.34 -8 1 Z M-1 2 C-1.33 3.98 -1.66 5.96 -2 8 C-1.34 7.67 -0.68 7.34 0 7 C0 5.35 0 3.7 0 2 C-0.33 2 -0.66 2 -1 2 Z M-10 3 C-10 4.65 -10 6.3 -10 8 C-9.67 8 -9.34 8 -9 8 C-9 6.35 -9 4.7 -9 3 C-9.33 3 -9.66 3 -10 3 Z M-7 6 C-7 6.66 -7 7.32 -7 8 C-5.68 7.67 -4.36 7.34 -3 7 C-4.32 6.67 -5.64 6.34 -7 6 Z " fill="#FFFFFF" transform="translate(310,69)"/>
<path d="M0 0 C1.43739513 -0.02712066 2.87493863 -0.04645067 4.3125 -0.0625 C5.51326172 -0.07990234 5.51326172 -0.07990234 6.73828125 -0.09765625 C9 0 9 0 12 1 C13.97734566 1.09455661 15.95790083 1.12989394 17.9375 1.125 C18.97777344 1.12757812 20.01804687 1.13015625 21.08984375 1.1328125 C23.59710058 1.01838736 25.60347695 0.66855793 28 0 C33.29775122 -0.4155099 37.06931585 0.53680268 41.88671875 2.5390625 C44.61462991 3.13405976 45.59725072 2.28211876 48 1 C48.99 1.33 49.98 1.66 51 2 C46.21707285 4.91641899 43.44305034 5.31036397 38 4 C37.02546875 3.46826172 37.02546875 3.46826172 36.03125 2.92578125 C33.17474249 1.62387302 30.78159909 2.28536558 27.75 2.69921875 C18.33724887 3.7287384 9.20848457 3.10479647 0 1 C0 0.67 0 0.34 0 0 Z " fill="#FFFFFF" transform="translate(102,11)"/>
<path d="M0 0 C1.79306711 1.79306711 1.28851163 4.20644423 1.42578125 6.6015625 C1 9 1 9 -3 16 C5.415 17.485 5.415 17.485 14 19 C9.96364102 20.00908975 7.9545376 19.8794061 3.9375 19.1875 C2.89464844 19.01605469 1.85179687 18.84460938 0.77734375 18.66796875 C-2 18 -2 18 -5 16 C-3.87548273 13.0280615 -2.77706209 10.66559313 -1 8 C-0.83300768 4.87478167 -0.83300768 4.87478167 -1 2 C-4.62528568 1.79859524 -6.86501708 2.14223235 -10 4 C-10 3.34 -10 2.68 -10 2 C-6.34346173 -0.43769218 -4.30999899 -0.23944439 0 0 Z " fill="#FFFFFF" transform="translate(26,130)"/>
<path d="M0 0 C2.20307905 1.58861482 2.90204249 2.46987699 3.3984375 5.15625 C3.39070312 5.9296875 3.38296875 6.703125 3.375 7.5 C3.38273438 8.2734375 3.39046875 9.046875 3.3984375 9.84375 C2.89913962 12.54583262 2.23477449 13.42075936 0 15 C-2.15625 15.3984375 -2.15625 15.3984375 -4.5 15.375 C-5.2734375 15.38273437 -6.046875 15.39046875 -6.84375 15.3984375 C-9.54613385 14.89908396 -10.4175021 14.23236381 -12 12 C-12.61371932 8.94799039 -12.49696302 6.0674614 -12 3 C-9.01178394 -1.10879708 -4.63838587 -0.44175103 0 0 Z M-11 4 C-11.43060657 7.44485259 -11.63335287 9.84506242 -9.9375 12.9375 C-6.88023824 14.6140629 -4.4093712 14.36528977 -1 14 C1.08333333 13.08333333 1.08333333 13.08333333 2 11 C2.50548595 6.3350149 2.50548595 6.3350149 0.875 2.0625 C-3.36445611 -0.33985846 -7.88058463 0.28069706 -11 4 Z " fill="#FFFFFF" transform="translate(219,65)"/>
<path d="M0 0 C0.845625 0.515625 1.69125 1.03125 2.5625 1.5625 C7.90736967 3.79762732 13.2816378 3.22907386 19 3 C14.52764932 5.98156712 10.25178998 5.6365806 5 5 C3.3071455 4.26599896 1.63810406 3.47419314 0 2.625 C-2.40058763 1.39563932 -2.40058763 1.39563932 -5 1 C-8.15633459 2.16711967 -10.67724809 3.65810062 -13.45703125 5.546875 C-16.2607786 7.14901634 -17.8283271 7.29609873 -21 7 C-20.67 6.34 -20.34 5.68 -20 5 C-18.67057755 4.65139589 -17.33629162 4.32126872 -16 4 C-14.36131218 3.15091093 -12.73692396 2.27386103 -11.125 1.375 C-6.94661349 -0.74482659 -4.57934269 -1.66521552 0 0 Z " fill="#FFFFFF" transform="translate(79,10)"/>
<path d="M0 0 C0 0.66 0 1.32 0 2 C4.95 1.67 9.9 1.34 15 1 C10.89441282 3.05279359 9.19793315 3.2216942 4.75 3.125 C3.67234375 3.10695312 2.5946875 3.08890625 1.484375 3.0703125 C0.25460938 3.03550781 0.25460938 3.03550781 -1 3 C-1 2.34 -1 1.68 -1 1 C-1.58120605 1.0714624 -2.16241211 1.1429248 -2.76123047 1.21655273 C-9.57080653 1.98381947 -16.27738901 2.11912783 -23.125 2.0625 C-24.7028125 2.05573242 -24.7028125 2.05573242 -26.3125 2.04882812 C-28.87506221 2.03718011 -31.43749877 2.02082553 -34 2 C-34 1.67 -34 1.34 -34 1 C-10.21122564 -0.19388403 -10.21122564 -0.19388403 0 0 Z " fill="#FFFFFF" transform="translate(198,140)"/>
<path d="M0 0 C2 2 2 2 2.1953125 4.1640625 C2.17210938 4.97617188 2.14890625 5.78828125 2.125 6.625 C2.10695313 7.44226563 2.08890625 8.25953125 2.0703125 9.1015625 C2.03550781 10.04128906 2.03550781 10.04128906 2 11 C-0.76452033 12.38226016 -3.0461363 12.09525387 -6.125 12.0625 C-7.22070312 12.05347656 -8.31640625 12.04445313 -9.4453125 12.03515625 C-10.70988281 12.01775391 -10.70988281 12.01775391 -12 12 C-13.52491998 8.95016004 -13.23562548 6.3576631 -13 3 C-11.45472432 0.56009103 -10.36926132 0.11660884 -7.625 -0.75 C-4.79429339 -1.01959111 -2.72138195 -0.8090595 0 0 Z M-10 2 C-10.66 2.66 -11.32 3.32 -12 4 C-11.67673447 7.59679066 -11.67673447 7.59679066 -11 11 C-9.37509046 11.02698189 -7.75005367 11.04638757 -6.125 11.0625 C-4.76761719 11.07990234 -4.76761719 11.07990234 -3.3828125 11.09765625 C-0.9831415 11.16249257 -0.9831415 11.16249257 1 10 C1.43963608 5.25409437 1.43963608 5.25409437 -0.375 1.0625 C-3.62968926 -1.06556605 -6.61294531 0.72985449 -10 2 Z " fill="#FFFFFF" transform="translate(115,70)"/>
<path d="M0 0 C0 0.33 0 0.66 0 1 C-0.73637695 0.98952637 -1.47275391 0.97905273 -2.23144531 0.96826172 C-5.57092876 0.92666298 -8.91035765 0.90066136 -12.25 0.875 C-13.40886719 0.85824219 -14.56773437 0.84148437 -15.76171875 0.82421875 C-16.87675781 0.81777344 -17.99179687 0.81132812 -19.140625 0.8046875 C-20.16704102 0.79421387 -21.19345703 0.78374023 -22.25097656 0.77294922 C-25.07462646 1.00616364 -26.53398548 1.70502622 -29 3 C-31.10644531 3.22705078 -31.10644531 3.22705078 -33.328125 3.1953125 C-34.52695312 3.18564453 -34.52695312 3.18564453 -35.75 3.17578125 C-36.575 3.15902344 -37.4 3.14226562 -38.25 3.125 C-39.09046875 3.11597656 -39.9309375 3.10695312 -40.796875 3.09765625 C-42.86470604 3.07415817 -44.93238995 3.03828908 -47 3 C-47 2.67 -47 2.34 -47 2 C-45.81921875 1.95101562 -44.6384375 1.90203125 -43.421875 1.8515625 C-41.86456063 1.77651121 -40.30727009 1.70096439 -38.75 1.625 C-37.97269531 1.5940625 -37.19539063 1.563125 -36.39453125 1.53125 C-2.34467438 -0.21489651 -2.34467438 -0.21489651 0 0 Z " fill="#FFFFFF" transform="translate(318,141)"/>
<path d="M0 0 C15.84 0 31.68 0 48 0 C48 0.33 48 0.66 48 1 C32.16 1 16.32 1 0 1 C0 0.67 0 0.34 0 0 Z " fill="#FFFFFF" transform="translate(98,178)"/>
<path d="M0 0 C0.99 1.98 1.98 3.96 3 6 C9.6 6 16.2 6 23 6 C23 6.33 23 6.66 23 7 C17.70127235 7.64366323 12.39768525 8.12043333 7.0625 8.3125 C6.16660156 8.34988281 5.27070313 8.38726562 4.34765625 8.42578125 C2 8 2 8 0.18359375 6.16796875 C-1 4 -1 4 -1 1 C-1.639375 1.165 -2.27875 1.33 -2.9375 1.5 C-6.97586652 2.15932515 -10.91807258 2.08003779 -15 2 C-15 1.67 -15 1.34 -15 1 C-9.92928099 0.28832014 -5.11791642 -0.10662326 0 0 Z " fill="#FFFFFF" transform="translate(248,136)"/>
<path d="M0 0 C1.44552058 6.26392252 1.44552058 6.26392252 -0.4375 9.375 C-4.07431658 11.68127393 -6.69298212 11.86106394 -11 12 C-13 10 -13 10 -13.125 6.375 C-13.08375 5.26125 -13.0425 4.1475 -13 3 C-8.44573816 0.33409063 -5.26053037 -0.31563182 0 0 Z M-12 4 C-12.16687448 6.41645782 -12.16687448 6.41645782 -12 9 C-11.34 9.66 -10.68 10.32 -10 11 C-5.75534029 10.72317437 -3.18382329 9.81645906 0 7 C-0.33 5.02 -0.66 3.04 -1 1 C-5.44870215 0.60746746 -8.14243493 1.84694043 -12 4 Z " fill="#FFFFFF" transform="translate(271,68)"/>
<path d="M0 0 C15.18 0 30.36 0 46 0 C46 0.33 46 0.66 46 1 C30.82 1 15.64 1 0 1 C0 0.67 0 0.34 0 0 Z " fill="#FFFFFF" transform="translate(75,202)"/>
<path d="M0 0 C0.598125 0.309375 1.19625 0.61875 1.8125 0.9375 C5.24889575 2.60660651 7.89571807 3.12168332 11.66796875 3.09765625 C12.56064453 3.09443359 13.45332031 3.09121094 14.37304688 3.08789062 C15.30181641 3.07951172 16.23058594 3.07113281 17.1875 3.0625 C18.12787109 3.05798828 19.06824219 3.05347656 20.03710938 3.04882812 C22.35813712 3.03704626 24.67903644 3.02059558 27 3 C27 3.33 27 3.66 27 4 C18.11369357 5.6926298 8.52112812 6.28134766 0 3 C-1.32 4.32 -2.64 5.64 -4 7 C-4.66 6.67 -5.32 6.34 -6 6 C-4.02 4.02 -2.04 2.04 0 0 Z " fill="#FFFFFF" transform="translate(72,136)"/>
<path d="M0 0 C2 2 2 2 2.1875 5.5 C2 9 2 9 1 11 C-2.3125 11.9375 -2.3125 11.9375 -6 12 C-8.4375 9.9375 -8.4375 9.9375 -10 7 C-10.25 3.6875 -10.25 3.6875 -10 1 C-6.47940432 -0.17353189 -3.693507 -0.20146402 0 0 Z M-9 2 C-8.62718073 6.39950443 -8.62718073 6.39950443 -6.1875 9.9375 C-4.06090703 11.22117007 -4.06090703 11.22117007 -1.75 10.6875 C-1.1725 10.460625 -0.595 10.23375 0 10 C0.67673447 6.59679066 0.67673447 6.59679066 1 3 C-0.81809477 0.74804431 -0.81809477 0.74804431 -3.4375 0.8125 C-6.11939103 0.90304487 -6.11939103 0.90304487 -9 2 Z " fill="#FFFFFF" transform="translate(54,70)"/>
<path d="M0 0 C1.55460938 0.00773438 1.55460938 0.00773438 3.140625 0.015625 C4.67976562 0.00789062 4.67976562 0.00789062 6.25 0 C9.390625 0.265625 9.390625 0.265625 12.1640625 1.2734375 C16.57721382 2.63050825 20.68041986 2.48039558 25.265625 2.390625 C26.14476562 2.38160156 27.02390625 2.37257813 27.9296875 2.36328125 C30.0834521 2.33987077 32.23707514 2.3040051 34.390625 2.265625 C30.42921285 4.46653095 26.96611041 4.56462117 22.515625 4.515625 C21.82082031 4.52335938 21.12601563 4.53109375 20.41015625 4.5390625 C15.97487628 4.52235711 12.55078426 3.6782994 8.390625 2.265625 C4.95994974 2.02597614 4.95994974 2.02597614 1.515625 2.140625 C0.36320313 2.15867187 -0.78921875 2.17671875 -1.9765625 2.1953125 C-2.84539062 2.21851563 -3.71421875 2.24171875 -4.609375 2.265625 C-2.609375 0.265625 -2.609375 0.265625 0 0 Z " fill="#FFFFFF" transform="translate(157.609375,9.734375)"/>
<path d="M0 0 C0 4.95 0 9.9 0 15 C1.98 15 3.96 15 6 15 C6 15.33 6 15.66 6 16 C4.41773035 16.19627391 2.83410729 16.38165538 1.25 16.5625 C0.36828125 16.66691406 -0.5134375 16.77132813 -1.421875 16.87890625 C-3.88432451 16.99456676 -5.66538064 16.73638695 -8 16 C-4.535 15.505 -4.535 15.505 -1 15 C-1 10.38 -1 5.76 -1 1 C-3.31 2.32 -5.62 3.64 -8 5 C-5.96115496 0.48541456 -5.19128917 0 0 0 Z " fill="#FFFFFF" transform="translate(28,9)"/>
<path d="M0 0 C0.99 0.33 1.98 0.66 3 1 C2.34 1 1.68 1 1 1 C1.66 3.97 2.32 6.94 3 10 C7.39314793 8.98839152 7.39314793 8.98839152 10.375 5.875 C10.58125 5.25625 10.7875 4.6375 11 4 C11 5.65 11 7.3 11 9 C10.030625 9.28875 9.06125 9.5775 8.0625 9.875 C4.89335797 10.64214682 4.89335797 10.64214682 4 13 C0.47726246 8.48649253 -0.45732667 5.71658336 0 0 Z " fill="#FFFFFF" transform="translate(155,70)"/>
<path d="M0 0 C7.92 0.33 15.84 0.66 24 1 C24 1.33 24 1.66 24 2 C20.56257082 2.05802698 17.12526747 2.09360486 13.6875 2.125 C12.71103516 2.14175781 11.73457031 2.15851563 10.72851562 2.17578125 C9.79072266 2.18222656 8.85292969 2.18867188 7.88671875 2.1953125 C7.02264404 2.20578613 6.15856934 2.21625977 5.26831055 2.22705078 C3 2 3 2 0 0 Z " fill="#FFFFFF" transform="translate(135,137)"/>
<path d="M0 0 C4.21365599 6.32048399 1.95026254 15.75424812 1 23 C0.67 23 0.34 23 0 23 C0 15.41 0 7.82 0 0 Z " fill="#FFFFFF" transform="translate(80,77)"/>
<path d="M0 0 C6.93 0 13.86 0 21 0 C21 0.33 21 0.66 21 1 C14.07 1 7.14 1 0 1 C0 0.67 0 0.34 0 0 Z " fill="#FFFFFF" transform="translate(34,45)"/>
<path d="M0 0 C6.6 0 13.2 0 20 0 C20 0.33 20 0.66 20 1 C13.4 1 6.8 1 0 1 C0 0.67 0 0.34 0 0 Z " fill="#FFFFFF" transform="translate(121,201)"/>
<path d="M0 0 C1 3.875 1 3.875 1 5 C-3.29 5 -7.58 5 -12 5 C-12 4.67 -12 4.34 -12 4 C-11.38511719 3.96261719 -10.77023438 3.92523438 -10.13671875 3.88671875 C-9.32847656 3.82097656 -8.52023438 3.75523438 -7.6875 3.6875 C-6.88699219 3.62949219 -6.08648437 3.57148437 -5.26171875 3.51171875 C-2.63727666 2.91793306 -1.69179328 2.04219706 0 0 Z " fill="#FFFFFF" transform="translate(241,97)"/>
<path d="M0 0 C6.27 0 12.54 0 19 0 C19 0.33 19 0.66 19 1 C12.73 1 6.46 1 0 1 C0 0.67 0 0.34 0 0 Z " fill="#FFFFFF" transform="translate(256,103)"/>
<path d="M0 0 C3.0625 0.75 3.0625 0.75 7.0625 2.75 C2.7725 2.42 -1.5175 2.09 -5.9375 1.75 C-2.9375 -0.25 -2.9375 -0.25 0 0 Z " fill="#FFFFFF" transform="translate(104.9375,137.25)"/>
<path d="M0 0 C5.28 0 10.56 0 16 0 C16 0.33 16 0.66 16 1 C10.72 1 5.44 1 0 1 C0 0.67 0 0.34 0 0 Z " fill="#FFFFFF" transform="translate(151,103)"/>
<path d="M0 0 C0.33 0 0.66 0 1 0 C1 4.62 1 9.24 1 14 C0.67 14 0.34 14 0 14 C0 9.38 0 4.76 0 0 Z " fill="#FFFFFF" transform="translate(254,181)"/>
<path d="M0 0 C0 0.33 0 0.66 0 1 C-6.435 1.495 -6.435 1.495 -13 2 C-13 1.67 -13 1.34 -13 1 C-8.59085217 -0.10228696 -4.51617599 -0.07654536 0 0 Z " fill="#FFFFFF" transform="translate(135,138)"/>
<path d="M0 0 C4.62 0 9.24 0 14 0 C14 0.33 14 0.66 14 1 C9.38 1 4.76 1 0 1 C0 0.67 0 0.34 0 0 Z " fill="#FFFFFF" transform="translate(242,102)"/>
<path d="M0 0 C3.3 0 6.6 0 10 0 C9.67 1.32 9.34 2.64 9 4 C9 3.01 9 2.02 9 1 C6.03 1 3.06 1 0 1 C0 0.67 0 0.34 0 0 Z " fill="#FFFFFF" transform="translate(246,177)"/>
<path d="M0 0 C0.99 0 1.98 0 3 0 C2.67 1.65 2.34 3.3 2 5 C1.34 4.67 0.68 4.34 0 4 C0 2.68 0 1.36 0 0 Z " fill="#FFFFFF" transform="translate(43,146)"/>
<path d="M0 0 C1.65 0 3.3 0 5 0 C5.66 1.65 6.32 3.3 7 5 C6.5875 4.54625 6.175 4.0925 5.75 3.625 C3.93591905 1.94049626 2.24714373 1.00734029 0 0 Z " fill="#FFFFFF" transform="translate(158,69)"/>
<path d="M0 0 C2.64 0 5.28 0 8 0 C7.67 0.66 7.34 1.32 7 2 C5.02 2 3.04 2 1 2 C0.67 1.34 0.34 0.68 0 0 Z " fill="#FFFFFF" transform="translate(57,144)"/>
<path d="M0 0 C3.3 0 6.6 0 10 0 C10 0.33 10 0.66 10 1 C6.7 1 3.4 1 0 1 C0 0.67 0 0.34 0 0 Z " fill="#FFFFFF" transform="translate(112,140)"/>
<path d="M0 0 C3.3 0 6.6 0 10 0 C10 0.33 10 0.66 10 1 C6.7 1 3.4 1 0 1 C0 0.67 0 0.34 0 0 Z " fill="#FFFFFF" transform="translate(167,102)"/>
<path d="M0 0 C0 3 0 3 -1.5 4.6875 C-1.995 5.120625 -2.49 5.55375 -3 6 C-1.125 1.125 -1.125 1.125 0 0 Z " fill="#FFFFFF" transform="translate(270,197)"/>
<path d="M0 0 C2.97 0 5.94 0 9 0 C9 0.33 9 0.66 9 1 C6.03 1 3.06 1 0 1 C0 0.67 0 0.34 0 0 Z " fill="#FFFFFF" transform="translate(224,138)"/>
<path d="M0 0 C2.97 0 5.94 0 9 0 C9 0.33 9 0.66 9 1 C6.03 1 3.06 1 0 1 C0 0.67 0 0.34 0 0 Z " fill="#FFFFFF" transform="translate(177,101)"/>
<path d="M0 0 C1.65 0 3.3 0 5 0 C4.67 1.32 4.34 2.64 4 4 C4 3.01 4 2.02 4 1 C2.68 0.67 1.36 0.34 0 0 Z " fill="#FFFFFF" transform="translate(159,137)"/>
<path d="M0 0 C2.31 0 4.62 0 7 0 C7 0.33 7 0.66 7 1 C4.69 1 2.38 1 0 1 C0 0.67 0 0.34 0 0 Z " fill="#FFFFFF" transform="translate(68,201)"/>
<path d="M0 0 C0.66 0 1.32 0 2 0 C1.67 0.99 1.34 1.98 1 3 C0.34 3 -0.32 3 -1 3 C-0.67 2.01 -0.34 1.02 0 0 Z " fill="#FFFFFF" transform="translate(38,21)"/>
<path d="M0 0 C1.98 0 3.96 0 6 0 C6 0.33 6 0.66 6 1 C4.02 1 2.04 1 0 1 C0 0.67 0 0.34 0 0 Z " fill="#FFFFFF" transform="translate(213,140)"/>
<path d="M0 0 C1.65 0 3.3 0 5 0 C5 0.33 5 0.66 5 1 C3.35 1 1.7 1 0 1 C0 0.67 0 0.34 0 0 Z " fill="#FFFFFF" transform="translate(219,139)"/>
<path d="M0 0 C4 1 4 1 4 1 Z " fill="#FFFFFF" transform="translate(98,12)"/>
<path d="" fill="#FFFFFF" transform="translate(0,0)"/>
</svg>
