<?xml version="1.0" encoding="UTF-8"?>
<svg version="1.1" xmlns="http://www.w3.org/2000/svg" width="350" height="230">
<path d="M0 0 C45.54 0 91.08 0 138 0 C138 0.33 138 0.66 138 1 C92.46 1 46.92 1 0 1 C0 0.67 0 0.34 0 0 Z " fill="#FFFFFF" transform="translate(184,47)"/>
<path d="M0 0 C10.49721056 0.30625665 20.4385148 0.79268438 30.66015625 3.30859375 C35.52629053 4.31596892 40.37494706 4.50984823 45.33203125 4.69140625 C46.21246094 4.79324219 47.09289062 4.89507812 48 5 C48.495 5.99 48.495 5.99 49 7 C52.02934491 7.65772428 52.02934491 7.65772428 55 8 C55 8.33 55 8.66 55 9 C52.69 9 50.38 9 48 9 C47.505 7.515 47.505 7.515 47 6 C45.72769531 6.05220703 45.72769531 6.05220703 44.4296875 6.10546875 C36.81161097 6.28127052 30.20722764 5.51800371 22.8203125 3.734375 C15.62689558 2.35159138 8.3073089 2.24026299 1 2 C0.67 1.34 0.34 0.68 0 0 Z " fill="#FFFFFF" transform="translate(121,213)"/>
<path d="M0 0 C2.41696872 -0.05411124 4.83271787 -0.09372278 7.25 -0.125 C7.93191406 -0.14175781 8.61382812 -0.15851563 9.31640625 -0.17578125 C14.5510589 -0.22660312 14.5510589 -0.22660312 16.96588135 0.99227905 C19.23019158 2.11403901 20.70684862 2.27234905 23.21777344 2.31884766 C24.03832214 2.33871735 24.85887085 2.35858704 25.70428467 2.37905884 C26.58046448 2.39061005 27.45664429 2.40216125 28.359375 2.4140625 C29.26375305 2.43342865 30.1681311 2.4527948 31.09991455 2.4727478 C33.98318099 2.53243831 36.86648758 2.57888686 39.75 2.625 C41.70704848 2.66318947 43.66408033 2.70224177 45.62109375 2.7421875 C50.41392711 2.83813125 55.20683915 2.92220127 60 3 C60 3.33 60 3.66 60 4 C54.09180929 4.04945048 48.18373916 4.08574364 42.27539062 4.10986328 C40.26560365 4.1199187 38.2558313 4.13356485 36.24609375 4.15087891 C33.35673412 4.17514724 30.46756798 4.18648771 27.578125 4.1953125 C26.68007141 4.20563507 25.78201782 4.21595764 24.85675049 4.22659302 C24.01618103 4.22674408 23.17561157 4.22689514 22.30957031 4.22705078 C21.20370575 4.23371262 21.20370575 4.23371262 20.07550049 4.24050903 C17.68365231 3.96334162 16.12346356 3.10368036 14 2 C11.59162245 1.71121265 9.17189532 1.50954974 6.75 1.375 C4.85507813 1.26285156 4.85507813 1.26285156 2.921875 1.1484375 C1.47554687 1.07496094 1.47554687 1.07496094 0 1 C0 0.67 0 0.34 0 0 Z " fill="#FFFFFF" transform="translate(128,189)"/>
<path d="M0 0 C2.89441456 1.28619178 5.32971062 1.29968373 8.49121094 1.38916016 C9.69648438 1.42783203 10.90175781 1.46650391 12.14355469 1.50634766 C13.3978125 1.53728516 14.65207031 1.56822266 15.94433594 1.60009766 C17.2140625 1.63876953 18.48378906 1.67744141 19.79199219 1.71728516 C22.92596163 1.81153988 26.05992542 1.89714932 29.19433594 1.97509766 C29.19433594 2.30509766 29.19433594 2.63509766 29.19433594 2.97509766 C24.65279116 3.06245229 20.11146362 3.11561013 15.56933594 3.16259766 C13.64154297 3.20030273 13.64154297 3.20030273 11.67480469 3.23876953 C9.80888672 3.25327148 9.80888672 3.25327148 7.90527344 3.26806641 C6.19283447 3.29163208 6.19283447 3.29163208 4.44580078 3.31567383 C0.7805405 2.93175446 -1.58620644 1.70827546 -4.80566406 -0.02490234 C-7.2200702 0.06242044 -7.2200702 0.06242044 -9.43066406 0.85009766 C-12.67269903 1.83977149 -14.5583954 2.04772486 -17.80566406 0.97509766 C-11.75816545 -1.45212968 -6.15114318 -3.49141415 0 0 Z " fill="#FFFFFF" transform="translate(143.8056640625,204.02490234375)"/>
<path d="M0 0 C13.2 0 26.4 0 40 0 C40 4.62 40 9.24 40 14 C39.67 14 39.34 14 39 14 C39 9.71 39 5.42 39 1 C26.13 1 13.26 1 0 1 C0 0.67 0 0.34 0 0 Z " fill="#FFFFFF" transform="translate(129,83)"/>
<path d="M0 0 C1.96362305 2.6706543 1.96362305 2.6706543 1.96362305 5.6706543 C0.5879945 4.38100254 -0.74404088 3.04376137 -2.03637695 1.6706543 C-2.03637695 1.0106543 -2.03637695 0.3506543 -2.03637695 -0.3293457 C-14.57637695 -0.3293457 -27.11637695 -0.3293457 -40.03637695 -0.3293457 C-40.03637695 -0.6593457 -40.03637695 -0.9893457 -40.03637695 -1.3293457 C-34.85954946 -1.59643602 -29.68271264 -1.82941525 -24.50292969 -2.03125 C-22.74210052 -2.10462463 -20.98162992 -2.18721882 -19.22167969 -2.27929688 C-16.68764151 -2.41025677 -14.15415204 -2.50771369 -11.6184082 -2.59887695 C-10.8348848 -2.64655716 -10.05136139 -2.69423737 -9.24409485 -2.74336243 C-5.13635248 -2.85653438 -3.30238548 -2.53341319 0 0 Z " fill="#FFFFFF" transform="translate(287.036376953125,170.329345703125)"/>
<path d="M0 0 C15.84 0 31.68 0 48 0 C48 0.33 48 0.66 48 1 C32.16 1 16.32 1 0 1 C0 0.67 0 0.34 0 0 Z " fill="#FFFFFF" transform="translate(81,84)"/>
<path d="M0 0 C1.37453198 -0.05498128 2.74973578 -0.09322822 4.125 -0.125 C4.89070313 -0.14820312 5.65640625 -0.17140625 6.4453125 -0.1953125 C9 0 9 0 11.53125 0.96875 C16.75216237 2.52091314 21.95463182 2.47177404 27.375 2.625 C29.05142578 2.68300781 29.05142578 2.68300781 30.76171875 2.7421875 C33.50765161 2.83606555 36.25358476 2.92174911 39 3 C39 3.33 39 3.66 39 4 C34.95839444 4.05831395 30.91689795 4.09370212 26.875 4.125 C25.73289062 4.14175781 24.59078125 4.15851563 23.4140625 4.17578125 C21.75117188 4.18544922 21.75117188 4.18544922 20.0546875 4.1953125 C18.53077393 4.21102295 18.53077393 4.21102295 16.97607422 4.22705078 C13.70913601 3.97780939 11.06660693 3.12319619 8 2 C5.33298505 1.52725153 2.69816424 1.27912044 0 1 C0 0.67 0 0.34 0 0 Z " fill="#FFFFFF" transform="translate(297,95)"/>
<path d="M0 0 C13.53 0 27.06 0 41 0 C41 0.33 41 0.66 41 1 C27.47 1 13.94 1 0 1 C0 0.67 0 0.34 0 0 Z " fill="#FFFFFF" transform="translate(40,85)"/>
<path d="M0 0 C0.495 0.99 0.495 0.99 1 2 C-11.68270851 2.74136918 -24.29571603 3.13809004 -37 3 C-37 2.67 -37 2.34 -37 2 C-24.79 1.34 -12.58 0.68 0 0 Z " fill="#FFFFFF" transform="translate(213,220)"/>
<path d="M0 0 C19.305 0.495 19.305 0.495 39 1 C39 1.33 39 1.66 39 2 C33.76726669 2.04935824 28.53466824 2.08569949 23.30175781 2.10986328 C21.52080933 2.11993431 19.73987743 2.13359185 17.95898438 2.15087891 C15.40230217 2.17507913 12.84583815 2.18647184 10.2890625 2.1953125 C9.49005524 2.20563507 8.69104797 2.21595764 7.86782837 2.22659302 C5.9104278 2.22699226 3.95356923 2.12241069 2 2 C1.34 1.34 0.68 0.68 0 0 Z " fill="#FFFFFF" transform="translate(252,124)"/>
<path d="M0 0 C0.33 0 0.66 0 1 0 C1.0292067 3.54164915 1.04686814 7.08326697 1.0625 10.625 C1.07087891 11.62402344 1.07925781 12.62304688 1.08789062 13.65234375 C1.1041087 18.55020275 1.04318537 23.18656199 0 28 C-1.32 27.34 -2.64 26.68 -4 26 C-3.67 25.34 -3.34 24.68 -3 24 C-2.34 24.33 -1.68 24.66 -1 25 C-0.67 16.75 -0.34 8.5 0 0 Z " fill="#FFFFFF" transform="translate(163,152)"/>
<path d="M0 0 C0.33 0.99 0.66 1.98 1 3 C3.97 3 6.94 3 10 3 C10 3.33 10 3.66 10 4 C6.7 4 3.4 4 0 4 C0 3.34 0 2.68 0 2 C-6.93 2 -13.86 2 -21 2 C-21 1.67 -21 1.34 -21 1 C-10.605 0.505 -10.605 0.505 0 0 Z " fill="#FFFFFF" transform="translate(40,14)"/>
<path d="M0 0 C4.95 0 9.9 0 15 0 C15 0.33 15 0.66 15 1 C10.38 1.33 5.76 1.66 1 2 C-0.7609405 7.20347276 -0.7609405 7.20347276 -1.625 12.375 C-1.74875 13.57125 -1.8725 14.7675 -2 16 C-2.33 16 -2.66 16 -3 16 C-3.37952295 9.80112515 -2.8352113 5.5522888 0 0 Z " fill="#FFFFFF" transform="translate(232,168)"/>
<path d="M0 0 C0.33 0 0.66 0 1 0 C1.02949232 3.45831484 1.0469616 6.91659654 1.0625 10.375 C1.07087891 11.34050781 1.07925781 12.30601563 1.08789062 13.30078125 C1.10902305 19.59824289 0.76107198 25.74839863 0 32 C-0.33 32 -0.66 32 -1 32 C-0.67 21.44 -0.34 10.88 0 0 Z " fill="#FFFFFF" transform="translate(169,97)"/>
<path d="M0 0 C3.3 0 6.6 0 10 0 C10.33 1.98 10.66 3.96 11 6 C14.96 6.33 18.92 6.66 23 7 C23 7.33 23 7.66 23 8 C20.85423363 8.02685938 18.70837355 8.04633088 16.5625 8.0625 C15.36753906 8.07410156 14.17257813 8.08570312 12.94140625 8.09765625 C10 8 10 8 9 7 C8.95919217 5.00041636 8.95745644 2.99954746 9 1 C6.03 1 3.06 1 0 1 C0 0.67 0 0.34 0 0 Z " fill="#FFFFFF" transform="translate(231,90)"/>
<path d="M0 0 C6.93 0 13.86 0 21 0 C21 1.66666667 21 3.33333333 21 5 C20.34 5 19.68 5 19 5 C19 4.01 19 3.02 19 2 C12.73 1.67 6.46 1.34 0 1 C0 0.67 0 0.34 0 0 Z " fill="#FFFFFF" transform="translate(291,126)"/>
<path d="M0 0 C12.87 0.495 12.87 0.495 26 1 C26 1.33 26 1.66 26 2 C23.16660035 2.02724423 20.33346883 2.04695589 17.5 2.0625 C16.31277344 2.07506836 16.31277344 2.07506836 15.1015625 2.08789062 C9.97238283 2.10891185 5.07663894 1.73937287 0 1 C0 0.67 0 0.34 0 0 Z " fill="#FFFFFF" transform="translate(190,205)"/>
<path d="M0 0 C8.58077055 -0.24911914 16.58173087 0.30117812 25 2 C25 2.33 25 2.66 25 3 C16.66360998 2.36804785 8.33049713 1.70546552 0 1 C0 0.67 0 0.34 0 0 Z " fill="#FFFFFF" transform="translate(262,184)"/>
<path d="M0 0 C8.58 0 17.16 0 26 0 C26 0.33 26 0.66 26 1 C17.42 1 8.84 1 0 1 C0 0.67 0 0.34 0 0 Z " fill="#FFFFFF" transform="translate(136,45)"/>
<path d="M0 0 C8.25 0.33 16.5 0.66 25 1 C25 1.33 25 1.66 25 2 C21.20839703 2.05786668 17.41690689 2.09355054 13.625 2.125 C12.00464844 2.15013672 12.00464844 2.15013672 10.3515625 2.17578125 C9.3203125 2.18222656 8.2890625 2.18867188 7.2265625 2.1953125 C5.79691162 2.21102295 5.79691162 2.21102295 4.33837891 2.22705078 C2 2 2 2 0 0 Z " fill="#FFFFFF" transform="translate(311,15)"/>
<path d="M0 0 C6 7.71428571 6 7.71428571 6 12 C3.03 12 0.06 12 -3 12 C-3 11.67 -3 11.34 -3 11 C0.465 10.505 0.465 10.505 4 10 C3.34 8.906875 2.68 7.81375 2 6.6875 C0.41535071 4.06292462 0 3.1743622 0 0 Z " fill="#FFFFFF" transform="translate(290,176)"/>
<path d="M0 0 C8.25 0 16.5 0 25 0 C25 0.33 25 0.66 25 1 C16.75 1 8.5 1 0 1 C0 0.67 0 0.34 0 0 Z " fill="#FFFFFF" transform="translate(255,148)"/>
<path d="M0 0 C7.72772107 -0.13690844 15.30881404 0.24833087 23 1 C23 1.33 23 1.66 23 2 C15.25863399 2.10920422 7.68604474 1.97159933 0 1 C0 0.67 0 0.34 0 0 Z " fill="#FFFFFF" transform="translate(14,38)"/>
<path d="M0 0 C7.59 0 15.18 0 23 0 C23 0.33 23 0.66 23 1 C15.41 1 7.82 1 0 1 C0 0.67 0 0.34 0 0 Z " fill="#FFFFFF" transform="translate(212,141)"/>
<path d="M0 0 C6.6 0.66 13.2 1.32 20 2 C20 2.33 20 2.66 20 3 C17.22829605 2.88613541 14.45821954 2.75939222 11.6875 2.625 C10.90181641 2.5940625 10.11613281 2.563125 9.30664062 2.53125 C8.54931641 2.49257812 7.79199219 2.45390625 7.01171875 2.4140625 C6.31522217 2.3826416 5.61872559 2.3512207 4.90112305 2.31884766 C3 2 3 2 0 0 Z " fill="#FFFFFF" transform="translate(235,180)"/>
<path d="M0 0 C7.26 0 14.52 0 22 0 C22 0.33 22 0.66 22 1 C14.74 1 7.48 1 0 1 C0 0.67 0 0.34 0 0 Z " fill="#FFFFFF" transform="translate(162,46)"/>
<path d="M0 0 C7.26 0 14.52 0 22 0 C22 0.33 22 0.66 22 1 C14.74 1 7.48 1 0 1 C0 0.67 0 0.34 0 0 Z " fill="#FFFFFF" transform="translate(114,44)"/>
<path d="M0 0 C6.93 0 13.86 0 21 0 C21 0.33 21 0.66 21 1 C14.07 1 7.14 1 0 1 C0 0.67 0 0.34 0 0 Z " fill="#FFFFFF" transform="translate(312,131)"/>
<path d="M0 0 C6.93 0 13.86 0 21 0 C21 0.33 21 0.66 21 1 C14.07 1 7.14 1 0 1 C0 0.67 0 0.34 0 0 Z " fill="#FFFFFF" transform="translate(93,43)"/>
<path d="M0 0 C0.2475 0.61875 0.495 1.2375 0.75 1.875 C2.20628639 4.35068687 3.37812506 4.95125002 6 6 C4.35 6 2.7 6 1 6 C0.34 4.35 -0.32 2.7 -1 1 C-3.64 1.33 -6.28 1.66 -9 2 C-5.5647952 -0.29013653 -4.014669 -0.17842973 0 0 Z " fill="#FFFFFF" transform="translate(94,15)"/>
<path d="M0 0 C2.97 0 5.94 0 9 0 C8.67 1.98 8.34 3.96 8 6 C9.65 6 11.3 6 13 6 C13 6.33 13 6.66 13 7 C11.02 7 9.04 7 7 7 C7.33 5.02 7.66 3.04 8 1 C5.36 1 2.72 1 0 1 C0 0.67 0 0.34 0 0 Z " fill="#FFFFFF" transform="translate(67,13)"/>
<path d="M0 0 C6.6 0 13.2 0 20 0 C20 0.33 20 0.66 20 1 C13.4 1 6.8 1 0 1 C0 0.67 0 0.34 0 0 Z " fill="#FFFFFF" transform="translate(108,190)"/>
<path d="M0 0 C1.99954746 -0.04254356 4.00041636 -0.04080783 6 0 C6.33 0.33 6.66 0.66 7 1 C8.84891946 1.23363881 10.70488031 1.41303635 12.5625 1.5625 C13.57441406 1.64628906 14.58632813 1.73007813 15.62890625 1.81640625 C16.80259766 1.90728516 16.80259766 1.90728516 18 2 C18 2.33 18 2.66 18 3 C5.33029613 3.3690205 5.33029613 3.3690205 0 1 C0 0.67 0 0.34 0 0 Z " fill="#FFFFFF" transform="translate(279,92)"/>
<path d="M0 0 C6.6 0 13.2 0 20 0 C20 0.33 20 0.66 20 1 C13.4 1 6.8 1 0 1 C0 0.67 0 0.34 0 0 Z " fill="#FFFFFF" transform="translate(322,46)"/>
<path d="M0 0 C6.6 0 13.2 0 20 0 C20 0.33 20 0.66 20 1 C13.4 1 6.8 1 0 1 C0 0.67 0 0.34 0 0 Z " fill="#FFFFFF" transform="translate(54,41)"/>
<path d="M0 0 C-3.76300374 1.25433458 -7.27210909 1.10695422 -11.1875 1.0625 C-11.93708984 1.05798828 -12.68667969 1.05347656 -13.45898438 1.04882812 C-15.30602383 1.03706354 -17.15302213 1.01912865 -19 1 C-19 0.67 -19 0.34 -19 0 C-16.58373582 -0.19534474 -14.16734771 -0.38153404 -11.75 -0.5625 C-11.06808594 -0.61857422 -10.38617188 -0.67464844 -9.68359375 -0.73242188 C-6.2579419 -0.98186254 -3.27298823 -1.13879745 0 0 Z " fill="#FFFFFF" transform="translate(249,18)"/>
<path d="M0 0 C6.27 0 12.54 0 19 0 C19 0.33 19 0.66 19 1 C12.73 1 6.46 1 0 1 C0 0.67 0 0.34 0 0 Z " fill="#FFFFFF" transform="translate(74,42)"/>
<path d="M0 0 C0.33 0.99 0.66 1.98 1 3 C3.31 3 5.62 3 8 3 C8 3.33 8 3.66 8 4 C5.69 4 3.38 4 1 4 C1 6.31 1 8.62 1 11 C0.67 11 0.34 11 0 11 C0 7.37 0 3.74 0 0 Z " fill="#FFFFFF" transform="translate(51,147)"/>
<path d="M0 0 C3.3 0 6.6 0 10 0 C10 1.32 10 2.64 10 4 C9.01 4.33 8.02 4.66 7 5 C7 4.01 7 3.02 7 2 C4.69 1.67 2.38 1.34 0 1 C0 0.67 0 0.34 0 0 Z " fill="#FFFFFF" transform="translate(235,142)"/>
<path d="M0 0 C1.7290774 -0.02725341 3.45828176 -0.04650987 5.1875 -0.0625 C6.15042969 -0.07410156 7.11335937 -0.08570313 8.10546875 -0.09765625 C10.85576513 -0.00486622 13.32479591 0.37888315 16 1 C16 1.33 16 1.66 16 2 C10.72 1.67 5.44 1.34 0 1 C0 0.67 0 0.34 0 0 Z " fill="#FFFFFF" transform="translate(188,193)"/>
<path d="M0 0 C5.61 0 11.22 0 17 0 C17 0.33 17 0.66 17 1 C11.39 1 5.78 1 0 1 C0 0.67 0 0.34 0 0 Z " fill="#FFFFFF" transform="translate(37,40)"/>
<path d="M0 0 C4.95 0 9.9 0 15 0 C15 0.33 15 0.66 15 1 C10.05 1 5.1 1 0 1 C0 0.67 0 0.34 0 0 Z " fill="#FFFFFF" transform="translate(204,195)"/>
<path d="M0 0 C4.95 0 9.9 0 15 0 C15 0.33 15 0.66 15 1 C10.05 1 5.1 1 0 1 C0 0.67 0 0.34 0 0 Z " fill="#FFFFFF" transform="translate(100,21)"/>
<path d="M0 0 C1.2065625 0.0309375 1.2065625 0.0309375 2.4375 0.0625 C1.798125 0.248125 1.15875 0.43375 0.5 0.625 C-1.98376213 2.00496056 -1.98376213 2.00496056 -2.3125 5.6875 C-2.395 6.80125 -2.4775 7.915 -2.5625 9.0625 C-2.8925 9.0625 -3.2225 9.0625 -3.5625 9.0625 C-3.66015625 2.91015625 -3.66015625 2.91015625 -3.5625 1.0625 C-2.5625 0.0625 -2.5625 0.0625 0 0 Z " fill="#FFFFFF" transform="translate(37.5625,83.9375)"/>
<path d="M0 0 C3.96 0.33 7.92 0.66 12 1 C12 1.33 12 1.66 12 2 C7.83861737 2.08159574 4.0527516 1.98248524 0 1 C0 0.67 0 0.34 0 0 Z " fill="#FFFFFF" transform="translate(66,152)"/>
<path d="M0 0 C4.29 0 8.58 0 13 0 C13 0.33 13 0.66 13 1 C8.71 1 4.42 1 0 1 C0 0.67 0 0.34 0 0 Z " fill="#FFFFFF" transform="translate(280,149)"/>
<path d="M0 0 C4.29 0 8.58 0 13 0 C13 0.33 13 0.66 13 1 C8.71 1 4.42 1 0 1 C0 0.67 0 0.34 0 0 Z " fill="#FFFFFF" transform="translate(288,15)"/>
<path d="M0 0 C-3.90028225 2.60018816 -7.47434569 2.15085514 -12 2 C-12 1.67 -12 1.34 -12 1 C-7.95858806 0.36605303 -4.0934693 -0.12404452 0 0 Z " fill="#FFFFFF" transform="translate(67,14)"/>
<path d="M0 0 C3.63 0 7.26 0 11 0 C11 0.33 11 0.66 11 1 C7.37 1 3.74 1 0 1 C0 0.67 0 0.34 0 0 Z " fill="#FFFFFF" transform="translate(179,206)"/>
<path d="M0 0 C3.63 0 7.26 0 11 0 C11 0.33 11 0.66 11 1 C7.37 1 3.74 1 0 1 C0 0.67 0 0.34 0 0 Z " fill="#FFFFFF" transform="translate(211,92)"/>
<path d="M0 0 C-4.43076923 2.09230769 -4.43076923 2.09230769 -7.3125 1.625 C-7.869375 1.41875 -8.42625 1.2125 -9 1 C-3.375 -1.125 -3.375 -1.125 0 0 Z " fill="#FFFFFF" transform="translate(277,17)"/>
<path d="M0 0 C0.33 0 0.66 0 1 0 C1.33 2.97 1.66 5.94 2 9 C-0.29013653 5.5647952 -0.17842973 4.014669 0 0 Z " fill="#FFFFFF" transform="translate(52,158)"/>
<path d="M0 0 C1.65 0 3.3 0 5 0 C5.33 1.65 5.66 3.3 6 5 C5.34 5 4.68 5 4 5 C4 3.68 4 2.36 4 1 C2.68 0.67 1.36 0.34 0 0 Z " fill="#FFFFFF" transform="translate(293,150)"/>
<path d="M0 0 C3.3 0 6.6 0 10 0 C10 0.33 10 0.66 10 1 C6.7 1 3.4 1 0 1 C0 0.67 0 0.34 0 0 Z " fill="#FFFFFF" transform="translate(245,147)"/>
<path d="M0 0 C1.85776765 3.13498292 2.20140476 5.37471432 2 9 C0.14223235 5.86501708 -0.20140476 3.62528568 0 0 Z " fill="#FFFFFF" transform="translate(49,138)"/>
<path d="M0 0 C2.64 0.33 5.28 0.66 8 1 C5.39417629 1.93065133 4.35801776 2.14917407 1.75 1.0625 C1.1725 0.711875 0.595 0.36125 0 0 Z " fill="#FFFFFF" transform="translate(132,168)"/>
<path d="M0 0 C2.31 0.33 4.62 0.66 7 1 C6.34 1.66 5.68 2.32 5 3 C2.525 2.01 2.525 2.01 0 1 C0 0.67 0 0.34 0 0 Z " fill="#FFFFFF" transform="translate(316,159)"/>
<path d="M0 0 C2.64 0.33 5.28 0.66 8 1 C5.39417629 1.93065133 4.35801776 2.14917407 1.75 1.0625 C1.1725 0.711875 0.595 0.36125 0 0 Z " fill="#FFFFFF" transform="translate(302,156)"/>
<path d="M0 0 C2.64 0.33 5.28 0.66 8 1 C5.39417629 1.93065133 4.35801776 2.14917407 1.75 1.0625 C1.1725 0.711875 0.595 0.36125 0 0 Z " fill="#FFFFFF" transform="translate(217,113)"/>
<path d="M0 0 C2.97 0 5.94 0 9 0 C9 0.33 9 0.66 9 1 C6.03 1 3.06 1 0 1 C0 0.67 0 0.34 0 0 Z " fill="#FFFFFF" transform="translate(222,91)"/>
<path d="M0 0 C2.64 0 5.28 0 8 0 C8 0.33 8 0.66 8 1 C5.36 1 2.72 1 0 1 C0 0.67 0 0.34 0 0 Z " fill="#FFFFFF" transform="translate(219,196)"/>
<path d="M0 0 C2.64 0 5.28 0 8 0 C8 0.33 8 0.66 8 1 C5.36 1 2.72 1 0 1 C0 0.67 0 0.34 0 0 Z " fill="#FFFFFF" transform="translate(271,93)"/>
<path d="M0 0 C2.64 0 5.28 0 8 0 C8 0.33 8 0.66 8 1 C5.36 1 2.72 1 0 1 C0 0.67 0 0.34 0 0 Z " fill="#FFFFFF" transform="translate(342,45)"/>
<path d="M0 0 C2.31 0 4.62 0 7 0 C7 0.33 7 0.66 7 1 C4.69 1 2.38 1 0 1 C0 0.67 0 0.34 0 0 Z " fill="#FFFFFF" transform="translate(255,183)"/>
<path d="M0 0 C2.97 0.495 2.97 0.495 6 1 C4.125 1.625 4.125 1.625 2 2 C1.34 1.34 0.68 0.68 0 0 Z " fill="#FFFFFF" transform="translate(146,172)"/>
<path d="M0 0 C2.31 0 4.62 0 7 0 C7 0.33 7 0.66 7 1 C4.69 1 2.38 1 0 1 C0 0.67 0 0.34 0 0 Z " fill="#FFFFFF" transform="translate(59,151)"/>
<path d="M0 0 C0.33 0 0.66 0 1 0 C1 2.31 1 4.62 1 7 C0.67 7 0.34 7 0 7 C0 4.69 0 2.38 0 0 Z " fill="#FFFFFF" transform="translate(165,139)"/>
<path d="M0 0 C0.99 1.485 0.99 1.485 2 3 C1.67 3.99 1.34 4.98 1 6 C0.67 4.02 0.34 2.04 0 0 Z " fill="#FFFFFF" transform="translate(42,112)"/>
<path d="M0 0 C2.31 0 4.62 0 7 0 C7 0.33 7 0.66 7 1 C4.69 1 2.38 1 0 1 C0 0.67 0 0.34 0 0 Z " fill="#FFFFFF" transform="translate(264,94)"/>
<path d="M0 0 C2.31 0 4.62 0 7 0 C7 0.33 7 0.66 7 1 C4.69 1 2.38 1 0 1 C0 0.67 0 0.34 0 0 Z " fill="#FFFFFF" transform="translate(7,37)"/>
<path d="M0 0 C0.33 0.66 0.66 1.32 1 2 C-0.65 2.33 -2.3 2.66 -4 3 C-2.68 2.01 -1.36 1.02 0 0 Z " fill="#FFFFFF" transform="translate(281,13)"/>
<path d="M0 0 C1.98 0 3.96 0 6 0 C6 0.33 6 0.66 6 1 C4.02 1 2.04 1 0 1 C0 0.67 0 0.34 0 0 Z " fill="#FFFFFF" transform="translate(114,163)"/>
<path d="M0 0 C1.98 0 3.96 0 6 0 C6 0.33 6 0.66 6 1 C4.02 1 2.04 1 0 1 C0 0.67 0 0.34 0 0 Z " fill="#FFFFFF" transform="translate(310,158)"/>
<path d="M0 0 C1.98 0 3.96 0 6 0 C6 0.33 6 0.66 6 1 C4.02 1 2.04 1 0 1 C0 0.67 0 0.34 0 0 Z " fill="#FFFFFF" transform="translate(89,157)"/>
<path d="M0 0 C0.33 0 0.66 0 1 0 C1 1.98 1 3.96 1 6 C0.67 6 0.34 6 0 6 C0 4.02 0 2.04 0 0 Z " fill="#FFFFFF" transform="translate(164,146)"/>
<path d="M0 0 C0.33 0 0.66 0 1 0 C1 1.98 1 3.96 1 6 C0.67 6 0.34 6 0 6 C0 4.02 0 2.04 0 0 Z " fill="#FFFFFF" transform="translate(166,133)"/>
<path d="M0 0 C2.475 0.495 2.475 0.495 5 1 C4.01 1.33 3.02 1.66 2 2 C1.34 1.34 0.68 0.68 0 0 Z " fill="#FFFFFF" transform="translate(238,119)"/>
<path d="M0 0 C1.65 0 3.3 0 5 0 C5 0.33 5 0.66 5 1 C3.35 1 1.7 1 0 1 C0 0.67 0 0.34 0 0 Z " fill="#FFFFFF" transform="translate(99,159)"/>
<path d="M0 0 C1.65 0 3.3 0 5 0 C5 0.33 5 0.66 5 1 C3.35 1 1.7 1 0 1 C0 0.67 0 0.34 0 0 Z " fill="#FFFFFF" transform="translate(84,156)"/>
<path d="M0 0 C1.65 0 3.3 0 5 0 C5 0.33 5 0.66 5 1 C3.35 1 1.7 1 0 1 C0 0.67 0 0.34 0 0 Z " fill="#FFFFFF" transform="translate(254,96)"/>
<path d="M0 0 C0.33 0 0.66 0 1 0 C1 1.65 1 3.3 1 5 C0.67 5 0.34 5 0 5 C0 3.35 0 1.7 0 0 Z " fill="#FFFFFF" transform="translate(36,95)"/>
<path d="M0 0 C1.65 0 3.3 0 5 0 C5 0.33 5 0.66 5 1 C3.35 1 1.7 1 0 1 C0 0.67 0 0.34 0 0 Z " fill="#FFFFFF" transform="translate(259,95)"/>
<path d="M0 0 C1.65 0 3.3 0 5 0 C5 0.33 5 0.66 5 1 C3.35 1 1.7 1 0 1 C0 0.67 0 0.34 0 0 Z " fill="#FFFFFF" transform="translate(50,16)"/>
<path d="M0 0 C4 1 4 1 4 1 Z " fill="#FFFFFF" transform="translate(155,175)"/>
<path d="M0 0 C4 1 4 1 4 1 Z " fill="#FFFFFF" transform="translate(126,166)"/>
<path d="M0 0 C4 1 4 1 4 1 Z " fill="#FFFFFF" transform="translate(110,162)"/>
<path d="M0 0 C4 1 4 1 4 1 Z " fill="#FFFFFF" transform="translate(104,160)"/>
<path d="M0 0 C4 1 4 1 4 1 Z " fill="#FFFFFF" transform="translate(95,158)"/>
<path d="M0 0 C1 4 1 4 1 4 Z " fill="#FFFFFF" transform="translate(48,134)"/>
<path d="M0 0 C1 4 1 4 1 4 Z " fill="#FFFFFF" transform="translate(47,130)"/>
<path d="M0 0 C1 4 1 4 1 4 Z " fill="#FFFFFF" transform="translate(167,129)"/>
<path d="M0 0 C1 4 1 4 1 4 Z " fill="#FFFFFF" transform="translate(46,126)"/>
<path d="M0 0 C1 4 1 4 1 4 Z " fill="#FFFFFF" transform="translate(45,122)"/>
<path d="M0 0 C4 1 4 1 4 1 Z " fill="#FFFFFF" transform="translate(243,121)"/>
<path d="M0 0 C1 4 1 4 1 4 Z " fill="#FFFFFF" transform="translate(44,118)"/>
<path d="M0 0 C4 1 4 1 4 1 Z " fill="#FFFFFF" transform="translate(229,116)"/>
<path d="M0 0 C4 1 4 1 4 1 Z " fill="#FFFFFF" transform="translate(225,115)"/>
<path d="M0 0 C3 1 3 1 3 1 Z " fill="#FFFFFF" transform="translate(152,174)"/>
<path d="M0 0 C3 1 3 1 3 1 Z " fill="#FFFFFF" transform="translate(143,171)"/>
<path d="M0 0 C3 1 3 1 3 1 Z " fill="#FFFFFF" transform="translate(140,170)"/>
<path d="M0 0 C3 1 3 1 3 1 Z " fill="#FFFFFF" transform="translate(123,165)"/>
<path d="M0 0 C3 1 3 1 3 1 Z " fill="#FFFFFF" transform="translate(120,164)"/>
<path d="M0 0 C3 1 3 1 3 1 Z " fill="#FFFFFF" transform="translate(299,155)"/>
<path d="M0 0 C3 1 3 1 3 1 Z " fill="#FFFFFF" transform="translate(81,155)"/>
<path d="M0 0 C3 1 3 1 3 1 Z " fill="#FFFFFF" transform="translate(78,154)"/>
<path d="M0 0 C3 1 3 1 3 1 Z " fill="#FFFFFF" transform="translate(249,123)"/>
<path d="M0 0 C3 1 3 1 3 1 Z " fill="#FFFFFF" transform="translate(233,117)"/>
<path d="" fill="#FFFFFF" transform="translate(0,0)"/>
<path d="" fill="#FFFFFF" transform="translate(0,0)"/>
<path d="M0 0 C3 1 3 1 3 1 Z " fill="#FFFFFF" transform="translate(80,18)"/>
<path d="M0 0 C2 1 2 1 2 1 Z " fill="#FFFFFF" transform="translate(130,167)"/>
<path d="M0 0 C2 1 2 1 2 1 Z " fill="#FFFFFF" transform="translate(108,161)"/>
<path d="M0 0 C2 1 2 1 2 1 Z " fill="#FFFFFF" transform="translate(247,122)"/>
<path d="M0 0 C2 1 2 1 2 1 Z " fill="#FFFFFF" transform="translate(236,118)"/>
<path d="" fill="#FFFFFF" transform="translate(0,0)"/>
<path d="" fill="#FFFFFF" transform="translate(0,0)"/>
<path d="" fill="#FFFFFF" transform="translate(0,0)"/>
<path d="" fill="#FFFFFF" transform="translate(0,0)"/>
<path d="M0 0 C2 1 2 1 2 1 Z " fill="#FFFFFF" transform="translate(83,17)"/>
</svg>
