<?xml version="1.0" encoding="UTF-8"?>
<svg version="1.1" xmlns="http://www.w3.org/2000/svg" width="350" height="230">
<path d="M0 0 C0.99 0 1.98 0 3 0 C3.495 0.99 3.495 0.99 4 2 C4.59167969 1.91621094 5.18335938 1.83242188 5.79296875 1.74609375 C10.18396329 1.18020701 13.6525585 1.00629909 18 2 C20.23167185 1.63143136 20.23167185 1.63143136 22 1 C22 2.65 22 4.3 22 6 C22.598125 5.175 23.19625 4.35 23.8125 3.5 C24.534375 2.675 25.25625 1.85 26 1 C26.99 1 27.98 1 29 1 C29.99 3.475 29.99 3.475 31 6 C32.32 6 33.64 6 35 6 C36 7.66666667 37 9.33333333 38 11 C39.32 11 40.64 11 42 11 C42.12375 11.53625 42.2475 12.0725 42.375 12.625 C42.96654548 15.07703082 42.96654548 15.07703082 44.0625 17.625 C45.31327339 22.12778419 45.16513118 26.35797898 45 31 C45.66 31.33 46.32 31.66 47 32 C46.505 32.99 46.505 32.99 46 34 C45.77532169 35.53668865 45.59203195 37.07968054 45.4375 38.625 C45.35371094 39.44226563 45.26992188 40.25953125 45.18359375 41.1015625 C45.12300781 41.72804687 45.06242187 42.35453125 45 43 C44.01 43 43.02 43 42 43 C41.81824219 44.28197266 41.81824219 44.28197266 41.6328125 45.58984375 C41.46523438 46.69457031 41.29765625 47.79929688 41.125 48.9375 C40.96257812 50.03964844 40.80015625 51.14179687 40.6328125 52.27734375 C40.42398438 53.17582031 40.21515625 54.07429688 40 55 C39.01 55.495 39.01 55.495 38 56 C37.505 53.03 37.505 53.03 37 50 C36.01 52.64 35.02 55.28 34 58 C33.34 57.67 32.68 57.34 32 57 C32.66 55.35 33.32 53.7 34 52 C29.19738152 50.39912717 24.92531074 51.35405761 20 52 C19.93941406 52.66386719 19.87882812 53.32773438 19.81640625 54.01171875 C18.98418278 62.78207381 18.98418278 62.78207381 18 67 C19.216875 67.0825 20.43375 67.165 21.6875 67.25 C25.87858354 67.81276033 28.13562634 68.7264301 31 72 C34.15034649 78.68611733 34.46298152 85.34593408 34.5625 92.625 C34.67623407 99.14575336 35.0133562 104.73325102 37 111 C37.26772017 113.1392357 37.47998605 115.28645969 37.625 117.4375 C37.73714844 119.01337891 37.73714844 119.01337891 37.8515625 120.62109375 C37.92503906 121.79865234 37.92503906 121.79865234 38 123 C35.98828772 119.98243159 35.56778238 118.48780604 35 115 C34.28987177 110.683031 34.28987177 110.683031 33.4296875 106.39453125 C32.23234294 100.82097665 31.93989591 95.56356631 32.0625 89.875 C32.18745175 82.95072589 31.99142444 76.56669837 27.375 71.0625 C23.69235378 69.41500037 19.96010247 68.75707841 16 68 C16.99 63.05 17.98 58.1 19 53 C17.14375 53.495 15.2875 53.99 13.375 54.5 C9.11776684 55.63526218 5.40886502 56.15887802 1 56 C0.67 58.31 0.34 60.62 0 63 C-7.65390298 64.57580355 -15.21202009 65.40771027 -23 66 C-24.91138899 61.56340198 -25.51424554 57.7765855 -26 53 C-27.485 52.505 -27.485 52.505 -29 52 C-28.67 48.7 -28.34 45.4 -28 42 C-30.41888151 44.90265781 -32.35910892 47.60882511 -34 51 C-34.556875 51.556875 -35.11375 52.11375 -35.6875 52.6875 C-38.50343224 57.64890442 -36.11058547 64.01096399 -34.75 69.25 C-33.042572 74.58778463 -30.4693966 77.42232995 -25.75 80.4375 C-22.25789081 81.15179506 -19.83302043 80.40895158 -16.42578125 79.515625 C-12.58283017 78.69876583 -8.91666337 78.87566148 -5 79 C-5.78761719 79.80695313 -6.57523437 80.61390625 -7.38671875 81.4453125 C-10.57959012 85.27675815 -11.16827049 89.03302021 -11.8125 93.875 C-11.93302734 94.65875 -12.05355469 95.4425 -12.17773438 96.25 C-12.46951088 98.16405384 -12.73725467 100.08174545 -13 102 C-13.33 102 -13.66 102 -14 102 C-12.96969697 83.96969697 -12.96969697 83.96969697 -10 81 C-11.07378906 81.20238281 -12.14757812 81.40476562 -13.25390625 81.61328125 C-26.2006532 83.81562558 -26.2006532 83.81562558 -30.25 81.125 C-35.75513595 75.80672245 -37.99482459 68.41149338 -39 61 C-38.979375 59.80375 -38.95875 58.6075 -38.9375 57.375 C-39.01258907 53.32019041 -40.38955684 50.69059891 -42 47 C-41.90976563 46.12601563 -41.81953125 45.25203125 -41.7265625 44.3515625 C-42.14242711 39.25425056 -44.9494364 36.01789133 -47.875 31.9375 C-48.9806953 30.36618128 -50.08239248 28.79204008 -51.1796875 27.21484375 C-51.67194824 26.52511475 -52.16420898 25.83538574 -52.67138672 25.12475586 C-54.10626815 22.83005297 -55.06625712 20.5352752 -56 18 C-55.41508789 17.68248779 -54.83017578 17.36497559 -54.22753906 17.0378418 C-51.56657216 15.59098722 -48.90827291 14.13929781 -46.25 12.6875 C-45.32960937 12.18798828 -44.40921875 11.68847656 -43.4609375 11.17382812 C-42.57148438 10.68720703 -41.68203125 10.20058594 -40.765625 9.69921875 C-39.94868164 9.25408936 -39.13173828 8.80895996 -38.29003906 8.3503418 C-35.96423851 7.05626516 -35.96423851 7.05626516 -33.95214844 5.33129883 C-32 4 -32 4 -28 4 C-27.7525 4.78375 -27.505 5.5675 -27.25 6.375 C-25.76274587 9.49823368 -25.06415729 9.63815232 -22 11 C-19.92963264 12.59337096 -17.97855202 14.29125053 -16 16 C-15.32904297 15.16855469 -15.32904297 15.16855469 -14.64453125 14.3203125 C-11.24878454 10.25120877 -8.99161084 7.88871762 -4 6 C-2.64837492 4.01231606 -1.31306433 2.0133653 0 0 Z M1 1 C-0.03013277 2.64821244 -1.03114628 4.31503702 -2 6 C-0.68 6 0.64 6 2 6 C2 4.35 2 2.7 2 1 C1.67 1 1.34 1 1 1 Z M15 3 C16 5 16 5 16 5 Z M27 3 C26.34 4.32 25.68 5.64 25 7 C25.99 7.33 26.98 7.66 28 8 C28 6.35 28 4.7 28 3 C27.67 3 27.34 3 27 3 Z M7 4 C7 4.66 7 5.32 7 6 C7.66 6 8.32 6 9 6 C9 5.34 9 4.68 9 4 C8.34 4 7.68 4 7 4 Z M-37 8.6875 C-42.50623683 12.15750009 -48.10312055 15.23126202 -54 18 C-53.36162902 21.73403302 -51.69311967 24.21302711 -49.5625 27.3125 C-48.49708984 28.87677734 -48.49708984 28.87677734 -47.41015625 30.47265625 C-47.0248877 31.03484863 -46.63961914 31.59704102 -46.24267578 32.17626953 C-43.96731387 35.51555313 -41.73724465 38.88511672 -39.5 42.25 C-38.63559713 43.54699529 -37.77102909 44.84388053 -36.90625 46.140625 C-36.2771875 47.08421875 -35.648125 48.0278125 -35 49 C-33.00165886 46.10723332 -33.00165886 46.10723332 -31.5625 43.3125 C-31.046875 42.549375 -30.53125 41.78625 -30 41 C-29.01 41 -28.02 41 -27 41 C-26.875 47.625 -26.875 47.625 -28 51 C-23.5428126 50.73781251 -21.48477302 50.42288711 -18.0625 47.4375 C-17.381875 46.633125 -16.70125 45.82875 -16 45 C-16.3609375 44.46632812 -16.721875 43.93265625 -17.09375 43.3828125 C-20.80979374 37.41649783 -21.65477729 32.96974047 -21 26 C-26.95759519 27.56577822 -30.37978293 28.77079757 -34 34 C-36.25 35.3125 -36.25 35.3125 -38 36 C-38 35.34 -38 34.68 -38 34 C-37.4225 33.938125 -36.845 33.87625 -36.25 33.8125 C-33.77421871 33.1600897 -33.77421871 33.1600897 -32.3125 30.625 C-29.82957852 27.80654859 -28.91067664 27.47788468 -25.4375 26.5 C-22.15760486 25.54358906 -21.19535394 25.22408246 -18.875 22.5625 C-17.88898185 19.67487543 -17.98539394 18.80761358 -19 16 C-20.30953521 14.25680164 -20.30953521 14.25680164 -21.9375 12.75 C-22.46214844 12.22921875 -22.98679687 11.7084375 -23.52734375 11.171875 C-24.94715835 9.792444 -24.94715835 9.792444 -27 10 C-27.66 8.35 -28.32 6.7 -29 5 C-32.22731288 5 -34.31583673 6.9750798 -37 8.6875 Z M29 6 C30 8 30 8 30 8 Z M13 7 C13 7.66 13 8.32 13 9 C11.02 9.99 11.02 9.99 9 11 C9 13.64 9 16.28 9 19 C9.99 19.495 9.99 19.495 11 20 C12.49821059 16.62902617 13 14.79557881 13 11 C14.5 9.25 14.5 9.25 16 8 C15.01 7.67 14.02 7.34 13 7 Z M18 7 C19 9 19 9 19 9 Z M-3 8 C-3.33 8.66 -3.66 9.32 -4 10 C-3.01 9.67 -2.02 9.34 -1 9 C-1.66 8.67 -2.32 8.34 -3 8 Z M25 9 C23.58422523 10.18424326 23.58422523 10.18424326 23.9375 13.5625 C23.958125 14.696875 23.97875 15.83125 24 17 C26.34973818 15.10244856 26.34973818 15.10244856 26.125 11.875 C26.063125 10.451875 26.063125 10.451875 26 9 C25.67 9 25.34 9 25 9 Z M27 9 C27 10.98 27 12.96 27 15 C27.33 15 27.66 15 28 15 C28 13.02 28 11.04 28 9 C27.67 9 27.34 9 27 9 Z M29 10 C30 12 30 12 30 12 Z M32 11 C32.66 11.66 33.32 12.32 34 13 C34 12.34 34 11.68 34 11 C33.34 11 32.68 11 32 11 Z M1 12 C1 13.65 1 15.3 1 17 C1.66 16.67 2.32 16.34 3 16 C2.67 14.68 2.34 13.36 2 12 C1.67 12 1.34 12 1 12 Z M14 12 C13.53248212 14.35599235 13.53248212 14.35599235 13.375 17.0625 C13.30023438 17.98160156 13.22546875 18.90070313 13.1484375 19.84765625 C13.09945312 20.55792969 13.05046875 21.26820312 13 22 C14.70840281 20.36587557 15.93453047 19.13093906 17 17 C17.039992 15.00039988 17.04346799 12.99952758 17 11 C15.7763932 10.9254644 15.7763932 10.9254644 14 12 Z M35 12 C35 12.66 35 13.32 35 14 C35.66 13.67 36.32 13.34 37 13 C36.34 12.67 35.68 12.34 35 12 Z M-9 13 C-8 16 -8 16 -8 16 Z M22 13 C21.34 13.66 20.68 14.32 20 15 C20.32198966 18.09926819 20.32198966 18.09926819 21 21 C23.34973818 19.10244856 23.34973818 19.10244856 23.125 15.875 C23.063125 14.451875 23.063125 14.451875 23 13 C22.67 13 22.34 13 22 13 Z M31 13 C28.92140082 15.26324284 28.92140082 15.26324284 28 18 C27.01 18.495 27.01 18.495 26 19 C26 20.98 26 22.96 26 25 C26.66 24.67 27.32 24.34 28 24 C27.67 29.61 27.34 35.22 27 41 C30.58616698 37.41383302 30.45356591 31.86834356 31.25 27 C31.44851563 25.88109375 31.64703125 24.7621875 31.8515625 23.609375 C32.11839844 22.00835937 32.11839844 22.00835937 32.390625 20.375 C32.55594727 19.39273438 32.72126953 18.41046875 32.89160156 17.3984375 C32.92737305 16.60695313 32.96314453 15.81546875 33 15 C32.34 14.34 31.68 13.68 31 13 Z M-11 15 C-11.33 15.99 -11.66 16.98 -12 18 C-11.34 18 -10.68 18 -10 18 C-10.33 17.01 -10.66 16.02 -11 15 Z M40 15 C40.33 16.65 40.66 18.3 41 20 C41.33 18.68 41.66 17.36 42 16 C41.34 15.67 40.68 15.34 40 15 Z M-15 16 C-14 18 -14 18 -14 18 Z M37 16 C36.67 17.32 36.34 18.64 36 20 C36.66 19.67 37.32 19.34 38 19 C37.67 18.01 37.34 17.02 37 16 Z M-7 17 C-6 20 -6 20 -6 20 Z M18 17 C18 17.66 18 18.32 18 19 C17.34 19 16.68 19 16 19 C15.67 19.99 15.34 20.98 15 22 C14.01 22.33 13.02 22.66 12 23 C12 22.34 12 21.68 12 21 C10.68 21 9.36 21 8 21 C7.34 20.01 6.68 19.02 6 18 C5.0925 18.309375 4.185 18.61875 3.25 18.9375 C-0.93353158 20.30519302 -4.33528205 21.12742232 -8.75 21.0625 C-9.54921875 21.05347656 -10.3484375 21.04445313 -11.171875 21.03515625 C-11.77515625 21.02355469 -12.3784375 21.01195312 -13 21 C-13.33 20.34 -13.66 19.68 -14 19 C-14.99 19 -15.98 19 -17 19 C-20.06401258 24.06228165 -21.20390517 29.11587928 -21 35 C-20.34 36.32 -19.68 37.64 -19 39 C-12.565 38.505 -12.565 38.505 -6 38 C-9.34905453 41.34905453 -11.49378854 41.89470285 -16 43 C-11.1206343 48.52994779 -5.05145461 52.9430988 2.14453125 54.8203125 C7.33574227 55.06225344 11.81118627 53.92278741 16.8125 52.625 C17.76576172 52.39039063 18.71902344 52.15578125 19.70117188 51.9140625 C24.47221686 50.79781183 24.47221686 50.79781183 29 49 C29 46.69 29 44.38 29 42 C28.34 42 27.68 42 27 42 C26.67 37.71 26.34 33.42 26 29 C25.34 29.33 24.68 29.66 24 30 C23.505 27.525 23.505 27.525 23 25 C22.34 25 21.68 25 21 25 C20.34 22.36 19.68 19.72 19 17 C18.67 17 18.34 17 18 17 Z M33 21 C30.20845578 29.56073561 29.85558339 38.04617004 30 47 C31.9451 44.08235 32.45276317 42.37462715 33 39 C33.99 39.66 34.98 40.32 36 41 C35.67 42.32 35.34 43.64 35 45 C37.64573501 42.77122275 37.64573501 42.77122275 40 40 C39.95502158 37.72476911 39.95502158 37.72476911 39 36 C35.95086772 34.98888907 35.95086772 34.98888907 33 36 C33.2165625 35.07767578 33.2165625 35.07767578 33.4375 34.13671875 C33.7159375 32.92435547 33.7159375 32.92435547 34 31.6875 C34.2784375 30.48673828 34.2784375 30.48673828 34.5625 29.26171875 C35.09495823 26.89304062 35.09495823 26.89304062 35 24 C35 23.01 35 22.02 35 21 C34.34 21 33.68 21 33 21 Z M41 21 C40.01 22.485 40.01 22.485 39 24 C39.99 24.495 39.99 24.495 41 25 C41.33 23.68 41.66 22.36 42 21 C41.67 21 41.34 21 41 21 Z M38 25 C38.33 26.32 38.66 27.64 39 29 C39 27.68 39 26.36 39 25 C38.67 25 38.34 25 38 25 Z M41 25 C42 27 42 27 42 27 Z M43 26 C42.67 26.99 42.34 27.98 42 29 C42.66 29.66 43.32 30.32 44 31 C44 29.35 44 27.7 44 26 C43.67 26 43.34 26 43 26 Z M36 27 C35.34 29.31 34.68 31.62 34 34 C34.99 33.34 35.98 32.68 37 32 C37.25030977 29.41619823 37.25030977 29.41619823 37 27 C36.67 27 36.34 27 36 27 Z M41 33 C39.90341064 36.28976808 40.20046862 37.71303767 41 41 C43.5654594 38.4345406 43.54046087 36.52313332 44 33 C43.01 33 42.02 33 41 33 Z M-13.125 39 C-13.84945312 39.185625 -14.57390625 39.37125 -15.3203125 39.5625 C-15.87460937 39.706875 -16.42890625 39.85125 -17 40 C-17 40.66 -17 41.32 -17 42 C-15.51882199 41.71872579 -14.04006751 41.42466268 -12.5625 41.125 C-11.73878906 40.96257812 -10.91507812 40.80015625 -10.06640625 40.6328125 C-9.38449219 40.42398438 -8.70257813 40.21515625 -8 40 C-7.67 39.34 -7.34 38.68 -7 38 C-9.21029533 38 -10.98667593 38.44817443 -13.125 39 Z M33 42 C32.67 43.65 32.34 45.3 32 47 C32.66 47 33.32 47 34 47 C34 45.35 34 43.7 34 42 C33.67 42 33.34 42 33 42 Z M-41 44 C-40.34 46.64 -39.68 49.28 -39 52 C-38.34 52 -37.68 52 -37 52 C-35.61108072 49.00068835 -35.61108072 49.00068835 -37.3125 46.3125 C-37.869375 45.549375 -38.42625 44.78625 -39 44 C-39.66 44 -40.32 44 -41 44 Z M-24 52 C-25.37389294 56.51291985 -24.06043397 60.87913206 -22 65 C-20.3745692 64.85904936 -18.74965949 64.71207913 -17.125 64.5625 C-16.22007812 64.48128906 -15.31515625 64.40007812 -14.3828125 64.31640625 C-11.98889139 64.13010715 -11.98889139 64.13010715 -10 63 C-7.66666667 63 -5.33333333 63 -3 63 C-2.34 62.67 -1.68 62.34 -1 62 C-0.59270772 59.67843403 -0.25561323 57.3431213 0 55 C-2.0992764 53.6583797 -4.2037832 52.32663161 -6.3125 51 C-6.90740234 50.6184375 -7.50230469 50.236875 -8.11523438 49.84375 C-14.45205174 45.87881399 -18.67464657 46.8599837 -24 52 Z M35 47 C36 49 36 49 36 49 Z " fill="#FFFFFF" transform="translate(273,57)"/>
<path d="M0 0 C6.61445399 0.02383587 11.00863575 5.45716142 15.625 9.625 C22.83913728 15.9075479 31.23697452 17.74183212 40.6015625 18.27734375 C46.75297239 18.98467641 52.6916098 20.90343604 58.625 22.625 C58.61339844 22.02171875 58.60179687 21.4184375 58.58984375 20.796875 C58.58082031 19.99765625 58.57179687 19.1984375 58.5625 18.375 C58.55089844 17.58609375 58.53929687 16.7971875 58.52734375 15.984375 C58.62114694 13.71808998 58.99258937 11.7961105 59.625 9.625 C54.57490405 8.68713918 54.57490405 8.68713918 49.625 9.625 C48.965 8.305 48.305 6.985 47.625 5.625 C48.5221875 5.78097656 49.419375 5.93695313 50.34375 6.09765625 C64.75423093 8.34557218 78.2578074 6.93722006 92.625 4.625 C89.32256694 7.92743306 85.17528914 7.27497776 80.625 7.625 C80.295 12.905 79.965 18.185 79.625 23.625 C80.615 23.295 81.605 22.965 82.625 22.625 C85.73956445 22.11173844 88.51983204 22.00396641 91.625 22.625 C96.3130757 26.72706624 96.92954613 30.19673544 97.4375 36.3125 C97.52680187 38.74916528 97.5904365 41.18694383 97.625 43.625 C97.65207031 44.54925781 97.67914063 45.47351563 97.70703125 46.42578125 C97.87255206 56.82349755 97.14601221 67.24355457 96.625 77.625 C96.295 77.625 95.965 77.625 95.625 77.625 C95.63285522 76.23547119 95.63285522 76.23547119 95.64086914 74.81787109 C95.65812994 71.31021475 95.67055481 67.80260493 95.67993164 64.29492188 C95.68489458 62.79003172 95.6916671 61.28514621 95.70043945 59.78027344 C96.78299299 42.71987675 96.78299299 42.71987675 93 26.75 C90.72149226 24.3069602 90.72149226 24.3069602 87.1875 24.1875 C84.28214955 24.54429742 81.48683506 25.03103423 78.625 25.625 C78.59800275 23.35423158 78.57860547 21.08337179 78.5625 18.8125 C78.55089844 17.54792969 78.53929687 16.28335938 78.52734375 14.98046875 C78.625 11.625 78.625 11.625 79.625 8.625 C70.715 9.615 70.715 9.615 61.625 10.625 C60.965 14.915 60.305 19.205 59.625 23.625 C55.05849573 23.19009483 50.65037353 22.69290188 46.1875 21.625 C43.03671893 20.87273739 40.04321016 20.46675691 36.8125 20.25 C24.99077543 19.11540724 17.33700732 14.44240941 8.625 6.625 C4.98843028 3.313962 4.98843028 3.313962 0.3125 2.375 C-0.574375 2.4575 -1.46125 2.54 -2.375 2.625 C-2.375 3.945 -2.375 5.265 -2.375 6.625 C-0.39652967 8.35395767 -0.39652967 8.35395767 2.125 9.75 C3.65424557 10.66093949 5.16296082 11.60969501 6.625 12.625 C6.625 13.285 6.625 13.945 6.625 14.625 C4.63169158 15.96831654 2.63115134 17.30094012 0.625 18.625 C-1.8044516 22.2691774 -1.53679575 24.33741272 -1.375 28.625 C-0.715 28.625 -0.055 28.625 0.625 28.625 C1.058125 29.12 1.49125 29.615 1.9375 30.125 C3.54123609 31.891246 3.54123609 31.891246 5.97265625 31.5859375 C8.97047614 31.63008801 10.19257777 32.2495198 12.75 33.75 C22.21709488 38.71098515 36.7909906 45.24736623 47.625 42.625 C52.30628599 40.7835143 56.44794004 38.40970664 60.625 35.625 C60.17697639 38.22108204 59.47368854 39.86808433 58.06640625 42.12890625 C51.17905665 53.34053772 51.28592814 65.1332251 50.92456055 78.02807617 C50.625 80.625 50.625 80.625 48.625 83.625 C48.78951058 79.40975344 48.98417211 75.19721158 49.20483398 70.98461914 C49.2756167 69.55660592 49.3386708 68.12818485 49.39331055 66.69946289 C49.75307842 57.45893861 50.94900155 49.82516041 55.625 41.625 C54.7175 42.12 53.81 42.615 52.875 43.125 C43.32642404 47.14532746 33.37423928 44.10807808 24.125 40.75 C23.06796875 40.38519531 22.0109375 40.02039063 20.921875 39.64453125 C16.68615984 38.16633116 12.6299795 36.64671582 8.625 34.625 C7.23747235 34.27747452 5.84091416 33.96396996 4.4375 33.6875 C2.5503125 33.1615625 2.5503125 33.1615625 0.625 32.625 C0.295 31.635 -0.035 30.645 -0.375 29.625 C-1.035 29.625 -1.695 29.625 -2.375 29.625 C-4.08117557 22.02322764 -4.08117557 22.02322764 -2.3984375 18.69140625 C-1.0625 17.0625 -1.0625 17.0625 1.625 14.625 C2.285 14.625 2.945 14.625 3.625 14.625 C3.625 13.965 3.625 13.305 3.625 12.625 C2.8825 12.3775 2.14 12.13 1.375 11.875 C-1.67698066 10.48773607 -3.3744481 9.31805063 -5.375 6.625 C-5.04803975 1.93856979 -4.65748571 0.86249735 0 0 Z " fill="#FFFFFF" transform="translate(80.375,111.375)"/>
<path d="M0 0 C0.66 0.33 1.32 0.66 2 1 C1.47599609 1.70576172 1.47599609 1.70576172 0.94140625 2.42578125 C0.48636719 3.04839844 0.03132813 3.67101563 -0.4375 4.3125 C-0.88996094 4.92738281 -1.34242187 5.54226562 -1.80859375 6.17578125 C-4.77844754 10.72306558 -4.43733983 15.77577693 -4 21 C-2.35958209 26.26660488 -0.10087369 29.342464 4 33 C3.66484375 33.48597656 3.3296875 33.97195312 2.984375 34.47265625 C1.55873059 38.13294171 1.96801652 41.59793427 2.25 45.4375 C2.28996094 46.18837891 2.32992187 46.93925781 2.37109375 47.71289062 C2.63521274 51.77104319 2.94651609 55.3959262 5 59 C8.05272465 59.89830839 8.05272465 59.89830839 11 60 C10.71125 59.46632812 10.4225 58.93265625 10.125 58.3828125 C5.76022767 49.62295692 6.27022584 42.21298778 9 33 C9.88300781 32.90203125 10.76601562 32.8040625 11.67578125 32.703125 C18.68619797 31.82964666 24.90048033 30.54179599 31.46875 27.953125 C37.21271593 25.79027363 42.85027432 24.68462945 49 25 C49 25.33 49 25.66 49 26 C47.92363281 26.24234375 46.84726563 26.4846875 45.73828125 26.734375 C44.262742 27.07169929 42.78750254 27.41033656 41.3125 27.75 C40.54099609 27.92756836 39.76949219 28.10513672 38.97460938 28.28808594 C34.23321029 29.4038246 29.62646644 30.71333262 25 32.25 C19.75233263 33.9398149 15.48850943 34.37210233 10 34 C8.36924089 47.01366437 8.36924089 47.01366437 13 59 C13.33 57.35 13.66 55.7 14 54 C14.33 54 14.66 54 15 54 C15.66 57.3 16.32 60.6 17 64 C21.571279 63.45144652 25.67435795 62.58255197 30 61 C32 63 32 63 32.125 66.125 C32.08375 67.07375 32.0425 68.0225 32 69 C30.93458984 69.50660156 30.93458984 69.50660156 29.84765625 70.0234375 C28.92855469 70.46945313 28.00945312 70.91546875 27.0625 71.375 C26.14597656 71.81585938 25.22945312 72.25671875 24.28515625 72.7109375 C21.87096198 73.79199162 21.87096198 73.79199162 21 76 C19.29211428 74.03593142 18.09251339 72.27558221 17.26171875 69.80078125 C16.38918763 67.23281051 15.60159511 65.19784112 14 63 C11.41117812 62.11009248 8.99388792 61.81929972 6.28125 61.4921875 C4 61 4 61 1.9375 58.4375 C-0.19060504 50.63444819 -1.59391369 40.78174107 1 33 C-0.17486215 31.22980776 -0.17486215 31.22980776 -1.875 29.5625 C-6.5708997 24.68094846 -6.38744701 19.69808615 -6.36328125 13.125 C-5.78841275 8.17989461 -3.55538438 3.55538438 0 0 Z M22.875 64.5 C21.96492188 64.7784375 21.05484375 65.056875 20.1171875 65.34375 C19.41851562 65.5603125 18.71984375 65.776875 18 66 C18.66 67.98 19.32 69.96 20 72 C24.3890815 71.48964169 27.33708062 70.47785723 31 68 C30.67 66.35 30.34 64.7 30 63 C27.41784939 63 25.34193416 63.74094334 22.875 64.5 Z " fill="#FFFFFF" transform="translate(103,38)"/>
<path d="M0 0 C15.571983 -0.10924759 31.12265625 -0.06336249 46.6875 0.4375 C48.5893103 0.49635376 48.5893103 0.49635376 50.52954102 0.55639648 C57.71615413 0.80549671 64.84766975 1.25219382 72 2 C72 2.33 72 2.66 72 3 C47.9941746 2.47729387 23.99440369 1.92024412 0 1 C0 0.67 0 0.34 0 0 Z " fill="#FFFFFF" transform="translate(135,24)"/>
<path d="M0 0 C-23.84316969 10.9389484 -23.84316969 10.9389484 -35.875 14.75 C-36.65786377 15.00152832 -37.44072754 15.25305664 -38.24731445 15.51220703 C-43.60497947 17.13167351 -43.60497947 17.13167351 -47 16 C-46.30664551 15.76925781 -45.61329102 15.53851563 -44.89892578 15.30078125 C-26.31367955 9.08335979 -26.31367955 9.08335979 -8.34619141 1.30078125 C-3.29739015 -1.09913005 -3.29739015 -1.09913005 0 0 Z " fill="#FFFFFF" transform="translate(62,54)"/>
<path d="M0 0 C-6.83951502 2.81719365 -13.73071244 5.35620261 -20.75 7.6875 C-21.65621094 7.99494141 -22.56242187 8.30238281 -23.49609375 8.61914062 C-27.9839077 10.11617053 -32.28334185 11.41432225 -37 12 C-39.0625 9.1875 -39.0625 9.1875 -41 6 C-40.67 5.01 -40.34 4.02 -40 3 C-37 7.75 -37 7.75 -37 10 C-30.75050557 8.10156867 -24.51502102 6.17551919 -18.30859375 4.140625 C-17.32068848 3.81908447 -16.3327832 3.49754395 -15.31494141 3.16625977 C-13.32176155 2.51650712 -11.33051552 1.86079046 -9.34130859 1.19897461 C-8.42043457 0.89999268 -7.49956055 0.60101074 -6.55078125 0.29296875 C-5.72231689 0.0199292 -4.89385254 -0.25311035 -4.0402832 -0.53442383 C-2 -1 -2 -1 0 0 Z " fill="#FFFFFF" transform="translate(61,111)"/>
<path d="M0 0 C-1.65 0.66 -3.3 1.32 -5 2 C-3.01438524 12.9264276 -0.82528217 23.47483733 2.94921875 33.93359375 C3.87303698 36.62949454 4.52301397 39.19574147 5 42 C-1.34337958 34.53503736 -3.21056618 22.75261347 -5.375 13.375 C-5.64461548 12.23877197 -5.64461548 12.23877197 -5.91967773 11.07958984 C-6.78756532 7.12563386 -7.3802211 3.87352374 -6 0 C-3.50907189 -1.24546405 -2.58919267 -0.7767578 0 0 Z " fill="#FFFFFF" transform="translate(15,72)"/>
<path d="M0 0 C0.66 0.66 1.32 1.32 2 2 C6.99487495 2.27408625 6.99487495 2.27408625 11.88671875 1.50390625 C14.59972528 0.85699712 17.15003912 0.792181 19.9375 0.75 C20.95714844 0.72421875 21.97679687 0.6984375 23.02734375 0.671875 C26.38813891 1.04284319 28.25483679 2.07889131 31 4 C30.67 4.66 30.34 5.32 30 6 C29.071875 5.2575 29.071875 5.2575 28.125 4.5 C23.40267677 2.23328485 18.09958859 2.21444611 13.01171875 3.50390625 C10.59060945 4.10095651 8.36673819 4.16890494 5.875 4.1875 C4.57175781 4.20876953 4.57175781 4.20876953 3.2421875 4.23046875 C1 4 1 4 -1 2 C-4.13545766 1.97864622 -4.13545766 1.97864622 -7.625 2.375 C-9.40777344 2.54128906 -9.40777344 2.54128906 -11.2265625 2.7109375 C-12.14179688 2.80632813 -13.05703125 2.90171875 -14 3 C-14 2.67 -14 2.34 -14 2 C-3.87744035 -0.46999277 -3.87744035 -0.46999277 0 0 Z " fill="#FFFFFF" transform="translate(174,34)"/>
<path d="M0 0 C4.20274695 6.30412042 5.03170604 14.57641299 6 22 C6.33 22.66 6.66 23.32 7 24 C7.01619227 25.74257981 6.96497633 27.48603427 6.87890625 29.2265625 C6.83056641 30.2578125 6.78222656 31.2890625 6.73242188 32.3515625 C6.67634766 33.43179688 6.62027344 34.51203125 6.5625 35.625 C6.51029297 36.71296875 6.45808594 37.8009375 6.40429688 38.921875 C6.27437225 41.6148581 6.13939838 44.30749336 6 47 C5.67 47 5.34 47 5 47 C4.98541748 46.351521 4.97083496 45.70304199 4.95581055 45.03491211 C4.63717784 32.31775157 3.86707205 20.41330078 1 8 C0.58455358 5.332601 0.27408419 2.68602504 0 0 Z " fill="#FFFFFF" transform="translate(290,136)"/>
<path d="M0 0 C-8.71865126 4.08686778 -19.16976112 3.30267228 -28.59570312 3.60546875 C-29.63275391 3.64285156 -30.66980469 3.68023437 -31.73828125 3.71875 C-32.67712158 3.74904297 -33.61596191 3.77933594 -34.58325195 3.81054688 C-37.14214054 3.91342514 -37.14214054 3.91342514 -40 5 C-42.33299825 5.03954234 -44.66708189 5.04401732 -47 5 C-47 4.67 -47 4.34 -47 4 C-39.94634771 2.17970264 -33.33021127 1.65550798 -26.0625 1.5 C-19.21504038 1.35292885 -12.81920118 0.98421028 -6.15405273 -0.67773438 C-3.79661241 -1.03042861 -2.25013762 -0.72863425 0 0 Z " fill="#FFFFFF" transform="translate(199,58)"/>
<path d="M0 0 C0.66 2.97 1.32 5.94 2 9 C-0.46278801 6.53721199 -0.99771255 4.29323018 -2 1 C-3.71896484 1.32484375 -3.71896484 1.32484375 -5.47265625 1.65625 C-7.00254447 1.93782452 -8.53249581 2.2190563 -10.0625 2.5 C-10.81466797 2.64308594 -11.56683594 2.78617187 -12.34179688 2.93359375 C-16.97740175 3.776431 -21.2889615 4.15015262 -26 4 C-25.67 6.31 -25.34 8.62 -25 11 C-26.9451 8.08235 -27.45276317 6.37462715 -28 3 C-24.27349728 2.29750297 -20.54350185 1.6156605 -16.8125 0.9375 C-15.75740234 0.73833984 -14.70230469 0.53917969 -13.61523438 0.33398438 C-12.08286133 0.05844727 -12.08286133 0.05844727 -10.51953125 -0.22265625 C-9.58214111 -0.39547119 -8.64475098 -0.56828613 -7.67895508 -0.74633789 C-4.87799099 -1.01155266 -2.71386651 -0.69084151 0 0 Z " fill="#FFFFFF" transform="translate(53,87)"/>
<path d="M0 0 C4.67299675 2.33649837 6.34417392 10.07317213 7.9453125 14.77734375 C8.60169227 17.28592159 9.06529165 19.40698881 9 22 C6.75 25.125 6.75 25.125 4 27 C3.34 27 2.68 27 2 27 C2 27.66 2 28.32 2 29 C0.35 29.66 -1.3 30.32 -3 31 C-2.01 29.515 -2.01 29.515 -1 28 C-0.34 28 0.32 28 1 28 C1 27.34 1 26.68 1 26 C2.95927063 24.2856382 4.95880212 22.61594832 7 21 C6.40266451 18.95632428 5.79680343 16.91513957 5.1875 14.875 C4.85105469 13.73804687 4.51460938 12.60109375 4.16796875 11.4296875 C3.03473515 8.1019982 1.58360011 5.13089993 0 2 C0 1.34 0 0.68 0 0 Z " fill="#FFFFFF" transform="translate(85,66)"/>
<path d="M0 0 C0.33 0 0.66 0 1 0 C1.12586037 7.42576205 1.12586037 7.42576205 0.5 10.28125 C-0.0304055 13.16532989 -0.11332892 15.80749288 -0.09765625 18.73828125 C-0.09443359 19.80498047 -0.09121094 20.87167969 -0.08789062 21.97070312 C-0.07951172 23.07349609 -0.07113281 24.17628906 -0.0625 25.3125 C-0.05798828 26.43462891 -0.05347656 27.55675781 -0.04882812 28.71289062 C-0.03707313 31.4753151 -0.02064077 34.23762998 0 37 C-2.50874885 34.49125115 -2.25670665 33.66136559 -2.265625 30.1953125 C-2.26949219 29.22408447 -2.27335938 28.25285645 -2.27734375 27.25219727 C-2.26832031 26.22022217 -2.25929687 25.18824707 -2.25 24.125 C-2.24613281 23.084646 -2.24226562 22.04429199 -2.23828125 20.97241211 C-2.15758199 13.79970532 -1.68480125 6.99493376 0 0 Z " fill="#FFFFFF" transform="translate(161,152)"/>
<path d="M0 0 C0.88333008 0.00193359 1.76666016 0.00386719 2.67675781 0.00585938 C9.65669433 0.05159613 16.55339464 0.41512792 23.5 1.125 C23.5 1.455 23.5 1.785 23.5 2.125 C10.96 2.125 -1.58 2.125 -14.5 2.125 C-14.5 1.795 -14.5 1.465 -14.5 1.125 C-9.6771615 -0.12024109 -4.94347013 -0.02593053 0 0 Z " fill="#FFFFFF" transform="translate(168.5,47.875)"/>
<path d="M0 0 C0 0.99 0 1.98 0 3 C-2.4566947 4.00419637 -4.91518353 5.00350501 -7.375 6 C-8.42300781 6.42925781 -8.42300781 6.42925781 -9.4921875 6.8671875 C-14.7734375 9 -14.7734375 9 -17 9 C-17.226875 9.61875 -17.45375 10.2375 -17.6875 10.875 C-19.37929835 13.61410209 -20.99244161 14.05024472 -24 15 C-19.24178302 7.47894735 -12.60764705 5.4026184 -4.60546875 2.3828125 C-1.23501668 1.3706837 -1.23501668 1.3706837 0 0 Z " fill="#FFFFFF" transform="translate(76,59)"/>
<path d="M0 0 C0.66 0.33 1.32 0.66 2 1 C-2.11118919 4.52387645 -5.46508112 7 -11 7 C-11.23460937 7.63421875 -11.46921875 8.2684375 -11.7109375 8.921875 C-13 11 -13 11 -15.1640625 11.828125 C-15.97617187 11.96734375 -16.78828125 12.1065625 -17.625 12.25 C-18.44226562 12.39953125 -19.25953125 12.5490625 -20.1015625 12.703125 C-21.04128906 12.85007812 -21.04128906 12.85007812 -22 13 C-20.35 11.35 -18.7 9.7 -17 8 C-16.67 8.66 -16.34 9.32 -16 10 C-15.54625 9.4225 -15.0925 8.845 -14.625 8.25 C-11.40405991 5.48919421 -8.20308566 4.35184975 -4.2421875 2.9296875 C-1.85060234 2.10550354 -1.85060234 2.10550354 0 0 Z " fill="#FFFFFF" transform="translate(71,53)"/>
<path d="M0 0 C3.31889905 0.27657492 4.76400263 0.78366908 7.25 3.0625 C9.42144991 6.70743378 10.39003403 9.74282004 10 14 C8.91946526 16.37717643 7.68341213 17.95950045 6 20 C5.34 19.67 4.68 19.34 4 19 C5.051875 17.7625 5.051875 17.7625 6.125 16.5 C8.15763538 12.7437385 8.15763538 12.7437385 7.625 8.875 C6.29848534 4.64471238 3.86456253 3.10030572 0 1 C0 0.67 0 0.34 0 0 Z " fill="#FFFFFF" transform="translate(219,30)"/>
<path d="M0 0 C3.26944469 2.85965054 3.88918811 5.06201772 4.28125 9.3046875 C3.71543746 14.72705763 0.70830831 19.36055011 -2 24 C-3 21 -3 21 -1.96875 18.765625 C-1.4840625 17.93546875 -0.999375 17.1053125 -0.5 16.25 C1.90214269 11.69787325 2.42557918 9.09135421 1 4 C0.7215625 2.7934375 0.7215625 2.7934375 0.4375 1.5625 C0.293125 1.046875 0.14875 0.53125 0 0 Z " fill="#FFFFFF" transform="translate(187,83)"/>
<path d="M0 0 C1.875 1.25 1.875 1.25 3 3 C2.67 4.32 2.34 5.64 2 7 C-0.97 7 -3.94 7 -7 7 C-7.33 5.68 -7.66 4.36 -8 3 C-5.89021791 -0.28188325 -3.7331246 -0.55996869 0 0 Z M-4 1 C-5.70532323 2.94009522 -5.70532323 2.94009522 -7 5 C-4.07175348 5.97608217 -2.04386724 6.08226668 1 6 C1 5.01 1 4.02 1 3 C0.34 2.34 -0.32 1.68 -1 1 C-1.99 1 -2.98 1 -4 1 Z " fill="#FFFFFF" transform="translate(131,82)"/>
<path d="M0 0 C0.66 0.33 1.32 0.66 2 1 C-4.98462399 7.582052 -4.98462399 7.582052 -10 8 C-10.99 8.33 -11.98 8.66 -13 9 C-11.88820837 5.66462511 -10.52588702 4.36292656 -8 2 C-7.01 3.485 -7.01 3.485 -6 5 C-5.566875 4.54625 -5.13375 4.0925 -4.6875 3.625 C-3 2 -3 2 0 0 Z " fill="#FFFFFF" transform="translate(34,70)"/>
<path d="M0 0 C0 3 0 3 -1.3203125 4.5703125 C-5.28590912 7.9865624 -7.73286466 9.26505088 -13 10 C-14.43637698 11.95163118 -14.43637698 11.95163118 -15 14 C-15.99 13.67 -16.98 13.34 -18 13 C-12.60573477 8.23297491 -12.60573477 8.23297491 -9.5625 7.0625 C-5.75292099 5.48291846 -3.01672863 2.7646101 0 0 Z " fill="#FFFFFF" transform="translate(75,72)"/>
<path d="M0 0 C0.66 0.33 1.32 0.66 2 1 C-1.49024163 4.05396143 -4.94648364 6.07496243 -9.1328125 7.97265625 C-11.08676714 8.93056112 -11.08676714 8.93056112 -12.60546875 10.640625 C-13.06566406 11.08921875 -13.52585938 11.5378125 -14 12 C-16.1875 11.6875 -16.1875 11.6875 -18 11 C-17.21625 10.54625 -16.4325 10.0925 -15.625 9.625 C-12.96301969 8.11571258 -12.96301969 8.11571258 -11 6 C-9.88625 5.525625 -8.7725 5.05125 -7.625 4.5625 C-4.62392972 3.26893522 -2.47254718 2.07693963 0 0 Z " fill="#FFFFFF" transform="translate(248,74)"/>
<path d="M0 0 C-0.33 0.66 -0.66 1.32 -1 2 C-3.32375692 2.39460023 -5.6593935 2.72230092 -8 3 C-8.58652344 3.17273437 -9.17304688 3.34546875 -9.77734375 3.5234375 C-12.95072063 4.2038452 -16.00970592 4.09250272 -19.25 4.0625 C-20.51328125 4.05347656 -21.7765625 4.04445313 -23.078125 4.03515625 C-24.04234375 4.02355469 -25.0065625 4.01195312 -26 4 C-26 3.67 -26 3.34 -26 3 C-25.14277344 2.95101562 -24.28554687 2.90203125 -23.40234375 2.8515625 C-16.13606882 2.47969226 -16.13606882 2.47969226 -9.0625 0.9375 C-5.88040319 -0.03661127 -3.3066938 -0.16130214 0 0 Z " fill="#FFFFFF" transform="translate(171,56)"/>
<path d="M0 0 C9.40228594 -0.1170409 18.62895894 0.11504503 28 1 C28 1.33 28 1.66 28 2 C18.58786748 2.12873737 9.37912587 1.79822348 0 1 C0 0.67 0 0.34 0 0 Z " fill="#FFFFFF" transform="translate(126,37)"/>
<path d="M0 0 C3.375 -0.1875 3.375 -0.1875 7 0 C9 3 9 3 8.625 5.1875 C8.41875 5.785625 8.2125 6.38375 8 7 C5.66705225 7.04241723 3.33297433 7.04092937 1 7 C0 6 0 6 -0.0625 2.9375 C-0.041875 1.968125 -0.02125 0.99875 0 0 Z M1 1 C1.33 2.65 1.66 4.3 2 6 C3.65 6 5.3 6 7 6 C7.33 5.34 7.66 4.68 8 4 C7.34 3.01 6.68 2.02 6 1 C3.41619823 0.74969023 3.41619823 0.74969023 1 1 Z " fill="#FFFFFF" transform="translate(259,80)"/>
<path d="M0 0 C0.33 1.98 0.66 3.96 1 6 C-1 3 -1 3 -1 1 C-1.75925781 1.44472656 -2.51851562 1.88945313 -3.30078125 2.34765625 C-4.29464844 2.91355469 -5.28851563 3.47945312 -6.3125 4.0625 C-7.79169922 4.91521484 -7.79169922 4.91521484 -9.30078125 5.78515625 C-12 7 -12 7 -15 6 C-13.25595212 4.98965502 -11.50450439 3.99207578 -9.75 3 C-8.77546875 2.443125 -7.8009375 1.88625 -6.796875 1.3125 C-4 0 -4 0 0 0 Z " fill="#FFFFFF" transform="translate(77,46)"/>
<path d="M0 0 C0.99 0.33 1.98 0.66 3 1 C-9.48519362 6.55580866 -9.48519362 6.55580866 -16 7 C-13.4965733 4.4965733 -11.36472382 4.00110861 -8 2.9375 C-3.91553278 1.67634027 -3.91553278 1.67634027 0 0 Z " fill="#FFFFFF" transform="translate(33,81)"/>
<path d="M0 0 C1.57207688 0.45100566 3.11922603 0.98795719 4.65625 1.546875 C1.13307119 2.67932533 1.13307119 2.67932533 -1.03125 2.078125 C-4.24266905 1.34036657 -7.30373602 1.45391191 -10.59375 1.484375 C-12.48867187 1.49791016 -12.48867187 1.49791016 -14.421875 1.51171875 C-15.38609375 1.52332031 -16.3503125 1.53492187 -17.34375 1.546875 C-12.33419469 -1.79282854 -5.81373026 -1.12398785 0 0 Z " fill="#FFFFFF" transform="translate(168.34375,65.453125)"/>
<path d="M0 0 C0.66 0.33 1.32 0.66 2 1 C-6.14970999 7.43078852 -6.14970999 7.43078852 -11 9 C-11.99 9.495 -11.99 9.495 -13 10 C-12.3125 8.125 -12.3125 8.125 -11 6 C-9.35965807 5.27095914 -7.68698082 4.61344757 -6 4 C-3.97681922 2.70211044 -1.97133986 1.37535339 0 0 Z " fill="#FFFFFF" transform="translate(80,82)"/>
<path d="M0 0 C7.26 0 14.52 0 22 0 C22 0.33 22 0.66 22 1 C14.74 1 7.48 1 0 1 C0 0.67 0 0.34 0 0 Z " fill="#FFFFFF" transform="translate(113,49)"/>
<path d="M0 0 C0 0.99 0 1.98 0 3 C-1.65 3 -3.3 3 -5 3 C-5.66 4.65 -6.32 6.3 -7 8 C-7.99 7.67 -8.98 7.34 -10 7 C-9.525625 6.54625 -9.05125 6.0925 -8.5625 5.625 C-6.90972192 4.06741796 -6.90972192 4.06741796 -6 2 C-4.02111039 1.27306096 -2.02045442 0.60183749 0 0 Z " fill="#FFFFFF" transform="translate(236,74)"/>
<path d="M0 0 C0 0.33 0 0.66 0 1 C-7.425 2.485 -7.425 2.485 -15 4 C-10.51360704 -0.48639296 -6.13164176 -0.14599147 0 0 Z " fill="#FFFFFF" transform="translate(131,58)"/>
<path d="M0 0 C0.33 0 0.66 0 1 0 C0.67 4.95 0.34 9.9 0 15 C-0.66 14.67 -1.32 14.34 -2 14 C-1.34 9.38 -0.68 4.76 0 0 Z " fill="#FFFFFF" transform="translate(256,168)"/>
<path d="M0 0 C1.95803507 -0.05389087 3.91648909 -0.09274217 5.875 -0.125 C7.51082031 -0.15980469 7.51082031 -0.15980469 9.1796875 -0.1953125 C12 0 12 0 14 2 C7.07 1.505 7.07 1.505 0 1 C0 0.67 0 0.34 0 0 Z " fill="#FFFFFF" transform="translate(131,57)"/>
<path d="M0 0 C0.66 0.33 1.32 0.66 2 1 C2 1.66 2 2.32 2 3 C3.32 3.33 4.64 3.66 6 4 C3.36 4.33 0.72 4.66 -2 5 C-1.34 3.35 -0.68 1.7 0 0 Z " fill="#FFFFFF" transform="translate(31,104)"/>
<path d="M0 0 C1 2 1 2 0.44140625 4.1640625 C0.15136719 4.97617188 -0.13867188 5.78828125 -0.4375 6.625 C-0.72496094 7.44226563 -1.01242188 8.25953125 -1.30859375 9.1015625 C-1.53675781 9.72804688 -1.76492187 10.35453125 -2 11 C-2.33 11 -2.66 11 -3 11 C-3.32613618 6.32538149 -2.70582788 3.83325617 0 0 Z " fill="#FFFFFF" transform="translate(121,81)"/>
<path d="M0 0 C0.66 0.33 1.32 0.66 2 1 C-0.31 2.65 -2.62 4.3 -5 6 C-5.66 5.67 -6.32 5.34 -7 5 C-4.69 3.35 -2.38 1.7 0 0 Z " fill="#FFFFFF" transform="translate(133,71)"/>
<path d="M0 0 C-6.96428571 3.34821429 -6.96428571 3.34821429 -11 2 C-9.54494642 1.47007308 -8.08581873 0.9513211 -6.625 0.4375 C-5.81289062 0.14746094 -5.00078125 -0.14257812 -4.1640625 -0.44140625 C-2 -1 -2 -1 0 0 Z " fill="#FFFFFF" transform="translate(223,51)"/>
<path d="M0 0 C1.43836751 0.11458693 2.87570966 0.24209116 4.3125 0.375 C5.51326172 0.47941406 5.51326172 0.47941406 6.73828125 0.5859375 C9 1 9 1 12 3 C3.96428571 2.19642857 3.96428571 2.19642857 0 0 Z " fill="#FFFFFF" transform="translate(207,27)"/>
<path d="M0 0 C3.96 0.33 7.92 0.66 12 1 C12 1.33 12 1.66 12 2 C7.83861737 2.08159574 4.0527516 1.98248524 0 1 C0 0.67 0 0.34 0 0 Z " fill="#FFFFFF" transform="translate(142,49)"/>
<path d="M0 0 C0.66 0.33 1.32 0.66 2 1 C-0.3125 3.0625 -0.3125 3.0625 -3 5 C-3.99 4.67 -4.98 4.34 -6 4 C-4.02 2.68 -2.04 1.36 0 0 Z " fill="#FFFFFF" transform="translate(179,111)"/>
<path d="M0 0 C0.66 0.33 1.32 0.66 2 1 C0.02 2.32 -1.96 3.64 -4 5 C-4.66 4.67 -5.32 4.34 -6 4 C-4.02 2.68 -2.04 1.36 0 0 Z " fill="#FFFFFF" transform="translate(70,103)"/>
<path d="M0 0 C1.85776765 3.13498292 2.20140476 5.37471432 2 9 C1.01 8.67 0.02 8.34 -1 8 C-0.34 8 0.32 8 1 8 C0.67 5.36 0.34 2.72 0 0 Z " fill="#FFFFFF" transform="translate(55,96)"/>
<path d="M0 0 C0.33 0.99 0.66 1.98 1 3 C2.98 2.34 4.96 1.68 7 1 C6.01 2.485 6.01 2.485 5 4 C2.375 4.1875 2.375 4.1875 0 4 C0 2.68 0 1.36 0 0 Z " fill="#FFFFFF" transform="translate(60,91)"/>
<path d="M0 0 C0.66 0.33 1.32 0.66 2 1 C-0.8125 2.5625 -0.8125 2.5625 -4 4 C-4.99 3.67 -5.98 3.34 -7 3 C-4.69631264 1.93347808 -2.35981813 0.93578995 0 0 Z " fill="#FFFFFF" transform="translate(50,74)"/>
<path d="M0 0 C2.52259061 1.97420135 2.9929808 2.96745642 3.6875 6.1875 C3.790625 7.115625 3.89375 8.04375 4 9 C1.3144406 6.3144406 0.93950026 3.62378672 0 0 Z " fill="#FFFFFF" transform="translate(81,57)"/>
<path d="M0 0 C0.66 0.33 1.32 0.66 2 1 C0.02 2.32 -1.96 3.64 -4 5 C-4.66 4.67 -5.32 4.34 -6 4 C-4.02 2.68 -2.04 1.36 0 0 Z " fill="#FFFFFF" transform="translate(113,31)"/>
<path d="M0 0 C0 0.33 0 0.66 0 1 C-3.63 1.33 -7.26 1.66 -11 2 C-6.78370866 -0.10814567 -4.60209225 -0.17700355 0 0 Z " fill="#FFFFFF" transform="translate(135,25)"/>
<path d="M0 0 C1.32 0 2.64 0 4 0 C3.67 0.66 3.34 1.32 3 2 C2.01 2.33 1.02 2.66 0 3 C-0.66 3.66 -1.32 4.32 -2 5 C-1.125 1.125 -1.125 1.125 0 0 Z " fill="#FFFFFF" transform="translate(17,74)"/>
<path d="M0 0 C0.95904856 3.83619425 0.91892116 5.32431536 0 9 C-0.33 9 -0.66 9 -1 9 C-0.67 6.03 -0.34 3.06 0 0 Z " fill="#FFFFFF" transform="translate(258,159)"/>
<path d="M0 0 C3.3 0 6.6 0 10 0 C10 0.33 10 0.66 10 1 C6.7 1 3.4 1 0 1 C0 0.67 0 0.34 0 0 Z " fill="#FFFFFF" transform="translate(37,106)"/>
<path d="M0 0 C0 0.99 0 1.98 0 3 C-1.65 3.66 -3.3 4.32 -5 5 C-4 2 -4 2 -1.9375 0.8125 C-1.298125 0.544375 -0.65875 0.27625 0 0 Z " fill="#FFFFFF" transform="translate(242,69)"/>
<path d="M0 0 C-3.13498292 1.85776765 -5.37471432 2.20140476 -9 2 C-5.86501708 0.14223235 -3.62528568 -0.20140476 0 0 Z " fill="#FFFFFF" transform="translate(208,55)"/>
<path d="M0 0 C3.3 0 6.6 0 10 0 C10 0.33 10 0.66 10 1 C6.7 1 3.4 1 0 1 C0 0.67 0 0.34 0 0 Z " fill="#FFFFFF" transform="translate(116,38)"/>
<path d="M0 0 C-1.8125 1.0625 -1.8125 1.0625 -4 2 C-4.99 1.67 -5.98 1.34 -7 1 C-3.375 -1.125 -3.375 -1.125 0 0 Z " fill="#FFFFFF" transform="translate(43,79)"/>
<path d="M0 0 C-2.35438733 1.42944945 -3.48032433 2.08661261 -6.25 1.625 C-6.8275 1.41875 -7.405 1.2125 -8 1 C-5.07175348 0.02391783 -3.04386724 -0.08226668 0 0 Z " fill="#FFFFFF" transform="translate(145,68)"/>
<path d="M0 0 C0.99 0.99 1.98 1.98 3 3 C2.67 3.99 2.34 4.98 2 6 C1.34 4.02 0.68 2.04 0 0 Z " fill="#FFFFFF" transform="translate(28,98)"/>
<path d="M0 0 C1.32 0.99 2.64 1.98 4 3 C3.67 3.66 3.34 4.32 3 5 C1.5 3.625 1.5 3.625 0 2 C0 1.34 0 0.68 0 0 Z " fill="#FFFFFF" transform="translate(180,73)"/>
<path d="M0 0 C2.31 0 4.62 0 7 0 C7 0.33 7 0.66 7 1 C4.69 1 2.38 1 0 1 C0 0.67 0 0.34 0 0 Z " fill="#FFFFFF" transform="translate(47,105)"/>
<path d="M0 0 C0.33 0.66 0.66 1.32 1 2 C0.34 2 -0.32 2 -1 2 C-1 2.66 -1 3.32 -1 4 C-1.66 3.67 -2.32 3.34 -3 3 C-2.01 2.01 -1.02 1.02 0 0 Z " fill="#FFFFFF" transform="translate(125,77)"/>
<path d="M0 0 C0.99 0.99 1.98 1.98 3 3 C2.67 3.66 2.34 4.32 2 5 C1.34 3.35 0.68 1.7 0 0 Z " fill="#FFFFFF" transform="translate(78,52)"/>
<path d="M0 0 C2.31 0 4.62 0 7 0 C7 0.33 7 0.66 7 1 C4.69 1 2.38 1 0 1 C0 0.67 0 0.34 0 0 Z " fill="#FFFFFF" transform="translate(135,48)"/>
<path d="M0 0 C1.98 0.99 1.98 0.99 4 2 C3.01 2 2.02 2 1 2 C0.67 1.34 0.34 0.68 0 0 Z " fill="#FFFFFF" transform="translate(176,70)"/>
<path d="M0 0 C1.98 0 3.96 0 6 0 C6 0.33 6 0.66 6 1 C4.02 1 2.04 1 0 1 C0 0.67 0 0.34 0 0 Z " fill="#FFFFFF" transform="translate(145,67)"/>
<path d="M0 0 C1.98 0 3.96 0 6 0 C6 0.33 6 0.66 6 1 C4.02 1 2.04 1 0 1 C0 0.67 0 0.34 0 0 Z " fill="#FFFFFF" transform="translate(154,37)"/>
<path d="M0 0 C0.99 0.33 1.98 0.66 3 1 C1.35 1.33 -0.3 1.66 -2 2 C-1.34 1.34 -0.68 0.68 0 0 Z " fill="#FFFFFF" transform="translate(121,27)"/>
<path d="M0 0 C0.99 0.99 1.98 1.98 3 3 C2.01 2.67 1.02 2.34 0 2 C0 1.34 0 0.68 0 0 Z " fill="#FFFFFF" transform="translate(125,114)"/>
<path d="M0 0 C0.66 0.33 1.32 0.66 2 1 C0.68 1.33 -0.64 1.66 -2 2 C-1.34 1.34 -0.68 0.68 0 0 Z " fill="#FFFFFF" transform="translate(79,98)"/>
<path d="M0 0 C0.66 0.33 1.32 0.66 2 1 C0.68 1.33 -0.64 1.66 -2 2 C-1.34 1.34 -0.68 0.68 0 0 Z " fill="#FFFFFF" transform="translate(117,29)"/>
<path d="M0 0 C0.66 0.33 1.32 0.66 2 1 C1.01 1 0.02 1 -1 1 C-0.67 0.67 -0.34 0.34 0 0 Z " fill="#FFFFFF" transform="translate(62,108)"/>
<path d="M0 0 C0 3 0 3 0 3 Z " fill="#FFFFFF" transform="translate(183,107)"/>
<path d="M0 0 C0.66 0.33 1.32 0.66 2 1 C1.01 1 0.02 1 -1 1 C-0.67 0.67 -0.34 0.34 0 0 Z " fill="#FFFFFF" transform="translate(75,100)"/>
<path d="M0 0 C0.99 0.495 0.99 0.495 2 1 C1.67 1.66 1.34 2.32 1 3 C0.67 2.01 0.34 1.02 0 0 Z " fill="#FFFFFF" transform="translate(184,78)"/>
<path d="M0 0 C0.99 0.33 1.98 0.66 3 1 C2.01 1 1.02 1 0 1 C0 0.67 0 0.34 0 0 Z " fill="#FFFFFF" transform="translate(173,68)"/>
<path d="M0 0 C4 1 4 1 4 1 Z " fill="#FFFFFF" transform="translate(208,54)"/>
<path d="" fill="#FFFFFF" transform="translate(0,0)"/>
<path d="M0 0 C0.99 0.495 0.99 0.495 2 1 C1.01 1.495 1.01 1.495 0 2 C0 1.34 0 0.68 0 0 Z " fill="#FFFFFF" transform="translate(262,82)"/>
<path d="M0 0 C0.99 0.495 0.99 0.495 2 1 C1.01 1.495 1.01 1.495 0 2 C0 1.34 0 0.68 0 0 Z " fill="#FFFFFF" transform="translate(105,36)"/>
<path d="M0 0 C2 1 2 1 2 1 Z " fill="#FFFFFF" transform="translate(301,158)"/>
<path d="M0 0 C2 1 2 1 2 1 Z " fill="#FFFFFF" transform="translate(72,102)"/>
<path d="" fill="#FFFFFF" transform="translate(0,0)"/>
<path d="M0 0 C2 1 2 1 2 1 Z " fill="#FFFFFF" transform="translate(135,70)"/>
<path d="" fill="#FFFFFF" transform="translate(0,0)"/>
<path d="" fill="#FFFFFF" transform="translate(0,0)"/>
<path d="" fill="#FFFFFF" transform="translate(0,0)"/>
<path d="" fill="#FFFFFF" transform="translate(0,0)"/>
<path d="" fill="#FFFFFF" transform="translate(0,0)"/>
</svg>
