<?xml version="1.0" encoding="UTF-8"?>
<svg version="1.1" xmlns="http://www.w3.org/2000/svg" width="350" height="230">
<path d="M0 0 C0.33 0 0.66 0 1 0 C1 1.98 1 3.96 1 6 C2.98 6 4.96 6 7 6 C7 6.33 7 6.66 7 7 C5.02 7 3.04 7 1 7 C1 9.97 1 12.94 1 16 C0.67 16 0.34 16 0 16 C0 13.03 0 10.06 0 7 C-0.66644531 7.144375 -1.33289063 7.28875 -2.01953125 7.4375 C-12.3690221 9.52187298 -21.97525338 9.1188288 -32.4453125 8.12109375 C-33.28835937 8.08113281 -34.13140625 8.04117188 -35 8 C-35.33 8.33 -35.66 8.66 -36 9 C-37.99958364 9.04080783 -40.00045254 9.04254356 -42 9 C-42.495 7.515 -42.495 7.515 -43 6 C-53.47593966 8.15681111 -63.11829706 11.99242048 -73 16 C-73.33 19.63 -73.66 23.26 -74 27 C-74.33 27 -74.66 27 -75 27 C-75.33 23.7 -75.66 20.4 -76 17 C-84.19609821 20.87383973 -91.93191906 25.02294521 -99.46728516 30.06616211 C-101.98048995 31.74248955 -104.11514434 33.03838145 -107 34 C-107.495 34.99 -107.495 34.99 -108 36 C-120.31197433 39.03121557 -133.43447816 38.21289168 -146 38 C-145.67 37.34 -145.34 36.68 -145 36 C-144.11646851 36.00785522 -144.11646851 36.00785522 -143.21508789 36.01586914 C-140.49756983 36.03689803 -137.78006899 36.04974146 -135.0625 36.0625 C-133.67321289 36.07506836 -133.67321289 36.07506836 -132.25585938 36.08789062 C-126.41699697 36.10837786 -120.79086947 35.75429787 -115 35 C-115 33.35 -115 31.7 -115 30 C-112.35214421 29.92434698 -110.25794702 29.91446087 -107.7265625 30.75390625 C-103.80474821 31.10788089 -101.61352208 29.19093017 -98.5625 27 C-80.95588452 15 -80.95588452 15 -75 15 C-74.67 13.68 -74.34 12.36 -74 11 C-74 11.99 -74 12.98 -74 14 C-73.42145264 13.76812988 -72.84290527 13.53625977 -72.24682617 13.29736328 C-69.56446276 12.22932842 -66.87613102 11.17715215 -64.1875 10.125 C-63.27806641 9.76019531 -62.36863281 9.39539063 -61.43164062 9.01953125 C-55.69376956 6.78926334 -50.20179575 5.30746334 -44.1105957 4.39013672 C-42.02117402 4.21010684 -42.02117402 4.21010684 -41 3 C-39.00041636 2.95919217 -36.99954746 2.95745644 -35 3 C-34.505 3.99 -34.505 3.99 -34 5 C-22.56776163 7.75598604 -11.5736601 7.09665815 0 6 C0 4.02 0 2.04 0 0 Z " fill="#FFFFFF" transform="translate(146,149)"/>
<path d="M0 0 C1.37865234 0.00483398 1.37865234 0.00483398 2.78515625 0.00976562 C3.69652344 -0.00634766 4.60789062 -0.02246094 5.546875 -0.0390625 C6.42730469 -0.03970703 7.30773437 -0.04035156 8.21484375 -0.04101562 C9.42116455 -0.04548706 9.42116455 -0.04548706 10.65185547 -0.05004883 C13.47916121 0.41607455 14.83598601 1.3703243 16.91015625 3.32226562 C17.99015512 6.56226223 17.83145053 7.70590097 17.09765625 10.94726562 C16.92621094 11.74390625 16.75476563 12.54054688 16.578125 13.36132812 C15.91015625 15.32226562 15.91015625 15.32226562 13.91015625 16.32226562 C14.57015625 17.06476562 15.23015625 17.80726562 15.91015625 18.57226562 C17.91015625 21.32226562 17.91015625 21.32226562 17.91015625 25.32226562 C21.87015625 25.32226562 25.83015625 25.32226562 29.91015625 25.32226562 C29.91015625 25.65226562 29.91015625 25.98226562 29.91015625 26.32226562 C15.72015625 26.65226562 1.53015625 26.98226562 -13.08984375 27.32226562 C-13.08984375 26.66226563 -13.08984375 26.00226562 -13.08984375 25.32226562 C-8.46984375 25.32226562 -3.84984375 25.32226562 0.91015625 25.32226562 C1.57015625 23.67226563 2.23015625 22.02226563 2.91015625 20.32226562 C5.03515625 18.00976562 5.03515625 18.00976562 6.91015625 16.32226562 C6.10578125 15.70351563 5.30140625 15.08476562 4.47265625 14.44726562 C1.91015625 12.32226562 1.91015625 12.32226562 0.91015625 10.32226562 C-1.1415978 9.67075466 -1.1415978 9.67075466 -3.52734375 9.25976562 C-7.92186475 8.40625513 -7.92186475 8.40625513 -10.08984375 7.32226562 C-8.97393436 0.25483952 -6.56671779 0.05303517 0 0 Z M-8.02734375 2.69726562 C-9.2722602 4.27766748 -9.2722602 4.27766748 -9.08984375 6.32226562 C-5.68789505 8.41577252 -3.03711963 8.50168726 0.91015625 8.32226562 C1.29148924 6.33086002 1.62341207 4.32947485 1.91015625 2.32226562 C0.74637723 0.94084006 0.74637723 0.94084006 -2.46484375 1.07226562 C-5.99100325 0.99901902 -5.99100325 0.99901902 -8.02734375 2.69726562 Z M2.91015625 2.50976562 C1.65247097 4.37439261 1.65247097 4.37439261 2.22265625 7.00976562 C2.44953125 7.77289063 2.67640625 8.53601563 2.91015625 9.32226562 C4.34807141 9.18058426 5.78547995 9.03375519 7.22265625 8.88476562 C8.02316406 8.80355469 8.82367188 8.72234375 9.6484375 8.63867188 C12.07102804 8.3696087 12.07102804 8.3696087 14.91015625 7.32226562 C14.56570744 4.84959798 14.56570744 4.84959798 13.91015625 2.32226562 C10.36742282 0.55089891 6.33489013 0.47632988 2.91015625 2.50976562 Z M14.91015625 8.32226562 C14.91015625 9.31226563 14.91015625 10.30226563 14.91015625 11.32226562 C14.25015625 11.32226562 13.59015625 11.32226562 12.91015625 11.32226562 C12.91015625 10.66226562 12.91015625 10.00226562 12.91015625 9.32226562 C9.61015625 9.65226562 6.31015625 9.98226563 2.91015625 10.32226562 C4.57560964 12.48868227 4.57560964 12.48868227 6.91015625 14.32226562 C9.47756057 14.07546361 9.47756057 14.07546361 11.91015625 13.32226562 C12.90015625 13.65226562 13.89015625 13.98226563 14.91015625 14.32226562 C15.24015625 12.34226562 15.57015625 10.36226562 15.91015625 8.32226562 C15.58015625 8.32226562 15.25015625 8.32226562 14.91015625 8.32226562 Z M3.91015625 21.32226562 C3.25015625 22.64226563 2.59015625 23.96226563 1.91015625 25.32226562 C6.86015625 25.32226562 11.81015625 25.32226562 16.91015625 25.32226562 C16.44404757 20.46923733 16.44404757 20.46923733 13.97265625 18.50976562 C9.72748674 16.06557712 7.50767715 18.62412495 3.91015625 21.32226562 Z " fill="#FFFFFF" transform="translate(13.08984375,12.677734375)"/>
<path d="M0 0 C1.01767676 3.16610547 0.79242075 4.83031702 0 8 C-0.18925821 13.1902776 -0.18925821 13.1902776 0.50390625 18.296875 C1.12364497 21.67371906 1.09456489 24.88155678 1.0625 28.3125 C1.05347656 29.56675781 1.04445313 30.82101563 1.03515625 32.11328125 C1.02355469 33.06589844 1.01195312 34.01851562 1 35 C1.77085937 34.48308594 2.54171875 33.96617187 3.3359375 33.43359375 C4.33882813 32.77488281 5.34171875 32.11617187 6.375 31.4375 C7.87160156 30.44556641 7.87160156 30.44556641 9.3984375 29.43359375 C10.25695312 28.96050781 11.11546875 28.48742187 12 28 C12.66 28.33 13.32 28.66 14 29 C13.30132812 29.48210937 12.60265625 29.96421875 11.8828125 30.4609375 C10.97273438 31.09257812 10.06265625 31.72421875 9.125 32.375 C8.22007812 33.00148437 7.31515625 33.62796875 6.3828125 34.2734375 C3.96505875 35.9298095 3.96505875 35.9298095 2 38 C2.495 39.3921875 2.495 39.3921875 3 40.8125 C4.84000897 47.27210597 4.32960932 54.04624662 3.375 60.625 C2.82657234 64.74561866 3.48578854 68.08168752 4.625 72.0546875 C5 74 5 74 4 77 C-0.48854962 62.46564885 -0.48854962 62.46564885 2 55 C2.3570489 49.58125789 1.90881451 44.33928523 1 39 C0.34 39 -0.32 39 -1 39 C-1.165 39.61875 -1.33 40.2375 -1.5 40.875 C-3.40951842 43.58015109 -5.25269862 44.02667771 -8.42578125 44.6953125 C-13.60050458 45.30779872 -18.79964174 45.14269276 -24 45 C-24.33 45.99 -24.66 46.98 -25 48 C-27.475 48.495 -27.475 48.495 -30 49 C-30.495 47.515 -30.495 47.515 -31 46 C-31.58007812 45.96261719 -32.16015625 45.92523438 -32.7578125 45.88671875 C-37.81678864 45.46096333 -41.54279158 44.62861009 -46 42 C-45.67 41.34 -45.34 40.68 -45 40 C-44.175 40.495 -43.35 40.99 -42.5 41.5 C-38.18031462 43.35129373 -35.65590566 43.38799214 -31 43 C-30.34 42.34 -29.68 41.68 -29 41 C-26.375 40.875 -26.375 40.875 -24 41 C-24 41.66 -24 42.32 -24 43 C-17.03771172 43.20886865 -10.60354657 43.40128966 -4 41 C-1.38006628 38.51256868 -1.01388182 37.14790746 -0.671875 33.50390625 C-0.69765625 32.20324219 -0.7234375 30.90257812 -0.75 29.5625 C-0.76546875 28.26441406 -0.7809375 26.96632812 -0.796875 25.62890625 C-0.96583319 22.61040312 -1.37434735 19.94106012 -2 17 C-2.41900922 10.93898285 -1.99591551 5.73825709 0 0 Z " fill="#FFFFFF" transform="translate(296,151)"/>
<path d="M0 0 C0.66 0.33 1.32 0.66 2 1 C3.00375869 4.01127606 2.93073685 5.26040285 2.625 8.3125 C2.55618431 11.3207289 2.63977399 12.55469549 4.5546875 14.921875 C6.31177118 16.4037528 8.0740724 17.74716445 10 19 C9.67 19.66 9.34 20.32 9 21 C6.69 19.02 4.38 17.04 2 15 C0.68 16.65 -0.64 18.3 -2 20 C-1.67 18.02 -1.34 16.04 -1 14 C-8.02639313 10.48680344 -20.01930221 13.28175761 -27.59228516 13.79956055 C-29.6562166 13.93961835 -31.7206022 14.0706485 -33.78515625 14.20117188 C-35.08582031 14.28818359 -36.38648438 14.37519531 -37.7265625 14.46484375 C-38.90814941 14.543396 -40.08973633 14.62194824 -41.30712891 14.70288086 C-43.91499672 14.70656564 -43.91499672 14.70656564 -45 16 C-47.33297433 16.04092937 -49.66705225 16.04241723 -52 16 C-52.2475 14.9275 -52.495 13.855 -52.75 12.75 C-53.99883146 9.00350563 -55.02488658 7.47926118 -58 5 C-57.67 4.34 -57.34 3.68 -57 3 C-55.7315625 4.2065625 -55.7315625 4.2065625 -54.4375 5.4375 C-51.1484842 8.21628662 -48.31370396 8.74117776 -44 9 C-44 10.32 -44 11.64 -44 13 C-43.18958252 12.93941406 -42.37916504 12.87882813 -41.54418945 12.81640625 C-38.47104858 12.58897677 -35.3976287 12.36588443 -32.32397461 12.14550781 C-30.36613744 12.00388007 -28.40864762 11.8574759 -26.45117188 11.7109375 C-18.28229242 11.12893082 -10.18810406 10.88921479 -2 11 C-1.01 11 -0.02 11 1 11 C0.505 5.555 0.505 5.555 0 0 Z " fill="#FFFFFF" transform="translate(239,169)"/>
<path d="M0 0 C8.26760027 -0.05843319 16.50493725 0.10818235 24.765625 0.4375 C25.92503601 0.48189209 27.08444702 0.52628418 28.2789917 0.57202148 C31.93608115 0.71253393 35.59303805 0.85621129 39.25 1 C41.74868979 1.09656459 44.24738765 1.19292069 46.74609375 1.2890625 C52.83082442 1.52363366 58.91544985 1.76079448 65 2 C65.33 1.34 65.66 0.68 66 0 C66 0.66 66 1.32 66 2 C85.8 2.495 85.8 2.495 106 3 C106 3.33 106 3.66 106 4 C93.13 4 80.26 4 67 4 C66.93035605 14.75313849 66.93035605 14.75313849 67.5 25.375 C67.5928125 26.45523438 67.685625 27.53546875 67.78125 28.6484375 C67.88953125 29.81246094 67.88953125 29.81246094 68 31 C64.55733794 24.56250184 64.9455453 17.84344373 64.9765625 10.703125 C64.97825439 9.96143066 64.97994629 9.21973633 64.98168945 8.45556641 C64.98608203 6.63703933 64.99280692 4.81851815 65 3 C64.20343994 3.01047363 63.40687988 3.02094727 62.58618164 3.03173828 C41.63488115 3.26763264 20.89539858 2.52143104 0 1 C0 0.67 0 0.34 0 0 Z " fill="#FFFFFF" transform="translate(2,125)"/>
<path d="M0 0 C5.43428 1.85695097 10.49705891 1.87404296 16.19140625 1.75 C17.14982422 1.74484375 18.10824219 1.7396875 19.09570312 1.734375 C23.83149642 1.68200963 28.34908667 1.47008005 33.00390625 0.5 C27.33239879 4.28100498 20.2600424 3.70762852 13.62890625 3.75 C12.43007812 3.7809375 12.43007812 3.7809375 11.20703125 3.8125 C6.93752384 3.84013435 3.58065719 3.48125827 -0.41015625 1.921875 C-4.87264605 0.27613753 -8.36317546 0.53981883 -13.03222656 1.13623047 C-18.45436671 1.80171554 -23.91496793 1.87721906 -29.37109375 2.0625 C-31.19253906 2.12836304 -31.19253906 2.12836304 -33.05078125 2.19555664 C-41.57101873 2.48139181 -50.07581894 2.57909352 -58.59912109 2.37524414 C-59.39012207 2.36356201 -60.18112305 2.35187988 -60.99609375 2.33984375 C-61.67671875 2.32300537 -62.35734375 2.30616699 -63.05859375 2.28881836 C-65.37927443 2.54176554 -66.92966465 3.44431303 -68.99609375 4.5 C-72.24609375 4.625 -72.24609375 4.625 -74.99609375 4.5 C-74.66609375 3.51 -74.33609375 2.52 -73.99609375 1.5 C-73.99609375 2.16 -73.99609375 2.82 -73.99609375 3.5 C-72.866875 3.00757813 -71.73765625 2.51515625 -70.57421875 2.0078125 C-65.85066434 0.24631171 -61.7342505 0.20015639 -56.74609375 0.375 C-54.90502432 0.40707848 -53.06386281 0.43413853 -51.22265625 0.45703125 C-49.73813965 0.47564209 -49.73813965 0.47564209 -48.22363281 0.49462891 C-42.18527411 0.50467761 -36.15482385 0.28052025 -30.12109375 0.0625 C-28.92709961 0.02302246 -27.73310547 -0.01645508 -26.50292969 -0.05712891 C-2.41078421 -0.94372534 -2.41078421 -0.94372534 0 0 Z " fill="#FFFFFF" transform="translate(209.99609375,6.5)"/>
<path d="M0 0 C0.33 0 0.66 0 1 0 C1 7.59 1 15.18 1 23 C14.2 22.67 27.4 22.34 41 22 C41 22.33 41 22.66 41 23 C36.00010408 23.82147238 31.16822982 24.1358223 26.09765625 24.09765625 C25.3750914 24.0962413 24.65252655 24.09482635 23.9080658 24.09336853 C21.62616635 24.08782225 19.34436921 24.0752802 17.0625 24.0625 C15.50455872 24.05747804 13.94661588 24.05291636 12.38867188 24.04882812 C8.59240919 24.0378705 4.79622187 24.02064372 1 24 C1 25.65 1 27.3 1 29 C0.67 29 0.34 29 0 29 C0 27.35 0 25.7 0 24 C-13.53 24 -27.06 24 -41 24 C-41 23.67 -41 23.34 -41 23 C-27.47 23 -13.94 23 0 23 C0 15.41 0 7.82 0 0 Z " fill="#FFFFFF" transform="translate(227,101)"/>
<path d="M0 0 C0.495 0.99 0.495 0.99 1 2 C-0.093125 2.33 -1.18625 2.66 -2.3125 3 C-8.10710473 5.18468042 -13.62783827 8.61176414 -18 13 C-18.41883626 15.6745746 -18.41883626 15.6745746 -18 18 C-18.61746094 18.13535156 -19.23492187 18.27070313 -19.87109375 18.41015625 C-26.89150732 20.19464493 -31.59436377 23.23416129 -37 28 C-37.66 27.67 -38.32 27.34 -39 27 C-38.21753906 26.40832031 -37.43507813 25.81664062 -36.62890625 25.20703125 C-35.61699219 24.41683594 -34.60507812 23.62664062 -33.5625 22.8125 C-32.55316406 22.03519531 -31.54382813 21.25789063 -30.50390625 20.45703125 C-27.84719705 17.85005763 -27.25243272 16.64409288 -27 13 C-25.80375 12.690625 -24.6075 12.38125 -23.375 12.0625 C-17.96362998 10.29885794 -13.53764282 7.32127986 -8.87451172 4.13696289 C-3.50260919 0.50160823 -3.50260919 0.50160823 0 0 Z " fill="#FFFFFF" transform="translate(349,151)"/>
<path d="M0 0 C25.41 0 50.82 0 77 0 C75.68 0.33 74.36 0.66 73 1 C72.89668969 8.42686315 73.00137301 15.63512596 74 23 C71.52466681 18.37937804 70.86075413 14.6728588 70.875 9.4375 C70.87242187 8.48746094 70.86984375 7.53742187 70.8671875 6.55859375 C71 4 71 4 72 1 C48.24 1 24.48 1 0 1 C0 0.67 0 0.34 0 0 Z " fill="#FFFFFF" transform="translate(159,40)"/>
<path d="M0 0 C0.99 0.33 1.98 0.66 3 1 C3 2.98 3 4.96 3 7 C1.7315625 6.7215625 1.7315625 6.7215625 0.4375 6.4375 C-3.27146026 5.96545051 -6.32553912 6.42361398 -10 7 C-10.495 6.505 -10.495 6.505 -11 6 C-12.92948474 5.71101514 -14.86989628 5.49337121 -16.8125 5.3125 C-17.87082031 5.20550781 -18.92914063 5.09851563 -20.01953125 4.98828125 C-23.1156732 5.00045481 -24.36201452 5.53321315 -27 7 C-29.33203812 7.0777346 -31.66839059 7.08967728 -34 7 C-34 6.34 -34 5.68 -34 5 C-34.50015625 5.32742187 -35.0003125 5.65484375 -35.515625 5.9921875 C-38.91792104 7.3723642 -42.14350651 7.21362838 -45.75 7.125 C-46.44738281 7.11597656 -47.14476563 7.10695312 -47.86328125 7.09765625 C-49.57566958 7.07419888 -51.28788004 7.03833104 -53 7 C-50.63443291 4.63443291 -49.25696479 4.41755959 -46 4 C-45.67 4.33 -45.34 4.66 -45 5 C-40.86699731 5.19223268 -37.05758399 4.77287314 -33 4 C-33 4.66 -33 5.32 -33 6 C-31.80375 5.484375 -30.6075 4.96875 -29.375 4.4375 C-22.31011651 2.04128952 -14.0341298 2.65529007 -7 5 C-4.64811553 4.40206327 -2.31074405 3.74118205 0 3 C0 3.66 0 4.32 0 5 C0.66 5 1.32 5 2 5 C1.34 3.35 0.68 1.7 0 0 Z " fill="#FFFFFF" transform="translate(132,187)"/>
<path d="M0 0 C3.96 0 7.92 0 12 0 C12 0.33 12 0.66 12 1 C9.69 1 7.38 1 5 1 C5.14210907 1.57857758 5.28421814 2.15715515 5.43063354 2.75326538 C6.99189128 9.68797937 7.2627087 16.26220588 7.1953125 23.3515625 C7.1924826 24.49160736 7.18965271 25.63165222 7.18673706 26.8062439 C7.17562932 30.41260714 7.15054232 34.01871305 7.125 37.625 C7.11495804 40.08463181 7.10583433 42.54426754 7.09765625 45.00390625 C7.07572087 51.00269052 7.04233815 57.00132686 7 63 C6.67 63 6.34 63 6 63 C4.87383699 57.61470181 4.88809388 52.42758942 4.9375 46.95703125 C4.94128662 45.99278732 4.94507324 45.0285434 4.94897461 44.03507996 C4.96521983 39.93210521 4.99324377 35.82923237 5.02050781 31.72631836 C5.03875913 28.71989415 5.05075182 25.71348684 5.0625 22.70703125 C5.07079834 21.79830765 5.07909668 20.88958405 5.08764648 19.95332336 C5.11153219 13.58468769 4.67549747 7.33169403 4 1 C2.68 0.67 1.36 0.34 0 0 Z " fill="#FFFFFF" transform="translate(289,34)"/>
<path d="M0 0 C0.495 0.99 0.495 0.99 1 2 C5.95 2 10.9 2 16 2 C16 2.33 16 2.66 16 3 C11.05 3 6.1 3 1 3 C1 9.93 1 16.86 1 24 C0.67 24 0.34 24 0 24 C0 17.07 0 10.14 0 3 C-12.21 3 -24.42 3 -37 3 C-37 2.67 -37 2.34 -37 2 C-24.79 2 -12.58 2 0 2 C0 1.34 0 0.68 0 0 Z " fill="#FFFFFF" transform="translate(145,125)"/>
<path d="M0 0 C0.6875 2.0625 0.6875 2.0625 1 4 C1.58007812 3.61585937 2.16015625 3.23171875 2.7578125 2.8359375 C3.53898437 2.35382812 4.32015625 1.87171875 5.125 1.375 C5.89070313 0.88773438 6.65640625 0.40046875 7.4453125 -0.1015625 C10.92597749 -1.32564957 12.58915803 -0.25932213 16 1 C19.39763842 1.20319016 19.39763842 1.20319016 22.8125 1.0625 C24.87440901 1.00891366 26.9374982 0.97934548 29 1 C29.495 1.495 29.495 1.495 30 2 C31.11375 2 32.2275 2 33.375 2 C37 2 37 2 40 3 C40 3.66 40 4.32 40 5 C38.783125 5.04125 37.56625 5.0825 36.3125 5.125 C35.28576172 5.15980469 35.28576172 5.15980469 34.23828125 5.1953125 C32 5 32 5 29.6015625 3.99609375 C26.56245329 2.83247085 24.30335543 2.83322537 21.0625 2.9375 C17.67401478 3.012246 14.89925521 2.97985104 11.5625 2.3125 C8.14887617 1.89620441 6.81032005 3.15110523 4 5 C2.68 5 1.36 5 0 5 C-0.33 3.68 -0.66 2.36 -1 1 C-2.1446875 1.5259375 -2.1446875 1.5259375 -3.3125 2.0625 C-6 3 -6 3 -9 2 C-3.375 -1.125 -3.375 -1.125 0 0 Z " fill="#FFFFFF" transform="translate(106,50)"/>
<path d="M0 0 C0 0.99 0 1.98 0 3 C0.85207031 2.66226563 1.70414063 2.32453125 2.58203125 1.9765625 C6.29116014 0.91681139 8.87109458 0.9760726 12.6875 1.375 C17.33591012 1.84292623 17.33591012 1.84292623 22 2 C22 2.66 22 3.32 22 4 C22.59167969 3.91621094 23.18335938 3.83242187 23.79296875 3.74609375 C28.09939457 3.19110576 31.75552644 2.76773348 36 4 C36 4.33 36 4.66 36 5 C33.52076199 5.02685095 31.0418116 5.04676547 28.5625 5.0625 C27.85544922 5.07087891 27.14839844 5.07925781 26.41992188 5.08789062 C24.61306441 5.09653588 22.80612397 5.05220011 21 5 C20.505 4.505 20.505 4.505 20 4 C17.76925356 3.92760255 15.55507809 4.00350207 13.32421875 4.0625 C11 4 11 4 8.83203125 3.4375 C6.91829709 2.77304512 6.91829709 2.77304512 5 4 C3.00039988 4.039992 0.99952758 4.04346799 -1 4 C-1 3.34 -1 2.68 -1 2 C-1.66 2.495 -2.32 2.99 -3 3.5 C-7.03416662 5.51708331 -9.5171875 5.36744365 -14 5 C-14.66 4.34 -15.32 3.68 -16 3 C-15.11248047 3.05220703 -15.11248047 3.05220703 -14.20703125 3.10546875 C-8.66186434 3.29543369 -4.75384386 0 0 0 Z " fill="#FFFFFF" transform="translate(177,210)"/>
<path d="M0 0 C0 0.66 0 1.32 0 2 C0.81791016 1.75443359 0.81791016 1.75443359 1.65234375 1.50390625 C4.3528501 0.92426346 6.80223028 0.90370078 9.5625 0.9375 C10.51253906 0.94652344 11.46257812 0.95554688 12.44140625 0.96484375 C13.28574219 0.97644531 14.13007813 0.98804688 15 1 C15.99 1 16.98 1 18 1 C16 3 16 3 12.0859375 3.1953125 C10.51550649 3.18200376 8.94513779 3.15813602 7.375 3.125 C6.57320312 3.11597656 5.77140625 3.10695312 4.9453125 3.09765625 C2.96341477 3.07406223 0.98167019 3.03819065 -1 3 C-1 2.34 -1 1.68 -1 1 C-1.91265625 1.09087891 -1.91265625 1.09087891 -2.84375 1.18359375 C-8.62110223 1.73584065 -14.39459618 2.16090978 -20.1875 2.5 C-25.49259026 2.81228369 -30.7397655 3.23288247 -36 4 C-32.44476009 1.86685606 -29.08004197 1.49241886 -25 1 C-24.113125 0.814375 -23.22625 0.62875 -22.3125 0.4375 C-18.1211491 -0.11607465 -14.02668759 -0.02344402 -9.8046875 0.0625 C-7.07764164 0.10847541 -7.07764164 0.10847541 -4.8203125 -0.5625 C-3 -1 -3 -1 0 0 Z " fill="#FFFFFF" transform="translate(201,201)"/>
<path d="M0 0 C0.33 0 0.66 0 1 0 C1.02502598 5.44026366 1.0430116 10.88049259 1.05493164 16.32080078 C1.05990958 18.16520777 1.06669434 20.00961093 1.07543945 21.85400391 C1.12055805 31.62616114 1.08234384 41.30772014 0.22265625 51.04882812 C-0.12815397 55.69860224 -0.08558437 60.3404067 0 65 C-0.33 65 -0.66 65 -1 65 C-1.1974192 62.35458268 -1.38310345 59.70915281 -1.5625 57.0625 C-1.61857422 56.32708984 -1.67464844 55.59167969 -1.73242188 54.83398438 C-1.78076172 54.09599609 -1.82910156 53.35800781 -1.87890625 52.59765625 C-1.9260376 51.93258057 -1.97316895 51.26750488 -2.02172852 50.58227539 C-2.00223759 48.26592067 -1.80225946 46.09741324 -1.52734375 43.80078125 C-0.9676926 39.05972129 -0.78242896 34.36010942 -0.68359375 29.58984375 C-0.6524221 28.31047691 -0.6524221 28.31047691 -0.62062073 27.00526428 C-0.55592801 24.31608089 -0.496619 21.6268111 -0.4375 18.9375 C-0.39423816 17.09960091 -0.35062161 15.26171014 -0.30664062 13.42382812 C-0.20033066 8.94930429 -0.09884438 4.47469473 0 0 Z " fill="#FFFFFF" transform="translate(147,165)"/>
<path d="M0 0 C0.53625 0.37125 1.0725 0.7425 1.625 1.125 C0.635 1.125 -0.355 1.125 -1.375 1.125 C-1.31699219 1.84300781 -1.25898438 2.56101562 -1.19921875 3.30078125 C-0.73937212 13.85097685 -3.4056663 23.08228923 -6.375 33.125 C-6.705 33.125 -7.035 33.125 -7.375 33.125 C-7.05385393 27.92021882 -6.49793839 23.14046281 -4.8125 18.1875 C-3.04924077 12.80356769 -3.08677697 7.74001161 -3.375 2.125 C-3.88546875 2.28871094 -4.3959375 2.45242187 -4.921875 2.62109375 C-8.18791828 3.29198481 -11.2936747 3.2183456 -14.625 3.1875 C-15.88828125 3.17847656 -17.1515625 3.16945313 -18.453125 3.16015625 C-19.41734375 3.14855469 -20.3815625 3.13695313 -21.375 3.125 C-21.375 2.795 -21.375 2.465 -21.375 2.125 C-20.50617188 2.07601562 -19.63734375 2.02703125 -18.7421875 1.9765625 C-17.58976562 1.90179688 -16.43734375 1.82703125 -15.25 1.75 C-13.54457031 1.64558594 -13.54457031 1.64558594 -11.8046875 1.5390625 C-8.34891774 1.23797966 -8.34891774 1.23797966 -5.09375 0.03125 C-2.375 -0.875 -2.375 -0.875 0 0 Z " fill="#FFFFFF" transform="translate(304.375,117.875)"/>
<path d="M0 0 C3.82516215 0.50541085 6.80653868 0.49637786 10.5625 -0.4375 C10.2325 0.2225 9.9025 0.8825 9.5625 1.5625 C5.73194437 2.40522224 2.76420913 2.59326919 -1.125 2 C-4.28686016 1.25939483 -4.28686016 1.25939483 -6.27734375 2.5234375 C-12.08258208 5.31583062 -20.31243538 3.69080138 -26.4375 2.5625 C-27.4275 3.0575 -27.4275 3.0575 -28.4375 3.5625 C-30.7704866 3.60272391 -33.10456666 3.60570247 -35.4375 3.5625 C-35.1075 2.9025 -34.7775 2.2425 -34.4375 1.5625 C-31.56640625 1.11328125 -31.56640625 1.11328125 -28 0.875 C-26.82566406 0.78863281 -25.65132812 0.70226562 -24.44140625 0.61328125 C-21.4375 0.5625 -21.4375 0.5625 -19.4375 1.5625 C-17.81584248 1.68398305 -16.18865673 1.73793652 -14.5625 1.75 C-13.69882813 1.76417969 -12.83515625 1.77835937 -11.9453125 1.79296875 C-9.43799598 1.72339217 -9.43799598 1.72339217 -7.45703125 0.5234375 C-4.74891159 -0.76514555 -2.94770651 -0.39657078 0 0 Z " fill="#FFFFFF" transform="translate(127.4375,74.4375)"/>
<path d="M0 0 C1.22847656 0.00644531 2.45695312 0.01289063 3.72265625 0.01953125 C6.9375 0.1875 6.9375 0.1875 9.9375 1.1875 C11.31183431 1.23028083 12.68809873 1.22807273 14.0625 1.1875 C15.34125 1.1875 16.62 1.1875 17.9375 1.1875 C18.4325 1.6825 18.4325 1.6825 18.9375 2.1875 C21.12389453 2.26008946 23.31250389 2.27123783 25.5 2.25 C26.69753906 2.24097656 27.89507812 2.23195312 29.12890625 2.22265625 C30.51916016 2.20525391 30.51916016 2.20525391 31.9375 2.1875 C31.9375 2.8475 31.9375 3.5075 31.9375 4.1875 C29.62506208 4.21435412 27.3125373 4.23382841 25 4.25 C23.71222656 4.26160156 22.42445313 4.27320313 21.09765625 4.28515625 C17.9375 4.1875 17.9375 4.1875 16.9375 3.1875 C15.27147597 3.14122155 13.60373639 3.14963099 11.9375 3.1875 C10.27126361 3.22536901 8.60352403 3.23377845 6.9375 3.1875 C6.6075 2.8575 6.2775 2.5275 5.9375 2.1875 C4.003081 2.06166034 2.06347237 2.01171991 0.125 2 C-1.46248047 1.97873047 -1.46248047 1.97873047 -3.08203125 1.95703125 C-6.02936804 2.18493803 -7.53074875 2.77481604 -10.0625 4.1875 C-12.8125 4.3125 -12.8125 4.3125 -15.0625 4.1875 C-13.72916667 3.52083333 -12.39583333 2.85416667 -11.0625 2.1875 C-10.50175781 1.83816406 -9.94101563 1.48882812 -9.36328125 1.12890625 C-6.17886863 -0.17405375 -3.42779301 -0.0396485 0 0 Z " fill="#FFFFFF" transform="translate(112.0625,179.8125)"/>
<path d="M0 0 C2.31760828 3.47641242 2.22576906 4.74194623 2.1484375 8.83203125 C2.13006836 9.99428223 2.11169922 11.1565332 2.09277344 12.35400391 C2.04685059 14.15877197 2.04685059 14.15877197 2 16 C1.97711914 17.13228027 1.95423828 18.26456055 1.93066406 19.43115234 C1.85093882 22.85097149 1.74161441 26.26875419 1.625 29.6875 C1.5940625 30.83283203 1.563125 31.97816406 1.53125 33.15820312 C1.29778437 39.96372631 0.60058866 46.37664752 -1 53 C-1.33 53 -1.66 53 -2 53 C-1.93433838 52.43144287 -1.86867676 51.86288574 -1.80102539 51.27709961 C-0.80977185 41.72410984 -0.65889967 32.15678686 -0.4375 22.5625 C-0.39420012 20.81574725 -0.35058266 19.06900234 -0.30664062 17.32226562 C-0.08191512 8.66218684 -0.08191512 8.66218684 0 0 Z " fill="#FFFFFF" transform="translate(71,66)"/>
<path d="M0 0 C0.78761719 0.24621094 1.57523438 0.49242187 2.38671875 0.74609375 C4.3125 1.5625 4.3125 1.5625 5.3125 3.5625 C3.70681334 3.27932074 2.10297953 2.98562209 0.5 2.6875 C-0.39332031 2.52507813 -1.28664062 2.36265625 -2.20703125 2.1953125 C-4.6875 1.5625 -4.6875 1.5625 -7.6875 -0.4375 C-11.22973486 -0.12122903 -14.31394274 0.43798091 -17.6875 1.5625 C-19.38766844 1.64428114 -21.09086297 1.66999501 -22.79296875 1.66015625 C-23.77587891 1.65693359 -24.75878906 1.65371094 -25.77148438 1.65039062 C-26.79564453 1.64201172 -27.81980469 1.63363281 -28.875 1.625 C-29.91076172 1.62048828 -30.94652344 1.61597656 -32.01367188 1.61132812 C-34.57167266 1.5995401 -37.12955733 1.58308515 -39.6875 1.5625 C-39.6875 1.2325 -39.6875 0.9025 -39.6875 0.5625 C-34.65754453 -0.69498887 -29.70634776 -0.4931983 -24.5703125 -0.3984375 C-20.7938773 -0.3556854 -17.35526345 -0.52221726 -13.6875 -1.4375 C-8.44422292 -2.71634807 -5.05915537 -1.61391238 0 0 Z " fill="#FFFFFF" transform="translate(220.6875,54.4375)"/>
<path d="M0 0 C0.96099609 0.00451172 1.92199219 0.00902344 2.91210938 0.01367188 C5.25397422 0.02532294 7.59570181 0.04167975 9.9375 0.0625 C9.32408127 5.76159761 8.64262195 11.4445976 7.875 17.125 C7.78412109 17.79982422 7.69324219 18.47464844 7.59960938 19.16992188 C7.37983135 20.80090618 7.15880451 22.43172212 6.9375 24.0625 C6.6075 24.0625 6.2775 24.0625 5.9375 24.0625 C5.42842838 15.70995461 6.9718285 9.58040984 8.9375 1.0625 C-0.6325 1.3925 -10.2025 1.7225 -20.0625 2.0625 C-20.0625 1.7325 -20.0625 1.4025 -20.0625 1.0625 C-13.33065587 0.18563415 -6.7839632 -0.06137197 0 0 Z " fill="#FFFFFF" transform="translate(63.0625,35.9375)"/>
<path d="M0 0 C0.66 0 1.32 0 2 0 C2.33 1.32 2.66 2.64 3 4 C3.66386719 3.91621094 4.32773437 3.83242187 5.01171875 3.74609375 C9.61558232 3.21513722 13.45639466 2.86409867 18 4 C18.66 3.67 19.32 3.34 20 3 C22.33294775 2.95758277 24.66702567 2.95907063 27 3 C27.99 3 28.98 3 30 3 C30.99 3.33 31.98 3.66 33 4 C29.6445576 6.2369616 29.19108923 6.16233222 25.4375 5.5625 C22.10195137 4.93835341 22.10195137 4.93835341 19 6 C16.11087268 5.91061582 13.25606745 5.765952 10.375 5.5625 C9.57320312 5.51029297 8.77140625 5.45808594 7.9453125 5.40429688 C5.96320897 5.27451629 3.98155501 5.13790265 2 5 C1.67 4.34 1.34 3.68 1 3 C0.01 3.99 -0.98 4.98 -2 6 C-2.66 5.67 -3.32 5.34 -4 5 C-2.71937515 3.2925002 -1.38232443 1.62626404 0 0 Z " fill="#FFFFFF" transform="translate(20,74)"/>
<path d="M0 0 C7.75763924 0.4808977 15.4647665 1.13678665 23.1875 2 C32.77564648 3.06295263 42.36439173 3.58997412 52 4 C52 4.33 52 4.66 52 5 C34.37389379 5.33432024 17.37756755 3.93265952 0 1 C0 0.67 0 0.34 0 0 Z " fill="#FFFFFF" transform="translate(243,6)"/>
<path d="M0 0 C0.66 -0.33 1.32 -0.66 2 -1 C4.17824961 -1.08559118 6.35915255 -1.10713412 8.5390625 -1.09765625 C9.84101563 -1.09443359 11.14296875 -1.09121094 12.484375 -1.08789062 C13.86458399 -1.07953466 15.24479232 -1.07106971 16.625 -1.0625 C18.01301926 -1.05748501 19.40104022 -1.0529221 20.7890625 -1.04882812 C24.19275132 -1.03700976 27.59635439 -1.02053434 31 -1 C31.495 -0.01 31.495 -0.01 32 1 C29.6739143 1.38063221 27.33944736 1.71269945 25 2 C24.505 1.505 24.505 1.505 24 1 C22.50914635 0.90087161 21.01367548 0.86920253 19.51953125 0.8671875 C18.60236328 0.86589844 17.68519531 0.86460937 16.74023438 0.86328125 C15.77408203 0.86714844 14.80792969 0.87101563 13.8125 0.875 C12.86568359 0.87113281 11.91886719 0.86726562 10.94335938 0.86328125 C6.15973033 0.86995763 1.71789055 1.14546579 -3 2 C-5.34214207 1.7355646 -7.68025766 1.41755362 -10 1 C-10 0.67 -10 0.34 -10 0 C-6.25819131 -0.76536996 -3.66118444 -1.0460527 0 0 Z " fill="#FFFFFF" transform="translate(22,146)"/>
<path d="M0 0 C0.33 0.99 0.66 1.98 1 3 C1.66 2.835 2.32 2.67 3 2.5 C6.73099794 1.87816701 10.21873378 1.93591074 14 2 C13.67 2.66 13.34 3.32 13 4 C8.71 4 4.42 4 0 4 C-0.33 3.34 -0.66 2.68 -1 2 C-1.721875 2.144375 -2.44375 2.28875 -3.1875 2.4375 C-4.93436838 2.78687368 -6.68405707 3.12277947 -8.4375 3.4375 C-11.09733618 3.96290064 -11.09733618 3.96290064 -13.9375 5.0625 C-17.12703241 6.03888747 -19.68594925 6.15781194 -23 6 C-22.67 5.34 -22.34 4.68 -22 4 C-19.31978358 3.41165981 -16.65827475 3.0670695 -13.9296875 2.7890625 C-8.71325986 2.230847 -5.19897493 -0.28102567 0 0 Z " fill="#FFFFFF" transform="translate(278,50)"/>
<path d="M0 0 C0.67417969 0.32484375 1.34835938 0.6496875 2.04296875 0.984375 C10.0942072 3.74966165 20.00427269 2.61084974 28 0 C27.67 0.99 27.34 1.98 27 3 C22.30591084 4.19485906 17.74525212 4.14828209 12.9375 4.125 C12.13505859 4.12886719 11.33261719 4.13273437 10.50585938 4.13671875 C9.72919922 4.13542969 8.95253906 4.13414063 8.15234375 4.1328125 C7.45101318 4.13168457 6.74968262 4.13055664 6.02709961 4.12939453 C4 4 4 4 1.80297852 3.42919922 C1.20799561 3.28756348 0.6130127 3.14592773 0 3 C-0.33 3.33 -0.66 3.66 -1 4 C-3.4375 4.25 -3.4375 4.25 -6 4 C-6.66 3.01 -7.32 2.02 -8 1 C-6.576875 1.309375 -6.576875 1.309375 -5.125 1.625 C-4.09375 1.74875 -3.0625 1.8725 -2 2 C-1.34 1.34 -0.68 0.68 0 0 Z " fill="#FFFFFF" transform="translate(24,60)"/>
<path d="M0 0 C2.31 0 4.62 0 7 0 C6.98839844 0.68707031 6.97679687 1.37414063 6.96484375 2.08203125 C6.95582031 2.98308594 6.94679687 3.88414063 6.9375 4.8125 C6.92589844 5.70582031 6.91429687 6.59914063 6.90234375 7.51953125 C6.88990033 10.13413791 6.88990033 10.13413791 8 13 C8.0938368 14.78714834 8.13070531 16.57757858 8.1328125 18.3671875 C8.13474609 19.94306641 8.13474609 19.94306641 8.13671875 21.55078125 C8.13285156 22.64777344 8.12898437 23.74476562 8.125 24.875 C8.12886719 25.96425781 8.13273438 27.05351563 8.13671875 28.17578125 C8.13542969 29.22894531 8.13414062 30.28210938 8.1328125 31.3671875 C8.13168457 32.32737793 8.13055664 33.28756836 8.12939453 34.27685547 C8.00245897 36.94825028 7.59594101 39.39667875 7 42 C6.67 42 6.34 42 6 42 C6.00523682 41.16750732 6.01047363 40.33501465 6.01586914 39.47729492 C6.03292225 36.38550065 6.04545565 33.29373036 6.05493164 30.2019043 C6.06242729 28.20685232 6.07513345 26.21182214 6.08789062 24.21679688 C6.09111328 22.96318359 6.09433594 21.70957031 6.09765625 20.41796875 C6.10289307 19.26063232 6.10812988 18.1032959 6.11352539 16.91088867 C6.13299461 13.93395589 6.13299461 13.93395589 5 11 C4.93197033 9.27204648 4.91504355 7.54164635 4.9375 5.8125 C4.94652344 4.91144531 4.95554688 4.01039062 4.96484375 3.08203125 C4.97644531 2.39496094 4.98804688 1.70789062 5 1 C3.35 1 1.7 1 0 1 C0 0.67 0 0.34 0 0 Z " fill="#FFFFFF" transform="translate(152,39)"/>
<path d="M0 0 C-10.67216874 2.11795809 -20.97949381 2.23938377 -31.8125 2.125 C-33.4876248 2.11494114 -35.16275552 2.10582047 -36.83789062 2.09765625 C-40.89207629 2.07589355 -44.9459706 2.04152737 -49 2 C-49 1.67 -49 1.34 -49 1 C-47.99211426 0.97494385 -46.98422852 0.9498877 -45.94580078 0.92407227 C-42.16233258 0.82902242 -38.37900694 0.72905096 -34.59570312 0.62768555 C-32.96650557 0.58470178 -31.33727346 0.54300576 -29.70800781 0.50268555 C-17.79428546 0.24924047 -17.79428546 0.24924047 -5.94091797 -0.89868164 C-3.77219083 -1.01189193 -2.0700091 -0.62378672 0 0 Z " fill="#FFFFFF" transform="translate(350,32)"/>
<path d="M0 0 C2.00451121 0.30503431 4.00448218 0.64080679 6 1 C8.27650745 0.6422386 8.27650745 0.6422386 10 0 C10 0.66 10 1.32 10 2 C11.65 1.34 13.3 0.68 15 0 C15 0.99 15 1.98 15 3 C15.99 2.67 16.98 2.34 18 2 C20.22818441 1.93062938 22.45834524 1.91542916 24.6875 1.9375 C26.45673828 1.95103516 26.45673828 1.95103516 28.26171875 1.96484375 C29.16535156 1.97644531 30.06898437 1.98804688 31 2 C31.495 2.99 31.495 2.99 32 4 C29.10410348 4.02706445 26.20846205 4.04687029 23.3125 4.0625 C22.08756836 4.07506836 22.08756836 4.07506836 20.83789062 4.08789062 C16.73492453 4.10450182 13.01379395 3.9496592 9 3 C7.00039988 2.960008 4.99952758 2.95653201 3 3 C0 3 0 3 -2 2 C-1.34 1.34 -0.68 0.68 0 0 Z " fill="#FFFFFF" transform="translate(90,6)"/>
<path d="M0 0 C0.5775 0.66 1.155 1.32 1.75 2 C3.99653977 4.44290923 3.99653977 4.44290923 8 4 C8 4.66 8 5.32 8 6 C4.85375007 6.26218749 3.38162983 6.24754367 0.6875 4.5 C0.130625 4.005 -0.42625 3.51 -1 3 C-1.86625 3.7425 -1.86625 3.7425 -2.75 4.5 C-5 6 -5 6 -9 6 C-9 5.34 -9 4.68 -9 4 C-9.70511719 4.32742187 -10.41023438 4.65484375 -11.13671875 4.9921875 C-14.23867167 6.08400722 -16.54006053 6.20385396 -19.8125 6.125 C-21.27623047 6.09792969 -21.27623047 6.09792969 -22.76953125 6.0703125 C-23.50558594 6.04710938 -24.24164063 6.02390625 -25 6 C-25.33 5.34 -25.66 4.68 -26 4 C-25.28714844 4.01160156 -24.57429687 4.02320312 -23.83984375 4.03515625 C-18.43674634 4.08606026 -13.32171525 3.94608271 -8 3 C-8 3.66 -8 4.32 -8 5 C-4.04 2.525 -4.04 2.525 0 0 Z " fill="#FFFFFF" transform="translate(268,60)"/>
<path d="M0 0 C2.00546689 -0.29868656 4.00577205 -0.63371323 6 -1 C11.41190859 -1.20422297 16.64241777 -0.6803279 22 0 C18.23403968 2.51064021 16.74254171 2.02705573 12.3125 1.5625 C6.92967967 1.07821317 2.31248365 1.18269482 -3 2 C-3.66 1.67 -4.32 1.34 -5 1 C-6.2375 1.7425 -6.2375 1.7425 -7.5 2.5 C-8.7375 3.2425 -8.7375 3.2425 -10 4 C-10.66 3.67 -11.32 3.34 -12 3 C-7.47515872 -0.55523243 -5.55985039 -1.27413238 0 0 Z " fill="#FFFFFF" transform="translate(257,93)"/>
<path d="M0 0 C2.67376014 0.08671655 5.32371399 0.04614286 8 0 C8 0.33 8 0.66 8 1 C6.20909747 1.19466332 4.41723495 1.38051213 2.625 1.5625 C1.12839844 1.71912109 1.12839844 1.71912109 -0.3984375 1.87890625 C-3 2 -3 2 -5 1 C-7.0152985 1.06221209 -7.0152985 1.06221209 -9.25 1.375 C-10.44882812 1.52582031 -10.44882812 1.52582031 -11.671875 1.6796875 C-16.72600253 1.94248195 -16.72600253 1.94248195 -21 4 C-22.66617115 4.04063832 -24.33388095 4.042721 -26 4 C-26 3.01 -26 2.02 -26 1 C-25.4225 1.20625 -24.845 1.4125 -24.25 1.625 C-21.9923054 2.23391005 -21.9923054 2.23391005 -20.14453125 1.02734375 C-17.68049178 -0.15306132 -16.14551829 -0.17705238 -13.4375 -0.0625 C-8.58155086 0.12584204 -4.917413 -0.8350324 0 0 Z " fill="#FFFFFF" transform="translate(283,136)"/>
<path d="M0 0 C14.52 0 29.04 0 44 0 C44 0.33 44 0.66 44 1 C38.30951083 1.81384976 32.80725894 2.15857755 27.0625 2.125 C26.24998779 2.12306641 25.43747559 2.12113281 24.6003418 2.11914062 C16.38040288 2.06185328 8.19692019 1.58774332 0 1 C0 0.67 0 0.34 0 0 Z " fill="#FFFFFF" transform="translate(194,26)"/>
<path d="M0 0 C1.5159375 -0.2784375 1.5159375 -0.2784375 3.0625 -0.5625 C4.031875 -0.706875 5.00125 -0.85125 6 -1 C6.66 -0.34 7.32 0.32 8 1 C10.90675183 1.02168637 10.90675183 1.02168637 14.125 0.625 C15.22070312 0.51414062 16.31640625 0.40328125 17.4453125 0.2890625 C18.28835937 0.19367188 19.13140625 0.09828125 20 0 C16.98803478 3.01196522 14.71904144 2.96147992 10.5 3.1875 C7 3 7 3 4.9375 1.9375 C2.89756396 0.72024021 2.89756396 0.72024021 0 1.5 C-3.44097764 2.07349627 -4.02551906 1.48724047 -7 0 C-10.18522204 0.30803455 -10.18522204 0.30803455 -13 1 C-8.80547364 -3.19452636 -5.10295463 -1.70098488 0 0 Z " fill="#FFFFFF" transform="translate(201,84)"/>
<path d="M0 0 C10.18739487 0.44293021 19.21714753 7.8995015 27 14 C27.33 14.66 27.66 15.32 28 16 C24.77133613 14.47577031 21.8566083 12.64771187 18.875 10.6875 C14.40729644 7.81283819 9.88890818 5.32378263 5.09375 3.04296875 C3 2 3 2 0 0 Z " fill="#FFFFFF" transform="translate(153,156)"/>
<path d="M0 0 C0 0.33 0 0.66 0 1 C-1.2065625 1.04898437 -2.413125 1.09796875 -3.65625 1.1484375 C-5.27085306 1.22353532 -6.88543539 1.29908003 -8.5 1.375 C-9.29148437 1.4059375 -10.08296875 1.436875 -10.8984375 1.46875 C-14.81798718 1.66151474 -18.42800675 2.02004561 -22.21875 3.0625 C-25.85231726 3.96338445 -28.32394878 4.0845064 -32 3.625 C-32.94875 3.51414062 -33.8975 3.40328125 -34.875 3.2890625 C-35.926875 3.14597656 -35.926875 3.14597656 -37 3 C-37 2.67 -37 2.34 -37 2 C-36.3709375 2.02320313 -35.741875 2.04640625 -35.09375 2.0703125 C-30.10932888 2.17540572 -25.84671443 1.86439139 -21.05859375 0.515625 C-13.94997479 -1.26490195 -7.1934527 -1.04421088 0 0 Z " fill="#FFFFFF" transform="translate(296,25)"/>
<path d="M0 0 C0 0.66 0 1.32 0 2 C0.53753906 1.66097656 1.07507813 1.32195312 1.62890625 0.97265625 C4.6674047 -0.27377886 6.69356734 0.04070118 9.9375 0.4375 C13.92542512 0.91645434 17.09239266 0.98589725 21 0 C21.33 0.66 21.66 1.32 22 2 C17.51296114 2.67513316 13.32312656 3.18924468 8.8125 2.5 C5.18519072 2.02428731 2.54140215 2.20318452 -1 3 C-1 2.34 -1 1.68 -1 1 C-1.99 1.495 -1.99 1.495 -3 2 C-5.3329866 2.04022391 -7.66706666 2.04320247 -10 2 C-10 1.67 -10 1.34 -10 1 C-6.56484998 0.37542727 -3.50935186 0 0 0 Z " fill="#FFFFFF" transform="translate(18,154)"/>
<path d="M0 0 C1.65 0 3.3 0 5 0 C5.33 0.66 5.66 1.32 6 2 C8.97 2 11.94 2 15 2 C15 2.66 15 3.32 15 4 C15.61488281 3.84402344 16.22976563 3.68804687 16.86328125 3.52734375 C17.67152344 3.33269531 18.47976563 3.13804687 19.3125 2.9375 C20.11300781 2.74027344 20.91351563 2.54304687 21.73828125 2.33984375 C24.84833953 1.87252929 27.04560499 3.01520166 30 4 C24.25 5.125 24.25 5.125 22 4 C21.01 4.495 21.01 4.495 20 5 C16.9375 5.125 16.9375 5.125 14 5 C13.67 4.67 13.34 4.34 13 4 C10.32941149 3.85884839 7.67567762 3.95752893 5 4 C4.67 3.01 4.34 2.02 4 1 C1.98491642 0.26676204 1.98491642 0.26676204 0 0 Z " fill="#FFFFFF" transform="translate(254,143)"/>
<path d="M0 0 C0.56847656 0.08378906 1.13695312 0.16757812 1.72265625 0.25390625 C5.38569489 0.73701151 8.51522383 1.07604332 12.1875 0.5 C18.15335819 -0.28240763 24.0265195 0.46147541 30 1 C30 1.33 30 1.66 30 2 C8.46808511 3.19148936 8.46808511 3.19148936 -2 3 C-1.34 2.01 -0.68 1.02 0 0 Z " fill="#FFFFFF" transform="translate(29,49)"/>
<path d="M0 0 C0 0.99 0 1.98 0 3 C2.97 2.34 5.94 1.68 9 1 C9 1.66 9 2.32 9 3 C9.66 2.67 10.32 2.34 11 2 C12.99960012 1.960008 15.00047242 1.95653201 17 2 C17 2.33 17 2.66 17 3 C10.93303301 3.77040851 5.11485027 4.09706112 -1 4 C-1.33 3.34 -1.66 2.68 -2 2 C-2.763125 2.515625 -3.52625 3.03125 -4.3125 3.5625 C-5.199375 4.036875 -6.08625 4.51125 -7 5 C-7.99 4.67 -8.98 4.34 -10 4 C-3.375 0 -3.375 0 0 0 Z " fill="#FFFFFF" transform="translate(256,105)"/>
<path d="M0 0 C0.75539063 0.01240723 1.51078125 0.02481445 2.2890625 0.03759766 C15.0345859 0.30767617 15.0345859 0.30767617 18.875 1.25 C19.205 1.91 19.535 2.57 19.875 3.25 C18.08255859 3.14171875 18.08255859 3.14171875 16.25390625 3.03125 C14.64844548 2.93736341 13.04297627 2.84362115 11.4375 2.75 C10.65439453 2.70230469 9.87128906 2.65460938 9.06445312 2.60546875 C5.01276284 2.37203803 0.95984942 2.18480202 -3.09765625 2.09375 C-4.18639038 2.06571289 -4.18639038 2.06571289 -5.29711914 2.03710938 C-7.37636544 2.0876612 -7.37636544 2.0876612 -9.125 4.25 C-10.115 3.92 -11.105 3.59 -12.125 3.25 C-8.49563402 -0.36036407 -4.8239482 -0.14020654 0 0 Z " fill="#FFFFFF" transform="translate(264.125,77.75)"/>
<path d="M0 0 C0.72445312 0.05285156 1.44890625 0.10570312 2.1953125 0.16015625 C5.30560108 0.40691346 8.03014315 0.76004772 11 1.75 C11.66 1.42 12.32 1.09 13 0.75 C15.6723621 0.61584528 18.32250488 0.70681459 21 0.75 C21 1.08 21 1.41 21 1.75 C14.30192762 3.90295184 8.70361733 3.61688153 1.84960938 2.47509766 C-2.78695153 1.73850116 -6.44425554 1.89210007 -11 2.75 C-8.2639289 -1.39685775 -4.38923603 -0.41393151 0 0 Z " fill="#FFFFFF" transform="translate(124,61.25)"/>
<path d="M0 0 C0 0.66 0 1.32 0 2 C1.5778125 1.4740625 1.5778125 1.4740625 3.1875 0.9375 C6.97389436 0.00641942 8.36099771 0.09024943 12 1 C14.33301986 1.03824623 16.66711508 1.04574284 19 1 C19 1.33 19 1.66 19 2 C14.545 2.495 14.545 2.495 10 3 C10 2.34 10 1.68 10 1 C9.29875 1.33 8.5975 1.66 7.875 2 C4.73996884 3.09044562 2.29436818 3.15322643 -1 3 C-1 2.34 -1 1.68 -1 1 C-1.5775 1.350625 -2.155 1.70125 -2.75 2.0625 C-5.35801776 3.14917407 -6.39417629 2.93065133 -9 2 C-5.62902617 0.50178941 -3.79557881 0 0 0 Z " fill="#FFFFFF" transform="translate(320,63)"/>
<path d="M0 0 C0.66 0.33 1.32 0.66 2 1 C2 1.66 2 2.32 2 3 C3.65 2.67 5.3 2.34 7 2 C6.34 2.66 5.68 3.32 5 4 C3.68 4 2.36 4 1 4 C1 3.34 1 2.68 1 2 C0.46375 2.309375 -0.0725 2.61875 -0.625 2.9375 C-3.40440349 4.18091735 -6.00081804 4.51033764 -9 5 C-10.2684375 5.5259375 -10.2684375 5.5259375 -11.5625 6.0625 C-14.21261187 7.0817738 -16.18631755 7.16078185 -19 7 C-13.83891399 4.31623528 -8.76505961 1.96084327 -3 1 C-2.01 0.67 -1.02 0.34 0 0 Z " fill="#FFFFFF" transform="translate(58,11)"/>
<path d="M0 0 C0.33 0 0.66 0 1 0 C1 11.88 1 23.76 1 36 C0.67 36 0.34 36 0 36 C0 24.12 0 12.24 0 0 Z " fill="#FFFFFF" transform="translate(71,191)"/>
<path d="M0 0 C2.34910755 1.16568922 4.21832362 1.4227565 6.8203125 1.65234375 C7.61953125 1.72710938 8.41875 1.801875 9.2421875 1.87890625 C9.84546875 1.92789062 10.44875 1.976875 11.0703125 2.02734375 C11.0703125 2.35734375 11.0703125 2.68734375 11.0703125 3.02734375 C9.48736468 3.08171982 7.90386994 3.12030646 6.3203125 3.15234375 C5.43859375 3.17554688 4.556875 3.19875 3.6484375 3.22265625 C1.0703125 3.02734375 1.0703125 3.02734375 -0.7109375 2.02734375 C-4.25584617 0.42963844 -7.8435004 0.81963988 -11.6796875 0.90234375 C-12.86884766 0.91587891 -12.86884766 0.91587891 -14.08203125 0.9296875 C-16.03138031 0.95317363 -17.98057325 0.98904238 -19.9296875 1.02734375 C-19.9296875 0.69734375 -19.9296875 0.36734375 -19.9296875 0.02734375 C-3.65168031 -1.84062429 -3.65168031 -1.84062429 0 0 Z " fill="#FFFFFF" transform="translate(153.9296875,26.97265625)"/>
<path d="M0 0 C0.66 0 1.32 0 2 0 C5.04724053 6.64282768 5.25039278 11.77703951 4.6875 19 C4.62626953 19.96550781 4.56503906 20.93101562 4.50195312 21.92578125 C4.35009978 24.28534861 4.18249099 26.64263826 4 29 C3.67 29 3.34 29 3 29 C3.02356567 28.16190796 3.02356567 28.16190796 3.04760742 27.30688477 C3.11074924 24.7255301 3.14923704 22.1443387 3.1875 19.5625 C3.21263672 18.68400391 3.23777344 17.80550781 3.26367188 16.90039062 C3.33209102 10.71986094 2.32816113 5.72459913 0 0 Z " fill="#FFFFFF" transform="translate(266,162)"/>
<path d="M0 0 C1.21308838 0.0762561 1.21308838 0.0762561 2.45068359 0.15405273 C7.921552 0.53806032 13.07903194 1.27889776 18.375 2.75 C14.49968846 4.04177051 11.2659931 3.36184545 7.3125 2.8125 C0.94168445 1.98631549 -5.18901593 1.54568305 -11.625 1.75 C-7.67905033 -0.88063311 -4.53316873 -0.32209598 0 0 Z " fill="#FFFFFF" transform="translate(258.625,152.25)"/>
<path d="M0 0 C2.44751435 -0.06798651 4.57438288 -0.12356626 6.9375 0.5625 C9.78720799 1.16698351 12.17430556 0.57798295 15 0 C15 0.66 15 1.32 15 2 C16.0725 1.649375 17.145 1.29875 18.25 0.9375 C21.78720743 0.05319814 22.74811124 -0.02880551 26 1 C21.02047784 2.43477757 18.0656932 3.13978097 13 2 C11.66232639 2.15350353 10.32866453 2.34436105 9 2.5625 C5.44633335 3.10093434 3.23888827 2.72065939 0 1 C0 0.67 0 0.34 0 0 Z " fill="#FFFFFF" transform="translate(318,47)"/>
<path d="M0 0 C0.66 0.33 1.32 0.66 2 1 C4.37123246 1.23029956 6.74741943 1.41119942 9.125 1.5625 C10.40632813 1.64628906 11.68765625 1.73007812 13.0078125 1.81640625 C14.48894531 1.90728516 14.48894531 1.90728516 16 2 C16 2.33 16 2.66 16 3 C13.62492145 3.02719556 11.25016036 3.04693247 8.875 3.0625 C8.20984375 3.07087891 7.5446875 3.07925781 6.859375 3.08789062 C3.71356749 3.10331125 0.78087837 2.96266435 -2.32421875 2.43359375 C-5.53838504 1.91275804 -7.06576913 2.73114341 -10 4 C-10.99 3.67 -11.98 3.34 -13 3 C-8.4134199 0.79844155 -5.19443385 -0.48320315 0 0 Z " fill="#FFFFFF" transform="translate(178,25)"/>
<path d="M0 0 C0 0.99 0 1.98 0 3 C-3.63 3.33 -7.26 3.66 -11 4 C-11 3.34 -11 2.68 -11 2 C-11.99 2.495 -11.99 2.495 -13 3 C-14.87379605 3.07033769 -16.75001102 3.0843022 -18.625 3.0625 C-19.62789063 3.05347656 -20.63078125 3.04445313 -21.6640625 3.03515625 C-22.43492188 3.02355469 -23.20578125 3.01195312 -24 3 C-24 2.67 -24 2.34 -24 2 C-19.38 1.67 -14.76 1.34 -10 1 C-10 1.66 -10 2.32 -10 3 C-9.46375 2.690625 -8.9275 2.38125 -8.375 2.0625 C-5.6015043 0.82172561 -2.99957163 0.4090325 0 0 Z " fill="#FFFFFF" transform="translate(115,22)"/>
<path d="M0 0 C1.34743298 2.69486596 0.59889417 4.07930405 0 7 C-0.01484307 8.76732575 0.02820189 10.535836 0.12109375 12.30078125 C0.16943359 13.27724609 0.21777344 14.25371094 0.26757812 15.25976562 C0.32365234 16.26716797 0.37972656 17.27457031 0.4375 18.3125 C0.48970703 19.33923828 0.54191406 20.36597656 0.59570312 21.42382812 C0.72492666 23.94956087 0.85987291 26.47485261 1 29 C-2.31963278 25.68036722 -1.56126869 21.27346344 -1.75 16.75 C-1.80542969 15.80769531 -1.86085937 14.86539063 -1.91796875 13.89453125 C-2.15366848 8.80198856 -2.08196269 4.7724991 0 0 Z " fill="#FFFFFF" transform="translate(233,201)"/>
<path d="M0 0 C3.04386724 -0.08226668 5.07175348 0.02391783 8 1 C9.546875 0.7215625 9.546875 0.7215625 11.125 0.4375 C15.70148673 -0.07920011 19.6662478 0.40971754 24 2 C24.33 2.66 24.66 3.32 25 4 C23.56208484 3.85831863 22.1246763 3.71148957 20.6875 3.5625 C19.88699219 3.48128906 19.08648437 3.40007812 18.26171875 3.31640625 C16 3 16 3 13 2 C11.00235863 2.2899802 9.00475541 2.58024828 7.0078125 2.875 C4.28992061 3.04420728 2.37759886 2.2630994 0 1 C0 0.67 0 0.34 0 0 Z " fill="#FFFFFF" transform="translate(113,87)"/>
<path d="M0 0 C0 0.66 0 1.32 0 2 C0.68449219 1.66226563 1.36898438 1.32453125 2.07421875 0.9765625 C5.59618446 -0.19899348 8.13201818 0.00323416 11.8125 0.375 C12.97394531 0.48585937 14.13539063 0.59671875 15.33203125 0.7109375 C16.21246094 0.80632812 17.09289062 0.90171875 18 1 C18 1.33 18 1.66 18 2 C14.41713181 2.19720979 10.83369943 2.38107522 7.25 2.5625 C6.23421875 2.61857422 5.2184375 2.67464844 4.171875 2.73242188 C2.70234375 2.80493164 2.70234375 2.80493164 1.203125 2.87890625 C0.30239258 2.9260376 -0.59833984 2.97316895 -1.52636719 3.02172852 C-3.87457408 3.00110175 -5.76206702 2.67823071 -8 2 C-2.25 0 -2.25 0 0 0 Z " fill="#FFFFFF" transform="translate(320,131)"/>
<path d="M0 0 C1.11310547 0.00451172 2.22621094 0.00902344 3.37304688 0.01367188 C6.10292101 0.02538807 8.83268174 0.04179301 11.5625 0.0625 C11.5625 0.3925 11.5625 0.7225 11.5625 1.0625 C-3.7825 1.5575 -3.7825 1.5575 -19.4375 2.0625 C-19.4375 1.7325 -19.4375 1.4025 -19.4375 1.0625 C-12.95400193 -0.11885474 -6.57535493 -0.05072974 0 0 Z " fill="#FFFFFF" transform="translate(325.4375,115.9375)"/>
<path d="M0 0 C0.66 0.66 1.32 1.32 2 2 C6.75542294 2.52150549 11.59052778 2.12106169 16.3125 1.4375 C19.62336282 1.04468577 21.82766434 1.1077806 25 2 C25 2.33 25 2.66 25 3 C24.07767578 2.98259766 24.07767578 2.98259766 23.13671875 2.96484375 C21.92435547 2.95130859 21.92435547 2.95130859 20.6875 2.9375 C19.88699219 2.92589844 19.08648437 2.91429688 18.26171875 2.90234375 C15.83138666 2.90342145 15.83138666 2.90342145 13 4 C10.93854893 4.068991 8.87498599 4.08467727 6.8125 4.0625 C5.18248047 4.04896484 5.18248047 4.04896484 3.51953125 4.03515625 C2.68808594 4.02355469 1.85664063 4.01195313 1 4 C0.67 2.68 0.34 1.36 0 0 Z " fill="#FFFFFF" transform="translate(163,83)"/>
<path d="M0 0 C0 0.99 0 1.98 0 3 C0.78375 2.835 1.5675 2.67 2.375 2.5 C6.93966142 1.87039153 11.40072601 1.91819473 16 2 C16 2.66 16 3.32 16 4 C16.66 4.33 17.32 4.66 18 5 C17.01 5 16.02 5 15 5 C15 4.34 15 3.68 15 3 C7.08 3.495 7.08 3.495 -1 4 C-1.33 3.34 -1.66 2.68 -2 2 C-2.99 1.67 -3.98 1.34 -5 1 C-3 0 -3 0 0 0 Z " fill="#FFFFFF" transform="translate(191,66)"/>
<path d="M0 0 C0.99 0.33 1.98 0.66 3 1 C2.01 1.495 2.01 1.495 1 2 C1 2.33 1 2.66 1 3 C1.99 3 2.98 3 4 3 C3.39816251 5.02045442 2.72693904 7.02111039 2 9 C1.01 9.495 1.01 9.495 0 10 C-0.66 9.67 -1.32 9.34 -2 9 C-1.125 1.125 -1.125 1.125 0 0 Z " fill="#FFFFFF" transform="translate(241,132)"/>
<path d="M0 0 C4.95 0 9.9 0 15 0 C15.33 0.66 15.66 1.32 16 2 C18.32156597 2.40729228 20.6568787 2.74438677 23 3 C23 3.33 23 3.66 23 4 C20.36 4 17.72 4 15 4 C14.67 3.01 14.34 2.02 14 1 C9.38 1 4.76 1 0 1 C0 0.67 0 0.34 0 0 Z " fill="#FFFFFF" transform="translate(90,61)"/>
<path d="M0 0 C8.58 0 17.16 0 26 0 C26 0.33 26 0.66 26 1 C17.42 1 8.84 1 0 1 C0 0.67 0 0.34 0 0 Z " fill="#FFFFFF" transform="translate(87,34)"/>
<path d="M0 0 C0 0.66 0 1.32 0 2 C0.9075 1.773125 1.815 1.54625 2.75 1.3125 C6 1 6 1 8.203125 2.48046875 C8.79609375 2.98191406 9.3890625 3.48335937 10 4 C9.25234375 3.9278125 8.5046875 3.855625 7.734375 3.78125 C6.74953125 3.6884375 5.7646875 3.595625 4.75 3.5 C3.77546875 3.4071875 2.8009375 3.314375 1.796875 3.21875 C-0.46302153 3.04199832 -2.73320193 3 -5 3 C-5.99 2.67 -6.98 2.34 -8 2 C-5.09399739 0.74335022 -3.20395416 0 0 0 Z " fill="#FFFFFF" transform="translate(323,137)"/>
<path d="M0 0 C0.68835938 0.06123047 1.37671875 0.12246094 2.0859375 0.18554688 C3.76710098 0.33731858 5.44633301 0.51023618 7.125 0.6875 C7.125 1.0175 7.125 1.3475 7.125 1.6875 C5.66126953 1.65269531 5.66126953 1.65269531 4.16796875 1.6171875 C2.89566406 1.59914063 1.62335938 1.58109375 0.3125 1.5625 C-0.95207031 1.53929688 -2.21664062 1.51609375 -3.51953125 1.4921875 C-7.0088024 1.41168082 -7.0088024 1.41168082 -9.875 3.6875 C-12.0625 3.3125 -12.0625 3.3125 -13.875 2.6875 C-9.07662955 -0.21992384 -5.44754733 -0.59648532 0 0 Z " fill="#FFFFFF" transform="translate(105.875,87.3125)"/>
<path d="M0 0 C0.598125 0.309375 1.19625 0.61875 1.8125 0.9375 C4.08956772 2.10209704 4.08956772 2.10209704 7 3 C7 2.34 7 1.68 7 1 C8.65 1 10.3 1 12 1 C10.68 1.33 9.36 1.66 8 2 C8 2.66 8 3.32 8 4 C4.95613276 4.08226668 2.92824652 3.97608217 0 3 C-2.63804589 3.39397335 -2.63804589 3.39397335 -5 4 C-3.35 2.68 -1.7 1.36 0 0 Z " fill="#FFFFFF" transform="translate(214,68)"/>
<path d="M0 0 C0.66 0 1.32 0 2 0 C2.33 1.65 2.66 3.3 3 5 C2.01 5.495 2.01 5.495 1 6 C0.67 6.66 0.34 7.32 0 8 C-0.66 7.34 -1.32 6.68 -2 6 C-1.44444444 1.44444444 -1.44444444 1.44444444 0 0 Z " fill="#FFFFFF" transform="translate(174,52)"/>
<path d="M0 0 C0.95003906 0.09925781 1.90007813 0.19851562 2.87890625 0.30078125 C5.4375 0.6875 5.4375 0.6875 8.4375 1.6875 C4.71319643 2.38039369 1.22666254 2.79894596 -2.5625 2.6875 C-2.5625 2.0275 -2.5625 1.3675 -2.5625 0.6875 C-4.8725 1.0175 -7.1825 1.3475 -9.5625 1.6875 C-6.17726169 -0.40126406 -3.91195379 -0.44175805 0 0 Z " fill="#FFFFFF" transform="translate(52.5625,22.3125)"/>
<path d="M0 0 C4.19325013 3.73992579 6.25146299 6.75438896 8 12 C7.67 12.99 7.34 13.98 7 15 C6.01836578 13.06374902 5.03977546 11.12595461 4.0625 9.1875 C3.51722656 8.10855469 2.97195312 7.02960938 2.41015625 5.91796875 C1 3 1 3 0 0 Z " fill="#FFFFFF" transform="translate(109,161)"/>
<path d="M0 0 C0.33 0.66 0.66 1.32 1 2 C2.98 1.67 4.96 1.34 7 1 C5.8125 2.5625 5.8125 2.5625 4 4 C1.3125 3.6875 1.3125 3.6875 -1 3 C-1 2.34 -1 1.68 -1 1 C-2.98 1.99 -4.96 2.98 -7 4 C-6.67 3.01 -6.34 2.02 -6 1 C-4 0 -4 0 0 0 Z " fill="#FFFFFF" transform="translate(20,51)"/>
<path d="M0 0 C7.09727428 -0.10808032 13.96094956 0.06145994 21 1 C21 1.33 21 1.66 21 2 C13.93391809 2.13794954 7.02639415 1.74805717 0 1 C0 0.67 0 0.34 0 0 Z " fill="#FFFFFF" transform="translate(123,36)"/>
<path d="M0 0 C0.99 0.33 1.98 0.66 3 1 C1.63875 1.8353125 1.63875 1.8353125 0.25 2.6875 C-2.84453391 4.8893799 -4.79281468 6.94389725 -7 10 C-6.84819155 7.34335221 -6.47988575 5.54782138 -4.703125 3.51953125 C-3.125 2.125 -3.125 2.125 0 0 Z " fill="#FFFFFF" transform="translate(89,175)"/>
<path d="M0 0 C2.5 1.25 2.5 1.25 5 3 C5 4.32 5 5.64 5 7 C3.35 6.67 1.7 6.34 0 6 C0 4.02 0 2.04 0 0 Z M2 3 C2 3.99 2 4.98 2 6 C2.66 6 3.32 6 4 6 C3.67 5.01 3.34 4.02 3 3 C2.67 3 2.34 3 2 3 Z " fill="#FFFFFF" transform="translate(337,137)"/>
<path d="M0 0 C3.93846154 3.32307692 3.93846154 3.32307692 4.25 6.75 C4.1675 7.4925 4.085 8.235 4 9 C2.35 9.33 0.7 9.66 -1 10 C-0.01 9.34 0.98 8.68 2 8 C1.855625 7.4225 1.71125 6.845 1.5625 6.25 C1.04166667 4.16666667 0.52083333 2.08333333 0 0 Z " fill="#FFFFFF" transform="translate(136,185)"/>
<path d="M0 0 C0.33 0 0.66 0 1 0 C0.48594831 4.96916636 -0.23384882 9.29026351 -2 14 C-3.25127906 10.45332822 -2.72285053 8.27746562 -1.5625 4.75 C-1.27503906 3.85796875 -0.98757812 2.9659375 -0.69140625 2.046875 C-0.46324219 1.37140625 -0.23507813 0.6959375 0 0 Z " fill="#FFFFFF" transform="translate(153,95)"/>
<path d="M0 0 C0 0.33 0 0.66 0 1 C-4.95 1 -9.9 1 -15 1 C-15 0.67 -15 0.34 -15 0 C-9.65370398 -1.0024305 -5.37625234 -0.84888195 0 0 Z " fill="#FFFFFF" transform="translate(48,90)"/>
<path d="M0 0 C5.61 0 11.22 0 17 0 C17 0.33 17 0.66 17 1 C11.39 1 5.78 1 0 1 C0 0.67 0 0.34 0 0 Z " fill="#FFFFFF" transform="translate(272,35)"/>
<path d="M0 0 C0.66 0.33 1.32 0.66 2 1 C1.34 2.65 0.68 4.3 0 6 C-1.32 6 -2.64 6 -4 6 C-4 4.35 -4 2.7 -4 1 C-3.34 1.66 -2.68 2.32 -2 3 C-1.34 2.01 -0.68 1.02 0 0 Z " fill="#FFFFFF" transform="translate(162,197)"/>
<path d="M0 0 C0.66 0.33 1.32 0.66 2 1 C1.38125 1.9075 0.7625 2.815 0.125 3.75 C-1.44389611 6.14948817 -2.80443821 8.40961612 -4 11 C-3.56179109 6.44262737 -3.14958831 3.42346555 0 0 Z " fill="#FFFFFF" transform="translate(83,175)"/>
<path d="M0 0 C0.99 0.495 0.99 0.495 2 1 C2.05416188 2.60379341 2.09286638 4.20811406 2.125 5.8125 C2.14820313 6.70582031 2.17140625 7.59914062 2.1953125 8.51953125 C2 11 2 11 0 14 C0 9.38 0 4.76 0 0 Z " fill="#FFFFFF" transform="translate(323,147)"/>
<path d="M0 0 C-3.28519475 1.09506492 -5.73663415 1.09960608 -9.1875 1.0625 C-10.81751953 1.04896484 -10.81751953 1.04896484 -12.48046875 1.03515625 C-13.31191406 1.02355469 -14.14335937 1.01195313 -15 1 C-15 0.67 -15 0.34 -15 0 C-13.25093341 -0.19601608 -11.50068154 -0.38147403 -9.75 -0.5625 C-8.77546875 -0.66691406 -7.8009375 -0.77132812 -6.796875 -0.87890625 C-4.2368648 -0.98974468 -2.41851841 -0.77738092 0 0 Z " fill="#FFFFFF" transform="translate(283,122)"/>
<path d="M0 0 C3.96 0 7.92 0 12 0 C12 0.33 12 0.66 12 1 C7.59085217 2.10228696 3.51617599 2.07654536 -1 2 C-0.67 1.34 -0.34 0.68 0 0 Z " fill="#FFFFFF" transform="translate(21,89)"/>
<path d="M0 0 C0.99 0.33 1.98 0.66 3 1 C3 1.66 3 2.32 3 3 C1.68 3 0.36 3 -1 3 C-1 3.66 -1 4.32 -1 5 C-1.66 5 -2.32 5 -3 5 C-2.625 3.0625 -2.625 3.0625 -2 1 C-1.34 0.67 -0.68 0.34 0 0 Z " fill="#FFFFFF" transform="translate(171,69)"/>
<path d="M0 0 C-0.33 1.65 -0.66 3.3 -1 5 C-1.99 5 -2.98 5 -4 5 C-4 3.68 -4 2.36 -4 1 C-2 0 -2 0 0 0 Z " fill="#FFFFFF" transform="translate(248,52)"/>
<path d="M0 0 C0.33 0 0.66 0 1 0 C1 4.95 1 9.9 1 15 C0.67 15 0.34 15 0 15 C0 10.05 0 5.1 0 0 Z " fill="#FFFFFF" transform="translate(72,176)"/>
<path d="M0 0 C-1 2 -1 2 -2.84765625 2.6328125 C-3.57855469 2.79523438 -4.30945313 2.95765625 -5.0625 3.125 C-5.79597656 3.29257813 -6.52945313 3.46015625 -7.28515625 3.6328125 C-7.85105469 3.75398437 -8.41695312 3.87515625 -9 4 C-9 3.34 -9 2.68 -9 2 C-3.375 -1.125 -3.375 -1.125 0 0 Z " fill="#FFFFFF" transform="translate(256,135)"/>
<path d="M0 0 C0.99 0 1.98 0 3 0 C2.67 1.32 2.34 2.64 2 4 C0.68 4 -0.64 4 -2 4 C-1.34 2.68 -0.68 1.36 0 0 Z " fill="#FFFFFF" transform="translate(304,48)"/>
<path d="M0 0 C0.33 0.66 0.66 1.32 1 2 C-0.65 3.98 -2.3 5.96 -4 8 C-4.66 7.67 -5.32 7.34 -6 7 C-4.02 4.69 -2.04 2.38 0 0 Z " fill="#FFFFFF" transform="translate(184,187)"/>
<path d="M0 0 C4.62 0 9.24 0 14 0 C14 0.33 14 0.66 14 1 C9.38 1 4.76 1 0 1 C0 0.67 0 0.34 0 0 Z " fill="#FFFFFF" transform="translate(161,126)"/>
<path d="M0 0 C0.66 0.33 1.32 0.66 2 1 C-0.3125 3.5 -0.3125 3.5 -3 6 C-3.99 6 -4.98 6 -6 6 C-4.60755361 3.21510722 -2.44008012 1.87698471 0 0 Z " fill="#FFFFFF" transform="translate(184,68)"/>
<path d="M0 0 C4.62 0 9.24 0 14 0 C14 0.33 14 0.66 14 1 C9.38 1 4.76 1 0 1 C0 0.67 0 0.34 0 0 Z " fill="#FFFFFF" transform="translate(73,35)"/>
<path d="M0 0 C0 1.65 0 3.3 0 5 C-0.99 5 -1.98 5 -3 5 C-3 3.68 -3 2.36 -3 1 C-1 0 -1 0 0 0 Z " fill="#FFFFFF" transform="translate(7,51)"/>
<path d="M0 0 C4.29 0 8.58 0 13 0 C13 0.33 13 0.66 13 1 C8.71 1 4.42 1 0 1 C0 0.67 0 0.34 0 0 Z " fill="#FFFFFF" transform="translate(246,26)"/>
<path d="M0 0 C1.670625 0.061875 1.670625 0.061875 3.375 0.125 C3.705 0.785 4.035 1.445 4.375 2.125 C1.075 2.125 -2.225 2.125 -5.625 2.125 C-3.625 0.125 -3.625 0.125 0 0 Z " fill="#FFFFFF" transform="translate(92.625,180.875)"/>
<path d="M0 0 C0.33 0.66 0.66 1.32 1 2 C0.54625 2.433125 0.0925 2.86625 -0.375 3.3125 C-2.20024334 5.10798342 -2.20024334 5.10798342 -4 8 C-3.6875 5.125 -3.6875 5.125 -3 2 C-2.01 1.34 -1.02 0.68 0 0 Z " fill="#FFFFFF" transform="translate(6,141)"/>
<path d="M0 0 C0.33 0 0.66 0 1 0 C0.67 3.63 0.34 7.26 0 11 C-0.33 11 -0.66 11 -1 11 C-0.67 7.37 -0.34 3.74 0 0 Z " fill="#FFFFFF" transform="translate(229,90)"/>
<path d="M0 0 C0.99 0 1.98 0 3 0 C3 1.32 3 2.64 3 4 C2.01 4 1.02 4 0 4 C0 2.68 0 1.36 0 0 Z " fill="#FFFFFF" transform="translate(84,75)"/>
<path d="M0 0 C0.33 0 0.66 0 1 0 C1 3.96 1 7.92 1 12 C0.67 12 0.34 12 0 12 C0 8.04 0 4.08 0 0 Z " fill="#FFFFFF" transform="translate(233,63)"/>
<path d="M0 0 C0 0.66 0 1.32 0 2 C0.99 2.33 1.98 2.66 3 3 C0.03 2.67 -2.94 2.34 -6 2 C-3 0 -3 0 0 0 Z " fill="#FFFFFF" transform="translate(282,62)"/>
<path d="M0 0 C0.99 0.33 1.98 0.66 3 1 C3 2.98 3 4.96 3 7 C2.01 7.495 2.01 7.495 1 8 C1.020625 7.05125 1.04125 6.1025 1.0625 5.125 C1.22551826 2.09333717 1.22551826 2.09333717 0 0 Z " fill="#FFFFFF" transform="translate(219,209)"/>
<path d="M0 0 C0.99 0.33 1.98 0.66 3 1 C3 2.65 3 4.3 3 6 C2.01 6 1.02 6 0 6 C0.185625 5.38125 0.37125 4.7625 0.5625 4.125 C1.23686176 1.95839822 1.23686176 1.95839822 0 0 Z " fill="#FFFFFF" transform="translate(284,152)"/>
<path d="M0 0 C0.99 0 1.98 0 3 0 C3.33 2.31 3.66 4.62 4 7 C3.34 6.67 2.68 6.34 2 6 C2 4.35 2 2.7 2 1 C1.34 0.67 0.68 0.34 0 0 Z " fill="#FFFFFF" transform="translate(45,149)"/>
<path d="M0 0 C0.33 0 0.66 0 1 0 C1 3.63 1 7.26 1 11 C0.67 11 0.34 11 0 11 C0 7.37 0 3.74 0 0 Z " fill="#FFFFFF" transform="translate(226,130)"/>
<path d="M0 0 C3.63 0 7.26 0 11 0 C11 0.33 11 0.66 11 1 C7.37 1 3.74 1 0 1 C0 0.67 0 0.34 0 0 Z " fill="#FFFFFF" transform="translate(175,125)"/>
<path d="M0 0 C-2.66666667 0.66666667 -5.33333333 1.33333333 -8 2 C-8 1.34 -8 0.68 -8 0 C-5.13822943 -1.43088528 -3.06624227 -0.59991697 0 0 Z " fill="#FFFFFF" transform="translate(20,91)"/>
<path d="M0 0 C0.33 0 0.66 0 1 0 C0.67 2.97 0.34 5.94 0 9 C-0.95904856 5.16380575 -0.91892116 3.67568464 0 0 Z " fill="#FFFFFF" transform="translate(235,192)"/>
<path d="M0 0 C1.32 1.32 2.64 2.64 4 4 C3.67 4.99 3.34 5.98 3 7 C0 2.25 0 2.25 0 0 Z " fill="#FFFFFF" transform="translate(235,162)"/>
<path d="M0 0 C0.66 0 1.32 0 2 0 C2.33 2.64 2.66 5.28 3 8 C1.58622659 5.36095629 0.62759865 2.92879371 0 0 Z " fill="#FFFFFF" transform="translate(41,148)"/>
<path d="M0 0 C1.32 0 2.64 0 4 0 C4 0.66 4 1.32 4 2 C3.01 2 2.02 2 1 2 C0.67 2.66 0.34 3.32 0 4 C0 2.68 0 1.36 0 0 Z " fill="#FFFFFF" transform="translate(83,89)"/>
<path d="M0 0 C0.66 0 1.32 0 2 0 C1.67 1.32 1.34 2.64 1 4 C0.34 4 -0.32 4 -1 4 C-0.67 2.68 -0.34 1.36 0 0 Z " fill="#FFFFFF" transform="translate(242,80)"/>
<path d="M0 0 C0.33 0.99 0.66 1.98 1 3 C-0.32 3.99 -1.64 4.98 -3 6 C-1.125 1.125 -1.125 1.125 0 0 Z " fill="#FFFFFF" transform="translate(304,61)"/>
<path d="M0 0 C3.3 0 6.6 0 10 0 C10 0.33 10 0.66 10 1 C6.7 1 3.4 1 0 1 C0 0.67 0 0.34 0 0 Z " fill="#FFFFFF" transform="translate(236,39)"/>
<path d="M0 0 C3.3 0 6.6 0 10 0 C10 0.33 10 0.66 10 1 C6.7 1 3.4 1 0 1 C0 0.67 0 0.34 0 0 Z " fill="#FFFFFF" transform="translate(113,35)"/>
<path d="M0 0 C1.5625 1.25 1.5625 1.25 3 3 C2.6875 5.1875 2.6875 5.1875 2 7 C1.34 4.69 0.68 2.38 0 0 Z " fill="#FFFFFF" transform="translate(214,209)"/>
<path d="M0 0 C1.5625 1.8125 1.5625 1.8125 3 4 C2.67 4.99 2.34 5.98 2 7 C0.5393715 4.35261084 0 3.10551666 0 0 Z " fill="#FFFFFF" transform="translate(230,152)"/>
<path d="M0 0 C0 3 0 3 -1.5 4.6875 C-1.995 5.120625 -2.49 5.55375 -3 6 C-2.42655063 3.13275314 -2.1385485 2.1385485 0 0 Z " fill="#FFFFFF" transform="translate(316,123)"/>
<path d="M0 0 C1.42944945 2.35438733 2.08661261 3.48032433 1.625 6.25 C1.41875 6.8275 1.2125 7.405 1 8 C0.67 5.36 0.34 2.72 0 0 Z " fill="#FFFFFF" transform="translate(296,97)"/>
<path d="M0 0 C0.66 0 1.32 0 2 0 C2 0.99 2 1.98 2 3 C1.01 3.33 0.02 3.66 -1 4 C-0.67 2.68 -0.34 1.36 0 0 Z " fill="#FFFFFF" transform="translate(5,76)"/>
<path d="M0 0 C2.97 0 5.94 0 9 0 C9 0.33 9 0.66 9 1 C6.03 1 3.06 1 0 1 C0 0.67 0 0.34 0 0 Z " fill="#FFFFFF" transform="translate(246,38)"/>
<path d="M0 0 C2.97 0 5.94 0 9 0 C9 0.33 9 0.66 9 1 C6.03 1 3.06 1 0 1 C0 0.67 0 0.34 0 0 Z " fill="#FFFFFF" transform="translate(263,36)"/>
<path d="M0 0 C0.99 0.495 0.99 0.495 2 1 C2.625 3.5625 2.625 3.5625 3 6 C2.34 5.67 1.68 5.34 1 5 C0.375 2.4375 0.375 2.4375 0 0 Z " fill="#FFFFFF" transform="translate(28,170)"/>
<path d="M0 0 C0.66 0.33 1.32 0.66 2 1 C1.34 2.65 0.68 4.3 0 6 C-0.33 6 -0.66 6 -1 6 C-1.042721 4.33388095 -1.04063832 2.66617115 -1 1 C-0.67 0.67 -0.34 0.34 0 0 Z " fill="#FFFFFF" transform="translate(7,143)"/>
<path d="M0 0 C0.33 0 0.66 0 1 0 C0.67 2.31 0.34 4.62 0 7 C-1.04449911 3.86650268 -0.93423645 3.01031744 0 0 Z " fill="#FFFFFF" transform="translate(155,88)"/>
<path d="M0 0 C0.66 0 1.32 0 2 0 C2 0.99 2 1.98 2 3 C1.01 3 0.02 3 -1 3 C-0.67 2.01 -0.34 1.02 0 0 Z " fill="#FFFFFF" transform="translate(87,51)"/>
<path d="M0 0 C2.64 0 5.28 0 8 0 C8 0.33 8 0.66 8 1 C5.36 1 2.72 1 0 1 C0 0.67 0 0.34 0 0 Z " fill="#FFFFFF" transform="translate(144,38)"/>
<path d="M0 0 C2.64 0 5.28 0 8 0 C8 0.33 8 0.66 8 1 C5.36 1 2.72 1 0 1 C0 0.67 0 0.34 0 0 Z " fill="#FFFFFF" transform="translate(255,37)"/>
<path d="M0 0 C2.64 0 5.28 0 8 0 C8 0.33 8 0.66 8 1 C5.36 1 2.72 1 0 1 C0 0.67 0 0.34 0 0 Z " fill="#FFFFFF" transform="translate(238,25)"/>
<path d="M0 0 C0 0.99 0 1.98 0 3 C-0.99 3.33 -1.98 3.66 -3 4 C-3 3.34 -3 2.68 -3 2 C-2.01 1.34 -1.02 0.68 0 0 Z " fill="#FFFFFF" transform="translate(314,121)"/>
<path d="M0 0 C0.99 1.485 0.99 1.485 2 3 C1.67 3.99 1.34 4.98 1 6 C0.67 4.02 0.34 2.04 0 0 Z " fill="#FFFFFF" transform="translate(300,111)"/>
<path d="M0 0 C0.99 1.485 0.99 1.485 2 3 C1.67 3.99 1.34 4.98 1 6 C0.67 4.02 0.34 2.04 0 0 Z " fill="#FFFFFF" transform="translate(298,105)"/>
<path d="M0 0 C0.66 0.33 1.32 0.66 2 1 C1 2 1 2 -1.5625 2.0625 C-2.7690625 2.0315625 -2.7690625 2.0315625 -4 2 C-2.125 0.9375 -2.125 0.9375 0 0 Z " fill="#FFFFFF" transform="translate(316,48)"/>
<path d="M0 0 C0.99 0.33 1.98 0.66 3 1 C1.02 1.99 1.02 1.99 -1 3 C-0.67 2.01 -0.34 1.02 0 0 Z " fill="#FFFFFF" transform="translate(251,144)"/>
<path d="M0 0 C0.33 0 0.66 0 1 0 C1 1.98 1 3.96 1 6 C0.67 6 0.34 6 0 6 C0 4.02 0 2.04 0 0 Z " fill="#FFFFFF" transform="translate(68,119)"/>
<path d="M0 0 C0.66 0 1.32 0 2 0 C2 0.99 2 1.98 2 3 C1.34 3 0.68 3 0 3 C0 2.01 0 1.02 0 0 Z " fill="#FFFFFF" transform="translate(239,94)"/>
<path d="M0 0 C0.33 0 0.66 0 1 0 C1 1.98 1 3.96 1 6 C0.67 6 0.34 6 0 6 C0 4.02 0 2.04 0 0 Z " fill="#FFFFFF" transform="translate(232,75)"/>
<path d="M0 0 C0.33 0 0.66 0 1 0 C1 1.98 1 3.96 1 6 C0.67 6 0.34 6 0 6 C0 4.02 0 2.04 0 0 Z " fill="#FFFFFF" transform="translate(70,60)"/>
<path d="M0 0 C0.66 0 1.32 0 2 0 C1.67 0.99 1.34 1.98 1 3 C0.34 2.34 -0.32 1.68 -1 1 C-0.67 0.67 -0.34 0.34 0 0 Z " fill="#FFFFFF" transform="translate(128,22)"/>
<path d="M0 0 C2.475 0.495 2.475 0.495 5 1 C4.01 1.33 3.02 1.66 2 2 C1.34 1.34 0.68 0.68 0 0 Z " fill="#FFFFFF" transform="translate(301,12)"/>
<path d="M0 0 C1.98 0 3.96 0 6 0 C6 0.33 6 0.66 6 1 C4.02 1 2.04 1 0 1 C0 0.67 0 0.34 0 0 Z " fill="#FFFFFF" transform="translate(295,11)"/>
<path d="M0 0 C0.33 0 0.66 0 1 0 C1 1.65 1 3.3 1 5 C0.67 5 0.34 5 0 5 C0 3.35 0 1.7 0 0 Z " fill="#FFFFFF" transform="translate(282,152)"/>
<path d="M0 0 C0.33 0 0.66 0 1 0 C1 1.65 1 3.3 1 5 C0.67 5 0.34 5 0 5 C0 3.35 0 1.7 0 0 Z " fill="#FFFFFF" transform="translate(227,141)"/>
<path d="M0 0 C0.33 0 0.66 0 1 0 C1 1.65 1 3.3 1 5 C0.67 5 0.34 5 0 5 C0 3.35 0 1.7 0 0 Z " fill="#FFFFFF" transform="translate(146,120)"/>
<path d="M0 0 C1.65 0 3.3 0 5 0 C5 0.33 5 0.66 5 1 C3.35 1 1.7 1 0 1 C0 0.67 0 0.34 0 0 Z " fill="#FFFFFF" transform="translate(247,82)"/>
<path d="M0 0 C0.33 0 0.66 0 1 0 C1 1.65 1 3.3 1 5 C0.67 5 0.34 5 0 5 C0 3.35 0 1.7 0 0 Z " fill="#FFFFFF" transform="translate(231,81)"/>
<path d="M0 0 C0.33 0.99 0.66 1.98 1 3 C0.34 3 -0.32 3 -1 3 C-0.67 2.01 -0.34 1.02 0 0 Z " fill="#FFFFFF" transform="translate(128,12)"/>
<path d="M0 0 C0.99 0.33 1.98 0.66 3 1 C2.01 1.33 1.02 1.66 0 2 C0 1.34 0 0.68 0 0 Z " fill="#FFFFFF" transform="translate(159,196)"/>
<path d="M0 0 C1 4 1 4 1 4 Z " fill="#FFFFFF" transform="translate(70,156)"/>
<path d="M0 0 C1 4 1 4 1 4 Z " fill="#FFFFFF" transform="translate(310,125)"/>
<path d="M0 0 C1 4 1 4 1 4 Z " fill="#FFFFFF" transform="translate(147,116)"/>
<path d="M0 0 C1 4 1 4 1 4 Z " fill="#FFFFFF" transform="translate(148,112)"/>
<path d="M0 0 C0.66 0 1.32 0 2 0 C2 0.66 2 1.32 2 2 C1.34 2 0.68 2 0 2 C0 1.34 0 0.68 0 0 Z " fill="#FFFFFF" transform="translate(238,110)"/>
<path d="M0 0 C1 4 1 4 1 4 Z " fill="#FFFFFF" transform="translate(230,86)"/>
<path d="M0 0 C1 4 1 4 1 4 Z " fill="#FFFFFF" transform="translate(157,81)"/>
<path d="M0 0 C0.66 0 1.32 0 2 0 C2 0.66 2 1.32 2 2 C1.34 2 0.68 2 0 2 C0 1.34 0 0.68 0 0 Z " fill="#FFFFFF" transform="translate(127,6)"/>
<path d="" fill="#FFFFFF" transform="translate(0,0)"/>
<path d="" fill="#FFFFFF" transform="translate(0,0)"/>
<path d="" fill="#FFFFFF" transform="translate(0,0)"/>
<path d="" fill="#FFFFFF" transform="translate(0,0)"/>
<path d="" fill="#FFFFFF" transform="translate(0,0)"/>
<path d="" fill="#FFFFFF" transform="translate(0,0)"/>
<path d="" fill="#FFFFFF" transform="translate(0,0)"/>
<path d="" fill="#FFFFFF" transform="translate(0,0)"/>
<path d="" fill="#FFFFFF" transform="translate(0,0)"/>
<path d="" fill="#FFFFFF" transform="translate(0,0)"/>
<path d="" fill="#FFFFFF" transform="translate(0,0)"/>
<path d="" fill="#FFFFFF" transform="translate(0,0)"/>
</svg>
