<?xml version="1.0" encoding="UTF-8"?>
<svg version="1.1" xmlns="http://www.w3.org/2000/svg" width="350" height="230">
<path d="M0 0 C7.49759311 -0.37418672 14.64179399 0.02902313 22.05877686 1.05178833 C42.37237649 3.76064803 62.77491693 3.52562426 83.23114014 3.61126709 C91.18952616 3.6474701 99.14779157 3.70832285 107.10603333 3.76766205 C109.03684561 3.78186344 110.96766242 3.79546464 112.89848328 3.80844879 C129.61186541 3.92268759 146.29971688 4.32365031 163 5 C163 5.33 163 5.66 163 6 C140.28395285 6.04053319 117.56812327 5.99958068 94.85272217 5.81609344 C89.94818754 5.77682113 85.04383258 5.74445089 80.13916016 5.72900391 C53.19863139 5.63859236 26.75258307 4.23084618 0 1 C0 0.67 0 0.34 0 0 Z " fill="#FFFFFF" transform="translate(16,29)"/>
<path d="M0 0 C12.87 0.495 12.87 0.495 26 1 C25.67 4.63 25.34 8.26 25 12 C24.9175 13.175625 24.835 14.35125 24.75 15.5625 C24 18 24 18 22.05859375 19.1015625 C17.82317319 20.34568348 13.7061223 20.58404488 9.3125 20.8125 C8.0121582 20.90821289 8.0121582 20.90821289 6.68554688 21.00585938 C5.85732422 21.05162109 5.02910156 21.09738281 4.17578125 21.14453125 C3.04523315 21.21184448 3.04523315 21.21184448 1.8918457 21.28051758 C1.26753662 21.18794678 0.64322754 21.09537598 0 21 C-0.66 20.01 -1.32 19.02 -2 18 C-1.34 18 -0.68 18 0 18 C0 12.06 0 6.12 0 0 Z M1 1 C1 6.61 1 12.22 1 18 C4.87910377 15.41393082 8.43206312 12.93830096 12 10 C10.66667905 6.00003714 8.5042173 5.16217663 5 3 C6.23944276 3.86941494 7.49207059 4.72005457 8.75 5.5625 C9.44609375 6.03816406 10.1421875 6.51382812 10.859375 7.00390625 C12.95740806 8.22085581 12.95740806 8.22085581 15.265625 7.65234375 C15.83796875 7.43707031 16.4103125 7.22179687 17 7 C17 8.33333333 17 9.66666667 17 11 C18.46575824 13.22297652 20.19715871 15.02127175 22 17 C22.33 17 22.66 17 23 17 C23.66 12.05 24.32 7.1 25 2 C17.08 1.67 9.16 1.34 1 1 Z M11 11 C11 11.66 11 12.32 11 13 C10.13375 13.37125 10.13375 13.37125 9.25 13.75 C6.69890938 15.16727257 5.02026893 16.91182287 3 19 C5.43757413 19.02698422 7.87484915 19.04683099 10.3125 19.0625 C11.00279297 19.07087891 11.69308594 19.07925781 12.40429688 19.08789062 C15.5483025 19.10307906 17.99420019 19.00193327 21 18 C19.55922954 14.63820226 17.75249979 12.40843732 15 10 C12.9254644 9.8509288 12.9254644 9.8509288 11 11 Z " fill="#FFFFFF" transform="translate(14,5)"/>
<path d="M0 0 C0.33 0 0.66 0 1 0 C1 5.61 1 11.22 1 17 C2.65 17.66 4.3 18.32 6 19 C5.67 20.32 5.34 21.64 5 23 C4.505 21.515 4.505 21.515 4 20 C3.34 19.67 2.68 19.34 2 19 C1.98018066 19.59538574 1.96036133 20.19077148 1.93994141 20.80419922 C1.84483874 23.49492153 1.73510158 26.18485148 1.625 28.875 C1.5940625 29.81214844 1.563125 30.74929687 1.53125 31.71484375 C1.49257812 32.61074219 1.45390625 33.50664062 1.4140625 34.4296875 C1.36693115 35.67081299 1.36693115 35.67081299 1.31884766 36.93701172 C1 39 1 39 -1 41 C-8.05736993 42.98540052 -15.1809631 43.26125201 -22.4609375 43.125 C-23.41336334 43.11742676 -24.36578918 43.10985352 -25.34707642 43.10205078 C-29.36409871 43.06981031 -33.38068906 43.01349307 -37.39746094 42.95898438 C-52.5054888 42.71385669 -52.5054888 42.71385669 -67.46337891 44.5625 C-70.02684802 45.00463057 -72.40427383 45.0750176 -75 45 C-75.33 45.66 -75.66 46.32 -76 47 C-76 42.05 -76 37.1 -76 32 C-75.67 32 -75.34 32 -75 32 C-74.67 34.97 -74.34 37.94 -74 41 C-73.01 40.505 -73.01 40.505 -72 40 C-72.33 40.99 -72.66 41.98 -73 43 C-72.18112305 42.855625 -71.36224609 42.71125 -70.51855469 42.5625 C-58.74052653 40.72048419 -47.14598443 40.83717408 -35.25 41 C-18.4510255 41.72080969 -18.4510255 41.72080969 -2 39 C0.08204358 36.91795642 -0.74178708 32.4661444 -0.68359375 29.58984375 C-0.6524221 28.32679161 -0.6524221 28.32679161 -0.62062073 27.03822327 C-0.55503188 24.33806821 -0.49619724 21.63781283 -0.4375 18.9375 C-0.39432363 17.11131759 -0.35070964 15.28514546 -0.30664062 13.45898438 C-0.19934106 8.97276008 -0.09810034 4.4864345 0 0 Z " fill="#FFFFFF" transform="translate(131,151)"/>
<path d="M0 0 C3.24208567 0.35049575 4.61527704 0.56221181 6.8125 3.0625 C7.204375 3.701875 7.59625 4.34125 8 5 C8.639375 4.649375 9.27875 4.29875 9.9375 3.9375 C13.0699801 2.97857752 14.41345548 3.07403435 17.5625 3.5625 C21.06475127 4.17799021 21.06475127 4.17799021 24.125 2.5625 C24.74375 2.046875 25.3625 1.53125 26 1 C29.39228158 0.75328861 32.2558361 0.81849661 35.5625 1.625 C38.80304968 2.1235461 40.99288245 1.18886043 44 0 C44.495 1.485 44.495 1.485 45 3 C46.32 2.34 47.64 1.68 49 1 C47.71937515 2.7074998 46.38232443 4.37373596 45 6 C44.34 6 43.68 6 43 6 C43 4.68 43 3.36 43 2 C42.46246094 2.34289062 41.92492187 2.68578125 41.37109375 3.0390625 C38.30231395 4.2827525 36.31782676 3.85939919 33.0625 3.375 C28.26855376 2.70714614 28.26855376 2.70714614 24.1875 5.0625 C23.1046875 6.0215625 23.1046875 6.0215625 22 7 C19.65319703 6.38242027 17.31847874 5.7166207 15 5 C12.55853994 6.22338275 12.55853994 6.22338275 11 8 C10.67 7.34 10.34 6.68 10 6 C8.35 6.33 6.7 6.66 5 7 C4.731875 6.21625 4.46375 5.4325 4.1875 4.625 C3.15185568 1.71885077 3.15185568 1.71885077 0 0 Z " fill="#FFFFFF" transform="translate(56,10)"/>
<path d="M0 0 C0.99 0.495 0.99 0.495 2 1 C-12.61158948 13.7851408 -34.0473303 16.99785163 -52.87890625 16.14306641 C-58.62785913 15.75530324 -64.3155392 14.92672432 -70 14 C-70 13.67 -70 13.34 -70 13 C-69.01902344 13.0721875 -68.03804688 13.144375 -67.02734375 13.21875 C-44.7326168 14.79052825 -18.20377309 15.47320712 0 0 Z " fill="#FFFFFF" transform="translate(146,205)"/>
<path d="M0 0 C5.28 0 10.56 0 16 0 C16 0.33 16 0.66 16 1 C11.05 1 6.1 1 1 1 C1 21.46 1 41.92 1 63 C0.67 63 0.34 63 0 63 C0 42.21 0 21.42 0 0 Z " fill="#FFFFFF" transform="translate(52,81)"/>
<path d="M0 0 C0.34192668 1.83175008 0.67306214 3.66551537 1 5.5 C1.185625 6.5209375 1.37125 7.541875 1.5625 8.59375 C2 12 2 12 2 20 C-3.28 19.34 -8.56 18.68 -14 18 C-14 17.67 -14 17.34 -14 17 C-12.62511713 16.97250234 -11.25006609 16.9533836 -9.875 16.9375 C-8.72644531 16.92009766 -8.72644531 16.92009766 -7.5546875 16.90234375 C-5 17 -5 17 1 18 C0.01 12.72 -0.98 7.44 -2 2 C-12.89 2 -23.78 2 -35 2 C-35 1.67 -35 1.34 -35 1 C-30.49765878 0.85698401 -25.99529866 0.7145839 -21.49291992 0.57275391 C-19.96133905 0.52442063 -18.42976347 0.47591922 -16.89819336 0.42724609 C-14.69646555 0.35730466 -12.49471939 0.28796838 -10.29296875 0.21875 C-9.60849167 0.19687622 -8.92401459 0.17500244 -8.21879578 0.15246582 C-5.47747521 0.06676924 -2.74289945 0 0 0 Z " fill="#FFFFFF" transform="translate(270,178)"/>
<path d="M0 0 C0.66 0.66 1.32 1.32 2 2 C9.35865027 2.67256481 16.44007285 2.12284723 23.609375 0.44921875 C28.13061653 -0.40036095 33.79312958 -1.10343521 38 1 C40.71262116 1.2322646 43.40773126 1.41936235 46.125 1.5625 C47.25615234 1.62727539 47.25615234 1.62727539 48.41015625 1.69335938 C50.27321888 1.7994832 52.13658524 1.90025001 54 2 C54 2.33 54 2.66 54 3 C51.20826945 3.02690104 48.41679652 3.04679053 45.625 3.0625 C44.43390625 3.07506836 44.43390625 3.07506836 43.21875 3.08789062 C37.2265625 3.11328125 37.2265625 3.11328125 35 2 C30.57261016 1.7628184 26.80742392 1.9740764 22.5 3 C17.80813371 4.02634575 13.28278402 4.2244008 8.5 4.25 C7.43942383 4.26353516 7.43942383 4.26353516 6.35742188 4.27734375 C1.24760671 4.24760671 1.24760671 4.24760671 -1 2 C-3.21072977 1.75746187 -3.21072977 1.75746187 -5.625 1.875 C-6.85089844 1.90207031 -6.85089844 1.90207031 -8.1015625 1.9296875 C-9.04128906 1.96449219 -9.04128906 1.96449219 -10 2 C-6.32653229 -0.44897847 -4.33643601 -0.31537716 0 0 Z " fill="#FFFFFF" transform="translate(214,132)"/>
<path d="M0 0 C0 0.66 0 1.32 0 2 C1.093125 1.95875 2.18625 1.9175 3.3125 1.875 C7 2 7 2 10 4 C4.555 3.505 4.555 3.505 -1 3 C-1 2.34 -1 1.68 -1 1 C-2.39412109 1.45052734 -2.39412109 1.45052734 -3.81640625 1.91015625 C-5.05261719 2.29042969 -6.28882813 2.67070312 -7.5625 3.0625 C-9.38974609 3.63677734 -9.38974609 3.63677734 -11.25390625 4.22265625 C-15.23792294 5.04937087 -18.04801376 4.87212811 -22 4 C-22.33 3.67 -22.66 3.34 -23 3 C-29.3949465 2.65705334 -35.70007602 2.85455928 -42 4 C-38.29045727 0.29045727 -33.9941547 0.83908599 -28.9375 0.8125 C-27.09478516 0.79123047 -27.09478516 0.79123047 -25.21484375 0.76953125 C-22 1 -22 1 -19 3 C-16.33759476 2.84204952 -16.33759476 2.84204952 -13.5 2.1875 C-12.5409375 1.99542969 -11.581875 1.80335938 -10.59375 1.60546875 C-3.33052039 -0.09001406 -3.33052039 -0.09001406 0 0 Z " fill="#FFFFFF" transform="translate(220,160)"/>
<path d="M0 0 C0.33 0 0.66 0 1 0 C0.49586226 19.38676028 -0.45146848 38.66476945 -2 58 C-2.33 58 -2.66 58 -3 58 C-3.15798519 48.56652893 -2.72828905 39.19510502 -2.20043945 29.78100586 C-2.06217569 27.30669634 -1.93015598 24.83210821 -1.79882812 22.35742188 C-1.71130691 20.75518811 -1.62342862 19.15297381 -1.53515625 17.55078125 C-1.49656998 16.82554764 -1.4579837 16.10031403 -1.41822815 15.35310364 C-1.12511063 10.20923639 -0.60202721 5.11707375 0 0 Z " fill="#FFFFFF" transform="translate(135,93)"/>
<path d="M0 0 C18.15 0 36.3 0 55 0 C55 0.33 55 0.66 55 1 C36.85 1 18.7 1 0 1 C0 0.67 0 0.34 0 0 Z " fill="#FFFFFF" transform="translate(68,80)"/>
<path d="M0 0 C0.33 0 0.66 0 1 0 C1 8.58 1 17.16 1 26 C0.67 24.68 0.34 23.36 0 22 C-5.47035213 25.79037089 -9.89962427 29.75027653 -14 35 C-14.33 34.34 -14.66 33.68 -15 33 C-7.31734317 23.87822878 -7.31734317 23.87822878 -3 21 C-2.01 21 -1.02 21 0 21 C0 14.07 0 7.14 0 0 Z " fill="#FFFFFF" transform="translate(53,144)"/>
<path d="M0 0 C2.33065103 1.14269783 4.61421061 2.33698582 6.890625 3.5859375 C15.70823164 8.28182569 24.23868192 10.95899713 34 13 C34 13.33 34 13.66 34 14 C22.33495531 13.48384758 11.42355995 10.03951191 2 3 C1.34 2.01 0.68 1.02 0 0 Z " fill="#FFFFFF" transform="translate(42,204)"/>
<path d="M0 0 C14.19 0.66 28.38 1.32 43 2 C43 2.33 43 2.66 43 3 C28.31156385 3.17079577 13.67332163 2.641084 -1 2 C-0.67 1.34 -0.34 0.68 0 0 Z " fill="#FFFFFF" transform="translate(213,192)"/>
<path d="M0 0 C0.33 0.33 0.66 0.66 1 1 C2.53640197 1.14484849 4.07883135 1.22703941 5.62109375 1.28125 C6.55630859 1.31863281 7.49152344 1.35601562 8.45507812 1.39453125 C9.43927734 1.42933594 10.42347656 1.46414062 11.4375 1.5 C13.37385048 1.56874617 15.31006513 1.64146875 17.24609375 1.71875 C18.54051392 1.76418945 18.54051392 1.76418945 19.86108398 1.81054688 C22 2 22 2 24 3 C23 4 23 4 20.91796875 4.1328125 C4.9641875 4.08716506 4.9641875 4.08716506 -2.42578125 2.46875 C-5.59296822 1.892024 -8.59546425 1.90500469 -11.8125 1.9375 C-12.97394531 1.94652344 -14.13539063 1.95554688 -15.33203125 1.96484375 C-16.21246094 1.97644531 -17.09289062 1.98804688 -18 2 C-18 1.67 -18 1.34 -18 1 C-16.12528812 0.83012319 -14.25021305 0.66425224 -12.375 0.5 C-11.33085937 0.4071875 -10.28671875 0.314375 -9.2109375 0.21875 C-6.12120967 0.00825759 -3.09524685 -0.10892364 0 0 Z " fill="#FFFFFF" transform="translate(242,186)"/>
<path d="M0 0 C-1.70178116 1.70178116 -3.92134546 1.18951567 -6.25 1.24609375 C-7.33410156 1.27896484 -8.41820312 1.31183594 -9.53515625 1.34570312 C-11.81372266 1.40607101 -14.09237061 1.46344855 -16.37109375 1.51757812 C-22.86505304 1.72027532 -28.70067771 2.42041163 -35 4 C-38.0625 4.125 -38.0625 4.125 -40 4 C-31.89891902 -0.30711795 -23.06228688 -0.3995487 -14.0625 -0.6875 C-12.3599707 -0.75807617 -12.3599707 -0.75807617 -10.62304688 -0.83007812 C-2.26797874 -1.13398937 -2.26797874 -1.13398937 0 0 Z " fill="#FFFFFF" transform="translate(340,29)"/>
<path d="M0 0 C3.37185506 0.60211697 5.47611573 1.67427194 8 4 C9.70587756 10.83605344 7.31522372 18.01081847 4 24 C3.34 24.33 2.68 24.66 2 25 C4 19 4 19 5.125 16.125 C6.28159682 11.99429709 6.5539823 9.29336285 6 5 C3.13384514 2.50459629 3.13384514 2.50459629 0 1 C0 0.67 0 0.34 0 0 Z " fill="#FFFFFF" transform="translate(146,180)"/>
<path d="M0 0 C5.66442374 0.36504064 10.00703705 1.0554321 15 4 C14.67 4.66 14.34 5.32 14 6 C13.39671875 5.72285156 12.7934375 5.44570312 12.171875 5.16015625 C11.37265625 4.79792969 10.5734375 4.43570313 9.75 4.0625 C8.96109375 3.70285156 8.1721875 3.34320313 7.359375 2.97265625 C4.77731888 1.84124877 4.77731888 1.84124877 1 1 C1.66 5.95 2.32 10.9 3 16 C-0.38370684 12.61629316 -0.05529986 8.7667907 -0.0625 4.1875 C-0.04655989 2.79160221 -0.02736707 1.39572052 0 0 Z " fill="#FFFFFF" transform="translate(140,174)"/>
<path d="M0 0 C0.33 0.66 0.66 1.32 1 2 C-0.21623047 1.7834375 -0.21623047 1.7834375 -1.45703125 1.5625 C-8.71955124 0.34503448 -15.64012428 -0.2654865 -23 0 C-23 -0.33 -23 -0.66 -23 -1 C-15.34716531 -2.85523265 -7.54157748 -2.11372933 0 0 Z " fill="#FFFFFF" transform="translate(305,166)"/>
<path d="M0 0 C8.91 0 17.82 0 27 0 C27 0.33 27 0.66 27 1 C18.09 1 9.18 1 0 1 C0 0.67 0 0.34 0 0 Z " fill="#FFFFFF" transform="translate(179,35)"/>
<path d="M0 0 C2.72783111 2.72783111 3.2024628 5.80543688 4.125 9.4375 C4.39763672 10.4594043 4.39763672 10.4594043 4.67578125 11.50195312 C5.43511979 14.41655708 6 16.97561204 6 20 C3.09601887 16.68929883 2.23136657 13.71095881 1.3125 9.4375 C1.06113281 8.30183594 0.80976562 7.16617188 0.55078125 5.99609375 C0 3 0 3 0 0 Z " fill="#FFFFFF" transform="translate(116,169)"/>
<path d="M0 0 C8.58 0 17.16 0 26 0 C26 0.33 26 0.66 26 1 C17.42 1 8.84 1 0 1 C0 0.67 0 0.34 0 0 Z " fill="#FFFFFF" transform="translate(206,36)"/>
<path d="M0 0 C1.40668945 0.00966797 1.40668945 0.00966797 2.84179688 0.01953125 C4.30649414 0.04466797 4.30649414 0.04466797 5.80078125 0.0703125 C6.78884766 0.07933594 7.77691406 0.08835938 8.79492188 0.09765625 C11.2346189 0.1212282 13.67382822 0.15413228 16.11328125 0.1953125 C16.11328125 0.5253125 16.11328125 0.8553125 16.11328125 1.1953125 C8.19328125 1.5253125 0.27328125 1.8553125 -7.88671875 2.1953125 C-4.63281887 0.02604591 -3.75275918 -0.04548799 0 0 Z " fill="#FFFFFF" transform="translate(275.88671875,131.8046875)"/>
<path d="M0 0 C1.67187924 0.30611873 3.33778264 0.64514461 5 1 C7.10323534 1.0659735 9.20835724 1.08562245 11.3125 1.0625 C12.38113281 1.05347656 13.44976562 1.04445313 14.55078125 1.03515625 C15.76314453 1.01775391 15.76314453 1.01775391 17 1 C16.67 1.66 16.34 2.32 16 3 C14.06257659 3.02703381 12.12504521 3.04641125 10.1875 3.0625 C9.10855469 3.07410156 8.02960938 3.08570313 6.91796875 3.09765625 C4 3 4 3 1 2 C-1.14255793 2.38932856 -1.14255793 2.38932856 -3 3 C-1.8125 1.4375 -1.8125 1.4375 0 0 Z " fill="#FFFFFF" transform="translate(249,13)"/>
<path d="M0 0 C0.99 0 1.98 0 3 0 C3 0.66 3 1.32 3 2 C4.03125 1.649375 5.0625 1.29875 6.125 0.9375 C9.9798964 0.00486377 12.20172226 0.07359079 16 1 C12.10053463 2.29982179 8.9940378 3.05213972 4.875 3 C1.2049729 2.71117455 1.2049729 2.71117455 -1 4 C-0.67 2.68 -0.34 1.36 0 0 Z " fill="#FFFFFF" transform="translate(284,12)"/>
<path d="M0 0 C5.28 0 10.56 0 16 0 C15.67 2.64 15.34 5.28 15 8 C14.67 8 14.34 8 14 8 C14 6.02 14 4.04 14 2 C7.07 1.505 7.07 1.505 0 1 C0 0.67 0 0.34 0 0 Z " fill="#FFFFFF" transform="translate(123,79)"/>
<path d="M0 0 C0 0.99 0 1.98 0 3 C-2.40625 5.04296875 -2.40625 5.04296875 -5.5 7.1875 C-6.5209375 7.90292969 -7.541875 8.61835937 -8.59375 9.35546875 C-9.3878125 9.89816406 -10.181875 10.44085938 -11 11 C-11.33 10.34 -11.66 9.68 -12 9 C-8.04 6.03 -4.08 3.06 0 0 Z " fill="#FFFFFF" transform="translate(123,95)"/>
<path d="M0 0 C7.59 0 15.18 0 23 0 C23 0.33 23 0.66 23 1 C15.41 1 7.82 1 0 1 C0 0.67 0 0.34 0 0 Z " fill="#FFFFFF" transform="translate(243,34)"/>
<path d="M0 0 C0.69278763 2.15533928 1.11523472 3.56210807 0.53125 5.78125 C-0.11812621 8.49335064 -0.09566283 10.96432232 -0.0625 13.75 C-0.05347656 14.73484375 -0.04445312 15.7196875 -0.03515625 16.734375 C-0.02355469 17.48203125 -0.01195312 18.2296875 0 19 C-0.66 18.67 -1.32 18.34 -2 18 C-2.20852314 11.59370576 -2.1583195 6.07027358 0 0 Z " fill="#FFFFFF" transform="translate(37,179)"/>
<path d="M0 0 C-3.68713736 2.26169766 -7.539556 2.63948566 -11.75 3.125 C-12.44738281 3.21136719 -13.14476562 3.29773438 -13.86328125 3.38671875 C-15.57472332 3.59771846 -17.28726629 3.79975501 -19 4 C-16.42994819 1.42994819 -14.74860822 1.42826712 -11.1875 0.875 C-10.14980469 0.70742187 -9.11210937 0.53984375 -8.04296875 0.3671875 C-5.32057663 0.03868319 -2.73749219 -0.07084083 0 0 Z " fill="#FFFFFF" transform="translate(272,163)"/>
<path d="M0 0 C2.64 0 5.28 0 8 0 C8 0.33 8 0.66 8 1 C5.69 1 3.38 1 1 1 C1 5.29 1 9.58 1 14 C0.67 14 0.34 14 0 14 C0 9.38 0 4.76 0 0 Z " fill="#FFFFFF" transform="translate(217,177)"/>
<path d="M0 0 C6.93 0 13.86 0 21 0 C21 0.33 21 0.66 21 1 C14.07 1 7.14 1 0 1 C0 0.67 0 0.34 0 0 Z " fill="#FFFFFF" transform="translate(266,35)"/>
<path d="M0 0 C2.125 0.375 2.125 0.375 4 1 C3.278125 1.350625 2.55625 1.70125 1.8125 2.0625 C-1.83576744 4.5757509 -3.56527291 7.31312754 -6 11 C-6 6.32765318 -3.22690244 3.22690244 0 0 Z " fill="#FFFFFF" transform="translate(52,11)"/>
<path d="M0 0 C0.99 0.33 1.98 0.66 3 1 C-0.88330122 3.16742394 -3.53979611 4.36163815 -8 4 C-8.99 4 -9.98 4 -11 4 C-8.23522547 1.23522547 -5.8033247 1.47541559 -2 1 C-1.34 0.67 -0.68 0.34 0 0 Z " fill="#FFFFFF" transform="translate(319,11)"/>
<path d="M0 0 C5.61 0 11.22 0 17 0 C15 2 15 2 12.03125 2.265625 C10.8659375 2.26046875 9.700625 2.2553125 8.5 2.25 C7.3346875 2.25515625 6.169375 2.2603125 4.96875 2.265625 C2 2 2 2 0 0 Z " fill="#FFFFFF" transform="translate(174,140)"/>
<path d="M0 0 C-1.45381897 0.69699552 -2.91322953 1.38233866 -4.375 2.0625 C-5.18710938 2.44535156 -5.99921875 2.82820312 -6.8359375 3.22265625 C-7.55007812 3.47917969 -8.26421875 3.73570312 -9 4 C-9.66 3.67 -10.32 3.34 -11 3 C-9.73581754 2.30034557 -8.46334598 1.61565237 -7.1875 0.9375 C-6.47980469 0.55464844 -5.77210938 0.17179688 -5.04296875 -0.22265625 C-3 -1 -3 -1 0 0 Z " fill="#FFFFFF" transform="translate(204,135)"/>
<path d="M0 0 C1.65 0 3.3 0 5 0 C5 1.32 5 2.64 5 4 C5.99 3.67 6.98 3.34 8 3 C8 3.66 8 4.32 8 5 C6.68 5 5.36 5 4 5 C4 3.68 4 2.36 4 1 C2.35 1.33 0.7 1.66 -1 2 C-0.67 1.34 -0.34 0.68 0 0 Z " fill="#FFFFFF" transform="translate(118,12)"/>
<path d="M0 0 C0 3.99904969 -1.72586967 5.80200422 -4 9 C-4.33 8.34 -4.66 7.68 -5 7 C-3.35 4.69 -1.7 2.38 0 0 Z " fill="#FFFFFF" transform="translate(103,116)"/>
<path d="M0 0 C0.33 0 0.66 0 1 0 C1 4.29 1 8.58 1 13 C0.67 13 0.34 13 0 13 C0 8.71 0 4.42 0 0 Z " fill="#FFFFFF" transform="translate(54,170)"/>
<path d="M0 0 C4.95 0.99 4.95 0.99 10 2 C10 2.33 10 2.66 10 3 C7.03 3 4.06 3 1 3 C0.67 2.01 0.34 1.02 0 0 Z " fill="#FFFFFF" transform="translate(272,164)"/>
<path d="M0 0 C0.33 0 0.66 0 1 0 C1 3.96 1 7.92 1 12 C0.67 12 0.34 12 0 12 C0 8.04 0 4.08 0 0 Z " fill="#FFFFFF" transform="translate(245,159)"/>
<path d="M0 0 C0.33 1.32 0.66 2.64 1 4 C0.34 4 -0.32 4 -1 4 C-1.33 4.99 -1.66 5.98 -2 7 C-2.33 6.34 -2.66 5.68 -3 5 C-1.5625 2.375 -1.5625 2.375 0 0 Z " fill="#FFFFFF" transform="translate(97,125)"/>
<path d="M0 0 C2.89932357 2.39509338 3.50168276 4.31245243 4 8 C1.84622436 5.37801226 0.59927826 3.35595828 0 0 Z " fill="#FFFFFF" transform="translate(99,131)"/>
<path d="M0 0 C0 3 0 3 -1.5 4.6875 C-1.995 5.120625 -2.49 5.55375 -3 6 C-3.66 5.67 -4.32 5.34 -5 5 C-3.35 3.35 -1.7 1.7 0 0 Z " fill="#FFFFFF" transform="translate(129,89)"/>
<path d="M0 0 C3.63 0 7.26 0 11 0 C11 0.33 11 0.66 11 1 C7.37 1 3.74 1 0 1 C0 0.67 0 0.34 0 0 Z " fill="#FFFFFF" transform="translate(232,35)"/>
<path d="M0 0 C-0.33 0.66 -0.66 1.32 -1 2 C-1.66 1.67 -2.32 1.34 -3 1 C-4.66619446 0.9603287 -6.33391013 0.95615553 -8 1 C-4.93251126 -0.86240388 -3.40254489 -1.2151946 0 0 Z " fill="#FFFFFF" transform="translate(334,12)"/>
<path d="M0 0 C1.65 1.65 3.3 3.3 5 5 C4.01 5 3.02 5 2 5 C1.34 3.35 0.68 1.7 0 0 Z " fill="#FFFFFF" transform="translate(37,198)"/>
<path d="M0 0 C3.3 0 6.6 0 10 0 C10 0.33 10 0.66 10 1 C6.7 1 3.4 1 0 1 C0 0.67 0 0.34 0 0 Z " fill="#FFFFFF" transform="translate(225,178)"/>
<path d="M0 0 C0.99 0.33 1.98 0.66 3 1 C3 1.99 3 2.98 3 4 C3.99 4.33 4.98 4.66 6 5 C4.68 5 3.36 5 2 5 C1.34 3.35 0.68 1.7 0 0 Z " fill="#FFFFFF" transform="translate(111,10)"/>
<path d="M0 0 C0 3 0 3 -1.5 4.6875 C-1.995 5.120625 -2.49 5.55375 -3 6 C-1.125 1.125 -1.125 1.125 0 0 Z " fill="#FFFFFF" transform="translate(110,106)"/>
<path d="M0 0 C2.97 0 5.94 0 9 0 C9 0.33 9 0.66 9 1 C6.03 1 3.06 1 0 1 C0 0.67 0 0.34 0 0 Z " fill="#FFFFFF" transform="translate(7,28)"/>
<path d="M0 0 C2.64 0 5.28 0 8 0 C8 0.33 8 0.66 8 1 C5.36 1 2.72 1 0 1 C0 0.67 0 0.34 0 0 Z " fill="#FFFFFF" transform="translate(287,34)"/>
<path d="M0 0 C2.64 0 5.28 0 8 0 C8 0.33 8 0.66 8 1 C5.36 1 2.72 1 0 1 C0 0.67 0 0.34 0 0 Z " fill="#FFFFFF" transform="translate(334,14)"/>
<path d="M0 0 C0.33 0.99 0.66 1.98 1 3 C0.01 3.66 -0.98 4.32 -2 5 C-1.34 3.35 -0.68 1.7 0 0 Z " fill="#FFFFFF" transform="translate(64,182)"/>
<path d="M0 0 C0.99 0.33 1.98 0.66 3 1 C1.02 1.33 -0.96 1.66 -3 2 C-2.01 1.34 -1.02 0.68 0 0 Z " fill="#FFFFFF" transform="translate(108,9)"/>
<path d="M0 0 C0.66 0.66 1.32 1.32 2 2 C1.67 2.99 1.34 3.98 1 5 C0.67 3.35 0.34 1.7 0 0 Z " fill="#FFFFFF" transform="translate(110,156)"/>
<path d="M0 0 C0.33 0.99 0.66 1.98 1 3 C0.34 3.66 -0.32 4.32 -1 5 C-0.67 3.35 -0.34 1.7 0 0 Z " fill="#FFFFFF" transform="translate(81,152)"/>
<path d="M0 0 C0.66 0.66 1.32 1.32 2 2 C1.67 2.99 1.34 3.98 1 5 C0.67 3.35 0.34 1.7 0 0 Z " fill="#FFFFFF" transform="translate(106,147)"/>
<path d="M0 0 C0.66 0.66 1.32 1.32 2 2 C1.67 2.99 1.34 3.98 1 5 C0.67 3.35 0.34 1.7 0 0 Z " fill="#FFFFFF" transform="translate(103,139)"/>
<path d="M0 0 C0 0.99 0 1.98 0 3 C-0.99 3.495 -0.99 3.495 -2 4 C-1.34 2.68 -0.68 1.36 0 0 Z " fill="#FFFFFF" transform="translate(106,112)"/>
<path d="M0 0 C0.33 0 0.66 0 1 0 C1 1.98 1 3.96 1 6 C0.67 6 0.34 6 0 6 C0 4.02 0 2.04 0 0 Z " fill="#FFFFFF" transform="translate(136,87)"/>
<path d="M0 0 C0.99 0.99 1.98 1.98 3 3 C2.01 3.495 2.01 3.495 1 4 C0.67 2.68 0.34 1.36 0 0 Z " fill="#FFFFFF" transform="translate(62,87)"/>
<path d="M0 0 C0.33 0.99 0.66 1.98 1 3 C0.01 3.495 0.01 3.495 -1 4 C-0.67 2.68 -0.34 1.36 0 0 Z " fill="#FFFFFF" transform="translate(69,174)"/>
<path d="M0 0 C0.99 0.99 1.98 1.98 3 3 C2.01 2.67 1.02 2.34 0 2 C0 1.34 0 0.68 0 0 Z " fill="#FFFFFF" transform="translate(65,91)"/>
<path d="M0 0 C1.65 0 3.3 0 5 0 C5 0.33 5 0.66 5 1 C3.35 1 1.7 1 0 1 C0 0.67 0 0.34 0 0 Z " fill="#FFFFFF" transform="translate(295,33)"/>
<path d="M0 0 C0 3 0 3 0 3 Z " fill="#FFFFFF" transform="translate(61,187)"/>
<path d="M0 0 C0.99 0.495 0.99 0.495 2 1 C1.67 1.66 1.34 2.32 1 3 C0.67 2.01 0.34 1.02 0 0 Z " fill="#FFFFFF" transform="translate(94,123)"/>
<path d="M0 0 C0.99 0.33 1.98 0.66 3 1 C2.01 1 1.02 1 0 1 C0 0.67 0 0.34 0 0 Z " fill="#FFFFFF" transform="translate(82,109)"/>
<path d="M0 0 C0.99 0.495 0.99 0.495 2 1 C1.67 1.66 1.34 2.32 1 3 C0.67 2.01 0.34 1.02 0 0 Z " fill="#FFFFFF" transform="translate(78,104)"/>
<path d="" fill="#FFFFFF" transform="translate(0,0)"/>
<path d="M0 0 C0.66 0 1.32 0 2 0 C1.67 0.66 1.34 1.32 1 2 C0.67 1.34 0.34 0.68 0 0 Z " fill="#FFFFFF" transform="translate(92,121)"/>
<path d="M0 0 C0.66 0 1.32 0 2 0 C1.67 0.66 1.34 1.32 1 2 C0.67 1.34 0.34 0.68 0 0 Z " fill="#FFFFFF" transform="translate(80,107)"/>
<path d="M0 0 C0.66 0.66 1.32 1.32 2 2 C1.34 2 0.68 2 0 2 C0 1.34 0 0.68 0 0 Z " fill="#FFFFFF" transform="translate(70,96)"/>
<path d="" fill="#FFFFFF" transform="translate(0,0)"/>
<path d="" fill="#FFFFFF" transform="translate(0,0)"/>
<path d="" fill="#FFFFFF" transform="translate(0,0)"/>
<path d="" fill="#FFFFFF" transform="translate(0,0)"/>
<path d="" fill="#FFFFFF" transform="translate(0,0)"/>
<path d="" fill="#FFFFFF" transform="translate(0,0)"/>
<path d="" fill="#FFFFFF" transform="translate(0,0)"/>
<path d="" fill="#FFFFFF" transform="translate(0,0)"/>
<path d="" fill="#FFFFFF" transform="translate(0,0)"/>
<path d="" fill="#FFFFFF" transform="translate(0,0)"/>
<path d="" fill="#FFFFFF" transform="translate(0,0)"/>
<path d="" fill="#FFFFFF" transform="translate(0,0)"/>
<path d="" fill="#FFFFFF" transform="translate(0,0)"/>
<path d="" fill="#FFFFFF" transform="translate(0,0)"/>
<path d="" fill="#FFFFFF" transform="translate(0,0)"/>
<path d="" fill="#FFFFFF" transform="translate(0,0)"/>
<path d="" fill="#FFFFFF" transform="translate(0,0)"/>
<path d="" fill="#FFFFFF" transform="translate(0,0)"/>
<path d="" fill="#FFFFFF" transform="translate(0,0)"/>
<path d="M0 0 C2 1 2 1 2 1 Z " fill="#FFFFFF" transform="translate(191,139)"/>
<path d="" fill="#FFFFFF" transform="translate(0,0)"/>
<path d="" fill="#FFFFFF" transform="translate(0,0)"/>
<path d="" fill="#FFFFFF" transform="translate(0,0)"/>
<path d="" fill="#FFFFFF" transform="translate(0,0)"/>
<path d="" fill="#FFFFFF" transform="translate(0,0)"/>
<path d="" fill="#FFFFFF" transform="translate(0,0)"/>
<path d="" fill="#FFFFFF" transform="translate(0,0)"/>
<path d="" fill="#FFFFFF" transform="translate(0,0)"/>
<path d="" fill="#FFFFFF" transform="translate(0,0)"/>
<path d="" fill="#FFFFFF" transform="translate(0,0)"/>
<path d="" fill="#FFFFFF" transform="translate(0,0)"/>
<path d="" fill="#FFFFFF" transform="translate(0,0)"/>
<path d="" fill="#FFFFFF" transform="translate(0,0)"/>
<path d="" fill="#FFFFFF" transform="translate(0,0)"/>
<path d="" fill="#FFFFFF" transform="translate(0,0)"/>
<path d="" fill="#FFFFFF" transform="translate(0,0)"/>
<path d="" fill="#FFFFFF" transform="translate(0,0)"/>
<path d="" fill="#FFFFFF" transform="translate(0,0)"/>
<path d="" fill="#FFFFFF" transform="translate(0,0)"/>
<path d="" fill="#FFFFFF" transform="translate(0,0)"/>
<path d="" fill="#FFFFFF" transform="translate(0,0)"/>
<path d="" fill="#FFFFFF" transform="translate(0,0)"/>
<path d="" fill="#FFFFFF" transform="translate(0,0)"/>
<path d="" fill="#FFFFFF" transform="translate(0,0)"/>
<path d="" fill="#FFFFFF" transform="translate(0,0)"/>
<path d="" fill="#FFFFFF" transform="translate(0,0)"/>
<path d="" fill="#FFFFFF" transform="translate(0,0)"/>
<path d="" fill="#FFFFFF" transform="translate(0,0)"/>
<path d="" fill="#FFFFFF" transform="translate(0,0)"/>
</svg>
